<svg width="147" height="147" viewBox="0 0 147 147" fill="none" xmlns="http://www.w3.org/2000/svg">
<path d="M59.7188 69.4063H60.2188V68.9063V45.9375C60.2188 44.8518 60.6501 43.8105 61.4178 43.0428C62.1855 42.2751 63.2268 41.8438 64.3125 41.8438C65.3983 41.8438 66.4395 42.2751 67.2072 43.0428C67.975 43.8105 68.4063 44.8518 68.4063 45.9375V73.5C68.4063 74.5858 67.975 75.627 67.2072 76.3947C66.4395 77.1625 65.3983 77.5938 64.3125 77.5938H45.9375C44.8518 77.5938 43.8105 77.1625 43.0428 76.3947C42.2751 75.627 41.8438 74.5858 41.8438 73.5C41.8438 72.4143 42.2751 71.373 43.0428 70.6053C43.8105 69.8376 44.8518 69.4063 45.9375 69.4063H59.7188ZM92.375 91.875V91.375H91.875H78.0938C77.008 91.375 75.9668 90.9437 75.1991 90.176C74.4313 89.4083 74 88.367 74 87.2813C74 86.1955 74.4313 85.1543 75.1991 84.3866C75.9668 83.6188 77.008 83.1875 78.0938 83.1875H96.4688C97.5545 83.1875 98.5958 83.6188 99.3635 84.3866C100.131 85.1543 100.563 86.1955 100.563 87.2813V101.063C100.563 102.148 100.131 103.19 99.3635 103.957C98.5958 104.725 97.5545 105.156 96.4688 105.156H82.6875H82.1875V105.656V110.25V110.75H82.6875H96.4688C97.5545 110.75 98.5958 111.181 99.3635 111.949C100.131 112.717 100.563 113.758 100.563 114.844C100.563 115.93 100.131 116.971 99.3635 117.738C98.5958 118.506 97.5545 118.938 96.4688 118.938H78.0938C77.008 118.938 75.9668 118.506 75.1991 117.738C74.4313 116.971 74 115.93 74 114.844V101.063C74 99.9768 74.4313 98.9355 75.1991 98.1678C75.9668 97.4001 77.008 96.9688 78.0938 96.9688H91.875H92.375V96.4688V91.875ZM124.031 96.9688H124.531V96.4688V87.2813C124.531 86.1955 124.963 85.1543 125.73 84.3866C126.498 83.6188 127.539 83.1875 128.625 83.1875C129.711 83.1875 130.752 83.6188 131.52 84.3866C132.287 85.1543 132.719 86.1955 132.719 87.2813V114.844C132.719 115.93 132.287 116.971 131.52 117.738C130.752 118.506 129.711 118.938 128.625 118.938C127.539 118.938 126.498 118.506 125.73 117.738C124.963 116.971 124.531 115.93 124.531 114.844V105.656V105.156H124.031H110.25C109.164 105.156 108.123 104.725 107.355 103.957C106.588 103.19 106.156 102.148 106.156 101.063V87.2813C106.156 86.1955 106.588 85.1543 107.355 84.3866C108.123 83.6188 109.164 83.1875 110.25 83.1875C111.336 83.1875 112.377 83.6188 113.145 84.3866C113.912 85.1543 114.344 86.1955 114.344 87.2813V96.4688V96.9688H114.844H124.031ZM68.4063 119.438C68.4063 120.523 67.975 121.565 67.2072 122.332C66.4395 123.1 65.3983 123.531 64.3125 123.531C54.4173 123.531 44.7442 120.597 36.5166 115.099C28.2891 109.602 21.8764 101.788 18.0897 92.6462C14.3029 83.5041 13.3121 73.4445 15.2426 63.7394C17.1731 54.0343 21.9381 45.1196 28.9351 38.1226C35.9321 31.1256 44.8468 26.3606 54.5519 24.4301C64.257 22.4996 74.3166 23.4904 83.4587 27.2772C92.6007 31.0639 100.414 37.4766 105.912 45.7041C111.409 53.9317 114.344 63.6048 114.344 73.5C114.344 74.5858 113.912 75.627 113.145 76.3947C112.377 77.1625 111.336 77.5938 110.25 77.5938C109.164 77.5938 108.123 77.1625 107.355 76.3947C106.588 75.627 106.156 74.5858 106.156 73.5C106.156 65.2241 103.702 57.134 99.1043 50.2529C94.5065 43.3717 87.9714 38.0085 80.3254 34.8414C72.6795 31.6744 64.2661 30.8457 56.1492 32.4603C48.0323 34.0748 40.5765 38.0601 34.7245 43.912C28.8726 49.764 24.8873 57.2198 23.2728 65.3367C21.6582 73.4536 22.4869 81.867 25.6539 89.5129C28.821 97.1589 34.1842 103.694 41.0654 108.292C47.9465 112.89 56.0366 115.344 64.3125 115.344C65.3983 115.344 66.4395 115.775 67.2072 116.543C67.975 117.311 68.4063 118.352 68.4063 119.438Z" fill="#FFAF18" stroke="white"/>
</svg>
