<svg width="330" height="383" viewBox="0 0 330 383" fill="none" xmlns="http://www.w3.org/2000/svg">
<g clip-path="url(#clip0_151_1770)">
<path d="M326.645 312.742C326.645 312.735 253.518 312.729 163.331 312.729C73.1123 312.729 0 312.735 0 312.742C0 312.749 73.1123 312.754 163.331 312.754C253.518 312.754 326.645 312.749 326.645 312.742Z" fill="#263238"/>
<path d="M302.503 77.8015C304.922 76.6215 306.9 74.6997 308.151 72.3161C309.401 69.9325 309.858 67.2117 309.454 64.5503C309.051 61.8888 307.808 59.4258 305.908 57.5202C304.007 55.6146 301.548 54.366 298.888 53.9564C301.03 52.1317 302.567 49.6989 303.295 46.9805C304.024 44.2621 303.909 41.3865 302.966 38.7348C302.023 36.0832 300.297 33.7808 298.016 32.1329C295.736 30.4849 293.008 29.5693 290.195 29.5073C293.952 26.5743 295.186 21.1125 293.819 16.5456C292.25 11.9846 288.97 8.21217 284.673 6.02505C273.273 -0.220196 257.258 4.28763 250.786 15.5634L248.853 124.358C250.98 126.68 253.66 128.425 256.643 129.433C259.627 130.44 262.816 130.676 265.915 130.119C269.014 129.562 271.922 128.23 274.368 126.246C276.814 124.263 278.718 121.693 279.905 118.776C283.805 118.793 287.682 118.191 291.394 116.993C295.03 115.601 298.347 112.793 299.322 109.023C300.297 105.253 298.216 100.656 294.432 99.7411C298.807 97.3973 303.416 94.8288 305.816 90.4836C308.217 86.1386 307.16 79.5179 302.503 77.8015Z" fill="#E4E4E4"/>
<path d="M274.847 22.9902C273.513 17.0522 269.088 12.2702 264.216 8.62449C262.256 6.9732 259.919 5.83175 257.412 5.30155C256.155 5.05947 254.855 5.19178 253.673 5.68205C252.492 6.17232 251.48 6.99898 250.763 8.05941L251.147 12.3118C250.669 19.0787 255.937 24.7185 258.478 31.0083C259.583 33.7436 260.493 37.0328 263.21 38.1787C264.68 38.7114 266.294 38.6821 267.743 38.0965C273.476 36.0562 276.182 28.928 274.847 22.9902Z" fill="#E4E4E4"/>
<path d="M275.731 54.2529C277.538 51.6273 278.367 48.4499 278.072 45.2754C277.776 42.1009 276.376 39.131 274.115 36.8841C276.527 33.7025 275.521 28.906 272.923 25.875C270.325 22.8438 266.531 21.1592 262.87 19.5695C260.667 10.4783 250.261 4.2921 241.225 6.70123C236.327 -0.149066 226.215 -1.00443 218.189 1.54138C216.279 2.30838 214.268 2.79723 212.218 2.99299C210.712 2.91853 209.212 2.74656 207.727 2.47813C199.48 1.56529 191.456 7.54621 188.43 15.2746C188.036 16.543 187.477 17.7543 186.768 18.8775C185.586 20.1555 184.246 21.2786 182.782 22.22C181.323 23.4171 180.138 24.9147 179.31 26.6107C178.481 28.3067 178.028 30.1614 177.98 32.0485C177.921 35.2457 179.017 38.6113 177.741 41.5429C177.101 43.0124 175.911 44.2148 175.422 45.7411C174.004 50.1645 178.972 54.5352 178.178 59.1116C178.016 60.0456 177.617 60.9207 177.381 61.8387C176.9 63.7369 177.123 65.7451 178.007 67.4919C178.688 68.8236 179.763 70.0327 179.887 71.5232C179.836 72.6566 179.639 73.7788 179.3 74.8616C178.808 77.5939 184.921 87.9421 187.304 89.3657L257.515 88.3447C260.155 87.6846 262.524 86.2197 264.295 84.1529C266.066 82.086 267.151 79.5194 267.399 76.8086C267.348 75.904 267.554 75.0034 267.993 74.2109C268.527 73.6559 269.169 73.2166 269.88 72.9203C274.343 70.3865 274.743 64.1661 274.147 59.0679C274.019 58.359 274.016 57.6332 274.136 56.923C274.484 55.9355 275.026 55.0276 275.731 54.2529V54.2529Z" fill="#E4E4E4"/>
<path d="M255.727 54.8281C255.643 42.3965 247.516 28.2998 235.033 22.513C227.164 18.865 221.094 18.9826 216.994 18.6017C211.238 18.1874 205.492 19.5344 200.52 22.4638C196.672 23.4638 182.798 36.7836 182.393 50.8927C181.942 66.5672 182.011 85.7222 184.262 97.3291C188.791 120.668 206.873 123.04 206.873 123.04C206.874 123.004 206.684 141.665 206.684 141.665L205.075 156.356L252.604 144.912L255.727 54.8281Z" fill="#EBC3B8"/>
<path d="M190.255 72.1338C190.274 72.9186 190.599 73.6649 191.161 74.2136C191.722 74.7622 192.475 75.0699 193.26 75.071C193.644 75.0884 194.027 75.0287 194.388 74.8956C194.748 74.7625 195.078 74.5585 195.359 74.2958C195.639 74.0331 195.864 73.7169 196.02 73.3658C196.177 73.0148 196.261 72.636 196.269 72.2518C196.25 71.4674 195.925 70.7215 195.365 70.1726C194.804 69.6238 194.052 69.3153 193.267 69.3128C192.883 69.2953 192.499 69.3548 192.139 69.488C191.778 69.6211 191.447 69.8252 191.167 70.0881C190.886 70.351 190.661 70.6674 190.504 71.0187C190.348 71.3701 190.263 71.7492 190.255 72.1338V72.1338Z" fill="#263238"/>
<path d="M187.981 59.713C188.368 60.0931 190.59 58.3282 193.828 58.225C197.06 58.0763 199.493 59.6616 199.831 59.2527C199.998 59.071 199.593 58.3761 198.534 57.6579C197.099 56.7348 195.415 56.2778 193.71 56.3496C192.027 56.4014 190.403 56.9878 189.074 58.0241C188.105 58.822 187.792 59.5438 187.981 59.713Z" fill="#E4E2E2"/>
<path d="M207.799 84.6393C207.808 84.455 205.784 84.1763 202.508 83.8701C201.679 83.8128 200.891 83.6755 200.732 83.1161C200.633 82.2644 200.796 81.4027 201.199 80.6463C201.909 78.6184 202.652 76.4913 203.429 74.265C206.517 65.1838 208.724 57.7267 208.357 57.6062C207.99 57.4845 205.189 64.7479 202.1 73.8295C201.359 76.0682 200.651 78.2064 199.975 80.2439C199.489 81.2596 199.377 82.4142 199.657 83.5048C199.787 83.7922 199.981 84.0462 200.224 84.2477C200.466 84.4491 200.752 84.5926 201.058 84.6673C201.52 84.7757 201.994 84.8251 202.469 84.8144C205.756 84.8787 207.793 84.8238 207.799 84.6393Z" fill="#CF9788"/>
<path d="M206.874 123.039C217.926 122.83 228.703 119.555 238.005 113.581C238.005 113.581 230.282 130.723 206.727 129.331L206.874 123.039Z" fill="#D8A99D"/>
<path d="M224.16 72.0404C224.165 72.8255 223.863 73.5815 223.319 74.1473C222.775 74.7131 222.031 75.0439 221.247 75.0693C220.864 75.0985 220.479 75.0508 220.114 74.9289C219.75 74.807 219.414 74.6133 219.125 74.3594C218.837 74.1055 218.602 73.7965 218.435 73.4504C218.268 73.1044 218.172 72.7285 218.152 72.3447C218.147 71.5601 218.448 70.8044 218.992 70.2385C219.535 69.6726 220.278 69.3411 221.061 69.3144C221.445 69.2849 221.83 69.3325 222.195 69.4543C222.56 69.5762 222.896 69.7699 223.185 70.0239C223.474 70.278 223.709 70.5873 223.876 70.9336C224.044 71.2799 224.14 71.6562 224.16 72.0404V72.0404Z" fill="#263238"/>
<path d="M232.322 59.4689C231.947 59.8605 229.672 58.1652 226.432 58.1628C223.197 58.1142 220.813 59.7744 220.464 59.3757C220.291 59.1996 220.675 58.4923 221.711 57.7414C223.116 56.7741 224.785 56.2651 226.491 56.2842C228.176 56.2838 229.817 56.8196 231.177 57.8143C232.17 58.5822 232.506 59.2931 232.322 59.4689Z" fill="#E4E2E2"/>
<path d="M252.605 77.1948C252.549 75.4472 254.427 71.2579 256.144 70.9294C260.727 70.0536 269.044 70.1393 269.521 81.841C270.174 97.8371 253.984 95.1929 253.937 94.7354C253.901 94.3782 252.797 83.2297 252.605 77.1948Z" fill="#EBC3B8"/>
<path d="M258.111 88.7117C258.179 88.6577 258.397 88.8955 258.876 89.0922C259.551 89.3482 260.298 89.3331 260.961 89.0499C262.625 88.3611 263.938 85.62 263.898 82.7334C263.883 81.3601 263.561 80.0075 262.956 78.7746C262.786 78.2812 262.498 77.8365 262.118 77.479C261.737 77.1215 261.276 76.8618 260.773 76.7223C260.449 76.6507 260.111 76.6944 259.817 76.8459C259.522 76.9975 259.29 77.2473 259.16 77.5521C258.963 78.0086 259.078 78.3243 258.995 78.3542C258.952 78.3968 258.64 78.101 258.743 77.4356C258.815 77.0353 259.023 76.6721 259.331 76.4067C259.758 76.0561 260.305 75.8873 260.855 75.9366C261.517 76.0399 262.141 76.3113 262.668 76.7247C263.195 77.1382 263.608 77.68 263.866 78.2983C264.603 79.6556 264.997 81.1728 265.013 82.7174C265.043 85.9449 263.516 89.0283 261.231 89.7913C260.807 89.9336 260.357 89.9788 259.913 89.9234C259.469 89.8681 259.043 89.7137 258.667 89.4717C258.155 89.0977 258.056 88.743 258.111 88.7117Z" fill="#D8A99D"/>
<path d="M178.746 51.2337C181.91 49.1048 183.88 46.2868 183.552 42.4863C185.716 43.0527 187.799 40.2196 188.987 38.3227C190.174 36.4263 191.674 35.4387 191.504 33.2071C191.427 32.7697 191.467 32.3199 191.62 31.903C191.924 31.2788 192.678 31.053 193.333 30.8239C195.02 30.2145 196.527 29.1916 197.716 27.8489C198.905 26.5063 199.739 24.8867 200.14 23.1384C203.638 24.5267 207.425 25.0224 211.162 24.5809C212.036 25.7603 213.194 26.6987 214.529 27.308C215.864 27.9173 217.331 28.1777 218.794 28.0647C220.257 27.9517 221.668 27.4691 222.893 26.662C224.119 25.8549 225.119 24.7498 225.801 23.4502C226.375 24.4068 227.147 25.2287 228.066 25.8602C228.985 26.4916 230.029 26.9176 231.128 27.1094C233.325 27.4771 235.564 27.5239 237.774 27.2481C237.435 29.431 237.894 31.6629 239.067 33.5345C240.24 35.406 242.049 36.7918 244.16 37.4377C244.735 37.5934 245.399 37.7446 245.679 38.27C245.769 38.5659 245.799 38.8769 245.766 39.1845C245.734 39.4922 245.641 39.7903 245.491 40.0611C245.219 40.9922 245.136 41.9687 245.249 42.9323C245.362 43.896 245.667 44.827 246.147 45.6701C246.627 46.5131 247.272 47.2508 248.043 47.8393C248.815 48.4277 249.696 48.8548 250.636 49.0951C250.046 49.6555 249.591 50.3422 249.304 51.1038C249.017 51.8653 248.907 52.6819 248.981 53.4923C249.055 54.3026 249.311 55.0857 249.731 55.7828C250.151 56.4799 250.723 57.0728 251.404 57.5171C251.998 57.8493 252.772 58.2467 252.704 58.9235C252.656 59.1789 252.543 59.4176 252.376 59.617C251.099 61.1481 250.286 63.0116 250.031 64.9888C249.952 66.9698 251.361 69.1425 253.343 69.1627C252.798 69.5966 252.347 70.1372 252.017 70.7514C251.688 71.3657 251.487 72.0406 251.427 72.7349C251.45 74.1265 252.904 75.4957 254.184 74.9509C254.728 74.7194 262.641 72.886 262.976 72.3984C267.296 66.101 261.376 59.5013 260.673 51.8963C259.812 44.2742 257.198 36.9553 253.034 30.5137C251.396 27.7555 249.399 25.2266 247.096 22.9931C244.336 20.5983 241.313 18.5242 238.085 16.8107C233.959 14.4309 229.719 12.0601 225.049 11.1219C216.349 9.37454 207.485 12.8112 199.559 16.8021C196.49 18.2162 193.625 20.0378 191.042 22.2177C188.144 25.045 185.774 28.3664 184.042 32.0259C181.358 37.2087 179.172 42.7747 178.801 48.5996" fill="#E4E4E4"/>
<path d="M175.422 45.741C175.597 45.1205 175.869 44.5316 176.228 43.9961C176.549 43.4528 177.008 42.8174 177.435 42.0088C177.911 41.0705 178.184 40.0418 178.234 38.9905C178.281 37.6687 178.215 36.3454 178.036 35.0349C177.812 33.4585 177.802 31.859 178.008 30.2801C178.295 28.4615 178.956 26.7221 179.948 25.1714C180.488 24.3251 181.124 23.5438 181.842 22.8429C182.61 22.1237 183.435 21.4676 184.308 20.8809C185.209 20.2885 186.007 19.5535 186.671 18.7048C187.275 17.7506 187.752 16.7216 188.09 15.6438C189.884 10.8428 193.335 6.84157 197.82 4.36288C199.027 3.70301 200.303 3.17582 201.624 2.79052C202.989 2.41535 204.396 2.21002 205.812 2.17918C206.533 2.17373 207.255 2.20791 207.972 2.28157C208.692 2.36923 209.402 2.4977 210.113 2.6007C211.532 2.85586 212.988 2.81045 214.388 2.4674C215.811 2.13921 217.198 1.57763 218.665 1.16214C221.646 0.27509 224.753 -0.110547 227.86 0.0209649C229.453 0.103725 231.034 0.342857 232.58 0.73493C235.782 1.51994 238.657 3.28837 240.803 5.7919C241.01 6.04933 241.216 6.30678 241.421 6.56083L241.163 6.46821C245.792 5.42825 250.645 6.20073 254.723 8.62703C258.801 11.0533 261.796 14.9494 263.093 19.5152L262.961 19.3587C264.918 20.166 266.823 21.095 268.664 22.1404C270.462 23.1578 272.057 24.4966 273.372 26.0903C274.609 27.6687 275.39 29.5558 275.63 31.5469C275.897 33.4729 275.411 35.4276 274.275 37.005L274.252 36.7376C276.471 38.8934 277.867 41.7579 278.197 44.8349C278.555 47.5845 278.063 50.3778 276.786 52.8393C276.489 53.4025 276.151 53.9433 275.775 54.4574C275.397 54.9263 275.045 55.4147 274.719 55.9205C274.417 56.3986 274.239 56.9439 274.2 57.5077C274.185 58.0626 274.218 58.6177 274.297 59.1671C274.541 61.1856 274.549 63.2255 274.321 65.2458C274.152 66.8809 273.667 68.4675 272.894 69.918C272.31 70.9842 271.487 71.9002 270.489 72.5941C269.68 73.1651 268.957 73.3997 268.56 73.7091C268.354 73.8561 268.164 74.0242 267.993 74.2108C268.13 73.9921 268.311 73.8044 268.524 73.6595C268.917 73.328 269.64 73.0709 270.42 72.4948C271.385 71.7957 272.179 70.8849 272.739 69.8321C273.481 68.3949 273.941 66.8284 274.092 65.2178C274.299 63.2153 274.274 61.1957 274.02 59.1987C273.934 58.6332 273.896 58.0613 273.908 57.4894C273.947 56.8787 274.136 56.2871 274.458 55.7666C274.786 55.2491 275.142 54.7494 275.523 54.2696C275.886 53.7669 276.212 53.2383 276.499 52.6881C277.729 50.2823 278.195 47.5579 277.834 44.8798C277.502 41.8937 276.138 39.1173 273.978 37.0302L273.846 36.9067L273.955 36.7626C275.024 35.2655 275.474 33.4142 275.214 31.5933C274.977 29.682 274.222 27.8718 273.031 26.3588C271.746 24.8111 270.188 23.512 268.435 22.5258C266.608 21.4941 264.719 20.5772 262.778 19.7804L262.673 19.735L262.647 19.6234C261.374 15.1837 258.454 11.3978 254.484 9.03932C250.514 6.68085 245.794 5.92785 241.287 6.93418L241.136 6.97449L241.029 6.84143C240.831 6.59619 240.632 6.34899 240.431 6.09981C238.349 3.6734 235.561 1.95963 232.456 1.19884C230.943 0.814818 229.396 0.57986 227.837 0.49731C224.783 0.366287 221.729 0.742343 218.798 1.61022C217.357 2.0152 215.959 2.57958 214.493 2.91635C213.761 3.09343 213.014 3.1951 212.261 3.21978C211.52 3.22523 210.78 3.16811 210.048 3.04904C209.326 2.94326 208.619 2.81442 207.917 2.727C207.22 2.65462 206.52 2.62021 205.819 2.62389C204.441 2.65088 203.071 2.8476 201.741 3.20963C200.45 3.5828 199.203 4.09456 198.022 4.73598C193.615 7.15743 190.217 11.0717 188.438 15.7751C188.086 16.8813 187.589 17.9362 186.961 18.9128C186.271 19.7898 185.442 20.5481 184.508 21.1577C183.644 21.7307 182.829 22.3721 182.068 23.0759C181.363 23.756 180.738 24.5148 180.206 25.3375C179.226 26.8486 178.569 28.5458 178.275 30.3228C178.061 31.8785 178.057 33.456 178.265 35.0125C178.432 36.3361 178.485 37.6717 178.422 39.0044C178.357 40.0779 178.064 41.1252 177.561 42.0761C177.114 42.891 176.643 43.5151 176.31 44.0476C176.048 44.4448 175.816 44.8613 175.616 45.2935C175.483 45.5866 175.434 45.7452 175.422 45.741Z" fill="#D8D8D8"/>
<path d="M233.605 3.42259C233.581 3.45906 233.175 3.19353 232.385 2.8366C231.272 2.33658 230.082 2.02953 228.866 1.92859C227.069 1.76661 225.262 2.08833 223.632 2.86039C221.647 3.82634 220.02 5.39665 218.983 7.34576C218.67 7.92823 218.422 8.54401 218.245 9.18159C218.149 9.45729 218.114 9.75075 218.143 10.0413C218.173 10.3319 218.265 10.6125 218.415 10.8635L218.822 11.3951L218.171 11.2329C216.494 10.8298 214.726 11.097 213.243 11.9777C212.064 12.685 211.146 13.7534 210.623 15.0244C210.271 15.8657 210.087 16.7678 210.081 17.6798C210.079 18.3215 210.141 18.6719 210.105 18.6778C210.091 18.6805 210.063 18.5957 210.024 18.4294C209.968 18.1846 209.932 17.9355 209.918 17.6848C209.848 16.4892 210.099 15.2965 210.647 14.2314C211.194 13.1662 212.018 12.2678 213.031 11.63C214.601 10.6618 216.49 10.3553 218.285 10.7776L218.041 11.1473C217.846 10.8416 217.721 10.4964 217.676 10.1367C217.631 9.77694 217.666 9.41163 217.78 9.06723C217.964 8.39087 218.224 7.73778 218.557 7.12069C219.64 5.08047 221.354 3.44511 223.442 2.45831C225.147 1.67248 227.035 1.37178 228.899 1.58929C230.145 1.72198 231.356 2.0878 232.467 2.66769C232.768 2.82228 233.057 2.99858 233.333 3.19522C233.52 3.33118 233.614 3.40859 233.605 3.42259Z" fill="#D8D8D8"/>
<path d="M260.136 20.9766C260.156 20.9975 259.973 21.2143 259.595 21.5661C259.053 22.066 258.46 22.5066 257.825 22.8806C256.862 23.4614 255.783 23.8226 254.664 23.9386C253.24 24.095 251.809 23.7108 250.655 22.862L251.007 22.7971C250.861 23.0159 250.711 23.2406 250.559 23.4683C250.395 23.6878 250.21 23.8976 250.033 24.1157C248.961 25.296 247.615 26.1935 246.114 26.7287C244.899 27.1739 243.61 27.3772 242.317 27.3274C241.451 27.2882 240.596 27.1212 239.779 26.8318C239.477 26.7354 239.19 26.5938 238.93 26.4119C240.034 26.744 241.174 26.9369 242.326 26.9863C243.568 26.9861 244.799 26.7576 245.959 26.3121C247.379 25.7798 248.652 24.9167 249.673 23.7943C249.84 23.5877 250.015 23.3902 250.171 23.1832C250.316 22.9684 250.458 22.7577 250.597 22.5511L250.748 22.3277L250.95 22.486C252.01 23.2677 253.319 23.6339 254.631 23.5154C255.696 23.4256 256.732 23.1144 257.67 22.6018C259.277 21.7257 260.082 20.9089 260.136 20.9766Z" fill="#D8D8D8"/>
<path d="M269.056 35.5514C269.072 35.5547 269.062 35.6551 269.026 35.8472C268.957 36.1247 268.845 36.3897 268.694 36.6324C268.107 37.5256 267.207 38.1661 266.171 38.4273C264.64 38.7525 263.049 38.6301 261.586 38.0746C260.718 37.8138 259.865 37.5078 259.029 37.1578C258.067 36.7966 257.263 36.1082 256.757 35.2134C256.72 35.1266 256.683 35.0394 256.649 34.9594L257.03 35.0623C255.639 36.2916 254.069 37.3027 252.375 38.0608C250.968 38.6756 249.417 38.8852 247.897 38.6658C246.875 38.5254 245.908 38.1216 245.09 37.494C244.869 37.3258 244.669 37.1331 244.492 36.9196C244.373 36.7725 244.317 36.6911 244.33 36.6801C244.362 36.6497 244.623 36.9499 245.199 37.3439C246.022 37.8867 246.963 38.225 247.944 38.3308C249.399 38.4928 250.871 38.2586 252.204 37.6529C253.845 36.8887 255.367 35.8911 256.722 34.6912L256.97 34.4834L257.102 34.7942C257.131 34.861 257.162 34.9335 257.193 35.0061C257.651 35.7975 258.37 36.4057 259.225 36.7276C260.052 37.0988 260.916 37.3794 261.719 37.6509C263.105 38.2012 264.615 38.3559 266.083 38.0977C267.061 37.8805 267.93 37.3249 268.537 36.529C268.736 36.2174 268.909 35.8905 269.056 35.5514V35.5514Z" fill="#D8D8D8"/>
<path d="M218.605 91.9444C218.463 91.236 218.201 90.557 217.831 89.9363C217.643 89.6276 217.38 89.3711 217.067 89.1902C216.754 89.0093 216.4 88.9098 216.039 88.9006C215.517 88.968 215.02 89.163 214.591 89.4684C212.655 90.6233 210.719 91.7783 208.783 92.9332L208.277 94.3516C209.434 96.1584 210.945 97.7117 212.72 98.9174C213.228 99.3217 213.844 99.5667 214.491 99.6215C215.313 99.5253 216.08 99.1543 216.666 98.5684C217.784 97.9306 218.611 96.8837 218.973 95.6482C219.334 94.4126 219.203 93.0848 218.605 91.9444V91.9444Z" fill="#D8A99D"/>
<path d="M214.242 100.058C215.274 99.5805 216.228 98.9474 217.069 98.1809C217.915 97.3216 218.497 96.2369 218.745 95.0562C219.025 93.6136 218.801 92.1184 218.11 90.8213C217.933 90.4841 217.723 90.1655 217.482 89.8703C217.279 89.5914 217.025 89.3526 216.735 89.1661C216.622 89.0934 216.493 89.0485 216.359 89.0351C216.226 89.0218 216.091 89.0403 215.965 89.0893C215.655 89.2233 215.358 89.3858 215.077 89.5748C213.856 90.318 212.75 90.9775 211.815 91.5212C210.843 92.1811 209.796 92.7232 208.696 93.1359C209.545 92.3234 210.487 91.6148 211.503 91.025C212.398 90.4177 213.472 89.7067 214.671 88.9281C214.992 88.6988 215.336 88.5033 215.696 88.3446C215.929 88.2549 216.178 88.2185 216.427 88.238C216.675 88.2576 216.916 88.3326 217.132 88.4575C217.516 88.6886 217.851 88.9913 218.121 89.3491C218.398 89.6841 218.639 90.0467 218.842 90.4311C219.624 91.8974 219.855 93.5962 219.491 95.2181C219.182 96.5268 218.478 97.7087 217.475 98.6036C216.819 99.2028 216.042 99.6537 215.196 99.9254C214.599 100.104 214.252 100.106 214.242 100.058Z" fill="#CF9788"/>
<path d="M300.809 313.069L289.046 282.766C289.046 282.766 289.846 251.063 292.796 236.567C295.747 222.072 289.201 141.644 289.201 141.644L253.062 131.694C253.062 131.694 244.849 146.725 229.115 145.276C210.685 143.578 206.533 131.694 206.533 131.694L182.207 135.617C182.207 135.617 168.518 184.541 162.646 195.978C156.775 207.414 156.299 242.676 156.299 242.676C156.299 242.676 162.666 262.377 164.236 268.965C164.463 269.921 164.384 270.924 164.009 271.832L149.222 313.491L300.809 313.069Z" fill="#8CAFEA"/>
<g opacity="0.3">
<path d="M274.849 233.133C275.183 237.524 274.26 244.319 275.09 248.644L282.171 250.157C284.864 244.941 286.641 239.301 287.426 233.484C287.426 233.484 274.755 231.898 274.849 233.133Z" fill="black"/>
</g>
<g opacity="0.3">
<path d="M264.803 261.01C263.862 259.979 262.671 259.21 261.344 258.777C259.931 258.578 258.491 258.751 257.165 259.278C250.213 261.374 243.261 263.47 236.309 265.567L221.439 261.713C224.384 267.548 229.254 272.188 235.224 274.847C241.194 277.506 247.899 278.02 254.205 276.304C256.773 275.605 259.407 274.534 262.006 275.104C264.451 275.639 266.333 277.515 268.247 279.127C274.102 284.059 283.026 284.348 290.654 284.99C283.304 275.418 273.637 269.232 264.803 261.01Z" fill="black"/>
</g>
<path d="M276.64 244.122L291.19 246.822L288.707 192.835L289.2 141.644C289.2 141.644 307.603 147.484 316.757 164.816C325.91 182.148 327.63 205.903 328.61 218.741C329.741 233.554 330.709 269.998 329.297 278.814C327.885 287.63 317.883 296.776 300.973 291.342C292.428 288.597 262.235 262.849 262.235 262.849L276.64 244.122Z" fill="#8CAFEA"/>
<path d="M182.206 135.617C182.206 135.617 151.645 141.366 145.435 153.398C139.225 165.429 109.725 231.953 113.576 251.108C117.426 270.264 140.065 278.853 147.718 271.182C155.372 263.51 162.687 242.273 162.687 242.273L182.206 135.617Z" fill="#8CAFEA"/>
<path d="M294.333 287.763C294.273 287.736 294.216 287.701 294.164 287.66C294.04 287.572 293.884 287.462 293.689 287.325C293.252 287.006 292.646 286.564 291.87 285.999C290.271 284.812 287.983 283.114 285.126 280.994C279.376 276.685 271.343 270.665 262.107 263.744L261.933 263.613L262.069 263.442C264.596 260.262 267.285 256.878 270.054 253.393C272.634 250.153 275.144 247 277.541 243.99L277.623 243.886L277.753 243.914C282.158 244.877 286.323 245.787 290.157 246.625L290.089 246.623C293.944 246.095 297.868 246.418 301.586 247.568C304.459 248.436 307.169 249.771 309.607 251.521C311.18 252.644 312.622 253.939 313.907 255.382C314.354 255.879 314.652 256.299 314.871 256.567L315.108 256.878C315.16 256.949 315.184 256.987 315.18 256.99C315.176 256.993 315.143 256.962 315.083 256.897L314.823 256.605C314.589 256.351 314.277 255.945 313.817 255.463C310.458 251.882 306.204 249.262 301.494 247.873C297.818 246.766 293.946 246.469 290.145 247.005L290.109 247.01L290.076 247.003C286.239 246.177 282.071 245.28 277.662 244.331L277.874 244.255C275.48 247.268 272.972 250.423 270.396 253.665C267.624 257.147 264.931 260.528 262.401 263.706L262.362 263.405C271.562 270.376 279.562 276.438 285.289 280.778C288.114 282.94 290.377 284.672 291.958 285.882C292.715 286.471 293.307 286.932 293.734 287.265L294.187 287.629C294.241 287.668 294.291 287.713 294.333 287.763Z" fill="#263238"/>
<path d="M291.232 196.834C291.275 196.998 291.299 197.167 291.304 197.337C291.337 197.715 291.378 198.194 291.428 198.783C291.52 200.098 291.647 201.903 291.802 204.108C292.092 208.605 292.455 214.824 292.586 221.704C292.723 228.586 292.52 234.822 292.138 239.318C292.06 240.444 291.942 241.458 291.846 242.348C291.756 243.24 291.657 244.005 291.559 244.629L291.338 246.064C291.399 246.083 291.45 246.125 291.482 246.18C291.513 246.236 291.523 246.301 291.509 246.363C291.495 246.425 291.458 246.48 291.406 246.516C291.353 246.553 291.289 246.568 291.226 246.559C291.163 246.551 291.105 246.519 291.064 246.47C291.024 246.42 291.003 246.358 291.006 246.294C291.009 246.23 291.036 246.17 291.081 246.125C291.127 246.081 291.187 246.054 291.251 246.052C291.287 245.675 291.333 245.197 291.39 244.608C291.462 243.983 291.537 243.216 291.602 242.324C291.675 241.433 291.772 240.42 291.83 239.296C292.132 234.805 292.286 228.583 292.149 221.711C292.018 214.842 291.704 208.626 291.493 204.125C291.396 201.917 291.316 200.11 291.258 198.793C291.241 198.201 291.227 197.721 291.216 197.342C291.202 197.173 291.207 197.002 291.232 196.834Z" fill="#263238"/>
<path d="M161.894 180.003C161.889 180.082 161.874 180.16 161.849 180.235C161.805 180.41 161.748 180.629 161.678 180.903C161.509 181.518 161.275 182.372 160.978 183.457C160.664 184.563 160.287 185.918 159.883 187.5C159.47 189.08 158.98 190.873 158.526 192.877C157.378 197.547 156.479 202.276 155.833 207.042C155.682 208.39 155.474 209.766 155.356 211.181C155.251 212.597 155.143 214.042 155.034 215.515C154.998 216.99 154.962 218.491 154.924 220.016C154.911 221.539 154.992 223.085 155.022 224.65C155.318 230.531 156.021 236.385 157.126 242.169C157.408 243.496 157.683 244.79 157.951 246.05C158.219 247.308 158.468 248.532 158.781 249.699C159.392 252.036 159.873 254.236 160.465 256.205C161.025 258.177 161.533 259.965 161.98 261.54C162.462 263.091 162.879 264.431 163.224 265.54C163.551 266.615 163.809 267.462 163.995 268.073L164.185 268.735C164.211 268.809 164.228 268.887 164.236 268.965C164.196 268.897 164.164 268.825 164.143 268.749L163.911 268.1C163.707 267.496 163.423 266.657 163.062 265.592C162.697 264.489 162.256 263.155 161.747 261.611C161.28 260.04 160.751 258.256 160.167 256.288C159.556 254.323 159.056 252.122 158.429 249.785C158.108 248.618 157.851 247.392 157.576 246.132C157.302 244.872 157.02 243.576 156.73 242.245C155.599 236.445 154.882 230.571 154.585 224.668C154.555 223.097 154.475 221.544 154.49 220.014C154.529 218.483 154.568 216.976 154.606 215.493C154.72 214.015 154.831 212.565 154.94 211.141C155.063 209.721 155.276 208.34 155.434 206.988C156.1 202.212 157.032 197.476 158.226 192.804C158.7 190.801 159.211 189.011 159.647 187.436C160.074 185.858 160.475 184.509 160.814 183.41C161.145 182.334 161.406 181.487 161.594 180.878C161.681 180.609 161.751 180.394 161.807 180.222C161.826 180.146 161.856 180.073 161.894 180.003V180.003Z" fill="#263238"/>
<path d="M158.453 186.896C156.759 183.386 155.331 179.755 154.179 176.031C155.873 179.541 157.302 183.173 158.453 186.896V186.896Z" fill="#263238"/>
<path d="M297.034 183.726C295.14 188.268 292.978 192.695 290.56 196.982C292.455 192.439 294.616 188.013 297.034 183.726V183.726Z" fill="#263238"/>
<g opacity="0.3">
<path d="M155.232 178.707C155.354 190.463 154.178 202.197 151.727 213.695L152.505 226.26C152.97 236.994 150.24 244.604 145.448 254.219C149.908 252.132 152.833 247.581 154.091 242.819C155.349 238.057 155.162 233.045 154.868 228.128C154.25 220.88 154.528 213.585 155.695 206.406C156.478 202.195 157.822 194.151 158.886 190.248C158.886 190.248 159.465 188.525 155.232 178.707Z" fill="black"/>
</g>
<g opacity="0.3">
<path d="M319.087 256.566C318.074 251.096 312.911 247.149 307.495 245.884C302.079 244.62 296.707 245.583 291.232 246.56C303.43 246.025 310.994 251.532 316.257 258.315C316.556 258.83 317.043 259.209 317.616 259.37C317.926 259.381 318.231 259.292 318.486 259.117C318.741 258.941 318.933 258.688 319.033 258.394C319.22 257.802 319.238 257.169 319.087 256.566V256.566Z" fill="black"/>
</g>
<path d="M257.135 233.851C256.234 233.851 255.357 233.561 254.634 233.022C253.911 232.483 253.381 231.726 253.123 230.862C252.865 229.998 252.892 229.074 253.201 228.227C253.509 227.38 254.083 226.655 254.836 226.16C255.589 225.665 256.482 225.427 257.382 225.48C258.282 225.533 259.141 225.875 259.83 226.455C260.52 227.035 261.005 227.822 261.212 228.7C261.419 229.577 261.337 230.498 260.979 231.326L260.978 231.327C260.653 232.076 260.116 232.715 259.433 233.163C258.751 233.612 257.952 233.851 257.135 233.851V233.851ZM257.138 229.095C257.066 229.095 256.995 229.108 256.928 229.134C256.788 229.189 256.677 229.298 256.617 229.436C256.557 229.574 256.555 229.73 256.61 229.87C256.651 229.974 256.722 230.063 256.814 230.127C256.906 230.191 257.015 230.226 257.127 230.228C257.24 230.229 257.35 230.198 257.444 230.137C257.538 230.076 257.612 229.989 257.656 229.886C257.715 229.748 257.717 229.592 257.662 229.453C257.606 229.313 257.498 229.201 257.361 229.141C257.29 229.11 257.214 229.095 257.138 229.095V229.095Z" fill="#AE7461"/>
<path d="M248.019 232.795C247.191 232.795 246.382 232.549 245.693 232.089C245.005 231.629 244.468 230.975 244.151 230.209C243.834 229.444 243.751 228.602 243.913 227.789C244.074 226.977 244.473 226.23 245.059 225.645C245.644 225.059 246.39 224.66 247.203 224.498C248.015 224.337 248.857 224.42 249.622 224.737C250.387 225.054 251.041 225.591 251.501 226.279C251.961 226.968 252.207 227.778 252.207 228.606C252.205 229.717 251.764 230.781 250.979 231.567C250.194 232.352 249.13 232.793 248.019 232.795ZM248.019 228.04C247.908 228.04 247.798 228.074 247.705 228.136C247.612 228.198 247.539 228.286 247.497 228.39C247.454 228.493 247.443 228.607 247.464 228.717C247.486 228.827 247.54 228.927 247.619 229.007C247.698 229.086 247.799 229.14 247.909 229.161C248.019 229.183 248.132 229.172 248.236 229.129C248.339 229.086 248.428 229.014 248.49 228.921C248.552 228.828 248.585 228.718 248.585 228.606C248.585 228.456 248.525 228.313 248.419 228.207C248.313 228.1 248.169 228.041 248.019 228.04Z" fill="#FF9A6C"/>
<path d="M217.071 232.071C216.243 232.071 215.433 231.825 214.744 231.365C214.056 230.905 213.519 230.251 213.202 229.485C212.885 228.72 212.802 227.877 212.963 227.065C213.125 226.252 213.524 225.506 214.109 224.92C214.695 224.334 215.441 223.935 216.254 223.773C217.066 223.612 217.908 223.695 218.673 224.012C219.439 224.329 220.093 224.866 220.553 225.555C221.013 226.244 221.258 227.054 221.258 227.883C221.257 228.993 220.815 230.058 220.03 230.843C219.245 231.628 218.181 232.07 217.071 232.071V232.071ZM217.071 227.315C216.959 227.315 216.849 227.348 216.756 227.41C216.663 227.473 216.59 227.561 216.547 227.665C216.504 227.768 216.493 227.882 216.515 227.992C216.537 228.102 216.59 228.203 216.67 228.282C216.749 228.361 216.85 228.415 216.959 228.437C217.069 228.459 217.183 228.448 217.287 228.406C217.39 228.363 217.479 228.29 217.541 228.197C217.603 228.104 217.637 227.995 217.637 227.883C217.637 227.732 217.577 227.588 217.471 227.482C217.365 227.376 217.221 227.316 217.071 227.315V227.315Z" fill="#FF9A6C"/>
<path d="M268.428 233.545C267.22 232.27 265.598 231.466 263.852 231.276C262.122 231.094 260.383 231.016 258.644 231.042C247.868 230.673 237.633 224.47 226.916 225.655C220.28 226.388 214.298 229.894 208.748 233.605L232.12 242.075C242.588 241.515 253.056 240.955 263.524 240.395C265.519 240.289 267.805 240.027 268.931 238.376C269.369 237.621 269.556 236.746 269.466 235.878C269.376 235.01 269.012 234.193 268.428 233.545V233.545Z" fill="white"/>
<path d="M239.126 235.173C238.297 235.173 237.488 234.928 236.799 234.468C236.11 234.008 235.573 233.353 235.256 232.588C234.939 231.823 234.856 230.98 235.018 230.168C235.179 229.355 235.578 228.609 236.163 228.023C236.749 227.437 237.495 227.038 238.307 226.876C239.12 226.714 239.962 226.797 240.727 227.114C241.492 227.431 242.146 227.968 242.607 228.657C243.067 229.345 243.313 230.155 243.313 230.984C243.311 232.094 242.87 233.159 242.085 233.944C241.3 234.73 240.236 235.172 239.126 235.173V235.173ZM239.126 230.418C239.013 230.418 238.904 230.451 238.811 230.513C238.717 230.575 238.645 230.664 238.602 230.767C238.559 230.871 238.548 230.985 238.569 231.095C238.591 231.205 238.645 231.306 238.724 231.385C238.804 231.464 238.905 231.518 239.015 231.54C239.125 231.562 239.239 231.551 239.342 231.508C239.446 231.465 239.534 231.392 239.596 231.299C239.658 231.205 239.692 231.096 239.691 230.984C239.691 230.834 239.631 230.69 239.525 230.584C239.419 230.478 239.276 230.418 239.126 230.418V230.418Z" fill="#AE7461"/>
<path d="M222.149 236.668C221.321 236.668 220.511 236.423 219.823 235.963C219.134 235.502 218.597 234.848 218.28 234.083C217.963 233.318 217.88 232.475 218.042 231.663C218.203 230.85 218.602 230.104 219.187 229.518C219.773 228.932 220.519 228.533 221.331 228.371C222.144 228.209 222.986 228.292 223.751 228.609C224.516 228.926 225.17 229.463 225.63 230.152C226.091 230.841 226.336 231.65 226.337 232.479C226.335 233.589 225.894 234.654 225.109 235.44C224.324 236.225 223.26 236.667 222.149 236.668V236.668ZM222.149 231.913C222.037 231.913 221.928 231.946 221.834 232.008C221.741 232.07 221.669 232.159 221.626 232.262C221.583 232.366 221.571 232.48 221.593 232.59C221.615 232.7 221.669 232.801 221.748 232.88C221.828 232.959 221.929 233.013 222.039 233.035C222.148 233.057 222.262 233.046 222.366 233.003C222.469 232.96 222.558 232.887 222.62 232.794C222.682 232.701 222.715 232.591 222.715 232.479C222.715 232.329 222.656 232.185 222.549 232.079C222.443 231.973 222.299 231.913 222.149 231.913V231.913Z" fill="#AE7461"/>
<path d="M252.772 237.136C251.944 237.136 251.134 236.89 250.446 236.43C249.757 235.97 249.22 235.316 248.903 234.55C248.586 233.785 248.503 232.943 248.664 232.13C248.826 231.317 249.225 230.571 249.81 229.985C250.396 229.399 251.142 229 251.954 228.838C252.766 228.676 253.608 228.759 254.374 229.076C255.139 229.393 255.793 229.93 256.253 230.619C256.714 231.308 256.959 232.117 256.959 232.946C256.958 234.056 256.517 235.121 255.732 235.907C254.947 236.692 253.883 237.134 252.772 237.136V237.136ZM252.772 232.38C252.66 232.38 252.551 232.413 252.457 232.475C252.364 232.537 252.292 232.626 252.249 232.729C252.206 232.833 252.194 232.947 252.216 233.057C252.238 233.167 252.292 233.268 252.371 233.347C252.45 233.426 252.551 233.48 252.661 233.502C252.771 233.524 252.885 233.513 252.989 233.47C253.092 233.427 253.181 233.354 253.243 233.261C253.305 233.168 253.338 233.058 253.338 232.946C253.338 232.796 253.278 232.652 253.172 232.546C253.066 232.44 252.922 232.38 252.772 232.38V232.38Z" fill="#FFBF9D"/>
<path d="M204.682 232.039C204.682 232.039 211.25 251.962 217.261 255.18C223.272 258.398 236.669 261.446 243.476 261.37C250.283 261.294 254.367 261.125 259.842 258.085C259.897 258.055 259.951 258.024 260.006 257.993C266.671 254.236 271.849 248.31 274.681 241.201L278.1 232.677L204.682 232.039Z" fill="#E0E0E0"/>
<path d="M248.286 261.282C248.286 261.282 236.196 253.734 233.361 254.645C232.552 254.918 231.846 255.433 231.34 256.122C230.834 256.81 230.552 257.637 230.533 258.491C228.347 256.43 226.012 254.533 223.547 252.815C222.899 252.285 222.125 251.931 221.301 251.789C220.476 251.646 219.628 251.72 218.84 252.002L218.361 252.59L218.572 253.639C218.572 253.639 211.385 251.521 214.647 255.748C217.909 259.975 232.141 268.676 234.476 269.765C236.811 270.854 247.606 274.069 252.605 271.069C255.698 270.227 258.502 268.555 260.712 266.232C264.164 262.421 269.259 256.21 269.259 256.21L268.926 250.004L255.063 260.311L248.286 261.282Z" fill="#EBC3B8"/>
<path d="M278.066 246.345C277.95 245.489 277.594 244.684 277.038 244.023C276.434 243.413 274.985 242.885 274.334 243.445C272.914 244.765 271.713 246.303 270.778 248.002C269.684 248.763 268.287 248.867 267.268 249.724C266.732 250.123 266.291 250.636 265.978 251.226C265.665 251.815 265.487 252.468 265.457 253.135C265.545 253.927 265.863 254.676 266.371 255.29C266.879 255.904 267.555 256.356 268.317 256.591C269.848 257.036 271.462 257.121 273.031 256.84C274.743 256.823 276.382 256.146 277.606 254.951C278.406 253.741 278.756 252.29 278.598 250.849C278.559 249.334 278.381 247.827 278.066 246.345V246.345Z" fill="#EBC3B8"/>
<path d="M227.104 264.289C226.412 263.901 225.775 263.424 225.207 262.87C223.775 261.602 222.486 260.181 221.365 258.632C220.234 257.086 219.281 255.418 218.523 253.659C218.381 253.336 218.326 252.98 218.365 252.629C218.409 252.355 218.557 252.109 218.779 251.942C219.163 251.668 219.447 251.831 219.421 251.844C219.224 251.863 219.037 251.943 218.888 252.073C218.727 252.228 218.628 252.436 218.608 252.659C218.6 252.965 218.669 253.268 218.809 253.54C219.637 255.233 220.611 256.85 221.718 258.375C222.829 259.899 224.067 261.327 225.417 262.643C226.01 263.16 226.573 263.709 227.104 264.289V264.289Z" fill="#E5BCB0"/>
<path d="M252.151 270.398C251.815 270.451 251.474 270.464 251.134 270.44C250.736 270.446 250.337 270.428 249.941 270.388C249.477 270.344 248.945 270.32 248.367 270.215C247.004 270.017 245.66 269.707 244.348 269.288C241.123 268.258 238.129 266.612 235.53 264.442C234.473 263.56 233.49 262.591 232.592 261.547C232.193 261.115 231.887 260.679 231.602 260.311C231.355 259.998 231.127 259.671 230.918 259.331C230.715 259.058 230.544 258.762 230.407 258.45C230.479 258.401 231.258 259.625 232.823 261.341C233.742 262.342 234.732 263.274 235.786 264.131C238.372 266.231 241.315 267.848 244.473 268.905C245.761 269.335 247.079 269.671 248.416 269.91C250.703 270.311 252.154 270.312 252.151 270.398Z" fill="#E5BCB0"/>
<path d="M271.505 257.108C271.51 257.132 271.318 257.208 270.952 257.258C270.432 257.324 269.904 257.304 269.39 257.2C268.616 257.049 267.888 256.719 267.264 256.235C266.492 255.627 265.945 254.778 265.71 253.824C265.461 252.866 265.573 251.85 266.025 250.969C266.403 250.268 266.974 249.689 267.671 249.302C268.131 249.041 268.64 248.879 269.166 248.825C269.357 248.786 269.554 248.798 269.739 248.858C269.069 248.992 268.424 249.231 267.829 249.567C267.214 249.957 266.715 250.505 266.383 251.153C265.999 251.952 265.91 252.861 266.134 253.719C266.347 254.582 266.832 255.354 267.518 255.921C268.086 256.384 268.749 256.717 269.459 256.898C270.133 257.033 270.818 257.103 271.505 257.108Z" fill="#E5BCB0"/>
<path d="M229.377 230.014C228.548 230.015 227.739 229.769 227.05 229.309C226.361 228.849 225.825 228.194 225.507 227.429C225.19 226.664 225.107 225.821 225.269 225.009C225.43 224.196 225.829 223.45 226.415 222.864C227 222.278 227.746 221.879 228.559 221.717C229.371 221.555 230.213 221.638 230.978 221.955C231.744 222.272 232.398 222.809 232.858 223.498C233.318 224.187 233.564 224.996 233.564 225.825C233.563 226.935 233.121 228 232.336 228.786C231.551 229.571 230.487 230.013 229.377 230.014ZM229.377 225.259C229.265 225.259 229.155 225.292 229.062 225.354C228.969 225.416 228.896 225.505 228.853 225.608C228.81 225.712 228.799 225.826 228.821 225.936C228.842 226.046 228.896 226.147 228.976 226.226C229.055 226.305 229.156 226.359 229.266 226.381C229.376 226.403 229.49 226.392 229.593 226.349C229.697 226.306 229.785 226.233 229.847 226.14C229.91 226.047 229.943 225.937 229.943 225.825C229.942 225.675 229.883 225.531 229.777 225.425C229.67 225.319 229.527 225.259 229.377 225.259V225.259Z" fill="#FFBF9D"/>
<path d="M165.953 125.69C165.125 125.69 164.315 125.445 163.627 124.985C162.938 124.524 162.401 123.87 162.084 123.105C161.767 122.339 161.684 121.497 161.846 120.684C162.007 119.872 162.406 119.125 162.991 118.539C163.577 117.954 164.323 117.554 165.136 117.393C165.948 117.231 166.79 117.314 167.555 117.631C168.321 117.948 168.975 118.485 169.435 119.174C169.895 119.863 170.141 120.673 170.141 121.501C170.139 122.612 169.698 123.676 168.913 124.462C168.128 125.247 167.064 125.689 165.953 125.69V125.69ZM165.953 120.935C165.841 120.935 165.732 120.968 165.639 121.03C165.545 121.092 165.473 121.181 165.43 121.284C165.387 121.388 165.375 121.502 165.397 121.611C165.419 121.721 165.473 121.822 165.552 121.902C165.631 121.981 165.732 122.035 165.842 122.057C165.952 122.079 166.066 122.068 166.17 122.025C166.273 121.982 166.362 121.909 166.424 121.816C166.486 121.723 166.519 121.613 166.519 121.501C166.519 121.351 166.46 121.207 166.354 121.101C166.247 120.995 166.104 120.935 165.953 120.935V120.935Z" fill="#FFBF9D"/>
<path d="M183.054 124.2C182.706 123.427 182.102 122.797 181.345 122.417C180.097 121.689 178.691 121.278 177.248 121.218C176.451 121.251 175.653 121.198 174.868 121.059C174.032 120.739 173.219 120.361 172.435 119.93C171.513 119.562 170.507 119.459 169.53 119.633C168.553 119.807 167.644 120.25 166.906 120.913C166.081 121.676 165.433 122.75 164.347 123.036C163.591 123.128 162.825 123.11 162.074 122.981C161.415 122.962 160.76 123.087 160.154 123.348C159.549 123.61 159.009 124.001 158.571 124.493L172.451 129.2C173.869 129.779 175.409 129.995 176.931 129.829C178.454 129.663 179.911 129.121 181.172 128.25C182.481 127.325 183.607 125.705 183.054 124.2Z" fill="#F5F5F5"/>
<path d="M169.058 129.518C168.23 129.518 167.421 129.272 166.732 128.812C166.044 128.352 165.507 127.698 165.19 126.932C164.873 126.167 164.79 125.325 164.952 124.512C165.113 123.7 165.512 122.954 166.098 122.368C166.683 121.782 167.429 121.383 168.242 121.222C169.054 121.06 169.896 121.143 170.661 121.46C171.426 121.777 172.08 122.314 172.54 123.003C173 123.691 173.246 124.501 173.246 125.329C173.245 126.44 172.803 127.505 172.018 128.29C171.233 129.075 170.169 129.517 169.058 129.518V129.518ZM169.058 124.764C168.947 124.764 168.837 124.797 168.744 124.859C168.651 124.921 168.579 125.01 168.536 125.113C168.493 125.216 168.482 125.33 168.504 125.44C168.525 125.55 168.579 125.651 168.658 125.73C168.738 125.809 168.838 125.863 168.948 125.885C169.058 125.906 169.172 125.895 169.275 125.852C169.378 125.81 169.467 125.737 169.529 125.644C169.591 125.551 169.624 125.441 169.624 125.329C169.624 125.179 169.565 125.035 169.458 124.929C169.352 124.823 169.208 124.764 169.058 124.764V124.764Z" fill="#AE7461"/>
<path d="M178.509 125.648C177.681 125.648 176.871 125.402 176.182 124.942C175.494 124.482 174.957 123.828 174.64 123.062C174.323 122.297 174.24 121.455 174.402 120.642C174.563 119.829 174.962 119.083 175.548 118.497C176.133 117.912 176.88 117.513 177.692 117.351C178.504 117.189 179.346 117.272 180.111 117.589C180.877 117.907 181.53 118.443 181.991 119.132C182.451 119.821 182.696 120.631 182.696 121.46C182.695 122.57 182.254 123.635 181.469 124.42C180.684 125.205 179.619 125.647 178.509 125.648V125.648ZM178.509 120.893C178.397 120.893 178.288 120.926 178.194 120.988C178.101 121.05 178.029 121.139 177.986 121.242C177.943 121.346 177.932 121.46 177.953 121.569C177.975 121.679 178.029 121.78 178.108 121.859C178.187 121.939 178.288 121.993 178.398 122.015C178.508 122.036 178.622 122.025 178.725 121.983C178.829 121.94 178.917 121.867 178.979 121.774C179.041 121.681 179.075 121.572 179.075 121.46C179.075 121.309 179.015 121.165 178.909 121.059C178.803 120.953 178.659 120.893 178.509 120.893V120.893Z" fill="#FF725E"/>
<path d="M122.35 115.516C120.924 112.984 119.088 110.706 116.917 108.774C116.539 108.415 116.094 108.134 115.607 107.947C115.121 107.76 114.602 107.671 114.081 107.685C113.638 107.763 113.219 107.944 112.858 108.213C112.497 108.482 112.204 108.833 112.003 109.236C111.609 110.048 111.43 110.948 111.484 111.849C111.562 114.995 113.252 117.874 115.184 120.358C117.116 122.842 119.356 125.12 120.854 127.888L130.267 127.924C127.628 123.788 124.989 119.652 122.35 115.516Z" fill="#E0B0A4"/>
<path d="M186.778 126.815L172.049 125.931L155.802 123.469C155.559 123.227 155.29 123.012 155 122.828C154.251 122.365 153.395 122.105 152.515 122.074C130.767 121.057 101.788 113.336 101.498 113.258C101.358 113.22 101.212 113.21 101.069 113.229C100.925 113.248 100.786 113.294 100.661 113.367C100.535 113.439 100.425 113.535 100.337 113.65C100.248 113.765 100.184 113.896 100.146 114.036C100.109 114.176 100.099 114.322 100.118 114.466C100.137 114.61 100.184 114.748 100.256 114.874C100.329 114.999 100.425 115.109 100.54 115.197C100.655 115.285 100.787 115.35 100.927 115.387C101.219 115.465 130.424 123.248 152.412 124.276C152.909 124.29 153.394 124.432 153.819 124.689C153.973 124.786 154.115 124.9 154.244 125.028L154.363 125.147C157.735 128.547 162.65 132.782 167.533 132.782C177.365 133.692 183.345 130.82 185.528 128.811C186.438 127.973 186.951 127.398 186.778 126.815Z" fill="#E0E0E0"/>
<path d="M103.933 134.922C103.933 134.922 105 117.293 107.102 115.533C109.203 113.773 117.69 111.67 118.814 112.158C119.939 112.647 126.352 115.16 126.59 116.23C126.696 116.58 126.72 116.948 126.661 117.308C126.602 117.668 126.462 118.01 126.251 118.307C126.039 118.604 125.763 118.85 125.443 119.024C125.122 119.198 124.767 119.297 124.402 119.312L119.33 118.39L114.294 121.11L113.7 125.978C113.7 125.978 118.825 121.873 120.552 120.668C122.279 119.463 126.528 119.507 126.697 122.664C126.697 122.664 133.327 123.46 133.533 127.293C133.533 127.293 139.434 131.552 139.734 133.732C140.034 135.913 137.157 140.277 137.157 140.277C137.157 140.277 146.115 148.948 145.869 151.89C145.88 155.974 146.099 160.056 146.525 164.118L126.156 166.676L125.706 158.28C125.706 158.28 105.253 139.061 103.933 134.922Z" fill="#EBC3B8"/>
<path d="M136.891 134.221C136.726 135.158 136.324 136.038 135.723 136.775C135.121 137.513 134.341 138.084 133.456 138.433C133.389 138.321 134.445 137.665 135.384 136.499C136.337 135.345 136.768 134.179 136.891 134.221Z" fill="#D8A99D"/>
<path d="M138.319 135.975C138.416 136.051 137.924 136.588 137.105 136.55C136.284 136.52 135.839 135.944 135.941 135.876C136.026 135.786 136.483 136.097 137.123 136.113C137.762 136.151 138.242 135.878 138.319 135.975Z" fill="#D8A99D"/>
<path d="M133.383 127.539C133.408 127.609 132.681 127.867 131.624 128.489C130.256 129.308 129.052 130.374 128.074 131.633C127.335 132.59 126.741 133.652 126.315 134.784L126.283 134.865L126.21 134.894C125.241 135.326 124.235 135.671 123.205 135.926C124.118 135.385 125.077 134.925 126.071 134.553L125.967 134.662C126.364 133.472 126.959 132.358 127.728 131.366C128.735 130.059 130.013 128.985 131.474 128.219C132.061 127.872 132.709 127.641 133.383 127.539V127.539Z" fill="#D8A99D"/>
<path d="M116.596 132.667C116.577 132.653 116.679 132.462 116.975 132.217C117.407 131.9 117.892 131.661 118.407 131.513C119.137 131.324 119.826 131.005 120.442 130.57C121.129 129.936 121.77 129.253 122.358 128.526C123.692 127.01 124.918 125.654 125.822 124.686C126.279 124.134 126.792 123.629 127.352 123.181C126.979 123.794 126.544 124.367 126.054 124.891C125.209 125.91 124.02 127.299 122.686 128.815C122.082 129.562 121.413 130.256 120.688 130.889C120.027 131.337 119.282 131.65 118.499 131.808C118 131.924 117.521 132.108 117.073 132.356C116.767 132.543 116.623 132.692 116.596 132.667Z" fill="#D8A99D"/>
<path d="M113.644 125.932C113.273 127.179 112.59 128.31 111.66 129.22C110.731 130.13 109.585 130.788 108.331 131.132C110.556 129.934 112.398 128.132 113.644 125.932V125.932Z" fill="#D8A99D"/>
<path d="M137.41 140.383C137.388 140.444 137.105 140.372 136.654 140.372C136.073 140.367 135.501 140.52 135.001 140.815L134.693 141.002L134.67 140.642L134.663 140.535C134.657 139.916 134.551 139.302 134.348 138.717C134.177 138.282 133.974 138.055 134.018 138.007C134.05 137.963 134.352 138.124 134.625 138.579C134.934 139.175 135.096 139.836 135.099 140.507L135.105 140.615L134.775 140.441C135.347 140.099 136.021 139.968 136.68 140.07C137.174 140.154 137.431 140.336 137.41 140.383Z" fill="#D8A99D"/>
<path d="M123.323 163.922C123.323 163.922 110.773 234.791 111.754 242.26C112.734 249.728 114.915 279.555 137.079 276.276C159.244 272.998 155.406 242.006 154.651 236.058C153.897 230.109 148.661 190.418 148.661 190.418L146.981 162.652L123.323 163.922Z" fill="#8CAFEA"/>
<path d="M152.505 224.098C152.449 223.895 152.412 223.688 152.395 223.479L152.163 221.696C151.968 220.147 151.72 217.901 151.436 215.124C150.864 209.569 150.2 201.884 149.525 193.394C148.85 184.9 148.236 177.214 147.742 171.654C147.497 168.91 147.297 166.673 147.154 165.071L147.004 163.28C146.977 163.072 146.969 162.861 146.981 162.652C147.037 162.854 147.074 163.061 147.091 163.27L147.323 165.053C147.518 166.602 147.766 168.848 148.05 171.625C148.622 177.18 149.286 184.865 149.961 193.359C150.636 201.849 151.251 209.535 151.744 215.094C151.989 217.838 152.189 220.076 152.332 221.678C152.395 222.422 152.444 223.018 152.482 223.47C152.509 223.678 152.517 223.888 152.505 224.098Z" fill="#8CAFEA"/>
<path d="M150.409 280.479C150.394 274.834 146.266 268.932 142.107 263.101C139.312 259.21 138.657 253.607 138.535 250.32C138.522 249.927 138.508 249.578 138.509 249.257L138.887 249.259C139.688 249.318 140.48 249.059 141.092 248.537C141.703 248.016 142.084 247.274 142.152 246.473L142.158 244.03C142.159 243.648 142.075 243.27 141.914 242.924C141.619 242.39 141.182 241.947 140.652 241.645C140.121 241.343 139.518 241.194 138.908 241.214L118.404 241.159C117.6 241.099 116.806 241.36 116.194 241.885C115.583 242.409 115.203 243.154 115.138 243.957L115.132 246.401C115.196 247.202 115.572 247.946 116.181 248.471C116.79 248.995 117.581 249.259 118.382 249.203L118.76 249.205C118.759 249.525 118.743 249.874 118.728 250.267C118.588 253.553 117.904 259.152 115.087 263.029C110.899 268.837 106.738 274.717 106.693 280.362C106.693 280.405 106.707 280.449 106.707 280.477C106.705 280.507 106.7 280.536 106.692 280.564L106.551 338.748C106.548 340.266 107.145 341.724 108.212 342.804C109.28 343.884 110.731 344.497 112.249 344.51L144.47 344.79C145.228 344.796 145.979 344.653 146.682 344.368C147.384 344.083 148.023 343.661 148.561 343.128C149.1 342.595 149.528 341.961 149.821 341.262C150.114 340.563 150.265 339.813 150.267 339.055L150.408 280.681C150.4 280.653 150.395 280.624 150.393 280.595C150.393 280.566 150.409 280.523 150.409 280.479Z" fill="#F5F5F5"/>
<path d="M150.409 280.479C150.409 280.479 150.435 280.721 150.439 281.201C150.445 281.704 150.454 282.41 150.465 283.328C150.474 285.221 150.487 287.972 150.504 291.504C150.511 298.627 150.52 308.894 150.532 321.572C150.531 324.747 150.529 328.068 150.528 331.536C150.527 333.268 150.526 335.035 150.525 336.836C150.512 337.746 150.55 338.623 150.496 339.584C150.362 341.07 149.681 342.453 148.584 343.464C147.487 344.475 146.054 345.042 144.562 345.055C142.633 345.042 140.674 345.029 138.685 345.016C134.71 344.986 130.624 344.955 126.425 344.923C122.23 344.89 117.935 344.856 113.54 344.822C112.402 344.906 111.258 344.77 110.171 344.421C109.06 344.003 108.096 343.267 107.4 342.305C106.704 341.343 106.306 340.198 106.257 339.011C106.234 337.854 106.254 336.736 106.251 335.589C106.271 326.456 106.292 317 106.313 307.316C106.327 301.838 106.341 296.439 106.354 291.121C106.362 288.464 106.369 285.832 106.376 283.223C106.399 281.908 106.338 280.646 106.44 279.308C106.58 278.004 106.876 276.723 107.321 275.49C109.111 270.599 112.234 266.563 115.016 262.605C116.311 260.619 117.218 258.406 117.69 256.083C118.183 253.822 118.446 251.517 118.477 249.204L118.759 249.488C118.176 249.537 117.59 249.455 117.043 249.248C116.496 249.042 116.002 248.715 115.598 248.292C115.195 247.849 114.941 247.29 114.871 246.695C114.839 246.1 114.866 245.61 114.86 245.067C114.841 244.521 114.862 243.975 114.921 243.433C115.038 242.863 115.323 242.341 115.74 241.935C116.145 241.558 116.626 241.27 117.15 241.09C117.674 240.91 118.23 240.843 118.782 240.892C122.88 240.91 126.826 240.927 130.619 240.943C132.512 240.951 134.364 240.96 136.175 240.968C137.08 240.972 137.975 240.976 138.859 240.981C139.797 240.964 140.709 241.295 141.419 241.91C141.761 242.215 142.027 242.597 142.194 243.025C142.361 243.452 142.424 243.913 142.379 244.37C142.359 245.224 142.407 246.006 142.331 246.886C142.251 247.313 142.079 247.718 141.827 248.071C141.574 248.425 141.248 248.72 140.87 248.934C140.152 249.34 139.331 249.524 138.509 249.461L138.713 249.258C138.778 254.55 139.794 259.436 142.153 262.881C144.277 265.755 146.214 268.764 147.951 271.888C149.034 273.852 149.806 275.972 150.239 278.173C150.382 278.933 150.439 279.707 150.409 280.479C150.409 280.479 150.38 280.282 150.352 279.896C150.313 279.325 150.238 278.756 150.127 278.193C149.649 276.02 148.85 273.93 147.755 271.992C145.988 268.897 144.03 265.915 141.89 263.065C139.447 259.545 138.4 254.614 138.305 249.257L138.302 249.045L138.51 249.053C139.256 249.111 140.003 248.945 140.653 248.574C140.977 248.39 141.257 248.137 141.473 247.834C141.689 247.53 141.836 247.183 141.904 246.817C141.965 246.072 141.922 245.192 141.936 244.369C141.98 243.976 141.928 243.577 141.786 243.208C141.643 242.839 141.413 242.51 141.115 242.249C139.89 241.084 137.958 241.54 136.174 241.445C134.364 241.443 132.511 241.442 130.617 241.44C126.829 241.436 122.884 241.432 118.781 241.427C118.3 241.379 117.814 241.434 117.356 241.588C116.898 241.742 116.477 241.992 116.123 242.32C115.784 242.65 115.552 243.075 115.457 243.539C115.408 244.047 115.393 244.558 115.411 245.068C115.417 245.585 115.396 246.162 115.423 246.636C115.481 247.115 115.688 247.564 116.014 247.92C116.367 248.283 116.797 248.562 117.273 248.736C117.748 248.909 118.257 248.973 118.761 248.922L119.048 248.905L119.043 249.206C119.017 251.561 118.754 253.908 118.256 256.21C117.773 258.608 116.839 260.892 115.504 262.942C112.713 266.918 109.632 270.933 107.899 275.693C107.472 276.879 107.188 278.111 107.053 279.365C106.957 280.604 107.016 281.931 106.995 283.227C106.99 285.835 106.984 288.467 106.979 291.124C106.967 296.437 106.954 301.835 106.942 307.319C106.916 317.003 106.891 326.458 106.867 335.59C106.869 336.726 106.848 337.882 106.869 338.986C106.913 340.053 107.269 341.084 107.894 341.95C108.519 342.815 109.385 343.478 110.384 343.855C111.404 344.179 112.478 344.304 113.545 344.221C117.937 344.263 122.232 344.304 126.43 344.344C130.625 344.384 134.711 344.424 138.69 344.463C140.675 344.481 142.632 344.499 144.559 344.517C145.92 344.508 147.228 343.994 148.231 343.074C149.234 342.153 149.859 340.893 149.985 339.538C150.038 338.667 150.006 337.725 150.021 336.835C150.028 335.034 150.036 333.268 150.043 331.535C150.058 328.071 150.073 324.75 150.087 321.572C150.16 308.894 150.219 298.626 150.26 291.503C150.294 287.971 150.32 285.221 150.338 283.328C150.354 282.41 150.366 281.704 150.375 281.201C150.365 280.96 150.376 280.719 150.409 280.479Z" fill="#263238"/>
<path d="M137.349 249.114C134.313 249.366 131.265 249.445 128.22 249.35C125.175 249.428 122.127 249.333 119.092 249.065C122.128 248.813 125.176 248.734 128.222 248.829C131.267 248.75 134.315 248.845 137.349 249.114V249.114Z" fill="#263238"/>
<path d="M147.901 338.811L148.546 288.302C146.704 287.099 144.274 287.619 142.29 288.55C140.307 289.48 138.434 290.793 136.283 291.133C133.697 291.342 131.115 290.674 128.955 289.237C126.802 287.804 124.53 286.557 122.164 285.512C119.819 284.71 117.296 284.583 114.883 285.145C112.469 285.707 110.262 286.935 108.512 288.69L108.388 338.292C108.386 339.292 108.778 340.253 109.479 340.967C110.18 341.68 111.134 342.089 112.135 342.103L144.045 342.564C144.545 342.571 145.041 342.48 145.505 342.295C145.97 342.11 146.393 341.836 146.751 341.487C147.109 341.139 147.395 340.723 147.592 340.264C147.79 339.804 147.895 339.311 147.901 338.811V338.811Z" fill="#FF725E"/>
<g opacity="0.6">
<path d="M194.2 246.465H171.516C168.307 246.465 165.705 249.067 165.705 252.277V307.636C165.705 310.847 168.307 313.449 171.516 313.449H194.2C197.409 313.449 200.011 310.847 200.011 307.636V252.277C200.011 249.067 197.409 246.465 194.2 246.465Z" fill="#F5F5F5"/>
</g>
<path d="M193.044 309.115H172.771C172.182 309.115 171.599 308.999 171.055 308.774C170.51 308.548 170.016 308.218 169.6 307.801C169.183 307.385 168.853 306.89 168.627 306.346C168.402 305.802 168.286 305.218 168.286 304.629V264.28L177.774 265.848C180.293 266.264 182.859 266.298 185.388 265.951L197.529 264.28V304.629C197.529 305.819 197.057 306.96 196.215 307.801C195.374 308.643 194.234 309.115 193.044 309.115V309.115Z" fill="#EBEBEB"/>
<path d="M199.917 246.841C199.501 247.027 199.069 247.178 198.628 247.291C197.791 247.564 196.558 247.886 195.02 248.217C193.216 248.599 191.393 248.883 189.558 249.068C187.31 249.284 185.051 249.372 182.793 249.333C178.691 249.231 174.608 248.728 170.604 247.83C169.07 247.483 167.839 247.161 166.999 246.901C166.557 246.792 166.124 246.646 165.705 246.465C166.158 246.518 166.605 246.609 167.043 246.736C167.894 246.945 169.133 247.221 170.668 247.527C174.666 248.331 178.726 248.789 182.802 248.896C185.044 248.934 187.286 248.858 189.52 248.667C191.577 248.471 193.423 248.211 194.959 247.913C196.496 247.623 197.735 247.348 198.582 247.127C199.019 246.995 199.465 246.899 199.917 246.841V246.841Z" fill="#263238"/>
<path d="M168.342 252.689C168.463 252.689 168.561 264.218 168.561 278.435C168.561 292.657 168.463 304.183 168.342 304.183C168.222 304.183 168.124 292.657 168.124 278.435C168.124 264.218 168.222 252.689 168.342 252.689Z" fill="#263238"/>
<path d="M191.22 309.391C191.22 309.512 187.108 309.61 182.038 309.61C176.966 309.61 172.855 309.512 172.855 309.391C172.855 309.27 176.966 309.172 182.038 309.172C187.108 309.172 191.22 309.27 191.22 309.391Z" fill="#263238"/>
<path d="M168.35 264.452C171.094 267.444 174.819 269.354 178.85 269.835C185.526 270.606 191.941 267.378 197.887 264.245C188.079 265.632 177.88 266.99 168.434 264.009" fill="white"/>
<g opacity="0.6">
<path d="M184.574 280.787C181.543 282.806 179.121 285.665 176.056 287.631C172.992 289.596 168.782 290.505 165.838 288.358V292.987C168.782 295.134 172.992 294.225 176.056 292.259C179.121 290.294 181.543 287.434 184.574 285.416C186.825 283.933 189.363 282.941 192.023 282.504C194.682 282.066 197.404 282.194 200.011 282.879V278.25C197.404 277.565 194.682 277.438 192.023 277.875C189.363 278.312 186.825 279.304 184.574 280.787V280.787Z" fill="white"/>
</g>
<path d="M193.836 313.449C193.834 313.413 194.305 313.443 195.167 313.248C196.43 312.944 197.564 312.249 198.409 311.262C199.023 310.554 199.46 309.71 199.684 308.8C199.884 307.691 199.944 306.561 199.864 305.438C199.851 302.977 199.837 300.167 199.822 297.042C199.794 284.493 199.755 266.876 199.71 246.465L200.011 246.766C191.232 246.77 181.727 246.774 171.885 246.779C169.768 246.779 167.667 246.779 165.705 246.778L166.019 246.465C166.008 259.382 165.998 271.619 165.989 282.714C165.978 288.258 165.968 293.517 165.959 298.432C165.953 300.888 165.947 303.256 165.941 305.536C165.866 306.629 165.932 307.727 166.137 308.803C166.399 309.802 166.916 310.717 167.638 311.456C168.331 312.156 169.183 312.679 170.12 312.98C171.034 313.22 171.98 313.313 172.922 313.256C174.794 313.264 176.556 313.272 178.208 313.279C181.497 313.3 184.33 313.317 186.657 313.331C188.947 313.356 190.734 313.375 191.983 313.388C192.568 313.401 193.025 313.411 193.366 313.418C193.523 313.415 193.68 313.425 193.836 313.449C193.68 313.473 193.523 313.484 193.366 313.48C193.025 313.488 192.568 313.498 191.983 313.51C190.734 313.524 188.947 313.543 186.657 313.567C184.33 313.582 181.497 313.599 178.208 313.619C176.558 313.627 174.796 313.634 172.922 313.643C171.94 313.708 170.953 313.616 170 313.371C168.993 313.056 168.078 312.503 167.331 311.759C166.55 310.97 165.989 309.991 165.701 308.919C165.477 307.806 165.4 306.669 165.47 305.536C165.464 303.259 165.458 300.891 165.451 298.432C165.442 293.517 165.432 288.258 165.422 282.714C165.412 271.619 165.402 259.382 165.392 246.465L165.391 246.151L165.705 246.151C167.667 246.151 169.768 246.15 171.885 246.15C181.727 246.155 191.232 246.159 200.011 246.163L200.313 246.163L200.312 246.465C200.267 266.876 200.228 284.493 200.201 297.042C200.185 300.167 200.171 302.977 200.159 305.438C200.226 306.585 200.148 307.736 199.926 308.863C199.68 309.804 199.212 310.673 198.562 311.396C197.679 312.395 196.496 313.081 195.19 313.35C194.746 313.448 194.29 313.482 193.836 313.449V313.449Z" fill="#263238"/>
<path d="M49.8889 272.765C50.1364 271.16 50.064 269.521 49.6758 267.944C49.2875 266.366 48.5912 264.881 47.6268 263.574C46.6624 262.267 45.449 261.163 44.0566 260.327C42.6641 259.491 41.12 258.939 39.5133 258.702C39.2172 258.625 38.903 258.662 38.6324 258.804C38.4801 258.957 38.3699 259.146 38.3122 259.354C38.2546 259.562 38.2515 259.781 38.3033 259.99C38.5975 263.121 39.8758 266.078 41.9546 268.436C44.0335 270.795 46.8059 272.434 49.8741 273.118" fill="#455A64"/>
<path d="M32.6366 295.491C35.7439 301.894 40.2059 306.207 45.7347 306.416C46.84 306.455 47.6759 305.728 48.7314 305.666C49.3493 305.804 49.9448 306.029 50.5005 306.332C50.7914 306.461 51.1046 306.532 51.4225 306.541C57.1356 306.234 62.0027 302.213 65.2833 295.491C69.8515 286.076 68.4404 275.962 62.1365 272.889C61.3095 272.474 60.4461 272.136 59.557 271.88C58.5364 271.602 57.4798 271.478 56.4224 271.513C53.9644 271.673 51.547 272.22 49.2594 273.134C49.1621 273.172 49.0506 273.209 48.9523 273.246C43.83 270.984 39.7377 270.971 35.7702 272.889C29.4665 275.962 28.0653 286.076 32.6366 295.491Z" fill="#FF725E"/>
<path d="M32.7473 285.954C32.4465 285.365 32.2684 284.721 32.2238 284.061C32.0404 282.469 32.2343 280.856 32.7898 279.352C33.3453 277.849 34.2468 276.497 35.4213 275.407C35.8841 274.934 36.438 274.561 37.0496 274.309C37.0928 274.375 36.4639 274.781 35.6356 275.628C34.5632 276.736 33.7332 278.056 33.1987 279.503C32.6641 280.95 32.4366 282.493 32.5307 284.032C32.6091 285.215 32.8229 285.932 32.7473 285.954Z" fill="#FAFAFA"/>
<path d="M33.9053 290.43C33.788 290.457 33.5853 290.013 33.4527 289.437C33.3199 288.862 33.3073 288.374 33.4246 288.347C33.542 288.32 33.7445 288.764 33.8773 289.339C34.0101 289.915 34.0225 290.403 33.9053 290.43Z" fill="#FAFAFA"/>
<path d="M62.9144 257.363C62.9466 257.442 61.7331 257.895 59.9568 258.958C58.9202 259.583 57.9331 260.287 57.0044 261.063C54.7268 262.969 52.8299 265.287 51.4136 267.898C50.8366 268.962 50.3422 270.069 49.9348 271.209C49.2445 273.161 49.041 274.44 48.9572 274.425C48.9514 274.12 48.984 273.816 49.0542 273.52C49.103 273.167 49.1737 272.818 49.2658 272.474C49.3698 272.071 49.4654 271.605 49.6428 271.11C50.0149 269.937 50.4888 268.799 51.0593 267.708C52.4622 265.026 54.3984 262.66 56.7489 260.754C57.7046 259.978 58.7263 259.288 59.8024 258.691C60.2515 258.42 60.6899 258.233 61.0642 258.052C61.383 257.894 61.7113 257.755 62.0472 257.637C62.3236 257.51 62.615 257.418 62.9144 257.363V257.363Z" fill="#263238"/>
<path d="M2.16846 299.051V300.24L17.5039 307.395C17.5039 307.395 18.7658 311.193 29.9337 311.382C41.1017 311.571 67.9841 311.6 67.9841 311.6C67.9841 311.6 75.3787 311.765 80.1579 307.584L94.824 300.461L94.6387 298.967L2.16846 299.051Z" fill="#E0E0E0"/>
<path d="M66.9026 311.479H31.0115V313.069H66.9026V311.479Z" fill="#E0E0E0"/>
<path d="M80.4103 307.548C80.3569 307.559 80.3025 307.564 80.2481 307.563C80.1282 307.568 79.9708 307.574 79.7717 307.583C79.3377 307.594 78.7231 307.611 77.9391 307.632C76.3324 307.662 74.0332 307.704 71.1985 307.757C65.5064 307.843 57.6426 307.93 48.9568 307.943C40.2683 307.958 32.4027 307.889 26.7109 307.753C23.8652 307.679 21.5623 307.616 19.9723 307.534C19.1889 307.495 18.575 307.464 18.1414 307.443L17.6656 307.413C17.6113 307.413 17.5571 307.406 17.5039 307.395C17.5578 307.387 17.6124 307.385 17.6667 307.389L18.1435 307.394C18.5774 307.405 19.1917 307.42 19.9755 307.44C21.566 307.493 23.869 307.53 26.7142 307.582C32.4051 307.674 40.2689 307.716 48.9565 307.701C57.6411 307.688 65.5043 307.628 71.1965 307.585C74.0316 307.565 76.3309 307.549 77.9378 307.538C78.7222 307.536 79.3368 307.535 79.7709 307.534L80.2477 307.538C80.3021 307.536 80.3566 307.539 80.4103 307.548Z" fill="#263238"/>
<path d="M66.0543 311.479C66.0543 311.546 58.0948 311.6 48.279 311.6C38.4596 311.6 30.502 311.546 30.502 311.479C30.502 311.412 38.4596 311.358 48.279 311.358C58.0948 311.358 66.0543 311.412 66.0543 311.479Z" fill="#263238"/>
<path d="M94.4981 300.461C94.4981 300.528 73.803 300.582 48.2802 300.582C22.7487 300.582 2.05811 300.528 2.05811 300.461C2.05811 300.394 22.7487 300.34 48.2802 300.34C73.803 300.34 94.4981 300.394 94.4981 300.461Z" fill="#263238"/>
<path d="M4.26025 312.274H330" stroke="#E4E4E4" stroke-miterlimit="10"/>
</g>
<defs>
<clipPath id="clip0_151_1770">
<rect width="330" height="383" fill="white"/>
</clipPath>
</defs>
</svg>
