<svg width="201" height="210" viewBox="0 0 201 210" fill="none" xmlns="http://www.w3.org/2000/svg">
<path d="M32.1644 133.601C25.4071 131.664 19.6677 127.348 20.8098 120.439C27.1172 82.2758 60.3947 53.1641 100.499 53.1641C140.604 53.1641 173.881 82.2758 180.189 120.439C181.331 127.348 175.635 131.824 168.834 133.601C119.803 146.415 75.3018 145.965 32.1644 133.601Z" fill="#F3F3F3"/>
<path d="M144.687 138.908C152.62 137.503 160.664 135.736 168.833 133.601C175.635 131.824 181.33 127.348 180.188 120.439C173.881 82.2758 140.603 53.1641 100.499 53.1641C57.492 56.2417 81.7476 59.4717 111.67 68.3434C147.528 78.9749 163.772 116.096 144.687 138.908Z" fill="#F3F3F3"/>
<path d="M85.8281 34.7344H115.901V66.1203L85.8281 54.5103V34.7344Z" fill="#F3F3F3"/>
<path d="M136.489 10.2163H77.7969V45.9596H136.489C146.4 45.9596 154.434 37.9581 154.434 28.0879V28.0879C154.434 18.2177 146.4 10.2163 136.489 10.2163Z" fill="#F3F3F3"/>
<path d="M113.685 45.9596C123.595 45.9596 131.629 37.9582 131.629 28.0879C131.629 18.2177 123.595 10.2163 113.685 10.2163C103.774 10.2163 95.7402 18.2177 95.7402 28.0879C95.7402 37.9582 103.774 45.9596 113.685 45.9596Z" fill="#FFAF18"/>
<path d="M58.406 45.9596H113.687V10.2163H58.406C55.7192 10.2163 53.541 12.3856 53.541 15.0615V41.1143C53.541 43.7903 55.7192 45.9596 58.406 45.9596Z" fill="#FFAF18"/>
<path d="M53.5384 16.3608C52.8183 16.3608 52.2363 15.779 52.2363 15.0619C52.2363 11.6741 55.0042 8.91748 58.4059 8.91748H126.672C127.392 8.91748 127.974 9.49929 127.974 10.2164C127.974 10.9335 127.392 11.5153 126.672 11.5153H58.4059C56.4399 11.5153 54.8404 13.1061 54.8404 15.062C54.8404 15.779 54.2584 16.3608 53.5384 16.3608Z" fill="#F3F3F3"/>
<path d="M113.686 41.9576C121.378 41.9576 127.613 35.7478 127.613 28.0877C127.613 20.4275 121.378 14.2178 113.686 14.2178C105.995 14.2178 99.7598 20.4275 99.7598 28.0877C99.7598 35.7478 105.995 41.9576 113.686 41.9576Z" fill="#F3F3F3"/>
<path d="M121.698 36.0687C126.123 31.6611 126.123 24.5151 121.697 20.1077C117.272 15.7002 110.097 15.7003 105.671 20.1079C101.246 24.5156 101.246 31.6616 105.671 36.069C110.097 40.4765 117.272 40.4764 121.698 36.0687Z" fill="#1B3547"/>
<path d="M122.452 34.258C125.873 30.8505 125.873 25.326 122.452 21.9186C119.03 18.5112 113.483 18.5113 110.062 21.9188C106.641 25.3263 106.641 30.8508 110.062 34.2582C113.484 37.6656 119.031 37.6655 122.452 34.258Z" fill="white"/>
<path d="M118.344 34.7344C122.029 34.7344 125.017 31.7586 125.017 28.0878C125.017 24.4169 122.029 21.4412 118.344 21.4412C114.658 21.4412 111.67 24.4169 111.67 28.0878C111.67 31.7586 114.658 34.7344 118.344 34.7344Z" fill="#1B3547"/>
<path d="M112.718 27.0449C114.802 27.0449 116.491 25.3626 116.491 23.2875C116.491 21.2123 114.802 19.53 112.718 19.53C110.634 19.53 108.945 21.2123 108.945 23.2875C108.945 25.3626 110.634 27.0449 112.718 27.0449Z" fill="#F3F3F3"/>
<path d="M85.8283 30.095C90.2305 30.095 93.7992 26.5408 93.7992 22.1565C93.7992 17.7722 90.2305 14.218 85.8283 14.218C81.4261 14.218 77.8574 17.7722 77.8574 22.1565C77.8574 26.5408 81.4261 30.095 85.8283 30.095Z" fill="#F3F3F3"/>
<path d="M89.8596 26.1723C92.0864 23.9546 92.0863 20.3589 89.8595 18.1412C87.6327 15.9235 84.0223 15.9236 81.7956 18.1413C79.5688 20.3591 79.5689 23.9548 81.7957 26.1725C84.0225 28.3902 87.6329 28.3901 89.8596 26.1723Z" fill="#1B3547"/>
<path d="M87.1231 26.5467C89.5577 26.5467 91.5313 24.5811 91.5313 22.1564C91.5313 19.7317 89.5577 17.7661 87.1231 17.7661C84.6885 17.7661 82.7148 19.7317 82.7148 22.1564C82.7148 24.5811 84.6885 26.5467 87.1231 26.5467Z" fill="white"/>
<path d="M88.1725 25.5007C90.027 25.5007 91.5305 24.0034 91.5305 22.1564C91.5305 20.3093 90.027 18.812 88.1725 18.812C86.3179 18.812 84.8145 20.3093 84.8145 22.1564C84.8145 24.0034 86.3179 25.5007 88.1725 25.5007Z" fill="#1B3547"/>
<path d="M85.3417 21.6316C86.3901 21.6316 87.2401 20.7851 87.2401 19.741C87.2401 18.6968 86.3901 17.8503 85.3417 17.8503C84.2933 17.8503 83.4434 18.6968 83.4434 19.741C83.4434 20.7851 84.2933 21.6316 85.3417 21.6316Z" fill="#F3F3F3"/>
<path d="M63.8613 18.1546V30.5269C63.8613 31.4947 64.6491 32.2794 65.621 32.2794C66.5928 32.2794 67.3806 31.4947 67.3806 30.5269V18.1546C67.3806 17.1867 66.5928 16.4021 65.621 16.4021C64.6491 16.4021 63.8613 17.1867 63.8613 18.1546Z" fill="#1B3547"/>
<path d="M65.6206 16.4027C66.5917 16.4027 67.3796 17.1864 67.3796 18.1546V30.5272C67.3796 31.4944 66.5917 32.2791 65.6206 32.2791C64.6484 32.2791 63.8605 31.4944 63.8605 30.5272V18.1546C63.8605 17.1864 64.6484 16.4027 65.6206 16.4027ZM65.6206 13.9585C63.2968 13.9585 61.4062 15.8403 61.4062 18.1546V30.5272C61.4062 32.8416 63.2968 34.7233 65.6206 34.7233C67.9444 34.7233 69.8339 32.8416 69.8339 30.5272V18.1546C69.8339 15.8403 67.9444 13.9585 65.6206 13.9585Z" fill="#F3F3F3"/>
<path d="M144.616 29.3089C143.939 29.3089 143.387 28.7614 143.387 28.0873C143.387 18.9071 135.89 11.438 126.672 11.438C125.995 11.438 125.443 10.8905 125.443 10.2164C125.443 9.54229 125.995 8.99487 126.672 8.99487C137.244 8.99487 145.845 17.5589 145.845 28.0873C145.845 28.7614 145.293 29.3089 144.616 29.3089Z" fill="#EAEAEA"/>
<path d="M126.672 47.1819C125.995 47.1819 125.443 46.6344 125.443 45.9603C125.443 45.2861 125.995 44.7387 126.672 44.7387C135.89 44.7387 143.387 37.2675 143.387 28.0873C143.387 27.4131 143.939 26.8657 144.616 26.8657C145.293 26.8657 145.845 27.4132 145.845 28.0873C145.845 38.6157 137.244 47.1819 126.672 47.1819Z" fill="#EAEAEA"/>
<path d="M100.747 59.3162C94.8754 59.3162 88.8395 58.2384 85.1231 55.6364C84.5712 55.2478 84.4376 54.4835 84.8256 53.9318C85.2223 53.3779 85.9854 53.2512 86.5372 53.6355C93.5733 58.5713 111.461 57.3304 115.035 53.7708C115.51 53.2942 116.294 53.2942 116.768 53.7708C117.247 54.2495 117.247 55.0224 116.768 55.5012C114.47 57.7919 107.728 59.3162 100.747 59.3162Z" fill="#EAEAEA"/>
<path d="M54.5378 140.13C53.8954 140.13 53.3522 139.632 53.3134 138.984C50.9421 100.734 69.4378 66.4096 88.6837 55.3252C89.2614 54.9881 90.0202 55.1835 90.3607 55.7717C90.7014 56.3557 90.5031 57.1028 89.9167 57.442C71.3132 68.1551 53.4513 101.529 55.7622 138.833C55.8053 139.508 55.288 140.087 54.6154 140.128C54.5895 140.13 54.5637 140.13 54.5378 140.13Z" fill="#EAEAEA"/>
<path d="M98.5699 90.9982C74.3056 90.9982 52.654 86.0968 41.3151 79.2675C40.7331 78.9196 40.5477 78.1682 40.8969 77.5886C41.2504 77.0111 42.0049 76.8221 42.5827 77.1763C62.8202 89.3536 116.729 95.2168 158.588 77.1012C159.196 76.8414 159.929 77.1184 160.201 77.7346C160.472 78.3529 160.188 79.0742 159.563 79.3426C140.334 87.6683 118.562 90.9982 98.5699 90.9982Z" fill="#EAEAEA"/>
<path d="M98.91 144.254C76.1202 144.254 53.8694 141.094 31.8211 134.776C23.0777 132.27 18.5077 126.836 19.5984 120.239C19.7062 119.578 20.3529 119.125 21.0082 119.232C21.6765 119.341 22.1292 119.971 22.0214 120.636C20.7711 128.208 28.9325 131.403 32.5023 132.427C76.1461 144.941 120.648 144.937 168.521 132.418C171.311 131.69 180.308 128.687 178.976 120.636C178.868 119.971 179.321 119.341 179.989 119.232C180.636 119.116 181.287 119.576 181.399 120.239C182.507 126.946 177.812 132.519 169.142 134.784C144.99 141.096 121.683 144.254 98.91 144.254Z" fill="#EAEAEA"/>
<path d="M103.921 83.5332C101.938 83.5332 99.9931 83.4796 98.1048 83.3722C97.4279 83.3357 96.9105 82.7582 96.9493 82.0841C96.9881 81.4142 97.5917 80.9269 98.2427 80.9333C108.728 81.5108 120.826 80.4181 132.341 77.8117C140.08 76.0599 147.138 73.7069 152.208 71.1842C152.811 70.8815 153.553 71.1263 153.855 71.7317C154.157 72.335 153.911 73.0692 153.303 73.3698C148.06 75.9783 140.809 78.4021 132.884 80.1948C123.223 82.3825 113.143 83.5332 103.921 83.5332Z" fill="#FFAF18"/>
<path d="M106.477 77.6743C103.894 77.6743 101.333 77.5648 98.8069 77.3479C98.13 77.29 97.6299 76.6974 97.6859 76.0254C97.742 75.3513 98.3067 74.7996 99.0138 74.9133C107.598 75.6476 116.561 75.098 125.658 73.2774C132.759 71.8583 139.834 69.6856 146.684 66.8216C147.305 66.5597 148.03 66.8517 148.288 67.4765C148.551 68.0991 148.258 68.814 147.633 69.0759C140.631 72.0043 133.401 74.2242 126.141 75.6734C119.488 77.0044 112.901 77.6743 106.477 77.6743Z" fill="#FFAF18"/>
<path d="M105.131 72.0903C103.532 72.0903 101.906 72.0581 100.247 71.9937C99.5697 71.9679 99.0394 71.399 99.0696 70.7249C99.0955 70.0486 99.7335 69.5441 100.341 69.5505C106.231 69.7824 111.637 69.5999 116.923 68.9902C124.951 68.0713 132.81 66.1348 140.95 63.0733C141.61 62.835 142.295 63.157 142.532 63.7861C142.774 64.4173 142.455 65.1236 141.821 65.3619C133.483 68.4943 125.433 70.4758 117.207 71.4205C113.288 71.8692 109.3 72.0903 105.131 72.0903Z" fill="#FFAF18"/>
<path d="M132.613 80.2248C132.052 80.2248 131.544 79.8405 131.414 79.2738C131.268 78.6147 131.682 77.9598 132.341 77.8117C140.08 76.0599 147.138 73.7069 152.208 71.1842C152.811 70.8815 153.553 71.1263 153.855 71.7317C154.157 72.335 153.911 73.0692 153.303 73.3698C148.06 75.9783 140.809 78.4021 132.884 80.1948C132.794 80.2163 132.703 80.2248 132.613 80.2248Z" fill="#FFAF18"/>
<path d="M125.899 75.697C125.326 75.697 124.813 75.2976 124.696 74.7158C124.563 74.0546 124.994 73.4105 125.658 73.2774C132.758 71.8583 139.833 69.6856 146.684 66.8216C147.305 66.5597 148.029 66.8517 148.288 67.4765C148.551 68.0991 148.258 68.814 147.633 69.0759C140.631 72.0043 133.401 74.2242 126.14 75.6734C126.059 75.6905 125.977 75.697 125.899 75.697Z" fill="#FFAF18"/>
<path d="M117.066 71.4269C116.45 71.4269 115.919 70.9675 115.846 70.3449C115.768 69.675 116.251 69.0675 116.924 68.9902C124.952 68.0713 132.811 66.1348 140.951 63.0733C141.611 62.835 142.296 63.157 142.533 63.7861C142.775 64.4173 142.456 65.1236 141.822 65.3619C133.484 68.4943 125.435 70.4758 117.208 71.4205C117.161 71.4248 117.114 71.4269 117.066 71.4269Z" fill="#FFAF18"/>
<path d="M102.274 130.377C92.435 130.377 82.4758 129.574 72.7538 127.755C72.4649 127.702 72.2579 127.453 72.2537 127.163C72.1329 118.257 73.1418 104.708 76.3667 95.8286C76.4659 95.5602 76.759 95.3778 77.0263 95.4315C105.598 99.2358 136.596 95.1824 164.314 84.0206C164.611 83.8896 164.987 84.0421 165.111 84.3577C165.237 84.6711 165.086 85.0275 164.771 85.1542C137.019 96.331 105.999 100.436 77.3583 96.7067C74.3748 105.269 73.4005 118 73.4737 126.645C112.5 133.797 155.191 124.559 178.434 112.903C178.74 112.748 179.102 112.871 179.257 113.174C179.408 113.474 179.287 113.843 178.985 113.994C161.266 122.884 132.332 130.377 102.274 130.377Z" fill="#EAEAEA"/>
<path d="M77.9269 124.891C77.5906 124.891 77.3189 124.623 77.3146 124.288C77.1724 113.893 78.3192 107.175 80.0868 100.288C80.1731 99.9593 80.4964 99.7618 80.8327 99.8477C81.1604 99.9315 81.3587 100.264 81.2767 100.593C79.5306 107.383 78.4011 114.011 78.539 124.271C78.5433 124.608 78.276 124.887 77.9354 124.891C77.9312 124.891 77.9312 124.891 77.9269 124.891Z" fill="#EAEAEA"/>
<path d="M82.8344 124.891C82.4981 124.891 82.2265 124.623 82.2222 124.288C82.0841 113.888 83.231 107.173 84.9987 100.288C85.0849 99.9593 85.4126 99.7618 85.7445 99.8477C86.0722 99.9315 86.2705 100.264 86.1886 100.593C84.4468 107.381 83.3129 114.007 83.4466 124.271C83.4509 124.608 83.1792 124.887 82.843 124.891C82.8387 124.891 82.8387 124.891 82.8344 124.891Z" fill="#EAEAEA"/>
<path d="M87.7445 125.196C87.4083 125.196 87.1366 124.928 87.1323 124.593C86.9944 114.196 88.1412 107.48 89.9088 100.595C89.9951 100.269 90.327 100.073 90.6547 100.155C90.9824 100.238 91.1807 100.571 91.0988 100.9C89.357 107.688 88.2231 114.314 88.3568 124.576C88.3611 124.913 88.0894 125.192 87.7532 125.196C87.7489 125.196 87.7489 125.196 87.7445 125.196Z" fill="#EAEAEA"/>
<path d="M92.6547 125.503C92.3184 125.503 92.0468 125.235 92.0425 124.9C91.9045 114.489 93.0513 107.778 94.8147 100.902C94.9009 100.575 95.2286 100.374 95.5605 100.462C95.8882 100.545 96.0865 100.878 96.0046 101.207C94.2628 107.987 93.1332 114.608 93.2669 124.883C93.2712 125.22 92.9995 125.499 92.6633 125.503C92.659 125.503 92.659 125.503 92.6547 125.503Z" fill="#EAEAEA"/>
<path d="M97.5401 125.784C97.2039 125.784 96.9322 125.516 96.9279 125.181C96.7856 114.788 97.9324 108.07 99.7001 101.183C99.7863 100.857 100.114 100.659 100.446 100.743C100.774 100.827 100.972 101.159 100.89 101.488C99.1439 108.279 98.0143 114.906 98.1523 125.164C98.1566 125.501 97.8893 125.78 97.5487 125.784C97.5445 125.784 97.5444 125.784 97.5401 125.784Z" fill="#EAEAEA"/>
<path d="M122.926 100.747C130.592 99.6857 139.191 97.9799 147.159 95.8545C150.783 102.416 152.789 109.461 152.755 117.119C143.996 119.617 134.573 121.607 125.782 122.694C125.782 115.739 124.723 108.592 122.926 100.747Z" fill="#FFAF18"/>
<path d="M167.404 88.5396C171.076 93.7453 174.277 100.148 177.011 107.732C170.81 111.163 162.168 114.436 152.756 117.119C152.79 109.462 150.784 102.416 147.16 95.8546C155.029 93.7558 162.283 91.2475 167.404 88.5396Z" fill="#FFAF18"/>
<path d="M143.219 121.506C142.917 121.506 142.662 121.272 142.645 120.967C142.05 111.57 140.438 103.48 137.851 96.9237C137.73 96.6274 137.877 96.2946 138.174 96.1787C138.467 96.0628 138.808 96.2109 138.92 96.5029C141.554 103.171 143.193 111.377 143.792 120.894C143.814 121.212 143.572 121.484 143.253 121.504C143.244 121.504 143.231 121.506 143.219 121.506Z" fill="#F3F3F3"/>
<path d="M138.682 121.901C138.38 121.901 138.126 121.664 138.109 121.362C137.458 110.999 135.492 103.894 133.53 97.5074C133.435 97.2047 133.608 96.8827 133.914 96.7904C134.224 96.696 134.539 96.8698 134.634 97.1725C136.613 103.624 138.6 110.803 139.255 121.289C139.277 121.606 139.036 121.879 138.717 121.898C138.708 121.898 138.695 121.901 138.682 121.901Z" fill="#F3F3F3"/>
<path d="M133.987 122.132C133.685 122.132 133.431 121.896 133.413 121.594C132.771 111.357 131.275 104.811 129.231 98.1322C129.141 97.8295 129.309 97.5075 129.615 97.4152C129.917 97.3207 130.24 97.4946 130.335 97.7973C132.405 104.554 133.914 111.175 134.565 121.521C134.582 121.838 134.34 122.111 134.021 122.13C134.013 122.13 134 122.132 133.987 122.132Z" fill="#F3F3F3"/>
<path d="M129.707 122.732C129.405 122.732 129.151 122.495 129.13 122.193C128.487 111.933 126.995 105.393 124.952 98.7313C124.857 98.4285 125.029 98.1065 125.336 98.0142C125.637 97.9219 125.961 98.0936 126.056 98.3964C128.121 105.136 129.634 111.748 130.281 122.12C130.302 122.437 130.061 122.71 129.742 122.729C129.733 122.729 129.72 122.732 129.707 122.732Z" fill="#F3F3F3"/>
</svg>
