<svg width="411" height="223" viewBox="0 0 411 223" fill="none" xmlns="http://www.w3.org/2000/svg">
<path d="M303.418 114.849H302.049C301.86 114.849 301.708 114.725 301.708 114.572C301.708 114.419 301.861 114.295 302.049 114.295H303.075V113.464C303.075 113.31 303.229 113.187 303.417 113.187C303.606 113.187 303.76 113.311 303.76 113.464V114.573C303.76 114.725 303.607 114.849 303.418 114.849ZM299.366 114.849H296.682C296.493 114.849 296.34 114.725 296.34 114.572C296.34 114.419 296.493 114.295 296.682 114.295H299.366C299.555 114.295 299.708 114.419 299.708 114.572C299.708 114.725 299.555 114.849 299.366 114.849ZM293.999 114.849H291.315C291.126 114.849 290.974 114.725 290.974 114.572C290.974 114.419 291.127 114.295 291.315 114.295H293.999C294.188 114.295 294.341 114.419 294.341 114.572C294.341 114.725 294.188 114.849 293.999 114.849ZM288.632 114.849H285.948C285.759 114.849 285.606 114.725 285.606 114.572C285.606 114.419 285.759 114.295 285.948 114.295H288.632C288.821 114.295 288.974 114.419 288.974 114.572C288.974 114.725 288.821 114.849 288.632 114.849ZM283.265 114.849H280.581C280.392 114.849 280.24 114.725 280.24 114.572C280.24 114.419 280.393 114.295 280.581 114.295H283.265C283.454 114.295 283.607 114.419 283.607 114.572C283.607 114.725 283.454 114.849 283.265 114.849ZM277.898 114.849H275.214C275.025 114.849 274.873 114.725 274.873 114.572C274.873 114.419 275.026 114.295 275.214 114.295H277.898C278.087 114.295 278.239 114.419 278.239 114.572C278.239 114.725 278.087 114.849 277.898 114.849ZM272.531 114.849H269.847C269.658 114.849 269.506 114.725 269.506 114.572C269.506 114.419 269.659 114.295 269.847 114.295H272.531C272.72 114.295 272.873 114.419 272.873 114.572C272.873 114.725 272.72 114.849 272.531 114.849ZM267.164 114.849H264.481C264.291 114.849 264.139 114.725 264.139 114.572C264.139 114.419 264.292 114.295 264.481 114.295H267.164C267.353 114.295 267.505 114.419 267.505 114.572C267.505 114.725 267.353 114.849 267.164 114.849ZM261.797 114.849H259.114C258.924 114.849 258.772 114.725 258.772 114.572C258.772 114.419 258.925 114.295 259.114 114.295H261.797C261.986 114.295 262.139 114.419 262.139 114.572C262.139 114.725 261.986 114.849 261.797 114.849ZM256.431 114.849H253.747C253.558 114.849 253.405 114.725 253.405 114.572C253.405 114.419 253.559 114.295 253.747 114.295H256.431C256.62 114.295 256.773 114.419 256.773 114.572C256.773 114.725 256.619 114.849 256.431 114.849ZM251.063 114.849H248.38C248.191 114.849 248.038 114.725 248.038 114.572C248.038 114.419 248.191 114.295 248.38 114.295H251.063C251.252 114.295 251.405 114.419 251.405 114.572C251.405 114.725 251.252 114.849 251.063 114.849ZM245.697 114.849H243.013C242.824 114.849 242.671 114.725 242.671 114.572C242.671 114.419 242.825 114.295 243.013 114.295H245.697C245.886 114.295 246.039 114.419 246.039 114.572C246.039 114.725 245.886 114.849 245.697 114.849ZM240.329 114.849H237.646C237.457 114.849 237.305 114.725 237.305 114.572C237.305 114.419 237.458 114.295 237.646 114.295H240.329C240.519 114.295 240.671 114.419 240.671 114.572C240.671 114.725 240.519 114.849 240.329 114.849ZM234.963 114.849H232.279C232.09 114.849 231.938 114.725 231.938 114.572C231.938 114.419 232.091 114.295 232.279 114.295H234.963C235.152 114.295 235.305 114.419 235.305 114.572C235.305 114.725 235.152 114.849 234.963 114.849ZM229.596 114.849H226.912C226.723 114.849 226.571 114.725 226.571 114.572C226.571 114.419 226.724 114.295 226.912 114.295H229.596C229.785 114.295 229.937 114.419 229.937 114.572C229.937 114.725 229.785 114.849 229.596 114.849ZM224.229 114.849H221.545C221.356 114.849 221.204 114.725 221.204 114.572C221.204 114.419 221.357 114.295 221.545 114.295H224.229C224.418 114.295 224.571 114.419 224.571 114.572C224.571 114.725 224.418 114.849 224.229 114.849ZM218.862 114.849H216.178C215.989 114.849 215.837 114.725 215.837 114.572C215.837 114.419 215.99 114.295 216.178 114.295H218.862C219.051 114.295 219.204 114.419 219.204 114.572C219.204 114.725 219.051 114.849 218.862 114.849ZM213.495 114.849H210.811C210.622 114.849 210.47 114.725 210.47 114.572C210.47 114.419 210.623 114.295 210.811 114.295H213.495C213.684 114.295 213.837 114.419 213.837 114.572C213.837 114.725 213.684 114.849 213.495 114.849ZM208.128 114.849H205.444C205.255 114.849 205.103 114.725 205.103 114.572C205.103 114.419 205.256 114.295 205.444 114.295H208.128C208.317 114.295 208.47 114.419 208.47 114.572C208.47 114.725 208.317 114.849 208.128 114.849ZM202.761 114.849H200.077C199.888 114.849 199.735 114.725 199.735 114.572C199.735 114.419 199.888 114.295 200.077 114.295H202.761C202.95 114.295 203.102 114.419 203.102 114.572C203.102 114.725 202.95 114.849 202.761 114.849ZM197.394 114.849H194.711C194.521 114.849 194.369 114.725 194.369 114.572C194.369 114.419 194.522 114.295 194.711 114.295H197.394C197.583 114.295 197.736 114.419 197.736 114.572C197.736 114.725 197.583 114.849 197.394 114.849ZM192.027 114.849H189.344C189.154 114.849 189.002 114.725 189.002 114.572C189.002 114.419 189.155 114.295 189.344 114.295H192.027C192.216 114.295 192.369 114.419 192.369 114.572C192.369 114.725 192.216 114.849 192.027 114.849ZM186.66 114.849H185.292C185.103 114.849 184.95 114.725 184.95 114.572V113.463C184.95 113.31 185.103 113.186 185.292 113.186C185.48 113.186 185.634 113.31 185.634 113.463V114.295H186.66C186.849 114.295 187.002 114.419 187.002 114.572C187.002 114.724 186.849 114.849 186.66 114.849ZM185.292 111.569C185.103 111.569 184.95 111.444 184.95 111.292V109.119C184.95 108.966 185.103 108.842 185.292 108.842C185.48 108.842 185.634 108.967 185.634 109.119V111.292C185.634 111.444 185.481 111.569 185.292 111.569ZM185.292 107.224C185.103 107.224 184.95 107.1 184.95 106.947V104.775C184.95 104.622 185.103 104.498 185.292 104.498C185.48 104.498 185.634 104.622 185.634 104.775V106.947C185.634 107.101 185.481 107.224 185.292 107.224ZM185.292 102.88C185.103 102.88 184.95 102.756 184.95 102.603V100.431C184.95 100.277 185.103 100.154 185.292 100.154C185.48 100.154 185.634 100.278 185.634 100.431V102.603C185.634 102.756 185.481 102.88 185.292 102.88ZM185.292 98.5357C185.103 98.5357 184.95 98.4114 184.95 98.2588V96.0869C184.95 95.9337 185.103 95.8099 185.292 95.8099C185.48 95.8099 185.634 95.9342 185.634 96.0869V98.2588C185.634 98.4114 185.481 98.5357 185.292 98.5357ZM185.292 94.1914C185.103 94.1914 184.95 94.0671 184.95 93.9144V91.7425C184.95 91.5893 185.103 91.4656 185.292 91.4656C185.48 91.4656 185.634 91.5899 185.634 91.7425V93.9144C185.634 94.0671 185.481 94.1914 185.292 94.1914ZM185.292 89.8471C185.103 89.8471 184.95 89.7227 184.95 89.5701V87.3976C184.95 87.2445 185.103 87.1207 185.292 87.1207C185.48 87.1207 185.634 87.245 185.634 87.3976V89.5701C185.634 89.7227 185.481 89.8471 185.292 89.8471ZM185.292 85.5027C185.103 85.5027 184.95 85.3784 184.95 85.2257V83.0539C184.95 82.9007 185.103 82.7769 185.292 82.7769C185.48 82.7769 185.634 82.9012 185.634 83.0539V85.2257C185.634 85.3784 185.481 85.5027 185.292 85.5027ZM185.292 81.1584C185.103 81.1584 184.95 81.034 184.95 80.8814V78.7095C184.95 78.5563 185.103 78.4326 185.292 78.4326C185.48 78.4326 185.634 78.5569 185.634 78.7095V80.8814C185.634 81.034 185.481 81.1584 185.292 81.1584ZM185.292 76.814C185.103 76.814 184.95 76.6897 184.95 76.5371V74.3646C184.95 74.2114 185.103 74.0877 185.292 74.0877C185.48 74.0877 185.634 74.212 185.634 74.3646V76.5371C185.634 76.6897 185.481 76.814 185.292 76.814ZM185.292 72.4697C185.103 72.4697 184.95 72.3454 184.95 72.1927V70.0208C184.95 69.8676 185.103 69.7439 185.292 69.7439C185.48 69.7439 185.634 69.8682 185.634 70.0208V72.1927C185.634 72.3454 185.481 72.4697 185.292 72.4697ZM185.292 68.1254C185.103 68.1254 184.95 68.001 184.95 67.8484V65.6765C184.95 65.5233 185.103 65.3995 185.292 65.3995C185.48 65.3995 185.634 65.5239 185.634 65.6765V67.8484C185.634 68.001 185.481 68.1254 185.292 68.1254ZM185.292 63.781C185.103 63.781 184.95 63.6567 184.95 63.5041V61.3316C184.95 61.1784 185.103 61.0546 185.292 61.0546C185.48 61.0546 185.634 61.179 185.634 61.3316V63.5041C185.634 63.6567 185.481 63.781 185.292 63.781ZM185.292 59.4367C185.103 59.4367 184.95 59.3123 184.95 59.1597V56.9878C184.95 56.8346 185.103 56.7109 185.292 56.7109C185.48 56.7109 185.634 56.8352 185.634 56.9878V59.1597C185.634 59.3123 185.481 59.4367 185.292 59.4367ZM185.292 55.0923C185.103 55.0923 184.95 54.968 184.95 54.8154V52.6435C184.95 52.4903 185.103 52.3665 185.292 52.3665C185.48 52.3665 185.634 52.4908 185.634 52.6435V54.8154C185.634 54.968 185.481 55.0923 185.292 55.0923ZM185.292 50.748C185.103 50.748 184.95 50.6237 184.95 50.471V48.2986C184.95 48.1454 185.103 48.0216 185.292 48.0216C185.48 48.0216 185.634 48.1459 185.634 48.2986V50.471C185.634 50.6237 185.481 50.748 185.292 50.748ZM185.292 46.4037C185.103 46.4037 184.95 46.2793 184.95 46.1267V43.9548C184.95 43.8016 185.103 43.6778 185.292 43.6778C185.48 43.6778 185.634 43.8022 185.634 43.9548V46.1267C185.634 46.2793 185.481 46.4037 185.292 46.4037ZM185.292 42.0593C185.103 42.0593 184.95 41.935 184.95 41.7824V39.6105C184.95 39.4573 185.103 39.3335 185.292 39.3335C185.48 39.3335 185.634 39.4578 185.634 39.6105V41.7824C185.634 41.935 185.481 42.0593 185.292 42.0593ZM185.292 37.7144C185.103 37.7144 184.95 37.5901 184.95 37.4375V36.3285C184.95 36.1753 185.103 36.0515 185.292 36.0515H186.66C186.849 36.0515 187.002 36.1758 187.002 36.3285C187.002 36.4811 186.849 36.6054 186.66 36.6054H185.634V37.4369C185.634 37.5907 185.481 37.7144 185.292 37.7144ZM299.365 36.6054H296.682C296.493 36.6054 296.339 36.4811 296.339 36.3285C296.339 36.1758 296.493 36.0515 296.682 36.0515H299.365C299.554 36.0515 299.707 36.1758 299.707 36.3285C299.707 36.4811 299.554 36.6054 299.365 36.6054ZM293.999 36.6054H291.315C291.126 36.6054 290.973 36.4811 290.973 36.3285C290.973 36.1758 291.126 36.0515 291.315 36.0515H293.999C294.188 36.0515 294.34 36.1758 294.34 36.3285C294.34 36.4811 294.188 36.6054 293.999 36.6054ZM288.632 36.6054H285.948C285.759 36.6054 285.606 36.4811 285.606 36.3285C285.606 36.1758 285.759 36.0515 285.948 36.0515H288.632C288.821 36.0515 288.974 36.1758 288.974 36.3285C288.974 36.4811 288.821 36.6054 288.632 36.6054ZM283.265 36.6054H280.581C280.392 36.6054 280.239 36.4811 280.239 36.3285C280.239 36.1758 280.392 36.0515 280.581 36.0515H283.265C283.454 36.0515 283.606 36.1758 283.606 36.3285C283.606 36.4811 283.454 36.6054 283.265 36.6054ZM277.898 36.6054H275.214C275.025 36.6054 274.872 36.4811 274.872 36.3285C274.872 36.1758 275.025 36.0515 275.214 36.0515H277.898C278.087 36.0515 278.24 36.1758 278.24 36.3285C278.24 36.4811 278.087 36.6054 277.898 36.6054ZM272.531 36.6054H269.847C269.658 36.6054 269.506 36.4811 269.506 36.3285C269.506 36.1758 269.659 36.0515 269.847 36.0515H272.531C272.72 36.0515 272.872 36.1758 272.872 36.3285C272.872 36.4811 272.72 36.6054 272.531 36.6054ZM267.164 36.6054H264.48C264.291 36.6054 264.137 36.4811 264.137 36.3285C264.137 36.1758 264.291 36.0515 264.48 36.0515H267.164C267.353 36.0515 267.505 36.1758 267.505 36.3285C267.505 36.4811 267.353 36.6054 267.164 36.6054ZM261.797 36.6054H259.114C258.924 36.6054 258.772 36.4811 258.772 36.3285C258.772 36.1758 258.925 36.0515 259.114 36.0515H261.797C261.986 36.0515 262.138 36.1758 262.138 36.3285C262.138 36.4811 261.986 36.6054 261.797 36.6054ZM256.43 36.6054H253.746C253.557 36.6054 253.404 36.4811 253.404 36.3285C253.404 36.1758 253.558 36.0515 253.746 36.0515H256.43C256.619 36.0515 256.772 36.1758 256.772 36.3285C256.772 36.4811 256.619 36.6054 256.43 36.6054ZM251.063 36.6054H248.38C248.191 36.6054 248.038 36.4811 248.038 36.3285C248.038 36.1758 248.191 36.0515 248.38 36.0515H251.063C251.252 36.0515 251.405 36.1758 251.405 36.3285C251.405 36.4811 251.252 36.6054 251.063 36.6054ZM245.696 36.6054H243.012C242.823 36.6054 242.67 36.4811 242.67 36.3285C242.67 36.1758 242.824 36.0515 243.012 36.0515H245.696C245.885 36.0515 246.038 36.1758 246.038 36.3285C246.038 36.4811 245.885 36.6054 245.696 36.6054ZM240.329 36.6054H237.646C237.457 36.6054 237.304 36.4811 237.304 36.3285C237.304 36.1758 237.457 36.0515 237.646 36.0515H240.329C240.519 36.0515 240.671 36.1758 240.671 36.3285C240.671 36.4811 240.519 36.6054 240.329 36.6054ZM234.962 36.6054H232.278C232.089 36.6054 231.936 36.4811 231.936 36.3285C231.936 36.1758 232.09 36.0515 232.278 36.0515H234.962C235.151 36.0515 235.304 36.1758 235.304 36.3285C235.304 36.4811 235.151 36.6054 234.962 36.6054ZM229.596 36.6054H226.912C226.723 36.6054 226.57 36.4811 226.57 36.3285C226.57 36.1758 226.723 36.0515 226.912 36.0515H229.596C229.785 36.0515 229.937 36.1758 229.937 36.3285C229.937 36.4811 229.785 36.6054 229.596 36.6054ZM224.228 36.6054H221.545C221.356 36.6054 221.203 36.4811 221.203 36.3285C221.203 36.1758 221.356 36.0515 221.545 36.0515H224.228C224.417 36.0515 224.57 36.1758 224.57 36.3285C224.57 36.4811 224.417 36.6054 224.228 36.6054ZM218.862 36.6054H216.178C215.989 36.6054 215.836 36.4811 215.836 36.3285C215.836 36.1758 215.989 36.0515 216.178 36.0515H218.862C219.051 36.0515 219.203 36.1758 219.203 36.3285C219.203 36.4811 219.051 36.6054 218.862 36.6054ZM213.494 36.6054H210.811C210.622 36.6054 210.469 36.4811 210.469 36.3285C210.469 36.1758 210.622 36.0515 210.811 36.0515H213.494C213.683 36.0515 213.836 36.1758 213.836 36.3285C213.836 36.4811 213.683 36.6054 213.494 36.6054ZM208.128 36.6054H205.444C205.255 36.6054 205.102 36.4811 205.102 36.3285C205.102 36.1758 205.255 36.0515 205.444 36.0515H208.128C208.317 36.0515 208.469 36.1758 208.469 36.3285C208.469 36.4811 208.317 36.6054 208.128 36.6054ZM202.761 36.6054H200.077C199.888 36.6054 199.735 36.4811 199.735 36.3285C199.735 36.1758 199.888 36.0515 200.077 36.0515H202.761C202.95 36.0515 203.102 36.1758 203.102 36.3285C203.102 36.4811 202.95 36.6054 202.761 36.6054ZM197.394 36.6054H194.71C194.521 36.6054 194.368 36.4811 194.368 36.3285C194.368 36.1758 194.521 36.0515 194.71 36.0515H197.394C197.583 36.0515 197.735 36.1758 197.735 36.3285C197.735 36.4811 197.583 36.6054 197.394 36.6054ZM192.027 36.6054H189.343C189.154 36.6054 189.001 36.4811 189.001 36.3285C189.001 36.1758 189.154 36.0515 189.343 36.0515H192.027C192.216 36.0515 192.369 36.1758 192.369 36.3285C192.369 36.4811 192.216 36.6054 192.027 36.6054ZM303.418 37.7144C303.229 37.7144 303.076 37.5901 303.076 37.4375V36.606H302.05C301.861 36.606 301.708 36.4817 301.708 36.329C301.708 36.1764 301.862 36.0521 302.05 36.0521H303.419C303.608 36.0521 303.761 36.1764 303.761 36.329V37.438C303.76 37.5907 303.607 37.7144 303.418 37.7144ZM303.418 111.568C303.229 111.568 303.076 111.444 303.076 111.291V109.119C303.076 108.966 303.23 108.842 303.418 108.842C303.606 108.842 303.76 108.967 303.76 109.119V111.291C303.76 111.444 303.607 111.568 303.418 111.568ZM303.418 107.224C303.229 107.224 303.076 107.1 303.076 106.947V104.775C303.076 104.622 303.23 104.498 303.418 104.498C303.606 104.498 303.76 104.622 303.76 104.775V106.947C303.76 107.1 303.607 107.224 303.418 107.224ZM303.418 102.88C303.229 102.88 303.076 102.755 303.076 102.603V100.43C303.076 100.277 303.23 100.153 303.418 100.153C303.606 100.153 303.76 100.277 303.76 100.43V102.603C303.76 102.756 303.607 102.88 303.418 102.88ZM303.418 98.5352C303.229 98.5352 303.076 98.4109 303.076 98.2582V96.0863C303.076 95.9331 303.23 95.8094 303.418 95.8094C303.606 95.8094 303.76 95.9337 303.76 96.0863V98.2582C303.76 98.4109 303.607 98.5352 303.418 98.5352ZM303.418 94.1908C303.229 94.1908 303.076 94.0665 303.076 93.9139V91.742C303.076 91.5888 303.23 91.465 303.418 91.465C303.606 91.465 303.76 91.5893 303.76 91.742V93.9139C303.76 94.0665 303.607 94.1908 303.418 94.1908ZM303.418 89.8465C303.229 89.8465 303.076 89.7222 303.076 89.5695V87.3971C303.076 87.2439 303.23 87.1201 303.418 87.1201C303.606 87.1201 303.76 87.2445 303.76 87.3971V89.5695C303.76 89.7227 303.607 89.8465 303.418 89.8465ZM303.418 85.5022C303.229 85.5022 303.076 85.3778 303.076 85.2252V83.0533C303.076 82.9001 303.23 82.7763 303.418 82.7763C303.606 82.7763 303.76 82.9007 303.76 83.0533V85.2252C303.76 85.3778 303.607 85.5022 303.418 85.5022ZM303.418 81.1578C303.229 81.1578 303.076 81.0335 303.076 80.8809V78.709C303.076 78.5558 303.23 78.432 303.418 78.432C303.606 78.432 303.76 78.5563 303.76 78.709V80.8809C303.76 81.0335 303.607 81.1578 303.418 81.1578ZM303.418 76.8135C303.229 76.8135 303.076 76.6892 303.076 76.5365V74.3641C303.076 74.2109 303.23 74.0871 303.418 74.0871C303.606 74.0871 303.76 74.2114 303.76 74.3641V76.5365C303.76 76.6897 303.607 76.8135 303.418 76.8135ZM303.418 72.4691C303.229 72.4691 303.076 72.3448 303.076 72.1922V70.0203C303.076 69.8671 303.23 69.7433 303.418 69.7433C303.606 69.7433 303.76 69.8677 303.76 70.0203V72.1922C303.76 72.3448 303.607 72.4691 303.418 72.4691ZM303.418 68.1248C303.229 68.1248 303.076 68.0005 303.076 67.8478V65.6759C303.076 65.5228 303.23 65.399 303.418 65.399C303.606 65.399 303.76 65.5233 303.76 65.6759V67.8478C303.76 68.0005 303.607 68.1248 303.418 68.1248ZM303.418 63.7805C303.229 63.7805 303.076 63.6561 303.076 63.5035V61.3311C303.076 61.1779 303.23 61.0541 303.418 61.0541C303.606 61.0541 303.76 61.1784 303.76 61.3311V63.5035C303.76 63.6567 303.607 63.7805 303.418 63.7805ZM303.418 59.4361C303.229 59.4361 303.076 59.3118 303.076 59.1592V56.9873C303.076 56.8341 303.23 56.7103 303.418 56.7103C303.606 56.7103 303.76 56.8346 303.76 56.9873V59.1592C303.76 59.3118 303.607 59.4361 303.418 59.4361ZM303.418 55.0918C303.229 55.0918 303.076 54.9675 303.076 54.8148V52.6429C303.076 52.4897 303.23 52.366 303.418 52.366C303.606 52.366 303.76 52.4903 303.76 52.6429V54.8148C303.76 54.9675 303.607 55.0918 303.418 55.0918ZM303.418 50.7474C303.229 50.7474 303.076 50.6231 303.076 50.4705V48.298C303.076 48.1448 303.23 48.0211 303.418 48.0211C303.606 48.0211 303.76 48.1454 303.76 48.298V50.4705C303.76 50.6237 303.607 50.7474 303.418 50.7474ZM303.418 46.4031C303.229 46.4031 303.076 46.2788 303.076 46.1261V43.9542C303.076 43.8011 303.23 43.6773 303.418 43.6773C303.606 43.6773 303.76 43.8016 303.76 43.9542V46.1261C303.76 46.2788 303.607 46.4031 303.418 46.4031ZM303.418 42.0588C303.229 42.0588 303.076 41.9344 303.076 41.7818V39.6099C303.076 39.4567 303.23 39.3329 303.418 39.3329C303.606 39.3329 303.76 39.4573 303.76 39.6099V41.7818C303.76 41.9344 303.607 42.0588 303.418 42.0588Z" fill="black"/>
<path d="M307.088 135.334H235.431C233.655 135.334 232.215 134.167 232.215 132.727V89.7482C232.215 88.3088 233.655 87.1421 235.431 87.1421H307.089C308.865 87.1421 310.305 88.3088 310.305 89.7482V132.727C310.305 134.167 308.865 135.334 307.088 135.334Z" fill="#FEC76D"/>
<path d="M305.226 96.4536H236.36V99.9045H305.226V96.4536Z" fill="white"/>
<path d="M267.244 96.4536H254.341V99.9045H267.244V96.4536Z" fill="#F05E6B"/>
<path d="M305.226 96.4536H287.506V99.9045H305.226V96.4536Z" fill="#3C468E"/>
<path d="M243.203 121.632H239.12V128.677H243.203V121.632Z" fill="#F05E6B"/>
<path d="M250.612 118.385H246.529V128.677H250.612V118.385Z" fill="#3C468E"/>
<path d="M254.694 126.961H250.611V128.677H254.694V126.961Z" fill="#F05E6B"/>
<path d="M258.777 127.819H254.694V128.677H258.777V127.819Z" fill="#3C468E"/>
<path d="M262.86 110.584H258.777V128.677H262.86V110.584Z" fill="#F05E6B"/>
<path d="M266.942 106.337H262.859V128.677H266.942V106.337Z" fill="#3C468E"/>
<path d="M271.024 125.369H266.942V128.677H271.024V125.369Z" fill="#F05E6B"/>
<path d="M276.279 111.85H272.196V128.677H276.279V111.85Z" fill="#3C468E"/>
<path d="M291.74 103.253H287.506V128.676H291.74V103.253Z" fill="#3C468E"/>
<path d="M295.974 123.96H291.74V128.677H295.974V123.96Z" fill="#F05E6B"/>
<path d="M300.208 106.623H295.974V128.677H300.208V106.623Z" fill="#3C468E"/>
<path d="M304.442 114.097H300.208V128.677H304.442V114.097Z" fill="#F05E6B"/>
<path d="M314.581 59.0624H250.545C247.825 59.0624 245.621 57.2762 245.621 55.0727V17.1764C245.621 14.9729 247.825 13.1868 250.545 13.1868H314.581C317.3 13.1868 319.504 14.9729 319.504 17.1764V55.0727C319.504 57.2762 317.299 59.0624 314.581 59.0624Z" fill="#3EA3B9"/>
<path d="M278.549 19.3416H263.671V20.0398H278.549V19.3416Z" fill="#F05E6B"/>
<path d="M283.032 19.3416H280.155V20.0398H283.032V19.3416Z" fill="#F05E6B"/>
<path d="M278.549 21.9592H263.671V22.6575H278.549V21.9592Z" fill="#F05E6B"/>
<path d="M283.032 21.9592H280.155V22.6575H283.032V21.9592Z" fill="#F05E6B"/>
<path d="M278.549 24.5769H263.671V25.2752H278.549V24.5769Z" fill="#F05E6B"/>
<path d="M283.032 24.5769H280.155V25.2752H283.032V24.5769Z" fill="#F05E6B"/>
<path d="M278.549 27.1938H263.671V27.8921H278.549V27.1938Z" fill="#F05E6B"/>
<path d="M283.032 27.1938H280.155V27.8921H283.032V27.1938Z" fill="#F05E6B"/>
<path d="M278.549 29.8115H263.671V30.5098H278.549V29.8115Z" fill="#F05E6B"/>
<path d="M283.032 29.8115H280.155V30.5098H283.032V29.8115Z" fill="#F05E6B"/>
<path d="M278.549 32.4285H263.671V33.1267H278.549V32.4285Z" fill="#F05E6B"/>
<path d="M283.032 32.4285H280.155V33.1267H283.032V32.4285Z" fill="#F05E6B"/>
<path d="M250.659 44.6156C250.589 44.6156 250.519 44.5984 250.458 44.5628C250.305 44.4729 250.271 44.2997 250.381 44.1754L251.184 43.2779C251.296 43.1536 251.509 43.1258 251.662 43.2157C251.815 43.3056 251.849 43.4788 251.738 43.6032L250.935 44.5007C250.869 44.5761 250.765 44.6156 250.659 44.6156ZM253.083 41.9036C253.014 41.9036 252.943 41.8864 252.882 41.8509C252.729 41.7615 252.695 41.5883 252.805 41.464L253.168 41.0572L253.532 39.4714C253.567 39.321 253.738 39.2222 253.931 39.2494C254.117 39.2771 254.239 39.422 254.206 39.5724L253.827 41.2198C253.818 41.2603 253.797 41.2986 253.768 41.3319L253.36 41.7893C253.293 41.8636 253.189 41.9036 253.083 41.9036ZM254.373 37.5965C254.353 37.5965 254.332 37.5948 254.311 37.592C254.125 37.5643 254.003 37.4194 254.036 37.269L254.541 35.0671C254.576 34.9167 254.747 34.8173 254.94 34.8451C255.126 34.8728 255.248 35.0177 255.215 35.1681L254.71 37.37C254.679 37.5038 254.536 37.5965 254.373 37.5965ZM255.382 33.1922C255.361 33.1922 255.341 33.1905 255.319 33.1877C255.133 33.16 255.011 33.0151 255.045 32.8647L255.55 30.6628C255.586 30.5124 255.764 30.4125 255.95 30.4408C256.136 30.4686 256.258 30.6134 256.224 30.7638L255.719 32.9657C255.687 33.0989 255.544 33.1922 255.382 33.1922ZM256.391 28.7884C256.371 28.7884 256.35 28.7868 256.329 28.784C256.143 28.7562 256.021 28.6114 256.054 28.461L256.559 26.2585C256.594 26.1081 256.772 26.0082 256.958 26.0365C257.144 26.0643 257.266 26.2091 257.233 26.3596L256.728 28.562C256.697 28.6952 256.554 28.7884 256.391 28.7884ZM257.401 24.3842C257.381 24.3842 257.36 24.3825 257.339 24.3797C257.152 24.352 257.031 24.2071 257.064 24.0567L257.568 21.8543C257.604 21.7038 257.781 21.6034 257.968 21.6322C258.154 21.66 258.276 21.8049 258.242 21.9553L257.738 24.1577C257.707 24.2909 257.563 24.3842 257.401 24.3842ZM258.873 19.9843C258.784 19.9843 258.701 19.956 258.638 19.9088C258.562 19.9638 258.458 19.9921 258.348 19.9749C258.161 19.9466 258.04 19.8023 258.073 19.6518L258.324 18.5612C258.354 18.4296 258.496 18.3347 258.661 18.3347C258.663 18.3347 258.664 18.3347 258.666 18.3347C258.832 18.3364 258.973 18.4352 258.999 18.5684L259.212 19.6635C259.241 19.815 259.114 19.9571 258.927 19.981C258.909 19.9838 258.89 19.9843 258.873 19.9843ZM263.983 44.9308C263.883 44.9308 263.783 44.8953 263.715 44.827L263.404 44.5118C263.367 44.474 263.342 44.4296 263.333 44.3819L263.004 42.6951C262.975 42.5436 263.102 42.402 263.289 42.3776C263.478 42.3521 263.65 42.4575 263.68 42.6085L263.994 44.2226L264.25 44.4801C264.368 44.5995 264.344 44.7737 264.196 44.8698C264.133 44.9108 264.059 44.9308 263.983 44.9308ZM262.936 40.8429C262.77 40.8429 262.625 40.7452 262.598 40.6092L262.192 38.5234C262.163 38.3719 262.29 38.2303 262.476 38.2059C262.661 38.1804 262.838 38.2858 262.867 38.4368L263.274 40.5227C263.303 40.6742 263.176 40.8157 262.989 40.8401C262.972 40.8418 262.953 40.8429 262.936 40.8429ZM262.124 36.6717C261.958 36.6717 261.813 36.5741 261.786 36.4381L261.38 34.3522C261.35 34.2007 261.478 34.0591 261.664 34.0347C261.854 34.0092 262.026 34.1147 262.055 34.2656L262.461 36.3515C262.491 36.503 262.363 36.6446 262.177 36.669C262.159 36.6706 262.14 36.6717 262.124 36.6717ZM261.31 32.5C261.145 32.5 260.999 32.4023 260.973 32.2664L260.567 30.1805C260.537 30.029 260.664 29.8874 260.851 29.863C261.036 29.838 261.212 29.9429 261.242 30.0939L261.648 32.1798C261.678 32.3313 261.55 32.4728 261.364 32.4973C261.346 32.4989 261.328 32.5 261.31 32.5ZM260.498 28.3278C260.332 28.3278 260.187 28.2301 260.16 28.0941L259.754 26.0082C259.725 25.8567 259.852 25.7152 260.038 25.6907C260.229 25.6663 260.399 25.7707 260.43 25.9216L260.836 28.0075C260.865 28.159 260.738 28.3006 260.551 28.325C260.534 28.3272 260.515 28.3278 260.498 28.3278ZM259.686 24.1566C259.52 24.1566 259.375 24.0589 259.348 23.9229L258.942 21.8371C258.912 21.6855 259.04 21.544 259.226 21.5196C259.412 21.4951 259.588 21.5995 259.617 21.7505L260.023 23.8363C260.053 23.9879 259.925 24.1294 259.739 24.1538C259.721 24.1555 259.703 24.1566 259.686 24.1566ZM266.471 47.4424C266.367 47.4424 266.269 47.4047 266.203 47.3386L265.347 46.4739C265.229 46.3545 265.253 46.1797 265.401 46.0842C265.546 45.9887 265.762 46.0065 265.881 46.1269L266.433 46.6842L266.892 46.0748C266.991 45.9427 267.204 45.9027 267.363 45.9832C267.524 46.0631 267.575 46.2335 267.477 46.3645L266.763 47.3109C266.704 47.388 266.603 47.4374 266.492 47.4424C266.485 47.4424 266.477 47.4424 266.471 47.4424ZM268.745 44.4307C268.684 44.4307 268.622 44.418 268.567 44.3902C268.406 44.3103 268.355 44.1399 268.453 44.0089L270.013 41.943C270.113 41.8115 270.324 41.7715 270.484 41.8514C270.645 41.9314 270.696 42.1018 270.598 42.2327L269.038 44.2986C268.972 44.3835 268.86 44.4307 268.745 44.4307ZM271.865 40.2984C271.803 40.2984 271.742 40.2856 271.687 40.2579C271.526 40.178 271.474 40.0076 271.572 39.8766L272.286 38.9308C272.342 38.8586 272.434 38.8103 272.538 38.8003C272.646 38.7937 272.747 38.8198 272.82 38.8797L273.788 39.664C273.922 39.7717 273.923 39.9476 273.789 40.0559C273.655 40.1641 273.439 40.1641 273.305 40.0559L272.644 39.5202L272.157 40.1663C272.092 40.2512 271.979 40.2984 271.865 40.2984ZM277.962 43.808C277.808 43.808 277.669 43.7236 277.63 43.5976L277.615 43.5476L275.55 41.8747C275.417 41.7665 275.417 41.5911 275.55 41.4829C275.683 41.3746 275.901 41.3746 276.034 41.4829L278.167 43.2107C278.211 43.2463 278.242 43.2907 278.257 43.3401L278.295 43.4649C278.34 43.6131 278.228 43.7641 278.046 43.8008C278.017 43.8052 277.989 43.808 277.962 43.808ZM279.05 47.3813C278.99 47.3813 278.929 47.3686 278.877 47.3436C278.798 47.3059 278.74 47.2431 278.718 47.1704L278.39 46.0942C278.344 45.9454 278.457 45.795 278.64 45.7584C278.827 45.7195 279.009 45.8128 279.055 45.9615L279.298 46.7614L280.277 46.5416C280.465 46.5016 280.648 46.5876 280.699 46.7347C280.749 46.8824 280.642 47.035 280.461 47.0761L279.142 47.3719C279.112 47.3786 279.08 47.3813 279.05 47.3813ZM282.589 46.5865C282.438 46.5865 282.301 46.506 282.259 46.3834C282.208 46.2357 282.315 46.0831 282.497 46.042L284.274 45.6429L284.363 45.5164C284.457 45.3832 284.668 45.3382 284.831 45.4137C284.994 45.4898 285.052 45.659 284.957 45.7923L284.798 46.0176C284.753 46.0809 284.679 46.1275 284.593 46.1469L282.681 46.576C282.65 46.5832 282.619 46.5865 282.589 46.5865ZM285.809 44.3136C285.751 44.3136 285.692 44.302 285.639 44.277C285.475 44.2004 285.418 44.0311 285.512 43.8984L286.661 42.2794C286.755 42.1467 286.965 42.1012 287.128 42.1772C287.292 42.2538 287.349 42.4231 287.255 42.5558L286.106 44.1748C286.042 44.2637 285.927 44.3136 285.809 44.3136ZM289.352 41.1243C289.222 41.1243 289.097 41.0638 289.041 40.9611L288.752 40.4444L288.403 40.9362C288.308 41.0688 288.099 41.1143 287.936 41.0383C287.772 40.9617 287.714 40.7924 287.809 40.6597L288.491 39.6984C288.556 39.6085 288.651 39.5524 288.805 39.5597C288.933 39.5646 289.047 39.6274 289.1 39.7223L289.664 40.7325C289.741 40.8723 289.665 41.0366 289.493 41.0993C289.447 41.1165 289.4 41.1243 289.352 41.1243ZM292.779 45.865C292.666 45.865 292.557 45.82 292.491 45.7384L290.648 43.4261C290.544 43.2973 290.589 43.1258 290.749 43.0426C290.907 42.961 291.12 42.9965 291.222 43.1247L293.066 45.437C293.169 45.5658 293.124 45.7373 292.964 45.8206C292.907 45.8505 292.842 45.865 292.779 45.865ZM295.366 49.1081C295.25 49.1081 295.141 49.0604 295.079 48.9815L294.336 48.0502C294.232 47.9214 294.277 47.7499 294.437 47.6666C294.595 47.585 294.808 47.6206 294.909 47.7488L295.339 48.2872L295.716 47.7227C295.807 47.5878 296.015 47.5379 296.18 47.6111C296.346 47.6838 296.408 47.852 296.319 47.9869L295.667 48.9621C295.608 49.0481 295.499 49.1031 295.379 49.107C295.375 49.1081 295.371 49.1081 295.366 49.1081ZM296.948 45.8139C296.93 45.8139 296.911 45.8128 296.892 45.81C296.706 45.7845 296.579 45.6418 296.611 45.4909L297.112 43.0525C297.144 42.901 297.32 42.7978 297.506 42.8244C297.692 42.85 297.819 42.9926 297.787 43.1436L297.286 45.5819C297.257 45.7179 297.113 45.8139 296.948 45.8139ZM297.95 40.9367C297.932 40.9367 297.913 40.9356 297.894 40.9328C297.708 40.9073 297.581 40.7647 297.613 40.6137L298.114 38.1754C298.146 38.0244 298.326 37.9217 298.508 37.9472C298.694 37.9728 298.821 38.1154 298.79 38.2664L298.288 40.7047C298.26 40.8407 298.115 40.9367 297.95 40.9367ZM298.954 36.0595C298.935 36.0595 298.916 36.0584 298.898 36.0556C298.711 36.0301 298.585 35.8875 298.616 35.7365L299.118 33.2976C299.149 33.1467 299.331 33.0456 299.512 33.0695C299.698 33.095 299.825 33.2377 299.793 33.3887L299.292 35.8275C299.263 35.9635 299.119 36.0595 298.954 36.0595ZM299.957 31.1824C299.94 31.1824 299.92 31.1812 299.901 31.1785C299.715 31.1529 299.588 31.0103 299.62 30.8593L299.844 29.7653C299.871 29.6365 300.005 29.5405 300.165 29.5339C300.33 29.525 300.47 29.6127 300.512 29.7381L300.871 30.8082C300.92 30.9559 300.812 31.108 300.629 31.1485C300.488 31.1812 300.336 31.1318 300.257 31.0375C300.199 31.1257 300.083 31.1824 299.957 31.1824ZM301.95 35.3724C301.799 35.3724 301.662 35.2914 301.619 35.1676L301.261 34.0974C301.212 33.9498 301.32 33.7977 301.503 33.7572C301.683 33.7178 301.873 33.8044 301.923 33.952L302.281 35.0222C302.33 35.1698 302.222 35.3219 302.04 35.3624C302.01 35.3696 301.98 35.3724 301.95 35.3724Z" fill="black"/>
<path d="M315.197 54.5571H248.871V55.1283H315.197V54.5571Z" fill="#3C468E"/>
<path d="M249.262 53.2249L249.81 43.0093L254.666 50.6234L259.051 53.2249L262.262 51.385H267.586L272.578 41.6767L282.034 49.6083L290.922 41.6767L294.994 47.7683L299.771 45.2301L304.626 22.6575L308.149 40.2807L313.631 47.7683V53.2249H249.262Z" fill="#F05E6B"/>
<path d="M140.346 73.4857H220.051C221.899 73.4857 223.397 72.2718 223.397 70.7743V23.2486C223.397 21.7511 221.899 20.5366 220.05 20.5366H140.346C138.498 20.5366 137 21.7505 137 23.248V70.7738C137 72.2713 138.498 73.4857 140.346 73.4857Z" fill="#F05E6B"/>
<path d="M164.8 28.0608C175.811 28.0608 184.738 35.2936 184.738 44.2165C184.738 53.1388 175.811 60.3722 164.8 60.3722C153.789 60.3722 144.862 53.1394 144.862 44.2165C144.863 35.2941 153.789 28.0608 164.8 28.0608ZM164.8 54.7446C171.976 54.7446 177.794 50.0312 177.794 44.2159C177.794 38.4013 171.976 33.6873 164.8 33.6873C157.624 33.6873 151.806 38.4018 151.806 44.2165C151.806 50.0312 157.624 54.7446 164.8 54.7446Z" fill="white"/>
<path d="M184.738 42.9316H177.862L177.739 42.8444C176.908 37.6797 171.469 33.6878 164.869 33.6878V28.0608C175.346 28.0608 183.929 34.6109 184.738 42.9316Z" fill="#3EA3B9"/>
<path d="M144.863 44.2165C144.863 35.2941 153.789 28.0608 164.801 28.0608C164.824 28.0608 164.846 28.0625 164.869 28.0625V33.6878L164.867 33.6906C164.845 33.6906 164.823 33.6878 164.801 33.6878C157.625 33.6878 151.807 38.4013 151.807 44.2165C151.807 46.4922 152.707 48.593 154.222 50.3153L154.218 50.3214L147.872 52.7492C145.966 50.2726 144.863 47.3497 144.863 44.2165Z" fill="#FEC76D"/>
<path d="M147.872 52.7493L154.222 50.3154C156.577 52.993 160.432 54.7452 164.801 54.7452C167.639 54.7452 170.257 53.9993 172.395 52.7471L172.411 52.7493L176.376 57.3662C173.112 59.2561 169.119 60.3717 164.801 60.3717C157.655 60.3717 151.392 57.3251 147.872 52.7493Z" fill="#3C468E"/>
<path d="M189.224 30.2976L216.979 30.2976V28.0613L189.224 28.0613V30.2976Z" fill="#FEC76D"/>
<path d="M189.223 34.1531H211.313V31.9168L189.223 31.9168V34.1531Z" fill="#FEC76D"/>
<path d="M189.224 38.0083H205.197V35.772H189.224V38.0083Z" fill="#FEC76D"/>
<path d="M189.224 41.8625H211.692V39.6263H189.224V41.8625Z" fill="#FEC76D"/>
<path d="M189.224 45.718H200.458V43.4817H189.224V45.718Z" fill="#FEC76D"/>
<path d="M189.224 49.5732H216.979V47.337H189.224V49.5732Z" fill="#FEC76D"/>
<path d="M189.223 53.4292H209.576V51.1929H189.223V53.4292Z" fill="#FEC76D"/>
<path d="M189.223 57.2844H207.688V55.0481H189.223V57.2844Z" fill="#FEC76D"/>
<path d="M189.224 61.1387H216.979V58.9024H189.224V61.1387Z" fill="#FEC76D"/>
<path d="M189.223 64.8416H210.105V63.7403H189.223V64.8416Z" fill="#3C468E"/>
<path d="M189.224 67.167H216.185V66.0658H189.224V67.167Z" fill="#3C468E"/>
<path d="M153.501 64.2288H174.383V63.1275H153.501V64.2288Z" fill="#3C468E"/>
<path d="M150.462 66.5549H177.423V65.4537H150.462V66.5549Z" fill="#3C468E"/>
</svg>
