<svg width="121" height="121" viewBox="0 0 121 121" fill="none" xmlns="http://www.w3.org/2000/svg">
<path d="M86.4243 7.56251C78.3414 7.80157 70.6671 11.17 65.0196 16.9575C59.3721 22.7451 56.1926 30.4995 56.1516 38.5858V44.3711C56.2594 48.8773 55.3459 53.3494 53.4796 57.4524C51.6133 61.5553 48.8425 65.1826 45.375 68.0625H85.9005C102.561 68.0625 117.079 54.5748 117.219 38.0696C117.235 34.0346 116.447 30.0369 114.901 26.3096C113.356 22.5823 111.084 19.2001 108.217 16.3603C105.35 13.5205 101.947 11.28 98.2055 9.76953C94.4639 8.25902 90.4589 7.50876 86.4243 7.56251V7.56251ZM95.1211 47.103C94.6628 47.3062 94.1425 47.3191 93.6746 47.139C93.2068 46.959 92.8294 46.6006 92.6255 46.1426L91.4439 43.4844H82.1382L80.9566 46.1426C80.753 46.6009 80.3757 46.9596 79.9077 47.1397C79.4396 47.3198 78.9192 47.3066 78.4609 47.103C78.0026 46.8995 77.644 46.5222 77.4639 46.0541C77.2837 45.5861 77.2969 45.0657 77.5005 44.6074L85.063 27.5918C85.2114 27.2574 85.4537 26.9732 85.7604 26.7738C86.0672 26.5744 86.4252 26.4682 86.791 26.4682C87.1569 26.4682 87.5149 26.5744 87.8216 26.7738C88.1284 26.9732 88.3706 27.2574 88.5191 27.5918L96.0816 44.6074C96.1824 44.8343 96.2375 45.0789 96.2438 45.3271C96.2501 45.5754 96.2075 45.8224 96.1183 46.0542C96.0291 46.2859 95.8951 46.4978 95.724 46.6778C95.5529 46.8578 95.3481 47.0023 95.1211 47.103V47.103Z" fill="#FFAF18"/>
<path d="M83.8184 39.7031H89.7644L86.7904 33.014L83.8184 39.7031Z" fill="#FFAF18"/>
<path d="M14.7847 94.3876C14.4263 94.3874 14.0754 94.2853 13.7729 94.0932C13.4703 93.9012 13.2285 93.6271 13.0758 93.303C12.923 92.9788 12.8655 92.6179 12.91 92.2623C12.9545 91.9067 13.0991 91.5711 13.327 91.2945C14.9325 89.3472 16.9471 87.7774 19.2277 86.6965C19.6812 86.4824 20.2012 86.4573 20.6733 86.6266C21.1454 86.7959 21.5309 87.1458 21.745 87.5993C21.9591 88.0528 21.9843 88.5729 21.815 89.045C21.6457 89.5171 21.2958 89.9026 20.8423 90.1167C19.0664 90.9592 17.4979 92.1824 16.248 93.6994C16.0702 93.9152 15.8467 94.0888 15.5936 94.2078C15.3406 94.3269 15.0643 94.3882 14.7847 94.3876V94.3876ZM13.7638 98.373C13.8299 98.1518 13.8999 97.9325 13.9774 97.717C14.1254 97.2511 14.0872 96.746 13.8709 96.3076C13.6545 95.8693 13.2768 95.5318 12.8169 95.366C12.3571 95.2001 11.8509 95.2188 11.4045 95.4182C10.9582 95.6175 10.6064 95.982 10.423 96.4351C10.3202 96.7216 10.2256 97.011 10.1394 97.3029C9.99758 97.7838 10.0525 98.3013 10.2922 98.7417C10.5319 99.182 10.9367 99.5091 11.4175 99.6511C11.5911 99.7029 11.7714 99.729 11.9525 99.7286C12.3609 99.729 12.7584 99.5971 13.0855 99.3528C13.4127 99.1084 13.652 98.7647 13.7675 98.373H13.7638ZM71.1348 23.0808C70.7541 23.0808 70.3823 22.9659 70.068 22.7511C69.7537 22.5364 69.5116 22.2317 69.3733 21.8771C69.235 21.5224 69.207 21.1343 69.2929 20.7635C69.3788 20.3926 69.5747 20.0564 69.8548 19.7987C74.467 15.5607 80.5067 13.2163 86.7702 13.2325L86.9858 13.2344C87.4872 13.2367 87.9672 13.438 88.3202 13.7942C88.6731 14.1503 88.8701 14.6321 88.8679 15.1335C88.8656 15.635 88.6643 16.115 88.3081 16.4679C87.952 16.8209 87.4702 17.0179 86.9688 17.0157H86.9517L86.7532 17.0138C81.4438 17.0018 76.3246 18.9897 72.4147 22.5817C72.0663 22.9036 71.6091 23.0819 71.1348 23.0808V23.0808ZM67.8526 28.6165C68.0795 28.1603 68.324 27.7128 68.5862 27.2742C68.7139 27.0613 68.7985 26.8253 68.835 26.5797C68.8716 26.3342 68.8594 26.0838 68.7992 25.8429C68.739 25.6021 68.6319 25.3754 68.4841 25.1759C68.3363 24.9764 68.1506 24.808 67.9377 24.6803C67.7248 24.5525 67.4888 24.468 67.2433 24.4314C66.9977 24.3949 66.7473 24.4071 66.5064 24.4673C66.2656 24.5275 66.0389 24.6346 65.8394 24.7824C65.6399 24.9302 65.4715 25.1158 65.3438 25.3287C65.0318 25.8524 64.7407 26.3837 64.4703 26.9244C64.2459 27.373 64.2089 27.8922 64.3674 28.3681C64.5259 28.8439 64.8669 29.2373 65.3154 29.4616C65.7639 29.686 66.2832 29.7231 66.7591 29.5646C67.2349 29.4061 67.6283 29.0651 67.8526 28.6165V28.6165ZM58.8589 115.304H58.7984C57.925 115.276 57.0572 115.229 56.195 115.162C55.6951 115.123 55.231 114.888 54.9048 114.507C54.5786 114.126 54.4171 113.631 54.4557 113.131C54.4723 112.883 54.5384 112.64 54.65 112.418C54.7616 112.195 54.9164 111.997 55.1055 111.835C55.2946 111.673 55.5141 111.55 55.7512 111.474C55.9883 111.398 56.2382 111.37 56.4862 111.392C57.2891 111.455 58.0976 111.499 58.9119 111.524C59.4133 111.532 59.8912 111.738 60.2404 112.098C60.5897 112.458 60.7817 112.942 60.7741 113.443C60.7666 113.945 60.5602 114.423 60.2003 114.772C59.8405 115.121 59.3566 115.313 58.8552 115.305L58.8589 115.304ZM66.4044 115.001C65.9211 115 65.4565 114.815 65.1059 114.482C64.7552 114.15 64.5453 113.695 64.5192 113.213C64.493 112.73 64.6527 112.256 64.9653 111.887C65.278 111.519 65.7199 111.284 66.2002 111.231C67.3913 111.099 68.6051 110.923 69.8019 110.702C70.295 110.611 70.8041 110.719 71.2172 111.004C71.6303 111.288 71.9134 111.725 72.0045 112.218C72.0955 112.711 71.9868 113.22 71.7025 113.633C71.4181 114.046 70.9813 114.33 70.4882 114.421C69.2025 114.659 67.898 114.85 66.6124 114.992C66.5433 114.998 66.4739 115.002 66.4044 115.001V115.001ZM77.457 112.555C77.0091 112.554 76.576 112.395 76.2348 112.104C75.8936 111.814 75.6664 111.413 75.5937 110.971C75.5211 110.529 75.6077 110.075 75.8382 109.691C76.0686 109.307 76.4279 109.017 76.852 108.874C78.0025 108.485 79.1388 108.055 80.2589 107.586C80.4896 107.479 80.7395 107.419 80.9937 107.411C81.2479 107.402 81.5012 107.445 81.7384 107.537C81.9756 107.629 82.1919 107.768 82.3742 107.945C82.5566 108.122 82.7013 108.335 82.7996 108.569C82.898 108.804 82.9481 109.056 82.9468 109.31C82.9455 109.564 82.8929 109.816 82.7921 110.049C82.6913 110.283 82.5445 110.494 82.3603 110.669C82.1762 110.845 81.9585 110.981 81.7204 111.07C80.5142 111.577 79.2834 112.044 78.062 112.456C77.8671 112.522 77.6627 112.555 77.457 112.555V112.555ZM87.7231 107.803C87.3098 107.803 86.908 107.668 86.5791 107.418C86.2502 107.167 86.0123 106.816 85.9018 106.418C85.7914 106.02 85.8145 105.596 85.9676 105.213C86.1206 104.829 86.3953 104.506 86.7494 104.293C87.7874 103.669 88.8159 102.999 89.8028 102.306C90.006 102.163 90.2354 102.061 90.4777 102.007C90.7201 101.953 90.9708 101.947 91.2154 101.99C91.4601 102.033 91.6939 102.123 91.9036 102.256C92.1132 102.39 92.2946 102.563 92.4374 102.766C92.5801 102.969 92.6815 103.198 92.7356 103.441C92.7897 103.683 92.7956 103.934 92.7528 104.179C92.7101 104.423 92.6196 104.657 92.4865 104.867C92.3533 105.076 92.1802 105.258 91.977 105.4C90.9083 106.15 89.8136 106.861 88.6949 107.533C88.4015 107.71 88.0656 107.803 87.7231 107.803V107.803ZM96.7471 100.975C96.368 100.975 95.9976 100.861 95.684 100.648C95.3704 100.435 95.1281 100.133 94.9884 99.7803C94.8488 99.4279 94.8184 99.0416 94.901 98.6716C94.9837 98.3017 95.1756 97.9651 95.452 97.7056C96.3368 96.8738 97.2008 96.0022 98.0176 95.1174C98.3589 94.7544 98.8298 94.5408 99.3277 94.5231C99.8257 94.5053 100.311 94.6849 100.677 95.0228C101.043 95.3607 101.261 95.8295 101.284 96.3273C101.306 96.8251 101.131 97.3116 100.797 97.6811C99.9112 98.6398 98.9917 99.5668 98.0402 100.46C97.6907 100.79 97.2278 100.974 96.7471 100.973V100.975ZM104.122 92.3892C103.778 92.3889 103.44 92.2943 103.145 92.1158C102.85 91.9373 102.61 91.6816 102.45 91.3764C102.29 91.0712 102.216 90.728 102.237 90.3841C102.258 90.0401 102.373 89.7083 102.568 89.4247C103.251 88.434 103.911 87.398 104.529 86.3487C104.784 85.9167 105.199 85.6036 105.685 85.4782C106.171 85.3529 106.686 85.4256 107.118 85.6803C107.55 85.9351 107.863 86.3509 107.988 86.8365C108.114 87.3221 108.041 87.8376 107.786 88.2695C107.124 89.3946 106.421 90.4957 105.68 91.5706C105.506 91.823 105.274 92.0293 105.002 92.1716C104.731 92.3139 104.429 92.3879 104.122 92.3873V92.3892ZM109.516 82.4275C109.206 82.4278 108.9 82.3516 108.626 82.2056C108.352 82.0596 108.118 81.8483 107.944 81.5903C107.771 81.3324 107.665 81.0358 107.633 80.7268C107.602 80.4177 107.648 80.1058 107.766 79.8184C108.225 78.6973 108.65 77.5459 109.025 76.3964C109.097 76.1541 109.216 75.9287 109.377 75.7335C109.537 75.5383 109.735 75.3773 109.959 75.2599C110.183 75.1425 110.428 75.0712 110.68 75.0502C110.932 75.0291 111.185 75.0588 111.426 75.1375C111.666 75.2161 111.888 75.3421 112.078 75.508C112.269 75.6738 112.424 75.8763 112.536 76.1033C112.647 76.3303 112.711 76.5772 112.725 76.8296C112.739 77.0819 112.702 77.3345 112.617 77.5724C112.21 78.8145 111.76 80.0417 111.265 81.2515C111.123 81.5987 110.881 81.8958 110.569 82.1051C110.258 82.3145 109.892 82.4267 109.516 82.4275V82.4275ZM112.651 71.5489C112.541 71.5492 112.432 71.5403 112.324 71.5224C111.83 71.4356 111.391 71.1563 111.102 70.7458C110.814 70.3353 110.701 69.8272 110.787 69.333C110.995 68.1476 111.161 66.9319 111.282 65.7238C111.333 65.2249 111.579 64.7665 111.968 64.4493C112.356 64.1321 112.854 63.9823 113.353 64.0327C113.852 64.0831 114.311 64.3296 114.628 64.718C114.945 65.1064 115.095 65.6049 115.045 66.1039C114.914 67.4046 114.733 68.7091 114.511 69.9834C114.435 70.4215 114.206 70.8185 113.866 71.1048C113.526 71.3911 113.096 71.5484 112.651 71.5489V71.5489ZM9.11281 75.1713C8.69058 75.171 8.28061 75.0293 7.94824 74.7689C7.61587 74.5085 7.38024 74.1443 7.27891 73.7344C6.96491 72.467 6.69627 71.1887 6.4735 69.9021C6.42312 69.6542 6.423 69.3987 6.47317 69.1507C6.52333 68.9028 6.62275 68.6674 6.76553 68.4585C6.90832 68.2497 7.09157 68.0716 7.30442 67.9349C7.51727 67.7982 7.75541 67.7055 8.00471 67.6625C8.25401 67.6195 8.50941 67.6269 8.75578 67.6844C9.00216 67.7419 9.23449 67.8482 9.43901 67.9971C9.64354 68.146 9.8161 68.3345 9.94648 68.5513C10.0769 68.7681 10.1624 69.0088 10.198 69.2593C10.406 70.4428 10.6556 71.6415 10.9486 72.825C11.0691 73.3117 10.9914 73.8262 10.7326 74.2556C10.4738 74.6849 10.055 74.9939 9.56845 75.1146C9.41935 75.1514 9.2664 75.1705 9.11281 75.1713ZM7.58141 63.9542C7.08967 63.9539 6.61738 63.7621 6.26476 63.4193C5.91214 63.0766 5.70693 62.6099 5.69267 62.1184C5.67899 61.5791 5.67206 61.0396 5.67188 60.5C5.67188 59.7306 5.687 58.9667 5.71914 58.201C5.72684 57.9509 5.78411 57.7048 5.88763 57.477C5.99116 57.2492 6.13887 57.0442 6.32222 56.8739C6.50556 56.7036 6.72089 56.5714 6.95571 56.485C7.19053 56.3985 7.44018 56.3596 7.69017 56.3703C7.94017 56.3811 8.18555 56.4414 8.41207 56.5477C8.6386 56.654 8.84177 56.8042 9.0098 56.9896C9.17783 57.175 9.30739 57.392 9.39095 57.6278C9.47452 57.8637 9.51043 58.1138 9.49661 58.3636C9.46762 59.0732 9.45312 59.7854 9.45312 60.5C9.45312 61.0055 9.46069 61.509 9.47581 62.0106C9.48904 62.5118 9.30304 62.9979 8.95858 63.3622C8.61412 63.7265 8.13928 63.9394 7.63812 63.9542H7.58141ZM8.45488 52.6672C8.33816 52.6675 8.22168 52.6568 8.107 52.635C7.61413 52.5432 7.1779 52.2594 6.89426 51.846C6.61062 51.4326 6.5028 50.9235 6.5945 50.4306C6.83083 49.1525 7.1182 47.8688 7.44528 46.6115C7.57214 46.1261 7.88662 45.711 8.31954 45.4575C8.75246 45.204 9.26835 45.1328 9.75373 45.2597C10.2391 45.3866 10.6542 45.7011 10.9077 46.134C11.1612 46.5669 11.2324 47.0828 11.1055 47.5682C10.7993 48.7385 10.5327 49.9314 10.3115 51.1225C10.2304 51.5555 10.0008 51.9465 9.66216 52.2282C9.32354 52.5098 8.89721 52.6644 8.45677 52.6653L8.45488 52.6672ZM11.7067 41.8226C11.4543 41.8224 11.2043 41.7722 10.9713 41.6751C10.5099 41.4795 10.1448 41.1091 9.95591 40.6449C9.76704 40.1807 9.76981 39.6605 9.96359 39.1984C10.4741 37.9846 11.0318 36.7897 11.6179 35.644C11.7309 35.4229 11.8863 35.2262 12.0752 35.0652C12.2642 34.9042 12.4831 34.7819 12.7193 34.7055C12.9555 34.629 13.2045 34.5998 13.452 34.6196C13.6995 34.6393 13.9406 34.7077 14.1617 34.8206C14.3828 34.9336 14.5795 35.089 14.7405 35.278C14.9016 35.467 15.0238 35.6858 15.1003 35.922C15.1767 36.1582 15.2059 36.4072 15.1861 36.6547C15.1664 36.9022 15.0981 37.1434 14.9851 37.3645C14.4406 38.427 13.9245 39.5387 13.4499 40.6674C13.3052 41.0101 13.0626 41.3024 12.7526 41.5079C12.4425 41.7134 12.0787 41.8228 11.7067 41.8226V41.8226ZM17.2009 31.9214C16.8548 31.9209 16.5155 31.8253 16.2199 31.6452C15.9243 31.4652 15.6839 31.2074 15.5247 30.9C15.3656 30.5927 15.2939 30.2475 15.3174 29.9022C15.3409 29.5569 15.4588 29.2247 15.6582 28.9417C16.4068 27.8792 17.2028 26.8299 18.0252 25.8222C18.3426 25.4338 18.8013 25.1875 19.3003 25.1373C19.7994 25.0871 20.2979 25.2373 20.6863 25.5547C21.0746 25.8721 21.321 26.3307 21.3712 26.8298C21.4213 27.3288 21.2712 27.8274 20.9538 28.2157C20.1852 29.1576 19.4499 30.1262 18.7493 31.1197C18.5749 31.3678 18.3433 31.5701 18.0741 31.7097C17.8049 31.8492 17.506 31.9218 17.2028 31.9214H17.2009ZM24.6745 23.4173C24.294 23.4169 23.9225 23.3018 23.6085 23.0869C23.2945 22.8719 23.0527 22.5673 22.9146 22.2127C22.7766 21.8582 22.7487 21.4702 22.8347 21.0995C22.9206 20.7289 23.1164 20.3928 23.3965 20.1352C24.3568 19.2515 25.3481 18.4021 26.3685 17.5885C26.7609 17.2761 27.2613 17.1324 27.7596 17.189C28.258 17.2455 28.7134 17.4977 29.0258 17.8901C29.3382 18.2824 29.4819 18.7828 29.4254 19.2812C29.3688 19.7795 29.1166 20.235 28.7243 20.5474C27.7733 21.3036 26.8431 22.1014 25.9564 22.9163C25.6087 23.2396 25.1512 23.4187 24.6764 23.4173H24.6745ZM33.776 16.6867C33.3611 16.6867 32.9577 16.5503 32.628 16.2984C32.2983 16.0465 32.0606 15.6931 31.9516 15.2928C31.8426 14.8924 31.8683 14.4674 32.0248 14.0831C32.1813 13.6988 32.4598 13.3767 32.8175 13.1664C33.9429 12.5055 35.0919 11.8856 36.2622 11.3079C36.485 11.198 36.7273 11.1331 36.9752 11.1169C37.2231 11.1006 37.4718 11.1334 37.7071 11.2133C37.9423 11.2932 38.1595 11.4186 38.3463 11.5824C38.5331 11.7463 38.6858 11.9453 38.7956 12.1681C38.9055 12.3909 38.9704 12.6332 38.9866 12.8811C39.0028 13.129 38.9701 13.3777 38.8902 13.613C38.8103 13.8482 38.6849 14.0654 38.5211 14.2522C38.3572 14.439 38.1582 14.5917 37.9354 14.7015C36.8465 15.2369 35.7776 15.8121 34.7308 16.4258C34.4415 16.5961 34.1117 16.6856 33.776 16.6848V16.6867ZM44.095 12.0433C43.6448 12.0437 43.2092 11.8833 42.8666 11.5911C42.524 11.2989 42.297 10.8941 42.2263 10.4494C42.1557 10.0047 42.246 9.54939 42.4812 9.16539C42.7163 8.7814 43.0808 8.49393 43.509 8.35471C44.7501 7.95166 46.005 7.59222 47.2713 7.27705C47.5124 7.21722 47.7629 7.20545 48.0085 7.24243C48.2541 7.27941 48.4901 7.3644 48.7029 7.49256C48.9156 7.62072 49.1011 7.78953 49.2486 7.98937C49.3962 8.1892 49.5029 8.41613 49.5627 8.65721C49.6226 8.89829 49.6343 9.1488 49.5974 9.39442C49.5604 9.64005 49.4754 9.87599 49.3472 10.0888C49.2191 10.3015 49.0503 10.487 48.8504 10.6345C48.6506 10.7821 48.4237 10.8888 48.1826 10.9486C47.0104 11.2398 45.8306 11.5763 44.6811 11.9507C44.4918 12.0119 44.294 12.0432 44.095 12.0433V12.0433ZM55.1684 9.71785C54.6867 9.71263 54.225 9.52366 53.8779 9.18954C53.5307 8.85543 53.3242 8.40138 53.3006 7.92014C53.2769 7.43891 53.4379 6.9668 53.7506 6.60026C54.0633 6.23371 54.5042 6.00039 54.9832 5.94794C56.2813 5.81968 57.5834 5.73581 58.8873 5.69649C59.3858 5.69194 59.8667 5.88023 60.2296 6.22199C60.5925 6.56375 60.8093 7.03255 60.8346 7.5304C60.8419 7.77895 60.8002 8.02651 60.7118 8.25892C60.6234 8.49134 60.49 8.70404 60.3193 8.88489C60.1487 9.06574 59.944 9.21119 59.7171 9.31291C59.4902 9.41463 59.2455 9.47065 58.997 9.47774C57.7851 9.51177 56.5599 9.59118 55.3575 9.71029C55.2947 9.71626 55.2316 9.71942 55.1684 9.71974V9.71785Z" fill="#1B1C21"/>
<path d="M35.8765 79.3949C37.0595 78.5223 38.0218 77.3849 38.6863 76.0736C39.3508 74.7624 39.699 73.3138 39.7031 71.8438V60.5C39.7001 57.9938 38.7032 55.5911 36.9311 53.8189C35.1589 52.0468 32.7562 51.0499 30.25 51.0469H22.6875C20.1813 51.0499 17.7786 52.0468 16.0064 53.8189C14.2343 55.5911 13.2374 57.9938 13.2344 60.5V71.8438C13.2385 73.3138 13.5867 74.7624 14.2512 76.0736C14.9157 77.3849 15.878 78.5223 17.061 79.3949C12.5743 81.2587 8.73958 84.4087 6.03996 88.448C3.34034 92.4874 1.89659 97.2353 1.89062 102.094V109.656C1.89213 111.16 2.49018 112.602 3.55354 113.665C4.61689 114.729 6.05869 115.327 7.5625 115.328H45.375C46.8788 115.327 48.3206 114.729 49.384 113.665C50.4473 112.602 51.0454 111.16 51.0469 109.656V102.094C51.0409 97.2353 49.5972 92.4874 46.8975 88.448C44.1979 84.4087 40.3632 81.2587 35.8765 79.3949V79.3949ZM22.6875 77.5156C21.1837 77.5141 19.7419 76.9161 18.6785 75.8527C17.6152 74.7894 17.0171 73.3476 17.0156 71.8438V60.5C17.0171 58.9962 17.6152 57.5544 18.6785 56.491C19.7419 55.4277 21.1837 54.8296 22.6875 54.8281H30.25C31.7538 54.8296 33.1956 55.4277 34.259 56.491C35.3223 57.5544 35.9204 58.9962 35.9219 60.5V71.8438C35.9204 73.3476 35.3223 74.7894 34.259 75.8527C33.1956 76.9161 31.7538 77.5141 30.25 77.5156H22.6875ZM47.2656 109.656C47.2656 110.158 47.0664 110.639 46.7119 110.993C46.3573 111.348 45.8764 111.547 45.375 111.547H7.5625C7.06108 111.547 6.58019 111.348 6.22563 110.993C5.87107 110.639 5.67188 110.158 5.67188 109.656V102.094C5.67188 96.5781 7.86297 91.2883 11.7631 87.3881C15.6633 83.488 20.9531 81.2969 26.4688 81.2969C31.9844 81.2969 37.2742 83.488 41.1744 87.3881C45.0745 91.2883 47.2656 96.5781 47.2656 102.094V109.656ZM109.715 15.1855C106.698 12.1552 103.109 9.75387 99.1565 8.12078C95.2042 6.4877 90.9672 5.65531 86.6908 5.67187L86.411 5.67376C68.9832 5.81556 54.2609 20.8895 54.2609 38.5858V44.3692C54.3623 48.595 53.508 52.7892 51.7618 56.6387C50.0156 60.4883 47.4226 63.8937 44.1763 66.6011C43.8751 66.8483 43.6576 67.1825 43.5537 67.5581C43.4497 67.9336 43.4643 68.3322 43.5955 68.6991C43.7267 69.066 43.9681 69.3834 44.2867 69.6079C44.6052 69.8324 44.9853 69.953 45.375 69.9531H85.9005C103.758 69.9531 118.962 55.3594 119.109 38.0866C119.155 33.8352 118.348 29.6178 116.734 25.6841C115.121 21.7504 112.735 18.1804 109.717 15.1855H109.715ZM85.9005 66.1719H50.0732C55.3424 60.1446 58.1827 52.3737 58.0422 44.3692V38.5858C58.0893 30.9996 61.0742 23.7268 66.3701 18.2949C71.6659 12.8629 78.8606 9.69451 86.4432 9.45501L86.6908 9.45312C90.4704 9.43801 94.2154 10.1732 97.7087 11.6161C101.202 13.059 104.374 15.1809 107.042 17.8588C109.703 20.4994 111.808 23.6472 113.232 27.1158C114.655 30.5845 115.368 34.3035 115.328 38.0526C115.2 53.2967 101.725 66.1719 85.9005 66.1719Z" fill="#1B1C21"/>
</svg>
