<svg width="45" height="45" viewBox="0 0 45 45" fill="none" xmlns="http://www.w3.org/2000/svg">
<g clip-path="url(#clip0_144_1711)">
<path d="M30.9167 35.7667L30.9172 35.7667C31.0588 35.7659 31.1981 35.7315 31.3238 35.6664C31.4495 35.6013 31.558 35.5072 31.6403 35.3921C31.7226 35.2769 31.7764 35.1438 31.7973 35.0038C31.8181 34.8638 31.8055 34.7208 31.7604 34.5866L31.7602 34.5861L21.4685 4.5028L21.4685 4.50277C21.4083 4.32691 21.2946 4.17427 21.1434 4.06619C20.9921 3.95812 20.8109 3.90001 20.625 3.9H7.95833C5.72127 3.9 3.9 5.72127 3.9 7.95833L3.9 31.7083L3.9 31.7085C3.90129 32.7844 4.32926 33.8158 5.09005 34.5766C5.85083 35.3374 6.8823 35.7654 7.95821 35.7667H7.95833L30.9167 35.7667ZM5.68333 7.95833C5.68333 6.70414 6.70415 5.68333 7.95833 5.68333H19.9883L29.6684 33.9833H7.95833C6.70415 33.9833 5.68333 32.9625 5.68333 31.7083V7.95833Z" fill="#FFAF18" stroke="#FFAF18" stroke-width="0.2"/>
<path d="M24.5401 41.5221L24.54 41.522L22.1651 35.1888L22.165 35.1887L22.2587 35.1536C22.1848 34.9571 22.192 34.7392 22.2787 34.548L24.5401 41.5221ZM24.5401 41.5221C24.6039 41.6919 24.718 41.8381 24.8671 41.9414L24.9241 41.8592M24.5401 41.5221L24.9241 41.8592M24.9241 41.8592L24.8671 41.9414C25.0162 42.0446 25.1933 42.0999 25.3747 42.0999H38.0413C40.2784 42.0999 42.0997 40.2786 42.0997 38.0416V14.2916C42.0997 12.0545 40.2784 10.2333 38.0413 10.2333H22.9997C22.7632 10.2333 22.5364 10.3272 22.3692 10.4944C22.202 10.6616 22.108 10.8884 22.108 11.1249C22.108 11.3614 22.202 11.5882 22.3692 11.7554C22.5364 11.9226 22.7632 12.0166 22.9997 12.0166H38.0413C39.2955 12.0166 40.3163 13.0374 40.3163 14.2916V38.0416C40.3163 39.2958 39.2955 40.3166 38.0413 40.3166H25.9934L24.9241 41.8592Z" fill="#FFAF18" stroke="#FFAF18" stroke-width="0.2"/>
<path d="M19.0416 26.2666H19.0416C18.8575 26.2669 18.6779 26.2101 18.5274 26.104C18.377 25.998 18.2631 25.848 18.2015 25.6746L19.0416 26.2666ZM19.0416 26.2666C19.1844 26.2663 19.3249 26.2318 19.4515 26.1659C19.5781 26.1001 19.6871 26.0048 19.7692 25.888C19.8513 25.7713 19.9043 25.6366 19.9235 25.4952C19.9427 25.3537 19.9278 25.2098 19.8798 25.0753L19.8798 25.0753M19.0416 26.2666L19.8798 25.0753M19.8798 25.0753L15.9215 13.9922L19.8798 25.0753ZM30.3211 34.3524L30.2459 34.2866L24.7043 40.6198C24.7043 40.6198 24.7042 40.6199 24.7042 40.6199C24.5911 40.7487 24.5175 40.9074 24.4922 41.077C24.467 41.2467 24.4912 41.42 24.562 41.5762C24.6328 41.7324 24.7471 41.8649 24.8913 41.9578C25.0354 42.0507 25.2033 42.1001 25.3749 42.0999C25.5021 42.0998 25.6279 42.0726 25.7438 42.02C25.8596 41.9675 25.963 41.8908 26.0469 41.7951L26.047 41.795L31.5886 35.4617C31.6658 35.3735 31.7248 35.271 31.7624 35.1601C31.7999 35.0491 31.8152 34.9318 31.8074 34.8149C31.7997 34.698 31.7689 34.5838 31.717 34.4787C31.6651 34.3737 31.593 34.2799 31.5048 34.2028C31.4166 34.1256 31.3141 34.0666 31.2032 34.029C31.0922 33.9915 30.9749 33.9762 30.858 33.9839C30.7411 33.9917 30.6268 34.0225 30.5218 34.0744C30.4168 34.1263 30.323 34.1984 30.2459 34.2866L30.3211 34.3524ZM15.0831 16.9433L18.2015 25.6744L15.8273 14.0256C15.604 13.3954 14.5622 13.3954 14.3374 14.0256L14.2432 13.992L14.2432 13.992L10.2849 25.0753L10.2848 25.0753C10.2054 25.2981 10.2177 25.5433 10.319 25.757C10.4203 25.9707 10.6024 26.1354 10.8252 26.2149C11.0479 26.2943 11.2932 26.282 11.5069 26.1807C11.7205 26.0794 11.8852 25.8973 11.9647 25.6746C11.9647 25.6746 11.9647 25.6745 11.9647 25.6745L15.0831 16.9433Z" fill="#FFAF18" stroke="#FFAF18" stroke-width="0.2"/>
<path d="M13.4997 21.5166H16.6663C16.9028 21.5166 17.1296 21.4226 17.2968 21.2554C17.4641 21.0882 17.558 20.8614 17.558 20.6249C17.558 20.3884 17.4641 20.1616 17.2968 19.9944C17.1296 19.8272 16.9028 19.7333 16.6663 19.7333H13.4997C13.2632 19.7333 13.0364 19.8272 12.8692 19.9944C12.702 20.1616 12.608 20.3884 12.608 20.6249C12.608 20.8614 12.702 21.0882 12.8692 21.2554C13.0364 21.4226 13.2632 21.5166 13.4997 21.5166ZM26.958 21.5166H38.0413C38.2778 21.5166 38.5046 21.4226 38.6718 21.2554C38.8391 21.0882 38.933 20.8614 38.933 20.6249C38.933 20.3884 38.8391 20.1616 38.6718 19.9944C38.5046 19.8272 38.2778 19.7333 38.0413 19.7333H26.958C26.7215 19.7333 26.4947 19.8272 26.3275 19.9944C26.1603 20.1616 26.0663 20.3884 26.0663 20.6249C26.0663 20.8614 26.1603 21.0882 26.3275 21.2554C26.4947 21.4226 26.7215 21.5166 26.958 21.5166Z" fill="#FFAF18" stroke="#FFAF18" stroke-width="0.2"/>
<path d="M29.3336 31.0167C29.5181 31.0166 29.698 30.9601 29.8494 30.8546L29.8502 30.8541C31.672 29.5589 33.3468 27.5324 34.5656 25.5713C35.1754 24.59 35.6725 23.6228 36.0176 22.7684C36.3615 21.9166 36.5581 21.1678 36.5581 20.6266C36.5581 20.3901 36.4641 20.1633 36.2969 19.9961C36.1297 19.8289 35.9029 19.7349 35.6664 19.7349C35.4299 19.7349 35.2031 19.8289 35.0359 19.9961C34.8687 20.1633 34.7747 20.3901 34.7747 20.6266C34.7747 20.9476 34.6235 21.5023 34.3321 22.2032C34.0426 22.8996 33.6199 23.7281 33.0888 24.5915C32.0259 26.3195 30.5343 28.1783 28.8164 29.3988C28.6604 29.5072 28.5433 29.6628 28.4823 29.8427C28.4212 30.0228 28.4195 30.2177 28.4774 30.3988C28.5353 30.5799 28.6498 30.7377 28.804 30.8489C28.9581 30.96 29.1437 31.0188 29.3336 31.0167ZM29.3336 31.0167C29.3334 31.0167 29.3332 31.0167 29.333 31.0167L29.3331 30.9167L29.3342 31.0167C29.334 31.0167 29.3338 31.0167 29.3336 31.0167ZM31.0775 21.2555C31.2448 21.4227 31.4716 21.5167 31.7081 21.5167C31.9445 21.5167 32.1713 21.4227 32.3386 21.2555C32.5058 21.0883 32.5997 20.8615 32.5997 20.625V19.0417C32.5997 18.8052 32.5058 18.5784 32.3386 18.4112C32.1713 18.2439 31.9445 18.15 31.7081 18.15C31.4716 18.15 31.2448 18.2439 31.0775 18.4112C30.9103 18.5784 30.8164 18.8052 30.8164 19.0417V20.625C30.8164 20.8615 30.9103 21.0883 31.0775 21.2555Z" fill="#FFAF18" stroke="#FFAF18" stroke-width="0.2"/>
<path d="M35.6667 32.5999C35.8465 32.6001 36.0221 32.5459 36.1706 32.4445C36.3191 32.343 36.4334 32.1991 36.4986 32.0314C36.5638 31.8638 36.5768 31.6804 36.5359 31.5053C36.495 31.3302 36.4021 31.1716 36.2694 31.0502C35.5274 30.3706 34.1572 29.0613 32.8921 27.7233C32.2595 27.0543 31.6542 26.3791 31.1672 25.7726C30.6781 25.1636 30.315 24.6318 30.1591 24.2479L30.1591 24.2479L30.1577 24.2448C30.0635 24.0336 29.891 23.8673 29.6764 23.7809C29.4619 23.6946 29.2222 23.6949 29.008 23.7819C28.7937 23.8689 28.6216 24.0358 28.528 24.2472C28.4345 24.4587 28.4267 24.6983 28.5064 24.9153L28.5063 24.9154L35.1331 32.2925L35.0653 32.3659C35.0653 32.366 35.0654 32.3661 35.0655 32.3662C35.2292 32.5172 35.444 32.6007 35.6667 32.5999ZM35.6667 32.5999C35.6667 32.5999 35.6666 32.5999 35.6665 32.5999L35.6667 32.4999L35.6671 32.5999C35.667 32.5999 35.6668 32.5999 35.6667 32.5999Z" fill="#FFAF18" stroke="#FFAF18" stroke-width="0.2"/>
</g>
<defs>
<clipPath id="clip0_144_1711">
<rect width="38" height="38" fill="white" transform="translate(4 4)"/>
</clipPath>
</defs>
</svg>
