<svg width="38" height="42" viewBox="0 0 38 42" fill="none" xmlns="http://www.w3.org/2000/svg">
<path d="M13.9164 42.0001H16.7497V39.1667H13.9164V42.0001ZM20.9997 26.4167C23.3514 26.4167 25.2355 24.5184 25.2355 22.1667L25.2497 13.6667C25.2497 11.3151 23.3514 9.41675 20.9997 9.41675C18.648 9.41675 16.7497 11.3151 16.7497 13.6667V22.1667C16.7497 24.5184 18.648 26.4167 20.9997 26.4167ZM19.583 42.0001H22.4164V39.1667H19.583V42.0001ZM25.2497 42.0001H28.083V39.1667H25.2497V42.0001ZM29.613 22.1667C29.018 22.1667 28.5222 22.5917 28.4372 23.1726C27.913 26.8701 24.5839 29.3917 20.9997 29.3917C17.4155 29.3917 14.0864 26.8842 13.5622 23.1726C13.4772 22.5917 12.9672 22.1667 12.3864 22.1667C11.6497 22.1667 11.083 22.8184 11.1822 23.5409C11.8339 27.7342 15.3755 31.0492 19.583 31.6867V34.9167C19.583 35.6959 20.2205 36.3334 20.9997 36.3334C21.7789 36.3334 22.4164 35.6959 22.4164 34.9167V31.6867C26.6097 31.0634 30.1655 27.7342 30.8172 23.5409C30.9164 22.8184 30.3497 22.1667 29.613 22.1667Z" fill="#FFAF18"/>
</svg>
