<svg width="38" height="38" viewBox="0 0 38 38" fill="none" xmlns="http://www.w3.org/2000/svg">
<path d="M26.5207 17.4167C26.5207 18.0726 25.989 18.6042 25.3332 18.6042H12.6665C12.0107 18.6042 11.479 18.0726 11.479 17.4167C11.479 16.7609 12.0107 16.2292 12.6665 16.2292H25.3332C25.989 16.2292 26.5207 16.7609 26.5207 17.4167Z" fill="#485FE5"/>
<path fill-rule="evenodd" clip-rule="evenodd" d="M6.94375 12.899L8.82591 7.75698C9.30025 6.46111 10.4507 5.53254 11.8175 5.34233C16.5828 4.67918 21.417 4.67918 26.1826 5.34233C27.5493 5.53254 28.6997 6.46113 29.1741 7.75701L31.0564 12.8995C31.4083 13.4487 31.6508 14.0766 31.7526 14.7534L31.9141 15.8267C32.5471 20.0362 32.4879 24.3209 31.7388 28.5112C31.4068 30.3689 29.8811 31.7801 28.0031 31.9665L26.0549 32.1598C21.363 32.6254 16.6366 32.6254 11.9449 32.1598L9.99661 31.9665C8.11867 31.7801 6.59303 30.3689 6.26096 28.5112C5.51193 24.3209 5.45275 20.0362 6.08576 15.8267L6.24715 14.7534C6.34896 14.0764 6.59156 13.4483 6.94375 12.899ZM12.1447 7.69466C16.6929 7.06174 21.3069 7.06174 25.855 7.69466C26.3524 7.76388 26.771 8.10178 26.9437 8.57335L27.7452 10.7631C27.6733 10.7526 27.601 10.7438 27.5283 10.7365L25.9795 10.5828C21.3378 10.1221 16.6619 10.1221 12.0202 10.5828L10.4714 10.7365C10.3986 10.7437 10.3264 10.7526 10.2546 10.763L11.0561 8.57335C11.2287 8.10178 11.6474 7.76388 12.1447 7.69466ZM9.00221 14.0934L9.03176 14.1042L9.06841 14.004C9.4575 13.5039 10.0419 13.1659 10.706 13.1L12.2548 12.9463C16.7405 12.501 21.2592 12.501 25.7449 12.9463L27.2937 13.1C27.9579 13.1659 28.5425 13.5041 28.9315 14.0043L28.9681 14.1042L28.9976 14.0934C29.2051 14.3877 29.3476 14.7322 29.404 15.1066L29.5653 16.1799C30.1599 20.1335 30.1043 24.1577 29.4008 28.0934C29.2558 28.9052 28.5891 29.5217 27.7686 29.6031L25.8203 29.7966C21.2845 30.2467 16.7153 30.2467 12.1794 29.7966L10.2312 29.6031C9.41062 29.5217 8.744 28.9052 8.59891 28.0934C7.8954 24.1577 7.83983 20.1335 8.43435 16.1799L8.59574 15.1066C8.65206 14.7321 8.79459 14.3877 9.00221 14.0934Z" fill="#485FE5"/>
</svg>
