<svg width="38" height="42" viewBox="0 0 38 42" fill="none" xmlns="http://www.w3.org/2000/svg">
<path d="M13.9168 42.0001H16.7502V39.1667H13.9168V42.0001ZM21.0002 26.4167C23.3518 26.4167 25.236 24.5184 25.236 22.1667L25.2502 13.6667C25.2502 11.3151 23.3518 9.41675 21.0002 9.41675C18.6485 9.41675 16.7502 11.3151 16.7502 13.6667V22.1667C16.7502 24.5184 18.6485 26.4167 21.0002 26.4167ZM19.5835 42.0001H22.4168V39.1667H19.5835V42.0001ZM25.2502 42.0001H28.0835V39.1667H25.2502V42.0001ZM29.6135 22.1667C29.0185 22.1667 28.5227 22.5917 28.4377 23.1726C27.9135 26.8701 24.5843 29.3917 21.0002 29.3917C17.416 29.3917 14.0868 26.8842 13.5627 23.1726C13.4777 22.5917 12.9677 22.1667 12.3868 22.1667C11.6502 22.1667 11.0835 22.8184 11.1827 23.5409C11.8343 27.7342 15.376 31.0492 19.5835 31.6867V34.9167C19.5835 35.6959 20.221 36.3334 21.0002 36.3334C21.7793 36.3334 22.4168 35.6959 22.4168 34.9167V31.6867C26.6102 31.0634 30.166 27.7342 30.8177 23.5409C30.9168 22.8184 30.3502 22.1667 29.6135 22.1667Z" fill="#FFAF18"/>
</svg>
