<svg width="38" height="42" viewBox="0 0 38 42" fill="none" xmlns="http://www.w3.org/2000/svg">
<g clip-path="url(#clip0_144_1752)">
<path fill-rule="evenodd" clip-rule="evenodd" d="M34.1663 21.4333C34.1663 21.4333 25.8247 12.3333 19.0395 12.3333C12.2545 12.3333 3.83301 21.4333 3.83301 21.4333C3.83301 21.4333 12.2545 30.5333 19.0395 30.5333C25.8247 30.5333 34.1663 21.4333 34.1663 21.4333ZM10.2141 18.5998C8.89542 19.6154 7.74926 20.6359 6.90426 21.4333C7.74926 22.2306 8.89542 23.2511 10.2141 24.2667C11.6212 25.3507 13.1836 26.3972 14.7533 27.1652C16.342 27.9425 17.8013 28.3666 19.0395 28.3666C20.277 28.3666 21.7304 27.943 23.31 27.1668C24.8711 26.3997 26.4229 25.3543 27.8196 24.2712C29.1318 23.2535 30.2708 22.231 31.1089 21.4333C30.2708 20.6355 29.1318 19.613 27.8196 18.5954C26.4229 17.5122 24.8711 16.4668 23.31 15.6997C21.7304 14.9235 20.277 14.4999 19.0395 14.4999C17.8013 14.4999 16.342 14.924 14.7533 15.7013C13.1836 16.4693 11.6212 17.5158 10.2141 18.5998Z" fill="#FFAF18"/>
<path fill-rule="evenodd" clip-rule="evenodd" d="M18.9999 27.6082C22.4102 27.6082 25.1749 24.8436 25.1749 21.4332C25.1749 18.0229 22.4102 15.2582 18.9999 15.2582C15.5895 15.2582 12.8249 18.0229 12.8249 21.4332C12.8249 24.8436 15.5895 27.6082 18.9999 27.6082ZM18.9999 29.7749C23.6069 29.7749 27.3415 26.0402 27.3415 21.4332C27.3415 16.8262 23.6069 13.0916 18.9999 13.0916C14.3929 13.0916 10.6582 16.8262 10.6582 21.4332C10.6582 26.0402 14.3929 29.7749 18.9999 29.7749Z" fill="#FFAF18"/>
<path fill-rule="evenodd" clip-rule="evenodd" d="M18.9997 25.2249C21.0938 25.2249 22.7913 23.5274 22.7913 21.4333C22.7913 20.4916 22.4481 19.6302 21.8799 18.9672C21.9772 19.1349 22.033 19.3297 22.033 19.5375C22.033 20.1658 21.5237 20.675 20.8955 20.675C20.2673 20.675 19.758 20.1658 19.758 19.5375C19.758 18.9093 20.2673 18.4 20.8955 18.4C21.1034 18.4 21.2982 18.4558 21.4659 18.5532C20.8029 17.9849 19.9414 17.6416 18.9997 17.6416C16.9056 17.6416 15.208 19.3392 15.208 21.4333C15.208 23.5274 16.9056 25.2249 18.9997 25.2249Z" fill="#FFAF18"/>
</g>
<defs>
<clipPath id="clip0_144_1752">
<rect width="34" height="34" fill="white" transform="translate(4 8)"/>
</clipPath>
</defs>
</svg>
