<svg width="45" height="45" viewBox="0 0 45 45" fill="none" xmlns="http://www.w3.org/2000/svg">
<g clip-path="url(#clip0_138_1107)">
<path d="M24.9584 26.6633C29.1584 26.6633 32.5268 23.2534 32.5268 19.095C32.5268 14.9366 29.1584 11.4851 24.9584 11.4851C20.7584 11.4851 17.3901 14.895 17.3901 19.0534C17.3901 23.2118 20.7584 26.6633 24.9584 26.6633ZM24.9584 13.4811C28.0357 13.4811 30.5307 15.9762 30.5307 19.0534C30.5307 22.1307 28.0357 24.6257 24.9584 24.6257C21.8812 24.6257 19.3862 22.1722 19.3862 19.095C19.3862 16.0178 21.8812 13.4811 24.9584 13.4811ZM11.8178 38.5148H38.1822C38.7228 38.5148 39.1802 38.0574 39.1802 37.5168C39.1802 32.2772 34.8971 27.994 29.6574 27.994H20.3426C15.103 27.994 10.8198 32.2772 10.8198 37.5168C10.8198 38.0574 11.2772 38.5148 11.8178 38.5148ZM20.3426 29.9901H29.6574C33.4832 29.9901 36.602 32.8178 37.101 36.5188H12.899C13.398 32.8178 16.5169 29.9901 20.3426 29.9901Z" fill="#FFAF18"/>
</g>
<defs>
<clipPath id="clip0_138_1107">
<rect width="38" height="38" fill="white" transform="translate(4 4)"/>
</clipPath>
</defs>
</svg>
