<svg width="53" height="53" viewBox="0 0 53 53" fill="none" xmlns="http://www.w3.org/2000/svg">
<g clip-path="url(#clip0_144_1777)">
<path d="M10.75 27.5C10.75 35.0821 16.9179 41.25 24.5 41.25C32.0821 41.25 38.25 35.0821 38.25 27.5C38.25 24.0615 36.981 20.9138 34.8878 18.5004C34.8648 18.4689 34.8386 18.4381 34.8077 18.409C32.2871 15.554 28.6005 13.75 24.5 13.75C20.4017 13.75 16.7164 15.5523 14.1958 18.405C14.1647 18.4342 14.1341 18.4681 14.1065 18.5072C12.0164 20.9196 10.75 24.0647 10.75 27.5ZM23.8281 34.0824V39.8018C23.1399 39.5867 22.4653 39.0426 21.8449 38.2019C21.177 37.2967 20.5896 36.0703 20.132 34.6149C21.4271 34.2969 22.6643 34.1332 23.8281 34.0824ZM25.1719 34.0728C26.5396 34.1125 27.7872 34.3004 28.8858 34.5575C28.4286 36.0281 27.8394 37.2681 27.1682 38.1834C26.5444 39.0342 25.865 39.5846 25.1719 39.8013V34.0728ZM33.3148 36.222C31.838 37.7141 29.9864 38.8343 27.9151 39.4283C28.8578 38.3235 29.6401 36.7705 30.2068 34.9182C31.6191 35.3597 32.6852 35.8769 33.3148 36.222ZM21.085 39.4284C19.0296 38.839 17.1902 37.731 15.7191 36.2556C16.777 35.7254 17.8111 35.3087 18.8142 34.9876C19.3795 36.8089 20.154 38.3371 21.085 39.4284ZM18.4595 33.69C17.2723 34.0663 16.048 34.5675 14.7946 35.2192C13.2351 33.2626 12.2543 30.827 12.112 28.1719H17.7766C17.821 30.159 18.0609 32.0254 18.4595 33.69ZM36.8881 28.1719C36.7469 30.8158 35.7735 33.242 34.2254 35.1942C33.5712 34.8173 32.3016 34.1638 30.5563 33.6232C30.9454 31.9755 31.1793 30.1325 31.223 28.1719H36.8881ZM19.7743 33.3188C19.3992 31.7599 19.1671 30.0118 19.1214 28.1719H23.8285V32.7381C22.5521 32.7891 21.1948 32.9669 19.7743 33.3188ZM29.8786 28.1723C29.8331 29.9906 29.606 31.7187 29.2388 33.2636C28.0382 32.979 26.6714 32.7712 25.1719 32.7296V28.1723H29.8786ZM34.1777 19.7464C35.7535 21.7084 36.745 24.1574 36.8881 26.8281H31.223C31.1784 24.8232 30.9342 22.9408 30.5292 21.2652C31.7106 20.891 32.9304 20.3928 34.1777 19.7464ZM29.2148 21.6354C29.5963 23.2058 29.8327 24.9699 29.8787 26.8281H25.1719V22.2138C26.4447 22.1625 27.7986 21.9855 29.2148 21.6354ZM23.8281 26.8281H19.1213C19.1667 24.9919 19.3981 23.2474 19.7717 21.6909C20.9696 21.9741 22.3328 22.1812 23.8281 22.2224V26.8281ZM17.7766 26.8281H12.1119C12.2542 24.1696 13.2376 21.7307 14.8009 19.7729C15.4641 20.1527 16.7271 20.7979 18.4542 21.332C18.0587 22.9912 17.8209 24.8497 17.7766 26.8281ZM23.8281 15.1982V20.8787C22.466 20.8391 21.2232 20.6527 20.128 20.3974C20.5852 18.9391 21.1729 17.71 21.8414 16.8027C22.4628 15.9594 23.1387 15.4137 23.8281 15.1982ZM25.1719 15.1983C25.8563 15.4123 26.5273 15.9516 27.1448 16.7846C27.8099 17.6816 28.3955 18.8968 28.8534 20.3396C27.5632 20.6556 26.3315 20.8183 25.1719 20.8687V15.1983ZM21.0848 15.5718C20.1495 16.668 19.3721 18.2052 18.8064 20.0379C17.4106 19.6027 16.3517 19.0933 15.7164 18.7471C17.1878 17.2705 19.0282 16.1617 21.0848 15.5718ZM27.9147 15.5716C29.955 16.1566 31.7825 17.2524 33.2481 18.7117C32.1959 19.237 31.1688 19.65 30.1711 19.9682C29.6074 18.1661 28.8383 16.6539 27.9147 15.5716Z" fill="#FFAF18" stroke="#FFAF18" stroke-width="0.5"/>
</g>
<defs>
<clipPath id="clip0_144_1777">
<rect width="29" height="29" fill="white" transform="translate(9 12)"/>
</clipPath>
</defs>
</svg>
