<svg width="53" height="53" viewBox="0 0 53 53" fill="none" xmlns="http://www.w3.org/2000/svg">
<path d="M15.4626 29.9914C15.3627 29.9919 15.2636 29.9726 15.1712 29.9347C15.0787 29.8968 14.9946 29.841 14.9238 29.7706C13.3823 28.2645 12.5321 26.2505 12.5321 24.0974C12.5321 21.9443 13.3823 19.9281 14.9238 18.422C15.6603 17.667 16.541 17.0678 17.5137 16.6599C18.4864 16.2521 19.5312 16.044 20.5859 16.048H20.5881C22.7457 16.048 24.7619 16.896 26.2702 18.4352C26.4137 18.5816 26.4931 18.7791 26.491 18.9841C26.489 19.1891 26.4056 19.3849 26.2591 19.5284C26.1127 19.6718 25.9153 19.7513 25.7103 19.7492C25.5053 19.7472 25.3095 19.6637 25.166 19.5173C24.5709 18.9061 23.859 18.4208 23.0725 18.0904C22.2861 17.7599 21.4412 17.5911 20.5881 17.5939H20.5859C18.8502 17.5939 17.227 18.2762 16.0147 19.5151C14.7625 20.7407 14.078 22.3639 14.078 24.0952C14.078 25.8265 14.7625 27.4519 16.0014 28.662C16.0743 28.7328 16.1326 28.8172 16.1727 28.9106C16.2129 29.0039 16.2342 29.1042 16.2354 29.2058C16.2366 29.3074 16.2178 29.4083 16.1799 29.5025C16.142 29.5968 16.0859 29.6827 16.0147 29.7551C15.9435 29.8299 15.8578 29.8894 15.7629 29.93C15.668 29.9706 15.5658 29.9915 15.4626 29.9914ZM16.3371 14.6303C16.182 14.6305 16.0304 14.5839 15.9023 14.4964C15.7742 14.4089 15.6756 14.2846 15.6194 14.14L14.5594 11.4547C14.5155 11.3592 14.4915 11.2559 14.4889 11.1509C14.4864 11.0458 14.5052 10.9414 14.5443 10.8439C14.5834 10.7464 14.642 10.658 14.7165 10.5839C14.791 10.5098 14.8798 10.4517 14.9774 10.413C15.0751 10.3744 15.1797 10.3561 15.2846 10.3592C15.3896 10.3624 15.4929 10.3869 15.5881 10.4312C15.6833 10.4756 15.7685 10.5389 15.8384 10.6173C15.9083 10.6957 15.9615 10.7875 15.9948 10.8871L17.0548 13.5725C17.1024 13.6896 17.1204 13.8167 17.1071 13.9424C17.0938 14.0681 17.0498 14.1887 16.9788 14.2933C16.9078 14.3979 16.8121 14.4834 16.7002 14.5422C16.5882 14.601 16.4635 14.6312 16.3371 14.6303ZM7.39776 30.4883C7.21932 30.4863 7.04703 30.4228 6.90999 30.3085C6.77295 30.1942 6.67955 30.0361 6.64555 29.8609C6.61155 29.6857 6.63904 29.5042 6.72337 29.3469C6.80771 29.1896 6.94373 29.0663 7.10847 28.9977L9.73418 27.9377C9.92424 27.8614 10.1368 27.8637 10.3252 27.944C10.5136 28.0243 10.6624 28.1761 10.739 28.3661C10.7774 28.46 10.7969 28.5606 10.7962 28.6621C10.7956 28.7635 10.7748 28.8639 10.7352 28.9573C10.6956 29.0507 10.6379 29.1354 10.5654 29.2064C10.4928 29.2773 10.407 29.3333 10.3128 29.3709L7.68705 30.4309C7.59543 30.4692 7.49706 30.4887 7.39776 30.4883ZM10.0831 20.6855C9.98403 20.6856 9.88586 20.6669 9.7938 20.6303L7.16809 19.5703C6.97745 19.4936 6.8251 19.3443 6.74455 19.1552C6.66399 18.9662 6.66185 18.7529 6.73857 18.5622C6.8153 18.3716 6.96461 18.2192 7.15367 18.1387C7.34272 18.0581 7.55603 18.056 7.74667 18.1327L10.3724 19.1927C10.7699 19.3539 10.9598 19.8022 10.7986 20.1997C10.7419 20.3431 10.6433 20.4662 10.5157 20.5528C10.3881 20.6395 10.2373 20.6857 10.0831 20.6855ZM25.0291 14.6921C24.9011 14.6922 24.7751 14.6606 24.6623 14.6C24.5496 14.5394 24.4537 14.4517 24.3832 14.3449C24.3127 14.238 24.2698 14.1154 24.2585 13.9879C24.2471 13.8604 24.2675 13.7321 24.318 13.6144L25.4443 10.9909C25.5287 10.8082 25.6812 10.6657 25.8691 10.5936C26.0571 10.5216 26.2657 10.5257 26.4507 10.6051C26.6356 10.6845 26.7823 10.8329 26.8596 11.0188C26.9368 11.2047 26.9385 11.4133 26.8642 11.6004L25.738 14.2239C25.6787 14.3628 25.5799 14.4813 25.4539 14.5645C25.3278 14.6477 25.1801 14.6921 25.0291 14.6921Z" fill="#FFAF18" stroke="#FFAF18"/>
<path d="M39.664 42.6033H18.0245C17.8973 42.6026 17.7722 42.5708 17.6601 42.5105C13.9545 42.0512 11.1875 38.9772 11.1875 35.2738C11.1875 31.2679 14.4779 28.0062 18.5236 28.0062C18.6848 28.0062 18.846 28.0128 19.005 28.026C19.1397 22.5869 23.5851 18.2012 29.0308 18.2012C34.5605 18.2012 39.0589 22.7216 39.0589 28.2778C39.0589 28.3772 39.0567 28.4765 39.05 28.5759C39.9959 28.5358 40.9402 28.6871 41.8261 29.021C42.7121 29.3549 43.5214 29.8643 44.2055 30.5187C44.8897 31.1732 45.4345 31.9591 45.8073 32.8294C46.1801 33.6996 46.3733 34.6362 46.3751 35.583C46.3703 37.3831 45.6766 39.1131 44.4364 40.4178C43.1961 41.7225 41.5035 42.5029 39.7059 42.5988L39.664 42.6033ZM18.2674 41.0552H39.6419C41.0407 40.9754 42.3564 40.365 43.3207 39.3486C44.285 38.3322 44.8253 36.9862 44.8315 35.5852C44.8285 34.1342 44.2504 32.7435 43.2237 31.7182C42.1971 30.6928 40.8058 30.1163 39.3548 30.1151C38.9617 30.1151 38.626 30.1703 38.2926 30.2278C38.1724 30.2464 38.0496 30.2367 37.9338 30.1995C37.8181 30.1623 37.7126 30.0986 37.6257 30.0135C37.5389 29.9284 37.4731 29.8242 37.4336 29.7092C37.3941 29.5942 37.382 29.4716 37.3982 29.351C37.4667 28.9005 37.5175 28.5892 37.5175 28.2778C37.5175 23.574 33.7103 19.747 29.033 19.747C24.3558 19.747 20.5486 23.574 20.5486 28.2778C20.5486 28.375 20.5486 28.5803 20.5729 28.651C20.6133 28.7766 20.6216 28.9104 20.5969 29.04C20.5722 29.1697 20.5154 29.291 20.4316 29.393C20.3475 29.4929 20.2399 29.5704 20.1185 29.6186C19.9971 29.6667 19.8657 29.6841 19.736 29.669C19.3208 29.6094 18.9277 29.552 18.528 29.552C15.3348 29.552 12.7355 32.1181 12.7355 35.2716C12.7355 38.202 15.0675 40.7173 18.0378 40.9956C18.1168 41.0042 18.1942 41.0243 18.2674 41.0552Z" fill="#FFAF18" stroke="#FFAF18"/>
</svg>
