<svg width="45" height="45" viewBox="0 0 45 45" fill="none" xmlns="http://www.w3.org/2000/svg">
<g clip-path="url(#clip0_144_1795)">
<path d="M24.9579 26.6633C29.1579 26.6633 32.5263 23.2534 32.5263 19.095C32.5263 14.9366 29.1579 11.4851 24.9579 11.4851C20.7579 11.4851 17.3896 14.895 17.3896 19.0534C17.3896 23.2118 20.7579 26.6633 24.9579 26.6633ZM24.9579 13.4811C28.0352 13.4811 30.5302 15.9762 30.5302 19.0534C30.5302 22.1307 28.0352 24.6257 24.9579 24.6257C21.8807 24.6257 19.3857 22.1722 19.3857 19.095C19.3857 16.0178 21.8807 13.4811 24.9579 13.4811ZM11.8174 38.5148H38.1817C38.7223 38.5148 39.1797 38.0574 39.1797 37.5168C39.1797 32.2772 34.8966 27.994 29.657 27.994H20.3421C15.1025 27.994 10.8193 32.2772 10.8193 37.5168C10.8193 38.0574 11.2768 38.5148 11.8174 38.5148ZM20.3421 29.9901H29.657C33.4827 29.9901 36.6015 32.8178 37.1005 36.5188H12.8985C13.3976 32.8178 16.5164 29.9901 20.3421 29.9901Z" fill="#FFAF18"/>
</g>
<defs>
<clipPath id="clip0_144_1795">
<rect width="38" height="38" fill="white" transform="translate(4 4)"/>
</clipPath>
</defs>
</svg>
