<svg width="38" height="42" viewBox="0 0 38 42" fill="none" xmlns="http://www.w3.org/2000/svg">
<path d="M13.9168 42H16.7502V39.1666H13.9168V42ZM21.0002 26.4166C23.3518 26.4166 25.236 24.5183 25.236 22.1666L25.2502 13.6666C25.2502 11.315 23.3518 9.41663 21.0002 9.41663C18.6485 9.41663 16.7502 11.315 16.7502 13.6666V22.1666C16.7502 24.5183 18.6485 26.4166 21.0002 26.4166ZM19.5835 42H22.4168V39.1666H19.5835V42ZM25.2502 42H28.0835V39.1666H25.2502V42ZM29.6135 22.1666C29.0185 22.1666 28.5227 22.5916 28.4377 23.1725C27.9135 26.87 24.5843 29.3916 21.0002 29.3916C17.416 29.3916 14.0868 26.8841 13.5627 23.1725C13.4777 22.5916 12.9677 22.1666 12.3868 22.1666C11.6502 22.1666 11.0835 22.8183 11.1827 23.5408C11.8343 27.7341 15.376 31.0491 19.5835 31.6866V34.9166C19.5835 35.6958 20.221 36.3333 21.0002 36.3333C21.7793 36.3333 22.4168 35.6958 22.4168 34.9166V31.6866C26.6102 31.0633 30.166 27.7341 30.8177 23.5408C30.9168 22.8183 30.3502 22.1666 29.6135 22.1666Z" fill="#FFAF18"/>
</svg>
