<svg width="38" height="42" viewBox="0 0 38 42" fill="none" xmlns="http://www.w3.org/2000/svg">
<g clip-path="url(#clip0_144_1005)">
<path fill-rule="evenodd" clip-rule="evenodd" d="M34.1663 21.4334C34.1663 21.4334 25.8247 12.3334 19.0395 12.3334C12.2545 12.3334 3.83301 21.4334 3.83301 21.4334C3.83301 21.4334 12.2545 30.5334 19.0395 30.5334C25.8247 30.5334 34.1663 21.4334 34.1663 21.4334ZM10.2141 18.5999C8.89542 19.6155 7.74926 20.636 6.90426 21.4334C7.74926 22.2307 8.89542 23.2512 10.2141 24.2668C11.6212 25.3508 13.1836 26.3973 14.7533 27.1653C16.342 27.9426 17.8013 28.3667 19.0395 28.3667C20.277 28.3667 21.7304 27.9431 23.31 27.1669C24.8711 26.3998 26.4229 25.3544 27.8196 24.2713C29.1318 23.2536 30.2708 22.2311 31.1089 21.4334C30.2708 20.6356 29.1318 19.6132 27.8196 18.5955C26.4229 17.5124 24.8711 16.4669 23.31 15.6998C21.7304 14.9236 20.277 14.5 19.0395 14.5C17.8013 14.5 16.342 14.9242 14.7533 15.7015C13.1836 16.4694 11.6212 17.5159 10.2141 18.5999Z" fill="#FFAF18"/>
<path fill-rule="evenodd" clip-rule="evenodd" d="M18.9999 27.6083C22.4102 27.6083 25.1749 24.8437 25.1749 21.4333C25.1749 18.023 22.4102 15.2583 18.9999 15.2583C15.5895 15.2583 12.8249 18.023 12.8249 21.4333C12.8249 24.8437 15.5895 27.6083 18.9999 27.6083ZM18.9999 29.775C23.6069 29.775 27.3415 26.0403 27.3415 21.4333C27.3415 16.8264 23.6069 13.0917 18.9999 13.0917C14.3929 13.0917 10.6582 16.8264 10.6582 21.4333C10.6582 26.0403 14.3929 29.775 18.9999 29.775Z" fill="#FFAF18"/>
<path fill-rule="evenodd" clip-rule="evenodd" d="M18.9997 25.2251C21.0938 25.2251 22.7913 23.5275 22.7913 21.4334C22.7913 20.4918 22.4481 19.6303 21.8799 18.9673C21.9772 19.135 22.033 19.3298 22.033 19.5377C22.033 20.1659 21.5237 20.6752 20.8955 20.6752C20.2673 20.6752 19.758 20.1659 19.758 19.5377C19.758 18.9094 20.2673 18.4002 20.8955 18.4002C21.1034 18.4002 21.2982 18.456 21.4659 18.5534C20.8029 17.985 19.9414 17.6417 18.9997 17.6417C16.9056 17.6417 15.208 19.3393 15.208 21.4334C15.208 23.5275 16.9056 25.2251 18.9997 25.2251Z" fill="#FFAF18"/>
</g>
<defs>
<clipPath id="clip0_144_1005">
<rect width="34" height="34" fill="white" transform="translate(4 8)"/>
</clipPath>
</defs>
</svg>
