<svg width="111" height="111" viewBox="0 0 111 111" fill="none" xmlns="http://www.w3.org/2000/svg">
<path d="M30.0671 13.8887C29.4525 13.8887 28.8632 14.1328 28.4286 14.5673C27.9941 15.0019 27.75 15.5913 27.75 16.2058V20.8262H17.3437C16.887 20.8243 16.4345 20.9127 16.012 21.0862C15.5896 21.2597 15.2055 21.5149 14.882 21.8372C14.5584 22.1595 14.3016 22.5425 14.1264 22.9643C13.9513 23.386 13.8611 23.8382 13.8611 24.2949V93.6699C13.8611 94.1266 13.9513 94.5788 14.1264 95.0006C14.3016 95.4223 14.5584 95.8053 14.882 96.1276C15.2055 96.4499 15.5896 96.7051 16.012 96.8786C16.4345 97.0521 16.887 97.1405 17.3437 97.1387H86.7187C87.6387 97.1387 88.521 96.7732 89.1715 96.1227C89.822 95.4722 90.1875 94.5899 90.1875 93.6699V24.2949C90.1875 23.375 89.822 22.4927 89.1715 21.8421C88.521 21.1916 87.6387 20.8262 86.7187 20.8262H76.3125V16.2058C76.3125 15.5913 76.0683 15.0019 75.6338 14.5673C75.1992 14.1328 74.6099 13.8887 73.9953 13.8887H71.6921C71.0775 13.8887 70.4882 14.1328 70.0536 14.5673C69.6191 15.0019 69.375 15.5913 69.375 16.2058V20.8262H34.6875V16.2058C34.6875 15.5913 34.4433 15.0019 34.0088 14.5673C33.5742 14.1328 32.9849 13.8887 32.3703 13.8887H30.0671V13.8887ZM20.8125 27.7637H83.25V34.7012H20.8125V27.7637ZM20.8125 41.6387H83.25V90.2012H20.8125V41.6387ZM27.75 48.5762V55.5137H34.6875V48.5762H27.75ZM41.625 48.5762V55.5137H48.5625V48.5762H41.625ZM55.5 48.5762V55.5137H62.4375V48.5762H55.5ZM69.375 48.5762V55.5137H76.3125V48.5762H69.375ZM27.75 62.4512V69.3887H34.6875V62.4512H27.75ZM41.625 62.4512V69.3887H48.5625V62.4512H41.625ZM55.5 62.4512V69.3887H62.4375V62.4512H55.5ZM69.375 62.4512V69.3887H76.3125V62.4512H69.375ZM27.75 76.3262V83.2637H34.6875V76.3262H27.75ZM41.625 76.3262V83.2637H48.5625V76.3262H41.625ZM55.5 76.3262V83.2637H62.4375V76.3262H55.5Z" fill="#A5AEB4"/>
<path d="M20.8125 27.7568H83.25V34.6943H20.8125V27.7568Z" fill="#6F7579"/>
</svg>
