<svg width="115" height="115" viewBox="0 0 115 115" fill="none" xmlns="http://www.w3.org/2000/svg">
<path d="M80.0368 56.1391C81.2996 55.4677 82.7392 55.0833 84.2676 55.0833C89.3916 55.0833 93.4596 59.1412 93.4596 64.1413V70.0638C93.4595 74.6688 92.8176 79.2513 91.5525 83.6791L85.699 104.164L85.6969 104.172L85.6947 104.179C85.5041 104.778 85.0876 105.279 84.5335 105.576C83.9794 105.873 83.3313 105.943 82.7268 105.77C82.1224 105.597 81.6091 105.195 81.296 104.65C80.9829 104.104 80.8946 103.459 81.0499 102.849L81.0516 102.843L81.0536 102.836L86.9033 82.3503L86.9033 82.3502C88.0449 78.3545 88.6242 74.2193 88.6244 70.0638V64.1419C88.623 63.0217 88.1774 61.9478 87.3854 61.1557C86.5933 60.3636 85.5194 59.918 84.3992 59.9167C81.9274 59.917 80.0411 61.8202 80.0411 64.1413V69C80.0411 69.6409 79.7864 70.2556 79.3332 70.7088C78.88 71.1621 78.2653 71.4167 77.6244 71.4167C76.9834 71.4167 76.3688 71.1621 75.9155 70.7088C75.4623 70.2556 75.2077 69.6409 75.2077 69V56.4752C75.2064 55.355 74.7608 54.2811 73.9687 53.489C73.1766 52.6969 72.1027 52.2514 70.9825 52.25C68.5107 52.2503 66.6244 54.1535 66.6244 56.4746V69C66.6244 69.6409 66.3698 70.2556 65.9166 70.7088C65.4633 71.1621 64.8487 71.4167 64.2077 71.4167C63.5668 71.4167 62.9521 71.1621 62.4989 70.7088C62.0457 70.2556 61.7911 69.6409 61.7911 69V52.6419C61.7897 51.5217 61.3441 50.4478 60.552 49.6557C59.7599 48.8636 58.686 48.418 57.5659 48.4167C55.094 48.417 53.2077 50.3201 53.2077 52.6413V65.1667C53.2077 65.8076 52.9531 66.4223 52.4999 66.8755C52.0467 67.3287 51.432 67.5833 50.791 67.5833C50.1501 67.5833 49.5354 67.3287 49.0822 66.8755C48.629 66.4223 48.3744 65.8076 48.3744 65.1667V25.8085C48.373 24.6884 47.9274 23.6144 47.1354 22.8224C46.3433 22.0303 45.2694 21.5847 44.1492 21.5833C41.6774 21.5836 39.7911 23.4868 39.7911 25.8079V82.4167C39.7911 83.0576 39.5364 83.6723 39.0832 84.1255C38.63 84.5787 38.0153 84.8333 37.3744 84.8333C36.7334 84.8333 36.1188 84.5787 35.6655 84.1255C35.2123 83.6723 34.9577 83.0576 34.9577 82.4167V63.9649C34.9577 63.8471 34.8624 63.75 34.7409 63.75H31.4888C30.1331 63.7514 28.8333 64.2904 27.8745 65.2489C26.9158 66.2073 26.3763 67.5068 26.3744 68.8623C26.3744 68.8625 26.3744 68.8626 26.3744 68.8627V73.6626C26.3744 73.6627 26.3744 73.6628 26.3744 73.6629C26.3831 80.0206 28.5465 86.1876 32.5116 91.1572L41.1783 101.99C41.3767 102.237 41.5244 102.522 41.6128 102.827C41.7013 103.132 41.7288 103.451 41.6938 103.767C41.6588 104.082 41.5619 104.388 41.4088 104.666C41.2556 104.944 41.0492 105.189 40.8013 105.387M80.0368 56.1391L40.489 104.997M80.0368 56.1391C79.8597 51.2943 75.8598 47.4167 70.8509 47.4167L70.8489 47.4167C69.0467 47.4238 67.2938 47.9734 65.8152 48.9859C65.141 47.4751 64.0664 46.1721 62.7023 45.2212C61.1565 44.1437 59.3149 43.5716 57.4307 43.5833C55.9054 43.5836 54.4686 43.9667 53.2077 44.6358L80.0368 56.1391ZM40.8013 105.387L40.489 104.997M40.8013 105.387C40.8015 105.387 40.8018 105.387 40.8021 105.387L40.489 104.997M40.8013 105.387C40.5538 105.586 40.2695 105.734 39.9648 105.822C39.6597 105.911 39.3402 105.938 39.0244 105.903C38.7087 105.868 38.4031 105.771 38.1251 105.617C37.8471 105.463 37.6022 105.256 37.4046 105.007M40.489 104.997C40.2927 105.155 40.0671 105.272 39.8253 105.342C39.5835 105.412 39.3302 105.434 39.08 105.406C38.8297 105.378 38.5874 105.301 38.3671 105.179C38.1468 105.057 37.9527 104.893 37.7961 104.696M37.4046 105.007L37.4056 105.008L37.7961 104.696M37.4046 105.007L37.7961 104.696M37.4046 105.007L28.7385 94.1754L29.1289 93.863L28.7385 94.1753C24.0982 88.375 21.543 81.0908 21.543 73.6613V68.862V68.8614C21.5462 66.2245 22.5952 63.6966 24.46 61.8322C26.3247 59.9679 28.8528 58.9193 31.4897 58.9167L31.4902 58.9167H34.7409H34.7514L34.7514 58.9168C34.8203 58.9182 34.889 58.9211 34.9577 58.9254M37.7961 104.696L34.9577 58.9254M34.9577 58.9254V59.4265C35.1254 59.4381 35.2923 59.4592 35.4577 59.4895V58.982C35.2921 58.9548 35.1252 58.9359 34.9577 58.9254Z" fill="#FFAF18" stroke="#FFAF18"/>
<path d="M30.6667 27.3333C31.3076 27.3333 31.9223 27.0787 32.3755 26.6255C32.8287 26.1723 33.0833 25.5576 33.0833 24.9167C33.0833 18.8506 38.0172 13.9167 44.0833 13.9167C50.1494 13.9167 55.0833 18.8506 55.0833 24.9167C55.0833 25.5576 55.3379 26.1723 55.7912 26.6255C56.2444 27.0787 56.8591 27.3333 57.5 27.3333C58.1409 27.3333 58.7556 27.0787 59.2088 26.6255C59.6621 26.1723 59.9167 25.5576 59.9167 24.9167C59.9167 16.1861 52.8139 9.08334 44.0833 9.08334C35.3528 9.08334 28.25 16.1861 28.25 24.9167C28.25 25.5576 28.5046 26.1723 28.9578 26.6255C29.411 27.0787 30.0257 27.3333 30.6667 27.3333Z" fill="#FFAF18" stroke="#FFAF18"/>
</svg>
