<svg width="38" height="38" viewBox="0 0 38 38" fill="none" xmlns="http://www.w3.org/2000/svg">
<path d="M14.2502 5.14575C9.22207 5.14575 5.146 9.22182 5.146 14.2499V25.5025C5.146 26.1583 5.67766 26.69 6.3335 26.69C6.98933 26.69 7.521 26.1583 7.521 25.5025V14.2499C7.521 10.5335 10.5337 7.52075 14.2502 7.52075H25.3539C26.0097 7.52075 26.5414 6.98908 26.5414 6.33325C26.5414 5.67742 26.0097 5.14575 25.3539 5.14575H14.2502Z" fill="#485FE5"/>
<path fill-rule="evenodd" clip-rule="evenodd" d="M29.1378 10.7558C24.0062 10.1823 18.7445 10.1823 13.613 10.7558C12.1511 10.9192 10.9764 12.0696 10.8041 13.5428C10.1955 18.7465 10.1955 24.0032 10.8041 29.2068C10.9764 30.6801 12.1511 31.8304 13.613 31.9938C18.7445 32.5674 24.0062 32.5674 29.1378 31.9938C30.5995 31.8304 31.7743 30.6801 31.9466 29.2068C32.5552 24.0032 32.5552 18.7465 31.9466 13.5428C31.7743 12.0696 30.5995 10.9192 29.1378 10.7558ZM13.8768 13.1161C18.833 12.5622 23.9177 12.5622 28.8738 13.1161C29.2497 13.1581 29.5452 13.4553 29.5876 13.8187C30.1749 18.839 30.1749 23.9107 29.5876 28.931C29.5452 29.2943 29.2497 29.5915 28.8738 29.6335C23.9177 30.1875 18.833 30.1875 13.8768 29.6335C13.501 29.5915 13.2055 29.2943 13.163 28.931C12.5759 23.9107 12.5759 18.839 13.163 13.8187C13.2055 13.4553 13.501 13.1581 13.8768 13.1161Z" fill="#485FE5"/>
</svg>
