<svg width="469" height="339" viewBox="0 0 469 339" fill="none" xmlns="http://www.w3.org/2000/svg">
<g clip-path="url(#clip0_151_1299)">
<g style="mix-blend-mode:multiply">
<path d="M234.5 322.486C347.631 322.486 439.342 310.389 439.342 295.466C439.342 280.543 347.631 268.446 234.5 268.446C121.369 268.446 29.6582 280.543 29.6582 295.466C29.6582 310.389 121.369 322.486 234.5 322.486Z" fill="#C7C7C7"/>
</g>
<path d="M377.422 17.3178C377.147 17.0577 376.822 16.8531 376.466 16.7155C376.11 16.578 375.73 16.5101 375.347 16.516C374.965 16.5218 374.587 16.6011 374.235 16.7495C373.884 16.8978 373.566 17.1122 373.3 17.3805L282.496 109.249C281.617 110.135 280.567 110.842 279.407 111.332C278.248 111.821 277.001 112.083 275.737 112.102C274.474 112.121 273.219 111.897 272.044 111.443C270.87 110.989 269.798 110.314 268.891 109.455C267.984 108.597 267.259 107.573 266.757 106.441C266.255 105.31 265.987 104.093 265.968 102.86C265.948 101.627 266.177 100.403 266.643 99.2565C267.108 98.1102 267.8 97.0646 268.68 96.1793L276.799 88.0094C277.071 87.7422 277.286 87.4249 277.431 87.076C277.576 86.7271 277.649 86.3535 277.646 85.9769C277.642 85.6003 277.562 85.2281 277.41 84.882C277.258 84.5358 277.036 84.2226 276.759 83.9605C276.482 83.6983 276.154 83.4924 275.795 83.3548C275.436 83.2172 275.052 83.1505 274.666 83.1587C274.28 83.1669 273.9 83.2497 273.547 83.4024C273.194 83.5551 272.876 83.7746 272.611 84.0482L264.494 92.2079C263.01 93.615 261.832 95.2983 261.027 97.158C260.223 99.0177 259.809 101.016 259.81 103.035C259.812 105.053 260.228 107.051 261.035 108.91C261.842 110.768 263.023 112.45 264.509 113.855C265.994 115.26 267.753 116.36 269.682 117.09C271.61 117.819 273.67 118.164 275.737 118.103C277.805 118.042 279.839 117.577 281.719 116.734C283.599 115.892 285.287 114.691 286.682 113.201L377.486 21.3315C378.021 20.7902 378.315 20.064 378.303 19.3117C378.291 18.5594 377.974 17.8425 377.422 17.3178V17.3178Z" fill="#522717"/>
<path d="M308.069 83.5073C307.847 83.297 307.548 83.1813 307.239 83.1858C306.929 83.1902 306.634 83.3144 306.419 83.531L281.659 108.447C280.091 109.986 277.964 110.86 275.741 110.88C273.517 110.9 271.374 110.064 269.778 108.554C268.181 107.043 267.258 104.98 267.209 102.81C267.16 100.641 267.99 98.5395 269.517 96.9622L277.636 88.7906C278.389 88.032 278.803 87.0124 278.786 85.9561C278.769 84.8998 278.323 83.8933 277.546 83.1581C276.768 82.4229 275.723 82.0191 274.641 82.0356C273.558 82.0522 272.527 82.4876 271.773 83.2462L263.656 91.4161C262.113 92.9404 260.895 94.7478 260.072 96.734C259.25 98.7202 258.838 100.846 258.862 102.988C258.886 105.13 259.344 107.247 260.211 109.215C261.078 111.184 262.335 112.965 263.912 114.456C265.488 115.948 267.351 117.119 269.394 117.904C271.437 118.688 273.619 119.07 275.815 119.027C278.01 118.984 280.174 118.517 282.183 117.653C284.192 116.789 286.006 115.545 287.52 113.994L312.281 89.077C312.497 88.8601 312.615 88.5686 312.61 88.2667C312.605 87.9647 312.477 87.677 312.255 87.4668L308.069 83.5073Z" fill="#854025"/>
<path d="M253.548 121.689C254.764 119.089 254.992 115.729 252.881 112.367C250.771 109.004 248.551 106.297 251.883 103.588C255.214 100.88 254.77 96.22 254.215 93.9436C253.661 91.6672 259.427 93.8351 258.768 97.8421C258.11 101.849 257.656 105.21 260.545 102.068C263.434 98.9252 271.205 92.8571 271.539 99.1422C274.759 100.008 274.205 103.151 274.205 103.151C275.871 102.61 275.982 106.293 275.982 106.293C277.869 106.185 278.761 108.027 277.315 112.038C275.868 116.048 272.317 121.248 272.317 121.248C272.206 122.982 268.207 125.799 266.986 128.076C265.765 130.352 264.82 133.874 264.82 133.549C262.378 127.271 253.548 121.689 253.548 121.689Z" fill="#FF8863"/>
<path d="M260.545 102.075C259.85 102.834 259.345 103.212 258.992 103.293C259.128 107.2 260.71 110.926 263.445 113.783C266.18 116.639 269.883 118.431 273.868 118.828C275.009 116.964 276.498 114.309 277.314 112.048C275.649 115.57 273.594 117.033 271.756 116.952C269.918 116.87 269.23 116.03 269.896 112.455C267.62 112.887 266.647 112.509 266.595 109.609C264.236 110.151 262.543 109.1 263.121 106.955C260.234 107.389 259.152 106.141 259.345 103.758C259.899 103.318 260.315 102.734 260.545 102.075V102.075Z" fill="#854025"/>
<path d="M142.715 165.252C153.82 164.386 157.596 168.071 175.809 165.903C194.022 163.735 211.792 157.45 211.792 157.45C213.124 158.101 213.569 154.85 216.011 155.933C219.12 153.116 228.784 144.012 237.667 136.21C246.55 128.408 253.548 120.93 253.548 120.93C265.654 128.727 265.881 135.885 265.881 135.885C265.437 137.619 233.342 173.488 227.566 178.473C221.79 183.458 223.124 183.675 217.35 184.543C211.576 185.411 159.818 203.4 153.38 202.532C146.943 201.664 142.715 165.252 142.715 165.252Z" fill="#FFF6E6"/>
<path d="M380.465 166.147C387.495 165.101 392.593 164.72 396.387 166.457C400.18 168.195 406.319 163.543 406.319 163.543C406.319 163.543 416.931 108.158 408.162 109.624C399.394 111.09 387.665 133.862 386.698 140.527C385.73 147.192 378.533 150.438 378.533 150.438L380.465 166.147Z" fill="#FF8863"/>
<path d="M408.162 109.624C399.395 111.092 387.665 133.862 386.698 140.527C387.785 143.892 396.439 143.312 396.439 143.312C398.327 145.792 394.556 161.899 393.66 165.603C394.602 165.778 395.519 166.063 396.392 166.45C400.187 168.188 406.324 163.537 406.324 163.537C406.324 163.537 416.931 108.158 408.162 109.624Z" fill="#4D130A"/>
<path d="M393.265 137.388C392.049 137.53 390.616 137.488 389.395 137.076C388.216 136.678 387.389 136.003 386.937 135.069C386.912 135.018 386.898 134.962 386.895 134.905C386.892 134.849 386.901 134.792 386.921 134.738C386.941 134.685 386.971 134.636 387.01 134.593C387.049 134.551 387.096 134.517 387.149 134.493C387.202 134.469 387.259 134.455 387.317 134.452C387.375 134.449 387.433 134.458 387.488 134.477C387.543 134.496 387.594 134.526 387.637 134.564C387.68 134.602 387.715 134.648 387.74 134.7C388.087 135.413 388.74 135.937 389.685 136.256C391.619 136.908 394.097 136.501 394.943 136.086C394.996 136.058 395.053 136.041 395.113 136.035C395.173 136.029 395.233 136.035 395.29 136.053C395.347 136.07 395.4 136.099 395.445 136.137C395.491 136.175 395.528 136.221 395.555 136.273C395.581 136.326 395.597 136.383 395.601 136.441C395.604 136.499 395.596 136.558 395.576 136.613C395.555 136.668 395.524 136.718 395.483 136.761C395.443 136.804 395.394 136.839 395.339 136.863C394.681 137.144 393.981 137.321 393.265 137.388V137.388ZM396.084 130.581C394.869 130.723 393.435 130.681 392.214 130.269C391.035 129.871 390.208 129.196 389.756 128.262C389.732 128.211 389.717 128.155 389.714 128.098C389.712 128.041 389.72 127.985 389.74 127.931C389.76 127.878 389.79 127.828 389.829 127.786C389.868 127.744 389.916 127.71 389.968 127.686C390.021 127.662 390.078 127.648 390.136 127.645C390.195 127.642 390.253 127.651 390.308 127.67C390.362 127.689 390.413 127.719 390.456 127.757C390.499 127.795 390.534 127.841 390.559 127.893C390.906 128.606 391.559 129.13 392.504 129.449C394.438 130.101 396.916 129.694 397.762 129.279C397.867 129.233 397.986 129.228 398.095 129.266C398.203 129.304 398.292 129.381 398.343 129.481C398.394 129.582 398.404 129.698 398.369 129.805C398.335 129.912 398.259 130.002 398.158 130.055C397.5 130.337 396.8 130.514 396.084 130.581V130.581ZM398.824 124.436C397.608 124.579 396.175 124.536 394.954 124.125C393.774 123.726 392.947 123.052 392.496 122.118C392.446 122.014 392.44 121.895 392.479 121.787C392.519 121.679 392.601 121.59 392.708 121.541C392.814 121.492 392.936 121.487 393.047 121.525C393.158 121.564 393.248 121.644 393.298 121.748C393.646 122.462 394.299 122.986 395.244 123.306C397.177 123.957 399.656 123.55 400.502 123.136C400.607 123.09 400.726 123.086 400.834 123.123C400.942 123.161 401.031 123.238 401.082 123.339C401.134 123.439 401.143 123.555 401.109 123.662C401.074 123.769 400.999 123.859 400.898 123.913C400.239 124.193 399.539 124.37 398.824 124.436V124.436Z" fill="#1F0803"/>
<path d="M197.576 222.255C197.576 222.255 271.539 176.451 276.278 175.005C281.016 173.559 283.681 173.849 289.012 172.693C294.343 171.537 380.522 144.373 380.522 144.373C382.299 155.067 382.892 171.249 382.892 171.249C380.522 173.561 338.172 192.923 324.55 196.674C310.928 200.425 301.746 203.32 299.674 203.898C297.601 204.476 299.377 203.032 297.6 204.476C295.823 205.92 297.119 203.393 295.823 205.922C291.204 214.939 270.354 232.218 263.543 235.398C256.732 238.578 224.748 246.961 220.897 246.961C217.046 246.961 200.76 246.673 199.575 245.229C198.391 243.785 189.21 239.449 193.06 234.535C196.909 229.621 197.576 222.255 197.576 222.255Z" fill="#2E0C04"/>
<path d="M382.595 229.19C389.703 228.973 394.811 229.19 398.365 231.357C401.919 233.525 408.583 229.624 408.583 229.624C408.583 229.624 425.906 175.873 417.023 176.307C408.14 176.741 393.7 197.976 391.923 204.482C390.146 210.987 382.595 213.368 382.595 213.368V229.19Z" fill="#FF8863"/>
<path d="M195.577 235.692C195.577 235.692 208.46 232.658 211.569 235.259C214.679 237.861 278.647 209.684 286.642 208.383C294.638 207.083 382.595 210.984 384.816 210.984C387.036 220.087 385.259 234.825 385.259 234.825C378.596 236.993 299.526 245.662 292.863 243.928C292.863 244.362 288.868 245.662 288.868 245.662C283.092 249.56 252.442 279.901 222.686 288.142C192.931 296.383 160.052 285.108 157.386 277.739C154.72 270.371 195.577 235.692 195.577 235.692Z" fill="#4D130A"/>
<path d="M385.928 223.714C367.142 227.094 303.005 231.691 299.208 230.413C297.838 228.976 295.668 227.362 292.5 229.365C290.954 230.342 289.91 229.61 288.699 228.762C288.33 228.489 287.941 228.245 287.533 228.03C286.694 227.623 285.145 228.501 273.703 235.883C262.746 242.954 246.185 253.638 230.362 261.701C214.903 269.581 203.959 274.605 195.245 275.625C195.245 268.798 194.92 259.787 183.171 256.594L182.813 257.847C193.678 260.799 193.907 269.003 193.911 275.753C187.862 276.183 182.87 274.566 178.104 270.459L177.223 271.435C181.838 275.402 186.698 277.126 192.179 277.126C202.254 277.126 214.425 271.291 230.982 262.854C246.866 254.76 263.465 244.053 274.443 236.968C280.596 232.996 285.935 229.552 287.07 229.26C287.365 229.432 287.651 229.619 287.926 229.82C289.189 230.705 290.919 231.916 293.227 230.459C295.138 229.255 296.554 229.508 298.298 231.362C298.614 231.701 299.095 232.21 312.02 231.64C319.648 231.301 329.738 230.664 340.409 229.838C356.428 228.599 376.366 226.709 385.907 225.035C385.916 224.601 385.924 224.162 385.928 223.714Z" fill="#1F0803"/>
<path d="M146.153 284.002L139.088 308.348L128.98 302.997L146.153 284.002Z" fill="#F01717"/>
<path d="M143.622 281.699L127.665 290.569L125.286 282.968L143.622 281.699Z" fill="#F01717"/>
<path d="M149.317 284.712L150.398 302.601L158.225 300.405L149.317 284.712Z" fill="#F01717"/>
<path d="M99.5149 167.203C92.5182 168.72 86.9648 175.765 86.9648 175.765L89.1761 216.214C88.5195 223.333 100.293 251.301 119.171 266.895C138.049 282.489 164.482 287.269 164.482 287.269C170.7 285.535 189.58 265.378 195.134 249.557C200.687 233.735 197.576 222.248 197.576 222.248C195.577 222.248 183.806 223.332 180.695 221.164C177.584 218.996 174.699 222.031 173.367 220.947C172.034 219.862 170.923 217.048 166.481 216.179C162.04 215.309 165.149 216.179 159.596 195.161C154.042 174.143 142.715 165.252 142.715 165.252L135.053 164.386L99.5149 167.203Z" fill="#2A3766"/>
<path d="M141.183 191.603C141.629 191.603 142.076 191.603 142.527 191.586C142.845 191.578 143.149 191.459 143.385 191.252C143.621 191.044 143.774 190.761 143.815 190.454C144.549 184.96 142.52 178.033 140.688 173.188C139.529 170.122 138.372 167.686 137.787 166.508C137.368 165.661 137.042 165.046 136.776 164.581L135.051 164.386L99.5149 167.203C99.0806 167.298 98.6527 167.411 98.2312 167.542C98.2537 167.626 98.2852 167.707 98.325 167.785C104.26 179.253 120.212 191.596 141.181 191.598L141.183 191.603Z" fill="#3F4F8A"/>
<path d="M110.62 161.352C105.959 162.652 99.5149 167.203 99.5149 167.203C105.073 177.933 120.948 190.828 142.493 190.286C143.825 180.316 135.496 164.495 135.053 164.386C134.61 164.278 131.058 163.2 131.058 163.2L110.62 161.352Z" fill="#FFF6E6"/>
<path d="M98.8843 105.073C96.0721 105.073 89.5564 109.407 93.5551 109.697C88.3718 115.909 89.4088 118.943 94.5973 126.747C99.7859 134.551 102.588 138.595 102.588 138.595C102.588 138.595 115.615 142.063 116.802 141.629C117.988 141.195 127.759 138.595 128.056 137.439C128.353 136.283 126.724 112.875 129.236 110.853C131.747 108.831 130.863 104.495 130.863 104.495C133.382 103.478 134.417 99.2932 132.493 99.2932C130.568 99.2932 123.165 96.5473 113.687 96.6931C104.21 96.8389 101.545 103.773 101.545 103.773C100.514 102.327 98.1426 103.773 98.8843 105.073Z" fill="#DBDBDB"/>
<path d="M103.069 106.517C104.401 110.416 97.9602 110.528 98.5143 113.453C99.0685 116.379 106.852 120.281 107.622 121.906C108.391 123.532 107.399 126.457 107.399 128.083C107.399 129.708 107.51 130.9 109.51 132.308C111.509 133.717 112.508 134.476 111.952 135.668C111.396 136.86 108.843 137.944 108.177 137.402C104.955 133.285 95.9609 131.117 96.0721 140.544C96.1832 149.972 106.955 151.599 111.73 149.214C113.729 158.75 109.287 162.218 109.176 162.544C109.621 166.986 119.946 174.682 128.61 175.331C137.275 175.98 132.053 166.986 132.053 166.661C134.164 164.386 134.052 154.85 135.836 155.94C137.62 157.03 141.501 156.049 143.278 153.772C145.055 151.496 143.055 151.06 144.388 148.572C145.72 146.084 146.606 144.555 145.268 141.194C143.931 137.832 139.828 132.958 140.057 126.564C140.287 120.171 137.613 117.677 135.614 115.186C133.615 112.694 128.397 104.89 128.397 104.89C124.509 108.358 119.4 105.107 119.4 105.107C114.174 109.336 112.619 111.068 103.069 106.517Z" fill="#FF8863"/>
<path d="M126.944 145.241C128.796 146.18 134.302 144.962 136.569 143.434C139.197 141.665 138.939 139.136 138.939 139.136C138.254 139.01 137.028 138.704 134.737 139.751C132.446 140.799 128.112 142.694 126.944 145.241Z" fill="#5C0909"/>
<path d="M120.682 130.019C121.262 129.825 121.378 128.658 120.94 127.412C120.503 126.166 119.678 125.313 119.098 125.506C118.518 125.7 118.403 126.868 118.84 128.114C119.278 129.36 120.102 130.213 120.682 130.019Z" fill="#2E0B06"/>
<path d="M120.219 131.532H120.203C119.211 131.532 118.228 130.879 117.436 129.718C117.409 129.671 117.401 129.615 117.414 129.562C117.427 129.509 117.46 129.463 117.506 129.432C117.553 129.402 117.609 129.39 117.664 129.398C117.72 129.407 117.769 129.435 117.804 129.478C118.515 130.517 119.368 131.091 120.207 131.1C120.794 131.11 121.369 130.796 121.77 130.234C121.786 130.21 121.807 130.19 121.832 130.174C121.856 130.159 121.884 130.148 121.913 130.143C121.941 130.138 121.971 130.138 121.999 130.144C122.028 130.15 122.055 130.161 122.079 130.178C122.103 130.194 122.124 130.214 122.14 130.238C122.155 130.262 122.166 130.289 122.172 130.317C122.177 130.345 122.177 130.374 122.171 130.402C122.165 130.429 122.153 130.456 122.136 130.479C121.648 131.161 120.969 131.532 120.219 131.532Z" fill="#2E0B06"/>
<path d="M134.34 126.444C134.92 126.25 135.036 125.082 134.598 123.836C134.161 122.59 133.336 121.737 132.756 121.931C132.176 122.125 132.061 123.292 132.498 124.538C132.936 125.784 133.76 126.637 134.34 126.444Z" fill="#2E0B06"/>
<path d="M133.879 127.959H133.858C132.868 127.959 131.885 127.305 131.091 126.144C131.058 126.096 131.047 126.037 131.059 125.981C131.07 125.925 131.104 125.876 131.153 125.844C131.202 125.812 131.262 125.801 131.319 125.812C131.377 125.823 131.428 125.856 131.461 125.903C132.171 126.942 133.024 127.518 133.863 127.525C134.459 127.525 135.025 127.222 135.426 126.659C135.461 126.614 135.512 126.585 135.569 126.576C135.625 126.567 135.683 126.58 135.73 126.612C135.777 126.644 135.81 126.693 135.821 126.747C135.833 126.802 135.822 126.859 135.791 126.906C135.315 127.584 134.629 127.959 133.879 127.959Z" fill="#2E0B06"/>
<g style="mix-blend-mode:multiply">
<path d="M112.897 131.659H112.885C112.856 131.657 112.827 131.65 112.801 131.638C112.774 131.626 112.751 131.608 112.731 131.587C112.712 131.566 112.697 131.541 112.687 131.514C112.677 131.487 112.673 131.459 112.675 131.43C112.675 131.398 112.89 128.257 116.102 128.028C116.161 128.025 116.218 128.044 116.263 128.082C116.307 128.119 116.334 128.173 116.338 128.23C116.34 128.258 116.337 128.287 116.327 128.314C116.318 128.341 116.304 128.365 116.285 128.387C116.266 128.408 116.242 128.426 116.216 128.438C116.19 128.451 116.162 128.459 116.133 128.461C113.316 128.661 113.125 131.342 113.118 131.454C113.115 131.509 113.091 131.561 113.049 131.6C113.008 131.638 112.954 131.659 112.897 131.659V131.659Z" fill="#EBBEB0"/>
</g>
<g style="mix-blend-mode:multiply">
<path d="M115.063 130.954H115.028C114.97 130.945 114.918 130.914 114.883 130.868C114.848 130.821 114.833 130.763 114.842 130.707C114.853 130.644 115.098 129.181 116.362 128.644C116.416 128.626 116.474 128.628 116.525 128.65C116.577 128.673 116.618 128.713 116.64 128.764C116.662 128.814 116.663 128.871 116.644 128.923C116.625 128.975 116.586 129.017 116.536 129.042C115.494 129.476 115.282 130.759 115.28 130.773C115.272 130.823 115.245 130.869 115.205 130.902C115.166 130.935 115.115 130.954 115.063 130.954ZM120.724 120.118C120.667 120.118 120.612 120.096 120.57 120.057C120.529 120.018 120.504 119.965 120.502 119.909C120.502 119.865 120.304 115.541 117.375 115.24C117.32 115.23 117.27 115.201 117.236 115.157C117.202 115.113 117.187 115.058 117.192 115.004C117.198 114.949 117.225 114.899 117.267 114.863C117.309 114.827 117.364 114.808 117.42 114.809C120.74 115.148 120.945 119.699 120.952 119.894C120.953 119.952 120.932 120.007 120.892 120.05C120.852 120.092 120.797 120.117 120.738 120.12L120.724 120.118Z" fill="#EBBEB0"/>
</g>
<path d="M111.398 127.92C114.507 128.245 121.282 118.981 119.388 118.492C117.495 118.004 108.898 127.866 111.398 127.92ZM128.167 114.97C126.604 114.97 129.055 120.064 135.941 118.981C136.719 117.896 128.167 114.97 128.167 114.97Z" fill="#DBDBDB"/>
<g style="mix-blend-mode:multiply">
<path d="M128.715 118.221C128.689 118.222 128.664 118.217 128.64 118.208C127.771 117.901 126.72 116.962 126.46 115.924C126.38 115.638 126.377 115.336 126.452 115.049C126.526 114.761 126.676 114.497 126.885 114.282C126.906 114.26 126.93 114.243 126.957 114.231C126.984 114.218 127.013 114.211 127.043 114.21C127.073 114.209 127.103 114.213 127.131 114.223C127.159 114.233 127.185 114.249 127.207 114.268C127.229 114.288 127.247 114.312 127.259 114.338C127.272 114.365 127.279 114.393 127.28 114.422C127.282 114.451 127.277 114.481 127.267 114.508C127.257 114.535 127.241 114.56 127.221 114.582C127.06 114.744 126.946 114.944 126.889 115.163C126.832 115.381 126.835 115.611 126.898 115.828C127.12 116.713 128.056 117.545 128.798 117.808C128.847 117.825 128.888 117.859 128.914 117.903C128.939 117.947 128.949 117.999 128.94 118.049C128.93 118.099 128.904 118.144 128.864 118.177C128.824 118.21 128.774 118.228 128.722 118.228L128.715 118.221Z" fill="#EBBEB0"/>
</g>
<path d="M132.831 138.82C132.772 138.823 132.715 138.803 132.671 138.765C132.627 138.726 132.601 138.672 132.598 138.615C132.595 138.557 132.615 138.501 132.655 138.458C132.694 138.415 132.75 138.389 132.809 138.387C135.142 138.159 136.825 135.878 137.285 135.185C137.971 134.152 138.275 133.225 138.173 132.929C138.063 132.607 137.721 132.54 136.886 132.408C135.4 132.206 133.959 131.765 132.621 131.103C129.262 129.464 127.728 125.679 128.616 121.223C128.621 121.195 128.632 121.168 128.648 121.145C128.664 121.121 128.685 121.1 128.709 121.085C128.733 121.069 128.761 121.058 128.789 121.053C128.818 121.047 128.848 121.048 128.876 121.053C128.934 121.065 128.984 121.098 129.017 121.146C129.049 121.193 129.061 121.252 129.05 121.308C128.384 124.643 129.025 128.866 132.817 130.717C134.116 131.359 135.514 131.786 136.955 131.983C137.824 132.118 138.393 132.21 138.593 132.793C138.793 133.376 138.214 134.58 137.657 135.422C137.169 136.158 135.381 138.573 132.852 138.82H132.831Z" fill="#2E0B06"/>
<path d="M129.5 139.136C129.47 139.136 129.441 139.131 129.414 139.12C129.387 139.109 129.362 139.093 129.342 139.073C129.301 139.032 129.278 138.977 129.278 138.92C129.278 138.862 129.301 138.807 129.342 138.766C130.754 137.388 131.9 136.703 132.569 136.837C132.674 136.856 132.771 136.9 132.854 136.966C132.936 137.032 132.999 137.117 133.038 137.214C133.061 137.267 133.061 137.327 133.039 137.381C133.016 137.435 132.973 137.478 132.918 137.5C132.863 137.523 132.802 137.523 132.746 137.501C132.691 137.479 132.648 137.437 132.625 137.383C132.614 137.353 132.594 137.327 132.569 137.307C132.543 137.287 132.513 137.275 132.48 137.271C132.09 137.192 131.146 137.627 129.656 139.081C129.613 139.119 129.557 139.138 129.5 139.136V139.136Z" fill="#2E0B06"/>
<g style="mix-blend-mode:multiply">
<path d="M128.714 140.544C128.693 140.547 128.67 140.547 128.648 140.544C127.747 140.268 127.099 139.661 126.871 138.878C126.62 138.013 126.906 137.032 127.658 136.184C127.697 136.141 127.752 136.114 127.811 136.11C127.87 136.106 127.928 136.125 127.973 136.162C128.017 136.2 128.045 136.254 128.049 136.311C128.053 136.369 128.034 136.426 127.995 136.469C127.342 137.203 127.089 138.039 127.301 138.759C127.486 139.4 128.027 139.9 128.782 140.13C128.834 140.145 128.878 140.177 128.907 140.221C128.936 140.265 128.947 140.318 128.939 140.37C128.931 140.421 128.904 140.469 128.863 140.502C128.822 140.536 128.77 140.554 128.716 140.553L128.714 140.544ZM126.835 149.865C126.801 149.864 126.768 149.856 126.738 149.841C126.708 149.826 126.682 149.805 126.661 149.778C126.534 149.609 123.594 145.71 125.767 142.59C125.783 142.566 125.804 142.546 125.829 142.53C125.853 142.515 125.88 142.504 125.909 142.499C125.938 142.493 125.967 142.493 125.996 142.499C126.025 142.505 126.052 142.516 126.076 142.532C126.1 142.548 126.121 142.569 126.137 142.593C126.153 142.616 126.164 142.643 126.169 142.671C126.175 142.699 126.175 142.728 126.169 142.756C126.163 142.784 126.151 142.81 126.135 142.834C124.139 145.704 126.988 149.48 127.017 149.517C127.053 149.563 127.068 149.621 127.059 149.678C127.051 149.735 127.019 149.786 126.972 149.821C126.933 149.85 126.884 149.865 126.835 149.865V149.865ZM139.939 140.653H139.904C139.846 140.643 139.794 140.612 139.76 140.566C139.725 140.52 139.71 140.462 139.719 140.405C139.719 140.393 139.892 139.066 138.55 137.546C138.528 137.525 138.511 137.499 138.499 137.472C138.488 137.444 138.483 137.414 138.484 137.384C138.485 137.354 138.492 137.325 138.505 137.298C138.518 137.271 138.537 137.247 138.56 137.227C138.584 137.208 138.611 137.193 138.64 137.184C138.669 137.175 138.7 137.172 138.73 137.176C138.761 137.179 138.79 137.188 138.817 137.203C138.844 137.218 138.867 137.238 138.885 137.263C140.379 138.944 140.168 140.41 140.158 140.471C140.149 140.522 140.123 140.568 140.083 140.601C140.043 140.634 139.992 140.652 139.939 140.653V140.653ZM133.497 150.948C133.456 150.948 133.416 150.937 133.382 150.916C133.357 150.901 133.335 150.882 133.318 150.859C133.301 150.835 133.288 150.809 133.281 150.782C133.274 150.754 133.273 150.725 133.277 150.697C133.282 150.669 133.292 150.642 133.307 150.617C136.354 145.773 139.413 146.38 139.543 146.402C139.601 146.415 139.651 146.449 139.682 146.498C139.714 146.546 139.725 146.605 139.712 146.661C139.699 146.717 139.663 146.766 139.614 146.797C139.564 146.828 139.503 146.838 139.446 146.826C139.418 146.826 136.554 146.287 133.686 150.845C133.666 150.876 133.638 150.902 133.605 150.92C133.572 150.938 133.535 150.948 133.497 150.948ZM107.337 146.009C105.761 146.009 104.842 145.399 104.373 144.941C103.956 144.524 103.662 144.004 103.526 143.436C103.389 142.868 103.415 142.275 103.599 141.72C103.998 140.466 105.096 139.517 106.581 139.124C105.643 138.388 102.933 136.464 100.866 136.991C99.8935 137.24 99.1727 138.018 98.7245 139.307C98.7166 139.335 98.7027 139.362 98.6838 139.385C98.6648 139.408 98.6413 139.427 98.6145 139.441C98.5877 139.455 98.5583 139.464 98.528 139.466C98.4978 139.468 98.4673 139.465 98.4386 139.455C98.4098 139.446 98.3834 139.431 98.3609 139.411C98.3384 139.391 98.3202 139.367 98.3076 139.34C98.2951 139.313 98.2882 139.284 98.2876 139.254C98.287 139.225 98.2927 139.195 98.3041 139.168C98.8044 137.734 99.6278 136.859 100.755 136.573C103.515 135.866 107.064 138.946 107.215 139.076C107.246 139.103 107.268 139.139 107.279 139.177C107.291 139.216 107.291 139.258 107.279 139.297C107.268 139.336 107.246 139.371 107.216 139.398C107.185 139.426 107.147 139.444 107.106 139.451C105.542 139.737 104.415 140.612 104.022 141.849C103.863 142.327 103.84 142.839 103.957 143.329C104.074 143.818 104.326 144.267 104.686 144.627C105.282 145.209 106.704 146.06 109.55 145.207C109.606 145.19 109.667 145.196 109.719 145.223C109.771 145.25 109.81 145.296 109.828 145.351C109.845 145.406 109.839 145.466 109.811 145.516C109.784 145.567 109.736 145.605 109.68 145.622C108.923 145.863 108.133 145.994 107.337 146.009V146.009ZM126.465 157.943C125.794 157.945 125.123 157.888 124.462 157.774C120.658 157.096 117.889 153.64 115.666 150.86C114.971 149.987 114.307 149.165 113.677 148.495C113.641 148.452 113.624 148.398 113.628 148.343C113.632 148.288 113.658 148.236 113.699 148.199C113.741 148.162 113.795 148.141 113.852 148.142C113.908 148.142 113.963 148.164 114.003 148.202C114.646 148.88 115.311 149.712 116.017 150.594C118.193 153.306 120.903 156.696 124.542 157.347C129.291 158.194 134.113 155.45 134.162 155.423C134.212 155.398 134.271 155.392 134.325 155.407C134.379 155.423 134.426 155.458 134.455 155.505C134.483 155.553 134.493 155.61 134.48 155.664C134.468 155.717 134.435 155.765 134.388 155.796C134.214 155.896 130.606 157.943 126.465 157.943ZM112.953 164.603C112.909 164.602 112.866 164.589 112.83 164.565C112.793 164.541 112.765 164.508 112.748 164.468C112.731 164.429 112.727 164.385 112.735 164.343C112.743 164.301 112.764 164.262 112.795 164.232C112.841 164.188 117.469 159.592 116.289 154.463C116.28 154.435 116.278 154.405 116.281 154.375C116.284 154.345 116.294 154.317 116.31 154.291C116.325 154.265 116.346 154.242 116.37 154.225C116.395 154.207 116.423 154.194 116.453 154.188C116.483 154.181 116.514 154.181 116.544 154.186C116.574 154.192 116.603 154.204 116.628 154.221C116.653 154.238 116.675 154.26 116.691 154.285C116.707 154.31 116.718 154.339 116.722 154.368C117.957 159.733 113.158 164.491 113.109 164.538C113.068 164.579 113.011 164.602 112.953 164.603ZM118.393 169.371C118.337 169.371 118.283 169.35 118.242 169.312C118.201 169.275 118.176 169.224 118.172 169.169C118.172 169.123 117.849 164.535 118.958 160.537C118.965 160.509 118.978 160.483 118.995 160.461C119.013 160.438 119.035 160.419 119.06 160.405C119.085 160.39 119.113 160.381 119.142 160.378C119.171 160.374 119.2 160.376 119.229 160.384C119.257 160.391 119.283 160.404 119.307 160.421C119.33 160.439 119.35 160.46 119.364 160.485C119.379 160.51 119.388 160.537 119.392 160.565C119.396 160.594 119.394 160.623 119.387 160.65C118.297 164.577 118.612 169.093 118.615 169.139C118.617 169.167 118.614 169.195 118.605 169.222C118.596 169.249 118.581 169.274 118.562 169.296C118.543 169.317 118.52 169.334 118.494 169.347C118.468 169.36 118.439 169.367 118.41 169.369L118.393 169.371Z" fill="#EBBEB0"/>
</g>
<path d="M112.265 138.636C111.77 138.636 111.348 138.319 110.903 137.987C110.773 137.888 110.635 137.787 110.493 137.688C110.456 137.663 110.428 137.627 110.412 137.586C110.396 137.544 110.393 137.499 110.404 137.456C110.415 137.412 110.439 137.372 110.474 137.342C110.508 137.312 110.551 137.292 110.597 137.287C111.869 137.158 112.666 136.778 112.963 136.178C113.288 135.514 113.027 134.514 112.211 133.286C112.193 133.263 112.181 133.236 112.174 133.207C112.168 133.178 112.167 133.149 112.173 133.12C112.178 133.091 112.189 133.064 112.206 133.039C112.223 133.015 112.244 132.994 112.269 132.978C112.295 132.962 112.323 132.951 112.352 132.946C112.382 132.941 112.412 132.941 112.442 132.948C112.471 132.955 112.499 132.967 112.523 132.984C112.547 133.002 112.567 133.024 112.583 133.049C113.503 134.429 113.766 135.544 113.364 136.365C113.045 137.017 112.322 137.448 111.188 137.644C111.636 137.983 111.994 138.244 112.374 138.185C112.755 138.126 113.165 137.758 113.658 137.054C113.691 137.007 113.743 136.974 113.801 136.964C113.859 136.953 113.919 136.966 113.967 136.998C114.016 137.031 114.049 137.081 114.06 137.138C114.071 137.194 114.058 137.253 114.024 137.3C113.451 138.117 112.949 138.534 112.444 138.612C112.385 138.625 112.325 138.633 112.265 138.636V138.636ZM112.508 140.007C112.454 140.007 112.403 139.988 112.363 139.954C112.322 139.919 112.296 139.872 112.289 139.82C112.281 139.768 112.293 139.716 112.322 139.672C112.351 139.628 112.396 139.596 112.447 139.582C112.461 139.582 113.87 139.168 114.066 138.021C114.079 137.967 114.112 137.92 114.159 137.889C114.206 137.859 114.263 137.847 114.319 137.856C114.375 137.865 114.425 137.894 114.459 137.938C114.494 137.982 114.51 138.037 114.504 138.092C114.262 139.51 112.638 139.98 112.569 139.999C112.549 140.004 112.529 140.007 112.508 140.007Z" fill="#DBDBDB"/>
<path d="M137.831 142.295C135.851 141.573 133.751 141.215 131.638 141.241C129.684 142.282 127.683 143.631 126.948 145.241C128.8 146.18 134.306 144.962 136.573 143.434C137.047 143.117 137.471 142.734 137.831 142.295Z" fill="#9E1414"/>
<path d="M126.722 145.855C126.686 145.855 126.65 145.846 126.618 145.829C126.592 145.816 126.569 145.798 126.551 145.776C126.532 145.754 126.518 145.729 126.51 145.701C126.502 145.674 126.499 145.645 126.502 145.617C126.505 145.589 126.514 145.561 126.528 145.536C128.471 142.002 133.95 139.329 136.995 138.821C138.072 138.651 138.814 138.733 139.201 139.08C139.223 139.099 139.24 139.123 139.252 139.149C139.264 139.174 139.271 139.202 139.272 139.231C139.273 139.259 139.269 139.288 139.259 139.315C139.249 139.341 139.233 139.366 139.213 139.387C139.193 139.408 139.17 139.425 139.143 139.437C139.116 139.448 139.088 139.455 139.059 139.456C139.029 139.457 139 139.453 138.973 139.443C138.945 139.433 138.92 139.418 138.899 139.399C138.631 139.156 137.964 139.102 137.07 139.248C134.047 139.744 128.732 142.451 126.918 145.736C126.9 145.772 126.872 145.802 126.838 145.823C126.803 145.844 126.763 145.855 126.722 145.855V145.855Z" fill="#2E0B06"/>
<path d="M133.83 188.653C133.761 188.653 133.694 188.637 133.632 188.608C133.58 188.582 133.533 188.547 133.495 188.504C133.457 188.461 133.428 188.411 133.409 188.357C133.391 188.303 133.384 188.246 133.388 188.189C133.392 188.132 133.408 188.077 133.434 188.026C133.83 187.253 133.477 180.87 132.944 175.256C132.936 175.175 132.952 175.093 132.989 175.02C133.027 174.948 133.085 174.887 133.156 174.844C133.227 174.801 133.309 174.779 133.392 174.779C133.476 174.779 133.558 174.801 133.629 174.844C138.087 177.671 141.167 181.716 141.296 181.885C141.352 181.978 141.371 182.088 141.348 182.194C141.326 182.299 141.264 182.393 141.175 182.457C141.085 182.52 140.975 182.549 140.865 182.537C140.755 182.526 140.653 182.474 140.58 182.394C140.552 182.355 137.825 178.778 133.913 176.073C134.195 179.205 134.841 187.202 134.228 188.399C134.193 188.474 134.137 188.537 134.066 188.582C133.996 188.627 133.914 188.652 133.83 188.653V188.653Z" fill="#D6BB9A"/>
<path d="M97.8491 263.573C104.955 262.417 118.579 253.603 121.096 253.603C123.613 253.603 134.422 258.081 136.052 258.371C134.422 260.971 130.573 261.405 128.204 260.537C125.834 259.669 123.465 259.237 123.02 259.237C121.688 260.105 119.171 261.839 119.171 261.839C119.171 261.839 123.91 260.683 124.947 261.115C125.984 261.547 134.867 265.013 135.459 265.595C136.052 266.176 131.758 268.476 131.61 268.919C131.61 270.797 128.351 272.387 125.539 271.375C122.727 270.363 119.764 269.785 118.284 270.507C116.804 271.229 113.84 272.097 113.84 272.097C115.08 271.927 122.428 272.241 123.465 272.965C124.502 273.688 122.578 274.843 118.428 274.843C114.278 274.843 109.395 275.709 106.878 277.877C104.361 280.045 97.9933 280.333 96.0686 278.743C94.144 277.153 90.293 274.697 90.293 274.697C94.4428 271.525 97.8491 263.573 97.8491 263.573Z" fill="#FF8863"/>
<g style="mix-blend-mode:multiply">
<path d="M131.165 268.418H131.115C129.187 267.989 127.334 266.84 125.847 265.915C124.883 265.318 124.052 264.803 123.509 264.679C122.704 264.499 120.347 264.879 118.452 265.188C116.979 265.425 115.708 265.632 115.108 265.608C115.05 265.605 114.994 265.58 114.955 265.538C114.915 265.496 114.894 265.44 114.896 265.382C114.896 265.354 114.903 265.325 114.915 265.299C114.926 265.273 114.944 265.249 114.965 265.229C114.987 265.21 115.013 265.195 115.041 265.185C115.068 265.176 115.098 265.172 115.127 265.174C115.678 265.198 116.991 264.984 118.379 264.76C120.512 264.421 122.722 264.059 123.608 264.252C124.226 264.391 125.046 264.901 126.085 265.545C127.544 266.45 129.361 267.579 131.214 267.991C131.266 268.004 131.312 268.035 131.342 268.078C131.373 268.121 131.386 268.173 131.38 268.225C131.374 268.277 131.349 268.326 131.31 268.361C131.27 268.396 131.219 268.417 131.165 268.418V268.418ZM113.84 260.508C113.811 260.508 113.782 260.502 113.756 260.492C113.729 260.481 113.704 260.465 113.684 260.445C113.642 260.404 113.619 260.349 113.619 260.292C113.619 260.234 113.642 260.179 113.684 260.138C114.236 259.599 114.34 259.214 114.255 259.033C114.17 258.852 113.781 258.731 113.248 258.774C113.218 258.777 113.188 258.775 113.16 258.766C113.131 258.758 113.104 258.744 113.081 258.726C113.058 258.707 113.039 258.685 113.025 258.659C113.012 258.633 113.003 258.605 113.001 258.576C112.998 258.547 113.002 258.518 113.011 258.49C113.021 258.463 113.036 258.437 113.055 258.415C113.075 258.393 113.099 258.375 113.126 258.363C113.152 258.35 113.182 258.343 113.211 258.341C114.226 258.265 114.552 258.626 114.658 258.85C114.856 259.267 114.622 259.833 113.998 260.443C113.978 260.464 113.953 260.48 113.926 260.491C113.899 260.502 113.87 260.508 113.84 260.508V260.508ZM112.508 264.518C112.479 264.518 112.45 264.512 112.423 264.501C112.396 264.49 112.372 264.474 112.352 264.454C112.31 264.413 112.286 264.358 112.286 264.3C112.286 264.243 112.31 264.188 112.352 264.147C112.904 263.61 113.008 263.223 112.923 263.042C112.838 262.86 112.449 262.742 111.916 262.782C111.886 262.785 111.857 262.783 111.829 262.774C111.801 262.766 111.775 262.752 111.752 262.733C111.73 262.715 111.711 262.692 111.698 262.666C111.685 262.641 111.678 262.613 111.676 262.584C111.671 262.527 111.69 262.47 111.728 262.426C111.766 262.382 111.82 262.355 111.879 262.35C112.894 262.274 113.22 262.637 113.326 262.859C113.524 263.277 113.29 263.843 112.664 264.452C112.644 264.472 112.62 264.489 112.593 264.5C112.566 264.512 112.537 264.518 112.508 264.518V264.518ZM111.657 269.72C111.613 269.72 111.57 269.707 111.534 269.683C111.497 269.659 111.469 269.625 111.452 269.585C111.435 269.546 111.431 269.502 111.439 269.46C111.447 269.418 111.468 269.379 111.499 269.349C112.051 268.81 112.157 268.425 112.072 268.244C111.987 268.062 111.598 267.942 111.063 267.984C111.034 267.987 111.004 267.984 110.977 267.975C110.949 267.966 110.923 267.952 110.901 267.934C110.879 267.916 110.861 267.893 110.848 267.868C110.834 267.842 110.827 267.814 110.825 267.786C110.82 267.729 110.839 267.672 110.877 267.628C110.915 267.584 110.969 267.557 111.028 267.552C112.041 267.476 112.369 267.839 112.475 268.061C112.673 268.479 112.438 269.045 111.813 269.654C111.793 269.674 111.769 269.691 111.742 269.702C111.715 269.714 111.686 269.72 111.657 269.72V269.72Z" fill="#EBBEB0"/>
</g>
<path d="M86.9647 175.771C97.2931 177.505 101.957 204.164 99.2977 213.809C96.6383 223.454 89.4139 217.818 89.0804 216.301C83.0842 216.843 67.3136 232.339 67.3136 232.339C70.9735 237.639 86.7424 257.871 97.849 263.572C94.7397 271.663 88.964 277.082 86.8535 277.841C77.081 274.805 57.9788 266.246 48.2062 257.901C38.4336 249.557 36.5455 245.222 35.5467 243.921C34.5479 242.619 33.2138 238.497 36.3231 234.818C42.21 223.548 60.0893 198.407 71.4113 188.87C82.7333 179.334 86.9647 175.771 86.9647 175.771Z" fill="#FFF6E6"/>
<path d="M93.9616 218.407C93.8839 218.407 93.8076 218.387 93.7403 218.35C93.6729 218.312 93.6169 218.258 93.5777 218.192C93.1601 217.563 92.566 217.065 91.8663 216.756C91.1666 216.448 90.3908 216.342 89.6312 216.451C89.5391 216.462 89.4457 216.445 89.3639 216.402C89.2822 216.36 89.2159 216.293 89.1743 216.212C89.1333 216.131 89.1194 216.04 89.1347 215.951C89.15 215.861 89.1936 215.779 89.2594 215.716C90.0706 214.922 92.9072 214.631 95.0212 215.867C95.1221 215.926 95.1948 216.021 95.2233 216.133C95.2518 216.244 95.2338 216.362 95.1732 216.461C95.1126 216.559 95.0144 216.63 94.9003 216.658C94.7861 216.686 94.6653 216.668 94.5644 216.609C93.8113 216.183 92.964 215.94 92.0943 215.9C93.0189 216.283 93.8031 216.929 94.3438 217.755C94.3827 217.821 94.4033 217.895 94.4033 217.971C94.4034 218.047 94.3829 218.122 94.3441 218.188C94.3052 218.254 94.2492 218.309 94.1818 218.347C94.1143 218.385 94.0378 218.405 93.9599 218.406L93.9616 218.407ZM61.1264 238.293C61.0571 238.293 60.9888 238.277 60.9266 238.247C60.8215 238.196 60.7416 238.106 60.7045 237.997C60.6674 237.888 60.6761 237.769 60.7286 237.666C60.805 237.517 62.4014 234.457 65.5784 232.654C63.2803 232.549 59.174 232.528 56.7004 233.501C56.5922 233.539 56.4733 233.534 56.3686 233.488C56.264 233.441 56.1817 233.358 56.139 233.253C56.0964 233.149 56.0966 233.033 56.1398 232.929C56.1829 232.825 56.2655 232.742 56.3704 232.696C60.1311 231.23 67.0584 231.881 67.3519 231.91C67.4525 231.918 67.5471 231.96 67.6199 232.028C67.6928 232.097 67.7396 232.187 67.7526 232.285C67.7655 232.382 67.7439 232.482 67.6913 232.566C67.6386 232.65 67.5581 232.714 67.4631 232.747C63.5739 234.149 61.5433 238.024 61.5242 238.063C61.4858 238.133 61.4284 238.191 61.3583 238.232C61.2882 238.273 61.208 238.294 61.1264 238.293V238.293ZM221.519 162.059C221.535 162.124 221.535 162.192 221.519 162.257C221.504 162.312 221.479 162.364 221.443 162.409C221.408 162.454 221.364 162.492 221.314 162.521C221.263 162.55 221.208 162.568 221.15 162.576C221.092 162.584 221.034 162.58 220.977 162.566C220.812 162.525 217.416 161.628 214.953 158.967C215.321 161.182 216.145 165.108 217.621 167.273C217.658 167.32 217.684 167.374 217.698 167.431C217.713 167.488 217.715 167.548 217.705 167.606C217.695 167.665 217.673 167.72 217.64 167.77C217.607 167.819 217.564 167.862 217.513 167.895C217.463 167.928 217.406 167.95 217.347 167.961C217.287 167.971 217.226 167.97 217.167 167.957C217.108 167.944 217.052 167.919 217.004 167.884C216.955 167.849 216.914 167.805 216.883 167.754C214.637 164.466 213.866 157.714 213.833 157.43C213.822 157.332 213.846 157.234 213.9 157.151C213.954 157.068 214.035 157.005 214.13 156.972C214.225 156.94 214.328 156.94 214.423 156.973C214.517 157.005 214.598 157.069 214.651 157.152C216.857 160.577 221.16 161.718 221.203 161.728C221.282 161.749 221.353 161.791 221.409 161.85C221.465 161.908 221.503 161.98 221.519 162.059V162.059ZM38.0273 244.505C37.9561 244.505 37.8859 244.489 37.8223 244.458C36.2173 243.644 35.3748 242.207 35.453 240.407C35.5451 238.235 36.9538 236.068 38.1523 235.581C38.2611 235.536 38.3836 235.535 38.4931 235.578C38.6025 235.622 38.6899 235.705 38.736 235.812C38.7821 235.918 38.783 236.037 38.7387 236.144C38.6944 236.251 38.6085 236.336 38.4997 236.381C37.6972 236.707 36.4292 238.493 36.3458 240.449C36.3007 241.466 36.5942 242.863 38.2375 243.695C38.3262 243.739 38.3971 243.812 38.4385 243.9C38.48 243.989 38.4896 244.088 38.4659 244.183C38.4422 244.277 38.3865 244.361 38.3079 244.421C38.2292 244.481 38.1322 244.513 38.0325 244.512L38.0273 244.505ZM222.645 176.573C222.695 176.62 222.734 176.678 222.758 176.743C223.338 178.414 222.923 180.021 221.59 181.265C219.98 182.768 217.422 183.378 216.216 182.921C216.111 182.876 216.027 182.794 215.982 182.69C215.938 182.587 215.937 182.47 215.978 182.366C216.02 182.261 216.101 182.176 216.205 182.129C216.31 182.082 216.429 182.076 216.537 182.112C217.349 182.419 219.532 181.989 220.976 180.639C221.733 179.933 222.509 178.731 221.915 177.021C221.884 176.928 221.885 176.829 221.918 176.737C221.951 176.646 222.015 176.568 222.099 176.516C222.183 176.464 222.282 176.441 222.381 176.451C222.48 176.461 222.573 176.502 222.645 176.57V176.573ZM82.3009 275.715C82.2002 275.715 82.1027 275.681 82.0243 275.619C81.9459 275.558 81.8912 275.472 81.8693 275.376C81.8473 275.28 81.8593 275.18 81.9033 275.092C81.9473 275.003 82.0207 274.932 82.1115 274.89C82.1828 274.858 89.2647 271.5 93.2894 261.684C93.3094 261.629 93.3406 261.578 93.3811 261.535C93.4216 261.492 93.4706 261.458 93.5252 261.434C93.5798 261.41 93.6388 261.396 93.6987 261.395C93.7585 261.394 93.8181 261.404 93.8737 261.426C93.9293 261.448 93.9798 261.48 94.0223 261.521C94.0647 261.563 94.0982 261.612 94.1207 261.666C94.1432 261.72 94.1542 261.778 94.1531 261.837C94.1521 261.895 94.1389 261.953 94.1145 262.006C89.9456 272.163 82.7925 275.536 82.4902 275.675C82.4311 275.702 82.3663 275.716 82.3009 275.715V275.715ZM262.875 138.625C262.853 138.722 262.798 138.808 262.719 138.87C262.64 138.932 262.542 138.966 262.44 138.966C262.339 138.966 262.241 138.932 262.162 138.87C262.083 138.808 262.028 138.722 262.006 138.625C261.989 138.551 260.248 131.059 251.358 125.008C251.261 124.942 251.195 124.841 251.175 124.728C251.154 124.615 251.18 124.498 251.248 124.403C251.315 124.309 251.418 124.245 251.535 124.225C251.651 124.204 251.77 124.23 251.867 124.296C261.061 130.555 262.81 138.125 262.875 138.444C262.888 138.504 262.888 138.566 262.875 138.625Z" fill="#D6BB9A"/>
<path d="M165.962 248.263C165.876 248.263 165.792 248.239 165.719 248.194C165.647 248.148 165.59 248.083 165.555 248.006C165.521 247.929 165.51 247.844 165.523 247.761C165.537 247.678 165.575 247.601 165.634 247.539C170.871 241.875 173.103 229.523 172.627 223.152C172.625 223.041 172.667 222.933 172.744 222.851C172.82 222.769 172.927 222.719 173.04 222.712C173.154 222.704 173.266 222.739 173.354 222.809C173.442 222.88 173.499 222.981 173.513 223.091C173.99 229.613 171.694 242.278 166.292 248.119C166.25 248.164 166.199 248.201 166.143 248.225C166.086 248.25 166.024 248.263 165.962 248.263V248.263ZM176.921 246.239C176.865 246.24 176.809 246.23 176.758 246.209C176.703 246.188 176.654 246.157 176.611 246.118C176.569 246.079 176.536 246.031 176.513 245.979C176.489 245.927 176.477 245.871 176.476 245.814C176.475 245.757 176.486 245.701 176.507 245.648C176.551 245.539 180.879 234.657 179 224.645C178.993 224.539 179.025 224.434 179.092 224.35C179.159 224.266 179.255 224.208 179.362 224.189C179.47 224.169 179.58 224.189 179.674 224.244C179.767 224.299 179.836 224.386 179.869 224.487C181.795 234.751 177.372 245.855 177.327 245.965C177.295 246.045 177.24 246.114 177.167 246.163C177.095 246.212 177.009 246.238 176.921 246.239V246.239Z" fill="#3F4F8A"/>
<path d="M291.348 243.975C291.097 243.977 290.851 243.909 290.638 243.78C289.679 243.209 289.328 241.543 288.798 239.02C288.232 236.331 287.528 232.985 285.807 229.827C285.752 229.725 285.74 229.607 285.774 229.497C285.809 229.387 285.886 229.295 285.99 229.241C286.094 229.187 286.216 229.176 286.328 229.209C286.441 229.243 286.535 229.319 286.59 229.42C288.372 232.688 289.092 236.102 289.668 238.846C290.099 240.895 290.473 242.665 291.1 243.039C291.168 243.079 291.245 243.104 291.324 243.11C291.404 243.117 291.484 243.105 291.558 243.077C293.252 242.617 293.62 236.542 293.455 232.822C293.452 232.765 293.461 232.708 293.481 232.654C293.501 232.601 293.531 232.552 293.571 232.51C293.61 232.468 293.657 232.433 293.71 232.409C293.763 232.385 293.821 232.372 293.879 232.369C293.996 232.365 294.111 232.406 294.198 232.484C294.284 232.561 294.336 232.668 294.343 232.783C294.419 234.505 294.657 243.138 291.796 243.912C291.65 243.953 291.5 243.974 291.348 243.975V243.975Z" fill="#6B1A0E"/>
<path d="M296.53 203.951C296.279 203.952 296.033 203.885 295.819 203.756C294.862 203.185 294.511 201.519 293.982 198.996C293.415 196.308 292.71 192.961 290.989 189.803C290.959 189.752 290.94 189.697 290.933 189.639C290.926 189.581 290.931 189.523 290.948 189.467C290.964 189.411 290.992 189.359 291.03 189.314C291.067 189.269 291.114 189.232 291.166 189.204C291.219 189.177 291.277 189.161 291.336 189.155C291.395 189.15 291.455 189.157 291.512 189.175C291.568 189.193 291.621 189.221 291.666 189.259C291.711 189.297 291.747 189.344 291.774 189.396C293.556 192.664 294.273 196.078 294.85 198.822C295.283 200.871 295.654 202.641 296.283 203.015C296.352 203.055 296.428 203.08 296.508 203.086C296.587 203.092 296.667 203.081 296.742 203.053C298.434 202.595 298.804 196.518 298.637 192.798C298.637 192.686 298.681 192.578 298.76 192.498C298.839 192.417 298.947 192.369 299.061 192.364C299.176 192.359 299.288 192.397 299.374 192.471C299.461 192.544 299.514 192.647 299.524 192.759C299.603 194.483 299.841 203.114 296.98 203.888C296.833 203.929 296.682 203.95 296.53 203.951V203.951Z" fill="#4D130A"/>
<path d="M297.749 219.502C297.655 219.502 297.563 219.473 297.487 219.419C297.41 219.365 297.354 219.288 297.325 219.201C297.313 219.163 295.918 215.178 289.02 209.429C288.973 209.393 288.933 209.348 288.904 209.297C288.875 209.245 288.856 209.189 288.85 209.13C288.844 209.072 288.85 209.013 288.868 208.957C288.886 208.901 288.915 208.849 288.954 208.804C288.993 208.759 289.041 208.723 289.095 208.697C289.149 208.671 289.208 208.656 289.268 208.653C289.328 208.649 289.388 208.658 289.445 208.678C289.501 208.698 289.553 208.729 289.597 208.77C296.719 214.702 298.109 218.77 298.171 218.94C298.207 219.049 298.197 219.168 298.143 219.27C298.089 219.372 297.996 219.45 297.885 219.485C297.84 219.497 297.795 219.503 297.749 219.502V219.502Z" fill="#6B1A0E"/>
<path d="M417.023 176.307C408.138 176.74 393.7 197.98 391.923 204.482C392.59 207.95 401.252 208.38 401.252 208.38C402.816 211.062 397.104 226.613 395.756 230.186C396.67 230.472 397.544 230.864 398.362 231.354C401.914 233.522 408.579 229.62 408.579 229.62C408.579 229.62 425.906 175.873 417.023 176.307Z" fill="#4D130A"/>
<path d="M398.834 202.132C397.618 202.132 396.19 201.922 395.03 201.371C393.908 200.837 393.17 200.071 392.834 199.093C392.812 199.038 392.802 198.98 392.804 198.921C392.806 198.862 392.82 198.804 392.846 198.751C392.871 198.698 392.908 198.65 392.953 198.611C392.998 198.572 393.05 198.542 393.107 198.523C393.165 198.505 393.225 198.498 393.285 198.503C393.345 198.507 393.404 198.524 393.457 198.552C393.51 198.579 393.557 198.617 393.595 198.663C393.633 198.709 393.661 198.762 393.677 198.819C393.934 199.568 394.519 200.164 395.414 200.592C397.253 201.464 399.765 201.349 400.654 201.039C400.71 201.018 400.769 201.008 400.829 201.009C400.888 201.011 400.947 201.024 401.001 201.048C401.055 201.072 401.104 201.107 401.144 201.15C401.184 201.192 401.215 201.243 401.235 201.297C401.255 201.352 401.264 201.41 401.26 201.468C401.257 201.526 401.242 201.583 401.215 201.635C401.189 201.687 401.152 201.733 401.107 201.771C401.062 201.809 401.01 201.838 400.953 201.856C400.266 202.056 399.551 202.15 398.834 202.132ZM402.461 195.703C401.245 195.703 399.819 195.493 398.657 194.942C397.535 194.408 396.796 193.642 396.463 192.662C396.432 192.555 396.445 192.441 396.499 192.342C396.552 192.244 396.642 192.17 396.75 192.134C396.859 192.099 396.977 192.106 397.08 192.153C397.183 192.2 397.264 192.284 397.305 192.388C397.561 193.139 398.146 193.744 399.042 194.162C400.882 195.035 403.385 194.92 404.283 194.61C404.339 194.589 404.398 194.579 404.457 194.58C404.517 194.582 404.575 194.595 404.629 194.619C404.684 194.643 404.732 194.678 404.773 194.72C404.813 194.763 404.844 194.813 404.864 194.868C404.884 194.923 404.892 194.981 404.889 195.039C404.886 195.097 404.87 195.154 404.844 195.206C404.818 195.258 404.781 195.304 404.736 195.342C404.691 195.38 404.639 195.409 404.582 195.427C403.894 195.627 403.178 195.72 402.461 195.703ZM405.945 189.923C404.73 189.923 403.302 189.713 402.14 189.162C401.017 188.628 400.279 187.862 399.946 186.882C399.917 186.776 399.931 186.662 399.984 186.565C400.038 186.468 400.128 186.394 400.236 186.36C400.343 186.325 400.46 186.331 400.563 186.378C400.665 186.424 400.746 186.507 400.788 186.609C401.044 187.359 401.631 187.955 402.525 188.382C404.365 189.255 406.877 189.14 407.766 188.83C407.821 188.809 407.881 188.799 407.94 188.8C408 188.802 408.058 188.815 408.112 188.839C408.166 188.863 408.215 188.898 408.255 188.94C408.296 188.983 408.327 189.034 408.347 189.088C408.367 189.143 408.375 189.201 408.372 189.259C408.368 189.317 408.353 189.374 408.327 189.426C408.3 189.478 408.264 189.524 408.219 189.562C408.174 189.6 408.121 189.629 408.065 189.647C407.378 189.847 406.662 189.94 405.945 189.923Z" fill="#1F0803"/>
<path d="M271.888 117.103C270.966 117.103 270.342 116.884 269.932 116.425C269.361 115.779 269.237 114.686 269.517 112.804C269.206 112.902 268.877 112.935 268.551 112.902C268.226 112.869 267.911 112.77 267.627 112.611C267.047 112.272 266.375 111.533 266.354 109.89C265.138 110.238 264.115 110.107 263.467 109.512C262.913 109.004 262.701 108.207 262.866 107.292C261.278 107.765 260.316 107.099 259.869 106.633C259.027 105.753 258.799 104.41 259.123 103.751C259.148 103.699 259.194 103.659 259.249 103.64C259.305 103.621 259.366 103.624 259.42 103.649C259.473 103.674 259.514 103.719 259.533 103.773C259.553 103.828 259.549 103.887 259.524 103.939C259.298 104.393 259.447 105.553 260.194 106.333C260.688 106.841 261.584 107.338 263.09 106.75C263.128 106.734 263.171 106.73 263.211 106.737C263.252 106.745 263.29 106.763 263.321 106.79C263.352 106.817 263.374 106.852 263.386 106.891C263.398 106.93 263.398 106.971 263.387 107.011C263.123 107.929 263.264 108.724 263.773 109.192C264.346 109.719 265.317 109.787 266.507 109.384C266.541 109.372 266.577 109.369 266.612 109.375C266.648 109.38 266.681 109.394 266.71 109.415C266.739 109.435 266.762 109.463 266.778 109.494C266.794 109.526 266.801 109.56 266.8 109.595C266.745 111.24 267.342 111.936 267.853 112.233C268.131 112.39 268.445 112.474 268.766 112.478C269.087 112.482 269.404 112.405 269.685 112.255C269.722 112.234 269.764 112.224 269.807 112.225C269.849 112.227 269.89 112.24 269.925 112.263C269.96 112.286 269.988 112.319 270.004 112.357C270.021 112.395 270.026 112.436 270.019 112.477C269.684 114.435 269.762 115.562 270.267 116.136C270.601 116.513 271.136 116.686 271.98 116.669C272.01 116.666 272.04 116.669 272.068 116.679C272.096 116.689 272.121 116.704 272.143 116.724C272.164 116.744 272.181 116.769 272.192 116.796C272.203 116.823 272.208 116.852 272.206 116.881C272.206 116.909 272.201 116.937 272.19 116.964C272.18 116.99 272.164 117.014 272.143 117.035C272.123 117.055 272.099 117.072 272.072 117.083C272.045 117.094 272.016 117.1 271.987 117.101L271.888 117.103Z" fill="#FF8863"/>
<g style="mix-blend-mode:multiply">
<path d="M271.888 117.102C270.966 117.102 270.342 116.884 269.932 116.424C269.361 115.778 269.237 114.685 269.517 112.804C269.206 112.902 268.877 112.935 268.551 112.902C268.226 112.869 267.911 112.769 267.627 112.611C267.047 112.272 266.375 111.533 266.354 109.89C265.138 110.238 264.115 110.107 263.467 109.512C262.913 109.004 262.701 108.207 262.866 107.292C261.278 107.765 260.316 107.098 259.87 106.632C259.027 105.753 258.8 104.41 259.123 103.751C259.148 103.699 259.194 103.659 259.25 103.64C259.305 103.621 259.366 103.624 259.42 103.649C259.473 103.674 259.514 103.719 259.533 103.773C259.553 103.827 259.549 103.887 259.524 103.939C259.298 104.393 259.447 105.553 260.194 106.332C260.688 106.841 261.584 107.337 263.09 106.749C263.129 106.734 263.171 106.73 263.212 106.737C263.252 106.744 263.29 106.763 263.321 106.79C263.352 106.817 263.374 106.852 263.386 106.891C263.398 106.93 263.398 106.971 263.387 107.01C263.123 107.929 263.264 108.724 263.773 109.192C264.346 109.719 265.317 109.787 266.507 109.383C266.541 109.372 266.577 109.369 266.612 109.374C266.648 109.38 266.681 109.394 266.71 109.414C266.739 109.435 266.762 109.462 266.778 109.494C266.794 109.525 266.801 109.56 266.8 109.595C266.745 111.239 267.342 111.936 267.853 112.233C268.131 112.389 268.445 112.474 268.766 112.478C269.087 112.481 269.404 112.405 269.686 112.255C269.722 112.234 269.764 112.224 269.807 112.225C269.849 112.227 269.89 112.24 269.925 112.263C269.96 112.286 269.988 112.319 270.004 112.356C270.021 112.394 270.026 112.436 270.019 112.477C269.684 114.434 269.762 115.562 270.267 116.136C270.601 116.512 271.136 116.685 271.98 116.668C272.01 116.666 272.04 116.669 272.068 116.679C272.096 116.688 272.121 116.704 272.143 116.724C272.164 116.744 272.181 116.768 272.192 116.795C272.203 116.822 272.208 116.851 272.206 116.88C272.206 116.909 272.201 116.937 272.19 116.964C272.18 116.99 272.164 117.014 272.143 117.035C272.123 117.055 272.099 117.071 272.072 117.083C272.045 117.094 272.016 117.1 271.987 117.101L271.888 117.102ZM263.71 106.246C263.681 106.246 263.651 106.241 263.624 106.229C263.597 106.218 263.573 106.202 263.552 106.181C263.51 106.141 263.487 106.086 263.487 106.028C263.487 105.97 263.51 105.915 263.552 105.875C263.592 105.837 267.521 102.059 269.555 100.235C269.599 100.201 269.655 100.184 269.711 100.188C269.768 100.192 269.82 100.216 269.859 100.257C269.897 100.298 269.918 100.351 269.917 100.406C269.917 100.461 269.895 100.514 269.856 100.554C267.827 102.373 263.903 106.148 263.865 106.185C263.823 106.224 263.768 106.245 263.71 106.246V106.246ZM267.097 108.956C267.05 108.956 267.004 108.941 266.966 108.914C266.928 108.887 266.9 108.848 266.886 108.804C266.871 108.76 266.872 108.713 266.887 108.669C266.903 108.625 266.932 108.588 266.971 108.561C268.546 107.5 272.399 103.747 272.437 103.708C272.479 103.669 272.535 103.647 272.594 103.647C272.652 103.648 272.708 103.67 272.749 103.711C272.79 103.751 272.814 103.805 272.814 103.862C272.815 103.919 272.792 103.974 272.751 104.015C272.592 104.171 268.831 107.836 267.222 108.917C267.186 108.942 267.142 108.956 267.097 108.956ZM270.54 112.039C270.494 112.039 270.449 112.025 270.411 111.999C270.374 111.973 270.345 111.937 270.33 111.894C270.315 111.852 270.314 111.806 270.326 111.762C270.339 111.719 270.365 111.681 270.401 111.653C271.711 110.636 273.971 108.492 273.993 108.47C274.035 108.429 274.092 108.406 274.151 108.406C274.21 108.406 274.266 108.429 274.308 108.47C274.329 108.49 274.345 108.513 274.356 108.539C274.368 108.566 274.373 108.594 274.373 108.622C274.373 108.651 274.368 108.679 274.356 108.705C274.345 108.731 274.329 108.755 274.308 108.775C274.285 108.797 272.008 110.963 270.681 111.995C270.641 112.026 270.591 112.041 270.54 112.039V112.039ZM267.537 118.494C265.789 118.307 263.967 118.979 263.358 119.233C263.404 115.929 262.015 111.736 258.813 108.612C258.772 108.571 258.715 108.549 258.656 108.549C258.597 108.549 258.541 108.571 258.499 108.612C258.458 108.653 258.435 108.708 258.435 108.765C258.435 108.823 258.458 108.878 258.499 108.919C262.294 112.622 263.476 118.055 262.668 121.292C262.661 121.32 262.66 121.349 262.664 121.377C262.668 121.405 262.679 121.432 262.694 121.456C262.709 121.48 262.729 121.501 262.753 121.518C262.776 121.535 262.803 121.547 262.831 121.553C262.849 121.556 262.867 121.556 262.885 121.553C262.935 121.553 262.983 121.536 263.022 121.505C263.061 121.474 263.088 121.432 263.099 121.384C263.232 120.835 263.314 120.275 263.342 119.711C263.377 119.696 265.532 118.713 267.497 118.919C267.555 118.925 267.614 118.908 267.659 118.872C267.705 118.837 267.735 118.785 267.742 118.728C267.744 118.699 267.741 118.671 267.732 118.643C267.723 118.616 267.708 118.591 267.689 118.569C267.67 118.547 267.647 118.53 267.621 118.517C267.595 118.504 267.566 118.496 267.537 118.494Z" fill="#EBBEB0"/>
</g>
<path d="M774.99 -347.17C701.176 -300.793 633.991 -322.62 566.863 -251.694C499.734 -180.768 393.333 165.665 387.745 272.089C382.156 378.513 379.334 509.417 396.141 531.243C412.948 553.07 524.881 550.333 561.275 523.06C597.668 495.787 704.013 430.307 704.013 430.307C709.615 471.224 684.426 536.69 684.426 536.69C762.83 517.6 678.824 509.417 933.524 583.066C1188.22 656.715 1434.53 561.239 1476.51 484.867C1437.32 362.119 1451.32 321.188 1414.93 272.089C1417.78 203.9 1440.11 146.617 1440.11 146.617C1440.11 146.617 1532.49 463.041 1526.89 523.13C1644.44 495.843 1792.78 474.016 1792.78 474.016C1795.63 452.204 1795.63 321.258 1748 122.137C1700.37 -76.9838 1431.72 -306.142 1431.72 -306.142C1353.31 -396.158 1088.86 -415.595 1088.86 -415.595L774.99 -347.17Z" fill="#263238"/>
<path d="M716.572 417.984C715.638 417.99 714.729 417.693 713.989 417.138C713.249 416.584 712.72 415.804 712.486 414.924C712.251 414.043 712.326 413.111 712.697 412.276C713.068 411.441 713.714 410.751 714.533 410.315C715.602 409.745 818.312 354.491 879.895 315.561C845.34 290.22 774.89 210.332 734.22 132.696C595.445 188.27 526.092 252.179 459.662 337.277C458.969 338.087 457.981 338.606 456.905 338.724C455.829 338.843 454.748 338.552 453.886 337.913C453.024 337.274 452.449 336.335 452.28 335.293C452.11 334.25 452.36 333.184 452.977 332.317C520.846 245.441 591.596 180.225 734.576 123.651C735.557 123.264 736.651 123.252 737.639 123.618C738.628 123.983 739.439 124.7 739.908 125.624C781.776 207.234 857.728 291.984 889.589 312.241C890.174 312.612 890.655 313.119 890.988 313.717C891.321 314.315 891.496 314.985 891.496 315.665C891.496 316.346 891.321 317.016 890.988 317.614C890.655 318.212 890.174 318.719 889.589 319.09C828.59 358.27 719.665 416.872 718.525 417.456C717.93 417.79 717.258 417.971 716.572 417.984V417.984Z" fill="#263238"/>
<path d="M446.476 293.874C445.611 293.877 444.766 293.62 444.058 293.137C443.349 292.654 442.811 291.968 442.517 291.176C442.224 290.383 442.189 289.521 442.418 288.708C442.647 287.895 443.128 287.171 443.796 286.635C484.68 253.652 534.431 242.593 536.456 242.176C536.993 242.06 537.549 242.047 538.091 242.14C538.633 242.232 539.151 242.428 539.616 242.715C540.081 243.003 540.482 243.377 540.799 243.816C541.115 244.255 541.34 244.751 541.459 245.275C541.579 245.798 541.592 246.34 541.497 246.868C541.402 247.397 541.201 247.902 540.906 248.355C540.611 248.807 540.227 249.199 539.777 249.507C539.326 249.816 538.818 250.034 538.28 250.151C537.782 250.262 488.387 261.266 449.071 292.957C448.34 293.545 447.424 293.869 446.476 293.874V293.874ZM1328.12 -70.2872C1327.8 -70.2907 1327.48 -70.3279 1327.17 -70.3983C1326.1 -70.6622 1325.17 -71.3225 1324.58 -72.24C1324 -73.1575 1323.8 -74.2606 1324.03 -75.3167C1325.64 -82.0411 1364.09 -240.649 1414.8 -287.4C1415.19 -287.802 1415.66 -288.122 1416.19 -288.34C1416.71 -288.557 1417.28 -288.669 1417.85 -288.668C1418.42 -288.667 1418.98 -288.552 1419.51 -288.332C1420.03 -288.112 1420.5 -287.79 1420.89 -287.386C1421.28 -286.983 1421.59 -286.506 1421.79 -285.984C1421.98 -285.463 1422.07 -284.908 1422.04 -284.353C1422.01 -283.798 1421.86 -283.255 1421.61 -282.756C1421.36 -282.258 1421 -281.815 1420.57 -281.454C1371.69 -236.453 1332.6 -75.0804 1332.19 -73.4549C1331.96 -72.5649 1331.44 -71.7723 1330.71 -71.1997C1329.97 -70.627 1329.07 -70.3063 1328.12 -70.2872V-70.2872ZM1423.29 137.017C1422.58 137.02 1421.87 136.844 1421.25 136.506C1420.62 136.167 1420.09 135.679 1419.72 135.086C1419.13 134.169 1360.98 42.8471 1323.05 19.0754C1322.1 18.4877 1321.44 17.5581 1321.2 16.4912C1320.95 15.4242 1321.16 14.3073 1321.76 13.3861C1322.36 12.4649 1323.32 11.8149 1324.41 11.5791C1325.51 11.3433 1326.65 11.541 1327.6 12.1287C1367.13 36.9007 1424.43 126.902 1426.86 130.723C1427.41 131.647 1427.58 132.747 1427.31 133.786C1427.05 134.826 1426.37 135.722 1425.43 136.281C1424.8 136.716 1424.06 136.971 1423.29 137.017V137.017Z" fill="#263238"/>
</g>
<defs>
<clipPath id="clip0_151_1299">
<rect width="469" height="339" fill="white"/>
</clipPath>
</defs>
</svg>
