<svg width="48" height="48" viewBox="0 0 48 48" fill="none" xmlns="http://www.w3.org/2000/svg">
<path fill-rule="evenodd" clip-rule="evenodd" d="M24 48C37.2548 48 48 37.2548 48 24C48 10.7452 37.2548 0 24 0C10.7452 0 0 10.7452 0 24C0 37.2548 10.7452 48 24 48Z" fill="#EFF2F6"/>
<path d="M21.3338 24C21.3338 22.5273 22.5273 21.3331 24 21.3331C25.4727 21.3331 26.6669 22.5273 26.6669 24C26.6669 25.4727 25.4727 26.6669 24 26.6669C22.5273 26.6669 21.3338 25.4727 21.3338 24ZM19.8921 24C19.8921 26.2688 21.7312 28.1079 24 28.1079C26.2688 28.1079 28.1079 26.2688 28.1079 24C28.1079 21.7312 26.2688 19.8921 24 19.8921C21.7312 19.8921 19.8921 21.7312 19.8921 24ZM27.3105 19.7292C27.3105 20.2591 27.7402 20.6895 28.2708 20.6895C28.8006 20.6895 29.231 20.2591 29.231 19.7292C29.231 19.1994 28.8013 18.7696 28.2708 18.7696C27.7402 18.7696 27.3105 19.1994 27.3105 19.7292ZM20.7677 30.5118C19.9877 30.4763 19.5638 30.3464 19.2821 30.2365C18.9086 30.0911 18.6423 29.9179 18.3619 29.6381C18.0821 29.3583 17.9082 29.0921 17.7635 28.7186C17.6536 28.4368 17.5237 28.0129 17.4882 27.233C17.4494 26.3897 17.4417 26.1363 17.4417 24C17.4417 21.8637 17.4501 21.611 17.4882 20.767C17.5237 19.9871 17.6543 19.5638 17.7635 19.2814C17.9089 18.9079 18.0821 18.6417 18.3619 18.3612C18.6417 18.0814 18.9079 17.9076 19.2821 17.7628C19.5638 17.653 19.9877 17.5231 20.7677 17.4876C21.611 17.4488 21.8643 17.441 24 17.441C26.1363 17.441 26.389 17.4494 27.233 17.4876C28.0129 17.5231 28.4362 17.6536 28.7186 17.7628C29.0921 17.9076 29.3583 18.0814 29.6388 18.3612C29.9186 18.641 30.0918 18.9079 30.2372 19.2814C30.347 19.5632 30.4769 19.9871 30.5124 20.767C30.5512 21.611 30.559 21.8637 30.559 24C30.559 26.1357 30.5512 26.389 30.5124 27.233C30.4769 28.0129 30.3464 28.4368 30.2372 28.7186C30.0918 29.0921 29.9186 29.3583 29.6388 29.6381C29.359 29.9179 29.0921 30.0911 28.7186 30.2365C28.4368 30.3464 28.0129 30.4763 27.233 30.5118C26.3897 30.5506 26.1363 30.5583 24 30.5583C21.8643 30.5583 21.611 30.5506 20.7677 30.5118ZM20.7018 16.0485C19.8501 16.0872 19.2685 16.2223 18.7599 16.42C18.2339 16.6242 17.788 16.8982 17.3428 17.3428C16.8982 17.7874 16.6242 18.2333 16.42 18.7599C16.2223 19.2685 16.0872 19.8501 16.0485 20.7018C16.009 21.5548 16 21.8275 16 24C16 26.1725 16.009 26.4452 16.0485 27.2982C16.0872 28.1499 16.2223 28.7315 16.42 29.2401C16.6242 29.7661 16.8976 30.2126 17.3428 30.6572C17.7874 31.1018 18.2333 31.3751 18.7599 31.58C19.2691 31.7777 19.8501 31.9128 20.7018 31.9515C21.5554 31.9903 21.8275 32 24 32C26.1732 32 26.4452 31.991 27.2982 31.9515C28.1499 31.9128 28.7315 31.7777 29.2401 31.58C29.7661 31.3751 30.212 31.1018 30.6572 30.6572C31.1018 30.2126 31.3751 29.7661 31.58 29.2401C31.7777 28.7315 31.9134 28.1499 31.9515 27.2982C31.9903 26.4446 31.9994 26.1725 31.9994 24C31.9994 21.8275 31.9903 21.5548 31.9515 20.7018C31.9128 19.8501 31.7777 19.2685 31.58 18.7599C31.3751 18.2339 31.1018 17.788 30.6572 17.3428C30.2126 16.8982 29.7661 16.6242 29.2407 16.42C28.7315 16.2223 28.1499 16.0866 27.2989 16.0485C26.4459 16.0097 26.1732 16 24.0006 16C21.8275 16 21.5554 16.009 20.7018 16.0485Z" fill="#18214D"/>
</svg>
