<svg width="48" height="48" viewBox="0 0 48 48" fill="none" xmlns="http://www.w3.org/2000/svg">
<path fill-rule="evenodd" clip-rule="evenodd" d="M24 48C37.2548 48 48 37.2548 48 24C48 10.7452 37.2548 0 24 0C10.7452 0 0 10.7452 0 24C0 37.2548 10.7452 48 24 48Z" fill="#EFF2F6"/>
<path fill-rule="evenodd" clip-rule="evenodd" d="M21.032 31C27.0696 31 30.372 25.6132 30.372 20.9423C30.372 20.7889 30.372 20.6365 30.3624 20.4848C31.0048 19.9852 31.5592 19.3649 32 18.6551C31.4016 18.9411 30.7656 19.1289 30.1152 19.2116C30.8 18.7696 31.3128 18.0753 31.5584 17.256C30.9136 17.6678 30.2088 17.9581 29.4736 18.1141C28.2304 16.6909 26.1512 16.622 24.8288 17.9607C23.9768 18.8239 23.6144 20.111 23.8792 21.3386C21.24 21.1956 18.7808 19.8534 17.1136 17.6454C16.2424 19.2607 16.688 21.3265 18.1304 22.3637C17.608 22.3473 17.0968 22.1957 16.64 21.9218V21.9666C16.6408 23.649 17.7424 25.098 19.2736 25.4314C18.7904 25.5736 18.2832 25.5942 17.792 25.4917C18.2216 26.9321 19.4544 27.9185 20.8584 27.9469C19.696 28.9307 18.26 29.4649 16.7816 29.4631C16.5208 29.4623 16.26 29.4459 16 29.4123C17.5016 30.4495 19.248 31 21.032 30.9974" fill="#18214D"/>
</svg>
