<svg width="48" height="48" viewBox="0 0 48 48" fill="none" xmlns="http://www.w3.org/2000/svg">
<path fill-rule="evenodd" clip-rule="evenodd" d="M24 48C37.2548 48 48 37.2548 48 24C48 10.7452 37.2548 0 24 0C10.7452 0 0 10.7452 0 24C0 37.2548 10.7452 48 24 48Z" fill="#EFF2F6"/>
<path fill-rule="evenodd" clip-rule="evenodd" d="M32 31H28.9231V25.3967C28.9231 23.8596 28.2715 23.0022 27.1031 23.0022C25.8315 23.0022 25.0769 23.8956 25.0769 25.3967V31H22V20.5924H25.0769V21.7629C25.0769 21.7629 26.0423 20 28.2177 20C30.3938 20 32 21.3818 32 24.2415C32 27.1004 32 31 32 31ZM17.5003 18C16.6715 18 16 17.3282 16 16.4997C16 15.6718 16.6715 15 17.5003 15C18.3285 15 19 15.6718 19 16.4997C19.0006 17.3282 18.3285 18 17.5003 18ZM16 31H19V21H16V31Z" fill="#18214D"/>
</svg>
