<svg width="128" height="128" viewBox="0 0 128 128" fill="none" xmlns="http://www.w3.org/2000/svg">
<path d="M112.96 37.44V21.44H92.16L64 0L35.84 21.44H15.04V37.44L0 48.96V121.6H128V48.96L112.96 37.44ZM64 8L81.6 21.44H46.4L64 8ZM21.12 26.88H106.88V64.64L80.64 84.8L64 72L47.68 84.48L21.12 64.64V26.88ZM6.4 52.16L15.04 45.44V60.48L6.4 54.08V52.16ZM6.4 115.2V62.08L41.92 89.28L8.32 115.2H6.4ZM19.2 115.2L64 80.64L108.8 115.2H19.2ZM121.6 115.2H119.68L86.08 89.28L121.6 62.08V115.2ZM121.6 54.08L112.96 60.48V46.08L121.6 52.8V54.08Z" fill="#FFAF18"/>
<path d="M85.4392 35.52H42.5592V41.6H85.4392V35.52ZM96.3192 47.68H31.3594V54.4H96.3192V47.68ZM96.3192 59.84H31.3594V66.56H96.3192V59.84Z" fill="#FFAF18"/>
</svg>
