<svg width="39" height="39" viewBox="0 0 39 39" fill="none" xmlns="http://www.w3.org/2000/svg">
<path fill-rule="evenodd" clip-rule="evenodd" d="M4.55581 13.5742C4.10058 17.8039 4.12088 22.6821 4.75434 26.8946C5.10485 29.2255 7.00719 31.0124 9.35543 31.2166L11.8096 31.4298C16.9268 31.8747 22.0728 31.8747 27.1901 31.4298L29.6442 31.2166C31.9925 31.0124 33.8949 29.2255 34.2454 26.8946C34.8788 22.6821 34.8991 17.8042 34.4438 13.5744C34.385 13.084 34.3188 12.5944 34.2454 12.1055C33.8949 9.77459 31.9925 7.98766 29.6442 7.78352L27.1901 7.57019C22.0728 7.12537 16.9268 7.12537 11.8096 7.57019L9.35543 7.78352C7.00719 7.98766 5.10485 9.77459 4.75434 12.1055C4.68084 12.5943 4.61467 13.0839 4.55581 13.5742ZM12.0207 9.99854C16.9974 9.56592 22.0024 9.56592 26.9791 9.99854L29.4332 10.2119C30.6589 10.3184 31.6519 11.2512 31.8349 12.4679C31.8539 12.5943 31.8725 12.7207 31.8905 12.8472L22.8539 17.8676C20.768 19.0264 18.2317 19.0264 16.1459 17.8676L7.10933 12.8472C7.1273 12.7207 7.14579 12.5943 7.16479 12.4679C7.34776 11.2512 8.34079 10.3184 9.56657 10.2119L12.0207 9.99854ZM32.1886 15.4699C32.5039 19.1549 32.3859 22.8679 31.8349 26.5321C31.6519 27.7489 30.6589 28.6816 29.4331 28.7882L26.979 29.0016C22.0023 29.4342 16.9973 29.4342 12.0206 29.0016L9.56651 28.7882C8.34072 28.6816 7.3477 27.7489 7.16473 26.5321C6.61371 22.8679 6.4958 19.1551 6.811 15.4699L14.962 19.9983C17.7841 21.5661 21.2155 21.5661 24.0375 19.9983L32.1886 15.4699Z" fill="#485FE5"/>
</svg>
