<svg width="39" height="39" viewBox="0 0 39 39" fill="none" xmlns="http://www.w3.org/2000/svg">
<path fill-rule="evenodd" clip-rule="evenodd" d="M19.5 7.71875C12.9934 7.71875 7.71875 12.9934 7.71875 19.5C7.71875 26.0067 12.9934 31.2812 19.5 31.2812C26.0067 31.2812 31.2812 26.0067 31.2812 19.5C31.2812 12.9934 26.0067 7.71875 19.5 7.71875ZM5.28125 19.5C5.28125 11.6472 11.6472 5.28125 19.5 5.28125C27.3528 5.28125 33.7187 11.6472 33.7187 19.5C33.7187 27.3528 27.3528 33.7187 19.5 33.7187C11.6472 33.7187 5.28125 27.3528 5.28125 19.5Z" fill="#485FE5"/>
<path fill-rule="evenodd" clip-rule="evenodd" d="M17.631 15.1267C16.1139 16.3748 15.1004 18.1303 14.7781 20.0681L14.0664 24.3464C13.6969 26.5681 16.2803 28.0597 18.0195 26.6287L21.3688 23.8732C22.8859 22.6252 23.8994 20.8697 24.2217 18.9319L24.9334 14.6535C25.3029 12.4318 22.7197 10.9403 20.9803 12.3712L17.631 15.1267ZM19.5001 17.0624C18.1539 17.0624 17.0626 18.1538 17.0626 19.4999C17.0626 20.8461 18.1539 21.9374 19.5001 21.9374C20.8462 21.9374 21.9376 20.8461 21.9376 19.4999C21.9376 18.1538 20.8462 17.0624 19.5001 17.0624Z" fill="#485FE5"/>
</svg>
