<svg width="28" height="28" viewBox="0 0 28 28" fill="none" xmlns="http://www.w3.org/2000/svg">
<path d="M19.8335 2.33337H8.16683C4.94517 2.33337 2.3335 4.94505 2.3335 8.16671V19.8334C2.3335 23.055 4.94517 25.6667 8.16683 25.6667H19.8335C23.0552 25.6667 25.6668 23.055 25.6668 19.8334V8.16671C25.6668 4.94505 23.0552 2.33337 19.8335 2.33337Z" stroke="#468CF6" stroke-width="2" stroke-linecap="round" stroke-linejoin="round"/>
<path d="M20.4167 7.58337H20.4283M18.6667 13.265C18.8106 14.236 18.6448 15.2276 18.1927 16.0989C17.7406 16.9702 17.0253 17.6767 16.1485 18.118C15.2718 18.5593 14.2782 18.7129 13.3091 18.557C12.34 18.401 11.4447 17.9435 10.7506 17.2494C10.0566 16.5553 9.599 15.6601 9.44306 14.691C9.28712 13.7219 9.44073 12.7283 9.88203 11.8515C10.3233 10.9747 11.0299 10.2594 11.9011 9.80732C12.7724 9.35524 13.764 9.18939 14.735 9.33337C15.7254 9.48024 16.6423 9.94175 17.3503 10.6497C18.0583 11.3577 18.5198 12.2746 18.6667 13.265Z" stroke="#468CF6" stroke-width="2" stroke-linecap="round" stroke-linejoin="round"/>
</svg>
