<svg width="95" height="67" viewBox="0 0 95 67" fill="none" xmlns="http://www.w3.org/2000/svg">
<path d="M83.9696 48.111V1.675C83.9696 1.23076 83.7927 0.80472 83.4777 0.490596C83.1628 0.176473 82.7356 0 82.2902 0H11.7557C11.3103 0 10.8831 0.176473 10.5682 0.490596C10.2532 0.80472 10.0763 1.23076 10.0763 1.675V48.111L0.239365 64.463C0.0864513 64.7171 0.00389902 65.0072 0.000134757 65.3036C-0.0036295 65.6 0.0715293 65.8921 0.217939 66.1501C0.364348 66.408 0.576764 66.6226 0.833504 66.7719C1.09024 66.9213 1.38211 67 1.67931 67H92.3666C92.6638 67 92.9556 66.9213 93.2124 66.7719C93.4691 66.6226 93.6815 66.408 93.8279 66.1501C93.9743 65.8921 94.0495 65.6 94.0457 65.3036C94.042 65.0072 93.9594 64.7171 93.8065 64.463L83.9696 48.111ZM13.4351 3.35H80.6108V46.9H13.4351V3.35ZM4.6453 63.65L12.7069 50.25H81.339L89.4006 63.65H4.6453Z" fill="#2E67BC"/>
<path d="M45.8307 5.51082C45.5238 5.8318 45.3498 6.25658 45.3436 6.70007C45.3467 7.14417 45.5211 7.57004 45.8307 7.88931C46.0665 8.12449 46.3669 8.28465 46.694 8.34953C47.021 8.41441 47.3601 8.3811 47.6681 8.25381C47.9762 8.12652 48.2396 7.91097 48.4248 7.63442C48.6101 7.35787 48.709 7.03274 48.709 6.70013C48.709 6.36753 48.6101 6.04239 48.4248 5.76584C48.2396 5.48929 47.9762 5.27374 47.6681 5.14646C47.3601 5.01917 47.021 4.98586 46.694 5.05074C46.3669 5.11562 46.0665 5.27564 45.8307 5.51082Z" fill="#2E67BC"/>
</svg>
