<svg width="97" height="768" viewBox="0 0 97 768" fill="none" xmlns="http://www.w3.org/2000/svg">
<g opacity="0.5">
<path fill-rule="evenodd" clip-rule="evenodd" d="M54.749 2.51318L50.3005 2.82744C49.9453 2.85124 49.5077 2.83439 49.3119 2.78937V2.78937C49.2553 2.77543 49.2247 2.75996 49.2227 2.74422V1.35177C49.2227 1.08621 50.63 0.97998 52.6552 0.97998H57.4126C59.376 0.97998 60.8451 1.07913 60.8451 1.33407V2.74422C60.8451 2.76935 60.7677 2.79344 60.6299 2.8112C60.4922 2.82896 60.3053 2.83894 60.1105 2.83894C59.9863 2.83869 59.8641 2.83475 59.7535 2.82744L55.2776 2.51318C55.1126 2.50169 54.9139 2.50169 54.749 2.51318Z" stroke="#210F33" stroke-width="1.5" stroke-linecap="round" stroke-linejoin="round"/>
<path d="M52.2773 1.61364H57.7487" stroke="#210F33" stroke-width="1.5" stroke-linecap="round" stroke-linejoin="round"/>
<path d="M6.86791 2.72017V2.42359C6.8679 2.34815 7.34484 2.28686 7.93576 2.28635H10.1003C10.6941 2.28635 11.1754 2.34779 11.1754 2.42359V2.42359V2.72109C11.1752 2.78514 11.5757 2.83749 12.0773 2.83899H13.5203C14.9588 2.83899 16.125 2.69012 16.125 2.50648V2.50648V1.66278C16.1173 1.59054 15.8516 1.5227 15.4035 1.47857L10.4683 0.971061C9.6037 0.882693 8.37465 0.882693 7.51006 0.971061L2.59652 1.47949C2.14669 1.52344 1.88054 1.5914 1.875 1.66371V2.50648C1.875 2.69012 3.04116 2.83899 4.47968 2.83899H5.92272C6.43677 2.83899 6.85348 2.78579 6.85348 2.72017V2.72017" stroke="#210F33" stroke-width="1.5" stroke-linecap="round" stroke-linejoin="round"/>
<circle cx="115.5" cy="745.5" r="22.5" fill="url(#paint0_linear_98_240)"/>
</g>
<defs>
<linearGradient id="paint0_linear_98_240" x1="115.5" y1="723" x2="115.5" y2="768" gradientUnits="userSpaceOnUse">
<stop stop-color="#5743EB"/>
<stop offset="1" stop-color="#5542E8"/>
</linearGradient>
</defs>
</svg>
