<svg width="426" height="291" viewBox="0 0 426 291" fill="none" xmlns="http://www.w3.org/2000/svg">
<path d="M175.601 220.268C170.13 228.123 166.343 257.673 164.021 288.08C184.547 289.878 206.623 290.955 229.072 290.912C235.861 270.045 241.248 251.626 241.773 246.302C243.013 233.71 238.414 215.032 213.015 208.276C213.015 208.276 187.265 203.521 175.601 220.268Z" fill="#DE9681"/>
<path d="M229.072 290.912C235.861 270.045 241.248 251.626 241.773 246.302C242.482 239.102 241.279 229.911 235.372 222.098L182.844 239.14C182.844 239.14 194.925 259.071 196.534 261.571C197.134 262.503 200.01 275.08 203.382 290.487C211.845 290.78 220.431 290.929 229.072 290.912Z" fill="#D38475"/>
<path d="M232.319 290.898C235.044 282.339 242.796 256.993 243.531 243.41C244.425 226.9 233.522 209.232 210.645 206.046C187.768 202.86 171.702 209.952 168.485 221.248C168.485 221.248 164.406 241.363 163.376 249.782C161.884 261.978 161.027 278.881 160.652 287.777C183.102 289.847 207.518 291.066 232.319 290.898Z" fill="#9E5959"/>
<path d="M210.644 206.046C187.767 202.86 171.701 209.952 168.484 221.248C168.484 221.248 167.402 226.586 166.211 232.913C166.979 232.363 167.913 231.943 168.924 232.025C171.413 232.226 201.085 241.162 243.374 237.733C241.778 223.054 230.91 208.868 210.644 206.046ZM229.377 290.911C230.116 288.298 230.837 285.453 231.537 283.252L224.407 241.527L214.219 246.451C214.219 246.451 213.146 255.285 211.181 256.444C209.215 257.602 198.669 247.32 198.669 247.32C198.669 247.32 203.138 258.037 207.963 260.788C210.226 262.078 209.649 279.9 209.055 290.661C215.773 290.84 222.558 290.928 229.377 290.911Z" fill="#8A4949"/>
<path d="M173.943 180.93C173.943 180.93 174.928 197.402 175.251 207.266C175.574 217.13 172.441 241.067 204.442 256.162C233.296 269.774 262.057 257.598 267.772 251.246C276.521 241.521 281.179 228.829 277.824 214.383C274.469 199.936 274.668 185.091 273.52 159.518C272.45 135.681 170.475 137.363 173.943 180.93Z" fill="#F6AF9A"/>
<path d="M216.426 234.84L224.181 261.859C218.318 261.144 212.211 259.593 206.079 256.904L216.426 234.84Z" fill="#D38475"/>
<path d="M173.111 198.515C173.111 198.515 256.041 201.411 276.774 197.356C280.348 202.425 286.604 222.99 288.391 235.01C290.178 247.03 269.982 264.264 222.44 264.264C174.898 264.264 169.894 229.941 169.894 226.176C169.894 222.411 173.111 202.425 173.111 198.515Z" fill="#9E5959"/>
<path d="M276.774 197.356C256.041 201.411 173.111 198.515 173.111 198.515C173.111 202.425 169.894 222.411 169.894 226.176C169.894 227.008 170.139 229.335 171.033 232.453C179.417 234.354 210.221 241.685 251.367 236.949C264.485 235.249 278.875 232.517 288.333 238.376C288.533 237.223 288.552 236.095 288.391 235.01C286.604 222.99 280.348 202.425 276.774 197.356Z" fill="#8A4949"/>
<path d="M276.774 197.356C256.041 201.411 173.111 198.515 173.111 198.515C173.111 202.425 169.894 222.411 169.894 226.176C169.894 226.502 169.931 227.057 170.03 227.799C176.782 229.819 194.118 234.038 220.295 233.707C254.611 233.272 268.016 231.679 274.808 232.838C278.23 233.422 282.652 237.574 286.265 243.551C288.098 240.611 288.788 237.682 288.391 235.01C286.604 222.99 280.348 202.425 276.774 197.356ZM224.406 241.527L214.218 246.451C214.218 246.451 213.146 255.285 211.18 256.444C209.214 257.602 198.669 247.32 198.669 247.32C198.669 247.32 203.137 258.037 207.963 260.788C208.412 261.044 208.749 261.916 208.997 263.231C213.05 263.895 217.516 264.264 222.44 264.264C224.433 264.264 226.378 264.233 228.276 264.174L224.406 241.527Z" fill="#8A4949"/>
<path d="M289.084 287.849C288.83 269.349 288.022 251.919 286.557 240.862C282.127 207.408 266.392 202.192 243.394 204.153C243.394 204.153 213.128 208.462 215.548 238.865C216.427 249.901 219.964 269.682 224.422 290.905C245.904 291.01 267.804 290.109 289.084 287.849Z" fill="#DE9681"/>
<path d="M297.09 286.93C297.432 273.529 297.225 243.618 289.682 225.173C280.65 203.09 256.086 200.847 242.993 202.425C221.367 205.032 212.073 220.528 212.967 234.576C213.722 246.454 217.673 280.595 218.875 290.856C244.817 291.19 271.505 290.091 297.09 286.93Z" fill="#9E5959"/>
<path d="M289.682 225.173C280.65 203.09 256.086 200.847 242.993 202.425C221.367 205.032 212.073 220.528 212.967 234.576C213.034 235.64 213.128 236.884 213.243 238.273C224.417 238.777 237.286 238.57 251.367 236.949C268.077 234.783 286.854 230.942 294.866 245.322C293.733 238.047 292.077 231.032 289.682 225.173Z" fill="#8A4949"/>
<path d="M196.168 87.5819C196.168 87.5819 180.797 82.8027 170.431 93.3747C160.064 103.947 152.379 124.801 141.477 140.876C130.574 156.951 129.68 168.537 135.579 173.171C135.579 173.171 141.477 178.095 153.273 170.709C165.069 163.324 182.406 139.283 187.053 133.78C191.7 128.277 199.953 110.713 202.423 106.843C205.104 102.643 204.747 90.6231 196.168 87.5819Z" fill="#F6AF9A"/>
<path d="M191.385 84.2169C191.385 84.2169 176.94 83.2177 166.37 93.4951C158.923 100.736 150.515 114.478 149.106 119.617C147.697 124.755 137.303 137.459 134.133 144.311C130.962 151.162 124.796 168.577 132.899 174.429C132.899 174.429 139.241 178.711 149.282 175.571C159.324 172.431 163.728 166.864 168.132 162.867C172.536 158.87 188.39 139.743 193.146 133.462C197.903 127.182 210.058 105.628 209.177 97.4918C208.296 89.3556 197.903 84.0742 191.385 84.2169Z" fill="#84B685"/>
<path d="M168.132 162.867C171.215 160.069 179.908 149.857 186.478 141.828C178.222 127.84 165.886 110.196 165.886 110.196C162.715 114.906 159.5 130.179 159.5 130.179C159.5 126.183 158.619 118.475 158.619 118.475C158.619 118.475 160.557 113.764 160.38 109.91C160.262 107.321 159.428 104.151 158.893 102.35C154.093 108.946 150.045 116.192 149.106 119.617C147.697 124.755 137.303 137.459 134.133 144.311C130.962 151.162 124.796 168.577 132.899 174.429C132.899 174.429 133.58 174.889 134.848 175.396C139.436 175.288 143.404 174.331 145.539 173.144C145.539 173.144 157.562 163.509 159.94 149.378C159.94 149.378 160.865 152.804 162.715 153.446C162.715 153.446 160.997 157.943 162.583 160.298C162.583 160.298 160.888 166.389 158.069 171.506C162.438 168.69 165.285 165.45 168.132 162.867Z" fill="#76AD77"/>
<path d="M245.69 77.1959C228.584 74.8702 214.934 76.7707 198.827 80.5932C188.056 83.1497 176.511 85.6127 171.294 91.5223C162.135 101.896 166.313 127.519 168.653 139.379C170.993 151.24 172.767 176.041 174.049 182.411C175.331 188.781 210.214 198.784 231.569 196.18C247.942 194.182 268.999 186.7 271.13 174.551C273.643 160.221 275.529 142.78 276.805 128.179C277.948 115.099 284.997 88.3805 264.978 81.0101C260.4 79.3242 250.195 77.8084 245.69 77.1959Z" fill="#F6AF9A"/>
<path d="M206.113 65.9969C206.113 65.9969 207.709 78.8686 204.658 84.9682C201.607 91.0678 213.988 94.1021 221.835 93.6284C229.682 93.1548 241.453 88.9524 242.24 81.2117C243.027 73.471 237.475 76.6779 236.879 55.7853C236.413 39.4427 202.615 50.0581 206.113 65.9969Z" fill="#F6AF9A"/>
<path d="M236.194 52.4392C231.361 41.1334 202.889 51.3029 206.113 65.997C206.113 65.997 206.89 72.2619 206.324 78.1214C229.385 74.3925 235.391 56.3534 236.194 52.4392Z" fill="#EA9A88"/>
<path d="M179.68 20.7827C179.68 20.7827 176.195 21.4344 175.257 25.3446C174.714 27.6063 175.257 30.3409 175.391 32.0788C175.525 33.8166 174.65 36.6236 175.927 38.9216C176.608 40.1467 179.546 43.8094 179.546 43.8094L179.68 20.7827Z" fill="#E5DDDC"/>
<path d="M211.174 0.0156378C184.604 1.46106 174.396 17.425 177.409 39.0245C177.768 41.5966 178.17 44.0443 178.612 46.3664C178.657 48.8506 178.817 52.9628 179.37 56.1239C180.304 61.4693 184.002 65.8596 186.938 68.5691C189.357 72.2787 192.121 74.5107 195.178 75.1167C200.77 75.9487 206.432 75.4216 211.828 73.7975C216.798 72.6909 234.278 68.0802 238.353 55.3509C243.935 47.2921 245.341 37.5936 244.27 27.2372C241.291 -1.57165 211.174 0.0156378 211.174 0.0156378Z" fill="#F6AF9A"/>
<path d="M197.922 49.4058C197.922 49.4058 199.151 47.1147 205.987 47.1578C211.544 47.193 215.734 47.8293 215.73 50.6346C216.158 54.2718 195.084 55.0458 197.922 49.4058ZM178.647 47.7643C178.702 49.5526 178.817 51.7729 179.052 53.8604C183.044 53.9577 187.652 52.9419 187.847 51.4092C188.006 48.6351 182.977 47.879 178.647 47.7643Z" fill="#EDA48E"/>
<path d="M204.238 45.3372C205.627 45.2634 206.663 44.0816 206.551 42.6977C206.439 41.3138 205.221 40.2518 203.832 40.3257C202.443 40.3996 201.408 41.5813 201.52 42.9652C201.632 44.3491 202.849 45.4111 204.238 45.3372Z" fill="#121D3F"/>
<path d="M185.755 45.3377C187.144 45.2639 188.18 44.0821 188.067 42.6982C187.955 41.3143 186.738 40.2523 185.349 40.3262C183.96 40.4001 182.925 41.5818 183.037 42.9657C183.149 44.3496 184.366 45.4116 185.755 45.3377Z" fill="#121D3F"/>
<path d="M194.427 54.4623C192.825 54.5519 190.566 54.4819 189.66 53.5127C189.317 53.1465 189.021 52.5119 189.555 51.5685C191.652 47.8591 192.422 42.0902 192.43 42.0325C192.482 41.6334 192.923 41.3438 193.416 41.3859C193.908 41.4279 194.266 41.7856 194.214 42.1847C194.182 42.4303 193.407 48.2459 191.185 52.1741C191.139 52.2564 190.995 52.5327 191.09 52.6345C191.498 53.0713 193.778 53.1236 195.571 52.8968C196.061 52.8362 196.519 53.1059 196.596 53.5024C196.673 53.8988 196.338 54.2706 195.849 54.3329C195.539 54.3723 195.029 54.4286 194.427 54.4623Z" fill="#E08C79"/>
<path d="M196.866 35.3075C197.214 34.3314 199.165 34.3827 201.756 34.657C202.568 34.5019 203.256 34.7237 203.587 34.8661C203.999 34.9148 204.421 34.9643 204.848 35.0121C205.162 34.989 206.603 34.8919 207.405 35.0022C207.811 35.058 208.227 35.1931 208.564 35.3253C208.917 35.3405 209.268 35.3503 209.616 35.3531C213.937 35.3875 214.364 37.0189 210.674 37.4064C210.245 37.4515 209.817 37.4917 209.39 37.5282C208.515 37.8892 207.685 37.8059 207.164 37.6827C206.634 37.7109 206.113 37.7327 205.603 37.7481C204.595 38.1913 203.886 37.9166 203.627 37.777C203.548 37.7768 203.47 37.7765 203.393 37.776C203.138 37.9017 202.526 38.1611 201.858 38.1285C201.199 38.0963 200.616 37.801 200.366 37.6562C200.277 37.6489 200.189 37.6413 200.102 37.6333C199.761 37.7681 198.847 38.0805 198.204 37.843C196.91 37.3657 196.804 36.6312 196.796 36.5293C196.44 35.9328 196.866 35.3075 196.866 35.3075Z" fill="#E5DDDC"/>
<path d="M197.139 36.2203C197.139 36.2203 196.973 35.4989 197.538 35.1431C198.104 34.7873 198.945 34.7214 199.748 34.8676C200.552 35.0138 200.118 35.2245 199.49 35.39C198.861 35.5554 198.123 35.3077 197.819 35.6941C197.515 36.0803 197.391 36.9815 197.139 36.2203Z" fill="#EAE4E4"/>
<path d="M196.658 35.9409C196.68 36.0124 196.711 36.0845 196.754 36.1562C196.762 36.258 196.868 36.9925 198.162 37.4699C198.805 37.7073 199.719 37.395 200.06 37.2602C200.146 37.2681 200.234 37.2758 200.324 37.283C200.573 37.4278 201.157 37.723 201.816 37.7553C202.484 37.7879 203.096 37.5286 203.351 37.4029C203.428 37.4033 203.506 37.4037 203.585 37.4039C203.844 37.5436 204.553 37.8182 205.561 37.3751C206.071 37.3596 206.592 37.3379 207.122 37.3097C207.643 37.4328 208.473 37.5161 209.348 37.1551C209.775 37.1186 210.201 37.066 210.632 37.0334C211.776 36.9467 212.574 36.8 213.077 36.6238C212.816 36.9583 212.02 37.2653 210.674 37.4066C210.245 37.4517 209.817 37.4919 209.39 37.5285C208.516 37.8894 207.685 37.8061 207.164 37.6829C206.634 37.7111 206.113 37.7329 205.603 37.7483C204.595 38.1915 203.886 37.9169 203.627 37.7772C203.549 37.777 203.47 37.7767 203.393 37.7762C203.139 37.9019 202.526 38.1613 201.858 38.1287C201.199 38.0965 200.616 37.8013 200.366 37.6564C200.277 37.6491 200.189 37.6415 200.102 37.6335C199.762 37.7683 198.848 38.0807 198.204 37.8432C196.911 37.3659 196.805 36.6314 196.796 36.5295C196.676 36.328 196.646 36.1238 196.658 35.9409Z" fill="#D6CDCC"/>
<path d="M190.86 35.3075C190.513 34.3314 188.562 34.3827 185.97 34.657C185.159 34.5019 184.47 34.7237 184.14 34.8661C183.727 34.9148 183.306 34.9643 182.879 35.0121C182.564 34.989 181.124 34.8919 180.321 35.0022C179.916 35.058 179.5 35.1931 179.163 35.3253C178.81 35.3405 178.459 35.3503 178.111 35.3531C173.79 35.3875 173.362 37.0189 177.052 37.4064C177.482 37.4515 177.91 37.4917 178.337 37.5282C179.211 37.8892 180.042 37.8059 180.563 37.6827C181.092 37.7109 181.614 37.7327 182.123 37.7481C183.132 38.1913 183.84 37.9166 184.1 37.777C184.178 37.7768 184.256 37.7765 184.334 37.776C184.588 37.9017 185.2 38.1611 185.869 38.1285C186.528 38.0963 187.111 37.801 187.361 37.6562C187.45 37.6489 187.538 37.6413 187.625 37.6333C187.965 37.7681 188.879 38.0805 189.523 37.843C190.816 37.3657 190.922 36.6312 190.931 36.5293C191.286 35.9328 190.86 35.3075 190.86 35.3075Z" fill="#E5DDDC"/>
<path d="M190.587 36.2203C190.587 36.2203 190.753 35.4989 190.188 35.1431C189.622 34.7873 188.781 34.7214 187.977 34.8676C187.174 35.0138 187.608 35.2245 188.236 35.39C188.865 35.5554 189.603 35.3077 189.907 35.6941C190.211 36.0803 190.335 36.9815 190.587 36.2203Z" fill="#EAE4E4"/>
<path d="M191.069 35.9409C191.046 36.0124 191.015 36.0845 190.973 36.1562C190.964 36.258 190.858 36.9925 189.565 37.4699C188.921 37.7073 188.007 37.395 187.666 37.2602C187.58 37.2681 187.492 37.2758 187.403 37.283C187.153 37.4278 186.57 37.723 185.911 37.7553C185.242 37.7879 184.63 37.5286 184.376 37.4029C184.298 37.4033 184.22 37.4037 184.142 37.4039C183.882 37.5436 183.174 37.8182 182.165 37.3751C181.655 37.3596 181.134 37.3379 180.605 37.3097C180.084 37.4328 179.253 37.5161 178.379 37.1551C177.952 37.1186 177.525 37.066 177.094 37.0334C175.95 36.9467 175.152 36.8 174.649 36.6238C174.91 36.9583 175.706 37.2653 177.052 37.4066C177.481 37.4517 177.909 37.4919 178.336 37.5285C179.211 37.8894 180.041 37.8061 180.562 37.6829C181.092 37.7111 181.613 37.7329 182.123 37.7483C183.131 38.1915 183.84 37.9169 184.099 37.7772C184.178 37.777 184.256 37.7767 184.333 37.7762C184.588 37.9019 185.2 38.1613 185.868 38.1287C186.527 38.0965 187.111 37.8013 187.36 37.6564C187.45 37.6491 187.538 37.6415 187.624 37.6335C187.965 37.7683 188.879 38.0807 189.522 37.8432C190.816 37.3659 190.922 36.6314 190.93 36.5295C191.05 36.328 191.08 36.1238 191.069 35.9409Z" fill="#D6CDCC"/>
<path d="M186.796 60.0144C194.568 53.8857 202.55 60.1556 202.55 60.1556C202.55 60.1556 204.293 61.4831 201.156 62.0197C198.437 62.4846 194.753 61.8332 191.013 62.2174C186.064 62.7256 185.445 61.0796 186.796 60.0144Z" fill="#E08672"/>
<path d="M195.93 64.6435C195.837 64.6435 195.744 64.6274 195.655 64.5933C193.78 63.876 191.496 64.4798 191.473 64.486C191.135 64.5771 190.769 64.4302 190.656 64.1568C190.543 63.8834 190.723 63.5875 191.06 63.495C191.173 63.464 193.852 62.7472 196.206 63.6476C196.528 63.771 196.666 64.0826 196.514 64.3438C196.404 64.5327 196.172 64.6435 195.93 64.6435Z" fill="#EDA48E"/>
<path d="M193.13 55.5038C193.13 55.5038 199.049 54.3024 201.441 55.8296C202.349 56.4093 204.343 58.7846 204.479 59.1696C204.615 59.5546 202.171 59.4996 201.153 59.1696C200.135 58.8396 198.167 58.7846 197.217 58.8396C196.266 58.8946 194.635 58.6196 194.228 58.5096C193.821 58.6196 192.192 58.8946 191.242 58.8396C190.291 58.7846 188.323 58.8396 187.305 59.1696C186.287 59.4996 183.843 59.5546 183.979 59.1696C184.115 58.7846 186.163 56.6804 187.053 56.083C188.928 54.825 193.13 55.5038 193.13 55.5038Z" fill="#E5DDDC"/>
<path d="M198.437 56.2953C198.641 56.7919 199.213 57.2223 199.785 58.0169C200.011 58.3304 200.135 58.6695 200.202 58.9654C200.56 59.0169 200.889 59.0839 201.153 59.1696C201.403 59.2506 201.739 59.3149 202.102 59.3603C201.799 58.9875 201.425 58.4676 200.848 57.8514C199.949 56.8913 198.437 56.2953 198.437 56.2953ZM196.966 57.5203C196.843 56.6594 195.536 56.229 195.536 56.229C195.536 56.229 196.189 56.7919 196.189 57.4541C196.189 57.901 196.115 58.3778 196.117 58.8035C196.512 58.8397 196.902 58.8579 197.216 58.8397C197.291 58.8353 197.372 58.8318 197.457 58.829C197.249 58.4409 197.027 57.948 196.966 57.5203ZM194.228 58.5096C194.374 58.549 194.677 58.6097 195.05 58.6686C194.821 58.1225 194.331 56.9012 194.269 56.2953C194.269 56.2953 194.084 57.7714 193.847 58.5923C194.013 58.5608 194.146 58.5318 194.228 58.5096ZM191.531 57.9508C191.45 57.2886 191.613 56.9243 191.735 56.3614C191.735 56.3614 190.959 56.8581 190.673 57.4872C190.467 57.9409 190.26 58.4455 189.977 58.8286C190.466 58.8147 190.914 58.8206 191.241 58.8396C191.353 58.846 191.473 58.8478 191.6 58.846C191.589 58.5827 191.569 58.2562 191.531 57.9508ZM187.608 57.5534C186.988 58.2579 186.532 58.9426 186.08 59.3909C186.545 59.3462 186.992 59.271 187.305 59.1696C187.39 59.1421 187.482 59.1166 187.579 59.0928C187.818 58.72 188.11 58.2508 188.262 57.9508C188.548 57.388 189.202 56.5271 189.447 56.3615C189.447 56.3615 188.426 56.6264 187.608 57.5534Z" fill="#D6CDCC"/>
<path d="M182.404 31.4065C190.472 31.7523 198.551 31.5839 206.624 31.7526C198.647 32.7899 190.296 32.944 182.404 31.4065ZM182.419 26.3351C189.205 24.3783 198.384 25.1339 205.283 26.5391C197.672 26.3203 190.013 25.5467 182.419 26.3351ZM183.96 28.9006C189.839 28.3483 195.799 28.3898 201.664 29.0372C195.785 29.594 189.825 29.5434 183.96 28.9006Z" fill="#EDA48E"/>
<path d="M208.308 23.3448C209.423 23.3448 210.327 22.6123 210.327 21.7088C210.327 20.8052 209.423 20.0728 208.308 20.0728C207.193 20.0728 206.289 20.8052 206.289 21.7088C206.289 22.6123 207.193 23.3448 208.308 23.3448Z" fill="#E89B84"/>
<path d="M212.185 23.5318C212.846 23.5318 213.381 23.0977 213.381 22.5623C213.381 22.0268 212.846 21.5928 212.185 21.5928C211.524 21.5928 210.988 22.0268 210.988 22.5623C210.988 23.0977 211.524 23.5318 212.185 23.5318Z" fill="#E89B84"/>
<path d="M206.986 19.817C207.647 19.817 208.183 19.3829 208.183 18.8474C208.183 18.312 207.647 17.8779 206.986 17.8779C206.325 17.8779 205.79 18.312 205.79 18.8474C205.79 19.3829 206.325 19.817 206.986 19.817Z" fill="#E89B84"/>
<path d="M235.999 12.2811C235.999 12.2811 228.711 2.9027 219.326 2.95284C209.941 3.00297 220.809 7.3032 224.488 10.1244C228.167 12.9455 239.111 17.8361 235.999 12.2811Z" fill="#F7B6A3"/>
<path d="M219.893 23.281C219.893 23.281 220.295 27.0826 218.821 29.6894C217.346 32.2962 216.274 34.4685 218.553 36.8581C220.832 39.2477 220.563 40.9855 220.832 42.9406C221.1 44.8957 222.038 47.5025 225.121 47.8284C228.204 48.1543 229.545 49.0231 230.081 50.8696C230.617 52.7162 234.638 61.514 237.319 61.2968C242.145 61.4054 242.949 53.2592 244.022 49.3491C245.094 45.4389 244.29 41.746 245.362 40.1166C246.435 38.4874 249.384 31.8619 247.641 27.843C245.899 23.8242 245.899 21.8691 244.96 19.6967C244.022 17.5244 240.939 15.8952 236.649 16.6555C232.36 17.4158 232.226 19.0451 229.009 19.9139C225.791 20.7828 220.564 17.8502 219.893 23.281Z" fill="#E5DDDC"/>
<path d="M221.892 46.0129C221.892 46.0129 221.167 36.3946 228.239 35.9528C235.311 35.5109 234.982 43.6665 230.84 49.1319C228.522 52.1911 222.683 56.146 221.892 46.0129Z" fill="#F6AF9A"/>
<path d="M231.02 42.105C229.624 42.0489 228.449 42.5751 227.604 43.1356C227.943 42.0517 228.641 41.0357 230.012 40.4852C230.365 40.3431 230.509 39.9963 230.334 39.7101C230.16 39.424 229.736 39.3063 229.377 39.4487C224.491 41.4116 226.128 47.3704 226.2 47.6232C226.289 47.9341 226.672 48.128 227.056 48.0563C227.063 48.0552 227.07 48.0537 227.076 48.0522C227.448 47.9738 227.678 47.6691 227.592 47.3633C227.585 47.3401 227.307 46.3237 227.318 45.0562C227.329 45.0445 227.345 45.0376 227.355 45.0251C227.371 45.0069 228.924 43.1808 230.95 43.2606C231.345 43.2755 231.678 43.0302 231.698 42.7115C231.717 42.3926 231.415 42.1209 231.02 42.105Z" fill="#E08C79"/>
<path d="M206.322 78.1213C206.322 78.1213 210.851 79.863 214.462 80.2912L217.525 83.0195L222.125 79.5775C222.125 79.5775 236.102 75.9423 239.634 72.5463C239.683 72.4995 239.775 72.5106 239.803 72.5677L241.216 75.4618C241.216 75.4618 235.161 84.502 217.281 84.502C216.135 84.502 209.1 83.1638 205.841 79.167L206.322 78.1213Z" fill="#E5DDDC"/>
<path d="M167.074 221.391C167.074 221.391 165.929 226.244 165.929 227.243C165.929 228.242 174.248 233.739 212.925 235.236C257.181 236.949 287.744 227.814 289.858 226.815C291.972 225.816 290.563 221.819 288.801 220.106L167.074 221.391Z" fill="#76AD77"/>
<path d="M287.701 215.645C287.701 215.645 288.626 204.725 288.23 198.516C287.833 192.307 282.549 176.463 282.152 168.112C281.756 159.762 287.437 123.898 289.155 114.371C290.872 104.843 287.173 88.2491 279.774 82.0398C279.774 82.0398 277 80.5053 271.979 79.2921C256.071 75.4477 246.302 76.8131 245.229 76.5026C244.162 76.1939 241.991 75.5694 241.374 75.392C241.275 75.3634 241.166 75.3912 241.103 75.4596C237.337 79.5507 226.379 83.7369 217.526 83.0196C208.59 82.2955 205.998 78.8198 205.998 78.8198C204.97 78.4215 203.406 79.1094 203.406 79.1094C203.406 79.1094 187.321 82.1507 182.495 84.1058C177.669 86.0608 168.956 89.7538 166.812 94.7501C165.175 99.2973 164.583 107.315 164.537 115.478C164.329 117.218 164.152 118.722 164.037 119.723C163.508 124.327 161.394 134.604 161.659 138.886C161.923 143.169 165.358 148.914 166.283 149.984C166.283 149.984 164.301 152.125 166.811 154.909C166.811 154.909 163.905 158.263 166.283 160.833C166.283 160.833 155.053 188.774 165.49 217.572C165.49 217.572 163.08 218.846 165.072 221.998C165.566 222.779 166.433 223.362 167.467 223.623C177.382 226.117 236.362 239.626 288.095 222.231C289.215 221.854 289.94 220.956 289.91 219.974C289.865 218.511 289.462 216.488 287.701 215.645Z" fill="#84B685"/>
<path d="M187.509 106.199C191.083 116.317 195.245 126.494 202.483 135.318C194.311 127.227 189.801 116.385 187.509 106.199ZM207.592 106.056C211.678 112.424 215.306 118.989 220.099 125.041C217.756 122.964 215.879 120.534 214.173 118.091C211.566 114.241 209.296 110.227 207.592 106.056ZM225.736 111.623C227.832 114.888 229.369 118.315 231.373 121.615C228.32 118.86 226.661 115.206 225.736 111.623Z" fill="#76AD77"/>
<path d="M182.224 127.324C193.865 120.28 205.979 113.603 217.28 106.199C206.751 114.381 194.574 121.086 182.224 127.324ZM205.125 127.324C211.231 124.198 218.056 121.465 223.798 117.903C218.763 122.288 211.869 125.05 205.125 127.324ZM166.303 149.953C170.518 151.49 175.185 151.542 179.716 151.72C180.376 151.755 181.032 151.767 181.692 151.84C181.739 151.842 181.748 151.903 181.7 151.912C178.296 152.691 174.716 152.3 171.339 151.622C170.23 151.381 169.099 151.089 168.041 150.725C167.431 150.517 166.83 150.291 166.26 150.016C166.213 149.994 166.253 149.93 166.303 149.953ZM214.118 150.984C225.697 152.388 237.964 151.73 248.667 147.684C249.65 147.291 250.65 146.855 251.606 146.422C251.913 146.444 250.755 146.985 250.684 147.077C250.244 147.356 249.632 147.656 249.161 147.905C244.81 150.092 239.764 151.227 234.706 151.694C227.97 152.284 220.469 152.235 214.118 150.984ZM182.745 154.838C195.117 153.216 211.905 151.85 223.288 156.696C223.335 156.715 223.3 156.779 223.251 156.762C221.258 156.162 219.188 155.692 217.123 155.318C205.896 153.339 193.821 153.793 182.745 154.838ZM166.81 154.909C168.271 155.213 170.123 155.449 171.562 155.778C174.648 156.743 171.937 156.69 170.537 156.288C169.842 156.042 168.965 155.771 168.271 155.516C168.062 155.397 166.875 155.099 166.81 154.909ZM166.301 160.8C168.221 161.417 170.412 161.5 172.105 162.511C170.977 162.996 169.414 162.227 168.303 161.805C167.606 161.516 166.921 161.21 166.262 160.865C166.22 160.844 166.252 160.786 166.301 160.8ZM165.51 217.54C168.44 218.668 171.664 219.228 174.484 220.534C172.621 220.879 170.396 219.775 168.646 219.091C167.563 218.628 166.497 218.14 165.468 217.604C165.424 217.582 165.46 217.521 165.51 217.54ZM206.842 224.317C227.579 225.402 254.808 226.337 273.167 217.572C256.02 227.138 226.848 226.457 206.842 224.317ZM287.7 215.645C285.968 219.142 279.769 222.172 275.25 222.567C275.204 222.573 275.178 222.515 275.224 222.498C276.363 221.988 277.528 221.565 278.695 221.121C282.518 219.738 285.468 218.426 287.7 215.645Z" fill="#76AD77"/>
<path d="M249.694 100.917C249.694 100.917 248.813 128.894 261.32 151.162C261.32 151.162 252.16 154.017 247.228 162.296C247.228 162.296 237.671 162.938 237.01 167.72C237.01 167.72 232.078 168.719 230.668 169.861C230.668 169.861 221.86 167.434 217.985 167.862L218.734 163.866C218.734 163.866 212.876 162.676 200.486 162.819C188.628 162.956 182.577 164.722 182.577 164.722L185.968 207.723C185.968 207.723 194.159 208.365 201.558 208.365C208.957 208.365 215.959 206.973 215.959 206.973L216.363 201.99C216.363 201.99 232.606 200.693 240.181 195.982C240.181 195.982 246.699 197.695 248.461 195.697C248.461 195.697 263.258 197.981 267.31 194.127L272.947 193.698C272.947 193.698 277.351 195.269 280.522 194.698C280.522 194.698 285.106 197.86 288.324 203.065C288.339 201.434 288.315 199.864 288.229 198.516C287.833 192.307 282.548 176.463 282.152 168.112C281.755 159.762 287.437 123.898 289.154 114.37C289.639 111.679 289.692 108.424 289.351 104.998C273.886 100.312 249.694 100.917 249.694 100.917Z" fill="#76AD77"/>
<path d="M206.888 87.3098C206.888 87.3098 209.426 84.4987 212.564 82.2229C207.587 80.9503 205.998 78.8201 205.998 78.8201C204.97 78.4219 203.406 79.1098 203.406 79.1098C203.406 79.1098 202.58 79.2659 201.247 79.5302C202.151 81.8511 203.922 85.3575 206.888 87.3098ZM246.992 76.5414C246.047 76.5598 245.451 76.5673 245.229 76.503C244.162 76.1943 241.991 75.5698 241.374 75.3924C241.275 75.364 241.166 75.3917 241.103 75.46C238.406 78.3894 232.022 81.3673 225.364 82.5591C227.119 83.6899 230.139 85.8317 231.433 87.9283C231.433 87.9283 244.25 82.4353 246.992 76.5414Z" fill="#76AD77"/>
<path d="M219.178 86.6993C218.636 86.6993 218.102 86.6856 217.577 86.6577C213.216 86.4259 209.583 84.859 207.304 83.5854C204.841 82.2089 203.415 80.8989 203.355 80.8438C203.136 80.6406 203.161 80.3319 203.412 80.1541C203.663 79.9763 204.044 79.9969 204.263 80.1998C204.318 80.2505 209.835 85.2667 217.656 85.6822C225.994 86.1246 236.796 82.8515 242.247 78.2292C242.477 78.0341 242.859 78.027 243.1 78.2135C243.341 78.4 243.349 78.7093 243.119 78.9045C237.794 83.4203 227.571 86.6993 219.178 86.6993Z" fill="#76AD77"/>
<path d="M206.455 76.3648C206.455 76.3648 202.835 77.151 200.985 78.9353C200.985 78.9353 203.716 82.5752 207.239 85.0731C207.239 85.0731 211.115 81.1478 214.462 80.2914C214.462 80.2914 207.239 77.6507 206.799 77.4366C206.358 77.2225 206.455 76.3648 206.455 76.3648ZM222.125 79.5776C222.125 79.5776 229.347 81.8615 232.166 85.0731C232.166 85.0731 243.308 80.8623 246.875 75.6523C246.875 75.6523 243.854 73.0275 239.626 72.4565C239.626 72.4565 229.523 77.2224 222.125 79.5776Z" fill="white"/>
<path d="M262.029 81.9558C262.029 81.9558 249.768 85.8807 251.395 101.268C253.023 116.654 267.766 143.049 273.915 155.358C280.064 167.668 285.721 176.768 298.923 174.13C312.125 171.493 308.88 157.098 306.891 150.797C304.901 144.495 294.778 113.117 291.341 103.005C287.905 92.8941 277.763 77.4131 262.029 81.9558Z" fill="#F6AF9A"/>
<path d="M256.917 81.077C256.917 81.077 246.084 86.0015 249.254 104.629C252.425 123.257 260.353 133.106 263.259 139.957C266.166 146.809 270.79 153.768 270.79 153.768C270.79 153.768 269.205 153.875 269.469 156.123C269.469 156.123 281.888 182.351 300.914 176.356C308.841 173.894 312.672 166.507 312.276 159.763C311.88 153.018 306.595 136.318 303.424 127.539C300.253 118.76 295.747 103.413 293.383 96.707C290.74 89.2133 276.207 73.4761 256.917 81.077Z" fill="#84B685"/>
<path d="M269.225 151.288C270.163 152.823 270.79 153.767 270.79 153.767C270.79 153.767 269.205 153.874 269.469 156.122C269.469 156.122 270.227 157.723 271.655 160.042L283.606 152.233C279.967 151.812 274.304 151.032 269.225 151.288Z" fill="#71A372"/>
<path d="M213.765 204.025H181.348L178.296 165.191H216.817L213.765 204.025Z" fill="#D1F1FF"/>
<path d="M197.549 166.364C208.182 166.364 216.802 165.839 216.802 165.191C216.802 164.544 208.182 164.019 197.549 164.019C186.916 164.019 178.296 164.544 178.296 165.191C178.296 165.839 186.916 166.364 197.549 166.364Z" fill="#BAEAFF"/>
<path d="M215.435 182.776H179.677L181.347 204.025H213.765L215.435 182.776Z" fill="#B3E8FF"/>
<path d="M197.548 205.197C206.496 205.197 213.75 204.672 213.75 204.024C213.75 203.377 206.496 202.852 197.548 202.852C188.6 202.852 181.347 203.377 181.347 204.024C181.347 204.672 188.6 205.197 197.548 205.197Z" fill="#B3E8FF"/>
<path d="M197.549 183.949C207.441 183.949 215.461 183.424 215.461 182.776C215.461 182.129 207.441 181.604 197.549 181.604C187.656 181.604 179.637 182.129 179.637 182.776C179.637 183.424 187.656 183.949 197.549 183.949Z" fill="#BAEAFF"/>
<path d="M213.923 202.046C210.848 204.065 184.315 204.082 181.174 202.046C182.007 202.653 193.413 202.88 197.549 202.889C201.685 202.881 213.082 202.653 213.923 202.046Z" fill="#EBF9FF"/>
<path d="M236.168 174.57C236.168 174.57 225.709 177.875 226.944 184.351C228.572 192.887 240.689 190.396 245.934 189.81C251.178 189.224 273.423 185.267 283.189 182.63C292.955 179.992 303.444 175.156 305.976 168.855C308.508 162.553 303.625 153.468 290.242 154.64C276.859 155.813 265.285 162.847 255.7 166.657C246.115 170.467 236.168 174.57 236.168 174.57Z" fill="#F6AF9A"/>
<path d="M236.167 174.57C236.167 174.57 234.521 175.09 232.612 176.122L234.238 177.989C234.238 177.989 233.997 175.999 241.832 172.249C238.428 173.637 236.167 174.57 236.167 174.57ZM240.553 189.37C239.308 189.158 238.835 188.125 238.835 188.125L237.071 190.599C240.381 190.627 243.752 190.054 245.933 189.81C246.111 189.79 246.31 189.766 246.526 189.739C244.501 189.65 242.271 189.663 240.553 189.37Z" fill="#EA9A88"/>
<path d="M240.327 186.879C240.535 184.096 237.434 177.208 233.636 175.889C229.838 174.57 223.508 172.958 219.71 172.079C215.913 171.2 213.381 171.053 210.487 172.079C207.593 173.105 202.409 175.889 200.842 176.915C199.274 177.94 194.271 182.19 193.125 183.509C191.98 184.828 193.909 186.293 196.682 184.926C199.455 183.558 204.7 180.236 205.724 179.845C206.749 179.455 211.15 178.722 212.838 178.282C212.959 178.868 212.898 179.406 213.139 179.894C213.139 179.894 206.388 182.776 204.639 183.655C202.891 184.535 194.15 187.368 193.728 188.638C193.306 189.908 194.15 191.325 197.104 190.787C200.058 190.25 204.217 189.029 206.448 188.54C208.678 188.052 214.647 185.756 215.249 185.658C215.852 185.561 216.636 186.782 215.732 187.368C214.827 187.954 209.522 190.787 208.076 191.276C206.629 191.764 198.43 192.057 198.008 194.207C197.586 196.356 200.962 196.014 203.434 196.014C205.906 196.014 210.909 195.672 211.632 195.379C212.356 195.086 218.264 193.034 218.806 192.937C219.349 192.839 219.469 193.669 219.228 193.962C218.987 194.255 215.008 196.307 214.164 196.6C213.32 196.893 206.569 197.333 206.147 199.384C206.147 200.508 207.171 200.801 210.246 200.703C213.32 200.606 216.395 200.02 217.359 199.873C218.324 199.726 222.664 198.163 223.689 197.919C224.714 197.675 230.923 196.209 234.42 194.256C237.916 192.301 240.086 190.103 240.327 186.879Z" fill="#F6AF9A"/>
<path d="M215.973 176.817C217.225 176.249 218.974 175.976 220.253 176.621C218.821 176.661 217.408 176.92 215.973 176.817ZM218.685 185.414C219.468 184.772 220.91 184.418 221.88 184.974C220.781 185.117 219.808 185.413 218.685 185.414ZM221.82 192.204C222.423 191.599 223.392 191.243 224.352 191.324C223.685 191.88 222.78 192.209 221.82 192.204ZM214.526 198.041C214.985 198.398 215.068 198.839 215.008 199.335C214.345 199.194 214.149 198.467 214.526 198.041ZM221.88 195.867C222.46 196.051 222.721 196.693 222.302 197.088C221.887 196.748 221.706 196.334 221.88 195.867ZM207.171 192.985C207.682 193.511 207.814 194.137 207.774 194.792C207.05 194.428 206.852 193.599 207.171 192.985ZM215.912 190.25C216.49 190.626 216.737 191.315 216.395 191.862C215.911 191.414 215.699 190.828 215.912 190.25ZM202.831 186C203.407 186.539 203.653 187.199 203.675 187.905C202.908 187.52 202.591 186.69 202.831 186ZM211.572 182.923C212.326 183.411 212.805 184.241 212.597 185.023C211.991 184.417 211.578 183.712 211.572 182.923Z" fill="#E08C79"/>
<path d="M206.388 175.84C206.997 176.371 207.2 177.041 207.292 177.745C206.479 177.401 206.18 176.53 206.388 175.84ZM199.696 179.552C200.223 179.986 200.515 180.471 200.661 181.066C199.873 180.928 199.4 180.152 199.696 179.552Z" fill="#E08C79"/>
<path d="M236.168 174.57C236.168 174.57 238.186 166.674 247.347 166.388C247.347 166.388 253.248 157.372 269.47 156.123C269.47 156.123 287.218 146.095 303.894 150.068C312.823 152.196 311.528 168.529 308.651 172.859C305.773 177.189 291.739 190.321 261.44 190.559C261.44 190.559 257.623 195.507 244.176 191.13C244.176 191.13 242.312 178.803 236.168 174.57Z" fill="#84B685"/>
<path d="M261.405 190.537C262.112 189.517 262.359 188.324 262.515 187.175C262.604 186.168 262.498 185.15 262.683 184.146C262.858 181.883 263.398 184.338 263.474 185.082C263.531 185.731 263.388 186.378 263.242 187.015C263.041 187.965 262.693 188.921 262.134 189.775C262.033 189.908 261.503 190.737 261.405 190.537ZM247.342 166.352C249.932 166.086 253.257 167.192 254.019 169.365C254.031 169.398 253.981 169.428 253.946 169.407C253.368 169.109 252.915 168.76 252.387 168.43C251.453 167.743 250.47 167.068 249.247 166.749C248.644 166.57 248.001 166.448 247.348 166.424C247.297 166.424 247.29 166.358 247.342 166.352Z" fill="#76AD77"/>
<path d="M233.4 175.714C233.4 175.714 240.535 180.781 238.994 190.559C239.654 191.523 243.089 193.093 245.159 192.094C245.908 191.63 245.912 185.812 244.014 180.282C241.944 174.251 237.672 172.467 236.351 172.502C235.735 172.519 234.017 174.001 233.4 175.714Z" fill="#FFEDEB"/>
<path d="M138.438 93.2298C138.438 93.2298 128.966 115.098 126.464 134.069C123.961 153.041 122.531 170.854 137.724 174.33C144.336 175.054 152.379 163.179 152.737 153.91C153.094 144.642 152.201 120.311 152.737 111.622C153.273 102.933 154.62 97.7378 154.345 93.9539C153.988 89.03 143.443 84.106 138.438 93.2298Z" fill="#F6AF9A"/>
<path d="M166.499 71.5068C166.499 71.5068 172.665 67.669 175.614 68.6827C177.133 69.3344 174.989 72.5205 171.95 75.1997C168.912 77.8789 164.265 73.5343 166.499 71.5068Z" fill="#EA9A88"/>
<path d="M170.597 68.9611C169.279 67.6131 169.559 65.6546 171.223 64.5866L180.704 58.5004C182.368 57.4325 184.785 57.6595 186.103 59.0076C187.421 60.3556 187.14 62.3142 185.477 63.3821L175.995 69.4683C174.332 70.5363 171.915 70.3092 170.597 68.9611Z" fill="white"/>
<path d="M178.161 62.0934C178.886 61.2118 178.59 60.3702 178.385 59.9893L171.223 64.5867C169.897 65.4377 169.451 66.8541 169.991 68.0766C170.289 67.1364 171.678 66.0276 172.71 65.3158C173.916 64.483 177.178 63.2882 178.161 62.0934Z" fill="#E5DDDC"/>
<path d="M186.104 59.0076C184.786 57.6595 182.369 57.4325 180.705 58.5004L175.965 61.5435C175.965 61.5435 176.732 63.2519 177.76 64.2294C179 65.4091 180.698 66.3852 180.698 66.3852L180.779 66.3983L185.478 63.3821C187.142 62.3142 187.422 60.3556 186.104 59.0076Z" fill="#EB7171"/>
<path d="M176.85 63.1164C177.407 62.7812 177.879 62.4373 178.162 62.0934C178.888 61.2118 178.591 60.3702 178.386 59.9893L175.965 61.5437C175.964 61.5437 176.311 62.3142 176.85 63.1164Z" fill="#E36666"/>
<path d="M138.439 93.2302C138.439 93.2302 141.834 85.6995 144.337 80.486C146.839 75.2724 152.022 68.6106 153.094 68.0313C154.167 67.452 160.049 65.4808 161.435 64.9418C164.414 63.7831 170.431 61.9488 173.291 60.7902C176.15 59.6316 177.938 59.6316 178.116 60.3557C178.295 61.0798 177.401 62.2383 174.72 63.3969C172.039 64.5556 165.248 68.7553 165.248 68.7553C165.248 68.7553 169.18 68.1761 169.18 71.2173C169.18 71.2173 172.576 71.507 172.04 74.2586C172.04 74.2586 174.721 75.562 175.078 77.2998C175.435 79.0377 172.933 82.3686 172.04 83.2375C171.146 84.1064 169.716 83.3823 169.716 83.3823C169.716 83.3823 169.001 84.541 167.75 86.4236C166.499 88.3063 162.567 91.0579 158.278 93.8095C155.418 95.837 153.452 101.34 147.018 102.933C140.583 104.526 136.294 99.8921 138.439 93.2302Z" fill="#F6AF9A"/>
<path d="M165.248 68.7554C164.051 69.2132 162.944 69.8077 161.88 70.4393C161.033 70.8636 160.086 71.4363 161.268 70.2434C162.286 69.4944 164.046 68.891 165.248 68.7554ZM169.199 71.2365C168.504 71.7741 167.729 72.3502 167.007 72.8669C166.306 73.3804 165.403 74.0986 164.514 74.1913C165.196 73.3104 166.299 72.7965 167.313 72.2125C167.906 71.8802 168.561 71.5163 169.161 71.1982C169.19 71.1826 169.226 71.2166 169.199 71.2365ZM172.04 74.2586C170.76 75.0527 169.68 76.0351 168.571 76.974C166.475 78.5619 167.334 77.3835 168.409 76.3905C169.495 75.6491 170.835 74.614 172.04 74.2586ZM169.72 83.3808C170.423 82.2297 171.058 81.0076 171.812 79.8793C173.836 77.3379 172.313 80.4698 171.515 81.2266C171.304 81.5015 170.869 82.0505 170.647 82.32C170.358 82.5812 169.918 83.2952 169.72 83.3808ZM156.431 69.0933C157.085 69.425 157.373 69.9172 157.741 70.445C156.906 70.4977 156.315 69.7096 156.431 69.0933ZM160.601 72.6655C161.384 72.9185 161.884 73.4276 162.269 74.0172C161.406 73.9825 160.729 73.3294 160.601 72.6655ZM163.997 75.8516C164.688 76.1184 165.055 76.554 165.546 77.0103C164.731 77.2015 163.962 76.4825 163.997 75.8516ZM167.631 78.9895C168.232 79.11 168.651 79.349 169.001 79.7619C168.375 79.9953 167.586 79.5435 167.631 78.9895Z" fill="#E08C79"/>
<path d="M135.235 93.9238C135.235 93.9238 133.386 95.7437 130.215 98.5273C127.044 101.311 126.119 105.165 126.515 108.376C126.515 108.376 120.702 115.014 122.023 126.255C122.023 126.255 108.283 165.865 135.103 175.393C143.823 176.464 151.354 173.894 155.714 158.907C160.074 143.919 156.242 133.963 156.242 133.963C156.242 133.963 157.828 121.33 154.789 117.048C154.789 117.048 157.167 109.34 155.053 103.559C155.053 103.559 142.634 97.992 135.235 93.9238Z" fill="#84B685"/>
<path d="M126.558 108.367C127.265 109.967 128.611 111.372 128.931 113.069C127.684 112.75 127.312 111.246 126.961 110.279C126.762 109.654 126.588 109.025 126.472 108.386C126.464 108.346 126.539 108.327 126.558 108.367ZM122.066 126.247C122.745 128.122 124.022 129.851 124.308 131.806C123.282 131.435 122.837 130.082 122.613 129.176C122.331 128.215 122.118 127.243 121.979 126.262C121.973 126.222 122.05 126.206 122.066 126.247ZM154.789 117.048C154.567 118.363 154.004 119.639 153.268 120.818C152.848 121.303 152.292 121.905 151.587 122.087C151.79 121.38 152.219 120.733 152.713 120.136C153.228 119.581 153.647 118.949 154.037 118.332C154.208 118.192 154.564 117.106 154.789 117.048Z" fill="#76AD77"/>
<path d="M140.036 89.7129C140.036 89.7129 141.445 95.0657 154.393 97.9205C154.921 98.6342 155.626 100.989 156.154 103.416C156.242 104.272 149.108 105.129 141.973 100.633C137.065 97.5388 134.751 94.7088 134.222 93.4955C133.694 92.2822 138.274 89.2847 140.036 89.7129Z" fill="#FFEDEB"/>
<path d="M0 234.561C38.0887 265.061 90.1828 277.388 90.1828 277.388C169.88 294.808 354.895 306.88 422.699 238.058C423.818 236.923 424.918 235.756 426 234.561H0Z" fill="#E5AC85"/>
<path d="M0 234.561C3.11781 237.057 6.32958 239.432 9.59888 241.688H418.931C420.224 240.504 421.481 239.294 422.699 238.058C423.818 236.923 424.918 235.756 426 234.561H0Z" fill="#BF8673"/>
<path d="M103.895 261.825C116.913 261.825 127.466 259.802 127.466 257.306C127.466 254.809 116.913 252.786 103.895 252.786C90.8767 252.786 80.3235 254.809 80.3235 257.306C80.3235 259.802 90.8767 261.825 103.895 261.825Z" fill="#E0A67E"/>
<path d="M111.679 216.132H95.6196V205.74C95.6196 204.006 97.3548 202.6 99.4952 202.6H107.803C109.943 202.6 111.679 204.006 111.679 205.74V216.132V216.132Z" fill="#83839E"/>
<path d="M107.803 202.6H99.4956C98.1017 202.6 96.8801 203.196 96.1973 204.091C98.1586 204.376 100.775 204.55 103.65 204.55C106.524 204.55 109.141 204.376 111.102 204.091C110.419 203.196 109.197 202.6 107.803 202.6Z" fill="#8B8BA6"/>
<path d="M120.029 253.578C120.029 255.557 118.393 257.289 116.036 257.808C113.149 258.444 108.879 259.125 103.842 259.125C98.7103 259.125 94.2618 258.418 91.2693 257.772C88.9067 257.262 87.269 255.522 87.269 253.541V220.895C87.269 216.31 91.8561 212.593 97.5146 212.593H109.784C115.442 212.593 120.029 216.31 120.029 220.895V253.578V253.578Z" fill="#EB7171"/>
<path d="M87.269 224.058V250.04C91.9426 250.605 97.7644 251.11 103.649 251.11C109.534 251.11 115.356 250.605 120.029 250.04V224.041C115.09 224.636 109.026 225.189 103.521 225.189C98.0693 225.189 92.1237 224.647 87.269 224.058Z" fill="white"/>
<path d="M103.887 246.272C103.322 246.272 102.869 246.109 102.527 245.783C102.185 245.457 102.033 245.048 102.074 244.559L102.618 240.691C102.658 240.593 102.638 240.529 102.557 240.496C102.476 240.463 102.376 240.479 102.255 240.544L98.3283 242.845C97.8449 243.139 97.3409 243.245 96.8178 243.164C96.294 243.082 95.8709 242.829 95.5491 242.405C95.1865 241.883 95.1158 241.426 95.3376 241.034C95.5586 240.643 95.9314 240.366 96.4552 240.202L100.866 238.587C100.987 238.554 101.047 238.505 101.047 238.44C101.047 238.375 100.987 238.326 100.866 238.293L96.4552 236.677C95.8907 236.482 95.5283 236.172 95.3679 235.747C95.2064 235.323 95.2668 234.899 95.5491 234.474C95.8709 234.051 96.294 233.797 96.8178 233.716C97.3408 233.634 97.8449 233.724 98.3283 233.985L102.255 236.334C102.376 236.4 102.476 236.416 102.557 236.383C102.638 236.351 102.658 236.285 102.618 236.188L102.074 232.32C102.033 231.831 102.195 231.423 102.557 231.096C102.92 230.771 103.403 230.607 104.007 230.607C104.571 230.607 105.034 230.771 105.397 231.096C105.76 231.423 105.9 231.831 105.82 232.32L105.276 236.188C105.236 236.285 105.256 236.351 105.337 236.383C105.417 236.416 105.518 236.4 105.639 236.334L109.566 234.034C110.049 233.74 110.563 233.634 111.106 233.716C111.65 233.797 112.063 234.051 112.345 234.474C112.707 234.997 112.777 235.453 112.556 235.845C112.335 236.237 111.962 236.514 111.439 236.677L107.028 238.293C106.908 238.326 106.847 238.375 106.847 238.439C106.847 238.505 106.908 238.554 107.028 238.586L111.439 240.202C112.002 240.398 112.375 240.708 112.556 241.132C112.738 241.557 112.667 241.981 112.345 242.405C112.063 242.829 111.65 243.082 111.106 243.164C110.563 243.245 110.049 243.156 109.566 242.894L105.639 240.545C105.518 240.48 105.417 240.464 105.337 240.496C105.256 240.529 105.236 240.594 105.276 240.691L105.82 244.559C105.9 245.048 105.749 245.457 105.367 245.783C104.983 246.109 104.491 246.272 103.887 246.272Z" fill="#EB7171"/>
<path d="M140.825 259.387C146.932 259.387 151.882 258.544 151.882 257.504C151.882 256.463 146.932 255.62 140.825 255.62C134.717 255.62 129.767 256.463 129.767 257.504C129.767 258.544 134.717 259.387 140.825 259.387Z" fill="#E0A67E"/>
<path d="M156.752 257.911C162.772 257.911 167.653 256.635 167.653 255.06C167.653 253.486 162.772 252.209 156.752 252.209C150.732 252.209 145.851 253.486 145.851 255.06C145.851 256.635 150.732 257.911 156.752 257.911Z" fill="#E0A67E"/>
<path d="M152.133 265.191C159.628 265.191 165.704 264.154 165.704 262.875C165.704 261.596 159.628 260.559 152.133 260.559C144.638 260.559 138.562 261.596 138.562 262.875C138.562 264.154 144.638 265.191 152.133 265.191Z" fill="#E0A67E"/>
<path d="M147.176 248.487C147.973 246.893 150.214 246.124 152.181 246.77L163.392 250.451C165.359 251.097 166.308 252.913 165.51 254.506C164.713 256.1 162.473 256.869 160.505 256.223L149.295 252.542C147.328 251.896 146.379 250.081 147.176 248.487Z" fill="white"/>
<path d="M165.511 254.506C166.308 252.912 165.359 251.097 163.392 250.451L157.787 248.61C157.787 248.61 156.331 249.994 155.789 251.201C155.134 252.657 154.924 254.335 154.924 254.335L154.95 254.399L160.506 256.223C162.473 256.869 164.714 256.1 165.511 254.506Z" fill="#EB7171"/>
<path d="M142.495 261.212C142.47 259.492 144.171 258.082 146.293 258.062L158.389 257.948C160.511 257.928 162.251 259.306 162.276 261.026C162.301 262.745 160.6 264.155 158.478 264.175L146.383 264.289C144.26 264.309 142.52 262.931 142.495 261.212Z" fill="white"/>
<path d="M162.275 261.026C162.251 259.306 160.51 257.928 158.388 257.948L152.34 258.005C152.34 258.005 151.658 259.737 151.733 261.02C151.823 262.568 152.429 264.181 152.429 264.181L152.483 264.232L158.477 264.176C160.6 264.156 162.3 262.745 162.275 261.026Z" fill="#EB7171"/>
<path d="M131.752 254.233C131.796 252.514 133.552 251.149 135.674 251.184L147.767 251.386C149.889 251.422 151.574 252.844 151.53 254.564C151.486 256.283 149.731 257.648 147.609 257.613L135.515 257.411C133.393 257.375 131.709 255.953 131.752 254.233Z" fill="white"/>
<path d="M151.531 254.564C151.575 252.844 149.89 251.422 147.768 251.386L141.721 251.285C141.721 251.285 140.97 252.998 140.994 254.282C141.023 255.832 141.564 257.461 141.564 257.461L141.616 257.513L147.61 257.613C149.732 257.648 151.487 256.283 151.531 254.564Z" fill="#EB7171"/>
</svg>
