<svg width="117" height="217" viewBox="0 0 117 217" fill="none" xmlns="http://www.w3.org/2000/svg">
<path opacity="0.1" d="M11.5 144C11 148.5 9.5 150 9 143.5C8.26047 133.886 5.07568 133 5.07568 139C5.93622 149 2.71712 150.5 1 150V216.5H244V31.4998C242.5 25.9998 241 23.9998 239.5 26.9998C238 29.9998 238 36.9998 236.5 33.4998C235 29.9998 232.5 33.4998 229.5 38.9998C226.5 44.4998 227 35.4998 226 32.4998C225 29.4998 221 36.9998 220.5 31.4998C220 25.9998 217.5 31.9998 215.5 27.9998C213.5 23.9998 212.5 9.99971 211 3.99971C209.5 -2.00029 205.5 4.49971 204.5 12.4997C203.5 20.4997 202 47.9997 202 51.4997C202 54.9997 201 53.4997 199 52.4997C197 51.4997 196 62.4997 194.5 66.4997C193 70.4997 191.5 67.4997 190.5 64.9997C189.5 62.4997 185.5 77.4997 186 80.9997C186.5 84.4997 186.5 92.9997 183 90.4997C179.5 87.9997 178 92.4997 177.5 98.9997C177 105.5 174 101.5 171 96.4997C168 91.4998 165.5 73.9997 164.5 68.4997C163.5 62.9997 161.5 60.4997 159.5 62.4997C157.5 64.4997 156.5 68.4997 155.5 79.9997C154.5 91.4997 149 102 148.5 108C148 114 145.5 115 142 107.5C138.5 99.9997 138.5 102.5 137 110C135.5 117.5 131 123 129 122.5C127 122 127 111.5 125 113.5C123 115.5 122.5 114.5 122 113C121.5 111.5 122.5 94.4997 120 96.4997C117.5 98.4997 116.5 93.9998 115 81.4998C113.5 68.9998 111.5 72.9998 110.5 78.4998C109.5 83.9998 105.5 125.5 106 129C106.5 132.5 105.5 139.5 102.5 132.5C99.5 125.5 99 125 97.5 126.5C96 128 96 122.5 96 120.5C96 118.5 93 120 93 117.5C93 115 92 116 90.5 114.5C89 113 89.5 103.5 88 99.9998C86.5 96.4998 83 93.9998 83 97.9998C83 102 82 107 81 115.5C80 124 80 128.5 79 127.5C78 126.5 77.5 129.5 76 133.5C74.5 137.5 74.5 126.5 72 116.5C69.5 106.5 66.5 115 66.5 121C66.5 127 66.5 125 64.5 126.5C62.5 128 64.5 135 63 134C61.5 132.999 60.5 136 60.5 141C60.5 146 59 143.5 58.5 143.5C58 143.5 57 151 55 144.5C53 138 51 145 49 154C47 163 45 157 45 155C45 153 45.5 134 44.5 137C43.5 140 42 132.5 41.5 131C41 129.5 39.5 131 37.5 130.5C35.5 130 35.5 123 34.5 125C33.5 127 32.5 128 31.5 123.5C30.5 119 29.5 119 28.5 121C27.5 123 26 115 24 114.5C22 114 22.5 126.5 21.5 125C20.5 123.5 19 124.5 19 128C19 131.5 18.5 136 17 134C15.5 132 14.5 139 14.5 141.5C14.5 144 12 139.5 11.5 144Z" fill="url(#paint0_linear_104_424)"/>
<path opacity="0.4" d="M1 150C2.71712 150.5 5.93622 149 5.07568 139C5.07568 133 8.26047 133.886 9 143.5C9.5 150 11 148.5 11.5 144C12 139.5 14.5 144 14.5 141.5C14.5 139 15.5 132 17 134C18.5 136 19 131.5 19 128C19 124.5 20.5 123.5 21.5 125C22.5 126.5 22 114 24 114.5C26 115 27.5 123 28.5 121C29.5 119 30.5 119 31.5 123.5C32.5 128 33.5 127 34.5 125C35.5 123 35.5 130 37.5 130.5C39.5 131 41 129.5 41.5 131C42 132.5 43.5 140 44.5 137C45.5 134 45 153 45 155C45 157 47 163 49 154C51 145 53 138 55 144.5C57 151 58 143.5 58.5 143.5C59 143.5 60.5 146 60.5 141C60.5 136 61.5 133 63 134C64.5 135 62.5 128 64.5 126.5C66.5 125 66.5 127 66.5 121C66.5 115 69.5 106.5 72 116.5C74.5 126.5 74.5 137.5 76 133.5C77.5 129.5 78 126.5 79 127.5C80 128.5 80 124 81 115.5C82 107 83 102 83 97.9998C83 93.9998 86.5 96.4998 88 99.9998C89.5 103.5 89 113 90.5 114.5C92 116 93 115 93 117.5C93 120 96 118.5 96 120.5C96 122.5 96 128 97.5 126.5C99 125 99.5 125.5 102.5 132.5C105.5 139.5 106.5 132.5 106 129C105.5 125.5 109.5 83.9998 110.5 78.4998C111.5 72.9998 113.5 68.9998 115 81.4998C116.5 93.9998 117.5 98.4997 120 96.4997C122.5 94.4997 121.5 111.5 122 113C122.5 114.5 123 115.5 125 113.5C127 111.5 127 122 129 122.5C131 123 135.5 117.5 137 110C138.5 102.5 138.5 99.9997 142 107.5C145.5 115 148 114 148.5 108C149 102 154.5 91.4997 155.5 79.9997C156.5 68.4997 157.5 64.4997 159.5 62.4997C161.5 60.4997 163.5 62.9997 164.5 68.4997C165.5 73.9997 168 91.4998 171 96.4997C174 101.5 177 105.5 177.5 98.9997C178 92.4997 179.5 87.9997 183 90.4997C186.5 92.9997 186.5 84.4997 186 80.9997C185.5 77.4997 189.5 62.4997 190.5 64.9997C191.5 67.4997 193 70.4997 194.5 66.4997C196 62.4997 197 51.4997 199 52.4997C201 53.4997 202 54.9997 202 51.4997C202 47.9997 203.5 20.4997 204.5 12.4997C205.5 4.49971 209.5 -2.00029 211 3.99971C212.5 9.99971 213.5 23.9998 215.5 27.9998C217.5 31.9998 220 25.9998 220.5 31.4998C221 36.9998 225 29.4998 226 32.4998C227 35.4998 226.5 44.4998 229.5 38.9998C232.5 33.4998 235 29.9998 236.5 33.4998C238 36.9998 238 29.9998 239.5 26.9998C241 23.9998 242.5 25.9998 244 31.4998" stroke="#4933F2" stroke-width="2"/>
<defs>
<linearGradient id="paint0_linear_104_424" x1="122.5" y1="1.65674" x2="122.5" y2="216.5" gradientUnits="userSpaceOnUse">
<stop stop-color="#624DF6"/>
<stop offset="1" stop-color="#5F4AF6" stop-opacity="0"/>
</linearGradient>
</defs>
</svg>
