<svg width="97" height="148" viewBox="0 0 97 148" fill="none" xmlns="http://www.w3.org/2000/svg">
<g opacity="0.5">
<path fill-rule="evenodd" clip-rule="evenodd" d="M54.7485 12.4278L50.3 14.5172C49.9448 14.6755 49.5072 14.5634 49.3114 14.2641V14.2641C49.2548 14.1714 49.2242 14.0686 49.2222 13.964V4.70585C49.2222 2.94016 50.6295 2.23389 52.6547 2.23389H57.4121C59.3755 2.23389 60.8446 2.89308 60.8446 4.58814V13.964C60.8446 14.131 60.7672 14.2912 60.6294 14.4093C60.4917 14.5274 60.3049 14.5937 60.11 14.5937C59.9858 14.592 59.8636 14.5658 59.7531 14.5172L55.2771 12.4278C55.1122 12.3514 54.9134 12.3514 54.7485 12.4278Z" stroke="#210F33" stroke-width="1.5" stroke-linecap="round" stroke-linejoin="round"/>
<path d="M52.2771 6.44262H57.7485" stroke="#210F33" stroke-width="1.5" stroke-linecap="round" stroke-linejoin="round"/>
<path d="M6.86791 13.8038V11.8318C6.8679 11.3303 7.34484 10.9227 7.93576 10.9194H10.1003C10.6941 10.9194 11.1754 11.3279 11.1754 11.8318V11.8318V13.8099C11.1752 14.2357 11.5757 14.5838 12.0773 14.5938H13.5203C14.9588 14.5938 16.125 13.604 16.125 12.383V12.383V6.77342C16.1173 6.29308 15.8516 5.84203 15.4035 5.54862L10.4683 2.1743C9.6037 1.58676 8.37465 1.58676 7.51006 2.1743L2.59652 5.55474C2.14669 5.84696 1.88054 6.29877 1.875 6.77954V12.383C1.875 13.604 3.04116 14.5938 4.47968 14.5938H5.92272C6.43677 14.5938 6.85348 14.2401 6.85348 13.8038V13.8038" stroke="#210F33" stroke-width="1.5" stroke-linecap="round" stroke-linejoin="round"/>
<circle cx="115.5" cy="125.5" r="22.5" fill="url(#paint0_linear_4_638)"/>
</g>
<defs>
<linearGradient id="paint0_linear_4_638" x1="115.5" y1="103" x2="115.5" y2="148" gradientUnits="userSpaceOnUse">
<stop stop-color="#5743EB"/>
<stop offset="1" stop-color="#5542E8"/>
</linearGradient>
</defs>
</svg>
