<svg width="22" height="117" viewBox="0 0 22 117" fill="none" xmlns="http://www.w3.org/2000/svg">
<circle cx="11" cy="106" r="11" fill="white"/>
<path fill-rule="evenodd" clip-rule="evenodd" d="M11 18.9931C4.92487 18.9931 0 14.7708 0 9.56234C0 4.35388 4.92487 0.131592 11 0.131592C17.0751 0.131592 22 4.35388 22 9.56234C22 14.7708 17.0751 18.9931 11 18.9931ZM15.5759 8.09521C15.7915 6.85963 14.6942 6.19542 13.1938 5.75232L13.6805 4.07858L12.4922 3.82467L12.0183 5.45431C11.7059 5.38757 11.3851 5.3246 11.0662 5.26221L11.5435 3.62184L10.3558 3.36793L9.86875 5.04109C9.61016 4.9906 9.35632 4.94069 9.10992 4.88817L9.11127 4.88295L7.47244 4.53212L7.15632 5.62029C7.15632 5.62029 8.03801 5.79352 8.01939 5.80426C8.50069 5.90727 8.58767 6.18033 8.57312 6.3968L8.01872 8.30355C8.05189 8.31081 8.09487 8.32125 8.14226 8.3375C8.10266 8.32909 8.06035 8.3198 8.01669 8.31081L7.23958 10.9819C7.18069 11.1072 7.03143 11.2953 6.69499 11.2239C6.70684 11.2387 5.83124 11.0391 5.83124 11.0391L5.2413 12.2053L6.78773 12.5358C7.07543 12.5976 7.35736 12.6623 7.6349 12.7232L7.14312 14.4161L8.3301 14.67L8.81715 12.9951C9.14139 13.0706 9.45616 13.1402 9.76416 13.2058L9.27881 14.8729L10.4671 15.1268L10.9589 13.4371C12.9853 13.7658 14.5091 13.6332 15.1504 12.0619C15.6673 10.7968 15.1247 10.067 14.0586 9.59107C14.835 9.43756 15.4199 8.99969 15.5759 8.09521Z" fill="#5442E8"/>
<path fill-rule="evenodd" clip-rule="evenodd" d="M13.2283 8.07693C12.8932 9.22777 10.8252 8.64306 10.1544 8.49971L10.746 6.46557C11.4169 6.60892 13.5773 6.87646 13.2283 8.07693Z" fill="#5442E8"/>
<path fill-rule="evenodd" clip-rule="evenodd" d="M12.8607 11.3594C12.4935 12.6246 10.0089 11.9406 9.20333 11.7691L9.85589 9.52636C10.6614 9.69872 13.2446 10.04 12.8607 11.3594Z" fill="#5442E8"/>
</svg>
