<svg width="22" height="618" viewBox="0 0 22 618" fill="none" xmlns="http://www.w3.org/2000/svg">
<circle cx="11" cy="607" r="11" fill="white"/>
<path fill-rule="evenodd" clip-rule="evenodd" d="M11 3.86936C4.92487 3.86936 0 3.17336 0 2.3148C0 1.45625 4.92487 0.760254 11 0.760254C17.0751 0.760254 22 1.45625 22 2.3148C22 3.17336 17.0751 3.86936 11 3.86936ZM15.5759 2.07296C15.7915 1.86929 14.6942 1.75981 13.1938 1.68677L13.6805 1.41087L12.4922 1.36902L12.0183 1.63764C11.7059 1.62664 11.3851 1.61626 11.0662 1.60598L11.5435 1.33558L10.3558 1.29373L9.86875 1.56953C9.61016 1.56121 9.35632 1.55298 9.10992 1.54432L9.11127 1.54346L7.47244 1.48563L7.15632 1.665C7.15632 1.665 8.03801 1.69356 8.01939 1.69533C8.50069 1.71231 8.58767 1.75732 8.57312 1.793L8.01872 2.10731C8.05189 2.1085 8.09487 2.11023 8.14226 2.1129C8.10266 2.11152 8.06035 2.10999 8.01669 2.1085L7.23958 2.5488C7.18069 2.56946 7.03143 2.60046 6.69499 2.58869C6.70684 2.59113 5.83124 2.55822 5.83124 2.55822L5.2413 2.75046L6.78773 2.80494C7.07543 2.81513 7.35736 2.8258 7.6349 2.83584L7.14312 3.1149L8.3301 3.15675L8.81715 2.88066C9.14139 2.8931 9.45616 2.90458 9.76416 2.91539L9.27881 3.19018L10.4671 3.23204L10.9589 2.95351C12.9853 3.0077 14.5091 2.98584 15.1504 2.72683C15.6673 2.51828 15.1247 2.39799 14.0586 2.31954C14.835 2.29424 15.4199 2.22206 15.5759 2.07296Z" fill="#5442E8"/>
<path fill-rule="evenodd" clip-rule="evenodd" d="M13.2283 2.06995C12.8932 2.25965 10.8252 2.16327 10.1544 2.13964L10.746 1.80434C11.4169 1.82797 13.5773 1.87207 13.2283 2.06995Z" fill="#5442E8"/>
<path fill-rule="evenodd" clip-rule="evenodd" d="M12.8607 2.61103C12.4935 2.81958 10.0089 2.70684 9.20333 2.67857L9.85589 2.30887C10.6614 2.33729 13.2446 2.39354 12.8607 2.61103Z" fill="#5442E8"/>
</svg>
