<svg width="97" height="758" viewBox="0 0 97 758" fill="none" xmlns="http://www.w3.org/2000/svg">
<g opacity="0.5">
<path fill-rule="evenodd" clip-rule="evenodd" d="M54.749 3.216L50.3005 3.56041C49.9453 3.5865 49.5077 3.56803 49.3119 3.51869V3.51869C49.2553 3.50341 49.2247 3.48646 49.2227 3.46921V1.94312C49.2227 1.65207 50.63 1.53564 52.6552 1.53564H57.4126C59.376 1.53564 60.8451 1.6443 60.8451 1.92372V3.46921C60.8451 3.49674 60.7677 3.52315 60.6299 3.54262C60.4922 3.56208 60.3053 3.57302 60.1105 3.57302C59.9863 3.57274 59.8641 3.56843 59.7535 3.56041L55.2776 3.216C55.1126 3.2034 54.9139 3.2034 54.749 3.216Z" stroke="#210F33" stroke-width="1.5" stroke-linecap="round" stroke-linejoin="round"/>
<path d="M52.2773 2.22975H57.7487" stroke="#210F33" stroke-width="1.5" stroke-linecap="round" stroke-linejoin="round"/>
<path d="M6.86791 3.44275V3.1177C6.8679 3.03502 7.34484 2.96784 7.93576 2.96728H10.1003C10.6941 2.96728 11.1754 3.03463 11.1754 3.1177V3.1177V3.44375C11.1752 3.51395 11.5757 3.57132 12.0773 3.57297H13.5203C14.9588 3.57297 16.125 3.40981 16.125 3.20855V3.20855V2.28387C16.1173 2.2047 15.8516 2.13035 15.4035 2.08198L10.4683 1.52576C9.6037 1.42891 8.37465 1.42891 7.51006 1.52576L2.59652 2.08299C2.14669 2.13116 1.88054 2.20563 1.875 2.28488V3.20855C1.875 3.40981 3.04116 3.57297 4.47968 3.57297H5.92272C6.43677 3.57297 6.85348 3.51466 6.85348 3.44275V3.44275" stroke="#210F33" stroke-width="1.5" stroke-linecap="round" stroke-linejoin="round"/>
<circle cx="115.5" cy="735.5" r="22.5" fill="url(#paint0_linear_115_2412)"/>
</g>
<defs>
<linearGradient id="paint0_linear_115_2412" x1="115.5" y1="713" x2="115.5" y2="758" gradientUnits="userSpaceOnUse">
<stop stop-color="#5743EB"/>
<stop offset="1" stop-color="#5542E8"/>
</linearGradient>
</defs>
</svg>
