<svg width="117" height="217" viewBox="0 0 117 217" fill="none" xmlns="http://www.w3.org/2000/svg">
<path opacity="0.1" d="M11.5 144C11 148.5 9.5 150 9 143.5C8.26047 133.886 5.07568 133 5.07568 139C5.93622 149 2.71712 150.5 1 150V216.5H244V31.5002C242.5 26.0002 241 24.0002 239.5 27.0002C238 30.0002 238 37.0002 236.5 33.5002C235 30.0002 232.5 33.5002 229.5 39.0002C226.5 44.5002 227 35.5002 226 32.5002C225 29.5002 221 37.0002 220.5 31.5002C220 26.0002 217.5 32.0002 215.5 28.0002C213.5 24.0002 212.5 10.0002 211 4.0002C209.5 -1.9998 205.5 4.5002 204.5 12.5002C203.5 20.5002 202 48.0002 202 51.5002C202 55.0002 201 53.5002 199 52.5002C197 51.5002 196 62.5002 194.5 66.5002C193 70.5002 191.5 67.5002 190.5 65.0002C189.5 62.5002 185.5 77.5002 186 81.0002C186.5 84.5002 186.5 93.0002 183 90.5002C179.5 88.0002 178 92.5002 177.5 99.0002C177 105.5 174 101.5 171 96.5002C168 91.5002 165.5 74.0002 164.5 68.5002C163.5 63.0002 161.5 60.5002 159.5 62.5002C157.5 64.5002 156.5 68.5002 155.5 80.0002C154.5 91.5002 149 102 148.5 108C148 114 145.5 115 142 107.5C138.5 100 138.5 102.5 137 110C135.5 117.5 131 123 129 122.5C127 122 127 111.5 125 113.5C123 115.5 122.5 114.5 122 113C121.5 111.5 122.5 94.5002 120 96.5002C117.5 98.5002 116.5 94.0003 115 81.5003C113.5 69.0003 111.5 73.0003 110.5 78.5003C109.5 84.0003 105.5 125.5 106 129C106.5 132.5 105.5 139.5 102.5 132.5C99.5 125.5 99 125 97.5 126.5C96 128 96 122.5 96 120.5C96 118.5 93 120 93 117.5C93 115 92 116 90.5 114.5C89 113 89.5 103.5 88 100C86.5 96.5003 83 94.0003 83 98.0003C83 102 82 107 81 115.5C80 124 80 128.5 79 127.5C78 126.5 77.5 129.5 76 133.5C74.5 137.5 74.5 126.5 72 116.5C69.5 106.5 66.5 115 66.5 121C66.5 127 66.5 125 64.5 126.5C62.5 128 64.5 135 63 134C61.5 133 60.5 136 60.5 141C60.5 146 59 143.5 58.5 143.5C58 143.5 57 151 55 144.5C53 138 51 145 49 154C47 163 45 157 45 155C45 153 45.5 134 44.5 137C43.5 140 42 132.5 41.5 131C41 129.5 39.5 131 37.5 130.5C35.5 130 35.5 123 34.5 125C33.5 127 32.5 128 31.5 123.5C30.5 119 29.5 119 28.5 121C27.5 123 26 115 24 114.5C22 114 22.5 126.5 21.5 125C20.5 123.5 19 124.5 19 128C19 131.5 18.5 136 17 134C15.5 132 14.5 139 14.5 141.5C14.5 144 12 139.5 11.5 144Z" fill="url(#paint0_linear_115_2488)"/>
<path opacity="0.4" d="M1 150C2.71712 150.5 5.93622 149 5.07568 139C5.07568 133 8.26047 133.886 9 143.5C9.5 150 11 148.5 11.5 144C12 139.5 14.5 144 14.5 141.5C14.5 139 15.5 132 17 134C18.5 136 19 131.5 19 128C19 124.5 20.5 123.5 21.5 125C22.5 126.5 22 114 24 114.5C26 115 27.5 123 28.5 121C29.5 119 30.5 119 31.5 123.5C32.5 128 33.5 127 34.5 125C35.5 123 35.5 130 37.5 130.5C39.5 131 41 129.5 41.5 131C42 132.5 43.5 140 44.5 137C45.5 134 45 153 45 155C45 157 47 163 49 154C51 145 53 138 55 144.5C57 151 58 143.5 58.5 143.5C59 143.5 60.5 146 60.5 141C60.5 136 61.5 133 63 134C64.5 135 62.5 128 64.5 126.5C66.5 125 66.5 127 66.5 121C66.5 115 69.5 106.5 72 116.5C74.5 126.5 74.5 137.5 76 133.5C77.5 129.5 78 126.5 79 127.5C80 128.5 80 124 81 115.5C82 107 83 102 83 98.0003C83 94.0003 86.5 96.5003 88 100C89.5 103.5 89 113 90.5 114.5C92 116 93 115 93 117.5C93 120 96 118.5 96 120.5C96 122.5 96 128 97.5 126.5C99 125 99.5 125.5 102.5 132.5C105.5 139.5 106.5 132.5 106 129C105.5 125.5 109.5 84.0003 110.5 78.5003C111.5 73.0003 113.5 69.0003 115 81.5003C116.5 94.0003 117.5 98.5002 120 96.5002C122.5 94.5002 121.5 111.5 122 113C122.5 114.5 123 115.5 125 113.5C127 111.5 127 122 129 122.5C131 123 135.5 117.5 137 110C138.5 102.5 138.5 100 142 107.5C145.5 115 148 114 148.5 108C149 102 154.5 91.5002 155.5 80.0002C156.5 68.5002 157.5 64.5002 159.5 62.5002C161.5 60.5002 163.5 63.0002 164.5 68.5002C165.5 74.0002 168 91.5002 171 96.5002C174 101.5 177 105.5 177.5 99.0002C178 92.5002 179.5 88.0002 183 90.5002C186.5 93.0002 186.5 84.5002 186 81.0002C185.5 77.5002 189.5 62.5002 190.5 65.0002C191.5 67.5002 193 70.5001 194.5 66.5002C196 62.5002 197 51.5002 199 52.5002C201 53.5002 202 55.0002 202 51.5002C202 48.0002 203.5 20.5002 204.5 12.5002C205.5 4.5002 209.5 -1.9998 211 4.0002C212.5 10.0002 213.5 24.0002 215.5 28.0002C217.5 32.0002 220 26.0002 220.5 31.5002C221 37.0002 225 29.5002 226 32.5002C227 35.5002 226.5 44.5002 229.5 39.0002C232.5 33.5002 235 30.0002 236.5 33.5002C238 37.0002 238 30.0002 239.5 27.0002C241 24.0002 242.5 26.0002 244 31.5002" stroke="#4933F2" stroke-width="2"/>
<defs>
<linearGradient id="paint0_linear_115_2488" x1="122.5" y1="1.65723" x2="122.5" y2="216.5" gradientUnits="userSpaceOnUse">
<stop stop-color="#624DF6"/>
<stop offset="1" stop-color="#5F4AF6" stop-opacity="0"/>
</linearGradient>
</defs>
</svg>
