<svg width="85" height="85" viewBox="0 0 85 85" fill="none" xmlns="http://www.w3.org/2000/svg">
<g clip-path="url(#clip0_472_1694)">
<path d="M2.65625 77.0312H7.96875V69.0625C7.96875 68.358 8.2486 67.6824 8.74675 67.1842C9.24489 66.6861 9.92052 66.4062 10.625 66.4062C11.3295 66.4062 12.0051 66.6861 12.5033 67.1842C13.0014 67.6824 13.2812 68.358 13.2812 69.0625V77.0312H29.2188V18.5938H13.2812V58.4375C13.2812 59.142 13.0014 59.8176 12.5033 60.3158C12.0051 60.8139 11.3295 61.0938 10.625 61.0938C9.92052 61.0938 9.24489 60.8139 8.74675 60.3158C8.2486 59.8176 7.96875 59.142 7.96875 58.4375V15.9375C7.96875 15.233 8.2486 14.5574 8.74675 14.0592C9.24489 13.5611 9.92052 13.2812 10.625 13.2812H31.875C32.5795 13.2812 33.2551 13.5611 33.7533 14.0592C34.2514 14.5574 34.5312 15.233 34.5312 15.9375V29.2188H53.125C53.8295 29.2188 54.5051 29.4986 55.0033 29.9967C55.5014 30.4949 55.7812 31.1705 55.7812 31.875V45.1562H74.375C75.0795 45.1562 75.7551 45.4361 76.2533 45.9342C76.7514 46.4324 77.0312 47.108 77.0312 47.8125V77.0312H82.3438C83.0482 77.0312 83.7239 77.3111 84.222 77.8092C84.7201 78.3074 85 78.983 85 79.6875C85 80.392 84.7201 81.0676 84.222 81.5658C83.7239 82.0639 83.0482 82.3438 82.3438 82.3438H2.65625C1.95177 82.3438 1.27614 82.0639 0.777996 81.5658C0.279852 81.0676 0 80.392 0 79.6875C0 78.983 0.279852 78.3074 0.777996 77.8092C1.27614 77.3111 1.95177 77.0312 2.65625 77.0312ZM71.7188 50.4688H55.7812V77.0312H71.7188V50.4688ZM50.4688 34.5312H34.5312V77.0312H50.4688V34.5312Z" fill="#FFAF18"/>
<path d="M63.75 39.8438H82.3438C83.0482 39.8438 83.7239 39.5639 84.222 39.0658C84.7201 38.5676 85 37.892 85 37.1875C85 36.483 84.7201 35.8074 84.222 35.3092C83.7239 34.8111 83.0482 34.5312 82.3438 34.5312H66.4062V21.25C66.4062 20.5455 66.1264 19.8699 65.6283 19.3717C65.1301 18.8736 64.4545 18.5938 63.75 18.5938H45.1562V5.3125C45.1562 4.60802 44.8764 3.93239 44.3783 3.43425C43.8801 2.9361 43.2045 2.65625 42.5 2.65625H10.625C9.92052 2.65625 9.24489 2.9361 8.74675 3.43425C8.2486 3.93239 7.96875 4.60802 7.96875 5.3125C7.96875 6.01698 8.2486 6.69261 8.74675 7.19075C9.24489 7.6889 9.92052 7.96875 10.625 7.96875H39.8438V21.25C39.8438 21.9545 40.1236 22.6301 40.6217 23.1283C41.1199 23.6264 41.7955 23.9062 42.5 23.9062H61.0938V37.1875C61.0938 37.892 61.3736 38.5676 61.8717 39.0658C62.3699 39.5639 63.0455 39.8438 63.75 39.8438V39.8438Z" fill="#FFAF18"/>
</g>
<defs>
<clipPath id="clip0_472_1694">
<rect width="85" height="85" fill="white" transform="matrix(-1 0 0 1 85 0)"/>
</clipPath>
</defs>
</svg>
