<svg width="116" height="116" viewBox="0 0 116 116" fill="none" xmlns="http://www.w3.org/2000/svg">
<path d="M68.875 65.25C74.8811 65.25 79.75 70.1189 79.75 76.125V79.75C79.75 94.043 66.2686 108.75 43.5 108.75C20.7314 108.75 7.25 94.043 7.25 79.75V76.125C7.25 70.1189 12.1189 65.25 18.125 65.25H68.875ZM68.875 72.5H18.125C16.123 72.5 14.5 74.123 14.5 76.125V79.75C14.5 90.1729 24.8831 101.5 43.5 101.5C62.1169 101.5 72.5 90.1729 72.5 79.75V76.125C72.5 74.123 70.877 72.5 68.875 72.5ZM43.5 18.125C54.5112 18.125 63.4375 27.0513 63.4375 38.0625C63.4375 49.0737 54.5112 58 43.5 58C32.4888 58 23.5625 49.0737 23.5625 38.0625C23.5625 27.0513 32.4888 18.125 43.5 18.125ZM43.5 25.375C36.4929 25.375 30.8125 31.0554 30.8125 38.0625C30.8125 45.0696 36.4929 50.75 43.5 50.75C50.5071 50.75 56.1875 45.0696 56.1875 38.0625C56.1875 31.0554 50.5071 25.375 43.5 25.375Z" fill="#FFAF18"/>
</svg>
