<svg width="458" height="240" viewBox="0 0 458 240" fill="none" xmlns="http://www.w3.org/2000/svg">
<path d="M332.647 66.9212C324.758 66.9212 317.127 68.0171 309.892 70.0598C291.29 46.0764 262.217 30.6382 229.54 30.6382C181.071 30.6382 140.531 64.5935 130.335 110.041C128.977 109.756 127.594 109.613 126.206 109.613C115.145 109.613 106.178 118.592 106.178 129.668C106.178 131.044 106.317 132.388 106.58 133.686C84.5633 139.352 68.293 159.362 68.293 183.176C68.293 192.748 70.9216 201.704 75.4943 209.362H392.129C407.018 194.251 416.21 173.499 416.21 150.595C416.21 104.383 378.798 66.9212 332.647 66.9212V66.9212Z" fill="#878787" fill-opacity="0.1"/>
<path d="M195.158 183.936C183.903 183.936 174.411 191.494 171.469 201.818H218.847C215.904 191.494 206.413 183.936 195.158 183.936Z" fill="#2CBDDD"/>
<path d="M112.386 170.471C112.851 169.321 112.296 168.012 111.148 167.547C110 167.082 108.692 167.637 108.228 168.787C107.763 169.937 108.318 171.246 109.466 171.711C110.614 172.176 111.922 171.621 112.386 170.471Z" fill="white"/>
<path d="M168.123 98.2312H289.877V209.13H168.123V98.2312Z" fill="#FFAF18"/>
<path d="M228.999 45.9243L152.297 108.222H305.701L228.999 45.9243Z" fill="#FFAF18"/>
<path d="M271.451 66.386H284.489V103.369H271.451V66.386Z" fill="#FFAF18"/>
<path d="M388.482 184.521C389.562 184.521 390.437 183.644 390.437 182.563C390.437 181.482 389.562 180.606 388.482 180.606C387.403 180.606 386.527 181.482 386.527 182.563C386.527 183.644 387.403 184.521 388.482 184.521Z" fill="white"/>
<path d="M183.89 64.6881C184.97 64.6881 185.845 63.8117 185.845 62.7306C185.845 61.6496 184.97 60.7732 183.89 60.7732C182.811 60.7732 181.936 61.6496 181.936 62.7306C181.936 63.8117 182.811 64.6881 183.89 64.6881Z" fill="white"/>
<path d="M362.723 115.72C364.549 115.72 366.029 114.238 366.029 112.41C366.029 110.582 364.549 109.1 362.723 109.1C360.898 109.1 359.418 110.582 359.418 112.41C359.418 114.238 360.898 115.72 362.723 115.72Z" fill="white"/>
<path d="M158.971 155.676C160.797 155.676 162.277 154.194 162.277 152.366C162.277 150.538 160.797 149.056 158.971 149.056C157.146 149.056 155.666 150.538 155.666 152.366C155.666 154.194 157.146 155.676 158.971 155.676Z" fill="white"/>
<path d="M68.444 188.179C70.2695 188.179 71.7494 186.697 71.7494 184.869C71.7494 183.042 70.2695 181.56 68.444 181.56C66.6185 181.56 65.1387 183.042 65.1387 184.869C65.1387 186.697 66.6185 188.179 68.444 188.179Z" fill="white"/>
<path d="M192.214 52.3957C194.039 52.3957 195.519 50.9139 195.519 49.086C195.519 47.2582 194.039 45.7764 192.214 45.7764C190.388 45.7764 188.908 47.2582 188.908 49.086C188.908 50.9139 190.388 52.3957 192.214 52.3957Z" fill="white"/>
</svg>
