<svg width="391" height="406" viewBox="0 0 391 406" fill="none" xmlns="http://www.w3.org/2000/svg">
<g clip-path="url(#clip0_99_1125)">
<path d="M86.9716 102.56C87.5561 101.988 87.9109 101.222 87.969 100.406C88.0272 99.5899 87.7847 98.7811 87.2873 98.1316C86.7899 97.4822 86.072 97.0371 85.2689 96.8804C84.4659 96.7236 83.6332 96.8659 82.9279 97.2805C83.0259 96.9157 83.0356 96.5328 82.9561 96.1635C82.8765 95.7942 82.7101 95.4492 82.4706 95.157C82.2311 94.8648 81.9253 94.6339 81.5787 94.4834C81.2321 94.3329 80.8546 94.2671 80.4774 94.2915C80.4381 93.8275 80.2931 93.3787 80.0535 92.9793C79.8139 92.58 79.4861 92.2407 79.0952 91.9875C78.7042 91.7342 78.2605 91.5738 77.7979 91.5184C77.3354 91.4629 76.8663 91.514 76.4265 91.6677C76.4305 91.0572 76.2785 90.4557 75.9848 89.9204C75.6912 89.385 75.2656 88.9335 74.7485 88.6085C74.2314 88.2836 73.6398 88.096 73.0299 88.0636C72.4199 88.0312 71.8117 88.155 71.2631 88.4232C71.195 88.11 71.027 87.8273 70.7842 87.6179C70.5415 87.4085 70.2372 87.2836 69.9172 87.2621C69.5972 87.2406 69.279 87.3237 69.0104 87.4988C68.7418 87.674 68.5374 87.9316 68.4281 88.233C68.2504 88.0958 68.042 88.0037 67.8209 87.9645C67.5998 87.9253 67.3725 87.9403 67.1584 88.0081C66.9443 88.0759 66.7499 88.1945 66.5917 88.3537C66.4334 88.513 66.3161 88.7082 66.2498 88.9227C65.87 88.7961 65.4579 88.8063 65.0848 88.9514C64.7116 89.0965 64.401 89.3675 64.2067 89.7174C64.0124 90.0673 63.9466 90.4741 64.0207 90.8674C64.0948 91.2607 64.3042 91.6157 64.6125 91.8709C64.5257 91.8597 64.4375 91.866 64.353 91.8893C64.2686 91.9126 64.1897 91.9526 64.121 92.0068C64.0522 92.061 63.995 92.1284 63.9526 92.205C63.9102 92.2816 63.8836 92.3659 63.8743 92.453C63.8527 92.8087 63.9416 93.1623 64.1288 93.4656C64.6139 94.4275 65.2973 95.3804 66.315 95.7351C67.3325 96.0898 68.6992 95.5425 68.8413 94.4746C69.3814 95.9239 70.4204 97.1335 71.7719 97.8863C73.1235 98.6392 74.6992 98.8861 76.2163 98.5827C76.4983 98.2362 75.7051 97.8722 75.468 98.2507C75.2308 98.6293 75.4846 99.1236 75.7843 99.4549C76.3219 100.034 77.0048 100.459 77.7622 100.685C78.5195 100.911 79.3236 100.93 80.0908 100.74C80.4795 100.638 80.8685 100.066 80.4857 99.9444C80.345 99.9704 80.2189 100.048 80.1319 100.161C80.0448 100.275 80.003 100.416 80.0144 100.559C80.3402 101.372 80.9295 102.052 81.6878 102.49C82.4811 102.845 83.6372 102.473 83.7574 101.612C84.4858 103.015 86.9474 102.887 87.5267 101.417L86.9716 102.56Z" fill="#A3A3A3"/>
<path d="M262.011 183.435C263.184 186.955 260.997 190.627 258.909 193.693C254.585 200.042 250.262 206.39 245.938 212.738C238.791 206.383 230.917 200.896 222.479 196.392L262.011 183.435Z" fill="#6B5149"/>
<path d="M190.819 55.9983C185.193 49.1478 176.145 46.1111 167.391 44.7073C165.916 44.3943 164.398 44.3448 162.906 44.5612C162.161 44.6764 161.453 44.9666 160.842 45.4081C160.231 45.8495 159.733 46.4296 159.39 47.1007C158.288 49.6211 160.329 52.3795 162.45 54.1318C165.978 57.0072 170.085 59.0888 174.491 60.235C178.896 61.3813 183.497 61.5652 187.98 60.7742L190.819 55.9983Z" fill="#6B5149"/>
<path d="M28.0001 140.451C19.2958 138.791 10.287 140.046 2.36816 144.021C2.62953 145.113 2.89088 146.204 3.15216 147.296C3.15771 147.487 3.20344 147.674 3.28642 147.847C3.3694 148.019 3.48774 148.171 3.63374 148.295C3.77973 148.418 3.95009 148.509 4.13372 148.562C4.31734 148.616 4.51012 148.629 4.69946 148.603C12.7518 149.231 21.069 149.828 28.7123 147.219C28.9324 147.144 29.2241 147.087 29.3567 147.278C29.4892 147.469 29.0305 147.671 29.0718 147.442L28.0001 140.451Z" fill="#6B5149"/>
<path d="M151.208 291.826C158.101 269.153 171.08 248.803 188.734 232.988C198.638 224.146 210.793 216.576 224.073 216.676C229.111 216.714 234.087 217.862 239.125 217.978C233.111 207.02 225.451 196.405 214.505 190.364C203.481 184.279 190.44 183.498 177.961 181.814C160.817 179.499 143.99 175.252 127.802 169.153C123.979 167.713 120.068 166.085 117.263 163.116C116.254 162.048 115.364 160.791 114.038 160.159C111.72 159.056 108.998 160.239 106.774 161.521C102.473 163.999 98.4363 166.908 94.7242 170.201C92.4269 172.24 90.1864 174.535 89.2076 177.446C88.4965 179.561 88.5073 181.848 88.6973 184.071C89.6163 194.821 94.4674 204.771 98.6955 214.698C105.405 230.455 110.709 246.772 114.546 263.461C115.616 268.118 116.617 272.915 119.188 276.943C120.845 279.495 123.066 281.632 125.68 283.19C128.294 284.748 131.231 285.686 134.264 285.931L151.208 291.826Z" fill="#6B5149"/>
<path d="M86.6287 145.179C82.8435 146.06 78.8925 145.357 75.2686 143.745C71.6445 142.133 68.3166 139.643 65.166 136.906C67.7033 132.41 70.6708 128.171 74.0267 124.248C75.8704 130.778 81.8758 133.891 85.2227 139.437L86.6287 145.179Z" fill="#A3A3A3"/>
<path d="M354.094 245.893C359.117 247.645 364.14 249.396 369.163 251.148C367.938 256.603 366.713 262.059 365.487 267.514C358.642 266.407 351.946 264.517 345.532 261.881C347.228 256.111 348.538 250.235 349.452 244.291L354.094 245.893Z" fill="#EEBE84"/>
<path d="M61.8015 195.715C61.6907 194.857 60.9047 194.273 60.1887 193.789C51.2125 187.71 42.3752 180.462 38.2402 170.444C44.1894 170.003 50.0853 169.015 55.8529 167.492C59.5623 174.143 62.0448 181.407 63.1819 188.937C63.4737 190.875 63.6479 192.975 62.6899 194.685L61.8015 195.715Z" fill="#1B4466"/>
<path d="M113.239 334.499C107.923 334.69 102.606 334.882 97.2899 335.073C96.4491 329.546 95.6083 324.018 94.7676 318.49C101.548 317.037 108.473 316.367 115.407 316.494C115.923 322.485 116.838 328.436 118.146 334.305L113.239 334.499Z" fill="#EEBE84"/>
<path d="M129.572 261.601C140.764 251.149 150.665 239.396 159.064 226.591C154.055 216.856 147.719 207.863 140.238 199.868C134.033 212.631 130.195 226.414 128.912 240.546L129.572 261.601Z" fill="#1B4466"/>
<path d="M100.358 111.427C102.815 113.333 105.339 115.404 106.519 118.28C108.008 121.906 107.012 126.172 104.903 129.476C102.794 132.781 99.7015 135.317 96.6621 137.794C101.882 142.335 106.795 147.218 111.368 152.41C108.365 155.427 105.185 158.262 101.844 160.9C101.156 161.444 100.363 162.01 99.4899 161.915C98.7695 161.754 98.1188 161.368 97.6318 160.814C90.9634 154.638 84.2949 148.463 77.6264 142.287C74.9491 144.669 71.0459 146.21 67.763 144.772C64.48 143.334 63.3172 137.994 66.3996 136.165C64.0253 133.748 59.1369 129.116 54.0648 124.322C46.0789 116.775 43.0677 100.419 51.9107 93.896C55.046 91.5832 61.8865 85.976 67.6006 87.69C71.2929 88.7977 93.474 106.088 100.358 111.427Z" fill="#EEBE84"/>
<path d="M1.05154 113.995C-0.650558 109.006 -0.321947 103.06 2.29813 98.6402C4.91782 94.2212 9.7925 91.7543 14.3207 92.4173C14.7302 92.48 15.1156 92.6507 15.437 92.9119C15.7584 93.1731 16.0043 93.5153 16.1493 93.9032C16.2942 94.2911 16.333 94.7106 16.2616 95.1185C16.1901 95.5263 16.0111 95.9078 15.743 96.2234C15.3273 96.717 14.8522 97.1574 14.3284 97.5346C16.4944 97.1294 18.6975 96.9562 20.9003 97.018C21.0811 97.0464 21.252 97.1188 21.3981 97.2289C21.5442 97.3391 21.6609 97.4835 21.7378 97.6495C21.8148 97.8154 21.8496 97.9977 21.8393 98.1803C21.829 98.3629 21.7738 98.5402 21.6787 98.6964C20.333 101.141 18.1731 103.038 15.5741 104.057C17.1257 103.922 17.6297 104.8 19.1752 105.007C21.7146 102.317 24.4664 99.8342 27.4039 97.5842C27.7639 97.323 28.1978 97.1832 28.6427 97.185C29.0876 97.1869 29.5204 97.3304 29.8783 97.5947C30.2361 97.8589 30.5004 98.2303 30.6329 98.6548C30.7654 99.0793 30.7592 99.535 30.6151 99.9558C29.4897 103.074 26.8911 106.224 25.6982 109.125C24.7148 111.518 18.7913 124.305 19.0306 126.88C20.6744 144.57 28.9685 172.119 28.7881 172.267C45.8306 166.219 78.9119 155.109 78.9119 155.109C77.6893 162.96 76.2393 183.324 72.8591 184.091C61.4825 186.673 50.1059 189.254 38.7291 191.836C29.2757 193.981 17.5702 195.403 11.5392 187.817C7.64976 182.924 6.70341 143.515 4.23019 130.594C3.46487 126.595 2.58294 122.488 2.47714 118.445C1.47778 117.184 0.971127 115.602 1.05154 113.995Z" fill="#EEBE84"/>
<path d="M115.334 138.661C117.656 133.295 128.062 114.95 138.992 95.9061C153.127 71.2753 168.186 45.4724 168.272 45.0396C168.512 43.8239 160.964 18.0938 159.892 8.635C159.878 8.4819 159.915 8.32846 159.998 8.19864C160.08 8.06882 160.203 7.96993 160.348 7.91742C160.492 7.86491 160.65 7.86173 160.797 7.90838C160.943 7.95504 161.07 8.04889 161.158 8.17529C162.727 10.2373 164.382 16.8292 165.229 20.785C164.33 15.6485 163.575 7.00403 163.904 3.10084C163.922 2.94653 163.991 2.8027 164.1 2.69181C164.209 2.58091 164.352 2.50917 164.506 2.48778C164.66 2.46638 164.817 2.49655 164.952 2.57356C165.087 2.65057 165.193 2.77009 165.253 2.9135C167.003 6.73161 168.267 19.3627 168.69 23.49C168.716 24.6051 168.857 6.66894 169.306 1.92577C169.376 1.25194 169.683 0.624641 170.171 0.154965C170.27 0.0796326 170.386 0.0307365 170.509 0.012919C170.631 -0.00489859 170.757 0.00895282 170.873 0.0531595C170.989 0.0973661 171.091 0.170461 171.171 0.265503C171.251 0.360545 171.305 0.474378 171.328 0.596199C172.203 4.96662 172.479 26.3555 173.496 22.9048L176.477 5.97332C176.723 4.67379 177.329 3.10107 178.437 2.70126C178.535 2.6682 178.639 2.65622 178.743 2.6661C178.846 2.67598 178.946 2.70751 179.036 2.75862C179.127 2.80973 179.205 2.87929 179.267 2.96275C179.328 3.04622 179.372 3.14173 179.394 3.24305C181.267 11.7361 178.742 20.9003 181.682 29.0201C181.726 29.1481 181.805 29.2612 181.91 29.3463C182.015 29.4313 182.142 29.4849 182.277 29.5008C182.411 29.5166 182.547 29.4942 182.67 29.436C182.792 29.3778 182.895 29.2863 182.967 29.172C184.131 27.1983 186.076 18.435 187.736 16.856C187.837 16.7674 187.96 16.7084 188.092 16.6855C188.225 16.6626 188.361 16.6768 188.486 16.7264C188.611 16.776 188.719 16.8592 188.8 16.9667C188.88 17.0742 188.93 17.2019 188.942 17.3356C189.308 21.0657 189.017 31.7595 189.082 35.4951C189.115 37.4065 189.08 39.4241 188.085 41.0216C187.262 42.3429 185.889 43.2013 184.705 44.2135C182.272 46.2932 180.588 49.0847 178.961 51.8386C174.438 59.4934 171.256 80.5092 161.739 103.228C154.439 120.656 141.413 139.016 133.291 153.54C131.814 156.181 112.881 144.33 115.334 138.661Z" fill="#EEBE84"/>
<path d="M134.052 227.261C133.162 229.505 158.933 285.774 155.64 293.178C149.57 306.825 119.525 311.711 104.66 313.225C109.802 324.445 121.351 349.575 122.585 350.312C124.192 351.271 149.205 345.09 159.785 342.439C178.511 337.748 199.625 331.153 207.614 313.585C213.944 299.668 209.723 283.471 205.421 268.801C203.301 261.576 201.182 254.351 199.063 247.126C219.298 249.066 239.343 252.643 258.999 257.822C264.525 259.279 270.016 260.861 275.507 262.443C297.542 268.791 319.576 275.139 341.611 281.487C346.757 268.323 351.903 255.16 357.049 241.996C333.168 230.832 309.287 219.667 285.405 208.503C278.401 205.228 271.343 201.934 263.842 200.053C253.855 197.549 243.426 197.632 233.13 197.73C213.297 197.918 193.464 198.106 173.631 198.294C173.631 198.294 134.677 225.687 134.052 227.261Z" fill="#F9E7DF"/>
<path d="M129.283 105.555C139.689 114.392 136.609 108.51 147.802 116.329C142.267 122.678 150.987 143.562 146.188 150.485C159.044 163.489 168.841 186.01 182.936 197.661C165.084 234.036 140.709 217.565 129.379 262.519C117.093 243.47 99.6764 203.341 85.8406 185.385C74.1468 191.671 75.3438 195.156 62.0898 195.945C60.2688 186.203 44.1785 176.684 42.3574 166.942C52.1297 163.068 61.9018 159.194 71.674 155.32C77.0168 153.202 82.6103 151.045 88.333 151.581C91.4145 151.87 94.4027 152.937 97.4967 153.008C100.591 153.079 104.061 151.789 105.173 148.902C106.123 146.435 105.078 143.604 105.718 141.038C106.236 138.96 107.782 137.321 109.226 135.739C117.443 126.728 124.092 116.406 128.898 105.199L129.283 105.555Z" fill="#3D71B0"/>
<path d="M96.6618 137.794L88.0225 146.822L100.946 141.664L96.6618 137.794Z" fill="#C69055"/>
<path d="M72.3312 140.092C70.5502 139.835 68.7384 139.881 66.9731 140.231C66.3257 140.359 66.0486 139.366 66.6994 139.238C68.6456 138.855 70.643 138.808 72.6051 139.1C72.7363 139.137 72.8476 139.224 72.9149 139.342C72.9822 139.461 73.0001 139.601 72.9647 139.733C72.9254 139.862 72.8378 139.972 72.7199 140.039C72.6019 140.106 72.4628 140.125 72.3312 140.092Z" fill="#C69055"/>
<path d="M70.6665 139.947C70.4884 140.764 70.3103 141.581 70.1322 142.398C70.095 142.529 70.0078 142.64 69.8892 142.708C69.7706 142.775 69.6303 142.793 69.4986 142.758C69.3687 142.719 69.2588 142.631 69.1918 142.513C69.1248 142.395 69.1059 142.256 69.139 142.125L69.6734 139.673C69.7106 139.542 69.7979 139.431 69.9164 139.364C70.035 139.296 70.1752 139.278 70.3069 139.314C70.4368 139.353 70.5468 139.44 70.6138 139.558C70.6808 139.676 70.6997 139.815 70.6665 139.947Z" fill="#C69055"/>
<path d="M29.596 172.95C30.2458 176.823 29.7587 180.801 28.1937 184.402C27.9309 185.009 27.0433 184.485 27.3044 183.883C28.7501 180.528 29.2008 176.828 28.6028 173.224C28.4942 172.576 29.4866 172.297 29.596 172.95Z" fill="#C69055"/>
<path d="M80.4733 110.29C83.4768 111.728 86.3869 113.354 89.1866 115.156C89.8804 115.604 90.5672 116.062 91.2468 116.531C91.7473 116.876 92.8045 117.333 92.4907 118.1C92.2955 118.441 92.054 118.754 91.7731 119.03C91.487 119.38 91.2008 119.73 90.9145 120.08C90.342 120.78 89.7695 121.48 89.1971 122.18C88.7775 122.694 88.0526 121.962 88.4688 121.452C88.9876 120.818 89.5064 120.183 90.0253 119.549C90.2757 119.243 90.5262 118.936 90.7765 118.63C90.9018 118.477 91.027 118.324 91.1522 118.171C91.2651 118.033 91.5129 117.826 91.5443 117.643C91.5615 117.775 91.5789 117.907 91.5962 118.04C91.4903 117.852 91.0994 117.678 90.9241 117.556C90.6835 117.389 90.4419 117.223 90.1995 117.059C89.7587 116.76 89.3148 116.465 88.868 116.175C87.9074 115.552 86.9335 114.95 85.9465 114.369C83.9955 113.22 81.9978 112.157 79.9535 111.179C79.3562 110.893 79.8779 110.005 80.4733 110.29Z" fill="#C69055"/>
<path d="M92.6963 126.851C92.6603 127.086 92.5758 127.31 92.4482 127.51C92.3206 127.71 92.1527 127.882 91.9551 128.013C91.7576 128.145 91.5348 128.234 91.3009 128.275C91.0671 128.316 90.8272 128.307 90.5968 128.25C90.1421 128.093 89.766 127.766 89.5476 127.337C89.3291 126.909 89.2852 126.412 89.4251 125.952C89.597 125.502 89.9224 125.127 90.3439 124.894C90.7655 124.661 91.2559 124.584 91.7287 124.677L92.6963 126.851Z" fill="white"/>
<path d="M93.2118 126.851C93.1465 127.398 92.8812 127.902 92.4668 128.266C92.0524 128.629 91.5182 128.827 90.9667 128.821C90.4157 128.781 89.8975 128.543 89.507 128.153C89.1164 127.762 88.8795 127.244 88.8396 126.693C88.8056 126.146 88.9601 125.604 89.2773 125.158C89.5945 124.711 90.0552 124.386 90.5828 124.238C90.8441 124.155 91.1173 124.116 91.3913 124.122C91.675 124.13 92.0222 124.155 92.1785 124.427C92.278 124.601 92.3457 124.803 92.427 124.986C92.6653 125.521 92.9034 126.056 93.1416 126.591C93.2064 126.71 93.2234 126.849 93.189 126.98C93.1547 127.111 93.0716 127.224 92.9568 127.295C92.8386 127.363 92.6985 127.382 92.5667 127.347C92.4348 127.313 92.3219 127.228 92.2522 127.111C91.9297 126.386 91.6072 125.661 91.2846 124.937C91.3872 125.015 91.4898 125.094 91.5924 125.173C91.5605 125.167 91.5287 125.16 91.4965 125.155C91.5206 125.159 91.5885 125.16 91.4884 125.157C91.4234 125.154 91.3591 125.15 91.2941 125.151C91.2373 125.153 91.1807 125.156 91.1242 125.163C91.0408 125.172 91.1988 125.148 91.1166 125.166C91.0768 125.174 91.037 125.181 90.9975 125.191C90.9422 125.204 90.8875 125.22 90.8334 125.238C90.8025 125.248 90.7721 125.26 90.7415 125.271C90.6635 125.3 90.8047 125.24 90.7296 125.276C90.6125 125.332 90.4998 125.397 90.3926 125.47C90.3244 125.517 90.4447 125.426 90.3809 125.478C90.3559 125.498 90.3314 125.519 90.3073 125.541C90.2654 125.579 90.2248 125.618 90.1863 125.659C90.1729 125.674 90.0593 125.816 90.1134 125.741C90.0712 125.8 90.0324 125.861 89.9973 125.924C89.9848 125.946 89.921 126.082 89.9557 125.997C89.9317 126.057 89.9114 126.117 89.8951 126.179C89.8865 126.211 89.855 126.376 89.8692 126.272C89.8612 126.334 89.8571 126.397 89.8569 126.459C89.8562 126.522 89.8607 126.584 89.8646 126.646C89.8659 126.668 89.8821 126.745 89.8645 126.649C89.8702 126.68 89.8757 126.711 89.8823 126.742C89.8942 126.795 89.9084 126.848 89.9246 126.901C89.934 126.931 89.9445 126.96 89.9547 126.99C89.9612 127.009 90.0054 127.105 89.9653 127.02C90.0167 127.126 90.0753 127.228 90.1406 127.325C90.1846 127.393 90.094 127.271 90.1448 127.333C90.1595 127.351 90.1746 127.369 90.19 127.387C90.2364 127.439 90.2865 127.487 90.3376 127.535C90.3473 127.545 90.4216 127.607 90.3747 127.569C90.3277 127.532 90.4046 127.59 90.4159 127.598C90.4613 127.628 90.5069 127.656 90.5547 127.682C90.5821 127.697 90.6098 127.711 90.6379 127.724C90.5563 127.685 90.6262 127.719 90.6446 127.725C90.7125 127.746 90.7798 127.764 90.8486 127.782C90.9275 127.802 90.7695 127.776 90.8504 127.784C90.8736 127.786 90.8968 127.788 90.9202 127.79C90.9825 127.793 91.0441 127.789 91.1065 127.789C91.1261 127.789 91.2085 127.778 91.1087 127.792C91.1394 127.787 91.1703 127.781 91.2007 127.775C91.2618 127.762 91.3222 127.746 91.3816 127.727C91.4115 127.717 91.4409 127.706 91.4702 127.695C91.3819 127.728 91.4799 127.691 91.4979 127.681C91.5607 127.649 91.6227 127.616 91.6823 127.577C91.7086 127.56 91.7344 127.543 91.76 127.525C91.7008 127.566 91.7579 127.527 91.7847 127.503C91.8376 127.457 91.8879 127.409 91.9355 127.357C91.9565 127.334 91.9768 127.311 91.9964 127.287C91.9635 127.327 91.9779 127.314 91.9993 127.28C92.0358 127.22 92.0725 127.162 92.105 127.101C92.1117 127.088 92.1489 127 92.1264 127.057C92.1028 127.117 92.1439 127 92.1474 126.988C92.1563 126.959 92.1642 126.929 92.1711 126.899C92.1767 126.874 92.1937 126.74 92.1819 126.851C92.1857 126.715 92.2411 126.587 92.3369 126.491C92.4327 126.395 92.5615 126.34 92.6969 126.336C92.8332 126.337 92.9637 126.391 93.0601 126.488C93.1564 126.584 93.2109 126.715 93.2118 126.851Z" fill="#C69055"/>
<path d="M74.7382 124.597C75.4285 122.33 76.1188 120.063 76.8092 117.796C77.0614 117.99 77.3136 118.184 77.5657 118.378L71.8426 121.328C71.2544 121.631 70.7329 120.743 71.3228 120.439C73.2305 119.456 75.1382 118.472 77.0459 117.489C77.1346 117.44 77.2355 117.419 77.3364 117.426C77.4372 117.434 77.5336 117.471 77.6138 117.533C77.694 117.594 77.7545 117.678 77.788 117.773C77.8215 117.869 77.8265 117.972 77.8024 118.07C77.1121 120.337 76.4218 122.604 75.7314 124.871C75.5389 125.503 74.5445 125.233 74.7382 124.597Z" fill="black"/>
<path d="M89.8378 107.221C88.4568 108.143 87.0758 109.065 85.6949 109.986C85.6062 110.036 85.5051 110.058 85.404 110.05C85.303 110.042 85.2063 110.005 85.126 109.944C85.0456 109.882 84.9851 109.798 84.9518 109.702C84.9184 109.607 84.9138 109.503 84.9384 109.405C85.3861 107.789 85.9056 106.196 86.4969 104.625C86.5364 104.496 86.6241 104.386 86.742 104.319C86.8598 104.253 86.9988 104.233 87.1304 104.266C87.2615 104.303 87.3727 104.39 87.44 104.509C87.5073 104.627 87.5253 104.768 87.4901 104.899C86.8992 106.468 86.3797 108.062 85.9315 109.679C85.6794 109.485 85.4273 109.291 85.1751 109.098C86.556 108.176 87.937 107.254 89.318 106.333C89.4359 106.264 89.5763 106.245 89.7084 106.279C89.8404 106.314 89.9533 106.4 90.0222 106.517C90.0911 106.635 90.1104 106.776 90.0758 106.908C90.0412 107.04 89.9556 107.152 89.8378 107.221Z" fill="black"/>
<path d="M72.1285 114.239C69.7806 116.726 67.763 119.506 66.1256 122.509C65.711 119.791 66.0648 117.012 67.1472 114.484C67.4645 113.638 67.9789 112.88 68.6478 112.272C68.9858 111.973 69.396 111.768 69.8379 111.676C70.2799 111.584 70.7382 111.608 71.1675 111.748C71.5877 111.909 71.9268 112.231 72.1109 112.641C72.2951 113.052 72.3093 113.519 72.1505 113.94L72.1285 114.239Z" fill="#A3A3A3"/>
<path d="M78.9653 107.716C80.1728 104.973 81.7394 102.403 83.6242 100.072C82.6574 99.9708 81.6803 100.091 80.7667 100.422C79.853 100.754 79.0266 101.289 78.35 101.986C77.7723 102.51 77.3378 103.172 77.0874 103.91C76.7846 104.868 76.7986 105.897 77.1274 106.846C77.4825 107.775 78.2811 108.297 78.7665 107.769L78.9653 107.716Z" fill="#A3A3A3"/>
<path d="M177.107 23.86C173.163 23.2202 169.145 23.1846 165.19 23.7545C164.542 23.8483 164.262 22.8566 164.916 22.7619C169.052 22.1615 173.256 22.1971 177.381 22.8673C178.034 22.9732 177.757 23.9654 177.107 23.86Z" fill="#C69055"/>
<path d="M172.072 47.9399C172.049 47.9071 172.026 47.8744 172.002 47.842C171.992 47.8287 171.925 47.7438 171.979 47.8121C171.934 47.7556 171.888 47.6998 171.84 47.6452C171.74 47.53 171.635 47.4195 171.524 47.3138C171.413 47.2084 171.298 47.1081 171.178 47.013C171.109 46.958 171.272 47.0811 171.148 46.9908C171.122 46.9718 171.096 46.9526 171.07 46.934C171.004 46.8873 170.937 46.8423 170.87 46.7989C170.748 46.7207 170.623 46.6477 170.494 46.5801C170.423 46.5427 170.351 46.5069 170.278 46.4727C170.249 46.4591 170.22 46.446 170.19 46.4328C170.05 46.3695 170.24 46.4517 170.158 46.4188C169.866 46.3022 169.564 46.2128 169.257 46.1518C169.125 46.1148 169.014 46.0276 168.946 45.9091C168.879 45.7905 168.861 45.6502 168.897 45.5185C168.936 45.3888 169.024 45.279 169.141 45.2121C169.259 45.1452 169.399 45.1262 169.53 45.1591C170.921 45.448 172.148 46.2569 172.961 47.4204C173.03 47.5384 173.049 47.6786 173.014 47.8105C172.979 47.9424 172.894 48.0553 172.777 48.1247C172.658 48.1901 172.519 48.2073 172.387 48.1729C172.256 48.1386 172.143 48.0552 172.072 47.9399Z" fill="#C69055"/>
<path d="M178.582 3.2266C176.766 9.53162 175.441 15.9677 174.619 22.4771C174.537 23.1257 173.506 23.1339 173.589 22.4771C174.416 15.8756 175.753 9.34804 177.589 2.95291C177.629 2.82548 177.717 2.71854 177.834 2.65463C177.951 2.59072 178.089 2.57483 178.218 2.61033C178.346 2.64582 178.456 2.72991 178.524 2.84488C178.592 2.95985 178.613 3.0967 178.582 3.2266Z" fill="#C69055"/>
<path d="M170.519 1.71999C168.98 8.3989 168.587 15.2908 169.358 22.1012C169.432 22.7585 168.401 22.7533 168.328 22.1012C167.554 15.1981 167.959 8.21376 169.526 1.4463C169.675 0.801073 170.669 1.0741 170.519 1.71999Z" fill="#C69055"/>
<path d="M164.649 3.58005C164.797 10.1254 165.359 16.6548 166.331 23.1294C166.428 23.7774 165.436 24.0569 165.338 23.4031C164.348 16.8382 163.774 10.2173 163.619 3.58005C163.624 3.44665 163.68 3.32027 163.776 3.22755C163.872 3.13483 164.001 3.08301 164.134 3.08301C164.268 3.08301 164.396 3.13483 164.492 3.22755C164.588 3.32027 164.644 3.44665 164.649 3.58005Z" fill="#C69055"/>
<path d="M147.873 97.2583C147.902 98.6322 147.605 99.9934 147.007 101.231C146.408 102.468 145.525 103.546 144.43 104.376C144.312 104.444 144.172 104.463 144.04 104.428C143.908 104.394 143.795 104.309 143.725 104.191C143.66 104.073 143.642 103.934 143.676 103.802C143.711 103.671 143.794 103.558 143.91 103.487C144.852 102.751 145.609 101.804 146.118 100.722C146.628 99.6398 146.876 98.4535 146.843 97.2583C146.848 97.1249 146.904 96.9985 147 96.9058C147.096 96.8131 147.224 96.7612 147.358 96.7612C147.491 96.7612 147.62 96.8131 147.716 96.9058C147.812 96.9985 147.868 97.1249 147.873 97.2583Z" fill="#C69055"/>
<path d="M137.126 168.164C134.91 174.554 133.363 181.158 132.511 187.868C132.27 189.777 132.086 191.693 131.959 193.614C131.915 194.272 130.885 194.276 130.929 193.614C131.382 186.8 132.539 180.052 134.382 173.476C134.91 171.597 135.494 169.735 136.133 167.89C136.348 167.268 137.344 167.535 137.126 168.164Z" fill="#1B4466"/>
<path d="M131.388 171.268C129.298 176.579 127.775 182.097 126.846 187.729C126.582 189.329 126.369 190.937 126.206 192.551C126.139 193.204 125.109 193.211 125.176 192.551C125.757 186.799 126.949 181.126 128.731 175.626C129.238 174.065 129.793 172.521 130.395 170.994C130.635 170.384 131.631 170.65 131.388 171.268Z" fill="#1B4466"/>
<path d="M124.415 127.773C128.213 130.537 132.066 133.241 135.785 136.112C138.955 138.56 142.004 141.218 144.415 144.44C145.777 146.246 146.867 148.243 147.649 150.366C147.876 150.99 146.881 151.258 146.656 150.64C143.892 143.048 136.893 138.121 130.622 133.557C128.38 131.925 126.137 130.294 123.895 128.662C123.365 128.276 123.878 127.383 124.415 127.773Z" fill="#1B4466"/>
<path d="M73.5872 162.705C75.8968 165.676 77.2244 169.199 78.9923 172.487C79.8373 174.045 80.8174 175.525 81.9212 176.911C82.9926 178.269 84.1161 179.588 85.1131 181.003C86.2548 182.542 87.0928 184.284 87.5821 186.136C87.7356 186.78 86.7428 187.055 86.589 186.41C85.8041 183.117 83.5024 180.537 81.4455 177.957C80.3352 176.602 79.3349 175.16 78.4542 173.645C77.5568 172.055 76.7966 170.394 75.9945 168.756C75.1343 166.879 74.0835 165.095 72.8589 163.432C72.457 162.916 73.1808 162.182 73.5872 162.705Z" fill="#1B4466"/>
<path d="M48.1165 167.273C50.6316 170.707 53.3129 174.01 56.1603 177.183C58.7837 180.105 61.6558 182.814 64.1315 185.866C65.5082 187.519 66.6854 189.327 67.6388 191.255C67.9234 191.85 67.0357 192.373 66.7495 191.775C65.0787 188.284 62.4854 185.394 59.8401 182.614C57.0029 179.633 54.2092 176.629 51.601 173.443C50.0922 171.599 48.6342 169.716 47.2272 167.792C46.8352 167.257 47.7286 166.743 48.1165 167.273Z" fill="#1B4466"/>
<path d="M110.889 138.585C110.85 141.571 110.811 144.557 110.772 147.542C110.809 148.907 110.693 150.271 110.425 151.609C110.15 152.746 109.605 153.801 108.836 154.683C107.33 156.316 105.313 157.387 103.116 157.719C100.313 158.192 97.4687 157.688 94.7358 157.043C91.5577 156.293 88.378 155.335 85.0759 155.527C84.4136 155.566 84.416 154.536 85.0759 154.498C90.6544 154.173 95.8209 157.086 101.382 156.867C103.608 156.84 105.755 156.043 107.46 154.612C108.248 153.924 108.852 153.049 109.216 152.068C109.592 150.835 109.766 149.549 109.731 148.261C109.789 145.036 109.817 141.81 109.859 138.585C109.864 138.452 109.92 138.325 110.016 138.232C110.112 138.14 110.241 138.088 110.374 138.088C110.508 138.088 110.636 138.14 110.732 138.232C110.828 138.325 110.885 138.452 110.889 138.585Z" fill="#1B4466"/>
<path d="M176.351 200.071C173.741 206.603 169.405 212.302 163.805 216.561C161.023 218.686 157.958 220.415 154.7 221.698C152.738 222.469 150.703 223.031 148.735 223.786C146.988 224.449 145.339 225.344 143.833 226.449C140.631 228.822 138.204 232.09 136.858 235.84C136.638 236.46 135.643 236.193 135.865 235.566C137.053 232.23 139.056 229.242 141.692 226.876C143.019 225.681 144.494 224.661 146.081 223.841C147.954 222.953 149.892 222.208 151.878 221.614C155.325 220.497 158.599 218.905 161.606 216.884C164.496 214.909 167.101 212.545 169.347 209.859C171.875 206.848 173.905 203.451 175.358 199.798C175.599 199.188 176.595 199.454 176.351 200.071Z" fill="#1B4466"/>
<path d="M131.037 239.866C130.934 243.956 130.831 248.045 130.727 252.134C130.723 252.267 130.666 252.393 130.57 252.486C130.474 252.579 130.346 252.631 130.212 252.631C130.079 252.631 129.95 252.579 129.854 252.486C129.758 252.393 129.702 252.267 129.697 252.134C129.801 248.045 129.904 243.956 130.007 239.866C130.012 239.733 130.068 239.607 130.164 239.514C130.261 239.421 130.389 239.369 130.522 239.369C130.656 239.369 130.784 239.421 130.88 239.514C130.976 239.607 131.033 239.733 131.037 239.866Z" fill="#1B4466"/>
<path d="M347.426 241.384C343.832 251.073 339.996 260.668 335.917 270.168C334.769 272.841 333.603 275.504 332.418 278.16C332.148 278.764 331.26 278.241 331.528 277.64C335.703 268.284 339.641 258.826 343.342 249.268C344.391 246.556 345.422 243.837 346.433 241.11C346.661 240.494 347.657 240.761 347.426 241.384Z" fill="#B59E95"/>
<path d="M178.286 217.881C182.382 221.509 186.477 225.137 190.573 228.765C192.62 230.579 194.668 232.393 196.716 234.207C197.74 235.115 198.764 236.022 199.788 236.928C200.663 237.704 201.567 238.463 201.683 239.706C201.71 240.345 201.637 240.985 201.465 241.602C201.294 242.365 201.119 243.127 200.945 243.89C200.611 245.361 200.277 246.832 199.943 248.303C199.796 248.949 198.803 248.675 198.95 248.029L199.841 244.106C200.174 242.899 200.442 241.674 200.644 240.438C200.736 239.908 200.625 239.362 200.334 238.909C199.96 238.443 199.532 238.022 199.059 237.657C198.078 236.787 197.097 235.918 196.116 235.049C192.148 231.534 188.181 228.019 184.213 224.505C181.994 222.539 179.776 220.574 177.558 218.609C177.061 218.169 177.791 217.443 178.286 217.881Z" fill="#B59E95"/>
<path d="M161.861 227.272C160.933 235.633 157.793 243.595 152.765 250.339C151.368 252.211 149.833 253.975 148.172 255.617C147.7 256.083 146.972 255.356 147.444 254.889C153.255 249.124 157.435 241.923 159.557 234.019C160.153 231.806 160.579 229.55 160.831 227.272C160.903 226.621 161.933 226.614 161.861 227.272Z" fill="#B59E95"/>
<path d="M197.891 199.484C193.639 204.129 187.787 206.995 181.51 207.506C180.849 207.561 180.853 206.531 181.51 206.476C187.515 205.968 193.106 203.21 197.162 198.756C197.611 198.266 198.337 198.995 197.891 199.484Z" fill="#B59E95"/>
<path d="M156.868 246.675C159.363 254.068 161.858 261.46 164.353 268.852C165.601 272.548 166.849 276.245 168.096 279.941C169.334 283.407 170.365 286.944 171.182 290.533C171.987 294.008 172.193 297.595 171.792 301.139C171.359 304.363 170.189 307.445 168.374 310.146C164.757 315.536 159.185 319.181 153.325 321.748C150.031 323.191 146.625 324.35 143.214 325.481C139.569 326.69 135.923 327.897 132.277 329.102C131.36 329.405 130.443 329.709 129.526 330.012C128.895 330.221 128.624 329.227 129.252 329.019C132.893 327.814 136.534 326.609 140.175 325.404C143.55 324.287 146.941 323.202 150.255 321.91C156.267 319.566 162.123 316.373 166.253 311.293C168.215 308.916 169.622 306.133 170.374 303.146C171.135 299.681 171.187 296.098 170.53 292.613C169.872 289.049 168.94 285.542 167.742 282.122C166.557 278.539 165.332 274.968 164.125 271.392C161.676 264.135 159.226 256.877 156.776 249.62C156.476 248.73 156.175 247.839 155.875 246.949C155.662 246.32 156.657 246.05 156.868 246.675Z" fill="#B59E95"/>
<path d="M120.665 312.665C125.538 321.145 130.142 329.77 134.478 338.542C135.701 341.019 136.903 343.506 138.082 346.004C138.364 346.6 137.476 347.123 137.193 346.524C133.016 337.682 128.566 328.976 123.842 320.406C122.508 317.987 121.153 315.58 119.776 313.185C119.712 313.067 119.697 312.93 119.733 312.801C119.769 312.673 119.854 312.563 119.969 312.496C120.085 312.428 120.222 312.408 120.351 312.44C120.481 312.472 120.594 312.553 120.665 312.665Z" fill="#B59E95"/>
<path d="M337.258 263.009C327.726 260.24 318.194 257.47 308.663 254.701C299.088 251.919 289.513 249.137 279.937 246.356C270.767 243.691 261.619 240.92 252.409 238.393C244.465 236.213 236.346 234.345 228.093 233.928C220.219 233.531 212.152 234.563 205.124 238.322C204.234 238.799 203.367 239.316 202.52 239.865C201.963 240.227 201.446 239.336 202 238.976C208.697 234.631 216.591 232.868 224.506 232.818C232.751 232.765 240.942 234.364 248.9 236.397C258.022 238.727 267.031 241.534 276.071 244.16C285.689 246.954 295.307 249.749 304.925 252.543C314.586 255.35 324.248 258.157 333.909 260.964C335.117 261.314 336.324 261.665 337.532 262.016C337.66 262.056 337.767 262.144 337.83 262.261C337.894 262.378 337.91 262.516 337.875 262.645C337.839 262.773 337.755 262.883 337.64 262.951C337.525 263.019 337.388 263.04 337.258 263.009Z" fill="#B59E95"/>
<path opacity="0.16" d="M66.2295 394.488C66.2295 400.846 123.703 406 194.6 406C265.497 406 322.971 400.846 322.971 394.488C322.971 388.131 265.498 382.977 194.6 382.977C123.703 382.977 66.2295 388.131 66.2295 394.488Z" fill="#1B4466"/>
<path d="M362.964 267.401C364.27 262.284 365.577 257.167 366.884 252.05C367.086 251.08 367.418 250.14 367.869 249.257C368.43 248.383 369.098 247.581 369.857 246.872C373.615 242.976 376.724 238.503 379.064 233.623C380.141 231.374 381.094 228.985 382.864 227.228C384.634 225.472 387.526 224.536 389.663 225.822C390.036 226.035 390.357 226.331 390.6 226.686C391.221 227.643 390.998 228.897 390.739 230.008C388.517 239.534 385.3 248.801 381.139 257.654C383.046 258.035 384.953 258.415 386.859 258.796C385.333 262.659 383.808 266.521 382.282 270.384C375.783 270.285 369.311 269.52 362.968 268.101L362.964 267.401Z" fill="#1B4466"/>
<path d="M390.622 223.114C388.234 230.521 385.956 237.965 383.478 245.344C381.046 252.585 378.41 259.763 375.302 266.744C373.515 270.758 371.56 274.69 369.437 278.542C369.118 279.116 368.237 278.602 368.556 278.028C372.261 271.263 375.49 264.248 378.218 257.034C380.967 249.881 383.352 242.596 385.677 235.297C386.998 231.146 388.301 226.989 389.638 222.842C389.838 222.22 390.824 222.486 390.622 223.114Z" fill="white"/>
<path d="M374.96 248.332C372.43 245.899 370.234 243.142 368.43 240.132C368.367 240.016 368.352 239.88 368.388 239.752C368.424 239.625 368.508 239.517 368.622 239.45C368.736 239.383 368.872 239.363 369.001 239.395C369.129 239.426 369.24 239.506 369.311 239.618C371.071 242.552 373.213 245.24 375.681 247.611C376.156 248.066 375.434 248.787 374.96 248.332Z" fill="white"/>
<path d="M376.824 245.414C374.576 243.43 372.549 241.21 370.777 238.792C370.71 238.675 370.692 238.537 370.726 238.406C370.76 238.276 370.844 238.164 370.96 238.095C371.078 238.03 371.216 238.012 371.346 238.046C371.476 238.08 371.588 238.163 371.658 238.278C373.384 240.621 375.358 242.772 377.546 244.693C378.039 245.127 377.316 245.846 376.824 245.414Z" fill="white"/>
<path d="M378.415 242.268C377.365 239.982 375.59 238.106 373.365 236.93C372.784 236.623 373.299 235.743 373.88 236.049C376.26 237.309 378.161 239.312 379.296 241.753C379.36 241.871 379.377 242.009 379.343 242.139C379.309 242.268 379.227 242.38 379.113 242.451C378.996 242.518 378.857 242.537 378.726 242.502C378.596 242.468 378.484 242.384 378.415 242.268Z" fill="white"/>
<path d="M385.686 234.511C384.161 233.285 382.932 231.732 382.091 229.966C381.25 228.201 380.819 226.268 380.828 224.313C380.833 224.18 380.889 224.055 380.984 223.963C381.079 223.871 381.206 223.82 381.338 223.82C381.471 223.82 381.598 223.871 381.693 223.963C381.788 224.055 381.844 224.18 381.848 224.313C381.841 226.134 382.248 227.933 383.038 229.575C383.827 231.216 384.979 232.657 386.407 233.789C386.922 234.197 386.195 234.914 385.686 234.511Z" fill="white"/>
<path d="M376.613 263.142C371.763 264.147 367.729 267.874 365.19 271.983C364.457 273.157 363.846 274.403 363.367 275.701C363.145 276.313 362.159 276.049 362.384 275.43C364.193 270.439 367.728 266.259 372.35 263.644C373.602 262.958 374.946 262.458 376.342 262.159C376.982 262.026 377.256 263.008 376.613 263.142Z" fill="white"/>
<path d="M101.317 316.708C101.584 321.982 101.851 327.256 102.118 332.53C102.212 333.517 102.174 334.513 102.004 335.49C101.727 336.491 101.327 337.454 100.811 338.356C98.3755 343.189 96.7309 348.382 95.9403 353.736C95.5771 356.202 95.3751 358.767 94.2043 360.968C93.0336 363.169 90.5481 364.919 88.1265 364.323C87.7065 364.229 87.313 364.042 86.9758 363.775C86.0991 363.045 85.9406 361.78 85.8589 360.643C85.1601 350.886 85.4897 341.083 86.8421 331.395C84.908 331.596 82.974 331.796 81.04 331.997C81.3536 327.856 81.6673 323.715 81.981 319.574C88.218 317.745 94.6262 316.561 101.105 316.041L101.317 316.708Z" fill="#1B4466"/>
<path d="M88.0127 367.177C88.0999 359.413 88.0714 351.647 88.2521 343.884C88.4309 336.207 88.8209 328.528 89.7368 320.9C90.2581 316.56 90.9458 312.24 91.8399 307.96C91.974 307.318 92.9575 307.59 92.8236 308.231C91.2925 315.77 90.2888 323.407 89.8197 331.085C89.3092 338.737 89.1874 346.407 89.1288 354.074C89.0954 358.442 89.0818 362.809 89.0328 367.177C89.0282 367.309 88.9724 367.435 88.8773 367.526C88.7821 367.618 88.655 367.67 88.5227 367.67C88.3904 367.67 88.2633 367.618 88.1682 367.526C88.073 367.435 88.0173 367.309 88.0127 367.177Z" fill="white"/>
<path d="M95.5244 338.482C98.6602 340.059 101.573 342.045 104.186 344.387C104.676 344.826 103.953 345.545 103.465 345.108C100.913 342.827 98.0699 340.896 95.0096 339.363C94.4227 339.068 94.9387 338.188 95.5244 338.482Z" fill="white"/>
<path d="M94.6073 341.821C97.3034 343.03 99.8615 344.526 102.237 346.282C102.76 346.668 102.251 347.553 101.723 347.162C99.3467 345.406 96.7886 343.911 94.0925 342.702C93.4945 342.434 94.0127 341.555 94.6073 341.821Z" fill="white"/>
<path d="M94.0169 345.301C95.7004 347.17 97.9523 348.433 100.425 348.896C101.07 349.017 100.797 350 100.154 349.879C97.5087 349.374 95.1006 348.02 93.2956 346.022C92.8574 345.535 93.5766 344.812 94.0169 345.301Z" fill="white"/>
<path d="M89.2511 354.806C91.0943 355.521 92.7511 356.645 94.0964 358.093C95.4418 359.541 96.4405 361.276 97.0175 363.166C97.0482 363.294 97.0278 363.43 96.9604 363.544C96.8931 363.658 96.7842 363.741 96.6566 363.776C96.5291 363.811 96.3928 363.796 96.2767 363.732C96.1605 363.669 96.0734 363.563 96.0338 363.437C95.5092 361.714 94.6024 360.131 93.3811 358.807C92.1598 357.483 90.6554 356.452 88.9799 355.789C88.3739 355.555 88.6372 354.569 89.2511 354.806Z" fill="white"/>
<path d="M89.5581 324.803C93.9013 322.405 96.6414 317.623 97.8458 312.941C98.1923 311.613 98.4024 310.253 98.4729 308.882C98.5044 308.229 99.5247 308.225 99.4929 308.882C99.2386 314.196 97.0878 319.242 93.4305 323.106C92.4415 324.123 91.3106 324.991 90.0729 325.684C89.4979 326.001 88.9826 325.121 89.5581 324.803Z" fill="white"/>
<path d="M75.535 152.27C87.8825 172.973 100.23 193.677 112.577 214.381C117.382 222.437 122.196 230.507 127.739 238.075C132.952 245.191 138.82 251.88 143.123 259.58C148.689 269.579 151.425 280.904 151.036 292.34C132.222 285.374 111.676 299.188 91.7434 296.904C94.8915 266.938 73.6412 195.713 72.9925 195.862C65.1705 197.659 13.951 212.152 8.56841 206.529C0.859996 198.476 0.152774 186.161 0.512869 175.021C0.846656 164.694 1.71279 154.392 2.57872 144.096C11.4001 144.718 20.2599 143.676 28.6956 141.023C29.7788 148.569 30.8621 156.115 31.9454 163.66C46.3884 160.019 60.734 156.017 74.9822 151.655L75.535 152.27Z" fill="#B7998D"/>
<path d="M238.947 217.626C224.634 209.134 207.36 207.776 190.797 206.136C174.234 204.496 156.852 202.03 143.631 191.924C125.816 178.308 119.686 154.102 104.21 137.879C110.403 129.905 113.733 120.154 117.968 110.99C124.04 97.8603 132.088 85.7375 141.832 75.043C147.091 69.2741 157.195 55.5992 159.023 48.0112C169.3 53.645 179.567 53.1847 190.986 55.8286C176.227 78.4599 163.385 114.995 151.882 139.441C163.74 153.683 190.345 168.33 208.041 173.849C225.737 179.368 244.302 181.412 262.74 183.318C260.528 189.054 255.531 193.147 251.279 197.589C248.091 200.921 245.124 205.009 244.273 209.402C243.68 212.632 241.866 215.51 239.208 217.44L238.947 217.626Z" fill="#B7998D"/>
<path d="M216.513 176.86C213.693 182.189 210.886 187.524 208.092 192.866C208.035 192.963 207.948 193.038 207.844 193.08C207.74 193.123 207.625 193.13 207.516 193.1C197.606 189.186 187.906 184.757 178.457 179.833C175.783 178.439 173.13 177.005 170.499 175.532C170.432 175.491 170.376 175.437 170.334 175.372C170.291 175.307 170.264 175.233 170.254 175.156C170.244 175.079 170.252 175.001 170.276 174.928C170.301 174.854 170.341 174.787 170.395 174.731C174.123 170.494 177.225 165.744 179.605 160.627C179.882 160.033 180.761 160.55 180.486 161.142C178.063 166.335 174.907 171.154 171.117 175.452L171.013 174.651C180.273 179.833 189.796 184.53 199.545 188.72C202.275 189.894 205.023 191.026 207.787 192.117C207.595 192.195 207.403 192.273 207.211 192.351C210.005 187.009 212.812 181.674 215.632 176.346C215.939 175.765 216.82 176.28 216.513 176.86Z" fill="#6B5149"/>
<path d="M151.292 139.274C147.818 135.843 143.944 132.84 139.754 130.33C133.195 126.388 125.956 123.706 118.411 122.425C117.765 122.315 118.039 121.332 118.682 121.441C131.281 123.605 142.914 129.577 152.013 138.553C152.481 139.015 151.76 139.736 151.292 139.274Z" fill="#6B5149"/>
<path d="M70.9886 155.779C68.5939 168.997 69.3326 182.591 73.1452 195.471C73.1759 195.6 73.1554 195.735 73.0881 195.849C73.0208 195.963 72.9118 196.046 72.7843 196.082C72.6567 196.117 72.5205 196.101 72.4043 196.038C72.2882 195.974 72.2011 195.869 72.1615 195.742C68.3034 182.684 67.5648 168.904 70.0049 155.508C70.1217 154.864 71.105 155.137 70.9886 155.779Z" fill="#6B5149"/>
<path d="M84.4287 234.745C88.3755 234.004 92.3223 233.262 96.2691 232.521C97.2627 232.334 98.2562 232.148 99.2498 231.961C99.7191 231.873 100.188 231.785 100.658 231.697C101.097 231.561 101.56 231.519 102.016 231.572C102.844 231.776 102.986 232.641 103.055 233.361C103.152 234.374 103.248 235.386 103.342 236.399C104.099 244.418 104.857 252.436 105.614 260.455C106.042 264.984 106.47 269.514 106.898 274.044C106.897 274.155 106.86 274.263 106.793 274.352C106.725 274.44 106.631 274.505 106.524 274.535C101.895 276.121 97.0513 276.991 92.1599 277.115C92.0278 277.111 91.9025 277.055 91.8107 276.96C91.7188 276.865 91.6675 276.738 91.6675 276.606C91.6675 276.473 91.7188 276.346 91.8107 276.251C91.9025 276.156 92.0278 276.1 92.1599 276.096C96.9596 275.97 101.712 275.113 106.252 273.552C106.128 273.716 106.003 273.88 105.878 274.044C105.147 266.307 104.416 258.57 103.685 250.833C103.321 246.978 102.957 243.124 102.593 239.269C102.412 237.356 102.231 235.443 102.051 233.53C102.028 233.288 102.052 232.705 101.787 232.575C101.617 232.491 101.264 232.617 101.094 232.649C100.846 232.695 100.597 232.742 100.349 232.789C99.4107 232.965 98.4723 233.141 97.5338 233.318C93.2558 234.121 88.9779 234.925 84.6999 235.728C84.0582 235.849 83.7833 234.866 84.4287 234.745Z" fill="#6B5149"/>
<path d="M184.665 66.1166C182.795 65.1079 180.772 64.4107 178.677 64.0526C176.949 63.6773 175.155 63.73 173.452 64.206C172.678 64.4129 171.995 64.8686 171.506 65.5026C171.017 66.1367 170.751 66.9139 170.749 67.7143C170.766 69.6305 171.927 71.4201 173.183 72.7848C174.601 74.3295 176.375 75.5039 178.352 76.2052C178.967 76.4221 178.702 77.4076 178.081 77.1885C176.105 76.4967 174.31 75.3696 172.829 73.8906C171.349 72.4042 170.057 70.5065 169.781 68.3857C169.636 67.4444 169.789 66.4814 170.219 65.6315C170.649 64.7816 171.334 64.0874 172.178 63.6462C173.831 62.7742 175.794 62.6874 177.616 62.8843C180.266 63.1714 182.835 63.9702 185.18 65.2361C185.758 65.5477 185.244 66.4283 184.665 66.1166Z" fill="#6B5149"/>
<path d="M179.188 67.1623C179.168 68.3027 178.99 69.5572 178.164 70.4159C177.804 70.8219 177.319 71.0957 176.785 71.1937C176.251 71.2916 175.7 71.208 175.219 70.9562C174.773 70.6459 174.45 70.1891 174.305 69.6653C174.161 69.1415 174.205 68.5836 174.429 68.0886C174.673 67.5806 175.047 67.1463 175.514 66.8301C175.981 66.5139 176.523 66.327 177.086 66.2885C177.42 66.2522 177.759 66.3012 178.069 66.4309C178.38 66.5607 178.652 66.767 178.862 67.0306C179.052 67.2742 179.165 67.5686 179.189 67.8766C179.212 68.1846 179.144 68.4926 178.992 68.762C178.922 68.8739 178.81 68.9539 178.682 68.9853C178.553 69.0167 178.417 68.9969 178.303 68.9302C178.189 68.8634 178.105 68.7549 178.069 68.6275C178.033 68.5001 178.049 68.3639 178.111 68.2474C178.116 68.24 178.181 68.0983 178.148 68.1906C178.161 68.152 178.172 68.1124 178.179 68.0722C178.195 67.9951 178.192 68.1756 178.179 68.037C178.18 68.0457 178.169 67.8846 178.178 67.9565C178.156 67.8255 178.102 67.7021 178.02 67.5974C178.06 67.6465 177.948 67.5245 177.958 67.534C177.955 67.5313 177.829 67.4332 177.903 67.4842C177.841 67.4433 177.775 67.4075 177.707 67.3771C177.519 67.3067 177.316 67.2823 177.117 67.3057C176.755 67.3376 176.407 67.4587 176.104 67.6581C175.801 67.8574 175.553 68.1288 175.38 68.4479C175.251 68.7142 175.209 69.0151 175.263 69.3065C175.283 69.4004 175.309 69.4928 175.343 69.5828C175.376 69.6701 175.288 69.4871 175.363 69.628C175.384 69.6662 175.403 69.7045 175.425 69.7418C175.447 69.7789 175.47 69.8148 175.494 69.8504C175.576 69.9696 175.439 69.8069 175.543 69.9075C175.567 69.9313 175.59 69.9572 175.615 69.9809C175.639 70.0046 175.665 70.0274 175.691 70.0492C175.656 70.0223 175.663 70.0265 175.712 70.0618C175.954 70.2157 176.247 70.2687 176.527 70.2095C176.851 70.1426 177.149 69.9841 177.385 69.7528C177.689 69.4345 177.902 69.0401 178 68.6112C178.116 68.1371 178.172 67.6503 178.168 67.1623C178.172 67.0301 178.228 66.9049 178.323 66.813C178.418 66.7212 178.545 66.6698 178.678 66.6698C178.81 66.6698 178.937 66.7212 179.032 66.813C179.127 66.9049 179.183 67.0301 179.188 67.1623Z" fill="#6B5149"/>
<path d="M187.664 59.964C180.046 60.1092 172.5 58.4729 165.627 55.1858C163.669 54.2489 161.777 53.1798 159.965 51.9858C159.419 51.6264 159.93 50.743 160.48 51.1053C168.533 56.4198 178.016 59.1543 187.664 58.9443C187.796 58.9489 187.921 59.0046 188.013 59.0998C188.105 59.1949 188.156 59.3219 188.156 59.4541C188.156 59.5864 188.105 59.7134 188.013 59.8085C187.921 59.9037 187.796 59.9594 187.664 59.964Z" fill="#6B5149"/>
<path d="M32.4313 163.508C28.6398 170.172 25.117 176.98 21.8629 183.93C20.9414 185.9 20.0422 187.881 19.1655 189.871C18.9015 190.47 18.0223 189.952 18.2847 189.356C21.3769 182.341 24.7442 175.455 28.3867 168.7C29.4197 166.786 30.4743 164.884 31.5504 162.993C31.6211 162.882 31.7324 162.802 31.861 162.77C31.9896 162.739 32.1253 162.759 32.2396 162.825C32.3539 162.892 32.4377 163.001 32.4735 163.128C32.5092 163.255 32.4941 163.392 32.4313 163.508Z" fill="#6B5149"/>
<path d="M31.4054 163.155C27.4747 168.366 23.5439 173.576 19.6132 178.787C19.2228 179.304 18.3366 178.797 18.7323 178.272C22.6631 173.062 26.5939 167.851 30.5246 162.641C30.915 162.123 31.8011 162.631 31.4054 163.155Z" fill="#6B5149"/>
<path d="M73.3752 152.266C76.3441 160.568 79.3146 168.872 82.5753 177.066C85.7659 185.215 89.3839 193.19 93.4142 200.958C104.484 221.992 119.239 240.871 136.978 256.698C137.702 257.344 138.432 257.985 139.166 258.62C139.663 259.051 138.939 259.769 138.444 259.341C132.435 254.136 126.743 248.575 121.4 242.689C116.07 236.813 111.092 230.628 106.493 224.165C101.883 217.688 97.666 210.941 93.8642 203.96C89.7782 196.361 86.1131 188.543 82.8855 180.542C79.5184 172.319 76.4843 163.965 73.4881 155.601C73.1221 154.58 72.7566 153.559 72.3916 152.537C72.1702 151.918 73.1554 151.651 73.3752 152.266Z" fill="#6B5149"/>
<path d="M108.205 136.679C117.58 143.601 125.598 152.191 131.859 162.018C134.075 165.499 136.003 169.149 138.027 172.743C141.786 179.418 146.168 186.214 152.976 190.135C154.615 191.082 156.37 191.812 158.198 192.306C160.263 192.817 162.361 193.185 164.476 193.405C168.753 193.923 173 194.668 177.198 195.635C185.667 197.617 193.907 200.443 202.094 203.353C203.11 203.715 204.127 204.077 205.143 204.441C205.756 204.66 205.492 205.645 204.871 205.424C196.628 202.479 188.367 199.532 179.883 197.346C175.687 196.248 171.433 195.387 167.14 194.768C163.038 194.192 158.862 193.916 155.003 192.28C147.986 189.304 143.028 183.102 139.178 176.751C136.988 173.138 135.055 169.378 132.925 165.73C127.014 155.569 119.24 146.612 110.01 139.33C109.246 138.727 108.473 138.137 107.691 137.559C107.169 137.173 107.677 136.288 108.205 136.679Z" fill="#6B5149"/>
<path d="M164.729 162.471C161.16 170.232 157.591 177.994 154.021 185.755C153.005 187.965 151.988 190.175 150.972 192.385C150.698 192.98 149.818 192.463 150.091 191.87C153.66 184.109 157.23 176.348 160.799 168.587C161.816 166.377 162.832 164.167 163.848 161.957C164.122 161.361 165.002 161.879 164.729 162.471Z" fill="#6B5149"/>
<path d="M159.372 166.926C157.375 172.543 154.867 177.966 151.878 183.125C151.019 184.606 150.121 186.063 149.184 187.497C148.827 188.044 147.943 187.534 148.303 186.982C151.533 182.044 154.3 176.819 156.571 171.374C157.218 169.817 157.824 168.244 158.389 166.655C158.607 166.041 159.593 166.306 159.372 166.926Z" fill="#6B5149"/>
<path d="M331.496 177.149C303.204 140.238 273.375 104.574 242.01 70.1567L236.43 73.2016L326.874 180.859C327.153 181.191 327.502 181.458 327.895 181.64C328.289 181.823 328.718 181.917 329.151 181.916C329.585 181.915 330.014 181.818 330.406 181.633C330.799 181.449 331.146 181.18 331.423 180.846C331.852 180.329 332.093 179.682 332.107 179.011C332.12 178.339 331.905 177.683 331.496 177.149Z" fill="#B7998D"/>
<path d="M240.216 67.0231C239.739 65.6532 239.663 64.4923 240.723 63.502C242.698 61.6575 246.323 63.2397 248.399 61.5098C248.602 61.3651 248.765 61.1723 248.874 60.9488C248.984 60.7252 249.036 60.478 249.027 60.2293C248.941 59.8551 248.734 59.5197 248.437 59.2754C247.657 58.5308 246.719 57.9723 245.692 57.6418C244.665 57.3113 243.577 57.2174 242.509 57.367C238.256 57.9963 235.609 62.1499 232.25 64.8311C229.892 66.7123 227.078 67.9087 224.386 69.2699C221.694 70.6312 219.017 72.2458 217.253 74.6921C215.489 77.1384 214.839 80.6 216.382 83.1911C216.635 83.6688 216.988 84.0858 217.418 84.4132C217.848 84.7406 218.344 84.9705 218.872 85.087C220.591 85.3495 222.127 83.8665 222.802 82.2643C223.477 80.6622 223.604 78.873 224.262 77.2639C224.811 75.9641 225.685 74.8272 226.8 73.9619C227.915 73.0967 229.233 72.5322 230.629 72.3226C233.415 71.9364 238.637 75.6206 240.37 77.8357C240.679 78.23 244.229 75.3396 245.625 73.9745C245.625 73.9745 240.694 68.3929 240.216 67.0231Z" fill="#3D71B0"/>
<path d="M66.2746 136.368C66.9687 136.438 67.6658 136.265 68.2458 135.877C68.8258 135.489 69.2523 134.911 69.4519 134.243C69.6224 133.566 69.6005 132.855 69.3887 132.19C69.1768 131.525 68.7834 130.933 68.2529 130.479C67.4752 129.8 66.0847 129.525 65.5323 130.398C66.3203 129.191 64.8277 127.337 63.4796 127.848C63.501 127.303 63.4144 126.76 63.2248 126.249C63.0352 125.738 62.7463 125.269 62.3748 124.87C62.0033 124.471 61.5565 124.15 61.0602 123.924C60.5639 123.698 60.0278 123.573 59.4829 123.556C59.5074 121.808 57.289 120.478 55.7584 121.323C56.1353 120.585 56.3227 119.764 56.3037 118.936C56.2847 118.107 56.06 117.296 55.6497 116.575C55.2394 115.854 54.6563 115.247 53.9531 114.808C53.2498 114.368 52.4482 114.11 51.6205 114.057C52.0876 113.609 52.3583 112.995 52.3732 112.348C52.388 111.701 52.146 111.075 51.6999 110.606C51.2539 110.137 50.6402 109.864 49.9931 109.846C49.3461 109.828 48.7184 110.068 48.2474 110.512C48.3492 109.702 47.3867 109.039 46.6 109.255C46.2154 109.395 45.8834 109.65 45.6495 109.986C45.4155 110.322 45.291 110.721 45.293 111.13C45.3149 111.95 45.5709 112.747 46.0307 113.427C45.2538 115.002 45.117 116.816 45.6489 118.49C46.1808 120.163 47.3402 121.565 48.884 122.403C48.7092 121.918 48.0547 122.584 48.083 123.099C48.206 124.706 48.8344 126.233 49.8784 127.462C50.9223 128.69 52.3283 129.557 53.8951 129.938C54.0157 130.812 54.3375 131.645 54.8351 132.373C55.3328 133.1 55.9926 133.702 56.7627 134.132C56.8723 134.21 56.998 134.263 57.1305 134.286C57.2631 134.31 57.3992 134.303 57.5289 134.268C57.7757 134.161 57.8397 133.728 57.5825 133.649C57.1416 135.31 59.0588 136.557 60.6577 137.188C61.4377 137.496 62.2195 137.799 63.003 138.098C63.3751 138.285 63.7962 138.351 64.2076 138.287C64.607 138.179 64.9232 137.692 64.7022 137.342C64.3925 137.86 65.0859 138.505 65.6787 138.394C66.2565 138.203 66.74 137.799 67.0317 137.265C67.3995 136.752 67.7674 136.239 68.1353 135.726L66.2746 136.368Z" fill="#A3A3A3"/>
<path d="M85.8033 125.48C86.5775 128.095 87.3518 130.709 88.1261 133.323C88.1568 133.451 88.1363 133.587 88.069 133.701C88.0016 133.815 87.8927 133.898 87.7652 133.933C87.6376 133.968 87.5014 133.952 87.3852 133.889C87.269 133.826 87.1819 133.72 87.1423 133.594C86.3681 130.98 85.5939 128.366 84.8196 125.751C84.7889 125.623 84.8094 125.487 84.8767 125.373C84.944 125.26 85.053 125.176 85.1805 125.141C85.3081 125.106 85.4443 125.122 85.5605 125.185C85.6766 125.248 85.7637 125.354 85.8033 125.48Z" fill="#C69055"/>
<path d="M99.1389 121.343C97.4398 121.095 95.7638 120.71 94.1273 120.19C93.5039 119.992 93.7702 119.007 94.3984 119.207C96.0349 119.726 97.711 120.112 99.4101 120.36C99.5401 120.397 99.6503 120.483 99.717 120.601C99.7837 120.718 99.8014 120.857 99.7664 120.987C99.7274 121.116 99.6406 121.224 99.5238 121.291C99.407 121.357 99.2692 121.376 99.1389 121.343Z" fill="#C69055"/>
<path d="M74.4334 99.5962C71.5008 103.372 68.5683 107.147 65.6357 110.922C65.2336 111.44 64.5163 110.714 64.9144 110.201C67.8469 106.426 70.7795 102.651 73.7122 98.8752C74.1142 98.3575 74.8314 99.0838 74.4334 99.5962Z" fill="#C69055"/>
<path d="M69.6752 99.8588C67.9963 102.132 66.3866 104.453 64.8459 106.823C64.4895 107.371 63.606 106.861 63.9651 106.308C65.505 103.939 67.1148 101.618 68.7945 99.3442C68.8656 99.2306 68.9774 99.1484 69.107 99.1144C69.2367 99.0804 69.3745 99.0971 69.4922 99.1612C69.6084 99.23 69.6928 99.3419 69.727 99.4725C69.7613 99.603 69.7426 99.7419 69.6752 99.8588Z" fill="#C69055"/>
</g>
<defs>
<clipPath id="clip0_99_1125">
<rect width="391" height="406" fill="white"/>
</clipPath>
</defs>
</svg>
