<svg width="125" height="125" viewBox="0 0 125 125" fill="none" xmlns="http://www.w3.org/2000/svg">
<path d="M62.4981 93.8203H62.5C76.4674 93.8203 89.1543 89.4832 98.36 82.458C107.566 75.4327 113.312 65.6973 113.312 54.9219C113.312 54.0185 113.671 53.1521 114.31 52.5133C114.949 51.8745 115.815 51.5156 116.719 51.5156C117.169 51.5156 117.615 51.6048 118.03 51.7781C118.446 51.9514 118.823 52.2054 119.139 52.5253C119.456 52.8452 119.706 53.2248 119.876 53.642C120.045 54.0592 120.13 54.5058 120.125 54.9559V54.9609C120.125 80.0524 94.4079 100.671 62.5016 100.672C60.0135 100.657 57.5277 100.515 55.0542 100.245L54.8197 100.22L54.6508 100.384C48.2398 106.64 40.7137 111.64 32.4617 115.125L32.4264 115.14L32.3938 115.16C31.5769 115.664 30.6271 115.91 29.6683 115.866C28.7095 115.822 27.7864 115.49 27.0192 114.913L27.0124 114.908L27.0054 114.903C26.1651 114.315 25.5291 113.48 25.1858 112.514C24.8426 111.547 24.8091 110.498 25.0902 109.512L25.0937 109.5L25.0965 109.488C25.1577 109.223 25.2569 108.968 25.391 108.732C28.2907 104.044 30.0408 98.7376 30.4983 93.2446L30.5256 92.917L30.2355 92.7621C14.2679 84.2357 4.875 70.3242 4.875 54.9219C4.875 29.7907 30.5933 9.17188 62.5 9.17188C81.9094 9.17188 99.8833 16.8593 110.554 29.6177L110.555 29.6192C111.138 30.3103 111.422 31.2047 111.346 32.1055C111.269 33.0062 110.838 33.8397 110.146 34.4224C109.455 35.0052 108.561 35.2895 107.66 35.2128C106.759 35.1362 105.926 34.7048 105.343 34.0136L105.336 34.0055L105.329 33.9977C99.9028 28.091 93.2663 23.4241 85.8724 20.3156C78.4808 17.208 70.5062 15.7307 62.4921 15.9844C48.5277 15.986 35.844 20.3229 26.6159 27.3562C17.3858 34.391 11.5916 44.1444 11.4922 54.9563V54.9609C11.4922 68.3285 20.4418 80.547 35.2104 87.754L35.2117 87.7547C35.7407 88.0109 36.1944 88.3997 36.5286 88.8831C36.8616 89.3647 37.0648 89.924 37.1186 90.5069C37.4351 95.6643 36.498 100.822 34.3874 105.538L33.8169 106.813L35.0668 106.19C40.9957 103.234 46.3388 99.2272 50.8359 94.3629L50.8421 94.3561L50.8481 94.3491C51.2172 93.9191 51.6878 93.588 52.2171 93.3858C52.7455 93.184 53.3159 93.1169 53.8767 93.1906C56.7326 93.5987 59.6132 93.8092 62.4981 93.8203Z" fill="#FFAF18" stroke="white"/>
<path d="M42.1484 68.8281C42.6379 69.0065 43.1581 69.0852 43.6784 69.0595C44.1987 69.0339 44.7086 68.9044 45.1782 68.6788C45.6477 68.4531 46.0674 68.1358 46.4124 67.7455C46.7575 67.3552 47.021 66.8999 47.1875 66.4063L51.3281 55.625L55.5078 66.4063C55.7911 67.1404 56.2895 67.7718 56.9377 68.2179C57.5859 68.664 58.3537 68.9039 59.1406 68.9062C59.619 68.9048 60.0939 68.8257 60.5469 68.6719C61.0312 68.4901 61.4746 68.2138 61.8513 67.8593C62.2279 67.5047 62.5305 67.0789 62.7412 66.6064C62.952 66.134 63.0668 65.6244 63.0791 65.1072C63.0913 64.5901 63.0007 64.0756 62.8125 63.5938L55 43.3594C54.7189 42.6182 54.2189 41.9802 53.5666 41.5299C52.9142 41.0796 52.1403 40.8385 51.3477 40.8385C50.555 40.8385 49.7811 41.0796 49.1287 41.5299C48.4764 41.9802 47.9764 42.6182 47.6953 43.3594L39.8828 63.5938C39.6697 64.0841 39.5596 64.6131 39.5592 65.1478C39.5588 65.6825 39.6682 66.2115 39.8806 66.7022C40.093 67.1929 40.4038 67.6348 40.7939 68.0005C41.184 68.3662 41.6451 68.6479 42.1484 68.8281V68.8281ZM68.3984 41.0156C67.3624 41.0156 66.3689 41.4272 65.6363 42.1597C64.9037 42.8923 64.4922 43.8859 64.4922 44.9219V65.1563C64.4922 66.1923 64.9037 67.1858 65.6363 67.9184C66.3689 68.6509 67.3624 69.0625 68.3984 69.0625H78.3984C79.4344 69.0625 80.428 68.6509 81.1606 67.9184C81.8931 67.1858 82.3047 66.1923 82.3047 65.1563C82.3047 64.1203 81.8931 63.1267 81.1606 62.3941C80.428 61.6616 79.4344 61.25 78.3984 61.25H72.3047V44.9219C72.3047 43.8859 71.8931 42.8923 71.1606 42.1597C70.428 41.4272 69.4344 41.0156 68.3984 41.0156ZM33.0469 69.0625C34.0829 69.0625 35.0764 68.6509 35.809 67.9184C36.5416 67.1858 36.9531 66.1923 36.9531 65.1563V48.8281H39.8828C40.9188 48.8281 41.9124 48.4166 42.6449 47.684C43.3775 46.9514 43.7891 45.9579 43.7891 44.9219C43.7891 43.8859 43.3775 42.8923 42.6449 42.1597C41.9124 41.4272 40.9188 41.0156 39.8828 41.0156H26.2109C25.1749 41.0156 24.1814 41.4272 23.4488 42.1597C22.7162 42.8923 22.3047 43.8859 22.3047 44.9219C22.3047 45.9579 22.7162 46.9514 23.4488 47.684C24.1814 48.4166 25.1749 48.8281 26.2109 48.8281H29.1406V65.1563C29.1406 66.1923 29.5522 67.1858 30.2847 67.9184C31.0173 68.6509 32.0109 69.0625 33.0469 69.0625ZM87.7344 41.0156C86.6984 41.0156 85.7048 41.4272 84.9722 42.1597C84.2397 42.8923 83.8281 43.8859 83.8281 44.9219V65.1563C83.8281 66.1923 84.2397 67.1858 84.9722 67.9184C85.7048 68.6509 86.6984 69.0625 87.7344 69.0625C88.7704 69.0625 89.764 68.6509 90.4965 67.9184C91.2291 67.1858 91.6406 66.1923 91.6406 65.1563V60.4687L97.6563 67.6563C98.0235 68.0972 98.4834 68.4518 99.0033 68.6949C99.5232 68.9379 100.09 69.0634 100.664 69.0625C101.433 69.0834 102.191 68.8767 102.843 68.4685C103.495 68.0603 104.012 67.4686 104.329 66.7677C104.646 66.0668 104.749 65.288 104.625 64.5287C104.501 63.7695 104.156 63.0638 103.633 62.5L95.8203 53.3594L102.852 47.8516C103.67 47.2144 104.202 46.2783 104.33 45.249C104.458 44.2197 104.172 43.1817 103.535 42.3633C102.898 41.5448 101.962 41.013 100.933 40.8848C99.9033 40.7566 98.8653 41.0425 98.0469 41.6797L91.6406 46.875V44.9219C91.6406 43.8859 91.2291 42.8923 90.4965 42.1597C89.764 41.4272 88.7704 41.0156 87.7344 41.0156V41.0156Z" fill="#FFAF18"/>
</svg>
