<svg width="125" height="125" viewBox="0 0 125 125" fill="none" xmlns="http://www.w3.org/2000/svg">
<g clip-path="url(#clip0_164_595)">
<path d="M75.6868 17.8213L75.6868 17.8214C75.5953 18.0043 75.4686 18.1674 75.314 18.3014C75.1595 18.4354 74.98 18.5376 74.786 18.6022C74.5919 18.6668 74.387 18.6926 74.183 18.678C73.979 18.6635 73.7798 18.6089 73.5969 18.5173L75.6868 17.8213ZM75.6868 17.8213L82.7458 3.70633L82.7517 3.69467M75.6868 17.8213L82.7517 3.69467M82.7517 3.69467L82.7569 3.68272M82.7517 3.69467L82.7569 3.68272M82.7569 3.68272C82.9167 3.31673 82.9299 2.90338 82.7938 2.52792C82.6578 2.15246 82.3829 1.84352 82.0257 1.66481C81.6686 1.4861 81.2565 1.45126 80.8745 1.56746C80.4924 1.68366 80.1695 1.94205 79.9723 2.28934L79.9658 2.30077M82.7569 3.68272L79.9658 2.30077M79.9658 2.30077L79.96 2.31254M79.9658 2.30077L79.96 2.31254M79.96 2.31254L72.901 16.4274M79.96 2.31254L72.901 16.4274M72.901 16.4274C72.901 16.4275 72.901 16.4275 72.901 16.4275L72.901 16.4274ZM76.3558 24.496L76.3441 24.4902L76.3322 24.4849C75.9662 24.3252 75.5528 24.3119 75.1774 24.448C74.8019 24.584 74.493 24.859 74.3143 25.2161C74.1356 25.5732 74.1007 25.9853 74.2169 26.3674C74.3331 26.7494 74.5915 27.0723 74.9388 27.2695L74.9502 27.276L74.962 27.2819L89.0769 34.3408C89.0769 34.3408 89.077 34.3409 89.077 34.3409C89.4464 34.5257 89.8741 34.5562 90.266 34.4257C90.6579 34.2952 90.9819 34.0143 91.1668 33.6449C91.3516 33.2755 91.3822 32.8478 91.2517 32.4559C91.1212 32.0639 90.8403 31.7399 90.4709 31.555L90.248 32.0006L90.4708 31.555L76.3558 24.496ZM91.8686 14.1007L91.8681 14.1008L75.8046 19.4528L75.8045 19.4528C75.4126 19.5835 75.0886 19.8645 74.9038 20.234C74.7191 20.6036 74.6887 21.0313 74.8193 21.4233C74.95 21.8152 75.231 22.1392 75.6005 22.324C75.97 22.5088 76.3978 22.5392 76.7898 22.4085L92.8527 17.0552C93.0468 16.9908 93.2263 16.8887 93.381 16.7548C93.5356 16.6209 93.6623 16.4578 93.7539 16.2749C93.8454 16.092 93.9 15.8929 93.9145 15.6888C93.929 15.4848 93.9032 15.2799 93.8384 15.0859L93.3647 15.244L93.8383 15.0855C93.7073 14.694 93.4264 14.3704 93.0571 14.1858C92.6878 14.0012 92.2604 13.9706 91.8686 14.1007Z" fill="#FFAF18" stroke="#FFAF18"/>
<path d="M55.7674 36.0601C62.6326 35.691 67.8987 29.8264 67.5295 22.9612C67.1603 16.096 61.2957 10.8299 54.4305 11.1991C47.5653 11.5682 42.2993 17.4328 42.6684 24.298C43.0376 31.1632 48.9022 36.4293 55.7674 36.0601Z" fill="#FFAF18"/>
<path d="M65.4587 41.5242C65.3888 41.3889 65.3016 41.2633 65.1992 41.1507C64.7577 40.4928 64.1626 39.9524 63.4652 39.5763C62.7679 39.2002 61.9894 38.9997 61.1972 38.9922L48.6092 38.8992C47.319 38.8936 46.079 39.3987 45.16 40.3042C44.241 41.2097 43.7176 42.4421 43.7042 43.7322L43.4942 72.2172C43.4894 73.5068 43.9948 74.746 44.9002 75.6644C45.8057 76.5828 47.0376 77.1057 48.3272 77.1192L50.8877 77.1387L50.5892 117.589C50.5844 118.602 50.9807 119.576 51.6915 120.297C52.4023 121.019 53.3699 121.429 54.3827 121.44C55.3955 121.444 56.3691 121.048 57.0906 120.337C57.8121 119.627 58.2229 118.659 58.2332 117.646L58.5302 77.1957L60.9152 77.2137C62.2053 77.2193 63.4453 76.7142 64.3643 75.8087C65.2833 74.9032 65.8067 73.6708 65.8202 72.3807L65.9537 54.1992L73.0577 68.4912C73.267 68.9093 73.6333 69.2275 74.0765 69.3765C74.5197 69.5254 75.0038 69.493 75.4232 69.2862L76.9187 68.5437C77.3368 68.3343 77.655 67.9681 77.804 67.5249C77.9529 67.0817 77.9205 66.5975 77.7137 66.1782L65.4587 41.5242V41.5242Z" fill="#FFAF18"/>
</g>
<defs>
<clipPath id="clip0_164_595">
<rect width="125" height="125" fill="white"/>
</clipPath>
</defs>
</svg>
