<svg width="231" height="250" viewBox="0 0 231 250" fill="none" xmlns="http://www.w3.org/2000/svg">
<path d="M216.956 124.887H216.932C216.948 125.211 216.956 125.536 216.956 125.864V193.194C216.956 201.506 211.76 208.665 204.716 210.868C203.265 211.322 201.737 211.565 200.158 211.565H200.121C190.862 211.543 183.361 203.4 183.361 193.357V126.046C183.361 125.656 183.373 125.271 183.395 124.888H183.361V107.658H211.486C214.508 107.658 216.956 110.311 216.956 113.587V124.887V124.887Z" fill="#FFAF18"/>
<path opacity="0.2" d="M204.716 210.867C203.265 211.321 201.737 211.564 200.158 211.564H200.121C190.862 211.542 183.361 203.399 183.361 193.356V126.045C183.361 125.655 183.373 125.27 183.395 124.887H183.361V107.657H192.537V193.355C192.537 201.676 197.684 208.692 204.716 210.867Z" fill="#FFAF18"/>
<path d="M183.667 198.139H63.0517C58.7922 198.139 55.3262 194.383 55.3262 189.765V12.6014C55.3262 7.98428 58.7922 4.22729 63.0517 4.22729H183.666C187.925 4.22729 191.391 7.98428 191.391 12.6014V189.765C191.392 194.384 187.926 198.139 183.667 198.139ZM63.0517 4.96067C59.1643 4.96067 56.0027 8.38868 56.0027 12.6014V189.765C56.0027 193.978 59.1652 197.406 63.0517 197.406H183.666C187.553 197.406 190.715 193.978 190.715 189.765V12.6014C190.715 8.38868 187.552 4.96067 183.666 4.96067H63.0517Z" fill="#A37215"/>
<path d="M200.158 211.562C190.881 211.562 183.36 203.41 183.36 193.355V155.954V19.0751C183.36 15.8011 180.911 13.1462 177.891 13.1462H52.0262C49.0058 13.1462 46.5566 15.8011 46.5566 19.0751V205.635C46.5566 208.909 49.0058 211.563 52.0262 211.563H177.892C177.895 211.563 177.898 211.563 177.901 211.563H200.158V211.562Z" fill="white"/>
<path d="M91.9739 77.1106H57.1711C56.1398 77.1106 55.3047 76.2044 55.3047 75.0875C55.3047 73.9697 56.1407 73.0645 57.1711 73.0645H91.9739C93.0052 73.0645 93.8403 73.9707 93.8403 75.0875C93.8403 76.2044 93.0052 77.1106 91.9739 77.1106Z" fill="#FFAF18"/>
<path d="M76.8458 88.7605H57.1711C56.1398 88.7605 55.3047 87.8542 55.3047 86.7374C55.3047 85.6195 56.1407 84.7144 57.1711 84.7144H76.8458C77.877 84.7144 78.7121 85.6206 78.7121 86.7374C78.7121 87.8542 77.877 88.7605 76.8458 88.7605ZM118.469 88.7605H85.4411C84.4098 88.7605 83.5747 87.8542 83.5747 86.7374C83.5747 85.6195 84.4108 84.7144 85.4411 84.7144H118.47C119.502 84.7144 120.337 85.6206 120.337 86.7374C120.336 87.8542 119.501 88.7605 118.469 88.7605ZM147.73 88.7605H127.065C126.033 88.7605 125.198 87.8542 125.198 86.7374C125.198 85.6195 126.034 84.7144 127.065 84.7144H147.73C148.761 84.7144 149.597 85.6206 149.597 86.7374C149.597 87.8542 148.76 88.7605 147.73 88.7605ZM102.936 100.412H57.1711C56.1398 100.412 55.3047 99.5055 55.3047 98.3887C55.3047 97.2708 56.1407 96.3656 57.1711 96.3656H102.936C103.968 96.3656 104.803 97.2719 104.803 98.3887C104.803 99.5055 103.968 100.412 102.936 100.412ZM162.818 100.412H111.045C110.013 100.412 109.178 99.5055 109.178 98.3887C109.178 97.2708 110.014 96.3656 111.045 96.3656H162.818C163.849 96.3656 164.684 97.2719 164.684 98.3887C164.685 99.5055 163.849 100.412 162.818 100.412ZM87.3229 112.062H57.1711C56.1398 112.062 55.3047 111.156 55.3047 110.039C55.3047 108.921 56.1407 108.016 57.1711 108.016H87.3229C88.3542 108.016 89.1893 108.922 89.1893 110.039C89.1893 111.156 88.3533 112.062 87.3229 112.062ZM154.186 112.062H144.535C143.504 112.062 142.668 111.156 142.668 110.039C142.668 108.921 143.504 108.016 144.535 108.016H154.186C155.217 108.016 156.052 108.922 156.052 110.039C156.052 111.156 155.216 112.062 154.186 112.062Z" fill="#2CBDDD"/>
<path d="M172.908 200.664H158.327C157.296 200.664 156.461 199.757 156.461 198.641C156.461 197.523 157.297 196.617 158.327 196.617H172.908C173.94 196.617 174.775 197.524 174.775 198.641C174.775 199.757 173.939 200.664 172.908 200.664Z" fill="#FFAF18"/>
<path d="M102.256 123.712H57.1711C56.1398 123.712 55.3047 122.806 55.3047 121.689C55.3047 120.571 56.1407 119.666 57.1711 119.666H102.256C103.287 119.666 104.122 120.572 104.122 121.689C104.122 122.807 103.286 123.712 102.256 123.712ZM123.331 123.712H110.061C109.029 123.712 108.194 122.806 108.194 121.689C108.194 120.571 109.03 119.666 110.061 119.666H123.331C124.362 119.666 125.197 120.572 125.197 121.689C125.197 122.807 124.362 123.712 123.331 123.712ZM87.3229 135.363H57.1711C56.1398 135.363 55.3047 134.457 55.3047 133.34C55.3047 132.223 56.1407 131.317 57.1711 131.317H87.3229C88.3542 131.317 89.1893 132.224 89.1893 133.34C89.1893 134.457 88.3533 135.363 87.3229 135.363ZM136.079 112.062H95.7781C94.7469 112.062 93.9118 111.156 93.9118 110.039C93.9118 108.921 94.7478 108.016 95.7781 108.016H136.079C137.11 108.016 137.945 108.922 137.945 110.039C137.946 111.156 137.11 112.062 136.079 112.062Z" fill="#2CBDDD"/>
<path d="M199.531 88.9292H173.898V77.5985C173.898 71.3512 178.587 66.2678 184.351 66.2678H199.531C205.294 66.2678 209.984 71.3501 209.984 77.5985C209.984 83.8458 205.295 88.9292 199.531 88.9292ZM174.167 88.6379H199.531C205.146 88.6379 209.715 83.6855 209.715 77.5985C209.715 71.5115 205.146 66.5591 199.531 66.5591H184.351C178.736 66.5591 174.167 71.5115 174.167 77.5985V88.6379Z" fill="#A37215"/>
<path d="M221.092 72.3007H198.76C193.733 72.3007 189.643 67.8669 189.643 62.4179C189.643 56.9689 193.733 52.5352 198.76 52.5352H211.974C217.001 52.5352 221.092 56.9689 221.092 62.4179V72.3007V72.3007ZM198.76 52.8264C193.881 52.8264 189.911 57.1292 189.911 62.4179C189.911 67.7066 193.881 72.0095 198.76 72.0095H220.823V62.4179C220.823 57.1292 216.853 52.8264 211.974 52.8264H198.76Z" fill="#A37215"/>
<path opacity="0.5" d="M199.59 92.1679H170.719V79.5035C170.719 72.5092 175.95 66.8391 182.402 66.8391H199.59C206.043 66.8391 211.273 72.5092 211.273 79.5035C211.273 86.4978 206.043 92.1679 199.59 92.1679Z" fill="#FFAF18"/>
<path d="M197.062 79.5034C197.062 80.7721 198.012 81.8009 199.182 81.8009C200.353 81.8009 201.302 80.7721 201.302 79.5034C201.302 78.2346 200.353 77.2058 199.182 77.2058C198.012 77.2058 197.062 78.2346 197.062 79.5034Z" fill="white"/>
<path d="M191.085 81.8077C192.254 81.7539 193.162 80.6826 193.112 79.4148C193.063 78.147 192.074 77.1629 190.905 77.2168C189.735 77.2706 188.827 78.3419 188.877 79.6097C188.927 80.8775 189.915 81.8616 191.085 81.8077Z" fill="white"/>
<path d="M184.408 80.9904C185.175 80.0318 185.08 78.5807 184.195 77.7494C183.311 76.918 181.972 77.0212 181.205 77.9798C180.438 78.9384 180.533 80.3895 181.418 81.2209C182.302 82.0522 183.641 81.9491 184.408 80.9904Z" fill="white"/>
<path opacity="0.4" d="M198.428 73.5797H223.562V62.5539C223.562 56.4647 219.008 51.5281 213.39 51.5281H198.428C192.81 51.5281 188.256 56.4647 188.256 62.5539C188.256 68.644 192.81 73.5797 198.428 73.5797Z" fill="#FFAF18"/>
<path d="M200.628 62.5548C200.628 63.6601 199.801 64.5558 198.782 64.5558C197.762 64.5558 196.936 63.6601 196.936 62.5548C196.936 61.4495 197.762 60.5537 198.782 60.5537C199.801 60.5537 200.628 61.4505 200.628 62.5548Z" fill="white"/>
<path d="M206.509 64.4279C207.473 64.068 207.984 62.9297 207.652 61.8854C207.321 60.8411 206.27 60.2862 205.307 60.646C204.344 61.0059 203.832 62.1442 204.164 63.1885C204.496 64.2328 205.546 64.7877 206.509 64.4279Z" fill="white"/>
<path d="M213.895 64.326C214.797 63.8102 215.142 62.5997 214.666 61.6223C214.19 60.6449 213.073 60.2707 212.172 60.7865C211.27 61.3023 210.925 62.5128 211.401 63.4902C211.877 64.4676 212.993 64.8418 213.895 64.326Z" fill="white"/>
<path d="M190.515 150.928C190.011 153.342 188.669 155.398 186.737 156.717L183.362 159.023V157.202L185.979 155.413C187.59 154.313 188.708 152.598 189.129 150.586C189.551 148.574 189.223 146.504 188.209 144.759C187.194 143.014 185.612 141.801 183.757 141.345C183.627 141.313 183.494 141.284 183.363 141.261C183.228 141.235 183.09 141.214 182.954 141.197C181.357 141.006 179.76 141.401 178.38 142.343L158.098 156.199C156.935 156.994 156.126 158.234 155.822 159.688C155.517 161.142 155.754 162.637 156.487 163.899C158.001 166.505 161.188 167.289 163.59 165.647L182.924 152.438C182.934 152.432 182.944 152.424 182.954 152.416C183.1 152.314 183.236 152.2 183.363 152.078C184.517 150.959 184.793 149.061 183.94 147.592C183.777 147.312 183.581 147.063 183.363 146.852C183.233 146.726 183.097 146.615 182.954 146.514C181.928 145.799 180.568 145.744 179.471 146.494L169.886 153.04C169.554 153.268 169.115 153.16 168.906 152.8C168.696 152.441 168.795 151.964 169.127 151.738L178.712 145.191C180.03 144.29 181.61 144.196 182.954 144.788C183.093 144.849 183.23 144.917 183.363 144.993C184.069 145.391 184.689 145.99 185.142 146.773C186.514 149.131 185.859 152.258 183.684 153.744L183.362 153.964L182.955 154.243L164.349 166.952C162.327 168.333 159.869 168.369 157.877 167.28C156.848 166.719 155.942 165.857 155.284 164.725C154.349 163.115 154.046 161.207 154.435 159.349C154.824 157.494 155.855 155.912 157.34 154.899L177.623 141.043C179.274 139.915 181.147 139.477 182.954 139.658C183.09 139.672 183.227 139.69 183.363 139.711C185.769 140.077 188.018 141.544 189.412 143.942C190.629 146.03 191.021 148.513 190.515 150.928Z" fill="#A37215"/>
<path d="M36.739 7.52966C39.6927 7.84291 41.8626 10.5836 41.8626 10.5836C41.8626 10.5836 39.2433 12.8152 36.2896 12.502C33.3359 12.1887 31.166 9.44796 31.166 9.44796C31.166 9.44796 33.7853 7.2164 36.739 7.52966Z" fill="#FFAF18"/>
<path d="M43.9515 3.03723C45.785 5.56633 45.4593 9.16092 45.4593 9.16092C45.4593 9.16092 42.1606 8.65385 40.327 6.1237C38.4935 3.5946 38.8193 0 38.8193 0C38.8193 0 42.1171 0.507077 43.9515 3.03723Z" fill="#A37215"/>
<path d="M41.2155 20.8836C41.1169 21.7709 40.3726 22.4027 39.554 22.2958C38.7353 22.189 38.1525 21.3822 38.2511 20.4949C38.3497 19.6075 39.0939 18.9757 39.9126 19.0826C40.7312 19.1905 41.315 19.9962 41.2155 20.8836Z" fill="white"/>
<path d="M221.483 212.689C223.582 215 223.626 218.639 223.626 218.639C223.626 218.639 220.269 218.532 218.172 216.22C216.075 213.909 216.029 210.27 216.029 210.27C216.029 210.27 219.385 210.377 221.483 212.689Z" fill="#2CBDDD"/>
<path d="M224.087 204.508C227.359 204.231 230.21 206.76 230.21 206.76C230.21 206.76 227.756 209.738 224.484 210.016C221.213 210.294 218.361 207.765 218.361 207.765C218.361 207.765 220.815 204.786 224.087 204.508Z" fill="#A37215"/>
<path d="M205.662 219.594C205.054 218.744 205.197 217.522 205.981 216.864C206.765 216.206 207.893 216.36 208.5 217.209C209.108 218.059 208.965 219.282 208.181 219.94C207.397 220.599 206.269 220.444 205.662 219.594ZM22.66 147.901C22.052 147.051 22.1951 145.829 22.9789 145.171C23.7628 144.512 24.8907 144.667 25.4977 145.517C26.1057 146.366 25.9626 147.589 25.1787 148.247C24.3949 148.906 23.267 148.751 22.66 147.901Z" fill="white"/>
<path d="M169.268 57.0808H60.6615C57.6179 57.0808 55.1504 54.4061 55.1504 51.1069V29.1433C55.1504 25.8442 57.6179 23.1694 60.6615 23.1694H169.268C172.311 23.1694 174.779 25.8442 174.779 29.1433V51.1069C174.779 54.4071 172.311 57.0808 169.268 57.0808Z" fill="#FFAF18"/>
<path d="M96.0228 33.2732C96.1484 33.0228 96.3359 32.8542 96.5872 32.7682C96.8376 32.6823 97.1517 32.6394 97.5277 32.6394C97.9036 32.6394 98.2071 32.675 98.4391 32.7462C98.6701 32.8185 98.8421 32.9034 98.9543 33.004C99.0664 33.1046 99.1485 33.2544 99.2017 33.4545C99.2809 33.6839 99.3206 34.0485 99.3206 34.5493V46.4646C99.3206 46.8082 99.3109 47.0586 99.2906 47.2158C99.2703 47.3729 99.2085 47.5594 99.1021 47.7742C98.9175 48.1608 98.4024 48.3536 97.5576 48.3536C97.0425 48.3536 96.6858 48.3106 96.4877 48.2247C96.2895 48.1388 96.1243 48.0026 95.9928 47.8171C93.0217 43.5237 91.0674 40.7181 90.1308 39.4011V46.4646C90.1308 46.8082 90.1211 47.0586 90.1008 47.2158C90.0805 47.3729 90.0187 47.5594 89.9124 47.7742C89.7277 48.1608 89.2126 48.3536 88.3678 48.3536C87.5492 48.3536 87.0476 48.1608 86.863 47.7742C86.7566 47.5594 86.6948 47.3666 86.6745 47.1948C86.6542 47.023 86.6445 46.7726 86.6445 46.4436V34.4644C86.6445 33.9207 86.7074 33.5236 86.833 33.2732C86.9586 33.0228 87.1461 32.8542 87.3974 32.7682C87.6478 32.6823 87.9716 32.6394 88.3678 32.6394C88.7641 32.6394 89.0773 32.6792 89.3083 32.7578C89.5393 32.8363 89.7007 32.9265 89.7935 33.026C89.8457 33.0689 89.9984 33.2554 90.2487 33.5844C93.0342 37.6924 94.8958 40.4038 95.8343 41.7207V34.4644C95.8353 33.9217 95.8971 33.5247 96.0228 33.2732ZM104.41 44.5557H110.51C110.814 44.5557 111.042 44.5662 111.193 44.5882C111.345 44.6102 111.52 44.6772 111.718 44.7925C112.075 44.9926 112.253 45.551 112.253 46.4667C112.253 47.4683 112.008 48.055 111.52 48.2268C111.296 48.3127 110.952 48.3557 110.49 48.3557H102.646C101.722 48.3557 101.181 48.0843 101.023 47.5395C100.943 47.3111 100.904 46.9455 100.904 46.4447V34.5084C100.904 33.7782 101.029 33.2816 101.28 33.0165C101.53 32.7515 102.006 32.6195 102.705 32.6195H110.508C110.812 32.6195 111.04 32.63 111.192 32.652C111.343 32.674 111.518 32.741 111.716 32.8563C112.073 33.0564 112.251 33.6148 112.251 34.5305C112.251 35.532 112.006 36.1187 111.518 36.2905C111.294 36.3765 110.95 36.4194 110.488 36.4194H104.407V38.5881H108.329C108.632 38.5881 108.86 38.5986 109.012 38.6206C109.164 38.6426 109.339 38.7097 109.537 38.8249C109.893 39.025 110.071 39.5834 110.071 40.4991C110.071 41.5007 109.82 42.0874 109.318 42.2592C109.094 42.3451 108.75 42.3881 108.288 42.3881H104.406V44.5557H104.41ZM130.91 32.7043C131.794 33.048 132.237 33.5058 132.237 34.0778C132.237 34.2643 132.157 34.6143 131.999 35.1297L128.197 47.046C128.17 47.1466 128.124 47.2682 128.058 47.4106C127.992 47.5542 127.818 47.7438 127.534 47.9795C127.249 48.2153 126.913 48.3337 126.524 48.3337C126.134 48.3337 125.798 48.2153 125.514 47.9795C125.229 47.7438 125.041 47.5112 124.949 47.2818L122.632 39.8757C121.167 44.5704 120.421 46.9601 120.395 47.046C120.368 47.132 120.309 47.2535 120.217 47.4106C120.124 47.5678 120.019 47.7113 119.9 47.8402C119.596 48.1692 119.233 48.3337 118.811 48.3337C118.388 48.3337 118.041 48.2268 117.771 48.012C117.5 47.7972 117.318 47.5825 117.227 47.3677L117.088 47.046L113.266 35.1308C113.121 34.6583 113.048 34.3083 113.048 34.0789C113.048 33.5069 113.491 33.0553 114.375 32.7263C114.758 32.5839 115.105 32.5116 115.415 32.5116C115.725 32.5116 115.963 32.6268 116.129 32.8552C116.294 33.0847 116.442 33.4346 116.574 33.9071L118.753 41.0774L120.912 34.0139C121.096 33.4126 121.434 32.9977 121.922 32.7693C122.133 32.6698 122.407 32.6195 122.743 32.6195C123.08 32.6195 123.394 32.7379 123.684 32.9736C123.974 33.2093 124.159 33.443 124.239 33.6713L126.516 41.1204L128.694 33.9071C128.8 33.5781 128.886 33.335 128.952 33.1768C129.017 33.0197 129.14 32.8657 129.318 32.7148C129.496 32.565 129.717 32.4896 129.981 32.4896C130.243 32.4906 130.553 32.5619 130.91 32.7043ZM133.543 46.144C133.2 45.6862 133.028 45.2744 133.028 44.9098C133.028 44.5452 133.312 44.0623 133.88 43.4609C134.209 43.1172 134.559 42.9454 134.929 42.9454C135.299 42.9454 135.814 43.3037 136.474 44.0193C136.659 44.2624 136.922 44.4949 137.267 44.7171C137.61 44.9392 137.927 45.0502 138.218 45.0502C139.445 45.0502 140.06 44.5065 140.06 43.419C140.06 43.09 139.892 42.8145 139.554 42.5924C139.218 42.3702 138.799 42.21 138.297 42.1094C137.795 42.0098 137.254 41.8485 136.673 41.6264C136.092 41.4043 135.551 41.1434 135.049 40.8427C134.548 40.542 134.128 40.0664 133.792 39.4147C133.456 38.7641 133.287 37.9805 133.287 37.0637C133.287 35.8044 133.719 34.7065 134.584 33.7688C135.449 32.8311 136.628 32.3628 138.12 32.3628C138.913 32.3628 139.636 32.4739 140.289 32.696C140.942 32.9181 141.395 33.1433 141.646 33.3728L142.141 33.7803C142.55 34.1952 142.755 34.5462 142.755 34.8322C142.755 35.1182 142.596 35.5121 142.279 36.0129C141.83 36.7285 141.368 37.0868 140.893 37.0868C140.616 37.0868 140.272 36.9443 139.863 36.6572C139.823 36.629 139.747 36.5577 139.635 36.4425C139.522 36.3283 139.42 36.235 139.327 36.1638C139.05 35.9783 138.697 35.8851 138.268 35.8851C137.839 35.8851 137.482 35.9962 137.198 36.2183C136.914 36.4404 136.772 36.7484 136.772 37.1413C136.772 37.5352 136.94 37.8537 137.277 38.0968C137.614 38.3398 138.033 38.5043 138.535 38.5902C139.036 38.6761 139.584 38.8081 140.179 38.9873C140.773 39.1664 141.32 39.3844 141.823 39.6421C142.324 39.8998 142.744 40.3472 143.08 40.9842C143.417 41.6212 143.586 42.4048 143.586 43.3352C143.586 44.2655 143.414 45.0848 143.071 45.793C142.727 46.5013 142.278 47.0492 141.724 47.4358C140.654 48.1943 139.513 48.5736 138.298 48.5736C137.677 48.5736 137.09 48.4908 136.535 48.3263C135.98 48.1618 135.532 47.9575 135.189 47.7145C134.489 47.2566 134.001 46.8124 133.723 46.3839L133.543 46.144Z" fill="white"/>
<path d="M27.6673 215.422L20.9219 217.378L28.5449 248.26C28.7256 248.99 29.5047 249.398 30.2866 249.171L34.2001 248.036C34.982 247.81 35.4701 247.034 35.2893 246.304L31.9152 232.635C31.6465 231.545 32.3733 230.388 33.5399 230.05C34.7065 229.712 35.4334 228.554 35.1647 227.465L31.8901 214.198L27.6673 215.422Z" fill="#D0A95F"/>
<path d="M31.5038 248.801L27.5903 249.937C26.8084 250.164 26.0284 249.756 25.8486 249.025L22.1159 233.901L18.2266 218.143L24.972 216.187L29.1948 214.962L30.7615 221.309C30.7615 221.309 30.7615 221.309 30.7615 221.31L32.4694 228.23C32.508 228.385 32.5254 228.542 32.5254 228.698C32.5215 229.633 31.844 230.525 30.8446 230.815C29.678 231.153 28.9512 232.31 29.2199 233.399L32.594 247.068C32.7728 247.799 32.2857 248.574 31.5038 248.801Z" fill="#FFA700"/>
<path d="M30.7615 221.308C30.7354 221.4 28.4786 229.22 22.1159 233.9L18.2266 218.142L24.972 216.186L29.1948 214.961L30.7615 221.308Z" fill="#A37215"/>
<path d="M11.8478 222.979C12.5388 220.826 11.7202 216.72 9.60733 212.589C7.4945 208.458 4.71669 205.529 2.66571 205.024L2.37576 204.456L1.16275 205.185C-0.805101 206.368 -0.215517 211.6 2.48014 216.871C5.17579 222.143 8.95686 225.458 10.9247 224.275L12.1377 223.546L11.8478 222.979Z" fill="#FFAF18"/>
<path d="M28.9243 217.565L15.8056 225.446C14.8072 226.047 13.4579 225.775 11.9714 224.821C9.5647 223.274 6.79945 219.939 4.58513 215.608C3.6157 213.711 2.85118 211.819 2.30316 210.036C1.81506 208.448 1.49901 206.945 1.36369 205.605C1.297 204.939 1.27476 204.314 1.29796 203.737C1.32406 203.096 1.40621 202.517 1.54539 202.009C1.79282 201.114 2.21907 200.448 2.83475 200.078L15.9525 192.196L16.1738 192.629L16.9876 194.221L17.034 194.312L27.8205 215.406L28.703 217.132L28.9243 217.565Z" fill="#FFA700"/>
<path d="M17.032 194.313L15.6373 195.816L1.29492 203.738C1.32102 203.097 1.40318 202.518 1.54236 202.01C1.78979 201.115 2.21603 200.449 2.83171 200.079L15.9495 192.197L16.1708 192.63L16.9846 194.222L17.032 194.313Z" fill="#FFAF18"/>
<path d="M68.1909 207.368L29.3102 217.119C29.1904 217.136 29.0667 217.145 28.9401 217.143C28.8608 217.143 28.7815 217.139 28.7004 217.132L28.9217 217.565L15.803 225.446C14.8045 226.047 13.4553 225.775 11.9688 224.821L25.8906 215.91H25.8916L27.8189 215.407L64.0203 205.959L67.2485 205.525L68.1909 207.368Z" fill="#A37215"/>
<path d="M30.0812 216.864L17.1094 191.497L15.275 192.599L28.2468 217.966L30.0812 216.864Z" fill="#FFAF18"/>
<path d="M28.4421 217.845C31.057 216.273 30.2727 209.321 26.6903 202.316C23.1079 195.311 18.084 190.906 15.4691 192.478C12.8542 194.049 13.6385 201.001 17.2209 208.006C20.8033 215.011 25.8272 219.416 28.4421 217.845Z" fill="#FFAF18"/>
<path d="M68.1905 207.367L29.3098 217.12C29.189 217.137 29.0663 217.144 28.9397 217.144C28.8614 217.144 28.7812 217.14 28.7 217.134C27.8581 217.062 26.9003 216.635 25.8903 215.911H25.8893C24.6038 214.989 23.2342 213.586 21.9111 211.816C20.8643 210.417 19.8494 208.788 18.9283 206.988C18.0082 205.188 17.2727 203.392 16.7314 201.69C16.193 199.993 15.847 198.39 15.7059 196.969C15.6653 196.57 15.6421 196.186 15.6354 195.817C15.6093 194.525 15.7832 193.433 16.1689 192.631C16.2655 192.426 16.3767 192.242 16.5023 192.077L44.7347 161.504L45.0256 162.073L59.4144 190.21L67.2462 205.526L68.1905 207.367Z" fill="#FFA700"/>
<path d="M59.4142 190.208L54.9884 197.39C54.9884 197.39 31.5559 209.146 15.7067 196.967C15.4912 194.812 15.7444 193.077 16.5022 192.075L26.9272 180.787L27.595 180.063L44.7355 161.503L47.4253 166.763L49.1931 170.222L59.4142 190.208Z" fill="#D0A95F"/>
<path d="M68.1908 207.368L29.3102 217.119C29.1904 217.136 29.0666 217.145 28.94 217.144C28.8608 217.144 28.7815 217.139 28.7003 217.132C27.8585 217.061 26.9006 216.634 25.8906 215.909L27.8179 215.406L64.0193 205.958L67.2475 205.524L68.1908 207.368Z" fill="#A37215"/>
<path d="M45.0295 162.072L43.3797 165.931L15.6393 195.816C15.6132 194.524 15.7871 193.432 16.1728 192.63C16.2694 192.425 16.3806 192.241 16.5062 192.075L44.7386 161.503L45.0295 162.072Z" fill="#FFAF18"/>
<path d="M84.3199 209.256C94.5886 203.086 95.6331 183.849 86.653 166.289C77.6729 148.73 62.0687 139.498 51.8001 145.668C41.5314 151.838 40.4868 171.075 49.467 188.635C58.4471 206.194 74.0513 215.426 84.3199 209.256Z" fill="#FFAF18"/>
<path d="M85.6583 208.45C95.7827 202.366 96.7103 183.2 87.7302 165.64C78.7501 148.081 63.2629 138.778 53.1385 144.862C43.0141 150.946 42.0865 170.112 51.0666 187.672C60.0467 205.231 75.534 214.534 85.6583 208.45Z" fill="#A37215"/>
<path d="M86.2813 204.85C95.3655 199.391 96.0151 181.837 87.7322 165.641C79.4494 149.445 65.3706 140.74 56.2863 146.199C47.2021 151.658 46.5525 169.212 54.8354 185.408C63.1183 201.604 77.1971 210.309 86.2813 204.85Z" fill="#FFAF18"/>
<path d="M85.8645 166.771C77.8317 151.064 64.3766 142.504 55.8103 147.65C52.3762 149.713 50.2498 153.666 49.4514 158.672C48.7072 163.339 49.1161 168.923 50.6963 174.747C51.6503 178.263 53.0315 181.867 54.8437 185.41C56.655 188.954 58.7427 192.132 60.988 194.873C64.7072 199.413 68.8584 202.747 72.9043 204.537C77.245 206.456 81.4639 206.595 84.898 204.532C93.4644 199.384 93.8974 182.479 85.8645 166.771Z" fill="#FFAF18"/>
<path d="M72.9026 204.536C66.4143 201.667 59.6544 194.822 54.8421 185.41C50.0297 175.999 48.2551 166.157 49.4498 158.672C55.6965 160.105 63.1165 167.118 68.3271 177.307C73.5376 187.497 75.0938 198.036 72.9026 204.536Z" fill="#FFAF18"/>
<path d="M73.5625 182.89L60.9879 194.873C60.4312 194.194 59.8851 193.488 59.3496 192.757C57.7249 190.536 56.2055 188.077 54.8427 185.411C53.7264 183.227 52.7724 181.021 51.9827 178.825C51.4908 177.459 51.0616 176.096 50.6953 174.748L66.7339 169.539L69.1319 174.227L72.622 181.052L73.5625 182.89Z" fill="#D0A95F"/>
<path d="M69.1319 174.226L67.0587 179.377C67.0587 179.377 58.6992 182.586 51.9827 178.825C51.4908 177.458 51.0616 176.096 50.6953 174.748L66.7339 169.539L69.1319 174.226Z" fill="#FFAF18"/>
<path d="M73.5624 182.889L60.9879 194.873C60.4312 194.194 59.8851 193.488 59.3496 192.757L71.8459 181.652L72.623 181.051L73.5624 182.889Z" fill="#FFA700"/>
<path d="M73.7901 174.026C71.9044 170.339 68.7458 168.33 66.7354 169.538C64.725 170.746 64.6226 174.714 66.5083 178.401C68.394 182.088 71.5526 184.098 73.563 182.89C75.5734 181.682 75.6748 177.714 73.7901 174.026ZM68.3282 177.307C67.3859 175.464 67.4362 173.479 68.4413 172.876C69.4465 172.271 71.0259 173.276 71.9692 175.12C72.9116 176.964 72.8613 178.948 71.8561 179.552C70.8499 180.156 69.2706 179.151 68.3282 177.307Z" fill="#FFA700"/>
<path d="M71.8476 179.549C72.8528 178.945 72.9033 176.961 71.9604 175.117C71.0176 173.274 69.4384 172.269 68.4333 172.873C67.4281 173.477 67.3776 175.461 68.3204 177.305C69.2633 179.148 70.8424 180.153 71.8476 179.549Z" fill="white"/>
<path d="M7.20924 213.027L7.13772 212.888C7.00241 212.624 7.09035 212.291 7.33489 212.144L13.3293 208.542C13.5729 208.395 13.8802 208.491 14.0155 208.756L14.0871 208.895C14.2224 209.159 14.1344 209.492 13.8899 209.639L7.89548 213.241C7.65191 213.388 7.34456 213.292 7.20924 213.027ZM8.41644 215.39L8.34492 215.25C8.2096 214.986 8.29756 214.653 8.54209 214.506L14.5365 210.905C14.7801 210.758 15.0874 210.853 15.2228 211.118L15.2943 211.258C15.4296 211.522 15.3416 211.855 15.0971 212.001L9.10267 215.603C8.85911 215.749 8.55175 215.654 8.41644 215.39ZM9.6246 217.751L9.55308 217.612C9.41777 217.348 9.50572 217.015 9.75026 216.868L15.7447 213.266C15.9882 213.119 16.2956 213.215 16.4309 213.48L16.5024 213.619C16.6378 213.883 16.5498 214.216 16.3053 214.363L10.3108 217.965C10.0673 218.11 9.75992 218.015 9.6246 217.751Z" fill="#FFAF18"/>
<path d="M88.3359 146.807L101.359 134.69L90.8847 131.406L112.694 118.574L101.595 129.662L112.605 133.114L88.3359 146.807Z" fill="#A37215"/>
<path d="M102.545 183.643L118.701 189.917L116.153 178.425L137.23 192.623L122.85 187.652L125.528 199.732L102.545 183.643Z" fill="#A37215"/>
<path d="M101.822 164.692L125.335 156.235L113.003 145.634L148.613 141.436L128.188 149.659L141.151 160.803L101.822 164.692Z" fill="#FFAF18"/>
</svg>
