<svg width="455" height="455" viewBox="0 0 455 455" fill="none" xmlns="http://www.w3.org/2000/svg">
<g style="mix-blend-mode:multiply">
<path d="M227.5 403.69C334.358 403.69 420.984 395.681 420.984 385.802C420.984 375.923 334.358 367.915 227.5 367.915C120.642 367.915 34.0159 375.923 34.0159 385.802C34.0159 395.681 120.642 403.69 227.5 403.69Z" fill="#E3E3E3"/>
</g>
<path d="M316.754 345.536L286.38 279.152C284.25 274.496 280.48 270.788 275.79 268.736C271.1 266.683 265.818 266.43 260.953 268.024L184.099 293.2C182.466 293.735 180.964 294.608 179.69 295.761C178.416 296.914 177.399 298.322 176.704 299.893L155.572 347.682C154.36 350.427 154.196 353.521 155.111 356.379C156.025 359.237 157.955 361.661 160.535 363.193C226.067 402.171 293.198 377.953 313.83 359.724C317.837 356.188 318.979 350.398 316.754 345.536V345.536ZM309.615 354.958C297.217 365.912 268.767 377.708 235.602 377.708C210.24 377.708 186.08 370.986 163.791 357.73C162.55 356.992 161.622 355.826 161.181 354.452C160.74 353.077 160.817 351.588 161.398 350.266L182.528 302.476C182.863 301.721 183.352 301.045 183.964 300.491C184.577 299.937 185.298 299.517 186.083 299.259L262.937 274.083C266.316 272.973 269.986 273.149 273.244 274.576C276.502 276.003 279.12 278.582 280.596 281.818L310.968 348.202C312.036 350.524 311.481 353.31 309.615 354.958V354.958Z" fill="#D68145"/>
<path d="M310.389 345.536L280.015 279.152C277.885 274.496 274.115 270.788 269.425 268.736C264.735 266.683 259.453 266.43 254.588 268.024L177.732 293.2C176.1 293.736 174.598 294.608 173.324 295.761C172.05 296.914 171.033 298.322 170.338 299.893L149.207 347.687C147.995 350.432 147.831 353.526 148.745 356.384C149.66 359.242 151.589 361.666 154.169 363.198C219.701 402.176 286.832 377.958 307.465 359.729C311.472 356.188 312.614 350.398 310.389 345.536V345.536ZM303.25 354.958C290.851 365.912 262.402 377.708 229.237 377.708C203.875 377.708 179.714 370.986 157.426 357.73C156.185 356.992 155.256 355.826 154.815 354.452C154.374 353.077 154.452 351.588 155.032 350.266L176.162 302.476C176.497 301.721 176.986 301.045 177.599 300.491C178.211 299.937 178.933 299.517 179.718 299.259L256.572 274.083C259.951 272.973 263.621 273.149 266.879 274.576C270.137 276.003 272.754 278.582 274.23 281.818L304.603 348.202C305.671 350.524 305.116 353.31 303.25 354.958Z" fill="#B36C3A"/>
<path d="M227.213 332.658L288.397 317.185L275.031 305.302L244.264 311.032L215.406 320.792L227.213 332.658V332.658Z" fill="#B36C3A"/>
<path d="M224.397 324.203L287.549 308.49L263.679 273.152C263.679 273.152 236.474 261.596 235.118 261.485C199.734 228.979 189.066 178.654 186.444 162.306C186.211 160.853 185.442 159.541 184.289 158.627C183.136 157.713 181.682 157.264 180.215 157.369L84.3101 164.147L94.3565 251.507C94.3565 251.507 115.681 299.567 123.637 304.342C131.594 309.116 169.151 328.213 170.105 328.213C171.059 328.213 224.397 324.203 224.397 324.203V324.203Z" fill="#FFBE6E"/>
<path d="M74.0922 176.13L74.1255 174.31C74.1732 171.626 75.2622 169.066 77.1626 167.17C79.0629 165.274 81.6258 164.19 84.3099 164.149C85.6965 164.127 87.0731 164.385 88.3581 164.906C89.6431 165.427 90.8102 166.202 91.7901 167.183C92.77 168.164 93.5426 169.332 94.0622 170.618C94.5817 171.903 94.8375 173.28 94.8144 174.667L94.6733 183.081L122.046 280.158C127.138 289.389 145.598 304.029 156.738 306.576C165.432 308.563 198.163 308.611 214.084 307.628C216.412 307.483 218.708 308.23 220.505 309.719C222.302 311.207 223.464 313.324 223.754 315.639L225.167 326.945C225.167 326.945 208.939 332.992 207.025 332.992C205.111 332.992 157.055 332.038 157.055 332.038L121.091 313.895L103.267 294.799L85.1259 263.927L73.6675 227.642L69.53 187.859L74.0922 176.13Z" fill="#FFCE91"/>
<path d="M325.424 348.428C328.289 353.521 334.176 360.524 332.108 365.774C330.039 371.025 327.97 378.346 331.789 379.938H364.731L360.912 359.727C353.432 363.387 341.179 339.04 341.179 339.04L325.424 348.428Z" fill="#874632"/>
<path d="M356.138 381.37C354.069 373.573 355.66 357.977 361.707 355.909C367.754 353.84 392.421 362.43 395.127 379.779C383.827 383.28 356.138 381.37 356.138 381.37V381.37Z" fill="#6773A6"/>
<path d="M395.127 383.917H328.926C328.377 383.917 327.851 383.699 327.463 383.311C327.075 382.923 326.857 382.397 326.857 381.848C326.857 381.576 326.91 381.307 327.014 381.056C327.118 380.805 327.27 380.577 327.462 380.385C327.655 380.193 327.883 380.04 328.134 379.936C328.385 379.832 328.654 379.779 328.926 379.779H395.127C395.675 379.779 396.201 379.997 396.589 380.385C396.977 380.773 397.195 381.299 397.195 381.848C397.195 382.397 396.977 382.923 396.589 383.311C396.201 383.699 395.675 383.917 395.127 383.917V383.917Z" fill="#4C557A"/>
<path d="M310.462 353.521C313.327 358.613 314.44 360.524 312.371 365.774C310.303 371.025 308.234 378.346 312.053 379.939H344.995L341.176 359.728C333.696 363.387 329.082 348.11 329.082 348.11L310.462 353.521Z" fill="#A6563E"/>
<path d="M253.813 242.284C253.813 242.284 285.464 220.223 300.917 232.948C308.131 238.889 344.626 339.463 344.626 339.463C343.354 344.981 325.53 348.8 325.53 348.8C325.53 348.8 275.882 280.477 273.758 282.174C263.574 290.668 224.107 299.149 224.107 299.149L253.813 242.284Z" fill="#5E1B15"/>
<path d="M138.596 288.115C141.461 302.755 163.422 318.033 191.431 314.214C219.439 310.395 258.904 279.522 258.904 279.522C263.36 299.255 306.327 359.409 306.327 359.409C311.739 354.635 328.607 354.953 331.789 347.634C315.561 310.076 286.592 238.147 282.457 235.6C278.321 233.054 273.545 229.554 266.228 230.189C258.912 230.824 219.017 247.588 219.017 247.588C219.017 247.588 163.107 246.74 161.515 247.057C159.922 247.374 133.825 263.286 133.825 265.518C133.825 267.751 138.596 288.115 138.596 288.115V288.115Z" fill="#82251D"/>
<path d="M270.352 264.355C271.042 260.563 269.879 258.93 265.743 257.895C263.933 257.44 264.035 256.157 264.35 254.104C264.52 252.995 264.681 251.95 264.225 251.187C263.618 250.18 261.41 250.85 235.118 261.491C216.87 268.878 194.158 278.07 184.277 280.497C177.031 282.276 170.578 282.763 165.112 282.364C167.669 280.829 169.359 278.222 169.51 275.396C169.715 271.241 166.607 267.416 160.982 264.899C160.829 264.838 160.659 264.839 160.507 264.901C160.354 264.962 160.232 265.081 160.164 265.231C160.097 265.381 160.091 265.551 160.146 265.706C160.202 265.86 160.315 265.988 160.462 266.061C165.582 268.351 168.417 271.73 168.238 275.333C168.086 278.313 165.885 281.017 162.749 282.062C162.715 282.078 162.682 282.096 162.652 282.118C155.22 281.163 149.924 278.493 147.374 275.307C147.267 275.181 147.115 275.101 146.95 275.086C146.786 275.07 146.621 275.119 146.492 275.222C146.363 275.325 146.279 275.475 146.258 275.639C146.237 275.803 146.28 275.969 146.38 276.101C151.216 282.147 165.235 286.486 184.586 281.733C194.556 279.283 217.314 270.073 235.602 262.671C248.057 257.632 260.918 252.426 263.228 252.099C263.31 252.534 263.202 253.232 263.098 253.91C262.825 255.689 262.412 258.378 265.439 259.135C268.957 260.014 269.675 260.995 269.105 264.14C268.392 268.06 306.493 342.663 314.716 354.997C314.774 355.084 314.853 355.156 314.945 355.205C315.037 355.255 315.14 355.281 315.245 355.281C315.371 355.28 315.494 355.243 315.599 355.174C315.668 355.128 315.728 355.068 315.775 354.999C315.821 354.93 315.853 354.852 315.87 354.77C315.886 354.688 315.886 354.603 315.87 354.521C315.853 354.439 315.821 354.361 315.775 354.292C307.063 341.223 270.137 268.093 270.352 264.355V264.355Z" fill="#5E1B15"/>
<path d="M129.372 140.648C123.749 143.724 116.535 150.939 116.535 150.939C106.032 155.819 96.3781 169.29 90.8605 184.154C85.3428 199.017 87.2538 229.35 90.225 243.989C93.1961 258.628 105.29 286.001 118.021 284.304C130.752 282.607 132.874 280.909 132.874 280.909L138.602 288.123C139.875 285.999 148.999 269.026 167.46 265.207C185.921 261.388 219.026 247.596 219.026 247.596C215.206 243.564 211.595 233.38 206.508 217.466C201.421 201.551 199.93 183.947 193.14 173.755C186.35 163.563 163.645 144.899 152.19 142.14C140.735 139.382 129.372 140.648 129.372 140.648Z" fill="#B33327"/>
<path d="M101.991 174.491C101.358 174.487 100.75 174.247 100.284 173.819C99.8176 173.39 99.528 172.803 99.4712 172.173C99.4144 171.542 99.5944 170.913 99.9763 170.408C100.358 169.904 100.914 169.559 101.536 169.442C101.735 169.404 102.28 169.093 102.691 168.363C103.102 167.634 103.464 166.301 102.721 164.329C102.603 164.016 102.548 163.683 102.558 163.349C102.569 163.015 102.646 162.686 102.783 162.381C102.921 162.076 103.118 161.802 103.362 161.573C103.606 161.344 103.892 161.166 104.205 161.048C104.518 160.93 104.851 160.875 105.185 160.885C105.519 160.896 105.848 160.972 106.153 161.11C106.458 161.248 106.732 161.445 106.961 161.689C107.19 161.932 107.368 162.219 107.486 162.532C108.607 165.506 108.48 168.465 107.125 170.866C106.053 172.768 104.31 174.107 102.465 174.448C102.309 174.477 102.15 174.491 101.991 174.491V174.491ZM121.725 174.491C121.092 174.487 120.483 174.247 120.017 173.819C119.551 173.39 119.261 172.803 119.205 172.173C119.148 171.542 119.328 170.913 119.71 170.408C120.091 169.904 120.648 169.559 121.27 169.442C121.468 169.404 122.013 169.093 122.422 168.363C122.832 167.634 123.197 166.301 122.454 164.329C122.336 164.016 122.281 163.683 122.292 163.349C122.302 163.015 122.379 162.686 122.517 162.381C122.655 162.076 122.851 161.802 123.095 161.573C123.339 161.344 123.625 161.166 123.938 161.048C124.251 160.93 124.584 160.875 124.919 160.885C125.253 160.896 125.582 160.972 125.886 161.11C126.191 161.248 126.466 161.445 126.694 161.689C126.923 161.932 127.102 162.219 127.22 162.532C128.34 165.506 128.213 168.465 126.859 170.866C125.786 172.768 124.044 174.107 122.198 174.448C122.042 174.477 121.883 174.491 121.725 174.491V174.491ZM179.651 174.491C179.807 174.491 179.964 174.477 180.118 174.448C181.964 174.107 183.706 172.768 184.779 170.866C185.721 169.198 186.054 167.255 185.802 165.229C184.475 163.903 183.053 162.553 181.556 161.199C181.013 161.489 180.594 161.966 180.376 162.542C180.159 163.118 180.158 163.753 180.374 164.329C181.117 166.301 180.767 167.611 180.344 168.363C179.921 169.116 179.388 169.404 179.19 169.442C178.568 169.559 178.011 169.904 177.63 170.408C177.248 170.913 177.068 171.542 177.125 172.173C177.181 172.803 177.471 173.39 177.937 173.819C178.403 174.247 179.012 174.487 179.645 174.491H179.651ZM192.382 194.224C192.538 194.224 192.695 194.21 192.849 194.182C194.695 193.839 196.437 192.5 197.51 190.599C198.203 189.354 198.583 187.958 198.617 186.533C198.042 184.587 197.425 182.725 196.744 180.961C196.29 180.699 195.766 180.584 195.244 180.631C194.722 180.679 194.228 180.887 193.829 181.227C193.43 181.567 193.146 182.022 193.016 182.53C192.886 183.037 192.917 183.573 193.104 184.063C193.847 186.034 193.498 187.345 193.073 188.097C192.662 188.825 192.118 189.137 191.919 189.174C191.295 189.289 190.737 189.633 190.354 190.139C189.97 190.644 189.789 191.274 189.846 191.906C189.903 192.538 190.194 193.126 190.661 193.555C191.129 193.983 191.74 194.222 192.374 194.224H192.382ZM160.554 194.861C159.92 194.859 159.309 194.62 158.842 194.192C158.374 193.763 158.083 193.175 158.026 192.543C157.969 191.911 158.15 191.281 158.534 190.776C158.917 190.27 159.476 189.926 160.099 189.811C160.298 189.774 160.841 189.462 161.252 188.734C161.677 187.976 162.027 186.67 161.284 184.7C161.166 184.387 161.111 184.054 161.121 183.719C161.132 183.385 161.209 183.056 161.346 182.751C161.484 182.447 161.681 182.172 161.925 181.943C162.169 181.715 162.455 181.536 162.768 181.418C163.081 181.3 163.414 181.245 163.748 181.256C164.083 181.266 164.411 181.343 164.716 181.481C165.021 181.618 165.295 181.815 165.524 182.059C165.753 182.303 165.931 182.589 166.049 182.902C167.17 185.876 167.041 188.835 165.688 191.235C164.616 193.137 162.873 194.476 161.028 194.819C160.872 194.847 160.713 194.862 160.554 194.861V194.861ZM128.09 194.861C127.456 194.859 126.845 194.62 126.377 194.192C125.91 193.763 125.619 193.175 125.562 192.543C125.505 191.911 125.686 191.281 126.07 190.776C126.453 190.27 127.011 189.926 127.635 189.811C127.834 189.774 128.378 189.462 128.788 188.734C129.213 187.976 129.563 186.67 128.82 184.7C128.679 184.383 128.605 184.04 128.602 183.694C128.598 183.347 128.666 183.003 128.8 182.684C128.934 182.364 129.132 182.075 129.382 181.835C129.631 181.594 129.927 181.407 130.252 181.285C130.576 181.163 130.922 181.109 131.269 181.125C131.615 181.141 131.954 181.228 132.266 181.38C132.577 181.533 132.854 181.747 133.08 182.01C133.306 182.273 133.476 182.579 133.579 182.91C134.7 185.884 134.572 188.843 133.218 191.242C132.146 193.144 130.403 194.484 128.557 194.826C128.403 194.852 128.247 194.864 128.09 194.861V194.861ZM100.719 194.383C100.085 194.381 99.4737 194.143 99.0061 193.714C98.5384 193.285 98.2477 192.697 98.1908 192.065C98.1339 191.434 98.3148 190.803 98.6983 190.298C99.0818 189.792 99.6401 189.448 100.264 189.333C100.463 189.297 101.006 188.984 101.417 188.256C101.841 187.498 102.192 186.193 101.448 184.222C101.21 183.59 101.233 182.889 101.511 182.274C101.789 181.658 102.301 181.179 102.933 180.94C103.564 180.702 104.265 180.725 104.881 181.003C105.496 181.281 105.975 181.793 106.214 182.425C107.335 185.399 107.206 188.358 105.853 190.766C104.781 192.667 103.038 194.006 101.191 194.349C101.035 194.375 100.877 194.386 100.719 194.383ZM172.489 217.299C171.854 217.299 171.241 217.061 170.772 216.632C170.303 216.204 170.011 215.615 169.954 214.982C169.897 214.349 170.079 213.718 170.464 213.212C170.849 212.707 171.409 212.363 172.034 212.25C172.233 212.212 172.776 211.901 173.187 211.171C173.598 210.442 173.962 209.109 173.217 207.137C173.094 206.823 173.034 206.488 173.042 206.15C173.049 205.813 173.123 205.481 173.26 205.172C173.397 204.864 173.594 204.586 173.84 204.354C174.085 204.123 174.374 203.942 174.689 203.823C175.005 203.704 175.341 203.649 175.678 203.662C176.016 203.674 176.347 203.753 176.653 203.894C176.96 204.035 177.235 204.236 177.463 204.484C177.691 204.733 177.868 205.024 177.982 205.341C179.103 208.314 178.976 211.275 177.623 213.674C176.549 215.576 174.807 216.915 172.961 217.256C172.805 217.285 172.647 217.299 172.489 217.299V217.299ZM140.662 217.936C140.027 217.934 139.417 217.695 138.949 217.266C138.481 216.837 138.191 216.25 138.134 215.618C138.077 214.986 138.258 214.356 138.641 213.85C139.025 213.345 139.583 213.001 140.207 212.885C140.407 212.849 140.95 212.536 141.361 211.808C141.786 211.05 142.135 209.746 141.391 207.774C141.153 207.142 141.176 206.441 141.454 205.826C141.732 205.211 142.244 204.731 142.875 204.493C143.507 204.254 144.208 204.277 144.823 204.555C145.439 204.834 145.918 205.345 146.157 205.977C147.278 208.951 147.15 211.91 145.796 214.318C144.724 216.219 142.981 217.558 141.135 217.901C140.979 217.927 140.82 217.939 140.662 217.936V217.936ZM108.198 217.936C107.563 217.934 106.952 217.695 106.485 217.266C106.017 216.837 105.726 216.25 105.669 215.618C105.613 214.986 105.794 214.356 106.177 213.85C106.56 213.345 107.119 213.001 107.743 212.885C107.943 212.849 108.486 212.536 108.897 211.808C109.321 211.05 109.67 209.746 108.927 207.774C108.689 207.142 108.711 206.441 108.99 205.826C109.268 205.211 109.779 204.731 110.411 204.493C111.043 204.254 111.744 204.277 112.359 204.555C112.975 204.834 113.454 205.345 113.693 205.977C114.813 208.951 114.686 211.91 113.333 214.318C112.259 216.219 110.517 217.558 108.671 217.901C108.515 217.927 108.356 217.939 108.198 217.936V217.936ZM188.085 242.444C187.451 242.442 186.84 242.203 186.372 241.774C185.904 241.345 185.614 240.757 185.557 240.126C185.5 239.494 185.681 238.863 186.064 238.358C186.448 237.853 187.006 237.508 187.63 237.393C187.829 237.357 188.373 237.044 188.784 236.316C189.209 235.558 189.558 234.252 188.815 232.28C188.691 231.966 188.632 231.631 188.639 231.294C188.646 230.956 188.721 230.624 188.858 230.316C188.995 230.007 189.192 229.729 189.437 229.498C189.682 229.266 189.971 229.086 190.287 228.967C190.603 228.848 190.939 228.793 191.276 228.805C191.613 228.817 191.944 228.896 192.251 229.037C192.557 229.178 192.832 229.379 193.061 229.627C193.289 229.876 193.465 230.167 193.58 230.485C194.701 233.457 194.573 236.418 193.219 238.817C192.147 240.719 190.404 242.058 188.558 242.4C188.402 242.429 188.244 242.444 188.085 242.444ZM156.258 243.079C155.625 243.075 155.016 242.835 154.55 242.407C154.084 241.978 153.794 241.392 153.738 240.761C153.681 240.131 153.861 239.502 154.243 238.997C154.624 238.492 155.181 238.147 155.803 238.03C156.001 237.992 156.544 237.681 156.955 236.952C157.366 236.222 157.73 234.889 156.987 232.917C156.864 232.603 156.804 232.268 156.812 231.931C156.819 231.593 156.893 231.261 157.03 230.953C157.167 230.644 157.364 230.366 157.61 230.135C157.855 229.903 158.144 229.723 158.46 229.604C158.775 229.485 159.111 229.43 159.449 229.442C159.786 229.454 160.117 229.533 160.424 229.674C160.73 229.815 161.005 230.016 161.233 230.264C161.462 230.513 161.638 230.804 161.753 231.122C162.873 234.094 162.745 237.055 161.392 239.454C160.319 241.356 158.577 242.695 156.731 243.037C156.575 243.065 156.416 243.079 156.258 243.079ZM123.794 243.079C123.16 243.075 122.552 242.835 122.086 242.407C121.62 241.978 121.33 241.392 121.273 240.761C121.216 240.131 121.397 239.502 121.778 238.997C122.16 238.492 122.716 238.147 123.339 238.03C123.537 237.992 124.082 237.681 124.491 236.952C124.901 236.222 125.266 234.889 124.523 232.917C124.4 232.603 124.34 232.268 124.347 231.931C124.355 231.593 124.429 231.261 124.566 230.953C124.703 230.644 124.9 230.366 125.145 230.135C125.391 229.903 125.68 229.723 125.995 229.604C126.311 229.485 126.647 229.43 126.984 229.442C127.322 229.454 127.653 229.533 127.959 229.674C128.266 229.815 128.541 230.016 128.769 230.264C128.997 230.513 129.174 230.804 129.288 231.122C130.409 234.094 130.282 237.055 128.927 239.454C127.855 241.356 126.112 242.695 124.267 243.037C124.111 243.065 123.952 243.079 123.794 243.079V243.079ZM96.4222 242.603C95.7878 242.601 95.177 242.362 94.7093 241.933C94.2417 241.505 93.951 240.917 93.8941 240.285C93.8371 239.653 94.0181 239.023 94.4016 238.517C94.7851 238.012 95.3434 237.668 95.9672 237.552C96.1659 237.514 96.7089 237.203 97.1199 236.475C97.5446 235.717 97.8949 234.411 97.1517 232.44C97.0284 232.126 96.9688 231.79 96.9762 231.453C96.9836 231.116 97.0579 230.783 97.1949 230.475C97.3319 230.167 97.5288 229.889 97.7741 229.657C98.0195 229.425 98.3084 229.245 98.6241 229.126C98.9398 229.007 99.276 228.952 99.6131 228.964C99.9503 228.976 100.282 229.055 100.588 229.196C100.894 229.338 101.17 229.538 101.398 229.787C101.626 230.035 101.803 230.327 101.917 230.644C103.038 233.617 102.909 236.577 101.556 238.976C100.484 240.878 98.7412 242.218 96.8939 242.559C96.7384 242.588 96.5805 242.603 96.4222 242.603V242.603ZM207.386 252.222C209.732 251.312 211.83 250.489 213.576 249.795C213.599 248.363 213.345 246.939 212.829 245.603C212.715 245.285 212.538 244.994 212.31 244.746C212.082 244.497 211.807 244.296 211.5 244.155C211.194 244.014 210.863 243.935 210.525 243.923C210.188 243.911 209.852 243.966 209.536 244.085C209.221 244.204 208.932 244.384 208.686 244.616C208.441 244.847 208.244 245.125 208.107 245.434C207.97 245.742 207.896 246.075 207.888 246.412C207.881 246.749 207.941 247.084 208.064 247.399C208.807 249.37 208.458 250.681 208.034 251.434C207.868 251.734 207.648 252.001 207.386 252.222V252.222ZM177.544 262.609C177.438 261.637 177.209 260.681 176.865 259.765C176.747 259.453 176.568 259.166 176.339 258.922C176.111 258.678 175.836 258.482 175.531 258.344C174.916 258.065 174.215 258.043 173.583 258.281C172.951 258.52 172.44 258.999 172.162 259.615C171.883 260.23 171.861 260.931 172.099 261.563C172.413 262.337 172.557 263.17 172.522 264.004C174.139 263.584 175.821 263.114 177.544 262.609V262.609ZM138.912 271.724C138.277 271.722 137.666 271.484 137.199 271.055C136.731 270.626 136.44 270.038 136.383 269.406C136.327 268.774 136.508 268.144 136.891 267.639C137.274 267.133 137.833 266.789 138.457 266.674C138.655 266.637 139.2 266.325 139.609 265.597C140.034 264.839 140.384 263.534 139.641 261.563C139.403 260.931 139.425 260.23 139.704 259.615C139.982 258.999 140.493 258.52 141.125 258.281C141.757 258.043 142.458 258.065 143.073 258.344C143.689 258.622 144.168 259.133 144.407 259.765C145.527 262.74 145.4 265.699 144.046 268.107C142.973 270.007 141.231 271.347 139.385 271.689C139.229 271.716 139.07 271.727 138.912 271.724ZM111.54 271.247C110.907 271.243 110.298 271.003 109.833 270.574C109.367 270.146 109.077 269.559 109.02 268.929C108.963 268.298 109.143 267.669 109.525 267.164C109.907 266.659 110.463 266.315 111.085 266.198C111.284 266.16 111.827 265.849 112.238 265.119C112.663 264.361 113.013 263.057 112.27 261.085C112.147 260.771 112.087 260.435 112.094 260.098C112.102 259.761 112.176 259.428 112.313 259.12C112.45 258.812 112.647 258.534 112.892 258.302C113.138 258.071 113.427 257.89 113.742 257.771C114.058 257.652 114.394 257.597 114.731 257.609C115.068 257.621 115.4 257.7 115.706 257.842C116.013 257.983 116.288 258.183 116.516 258.432C116.744 258.681 116.921 258.972 117.035 259.289C118.156 262.262 118.027 265.221 116.674 267.622C115.602 269.524 113.859 270.863 112.012 271.204C111.856 271.233 111.699 271.247 111.54 271.247V271.247Z" fill="#CF5A4F"/>
<path d="M113.92 152.34C113.949 152.391 113.97 152.446 114.002 152.492C117.962 158.698 139.294 189.673 170.382 190.082H170.423C171.052 190.082 171.666 189.895 172.189 189.547C173.023 188.992 174.758 187.834 174.098 175.078C173.683 167.258 172.384 159.51 170.226 151.982C163.566 147.129 156.911 143.269 152.178 142.124C140.718 139.382 129.372 140.648 129.372 140.648C123.749 143.724 116.535 150.939 116.535 150.939C115.638 151.358 114.766 151.826 113.92 152.34V152.34Z" fill="#82251D"/>
<path d="M170.423 186.903C171.03 186.497 172.621 168.855 165.97 149.028C160.814 145.609 155.898 143.029 152.176 142.133C140.718 139.382 129.372 140.648 129.372 140.648C124.23 143.462 117.759 149.733 116.691 150.784C119.665 155.458 140.595 186.512 170.423 186.903Z" fill="#FFEDCC"/>
<path d="M119.977 114.66C118.227 106.226 115.521 92.8579 123.162 87.1294C130.803 81.401 140.19 85.0607 142.737 83.7928C145.283 82.5248 160.879 82.8388 156.741 98.9109C152.604 114.983 128.733 121.661 128.733 121.661L119.977 114.66Z" fill="#F0EAE6"/>
<path d="M135.308 92.588C135.202 93.862 133.503 93.9682 132.868 94.4975C132.232 95.0268 134.246 100.227 132.974 102.666C131.701 105.105 129.472 105.213 129.049 106.805C128.626 108.398 130.534 112.114 130.321 114.019C130.109 115.923 127.456 116.353 127.248 115.822C125.87 112.534 123.111 110.624 119.929 113.383C116.747 116.142 119.717 126.856 126.93 124.946C131.386 134.07 128.522 141.073 129.053 142.982C129.584 144.892 130.64 148.074 137.107 150.302C143.574 152.53 145.7 149.666 147.822 151.47C149.944 153.273 152.703 157.941 153.869 156.667C155.035 155.393 154.4 150.726 153.444 146.801C152.489 142.876 152.913 135.555 152.913 135.555C156.415 134.92 159.068 132.692 159.597 128.448C160.127 124.204 157.474 108.29 157.369 103.091C157.265 97.8918 155.991 94.5976 155.991 94.5976C154.506 93.8559 149.944 91.4126 149.944 91.4126C148.993 93.5435 138.065 93.5435 135.308 92.588Z" fill="#A6563E"/>
<path d="M144.922 124.518C146.513 121.94 149.935 119.864 152.163 120.222C152.817 120.329 153.441 120.576 153.991 120.947C154.541 121.318 155.003 121.804 155.348 122.371C155.348 122.371 153.199 126.111 153.199 126.229C151.327 127.703 147.628 127.386 144.922 124.518Z" fill="#873C25"/>
<path d="M142.216 112.109C142.942 112.109 143.53 110.969 143.53 109.562C143.53 108.156 142.942 107.016 142.216 107.016C141.491 107.016 140.903 108.156 140.903 109.562C140.903 110.969 141.491 112.109 142.216 112.109Z" fill="#2E0B06"/>
<path d="M154.1 111.737C154.825 111.737 155.413 110.597 155.413 109.191C155.413 107.784 154.825 106.644 154.1 106.644C153.374 106.644 152.786 107.784 152.786 109.191C152.786 110.597 153.374 111.737 154.1 111.737Z" fill="#2E0B06"/>
<path d="M142.235 113.466C141.684 113.466 140.038 113.29 139.559 111.226C139.549 111.185 139.547 111.143 139.554 111.102C139.56 111.06 139.575 111.021 139.596 110.985C139.618 110.949 139.647 110.918 139.681 110.893C139.714 110.868 139.753 110.85 139.794 110.84C139.834 110.83 139.877 110.828 139.918 110.835C139.959 110.841 139.999 110.856 140.035 110.877C140.071 110.899 140.102 110.928 140.127 110.962C140.152 110.995 140.17 111.034 140.18 111.075C140.635 113.002 142.268 112.829 142.338 112.82C142.421 112.811 142.505 112.835 142.571 112.887C142.637 112.939 142.679 113.015 142.689 113.099C142.699 113.182 142.676 113.266 142.624 113.333C142.573 113.399 142.497 113.442 142.414 113.453C142.414 113.453 142.344 113.466 142.235 113.466V113.466Z" fill="#2E0B06"/>
<g style="mix-blend-mode:multiply">
<path d="M135.294 110.597C135.228 110.597 135.162 110.576 135.108 110.538C135.039 110.488 134.993 110.413 134.98 110.329C134.967 110.246 134.987 110.16 135.037 110.092C135.61 109.3 137.207 108.613 138.601 109.449C138.671 109.493 138.72 109.563 138.739 109.644C138.758 109.725 138.745 109.81 138.702 109.881C138.66 109.952 138.591 110.004 138.511 110.025C138.431 110.046 138.345 110.035 138.273 109.995C137.243 109.377 135.998 109.852 135.552 110.465C135.523 110.506 135.484 110.539 135.439 110.562C135.394 110.585 135.345 110.597 135.294 110.597V110.597Z" fill="#EBBEB0"/>
</g>
<g style="mix-blend-mode:multiply">
<path d="M136.765 111.549C136.73 111.55 136.695 111.544 136.662 111.533C136.583 111.506 136.518 111.449 136.481 111.374C136.444 111.299 136.438 111.213 136.464 111.134C136.603 110.718 137.211 109.97 138.513 110.122C138.596 110.132 138.673 110.174 138.726 110.24C138.778 110.306 138.803 110.39 138.793 110.474C138.783 110.557 138.74 110.634 138.675 110.686C138.609 110.738 138.525 110.763 138.441 110.754C137.355 110.63 137.093 111.266 137.067 111.338C137.044 111.4 137.003 111.453 136.949 111.491C136.895 111.529 136.831 111.549 136.765 111.549V111.549Z" fill="#EBBEB0"/>
</g>
<path d="M147.945 118.907C147.878 118.907 147.812 118.885 147.758 118.845C147.725 118.82 147.696 118.789 147.674 118.753C147.652 118.718 147.638 118.678 147.631 118.637C147.625 118.596 147.626 118.553 147.636 118.513C147.646 118.472 147.664 118.434 147.689 118.4C148.502 117.288 149.368 117.122 149.944 117.187C150.79 117.272 151.505 117.889 151.696 118.302C151.715 118.34 151.727 118.381 151.73 118.424C151.733 118.467 151.727 118.51 151.713 118.55C151.699 118.591 151.677 118.628 151.648 118.66C151.619 118.692 151.584 118.717 151.545 118.735C151.507 118.753 151.464 118.763 151.422 118.765C151.379 118.766 151.336 118.758 151.296 118.743C151.256 118.727 151.22 118.704 151.189 118.674C151.159 118.644 151.134 118.608 151.118 118.568C151.031 118.382 150.538 117.886 149.88 117.821C149.274 117.757 148.712 118.085 148.203 118.782C148.172 118.822 148.133 118.854 148.089 118.875C148.044 118.897 147.995 118.908 147.945 118.907Z" fill="#2E0B06"/>
<g style="mix-blend-mode:multiply">
<path d="M146.358 119.513C145.63 119.513 145.107 119.175 144.88 118.553C144.375 117.178 145.464 114.797 146.707 113.812C146.774 113.761 146.857 113.738 146.94 113.748C147.023 113.759 147.099 113.801 147.151 113.867C147.203 113.932 147.227 114.016 147.218 114.099C147.209 114.182 147.168 114.258 147.103 114.311C145.956 115.221 145.106 117.323 145.477 118.335C145.617 118.716 145.925 118.89 146.418 118.876C146.459 118.873 146.502 118.878 146.542 118.892C146.581 118.905 146.618 118.927 146.649 118.956C146.68 118.984 146.705 119.019 146.721 119.057C146.738 119.096 146.747 119.138 146.747 119.18C146.749 119.263 146.719 119.345 146.662 119.406C146.605 119.468 146.527 119.504 146.443 119.509L146.358 119.513Z" fill="#EBBEB0"/>
</g>
<path d="M153.952 118.992C153.873 118.991 153.796 118.961 153.738 118.907C153.679 118.852 153.644 118.778 153.637 118.699C153.631 118.62 153.654 118.541 153.703 118.478C153.752 118.415 153.822 118.373 153.901 118.359C154.938 118.186 155.7 117.355 156.067 116.635C156.37 116.028 156.403 115.534 156.294 115.315C156.091 114.909 155.158 114.079 154.256 113.275C153.353 112.471 152.46 111.677 151.952 111.034C150.89 109.693 150.945 107.332 151.13 105.199C151.141 105.118 151.182 105.044 151.246 104.993C151.31 104.941 151.391 104.917 151.473 104.924C151.555 104.931 151.63 104.969 151.685 105.03C151.739 105.092 151.767 105.172 151.764 105.254C151.589 107.263 151.535 109.473 152.452 110.639C152.926 111.246 153.817 112.032 154.68 112.801C155.713 113.72 156.605 114.514 156.863 115.03C157.092 115.485 157.005 116.193 156.634 116.923C156.197 117.783 155.269 118.776 154.006 118.987L153.952 118.992Z" fill="#2E0B06"/>
<path d="M156.34 119.19C156.314 119.19 156.288 119.187 156.262 119.181C156.181 119.16 156.111 119.108 156.068 119.036C156.024 118.964 156.012 118.878 156.032 118.796C156.08 118.604 156.083 118.403 156.041 118.209C155.999 118.016 155.913 117.834 155.789 117.68C155.72 117.641 155.669 117.578 155.643 117.503C155.618 117.429 155.622 117.347 155.653 117.275C155.685 117.203 155.742 117.145 155.814 117.112C155.886 117.08 155.967 117.075 156.042 117.099C156.335 117.196 156.881 118.018 156.649 118.949C156.632 119.018 156.592 119.08 156.536 119.123C156.48 119.167 156.411 119.191 156.34 119.19V119.19Z" fill="#2E0B06"/>
<g style="mix-blend-mode:multiply">
<path d="M145.996 104.271C145.915 104.273 145.836 104.244 145.776 104.19C145.715 104.136 145.678 104.061 145.671 103.98C145.665 103.899 145.689 103.819 145.74 103.755C145.791 103.692 145.864 103.651 145.944 103.64C146.017 103.477 146.045 103.298 146.025 103.121C146.002 102.363 145.556 100.955 144.42 100.156C144.384 100.133 144.354 100.102 144.33 100.067C144.306 100.031 144.29 99.9913 144.282 99.9493C144.274 99.9074 144.275 99.8642 144.284 99.8225C144.293 99.7808 144.31 99.7413 144.335 99.7064C144.359 99.6715 144.391 99.6419 144.427 99.6194C144.463 99.5969 144.504 99.5819 144.546 99.5753C144.588 99.5688 144.631 99.5707 144.673 99.5811C144.714 99.5915 144.753 99.6102 144.787 99.6359C146.249 100.666 146.838 102.656 146.616 103.628C146.504 104.121 146.213 104.234 146.049 104.268C146.031 104.27 146.014 104.271 145.996 104.271V104.271Z" fill="#EBBEB0"/>
</g>
<path d="M137.682 100.731C139.988 98.8866 143.648 100.1 144.604 101.606C145.559 103.112 145.131 103.881 142.535 103.954C137.324 104.105 136.527 107.016 135.89 106.54C135.253 106.063 134.897 102.959 137.682 100.731ZM157.374 103.091C157.351 101.975 157.274 100.951 157.166 100.024C155.141 99.6965 152.954 100.646 152.248 101.765C151.292 103.282 151.72 104.04 154.316 104.113C155.383 104.126 156.442 104.305 157.454 104.642C157.412 104.058 157.383 103.534 157.374 103.091V103.091Z" fill="#F0EAE6"/>
<g style="mix-blend-mode:multiply">
<path d="M142.336 126.273C142.273 126.273 142.212 126.254 142.16 126.219C142.108 126.185 142.067 126.135 142.042 126.077C141.597 124.854 141.477 123.536 141.694 122.253C141.911 120.969 142.457 119.764 143.28 118.755C143.332 118.689 143.408 118.646 143.492 118.636C143.576 118.626 143.661 118.65 143.727 118.702C143.793 118.754 143.836 118.831 143.846 118.915C143.856 118.999 143.832 119.083 143.78 119.149C143.029 120.068 142.529 121.165 142.327 122.335C142.125 123.504 142.229 124.705 142.629 125.823C142.662 125.9 142.662 125.988 142.63 126.066C142.599 126.145 142.537 126.207 142.459 126.24C142.421 126.259 142.379 126.27 142.336 126.273V126.273ZM147.117 130.888C147.036 130.889 146.958 130.859 146.9 130.803C146.869 130.775 146.843 130.74 146.825 130.702C146.807 130.663 146.797 130.622 146.796 130.579C146.794 130.537 146.801 130.495 146.816 130.455C146.831 130.415 146.854 130.379 146.883 130.348C148.552 128.562 151.357 127.922 153.147 128.243C154.069 128.404 154.715 128.818 154.967 129.407C154.997 129.484 154.996 129.569 154.964 129.646C154.932 129.722 154.872 129.783 154.796 129.815C154.719 129.848 154.634 129.849 154.557 129.82C154.479 129.79 154.417 129.732 154.382 129.657C154.216 129.273 153.739 128.994 153.036 128.871C151.385 128.58 148.808 129.218 147.347 130.784C147.318 130.816 147.283 130.842 147.243 130.86C147.203 130.878 147.16 130.888 147.117 130.888V130.888Z" fill="#EBBEB0"/>
</g>
<path d="M143.967 125.277C143.894 125.277 143.823 125.253 143.767 125.208C143.71 125.163 143.67 125.1 143.654 125.029C143.638 124.958 143.646 124.884 143.678 124.819C143.71 124.753 143.763 124.701 143.829 124.67C144.983 124.115 149.146 123.608 149.656 123.608C149.74 123.608 149.821 123.642 149.881 123.702C149.941 123.761 149.974 123.842 149.974 123.927C149.974 124.011 149.941 124.092 149.881 124.152C149.821 124.212 149.74 124.245 149.656 124.245C149.19 124.245 145.133 124.753 144.105 125.248C144.061 125.268 144.014 125.278 143.967 125.277V125.277Z" fill="#2E0B06"/>
<path d="M130.453 119.111C130.373 119.11 130.296 119.078 130.238 119.023C130.18 118.967 130.145 118.892 130.141 118.812C130.136 118.732 130.162 118.653 130.212 118.591C130.263 118.529 130.336 118.488 130.415 118.477C132.476 118.224 132.701 116.85 132.72 116.435C132.751 115.828 132.51 115.488 132.431 115.471C132.358 115.5 132.225 115.763 132.135 115.937C131.791 116.61 131.216 117.737 129.475 118.045C129.394 118.055 129.312 118.034 129.247 117.985C129.181 117.937 129.137 117.865 129.123 117.784C129.108 117.704 129.125 117.622 129.17 117.554C129.215 117.485 129.285 117.437 129.364 117.419C130.793 117.166 131.242 116.287 131.568 115.647C131.786 115.221 132.033 114.737 132.561 114.848C133.048 114.948 133.391 115.635 133.359 116.447C133.312 117.569 132.535 118.858 130.492 119.108L130.453 119.111Z" fill="#F0EAE6"/>
<g style="mix-blend-mode:multiply">
<path d="M126.607 122.484C124.946 122.484 124.217 121.656 123.919 121.119C123.376 120.153 123.487 118.796 124.18 117.893C124.357 117.645 124.589 117.441 124.858 117.296C125.127 117.151 125.425 117.07 125.73 117.059C125.295 116.163 124.305 115.239 123.32 115.104C122.635 115.012 122.075 115.332 121.652 116.054C121.607 116.122 121.538 116.17 121.459 116.189C121.38 116.208 121.296 116.196 121.226 116.155C121.155 116.114 121.103 116.048 121.08 115.97C121.057 115.892 121.065 115.808 121.101 115.735C121.644 114.795 122.466 114.349 123.399 114.473C124.835 114.666 126.193 116.142 126.511 117.355C126.525 117.408 126.525 117.464 126.511 117.517C126.497 117.57 126.469 117.619 126.431 117.658C126.392 117.697 126.344 117.726 126.29 117.74C126.237 117.755 126.181 117.755 126.128 117.742C125.86 117.673 125.578 117.689 125.319 117.785C125.06 117.882 124.838 118.056 124.681 118.283C124.144 118.981 124.054 120.067 124.47 120.808C124.914 121.603 125.835 121.949 127.127 121.812C127.17 121.805 127.214 121.807 127.256 121.818C127.298 121.828 127.337 121.847 127.372 121.874C127.406 121.9 127.435 121.933 127.456 121.971C127.477 122.009 127.491 122.05 127.495 122.093C127.5 122.136 127.496 122.18 127.483 122.221C127.47 122.263 127.449 122.301 127.42 122.334C127.392 122.367 127.357 122.394 127.319 122.413C127.28 122.432 127.237 122.443 127.194 122.445C126.999 122.469 126.803 122.482 126.607 122.484V122.484ZM139.471 137.196C138.825 137.195 138.184 137.084 137.575 136.867C133.744 135.522 131.137 130.468 129.625 126.464C129.597 126.385 129.601 126.299 129.636 126.223C129.671 126.147 129.734 126.088 129.813 126.059C129.891 126.029 129.978 126.032 130.054 126.066C130.13 126.099 130.19 126.162 130.221 126.24C132.291 131.719 134.983 135.287 137.786 136.266C139.327 136.808 140.938 136.592 142.571 135.626C142.607 135.603 142.648 135.587 142.69 135.58C142.732 135.572 142.775 135.574 142.817 135.583C142.859 135.593 142.898 135.611 142.933 135.637C142.968 135.662 142.997 135.694 143.019 135.731C143.04 135.768 143.055 135.809 143.06 135.851C143.066 135.894 143.063 135.937 143.052 135.979C143.04 136.02 143.02 136.059 142.994 136.092C142.967 136.126 142.934 136.153 142.896 136.174C141.745 136.855 140.595 137.196 139.471 137.196V137.196ZM149.458 136.415C148.459 136.415 147.438 136.277 146.904 135.825C146.872 135.798 146.846 135.765 146.827 135.728C146.808 135.691 146.796 135.65 146.792 135.608C146.789 135.567 146.794 135.525 146.806 135.485C146.819 135.445 146.84 135.408 146.867 135.376C146.893 135.344 146.927 135.318 146.964 135.299C147.001 135.279 147.041 135.268 147.083 135.264C147.125 135.261 147.167 135.265 147.207 135.278C147.247 135.291 147.283 135.311 147.315 135.338C148.225 136.11 151.506 135.661 151.846 135.525C151.924 135.493 152.012 135.494 152.089 135.528C152.167 135.561 152.228 135.624 152.26 135.702C152.291 135.781 152.29 135.868 152.257 135.946C152.224 136.024 152.161 136.085 152.082 136.116C151.841 136.213 150.666 136.415 149.458 136.415ZM136.449 147.438C136.402 147.438 136.356 147.428 136.314 147.408C136.272 147.388 136.234 147.36 136.204 147.324C136.176 147.292 136.154 147.255 136.141 147.215C136.127 147.174 136.122 147.131 136.126 147.089C136.129 147.046 136.142 147.005 136.162 146.967C136.182 146.929 136.209 146.896 136.242 146.869C137.204 146.055 138.625 141.332 137.271 138.249C137.251 138.21 137.24 138.168 137.238 138.125C137.235 138.082 137.242 138.039 137.256 137.998C137.271 137.958 137.294 137.921 137.323 137.889C137.353 137.858 137.388 137.833 137.427 137.815C137.467 137.798 137.509 137.789 137.553 137.788C137.596 137.788 137.638 137.796 137.678 137.813C137.718 137.829 137.754 137.854 137.784 137.885C137.814 137.915 137.837 137.952 137.853 137.992C139.37 141.444 137.776 146.405 136.653 147.355C136.597 147.406 136.525 147.436 136.449 147.438V147.438ZM146.155 147.597C146.109 147.597 146.063 147.587 146.022 147.568C145.98 147.549 145.942 147.52 145.913 147.485C144.702 145.924 144.083 143.985 144.167 142.011C144.168 141.969 144.178 141.928 144.195 141.89C144.213 141.851 144.238 141.817 144.269 141.789C144.3 141.76 144.337 141.739 144.377 141.725C144.416 141.711 144.458 141.705 144.501 141.708C144.542 141.71 144.584 141.72 144.622 141.738C144.66 141.755 144.694 141.781 144.722 141.812C144.75 141.843 144.772 141.879 144.786 141.918C144.8 141.958 144.806 142 144.804 142.042C144.736 143.853 145.3 145.63 146.399 147.071C146.439 147.117 146.464 147.174 146.472 147.234C146.48 147.294 146.471 147.356 146.446 147.411C146.42 147.466 146.379 147.513 146.328 147.546C146.277 147.578 146.218 147.596 146.157 147.596L146.155 147.597Z" fill="#EBBEB0"/>
</g>
<path d="M152.64 121.499C149.856 122.453 149.455 125.675 152.601 126.59L161.035 126.948C163.023 126.073 162.785 122.651 161.187 122.016C157.334 121.658 152.64 121.499 152.64 121.499V121.499Z" fill="#572A18"/>
<path d="M161.194 122.016C158.687 122.334 158.091 125.959 161.043 126.948C163.023 126.073 162.785 122.651 161.194 122.016Z" fill="#380F0F"/>
<path d="M123.002 181.334C122.869 181.336 122.739 181.296 122.63 181.22C122.522 181.144 122.439 181.036 122.395 180.911C122.161 180.257 116.503 164.933 101.489 168.27C101.325 168.306 101.152 168.276 101.01 168.185C100.867 168.095 100.767 167.951 100.73 167.787C100.694 167.622 100.724 167.449 100.815 167.307C100.905 167.165 101.049 167.064 101.213 167.027C117.325 163.445 123.533 180.313 123.595 180.485C123.623 180.564 123.635 180.647 123.63 180.73C123.626 180.814 123.605 180.895 123.569 180.971C123.534 181.046 123.483 181.114 123.421 181.169C123.359 181.225 123.287 181.268 123.208 181.296C123.142 181.321 123.072 181.333 123.002 181.334V181.334ZM119.183 250.553H119.155C119.072 250.55 118.99 250.53 118.915 250.495C118.839 250.46 118.771 250.41 118.715 250.349C118.659 250.287 118.615 250.215 118.586 250.137C118.558 250.059 118.545 249.975 118.549 249.892C118.691 246.379 123.962 242.106 125.759 241.264C126.167 241.073 126.686 240.894 127.086 241.2C127.202 241.293 127.291 241.416 127.341 241.556C127.391 241.695 127.401 241.846 127.37 241.992C127.237 242.547 127.062 243.091 126.848 243.621C127.188 242.915 127.606 242.365 128.163 242.118C128.4 242.017 128.656 241.97 128.913 241.982C129.17 241.994 129.421 242.063 129.648 242.184C132.613 243.622 132.479 247.854 132.472 248.034C132.46 248.2 132.385 248.356 132.263 248.469C132.14 248.582 131.979 248.643 131.812 248.641C131.645 248.633 131.487 248.559 131.374 248.435C131.26 248.312 131.2 248.149 131.205 247.981C131.205 247.945 131.312 244.4 129.097 243.326C128.848 243.207 128.733 243.257 128.685 243.279C128.049 243.562 127.518 245.36 127.133 246.674C126.587 248.524 126.156 249.988 125.093 250.147C124.923 250.179 124.748 250.164 124.585 250.105C124.423 250.046 124.279 249.944 124.17 249.81C123.546 249.038 124.086 247.346 125.383 243.932C125.556 243.477 125.723 243.031 125.856 242.655C124.027 243.772 119.941 247.317 119.833 249.935C119.829 250.103 119.758 250.263 119.636 250.379C119.514 250.495 119.351 250.557 119.183 250.553V250.553ZM115.931 281.797H115.661C113.338 281.677 111.034 279.977 109.93 277.571C109.866 277.419 109.865 277.248 109.925 277.094C109.985 276.941 110.102 276.817 110.252 276.748C110.402 276.679 110.573 276.671 110.729 276.726C110.884 276.78 111.013 276.893 111.087 277.04C111.997 279.03 113.864 280.43 115.726 280.529C117.443 280.618 118.975 279.619 120.144 277.624C120.187 277.552 120.243 277.489 120.31 277.439C120.377 277.388 120.453 277.352 120.534 277.331C120.615 277.31 120.699 277.305 120.782 277.317C120.865 277.328 120.944 277.356 121.016 277.398C121.089 277.441 121.152 277.497 121.202 277.564C121.252 277.631 121.289 277.707 121.31 277.788C121.331 277.869 121.336 277.953 121.324 278.036C121.313 278.119 121.285 278.198 121.242 278.27C119.894 280.544 118.016 281.797 115.931 281.797V281.797ZM187.823 202.393C187.659 202.393 187.501 202.33 187.383 202.217C187.265 202.104 187.194 201.95 187.187 201.786C187.187 201.706 186.673 193.633 179.818 178.677C179.754 178.525 179.753 178.354 179.813 178.2C179.873 178.047 179.99 177.922 180.14 177.854C180.29 177.785 180.461 177.777 180.617 177.831C180.772 177.886 180.901 177.999 180.975 178.146C187.951 193.36 188.44 201.385 188.458 201.718C188.463 201.802 188.45 201.886 188.422 201.965C188.394 202.044 188.351 202.117 188.294 202.179C188.238 202.241 188.17 202.292 188.094 202.327C188.018 202.363 187.935 202.383 187.851 202.387L187.823 202.393Z" fill="#82251D"/>
<path d="M225.791 235.76L209.347 215.549L221.6 147.597L238.044 167.807L225.791 235.76Z" fill="#6773A6"/>
<path d="M208.512 155.819L202.888 179.478L232.805 171.203L236.731 167.648L208.512 155.819V155.819Z" fill="#EBD8B7"/>
<path d="M234.715 167.171L200.872 159.426C200.872 159.426 193.022 163.245 190.9 167.701L236.148 167.807L235.352 166.853L234.715 167.171Z" fill="#FFEDCC"/>
<path d="M226.122 235.76H176.63L188.884 167.807H238.376L226.122 235.76Z" fill="#8B9BE0"/>
<path d="M172.732 215.549C173.607 210.615 175.278 206.399 177.904 203.296C180.529 200.192 180.37 197.725 179.733 193.428C179.096 189.131 184.434 190.724 184.747 196.85C185.059 202.976 185.701 202.897 189.52 200.112C193.339 197.327 199.307 193.269 201.615 193.668C203.924 194.067 201.137 197.406 199.307 198.6C197.476 199.794 191.35 205.523 195.409 204.648C199.468 203.773 205.832 197.487 208.06 198.68C210.288 199.874 206.391 203.772 206.391 203.772C208.22 205.364 203.685 211.411 201.139 213.958C198.593 216.504 201.855 214.833 204.242 212.923C206.629 211.014 207.902 211.809 206.867 213.718C205.833 215.628 198.752 224.142 194.137 225.574C189.521 227.006 178.859 230.508 178.859 230.508C178.859 230.508 174.086 225.255 173.854 225.098C173.622 224.94 171.22 217.14 172.732 215.549V215.549Z" fill="#A6563E"/>
<path d="M169.071 217.22C172.732 215.552 172.333 215.23 172.732 215.552C177.107 221.121 179.654 228.76 179.654 230.272C179.654 231.784 176.551 233.457 176.551 233.457C176.551 233.457 172.573 220.164 169.071 217.22V217.22Z" fill="#FFEDCC"/>
<path d="M136.045 279.045C135.894 279.045 135.748 278.991 135.633 278.893C135.519 278.795 135.442 278.659 135.418 278.51C135.394 278.362 135.423 278.209 135.501 278.08C135.579 277.95 135.7 277.853 135.843 277.805C145.429 274.609 174.67 245.651 176.293 233.768C175.779 232.434 171.876 222.417 168.582 217.728C165.79 218.708 161.501 221.75 156.575 225.246C148.467 230.997 138.375 238.157 127.81 241.615C127.725 241.643 127.636 241.653 127.548 241.644C127.46 241.635 127.375 241.608 127.298 241.564C127.221 241.52 127.153 241.461 127.101 241.39C127.048 241.319 127.01 241.238 126.991 241.151C126.768 240.172 121.576 217.014 123.806 204.93C123.821 204.848 123.852 204.77 123.897 204.7C123.943 204.63 124.002 204.569 124.07 204.522C124.139 204.474 124.217 204.441 124.298 204.423C124.38 204.406 124.464 204.405 124.546 204.42C124.629 204.435 124.707 204.466 124.777 204.512C124.847 204.557 124.908 204.616 124.955 204.685C125.002 204.753 125.036 204.831 125.053 204.913C125.071 204.994 125.072 205.079 125.057 205.161C123.085 215.85 127.229 236.187 128.09 240.182C138.235 236.703 147.981 229.787 155.845 224.207C161.34 220.309 165.679 217.23 168.659 216.369C168.784 216.333 168.917 216.336 169.039 216.377C169.162 216.419 169.269 216.497 169.347 216.601C173.017 221.548 177.364 232.981 177.547 233.465C177.584 233.561 177.596 233.666 177.584 233.768C176.108 246.222 146.34 275.651 136.254 279.015C136.187 279.037 136.116 279.047 136.045 279.045V279.045Z" fill="#82251D"/>
<g style="mix-blend-mode:multiply">
<path d="M196.682 211.889C196.612 211.887 196.545 211.863 196.49 211.82C196.436 211.777 196.397 211.717 196.38 211.649C196.363 211.582 196.368 211.511 196.395 211.447C196.422 211.383 196.47 211.329 196.53 211.294C196.586 211.261 202.302 207.941 204.934 203.84C204.955 203.802 204.983 203.769 205.018 203.742C205.052 203.715 205.092 203.696 205.134 203.686C205.176 203.675 205.22 203.673 205.263 203.68C205.306 203.687 205.347 203.703 205.384 203.726C205.421 203.75 205.452 203.78 205.477 203.816C205.501 203.852 205.517 203.893 205.525 203.936C205.533 203.979 205.533 204.023 205.523 204.065C205.513 204.108 205.495 204.148 205.469 204.183C202.754 208.417 197.086 211.708 196.847 211.846C196.797 211.875 196.739 211.89 196.682 211.889V211.889Z" fill="#EBBEB0"/>
</g>
<path d="M145.145 167.877C143.442 167.877 134.278 164.003 123.319 151.466C123.291 151.435 123.27 151.399 123.257 151.359C123.243 151.32 123.238 151.278 123.241 151.236C123.243 151.195 123.254 151.154 123.273 151.116C123.291 151.079 123.317 151.046 123.348 151.018C123.38 150.991 123.416 150.97 123.456 150.956C123.495 150.943 123.537 150.937 123.578 150.94C123.62 150.943 123.661 150.954 123.698 150.972C123.736 150.991 123.769 151.016 123.796 151.048C134.68 163.497 143.78 167.246 145.093 167.246H145.101C145.144 166.835 145.063 165.23 144.983 163.674C144.705 158.152 144.56 153.512 145.589 152.677C145.678 152.604 145.782 152.553 145.894 152.53C146.006 152.506 146.122 152.51 146.233 152.54C147.083 152.771 147.684 153.57 148.379 154.495C149.559 156.066 150.895 157.842 153.933 157.703C153.975 157.699 154.017 157.704 154.058 157.717C154.098 157.731 154.135 157.752 154.166 157.781C154.197 157.809 154.222 157.844 154.239 157.883C154.256 157.922 154.265 157.964 154.265 158.006C154.267 158.048 154.261 158.09 154.246 158.129C154.232 158.169 154.211 158.205 154.182 158.236C154.154 158.267 154.12 158.292 154.082 158.31C154.044 158.328 154.003 158.338 153.961 158.34C150.605 158.492 149.088 156.491 147.875 154.877C147.25 154.046 146.71 153.327 146.072 153.156C146.059 153.15 146.044 153.149 146.03 153.152C146.016 153.155 146.004 153.162 145.994 153.173C145.125 153.873 145.445 160.228 145.618 163.638C145.77 166.613 145.788 167.396 145.627 167.654C145.582 167.72 145.52 167.775 145.449 167.812C145.377 167.85 145.297 167.869 145.216 167.869L145.145 167.877ZM164.545 161.543C163.512 161.543 162.118 159.318 159.96 155.654C158.883 153.834 157.419 151.354 156.883 151.13C156.845 151.232 156.823 151.339 156.816 151.448C156.807 151.532 156.765 151.609 156.7 151.662C156.634 151.715 156.551 151.741 156.467 151.733C156.383 151.725 156.306 151.683 156.253 151.617C156.2 151.552 156.175 151.468 156.183 151.384C156.203 151.189 156.262 150.593 156.723 150.493C157.469 150.33 158.357 151.688 160.515 155.331C161.827 157.551 163.809 160.908 164.551 160.908C164.567 160.908 164.604 160.908 164.666 160.804C165.986 158.529 164.211 151.412 163.453 149.213C163.425 149.132 163.431 149.044 163.468 148.968C163.506 148.891 163.572 148.833 163.652 148.805C163.733 148.778 163.821 148.783 163.897 148.821C163.973 148.858 164.032 148.924 164.059 149.005C164.666 150.761 166.789 158.438 165.227 161.125C165.167 161.249 165.072 161.354 164.955 161.428C164.838 161.502 164.703 161.542 164.564 161.543H164.545Z" fill="#D9C4A1"/>
<path d="M155.226 162.157C155.798 162.157 156.261 161.694 156.261 161.123C156.261 160.552 155.798 160.089 155.226 160.089C154.655 160.089 154.192 160.552 154.192 161.123C154.192 161.694 154.655 162.157 155.226 162.157Z" fill="#D9C4A1"/>
<path d="M160.955 168.603C160.955 168.792 160.899 168.977 160.794 169.134C160.689 169.291 160.539 169.414 160.365 169.486C160.19 169.558 159.998 169.577 159.812 169.54C159.627 169.503 159.457 169.412 159.323 169.278C159.189 169.145 159.099 168.974 159.062 168.789C159.025 168.603 159.044 168.411 159.117 168.237C159.189 168.062 159.312 167.913 159.469 167.808C159.627 167.703 159.812 167.647 160.001 167.648C160.126 167.648 160.25 167.672 160.366 167.72C160.482 167.769 160.587 167.839 160.676 167.928C160.764 168.016 160.835 168.122 160.883 168.238C160.93 168.354 160.955 168.478 160.955 168.603Z" fill="#D9C4A1"/>
<path d="M215.083 152.837L213.709 155.951L231.692 164.862L233.36 165.013C233.36 165.013 232.723 163.66 232.484 163.345C232.244 163.029 215.083 152.837 215.083 152.837Z" fill="#EBD8B7"/>
<path d="M218.802 151.151L215.083 152.837L232.09 164.226L212.983 153.79L208.511 155.819L236.148 167.807H238.376L218.802 151.151Z" fill="#FFEDCC"/>
<path d="M220.076 232.417H220.017C219.976 232.409 219.936 232.394 219.901 232.371C219.866 232.348 219.836 232.318 219.812 232.284C219.789 232.249 219.772 232.211 219.763 232.17C219.755 232.129 219.754 232.086 219.762 232.045L231.219 169.663C231.235 169.581 231.284 169.509 231.353 169.463C231.422 169.416 231.507 169.398 231.589 169.413C231.671 169.428 231.744 169.475 231.792 169.543C231.84 169.612 231.859 169.696 231.845 169.779L220.388 232.161C220.374 232.233 220.335 232.298 220.278 232.344C220.221 232.391 220.15 232.417 220.076 232.417V232.417Z" fill="#697194"/>
<path d="M336.404 381.37C334.336 373.573 335.927 357.977 341.975 355.909C348.023 353.84 372.687 362.43 375.393 379.779C364.094 383.28 336.404 381.37 336.404 381.37V381.37Z" fill="#8B9BE0"/>
<path d="M375.393 383.917H309.192C308.644 383.917 308.117 383.699 307.729 383.311C307.341 382.923 307.124 382.397 307.124 381.848C307.123 381.576 307.177 381.307 307.281 381.056C307.385 380.805 307.537 380.577 307.729 380.385C307.921 380.193 308.149 380.04 308.4 379.936C308.651 379.832 308.921 379.779 309.192 379.779H375.393C375.942 379.779 376.468 379.997 376.856 380.385C377.244 380.773 377.462 381.299 377.462 381.848C377.462 382.397 377.244 382.923 376.856 383.311C376.468 383.699 375.942 383.917 375.393 383.917V383.917Z" fill="#6773A6"/>
<path d="M181.283 339.662C167.872 339.662 153.167 337.69 139.548 331.656C119.266 322.666 100.679 303.294 87.2114 277.104C72.3951 248.297 64.7768 213.346 65.1803 176.035C65.1929 174.853 65.6746 173.725 66.5192 172.898C67.3638 172.071 68.5022 171.614 69.684 171.627C70.8658 171.639 71.9942 172.121 72.8209 172.966C73.6476 173.81 74.1049 174.949 74.0922 176.13C73.7039 211.998 80.9809 245.506 95.136 273.029C107.683 297.418 124.732 315.341 143.16 323.505C178.442 339.142 223.942 324.351 224.397 324.2C225.518 323.826 226.742 323.913 227.799 324.442C228.856 324.971 229.659 325.898 230.033 327.019C230.406 328.14 230.319 329.364 229.79 330.421C229.262 331.478 228.335 332.282 227.213 332.655C225.927 333.086 205.768 339.662 181.283 339.662V339.662Z" fill="#945930"/>
<path d="M246.097 345.536L215.723 279.152C213.593 274.496 209.823 270.788 205.132 268.736C200.442 266.683 195.16 266.43 190.295 268.024L113.447 293.205C111.814 293.74 110.312 294.613 109.039 295.766C107.765 296.919 106.748 298.327 106.053 299.898L84.9152 347.687C83.7035 350.432 83.5393 353.526 84.4536 356.384C85.368 359.242 87.2976 361.666 89.8778 363.198C155.41 402.176 222.541 377.958 243.173 359.729C247.18 356.188 248.322 350.399 246.097 345.536V345.536ZM238.959 354.958C226.56 365.912 198.11 377.708 164.945 377.708C139.583 377.708 115.423 370.986 93.134 357.73C91.8928 356.993 90.964 355.827 90.5229 354.452C90.0818 353.077 90.1587 351.589 90.7392 350.267L111.871 302.476C112.204 301.721 112.692 301.045 113.303 300.49C113.914 299.935 114.635 299.514 115.418 299.255L192.272 274.078C195.652 272.969 199.322 273.145 202.58 274.572C205.838 275.999 208.455 278.577 209.931 281.813L240.304 348.198C241.379 350.524 240.824 353.31 238.959 354.958V354.958Z" fill="#FA9651"/>
<path d="M239.732 345.536L209.358 279.152C207.227 274.496 203.457 270.788 198.767 268.736C194.076 266.683 188.795 266.43 183.929 268.024L107.077 293.205C105.444 293.74 103.942 294.613 102.669 295.766C101.395 296.919 100.378 298.327 99.683 299.898L78.5497 347.687C77.338 350.432 77.1738 353.526 78.0882 356.384C79.0025 359.242 80.9321 361.666 83.5123 363.198C149.044 402.176 216.175 377.958 236.808 359.729C240.815 356.188 241.957 350.399 239.732 345.536V345.536ZM232.593 354.958C220.194 365.912 191.743 377.708 158.58 377.708C133.218 377.708 109.057 370.986 86.7686 357.73C85.5273 356.993 84.5986 355.827 84.1574 354.452C83.7163 353.077 83.7932 351.589 84.3737 350.267L105.505 302.476C105.84 301.721 106.329 301.045 106.942 300.491C107.554 299.937 108.276 299.517 109.061 299.26L185.915 274.083C189.294 272.974 192.964 273.149 196.222 274.576C199.48 276.003 202.097 278.582 203.573 281.818L233.946 348.202C235.014 350.524 234.459 353.31 232.593 354.958V354.958Z" fill="#D68145"/>
<path d="M164.155 51.3103C163.724 60.8759 164.775 65.4714 167.423 73.5264C170.071 81.5815 169.028 88.4702 167.272 94.9114C165.515 101.353 167.47 106.349 167.181 111.249C166.891 116.149 163.26 121.411 163.26 121.411C163.283 117.981 165.069 114.349 164.106 110.137C163.143 105.925 159.899 101.432 160.735 95.3983C161.571 89.365 163.522 84.6876 162.471 80.0936C161.42 75.4996 160.535 58.3825 164.155 51.3103V51.3103ZM170.848 87.5116C171.062 91.0879 173.73 95.7153 171.517 99.243C169.304 102.771 169.313 104.582 169.313 104.582C168.48 100.942 170.094 96.5434 170.848 94.5611C171.602 92.5788 170.848 87.5116 170.848 87.5116Z" fill="#E0DBD7"/>
<path d="M157.978 71.4607C158.642 74.9809 161.877 79.2321 160.127 83.0131C158.376 86.7942 158.61 88.5869 158.61 88.5869C157.324 85.0849 158.367 80.5182 158.863 78.454C159.359 76.3899 157.978 71.4607 157.978 71.4607V71.4607Z" fill="#E0DBD7"/>
</svg>
