<svg width="540" height="386" viewBox="0 0 540 386" fill="none" xmlns="http://www.w3.org/2000/svg">
<path d="M374.424 345.373C374.424 345.373 448.019 323.866 475.579 267.78C503.617 210.722 488.467 127.793 446.969 93.2756C402.909 56.6274 342.179 56.6274 297.299 65.7894C252.419 74.9514 194.054 28.5685 112.801 72.0883C31.548 115.608 42.4729 246.242 88.1963 303.56C146.561 376.727 305.82 363.892 374.424 345.373Z" fill="#DDEAF0"/>
<path d="M52.7827 193.996H489.692C490.38 209.394 489.071 224.952 485.55 239.726H58.7465C55.1686 225.009 53.0856 209.499 52.7827 193.996Z" fill="#D6E8F0"/>
<path d="M56.2952 217.077H54.5259C54.505 216.916 54.4835 216.756 54.4629 216.596H56.2952L59.5097 205.391L56.2954 194.186H52.7862C52.7829 194.026 52.7801 193.866 52.7772 193.706H56.4762C56.5307 193.706 56.5819 193.724 56.6228 193.756H68.1491C68.1902 193.724 68.2412 193.706 68.2959 193.706H73.5491C73.6037 193.706 73.6548 193.724 73.6958 193.756H85.2221C85.2631 193.724 85.3142 193.706 85.3689 193.706H90.6221C90.6767 193.706 90.7278 193.724 90.7688 193.756H102.295C102.336 193.724 102.387 193.706 102.442 193.706H107.695C107.75 193.706 107.801 193.724 107.842 193.756H119.368C119.409 193.724 119.46 193.706 119.515 193.706H124.768C124.823 193.706 124.874 193.724 124.915 193.756H136.441C136.482 193.724 136.533 193.706 136.588 193.706H141.841C141.896 193.706 141.947 193.724 141.988 193.756H153.514C153.555 193.724 153.606 193.706 153.661 193.706H158.914C158.968 193.706 159.02 193.724 159.061 193.756H170.587C170.628 193.724 170.679 193.706 170.733 193.706H175.987C176.041 193.706 176.092 193.724 176.133 193.756H187.66C187.701 193.724 187.752 193.706 187.806 193.706H193.06C193.114 193.706 193.166 193.724 193.207 193.756H204.733C204.774 193.724 204.825 193.706 204.879 193.706H210.133C210.187 193.706 210.239 193.724 210.28 193.756H221.806C221.847 193.724 221.898 193.706 221.953 193.706H227.206C227.261 193.706 227.312 193.724 227.353 193.756H238.879C238.92 193.724 238.971 193.706 239.026 193.706H244.279C244.334 193.706 244.385 193.724 244.426 193.756H255.952C255.993 193.724 256.044 193.706 256.099 193.706H261.352C261.407 193.706 261.458 193.724 261.499 193.756H273.025C273.066 193.724 273.117 193.706 273.172 193.706H278.425C278.48 193.706 278.531 193.724 278.572 193.756H290.098C290.139 193.724 290.19 193.706 290.245 193.706H295.498C295.553 193.706 295.604 193.724 295.645 193.756H307.171C307.212 193.724 307.263 193.706 307.318 193.706H312.571C312.626 193.706 312.677 193.724 312.718 193.756H324.244C324.285 193.724 324.336 193.706 324.391 193.706H329.644C329.699 193.706 329.75 193.724 329.791 193.756H341.317C341.358 193.724 341.409 193.706 341.464 193.706H346.717C346.772 193.706 346.823 193.724 346.864 193.756H358.39C358.431 193.724 358.482 193.706 358.537 193.706H363.79C363.845 193.706 363.896 193.724 363.937 193.756H375.463C375.504 193.724 375.555 193.706 375.61 193.706H380.863C380.918 193.706 380.969 193.724 381.01 193.756H392.536C392.577 193.724 392.628 193.706 392.683 193.706H397.936C397.991 193.706 398.042 193.724 398.083 193.756H409.609C409.65 193.724 409.701 193.706 409.756 193.706H415.009C415.064 193.706 415.115 193.724 415.156 193.756H426.682C426.723 193.724 426.774 193.706 426.829 193.706H432.082C432.137 193.706 432.188 193.724 432.229 193.756H443.755C443.796 193.724 443.847 193.706 443.902 193.706H449.155C449.209 193.706 449.261 193.724 449.302 193.756H460.828C460.869 193.724 460.92 193.706 460.975 193.706H466.228C466.282 193.706 466.334 193.724 466.375 193.756H477.901C477.942 193.724 477.993 193.706 478.048 193.706H483.301C483.355 193.706 483.407 193.724 483.448 193.756H489.681C489.689 193.916 489.695 194.076 489.702 194.236H483.634L484.399 196.902L486.765 205.151H489.838C489.835 205.311 489.832 205.471 489.829 205.631H486.765L483.551 216.836L486.765 228.041H487.854C487.828 228.203 487.803 228.365 487.777 228.527H486.765L483.62 239.492H485.606C485.568 239.653 485.529 239.812 485.49 239.973H483.301C483.284 239.973 483.267 239.97 483.25 239.967H478.098C478.082 239.97 478.065 239.973 478.048 239.973H466.228C466.211 239.973 466.194 239.97 466.178 239.967H461.025C461.009 239.97 460.992 239.973 460.975 239.973H449.155C449.138 239.973 449.121 239.97 449.105 239.967H443.952C443.936 239.97 443.919 239.973 443.902 239.973H432.082C432.065 239.973 432.048 239.97 432.032 239.967H426.879C426.863 239.97 426.846 239.973 426.829 239.973H415.009C414.992 239.973 414.975 239.97 414.959 239.967H409.807C409.79 239.97 409.773 239.973 409.756 239.973H397.936C397.919 239.973 397.902 239.97 397.886 239.967H392.734C392.717 239.97 392.7 239.973 392.683 239.973H380.863C380.846 239.973 380.829 239.97 380.813 239.967H375.661C375.644 239.97 375.627 239.973 375.61 239.973H363.791C363.773 239.973 363.756 239.97 363.74 239.967H358.588C358.571 239.97 358.555 239.973 358.537 239.973H346.718C346.7 239.973 346.684 239.97 346.667 239.967H341.515C341.498 239.97 341.482 239.973 341.464 239.973H329.645C329.628 239.973 329.611 239.97 329.594 239.967H324.442C324.426 239.97 324.409 239.973 324.392 239.973H312.572C312.555 239.973 312.538 239.97 312.521 239.967H307.369C307.353 239.97 307.336 239.973 307.319 239.973H295.499C295.482 239.973 295.465 239.97 295.449 239.967H290.296C290.28 239.97 290.263 239.973 290.246 239.973H278.426C278.409 239.973 278.392 239.97 278.376 239.967H273.223C273.207 239.97 273.19 239.973 273.173 239.973H261.353C261.336 239.973 261.319 239.97 261.303 239.967H256.15C256.134 239.97 256.117 239.973 256.1 239.973H244.28C244.263 239.973 244.246 239.97 244.23 239.967H239.078C239.061 239.97 239.044 239.973 239.027 239.973H227.207C227.19 239.973 227.173 239.97 227.157 239.967H222.005C221.988 239.97 221.971 239.973 221.954 239.973H210.134C210.117 239.973 210.1 239.97 210.084 239.967H204.931C204.915 239.97 204.898 239.973 204.881 239.973H193.061C193.044 239.973 193.027 239.97 193.011 239.967H187.859C187.842 239.97 187.825 239.973 187.808 239.973H175.988C175.971 239.973 175.954 239.97 175.938 239.967H170.786C170.769 239.97 170.752 239.973 170.735 239.973H158.915C158.898 239.973 158.881 239.97 158.865 239.967H153.712C153.696 239.97 153.679 239.973 153.662 239.973H141.842C141.825 239.973 141.808 239.97 141.792 239.967H136.639C136.623 239.97 136.606 239.973 136.589 239.973H124.769C124.752 239.973 124.735 239.97 124.719 239.967H119.567C119.55 239.97 119.533 239.973 119.516 239.973H107.696C107.679 239.973 107.662 239.97 107.646 239.967H102.494C102.477 239.97 102.46 239.973 102.443 239.973H90.6235C90.6063 239.973 90.5895 239.97 90.573 239.967H85.4208C85.4043 239.97 85.3874 239.973 85.3704 239.973H73.5506C73.5334 239.973 73.5165 239.97 73.5 239.967H68.3478C68.3314 239.97 68.3145 239.973 68.2974 239.973H58.8077C58.7685 239.813 58.7293 239.652 58.6906 239.492H67.9788L64.8334 228.527H59.9417L57.8427 235.844C57.7694 235.515 57.6967 235.186 57.6249 234.857L59.5112 228.282L56.2952 217.077ZM56.8092 194.237L57.0605 195.113L59.9402 205.151H64.8318L67.9627 194.237H56.8092V194.237ZM73.3682 194.186H68.4768L65.2624 205.391L68.4768 216.596H73.3682L76.5826 205.391L73.3682 194.186ZM73.7988 216.836L77.0132 228.041H81.9047L85.119 216.836L81.9047 205.631H77.0132L73.7988 216.836ZM73.8823 194.237L77.0133 205.151H81.9048L85.0358 194.237H73.8823V194.237ZM90.4413 194.186H85.5498L82.3354 205.391L85.5498 216.596H90.4413L93.6556 205.391L90.4413 194.186ZM90.8719 216.836L94.0863 228.041H98.9778L102.192 216.836L98.9778 205.631H94.0863L90.8719 216.836ZM90.9552 194.237L91.2065 195.113L94.0863 205.151H98.9778L102.109 194.237H90.9552V194.237ZM107.514 194.186H102.623L99.4083 205.391L102.623 216.596H107.514L110.729 205.391L107.514 194.186ZM107.945 216.836L111.159 228.041H116.051L119.265 216.836L116.051 205.631H111.159L107.945 216.836ZM108.028 194.237L108.279 195.113L111.159 205.151H116.051L119.182 194.237H108.028V194.237ZM124.587 194.186H119.696L116.481 205.391L119.696 216.596H124.587L127.802 205.391L124.587 194.186ZM125.018 216.836L128.232 228.041H133.124L136.338 216.836L133.124 205.631H128.232L125.018 216.836ZM125.101 194.237L128.232 205.151H133.124L136.255 194.237H125.101V194.237ZM141.66 194.186H136.769L133.554 205.391L136.769 216.596H141.66L144.875 205.391L141.66 194.186ZM142.091 216.836L145.305 228.041H150.197L153.411 216.836L150.197 205.631H145.305L142.091 216.836ZM142.174 194.237L145.305 205.151H150.197L153.328 194.237H142.174V194.237ZM158.733 194.186H153.842L150.627 205.391L153.842 216.596H158.733L161.948 205.391L158.733 194.186ZM159.164 216.836L162.378 228.041H167.27L170.484 216.836L167.27 205.631H162.378L159.164 216.836ZM159.247 194.237L162.378 205.151H167.27L170.401 194.237H159.247V194.237ZM175.806 194.186H170.915L167.7 205.391L170.915 216.596H175.806L179.021 205.391L175.806 194.186ZM176.237 216.836L179.451 228.041H184.343L187.557 216.836L184.343 205.631H179.451L176.237 216.836ZM176.32 194.237L179.451 205.151H184.343L187.474 194.237H176.32V194.237ZM192.879 194.186H187.988L184.773 205.391L187.988 216.596H192.879L196.094 205.391L192.879 194.186ZM193.31 216.836L196.524 228.041H201.416L204.63 216.836L201.416 205.631H196.524L193.31 216.836ZM193.393 194.237L196.524 205.151H201.416L204.547 194.237H193.393V194.237ZM209.952 194.186H205.061L201.846 205.391L205.061 216.596H209.952L213.167 205.391L209.952 194.186ZM210.383 216.836L213.597 228.041H218.489L221.703 216.836L218.489 205.631H213.597L210.383 216.836ZM210.466 194.237L213.597 205.151H218.489L221.62 194.237H210.466V194.237ZM227.025 194.186H222.134L218.919 205.391L222.134 216.596H227.025L230.24 205.391L227.025 194.186ZM227.456 216.836L230.67 228.041H235.562L238.776 216.836L235.562 205.631H230.67L227.456 216.836ZM227.539 194.237L230.67 205.151H235.562L238.692 194.237H227.539V194.237ZM244.098 194.186H239.207L235.992 205.391L239.207 216.596H244.098L247.312 205.391L244.098 194.186ZM244.529 216.836L247.743 228.041H252.635L255.849 216.836L252.635 205.631H247.743L244.529 216.836ZM244.612 194.237L247.743 205.151H252.635L255.766 194.237H244.612V194.237ZM261.171 194.186H256.28L253.065 205.391L256.28 216.596H261.171L264.385 205.391L261.171 194.186ZM261.602 216.836L264.816 228.041H269.708L272.922 216.836L269.708 205.631H264.816L261.602 216.836ZM261.685 194.237L264.816 205.151H269.708L272.839 194.237H261.685V194.237ZM278.244 194.186H273.353L270.138 205.391L273.353 216.596H278.244L281.459 205.391L278.733 195.889L278.244 194.186ZM278.675 216.836L281.889 228.041H286.781L289.995 216.836L286.781 205.631H281.889L278.675 216.836ZM278.758 194.237L281.889 205.151H286.781L289.912 194.237H278.758V194.237ZM295.317 194.186H290.426L290.233 194.857L287.211 205.391L290.426 216.596H295.317L298.532 205.391L295.806 195.889L295.317 194.186ZM295.748 216.836L298.962 228.041H303.854L307.068 216.836L303.854 205.631H298.962L295.748 216.836ZM295.831 194.237L298.962 205.151H303.854L306.985 194.237H295.831V194.237ZM312.39 194.186H307.499L307.306 194.857L304.284 205.391L307.499 216.596H312.39L315.604 205.391L312.879 195.889L312.39 194.186ZM312.821 216.836L316.035 228.041H320.927L324.141 216.836L320.927 205.631H316.035L312.821 216.836ZM312.904 194.237L316.035 205.151H320.927L324.058 194.237H312.904V194.237ZM329.463 194.186H324.572L324.083 195.889L321.357 205.391L324.572 216.596H329.463L332.678 205.391L329.952 195.889L329.463 194.186ZM329.894 216.836L333.108 228.041H338L341.214 216.836L338 205.631H333.108L329.894 216.836ZM329.977 194.237L333.108 205.151H338L341.131 194.237H329.977V194.237ZM346.536 194.186H341.645L341.156 195.889L338.43 205.391L341.645 216.596H346.536L349.751 205.391L347.025 195.889L346.536 194.186ZM346.967 216.836L350.181 228.041H355.073L358.287 216.836L355.073 205.631H350.181L346.967 216.836ZM347.05 194.237L350.181 205.151H355.073L358.204 194.237H347.05V194.237ZM363.609 194.186H358.717L358.229 195.889L355.503 205.391L358.717 216.596H363.609L366.823 205.391L364.098 195.889L363.609 194.186ZM364.04 216.836L367.254 228.041H372.146L375.36 216.836L372.146 205.631H367.254L364.04 216.836ZM364.123 194.237L367.254 205.151H372.146L375.277 194.237H364.123V194.237ZM380.682 194.186H375.79L375.302 195.889L372.576 205.391L375.79 216.596H380.682L383.896 205.391L381.171 195.889L380.682 194.186ZM381.113 216.836L384.327 228.041H389.219L392.433 216.836L389.219 205.631H384.327L381.113 216.836ZM381.196 194.237L384.327 205.151H389.219L392.35 194.237H381.196V194.237ZM397.755 194.186H392.863L392.375 195.889L389.649 205.391L392.863 216.596H397.755L400.969 205.391L398.244 195.889L397.755 194.186ZM398.186 216.836L401.4 228.041H406.292L409.506 216.836L406.292 205.631H401.4L398.186 216.836ZM398.269 194.237L401.4 205.151H406.292L409.423 194.237H398.269V194.237ZM414.828 194.186H409.937L409.448 195.889L406.722 205.391L409.937 216.596H414.828L418.042 205.391L415.317 195.889L414.828 194.186ZM415.259 216.836L418.473 228.041H423.365L426.579 216.836L423.365 205.631H418.473L415.259 216.836ZM415.342 194.237L418.473 205.151H423.365L426.496 194.237H415.342V194.237ZM431.901 194.186H427.01L426.521 195.889L423.795 205.391L427.01 216.596H431.901L435.116 205.391L432.39 195.889L431.901 194.186ZM432.332 216.836L435.546 228.041H440.438L443.652 216.836L440.438 205.631H435.546L432.332 216.836ZM432.415 194.237L435.546 205.151H440.438L443.568 194.237H432.415V194.237ZM448.974 194.186H444.083L443.594 195.889L440.868 205.391L444.083 216.596H448.974L452.189 205.391L449.463 195.889L448.974 194.186ZM449.405 216.836L452.619 228.041H457.511L460.725 216.836L457.511 205.631H452.619L449.405 216.836ZM449.488 194.237L452.619 205.151H457.511L460.642 194.237H449.488V194.237ZM466.047 194.186H461.156L460.667 195.889L457.941 205.391L461.156 216.596H466.047L469.261 205.391L466.536 195.889L466.047 194.186ZM466.478 216.836L469.692 228.041H474.584L477.798 216.836L474.584 205.631H469.692L466.478 216.836ZM466.561 194.237L469.692 205.151H474.584L477.715 194.237H466.561V194.237ZM486.334 205.391L483.12 194.186H478.229L475.014 205.391L478.229 216.596H483.12L486.334 205.391ZM478.228 239.486H483.12L486.334 228.281L483.12 217.076H478.228L475.014 228.281L478.228 239.486ZM477.729 239.492L474.584 228.528H469.692L466.547 239.492H477.729ZM461.155 239.486H466.047L469.261 228.281L466.047 217.076H461.155L457.941 228.281L461.155 239.486ZM460.656 239.492L457.511 228.528H452.619L449.474 239.492H460.656ZM444.082 239.486H448.974L452.188 228.281L448.974 217.076H444.082L440.868 228.281L444.082 239.486ZM443.583 239.492L440.438 228.528H435.546L432.4 239.492H443.583ZM427.009 239.486H431.901L435.115 228.281L431.901 217.076H427.009L423.795 228.281L427.009 239.486ZM426.51 239.492L423.365 228.528H418.473L415.328 239.492H426.51ZM409.937 239.486H414.828L418.042 228.281L414.828 217.076H409.937L406.722 228.281L409.937 239.486ZM409.437 239.492L406.292 228.528H401.4L398.255 239.492H409.437ZM392.864 239.486H397.755L400.97 228.281L397.755 217.076H392.864L389.649 228.281L392.864 239.486ZM392.364 239.492L389.219 228.528H384.327L381.182 239.492H392.364ZM375.79 239.486H380.682L383.896 228.281L380.682 217.076H375.79L372.576 228.281L375.79 239.486ZM375.291 239.492L372.146 228.528H367.254L364.109 239.492H375.291ZM358.717 239.486H363.609L366.823 228.281L363.609 217.076H358.717L355.503 228.281L358.717 239.486ZM358.218 239.492L355.073 228.528H350.181L347.036 239.492H358.218ZM341.645 239.486H346.536L349.751 228.281L346.536 217.076H341.645L338.43 228.281L341.645 239.486ZM341.145 239.492L338 228.528H333.108L329.963 239.492H341.145ZM324.572 239.486H329.463L332.678 228.281L329.463 217.076H324.572L321.357 228.281L324.572 239.486ZM324.072 239.492L320.927 228.528H316.035L312.89 239.492H324.072ZM307.499 239.486H312.39L315.604 228.281L312.39 217.076H307.499L304.284 228.281L307.499 239.486ZM306.999 239.492L303.854 228.528H298.962L295.817 239.492H306.999ZM290.426 239.486H295.317L298.532 228.281L295.317 217.076H290.426L287.211 228.281L290.426 239.486ZM289.926 239.492L286.781 228.528H281.889L278.744 239.492H289.926ZM273.353 239.486H278.244L281.459 228.281L278.244 217.076H273.353L272.996 218.321L270.138 228.282L273.353 239.486ZM272.853 239.492L269.708 228.528H264.816L261.671 239.492H272.853ZM256.279 239.486H261.171L264.385 228.282L261.171 217.076H256.28L253.065 228.282L256.279 239.486ZM255.78 239.492L252.635 228.528H247.743L244.598 239.492H255.78ZM239.207 239.486H244.098L247.312 228.282L244.098 217.076H239.207L235.992 228.282L239.207 239.486ZM238.707 239.492L235.562 228.528H230.67L227.525 239.492H238.707ZM222.134 239.486H227.025L230.24 228.282L227.025 217.076H222.134L218.919 228.282L222.134 239.486ZM221.634 239.492L218.489 228.528H213.597L210.452 239.492H221.634ZM205.061 239.486H209.952L213.167 228.282L209.952 217.076H205.061L201.846 228.282L205.061 239.486ZM204.561 239.492L201.416 228.528H196.524L193.379 239.492H204.561ZM187.988 239.486H192.879L196.094 228.282L192.879 217.076H187.988L184.773 228.282L187.988 239.486ZM187.488 239.492L184.343 228.528H179.451L176.306 239.492H187.488ZM170.915 239.486H175.806L179.021 228.282L175.806 217.076H170.915L167.7 228.282L170.915 239.486ZM170.415 239.492L167.27 228.528H162.378L159.233 239.492H170.415ZM153.842 239.486H158.733L161.948 228.282L158.733 217.076H153.842L150.627 228.282L153.842 239.486ZM153.342 239.492L150.197 228.528H145.305L142.16 239.492H153.342ZM136.769 239.486H141.66L144.875 228.282L141.66 217.076H136.769L133.554 228.282L136.769 239.486ZM136.269 239.492L133.124 228.528H128.232L125.087 239.492H136.269ZM119.696 239.486H124.587L127.802 228.282L124.587 217.076H119.696L116.481 228.282L119.696 239.486ZM119.196 239.492L116.051 228.528H111.159L108.014 239.492H119.196ZM102.623 239.486H107.514L110.729 228.282L107.514 217.076H102.623L99.4084 228.282L102.623 239.486ZM102.123 239.492L98.9779 228.528H94.0862L90.9407 239.492H102.123ZM85.5497 239.486H90.4413L93.6556 228.282L90.4412 217.076H85.5497L82.3353 228.282L85.5497 239.486ZM85.0502 239.492L81.9048 228.528H77.0131L73.8676 239.492H85.0502ZM68.4767 239.486H73.3683L76.5826 228.282L73.3682 217.076H68.4768L65.2624 228.282L68.4767 239.486ZM59.9403 228.041H64.8319L68.0461 216.836L64.8319 205.631H59.9403L56.726 216.836L59.9403 228.041Z" fill="#C6E0F0"/>
<path d="M98.4394 81.38C102.866 77.9599 107.648 74.8486 112.801 72.0883C172.834 39.9341 220.373 56.8565 259.21 64.1931V213.737H98.4394V81.38Z" fill="#DDEAF0"/>
<path d="M112.802 72.0883C170.935 40.9516 217.352 55.8346 255.497 63.4697V210.071H102.153V78.6433C105.511 76.284 109.058 74.0935 112.802 72.0883Z" fill="#EBF2F5"/>
<path d="M177.617 53.3789C178.425 53.3348 179.23 53.2973 180.032 53.2661V210.07H177.617V53.3789Z" fill="#DDEAF0"/>
<path d="M100.575 98.7451H257.074V101.279H100.575V98.7451Z" fill="#DDEAF0"/>
<path d="M100.575 152.944H257.074V155.477H100.575V152.944Z" fill="#DDEAF0"/>
<path d="M475.579 267.78C463.719 291.916 443.334 309.648 423.957 322.018V240.505H485.362C483.041 250.014 479.8 259.19 475.579 267.78Z" fill="#CCE5F0"/>
<path d="M446.529 246.961C446.529 246.961 437.034 250.753 437.358 278.082C437.452 286.083 442.34 294.169 450.324 301.524C441.935 309.549 432.84 316.347 423.957 322.018V240.505H426.122L446.529 246.961Z" fill="#C2DFF0"/>
<path d="M483.628 246.961H423.957V239.989H485.486C484.923 242.334 484.304 244.659 483.628 246.961Z" fill="#B2D8F0"/>
<path d="M475.689 267.552H423.957V265.694H476.577C476.286 266.316 475.991 266.936 475.689 267.552Z" fill="#9BCCEB"/>
<path d="M480.488 251.241C481.105 251.241 481.667 251.477 482.089 251.863C481.626 253.247 481.142 254.622 480.636 255.985C480.587 255.988 480.538 255.99 480.488 255.99C479.177 255.99 478.115 254.927 478.115 253.616C478.115 252.304 479.177 251.241 480.488 251.241Z" fill="#B2D8F0"/>
<path d="M484.488 243.911H423.957V236.066H486.374C485.814 238.705 485.186 241.322 484.488 243.911ZM317.394 355.991V348.901H326.162V354.853C323.286 355.252 320.361 355.632 317.394 355.991ZM319.973 237.614H416.22V234.12C416.22 233.313 415.566 232.659 414.76 232.659H321.433C320.627 232.659 319.973 233.313 319.973 234.12V237.614Z" fill="#9BCCEB"/>
<path d="M312.236 236.066H423.957V322.018C398.307 338.394 374.424 345.373 374.424 345.373C369.95 346.581 365.089 347.764 359.897 348.902H312.236V236.066Z" fill="#9BCCEB"/>
<path d="M312.236 236.066H423.957V243.912H312.236V236.066Z" fill="#B2D8F0"/>
<path d="M317.394 267.552H418.799V323.712H317.394V267.552Z" fill="#CCE5F0"/>
<path d="M317.394 291.193H418.799V323.712H317.394V291.193Z" fill="#B2D8F0"/>
<path d="M398.591 291.193L418.799 323.712H405.697L385.403 291.193H398.591Z" fill="#CCE5F0"/>
<path d="M332.962 291.193L353.17 323.712H340.069L319.774 291.193H332.962Z" fill="#CCE5F0"/>
<path d="M371.292 291.193L391.5 323.712H363.372L343.077 291.193H371.292Z" fill="#CCE5F0"/>
<path d="M327.635 278.082H408.557C409.371 278.082 410.03 277.422 410.03 276.608V274.498C410.03 273.684 409.371 273.024 408.557 273.024H327.635C326.822 273.024 326.162 273.684 326.162 274.498V276.608C326.162 277.422 326.822 278.082 327.635 278.082Z" fill="#9BCCEB"/>
<path d="M317.394 327.222H415.345C403.868 333.786 393.294 338.422 385.77 341.365H317.394V327.222Z" fill="#C2DFF0"/>
<path d="M360.519 333.064H375.674C376.076 333.064 376.401 332.738 376.401 332.337V331.296C376.401 330.894 376.076 330.569 375.674 330.569H360.519C360.118 330.569 359.792 330.894 359.792 331.296V332.337C359.792 332.738 360.118 333.064 360.519 333.064Z" fill="#9BCCEB"/>
<path d="M407.039 258.158C404.532 258.158 402.5 256.124 402.5 253.616C402.5 251.107 404.532 249.073 407.039 249.073C409.545 249.073 411.578 251.107 411.578 253.616C411.578 256.124 409.545 258.158 407.039 258.158Z" fill="#B2D8F0"/>
<path d="M391.771 258.158C389.264 258.158 387.232 256.124 387.232 253.616C387.232 251.107 389.264 249.073 391.771 249.073C394.278 249.073 396.31 251.107 396.31 253.616C396.31 256.124 394.278 258.158 391.771 258.158Z" fill="#B2D8F0"/>
<path d="M365.775 258.158C363.269 258.158 361.236 256.124 361.236 253.616C361.236 251.107 363.269 249.073 365.775 249.073C368.282 249.073 370.314 251.107 370.314 253.616C370.314 256.124 368.282 258.158 365.775 258.158Z" fill="#B2D8F0"/>
<path d="M347.413 258.158C344.906 258.158 342.874 256.124 342.874 253.616C342.874 251.107 344.906 249.073 347.413 249.073C349.92 249.073 351.952 251.107 351.952 253.616C351.952 256.124 349.92 258.158 347.413 258.158Z" fill="#B2D8F0"/>
<path d="M329.051 258.158C326.544 258.158 324.512 256.124 324.512 253.616C324.512 251.107 326.544 249.073 329.051 249.073C331.558 249.073 333.59 251.107 333.59 253.616C333.59 256.124 331.558 258.158 329.051 258.158Z" fill="#B2D8F0"/>
<path d="M312.236 240.505V356.589C235.387 365.111 132.597 359.221 88.1962 303.561C75.1834 287.248 64.9893 264.996 58.9363 240.505H312.236Z" fill="#CCE5F0"/>
<path d="M312.236 331.578V356.589C292.821 358.742 271.75 359.975 250.384 359.718V240.505H252.548L265.083 246.961C265.083 246.961 263.784 270.985 263.784 298.316C263.784 322.192 285.291 329.813 312.236 331.578ZM111.393 246.961C111.393 246.961 109.925 273.445 113.536 300.536C119.815 347.64 205.063 333.091 249.412 330.661V359.705C191.52 358.887 131.61 347.075 96.6943 312.944V240.505H98.8587L111.393 246.961Z" fill="#C2DFF0"/>
<path d="M58.8097 239.989H312.236V246.961H60.6426C59.9944 244.659 59.3831 242.334 58.8097 239.989Z" fill="#B2D8F0"/>
<path d="M66.9359 265.694H312.236V267.553H67.6803C67.4294 266.936 67.1812 266.317 66.9359 265.694Z" fill="#9BCCEB"/>
<path d="M249.424 349.831C249.936 349.831 250.352 349.415 250.352 348.902V238.188C250.352 237.675 249.936 237.259 249.424 237.259C248.911 237.259 248.495 237.675 248.495 238.188V348.902C248.495 349.415 248.911 349.831 249.424 349.831ZM173.487 349.831C174 349.831 174.416 349.415 174.416 348.902V266.623C174.416 266.11 174 265.694 173.487 265.694C172.975 265.694 172.559 266.11 172.559 266.623V348.902C172.559 349.415 172.975 349.831 173.487 349.831ZM97.5627 237.832C98.0755 237.832 98.4911 238.248 98.4911 238.761V314.661C97.8644 314.076 97.2458 313.484 96.6343 312.885V238.761C96.6343 238.248 97.0499 237.832 97.5627 237.832Z" fill="#9BCCEB"/>
<path d="M249.412 290.264C248.899 290.264 248.484 289.848 248.484 289.335C248.484 288.822 248.9 288.406 249.412 288.406H312.236V290.264H249.412V290.264ZM77.8785 288.406H97.5627C98.0755 288.406 98.4911 288.822 98.4911 289.335C98.4911 289.848 98.0755 290.264 97.5627 290.264H78.9826C78.6112 289.65 78.2433 289.03 77.8785 288.406ZM249.412 312.873C248.899 312.873 248.484 312.457 248.484 311.944C248.484 311.431 248.9 311.015 249.412 311.015H312.236V312.873H249.412V312.873Z" fill="#9BCCEB"/>
<path d="M281.804 255.99C280.494 255.99 279.432 254.927 279.432 253.616C279.432 252.304 280.494 251.241 281.804 251.241C283.114 251.241 284.177 252.304 284.177 253.616C284.177 254.927 283.114 255.99 281.804 255.99Z" fill="#B2D8F0"/>
<path d="M281.804 278.083C280.494 278.083 279.432 277.019 279.432 275.708C279.432 274.397 280.494 273.334 281.804 273.334C283.114 273.334 284.177 274.397 284.177 275.708C284.177 277.019 283.114 278.083 281.804 278.083Z" fill="#B2D8F0"/>
<path d="M281.804 298.317C280.494 298.317 279.432 297.254 279.432 295.942C279.432 294.631 280.494 293.568 281.804 293.568C283.114 293.568 284.177 294.631 284.177 295.942C284.177 297.254 283.114 298.317 281.804 298.317Z" fill="#B2D8F0"/>
<path d="M281.804 322.267C280.494 322.267 279.432 321.204 279.432 319.893C279.432 318.581 280.494 317.518 281.804 317.518C283.114 317.518 284.177 318.581 284.177 319.893C284.177 321.204 283.114 322.267 281.804 322.267Z" fill="#B2D8F0"/>
<path d="M173.487 255.99C172.177 255.99 171.115 254.927 171.115 253.616C171.115 252.304 172.177 251.241 173.487 251.241C174.798 251.241 175.86 252.304 175.86 253.616C175.86 254.927 174.798 255.99 173.487 255.99Z" fill="#B2D8F0"/>
<path d="M165.75 278.082C164.44 278.082 163.378 277.019 163.378 275.708C163.378 274.397 164.44 273.333 165.75 273.333C167.061 273.333 168.123 274.397 168.123 275.708C168.123 277.019 167.061 278.082 165.75 278.082Z" fill="#B2D8F0"/>
<path d="M181.121 278.082C179.811 278.082 178.748 277.019 178.748 275.708C178.748 274.397 179.811 273.333 181.121 273.333C182.431 273.333 183.494 274.397 183.494 275.708C183.494 277.019 182.431 278.082 181.121 278.082Z" fill="#B2D8F0"/>
<path d="M57.8904 236.066H312.236V243.912H59.8091C59.1226 241.322 58.4824 238.706 57.8904 236.066Z" fill="#9BCCEB"/>
<path d="M112.83 236.066H234.042V230.474C234.042 229.058 232.895 227.91 231.48 227.91H115.392C113.977 227.91 112.83 229.058 112.83 230.474V236.066Z" fill="#86C4EB"/>
<path d="M177.511 192.449V227.91H173.384V194.491C173.384 192.707 171.94 191.262 170.158 191.262H167.426C166.182 191.262 165.081 192.066 164.703 193.252L162.965 198.695H158.839L160.256 191.789C160.812 189.078 163.196 187.132 165.961 187.132H172.198C175.132 187.132 177.511 189.513 177.511 192.449Z" fill="#9BCCEB"/>
<path d="M183.094 215.396V206.438H182.153L180.915 210.877V215.419L183.094 215.396Z" fill="#9BCCEB"/>
<path d="M158.579 200.759H163.225C163.423 200.759 163.584 200.599 163.584 200.4V199.054C163.584 198.856 163.423 198.695 163.225 198.695H158.579C158.381 198.695 158.22 198.856 158.22 199.054V200.4C158.22 200.599 158.381 200.759 158.579 200.759ZM177.51 223.161H181.343C182.929 223.161 184.216 221.874 184.216 220.286V217.675C184.216 216.087 182.929 214.799 181.343 214.799H177.51V223.161Z" fill="#86C4EB"/>
<path d="M359.423 197.612C364.545 187.796 375.511 183.016 385.821 185.311C387.253 185.63 388.72 184.957 389.399 183.656L389.419 183.617C389.891 182.712 390.156 181.707 390.139 180.686C390.124 179.795 390.34 178.886 390.816 178.049C392.175 175.656 395.23 174.755 397.672 176.023C400.206 177.338 401.19 180.463 399.869 182.994C399.467 183.764 398.898 184.391 398.23 184.852C397.394 185.429 396.694 186.181 396.223 187.081L396.166 187.192C395.492 188.483 395.76 190.073 396.833 191.058C404.623 198.211 406.979 209.96 401.852 219.784C395.747 231.485 381.218 236.039 369.534 229.915C357.836 223.784 353.31 209.328 359.423 197.612ZM394.533 182.069C395.392 182.517 396.451 182.185 396.899 181.325C397.348 180.466 397.015 179.406 396.157 178.957C395.298 178.509 394.239 178.842 393.79 179.701C393.342 180.56 393.675 181.62 394.533 182.069Z" fill="#A4D0EB"/>
<path d="M367.947 221.399C360.938 214.384 360.938 203.011 367.948 195.996C374.958 188.981 386.323 188.981 393.332 195.996C400.342 203.011 400.342 214.385 393.332 221.4C386.322 228.415 374.957 228.414 367.947 221.399Z" fill="#9BCCEB"/>
<path d="M368.671 220.676C362.061 214.06 362.061 203.335 368.671 196.72C375.282 190.104 385.999 190.105 392.61 196.72C399.22 203.335 399.22 214.061 392.609 220.676C385.999 227.291 375.281 227.291 368.671 220.676Z" fill="#B2D8F0"/>
<path d="M414.719 190.731H478.374C478.989 190.731 479.488 190.232 479.488 189.616V185.735C479.488 185.119 478.989 184.62 478.374 184.62H414.719C414.103 184.62 413.604 185.119 413.604 185.735V189.616C413.604 190.232 414.103 190.731 414.719 190.731Z" fill="#9BCCEB"/>
<path d="M463.533 164.386V198.936H470.41V181.661C470.41 181.661 470.823 168.791 463.533 164.386Z" fill="#B2D8F0"/>
<path d="M463.533 198.936V214.903C463.533 216.347 464.703 217.518 466.146 217.518C467.59 217.518 468.76 216.347 468.76 214.903V198.936H463.533ZM450.668 198.936V214.903C450.668 216.347 451.838 217.518 453.282 217.518C454.725 217.518 455.895 216.347 455.895 214.903V198.936H450.668Z" fill="#9BCCEB"/>
<path d="M455.895 198.936V164.386L455.134 165.048C452.297 167.513 450.668 171.088 450.668 174.847V198.936H455.895V198.936ZM431.898 201.964H443.176V186.823C443.176 186.823 442.351 170.718 436.437 164.386C436.437 164.386 433.136 170.718 432.448 178.495C431.76 186.272 431.898 201.964 431.898 201.964Z" fill="#B2D8F0"/>
<path d="M431.898 201.963V219.399C431.898 220.488 432.781 221.372 433.869 221.372H437.033C437.843 221.372 438.5 220.714 438.5 219.903V218.343C438.5 218.039 438.254 217.793 437.95 217.793H437.734C437.118 217.793 436.64 217.253 436.715 216.641L438.5 201.963H431.898V201.963ZM379.381 159.898H382.278C383.29 159.898 384.11 159.077 384.11 158.064V133.079C384.11 132.066 383.29 131.245 382.278 131.245H379.381C378.369 131.245 377.549 132.066 377.549 133.079V158.064C377.548 159.077 378.369 159.898 379.381 159.898Z" fill="#9BCCEB"/>
<path d="M477.847 138.067H368.871C368.11 138.067 367.494 137.45 367.494 136.689V132.624C367.494 131.862 368.11 131.245 368.871 131.245H474.901C475.933 133.476 476.916 135.751 477.847 138.067Z" fill="#B2D8F0"/>
<path d="M377.807 127.805C377.949 127.805 378.063 127.691 378.063 127.55C378.063 127.408 377.949 127.294 377.807 127.294C375.66 127.294 373.761 125.847 373.188 123.776L372.832 122.489C372.704 122.026 372.797 121.542 373.088 121.16C373.378 120.778 373.82 120.559 374.3 120.559H375.97C376.111 120.559 376.225 120.444 376.225 120.303C376.225 120.162 376.111 120.047 375.97 120.047H374.3C373.659 120.047 373.069 120.34 372.681 120.85C372.293 121.361 372.168 122.007 372.339 122.625L372.695 123.913C373.329 126.205 375.431 127.805 377.807 127.805Z" fill="#A4D0EB"/>
<path d="M379.149 131.245H392.423C393.087 131.245 393.626 130.706 393.626 130.042V129.505C393.626 127.551 394.205 125.64 395.291 124.014L398.397 119.363H375.674L376.912 123.303C377.598 125.484 377.946 127.756 377.946 130.042C377.946 130.706 378.485 131.245 379.149 131.245Z" fill="#B2D8F0"/>
<path d="M394.762 119.363H398.397L395.29 124.015C394.205 125.64 393.625 127.551 393.625 129.505V130.042C393.625 130.706 393.087 131.245 392.423 131.245H389.99C389.99 122.433 394.762 119.363 394.762 119.363ZM431.585 107.472V101.462H436.267V107.472C436.267 108.734 437.021 109.873 438.182 110.365L438.425 110.468C440.516 111.354 441.875 113.406 441.875 115.678V129.453C441.875 130.443 441.073 131.245 440.084 131.245H427.768C426.778 131.245 425.977 130.443 425.977 129.453V115.678C425.977 113.406 427.335 111.354 429.427 110.468L429.67 110.365C430.831 109.873 431.585 108.734 431.585 107.472Z" fill="#A4D0EB"/>
<path d="M431.421 102.753H436.43C436.909 102.753 437.297 102.365 437.297 101.886V101.053C437.297 100.574 436.909 100.186 436.43 100.186H431.421C430.943 100.186 430.555 100.574 430.555 101.053V101.886C430.555 102.365 430.943 102.753 431.421 102.753ZM440.084 131.245H427.768C426.778 131.245 425.977 130.443 425.977 129.453V116.354H441.875V129.453C441.875 130.443 441.073 131.245 440.084 131.245Z" fill="#94C9EB"/>
<path d="M408.982 131.245H427.49C427.984 131.245 428.384 130.844 428.384 130.35V111.393C428.384 108.819 426.299 106.732 423.727 106.732H412.745C410.173 106.732 408.087 108.819 408.087 111.393V130.35C408.087 130.844 408.488 131.245 408.982 131.245Z" fill="#B2D8F0"/>
<path d="M420.39 103.984H413.056C412.758 103.984 412.517 104.225 412.517 104.523V108.402C412.517 108.7 412.758 108.941 413.056 108.941H423.415C423.713 108.941 423.954 108.7 423.954 108.402V104.523C423.954 104.225 423.713 103.984 423.415 103.984H420.39V103.984Z" fill="#B2D8F0"/>
<path d="M420.701 103.42H412.23C411.933 103.42 411.691 103.661 411.691 103.959V104.654C411.691 104.952 411.933 105.193 412.23 105.193H424.241C424.539 105.193 424.78 104.952 424.78 104.654V103.959C424.78 103.661 424.539 103.42 424.241 103.42H420.701Z" fill="#9BCCEB"/>
<path d="M428.384 120.879V130.35C428.384 130.844 427.984 131.245 427.49 131.245H408.982C408.488 131.245 408.087 130.844 408.087 130.35V120.879H428.384Z" fill="#A4D0EB"/>
<path d="M443.383 109.251V103.691H449.291V109.251C449.291 110.418 449.989 111.472 451.063 111.927L451.288 112.023C453.223 112.842 454.48 114.741 454.48 116.843V129.587C454.48 130.503 453.738 131.245 452.823 131.245H439.852C438.937 131.245 438.195 130.503 438.195 129.587V116.843C438.195 114.741 439.452 112.842 441.386 112.023L441.611 111.927C442.686 111.472 443.383 110.418 443.383 109.251Z" fill="#B2D8F0"/>
<path d="M443.232 104.885H449.443C449.886 104.885 450.245 104.526 450.245 104.083V103.312C450.245 102.869 449.886 102.51 449.443 102.51H443.232C442.789 102.51 442.43 102.869 442.43 103.312V104.083C442.43 104.526 442.789 104.885 443.232 104.885Z" fill="#9BCCEB"/>
<path d="M452.823 131.245H439.852C438.937 131.245 438.195 130.503 438.195 129.587V117.468H454.48V129.587C454.48 130.503 453.738 131.245 452.823 131.245Z" fill="#A4D0EB"/>
<path d="M113.052 219.996C113.052 219.996 120.892 218.482 122.68 219.996C124.468 221.51 127.872 226.052 128.869 230.732C129.867 235.412 132.445 238.234 132.996 239.989C133.546 241.744 119.356 236.238 116.616 232.659C115.528 230.87 114.84 233.833 113.739 233.866C112.639 233.898 109.063 221.647 113.052 219.996Z" fill="#C2DFF0"/>
<path d="M126.118 234.175C126.173 234.175 126.228 234.161 126.278 234.13C126.424 234.042 126.472 233.852 126.383 233.705C124.728 230.955 119.176 223.875 113.094 217.233C108.005 211.677 101.299 205.036 98.2504 204.957C98.2167 204.957 98.1821 204.956 98.1484 204.956C92.7201 204.956 88.5894 216.152 88.4151 216.632C88.3567 216.792 88.4396 216.97 88.6001 217.029C88.7605 217.087 88.9383 217.004 88.9968 216.843C89.0379 216.73 93.1519 205.575 98.1477 205.575C98.1769 205.575 98.2052 205.576 98.2343 205.577C100.411 205.633 105.661 210.034 112.637 217.652C118.694 224.265 124.213 231.3 125.853 234.025C125.911 234.121 126.014 234.175 126.118 234.175Z" fill="#B2D8F0"/>
<path d="M98.2425 183.657C98.2425 183.657 106.449 182.693 108.375 182.968C110.301 183.244 117.453 189.575 119.791 193.292C122.129 197.008 122.369 201.275 122.111 202.239C121.854 203.202 110.438 199.417 107.412 198.695C104.386 197.972 104.524 195.219 103.698 194.118C102.873 193.017 101.987 196.871 100.917 196.733C99.8471 196.595 97.7381 187.648 98.2425 183.657Z" fill="#C2DFF0"/>
<path d="M86.7809 217.048C86.9396 217.048 87.0745 216.927 87.0888 216.765C87.1053 216.579 88.7483 198.115 89.6948 194.191C90.589 190.483 92.4523 182.769 98.1797 183.96C103.98 185.166 109.903 190.976 109.962 191.035C110.084 191.155 110.28 191.154 110.4 191.032C110.52 190.911 110.519 190.715 110.397 190.594C110.151 190.35 104.287 184.597 98.3057 183.354C95.587 182.789 93.3568 183.937 91.6782 186.768C90.2796 189.126 89.5369 192.206 89.0932 194.045C88.1359 198.014 86.5399 215.949 86.4723 216.711C86.4571 216.881 86.583 217.031 86.7533 217.046C86.7625 217.047 86.7717 217.048 86.7809 217.048Z" fill="#B2D8F0"/>
<path d="M89.6691 170.443C89.6691 170.443 99.2974 171.2 103.286 162.15C101.911 160.395 98.2428 160.808 98.2428 160.808C98.2428 160.808 101.437 152.686 100.917 151.585C100.398 150.484 97.234 144.6 96.4776 144.238C95.7211 143.877 83.9611 151.035 83.0326 152.962C82.1042 154.889 86.093 166.451 89.6691 170.443Z" fill="#C2DFF0"/>
<path d="M86.0468 217.048C86.2139 217.048 86.3516 216.915 86.3562 216.746C86.3635 216.475 87.1224 189.384 89.9749 170.489C92.8094 151.713 96.4804 146.694 96.517 146.646C96.6202 146.51 96.594 146.315 96.4583 146.212C96.3227 146.109 96.129 146.134 96.0253 146.27C95.8716 146.47 92.2302 151.403 89.3629 170.397C86.5046 189.329 85.7448 216.458 85.7375 216.73C85.7329 216.901 85.8677 217.043 86.0384 217.048C86.0412 217.048 86.044 217.048 86.0468 217.048Z" fill="#B2D8F0"/>
<path d="M64.9109 184.208C64.9109 184.208 66.4238 176.138 66.4238 174.022C66.4238 171.905 52.6693 165.488 45.2418 165.212C44.3479 167.879 47.9928 177.05 49.5057 179.252C47.9928 180.216 47.03 180.64 47.03 181.598C47.03 181.598 51.5689 182.418 53.2195 184.208C54.8701 185.997 63.3978 185.859 64.9109 184.208Z" fill="#C2DFF0"/>
<path d="M80.6599 217.048C80.7011 217.048 80.7429 217.039 80.7832 217.022C80.9399 216.953 81.0116 216.771 80.9435 216.614C80.8312 216.356 69.6702 190.725 65.1675 184.034C60.6514 177.324 51.2981 170.281 51.2042 170.21C51.0673 170.108 50.8735 170.135 50.7711 170.273C50.6686 170.41 50.6965 170.604 50.8334 170.706C50.9266 170.776 60.1972 177.757 64.6541 184.38C69.1256 191.025 80.2638 216.604 80.3759 216.861C80.4265 216.978 80.5403 217.048 80.6599 217.048Z" fill="#B2D8F0"/>
<path d="M56.6581 195.219C56.6581 195.219 59.6841 203.478 59.6841 208.984C55.7632 208.984 53.6321 207.521 53.6321 207.521C53.6321 207.521 53.2195 214.627 52.6694 215.866C52.1192 217.105 39.6026 217.793 39.6026 217.793C39.6026 217.793 42.216 201.757 43.729 198.694C45.2419 195.632 54.3199 194.944 56.6581 195.219Z" fill="#C2DFF0"/>
<path d="M52.9424 214.756C53.338 211.728 51.5729 207.344 51.4256 205.723C51.259 203.889 53.0913 204.556 55.3402 206.14C57.5891 207.723 59.6841 208.984 59.6841 208.984C55.7632 208.984 53.6321 207.521 53.6321 207.521C53.6321 207.521 53.3505 212.371 52.9424 214.756Z" fill="#B2D8F0"/>
<path d="M85.2674 217.048C85.2935 217.048 85.3202 217.044 85.3468 217.037C85.512 216.993 85.6105 216.824 85.5668 216.659C85.3188 215.72 79.4559 193.644 76.2659 190.59C74.1976 188.61 69.7024 189.391 67.2066 190.033C63.4145 191.007 59.3024 192.899 56.4755 194.969C51.2299 198.81 45.7378 203.41 41.3079 213.564C41.2395 213.72 41.311 213.903 41.4677 213.971C41.6244 214.04 41.8068 213.968 41.8751 213.811C46.2434 203.799 51.6636 199.26 56.8409 195.469C62.6859 191.189 72.9481 188.272 75.8381 191.038C78.9032 193.972 84.9081 216.589 84.9684 216.817C85.0051 216.956 85.1304 217.048 85.2674 217.048Z" fill="#B2D8F0"/>
<path d="M57.6211 218.849C57.6211 218.849 62.4351 228.667 62.8478 230.595C63.2604 232.522 58.8591 230.155 57.6211 229.824C56.3832 229.493 55.9706 230.319 57.0709 232.659C58.1712 234.999 59.4092 236.926 59.6842 238.165C59.9593 239.404 50.8813 245.736 49.6435 248.902C49.6435 248.902 46.48 236.861 46.2048 233.866C45.9297 230.87 47.4428 230.457 47.4428 230.457L45.9298 230.87C45.9298 230.87 45.3797 228.667 45.9298 227.91C46.48 227.153 54.4576 219.078 57.6211 218.849Z" fill="#C2DFF0"/>
<path d="M51.0193 242.879C51.1686 242.879 51.3 242.771 51.3245 242.619C52.5927 234.722 56.2121 222.664 57.9024 218.978L58.0458 218.665C59.8548 214.711 62.8823 208.092 67.2131 208.603C71.7271 209.135 79.1926 216.874 79.2674 216.952C79.3858 217.076 79.5817 217.08 79.7051 216.961C79.8285 216.843 79.8324 216.647 79.7142 216.524C79.4022 216.198 72.0179 208.545 67.2855 207.988C62.5113 207.426 59.3623 214.3 57.4831 218.407L57.3401 218.719C55.4556 222.829 51.9038 235.11 50.7136 242.521C50.6865 242.689 50.8012 242.848 50.9701 242.875C50.9865 242.878 51.0029 242.879 51.0193 242.879Z" fill="#B2D8F0"/>
<path d="M75.9146 236.066H96.1795L98.2427 217.793H73.8514L75.9146 236.066Z" fill="#C2DFF0"/>
<path d="M97.982 220.102H82.6391C82.6391 220.102 80.0494 230.472 96.7676 230.858L96.1796 236.066H75.9147L73.8515 217.793H98.2427L97.982 220.102Z" fill="#B2D8F0"/>
<path d="M72.1854 218.848H99.9084C100.465 218.848 100.917 218.396 100.917 217.839V217.747C100.917 217.19 100.465 216.738 99.9084 216.738H72.1854C71.6284 216.738 71.1768 217.19 71.1768 217.747V217.839C71.1768 218.396 71.6284 218.848 72.1854 218.848Z" fill="#C2DFF0"/>
<path d="M100.917 231.665H71.1768L73.24 236.066H98.8538L100.917 231.665Z" fill="#C2DFF0"/>
<path d="M261.941 359.715C257.004 335.246 255.508 320.551 255.508 320.551C255.442 319.748 255.407 318.937 255.407 318.117C255.407 301.913 271.509 288.777 287.701 288.777C303.593 288.777 316.531 301.43 317.005 317.219C317.74 323.504 319.427 338.168 321.244 355.511C302.835 357.88 282.646 359.458 261.941 359.715Z" fill="#F6AF9A"/>
<path d="M255.405 359.751C254.706 350.29 253.096 325.724 254.185 313.018C255.551 297.07 274.37 281.881 289.7 283.704C289.7 283.704 310.645 283.4 318.385 307.854C322.743 321.622 324.705 343.068 325.499 354.945C304.064 357.888 280.003 359.782 255.405 359.751Z" fill="#59586D"/>
<path d="M255.405 359.751C255.163 356.483 254.813 351.412 254.503 345.65L264.809 307.246C264.809 307.246 270.424 316.511 274.219 327.295C275.888 332.003 279.075 329.877 283.78 325.624C288.485 321.371 297.44 310.435 297.44 310.435C297.44 310.435 291.369 324.257 287.271 332.003C283.569 339.001 282.221 342.653 283.673 358.969C274.412 359.485 264.949 359.763 255.405 359.751Z" fill="#4F4E66"/>
<path d="M303.641 267.405C301.837 263.702 301.753 259.344 301.248 255.426C301.248 255.426 294.941 241.235 264.537 241.321C237.758 241.397 225.892 251.131 225.892 251.131C225.78 259.388 218.019 269.904 214.791 277.91C208.547 293.395 204.203 304.805 205.289 318.117C206.375 331.429 253.825 339.122 271.677 333.739C298.701 325.588 315.687 309.373 315.687 309.373C315.687 309.373 314.056 288.777 303.641 267.405Z" fill="#F6AF9A"/>
<path d="M303.928 257.389C303.928 257.389 304.497 265.705 306.546 270.603C308.595 275.502 316.336 289.513 318.271 307.626C319.068 312.068 294.594 327.903 277.178 334.623C259.762 341.344 226.182 336.332 213.092 329.611C200.001 322.89 200.798 311.499 200.798 309.79C200.798 308.081 205.465 293.044 207.855 286.096C210.246 279.147 216.62 268.211 219.808 263.541C222.995 258.87 223.109 254.541 223.109 254.541C223.109 254.541 240.421 259.147 266.023 260.009C289.7 260.807 303.928 257.389 303.928 257.389Z" fill="#59586D"/>
<path d="M207.355 287.568C207.53 287.046 207.698 286.553 207.855 286.096C210.246 279.147 216.62 268.211 219.807 263.541C222.995 258.87 223.108 254.541 223.108 254.541C223.108 254.541 240.421 259.147 266.023 260.009C270.908 260.174 275.391 260.159 279.43 260.031C277.769 266.199 273.915 274.59 273.915 274.59C273.915 274.59 260.103 278.084 245.381 276.413C232.126 274.909 216.165 273.528 207.355 287.568ZM264.809 307.246C264.809 307.246 270.424 316.511 274.219 327.295C275.888 332.003 279.075 329.877 283.78 325.624C288.485 321.371 297.44 310.436 297.44 310.436C297.44 310.436 292.537 321.599 288.569 329.483C284.661 331.464 280.769 333.238 277.178 334.624C271.584 336.782 264.323 337.73 256.609 337.8L264.809 307.246Z" fill="#4F4E66"/>
<path d="M290.458 271.552C290.458 271.552 290.61 278.236 291.217 284.463C291.824 290.69 290.914 306.486 290.155 308.309C289.396 310.132 280.745 311.043 278.468 309.524C277.254 308.461 276.95 295.702 276.799 289.171C276.647 282.64 273.915 271.856 273.915 271.856L290.458 271.552Z" fill="#4F4E66"/>
<path d="M280.544 279.194C280.448 277.561 281.588 276.165 283.091 276.077C284.593 275.988 285.89 277.239 285.986 278.872C286.082 280.505 284.942 281.901 283.44 281.99C281.937 282.079 280.641 280.827 280.544 279.194Z" fill="#46455E"/>
<path d="M199.561 355.995C199.314 332.198 202.203 318.117 202.203 318.117C205.747 298.212 217.743 288.777 233.935 288.777C250.128 288.777 266.617 301.913 266.617 318.117C266.617 319.312 266.544 320.488 266.406 321.645C266.024 327.818 265.124 341.656 263.674 359.69C242.428 360.03 220.6 358.99 199.561 355.995Z" fill="#F6AF9A"/>
<path d="M193.464 355.069C195.277 329.736 196.788 315.803 201.671 306.031C207.134 295.095 222.767 284.767 240.828 288.26C258.889 291.753 267.085 306.942 268.907 317.422C270.347 325.713 271.788 349.78 272.327 359.476C246.352 360.345 219.207 359.236 193.464 355.069Z" fill="#59586D"/>
<path d="M208.372 326.312C209.323 317.746 210.617 310.3 212.218 304.181C214.793 294.335 217.299 291.157 217.678 290.718C220.672 279.04 224.998 273.055 227.079 270.176C227.326 269.833 227.54 269.537 227.716 269.281C229.349 266.905 232.362 258.787 232.392 258.705C232.441 258.572 232.589 258.504 232.721 258.554C232.854 258.603 232.922 258.75 232.873 258.883C232.748 259.219 229.807 267.143 228.139 269.571C227.959 269.833 227.743 270.131 227.494 270.477C225.428 273.335 221.13 279.282 218.158 290.906C218.148 290.947 218.127 290.985 218.098 291.017C218.071 291.046 215.388 294.033 212.684 304.422C210.367 313.325 207.595 329.514 207.026 356.973C206.856 356.953 206.685 356.932 206.514 356.912C206.749 345.583 207.371 335.314 208.372 326.312Z" fill="#46455E"/>
<path d="M331.244 252.474C331.244 252.474 311.464 254.748 305.572 254.748C299.68 254.748 291.656 253.036 288.962 248.066C286.269 243.096 291.524 235.761 295.247 234.533C300.353 232.848 306.329 234.701 310.79 235.543C315.251 236.386 324.089 238.07 327.372 238.492C330.654 238.913 333.769 238.576 336.21 240.008C338.65 241.44 340.322 244.345 340.25 247.252C340.166 250.621 335.789 252.306 331.244 252.474Z" fill="#F6AF9A"/>
<path d="M329.627 252.656C327.855 252.854 324.812 253.187 321.426 253.53C322.125 253.066 322.972 252.2 323.079 251.772C323.36 250.649 322.574 249.133 322.406 246.999L329.627 252.656ZM352.314 245.314C352.314 245.314 356.691 248.964 357.308 249.975C357.925 250.986 356.522 252.558 352.875 252.053C349.228 251.547 327.68 249.526 327.68 249.526L326.053 241.552C326.053 241.552 330.177 240.232 332.927 240.344C332.927 240.344 336.294 239.137 339.324 239.418C342.354 239.699 346.703 241.72 347.6 242.562C348.498 243.405 352.314 245.314 352.314 245.314Z" fill="#EA9A88"/>
<path d="M332.927 240.344C335.561 241.706 338.278 243.228 339.871 245.82C338.992 242.805 335.852 240.941 332.927 240.344Z" fill="#E08C79"/>
<path d="M350.182 242.871C350.182 242.871 351.472 240.99 352.707 241.046C353.324 241.103 353.604 242.338 353.604 243.742C353.604 245.146 353.324 250.93 353.156 252.109C352.987 253.288 348.274 257.331 346.927 258.286C345.58 259.24 343.729 258.342 343.729 258.342C343.729 258.342 339.857 260.869 337.893 258.117C337.893 258.117 334.245 259.858 332.899 256.433C332.899 256.433 330.654 256.601 328.802 255.141C326.951 253.681 323.023 248.571 322.406 246.999C321.788 245.426 323.191 242.563 326.053 241.552C326.839 241.327 332.394 244.921 334.694 247.336C334.694 247.336 335.48 246.437 335.817 245.876C336.153 245.314 337.388 242.899 338.51 242.843C339.632 242.787 340.025 242.956 340.25 244.753C340.25 244.753 341.484 241.327 343.055 241.271C344.626 241.215 345.384 242.703 345.384 242.703C345.384 242.703 346.764 237.745 348.779 238.014C350.462 238.239 350.125 240.064 350.182 242.871Z" fill="#F6AF9A"/>
<path d="M350.182 242.871C350.003 244.779 349.803 246.684 349.605 248.589C349.479 249.333 349.542 250.163 349.199 250.839C348.265 252.291 347.125 253.65 346.17 255.093C345.88 255.609 345.246 256.261 345.154 256.731C346.921 254.886 348.824 252.94 349.805 250.551C350.025 248.053 350.269 245.218 350.182 242.871ZM345.384 242.703C345.078 244.61 344.75 246.516 344.383 248.411C344.257 249.026 344.157 249.641 343.824 250.182C342.851 251.817 341.626 253.344 340.6 254.952C340.316 255.478 339.689 256.143 339.599 256.619C341.571 254.544 343.518 252.26 344.552 249.56C344.923 247.347 345.348 244.789 345.384 242.703ZM340.25 244.753C339.815 246.248 339.112 248.641 338.678 250.111C338.267 251.096 337.275 251.741 336.6 252.554C335.945 253.296 335.16 254.018 334.624 254.824C335.067 254.607 335.468 254.237 335.868 253.937C337.09 252.876 338.487 251.772 339.097 250.229C339.265 249.572 339.526 248.352 339.675 247.68C339.809 246.748 340.267 245.547 340.25 244.753ZM331.612 248.206C332.155 247.911 333.207 247.781 333.882 247.437C334.209 247.359 334.469 247.02 334.801 247.062C335.078 247.164 334.944 247.469 334.864 247.664C334.667 248.186 334.554 248.761 334.312 249.263C334.115 248.847 334.089 248.288 334.213 247.789C333.368 248.043 332.495 248.173 331.612 248.206Z" fill="#E08C79"/>
<path d="M338.308 241.485C339.563 240.826 340.048 239.274 339.39 238.017L335.641 230.854C334.984 229.597 333.432 229.112 332.176 229.77C330.92 230.428 330.435 231.981 331.093 233.238L334.842 240.401C335.5 241.658 337.052 242.143 338.308 241.485Z" fill="white"/>
<path d="M332.176 229.77C333.432 229.112 334.983 229.597 335.641 230.854L337.516 234.435L333.005 236.8L332.951 236.788L331.093 233.238C330.435 231.981 330.92 230.428 332.176 229.77Z" fill="#EB7171"/>
<path d="M309.851 154.695C309.851 154.695 316.682 159.524 315.799 171.401C314.915 183.277 309.36 207.789 308.602 211.706C307.844 215.623 302.037 249.357 291.263 251.547C284.066 251.674 279.521 247.925 281.499 238.239C283.471 228.582 290.295 190.1 291.305 179.361C292.315 168.621 295.205 150.525 309.851 154.695Z" fill="#F6AF9A"/>
<path d="M308.975 209.734C308.975 209.734 310.037 212.088 310.72 214.291C311.403 216.493 309.203 218.468 302.98 216.417C302.98 216.417 293.949 218.923 289.927 214.443C289.927 214.443 281.2 215.126 279 211.785C278.62 210.646 283.78 205.33 283.78 205.33L308.975 209.734Z" fill="#BE80CF"/>
<path d="M313.49 157.485C313.49 157.485 319.751 167.168 317.588 182.319C316.108 192.799 314.059 194.508 313.263 198.267C312.466 202.026 312.921 208.633 310.303 210.228C307.685 211.823 304.384 210.114 304.384 210.114C304.384 210.114 294.025 210.798 291.407 207.608C291.407 207.608 285.146 208.406 282.073 205.33C279 202.254 280.935 195.761 281.959 190.977C282.984 186.192 283.604 175.828 283.439 170.7C283.097 160.105 298.92 140.74 313.49 157.485Z" fill="#E37968"/>
<path d="M281.959 190.976C282.983 186.192 283.604 175.828 283.439 170.699C283.401 169.523 283.563 168.239 283.899 166.908C293.731 162.75 302.312 160.843 309.961 166.143C309.961 166.143 309.734 169.446 310.758 173.661C311.733 177.673 311.471 186.637 316.547 188.082C315.266 193.651 313.884 195.336 313.262 198.267C312.466 202.026 312.921 208.633 310.303 210.228C307.685 211.823 304.384 210.114 304.384 210.114C304.384 210.114 294.025 210.797 291.407 207.608C291.407 207.608 285.146 208.405 282.073 205.33C278.999 202.254 280.934 195.761 281.959 190.976Z" fill="#DB6F5E"/>
<path d="M304.142 227.478C304.142 227.478 311.72 223.571 312.769 216.032C313.818 208.493 306.566 185.122 305.018 173.54C303.47 161.958 312.469 164.963 313.456 159.131C313.456 159.131 312.505 157.079 309.739 154.512C305.488 150.568 297.232 145.167 283.73 142.246C276.723 140.729 275.97 138.839 270.918 138.576C270.918 138.576 254.69 139.79 239.208 143.347C226.574 146.249 220.459 151.625 218.151 155.735C215.844 159.845 212.48 170.179 215.847 183.656C218.854 195.694 222.295 207.631 223.254 220.213C223.717 226.291 224.264 245.188 222.37 263.129C222.37 263.129 226.178 271.591 262.539 273.36C293.451 274.863 302.668 265.404 302.668 265.404C303.207 253.658 304.142 227.478 304.142 227.478Z" fill="#F6AF9A"/>
<path d="M280.734 144.964L282.296 114.785C282.738 108.82 279.256 103.027 273.38 100.805C266.227 98.1006 258.237 101.711 255.534 108.869C255.166 109.843 254.916 110.833 254.775 111.822C254.775 111.822 248.658 143.739 248.658 143.739C248.61 143.961 248.442 144.975 248.442 144.975C247.168 152.505 251.424 159.591 258.831 162.392C267.246 165.574 276.311 161.709 279.491 153.288C280.482 150.664 280.611 147.857 280.734 144.964Z" fill="#F6AF9A"/>
<path d="M282.296 114.785C282.738 108.82 279.256 103.027 273.38 100.805C266.227 98.1006 258.237 101.711 255.534 108.869C255.167 109.843 254.916 110.833 254.775 111.822C254.775 111.822 254.457 113.48 254.457 113.48C259.106 127.978 269.178 139.483 280.822 143.265L282.296 114.785Z" fill="#EA9A88"/>
<path d="M205.753 290.918C205.753 290.918 219.883 233.125 220.035 228.037C220.187 222.949 219.049 211.405 217.607 206.089C216.165 200.773 211.764 180.344 212.674 165.611C213.585 150.878 224.69 146.803 224.69 146.803C231.267 144.423 244.926 141.487 245.736 141.031C246.545 140.575 249.682 139.158 249.682 139.158C253.324 147.005 266.782 151.41 273.915 150.195C281.048 148.98 280.998 141.537 280.998 141.537C280.998 141.537 288.738 142.651 293.039 144.018C297.339 145.385 309.633 150.904 313.68 157.941C314.338 159.916 313.68 163.004 311.909 164.776C310.138 166.548 308.216 170.193 309.633 176.117C311.049 182.04 318.271 210.228 315.994 220.708C313.718 231.188 306.888 233.808 306.888 233.808C306.888 233.808 307.799 236.315 306.205 237.454C306.205 237.454 307.457 246.111 308.482 250.782C309.506 255.452 315.366 279.83 317.394 291.193C317.394 291.193 294.524 293.912 264.301 294.164C234.078 294.416 205.753 290.918 205.753 290.918Z" fill="#E37968"/>
<path d="M205.753 290.918C205.753 290.918 219.884 233.125 220.035 228.037C220.187 222.949 219.049 211.405 217.607 206.089C216.165 200.773 211.764 180.345 212.674 165.611C212.901 161.95 213.757 158.947 214.916 156.501L240.375 154.156C240.375 154.156 244.633 160.243 246.255 167.954C247.877 175.664 250.513 208.333 250.513 208.333C250.513 208.333 246.661 211.783 243.619 211.783L244.025 220.914C244.025 220.914 270.587 214.218 281.333 211.783C292.079 209.348 296.743 205.289 299.379 202.854C301.428 200.962 310.091 201.153 315.086 201.809C316.274 209.245 316.921 216.443 315.995 220.708C315.023 225.182 313.221 228.22 311.476 230.237C310.271 229.825 309.034 229.432 307.895 229.233C303.854 228.528 296.337 231.465 293.499 230.653C293.499 230.653 265.923 242.625 257.813 250.133C249.702 257.641 233.482 260.684 226.588 258.046C222.735 256.626 221.316 269.206 220.91 271.439C220.505 273.671 227.196 277.12 227.804 283.004C228.288 287.685 259.689 288.386 272.516 288.477C275.476 288.498 277.851 290.926 277.809 293.887C273.523 294.027 269.001 294.125 264.301 294.165C234.078 294.417 205.753 290.918 205.753 290.918Z" fill="#DB6F5E"/>
<path d="M271.193 156.495C272.83 156.495 274.355 156.319 275.714 155.961C283.973 153.786 285.14 146.896 285.186 146.604C285.273 146.043 284.89 145.518 284.33 145.43C283.772 145.346 283.247 145.725 283.158 146.283C283.117 146.533 282.108 152.153 275.192 153.974C268.175 155.822 255.042 151.942 249.259 144.353C248.915 143.901 248.271 143.815 247.82 144.159C247.369 144.503 247.283 145.147 247.626 145.598C250.457 149.314 255.297 152.586 260.904 154.574C264.482 155.842 268.044 156.495 271.193 156.495Z" fill="#D97262"/>
<path d="M281.959 230.847C267.704 233.882 251.004 235.261 238.704 225.986C249.995 236.634 268.206 235.472 281.959 230.847ZM306.888 233.808C302.52 233.342 297.979 233.45 293.646 232.669C297.572 234.951 302.589 234.881 306.888 233.808ZM306.205 237.454C304.977 237.562 304.129 238.018 303.056 238.593C304.048 239.618 305.99 238.788 306.205 237.454Z" fill="#CF6353"/>
<path d="M226.158 148.026C226.158 148.026 236.763 147.521 240.172 158.765C243.374 169.328 240.519 193.448 240.046 202.735C239.572 212.021 244.717 250.621 228.809 252.737C221.234 253.021 214.715 245.964 214.163 237.354C213.532 227.499 214.037 204.188 212.901 194.522C211.765 184.856 208.103 151.311 226.158 148.026Z" fill="#F6AF9A"/>
<path d="M240.476 222.595C240.469 224.359 240.433 226.15 240.355 227.933L229.938 228.91C233.217 225.067 238.653 223.152 240.476 222.595Z" fill="#EA9A88"/>
<path d="M227.168 146.55C227.168 146.55 239.69 146.398 243.636 161.131C245.229 167.055 245.533 177.914 245.305 182.775C245.078 187.635 246.179 207.369 246.179 207.369C246.179 207.369 238.316 211.25 226.334 211.25C214.351 211.25 210.231 207.995 210.231 207.995C210.231 207.995 210.245 195.457 210.094 192.951C209.942 190.445 208.5 173.738 209.183 166.067C209.866 158.397 216.241 146.854 227.168 146.55Z" fill="#E37968"/>
<path d="M292.441 227.373C292.441 227.373 277.291 235.206 266.811 240.513C258.679 244.631 240.55 252.453 228.809 252.737C224.39 252.895 218.298 247.904 218.961 241.271C219.624 234.638 228.757 226.091 250.903 223.077C266.685 220.929 286.633 214.327 291.178 213.475C295.724 212.622 305.035 220.74 292.441 227.373Z" fill="#F6AF9A"/>
<path d="M291.095 227.289C291.095 227.289 294.714 227.246 296.608 227.246C298.502 227.246 305.719 225.972 308.265 225.52C310.811 225.067 314.883 226.583 316.114 227.436C317.345 228.289 319.712 229.9 320.849 229.616C321.985 229.331 321.417 226.488 320.091 224.783C318.766 223.077 313.273 220.518 311.758 220.139C310.243 219.76 310.054 219.855 309.391 219.76C309.391 219.76 308.918 215.686 308.065 214.169C308.065 214.169 300.259 215.485 291.095 227.289Z" fill="#EA9A88"/>
<path d="M310.475 221.336L319.688 210.052L334.328 222.021C334.965 222.542 333.42 225.491 330.876 228.607C328.331 231.723 325.752 233.827 325.115 233.306C325.115 233.306 310.475 221.336 310.475 221.336Z" fill="#FFCC83"/>
<path d="M324.135 232.663C324.612 232.663 325.304 232.289 326.229 231.535C327.331 230.636 328.623 229.302 329.865 227.781C331.107 226.259 332.155 224.727 332.816 223.467C333.568 222.031 333.719 221.157 333.277 220.795C333.155 220.696 332.976 220.714 332.877 220.835C332.778 220.957 332.796 221.136 332.917 221.235C332.981 221.287 333.063 221.772 332.313 223.203C331.669 224.43 330.644 225.929 329.425 227.421C328.206 228.914 326.944 230.218 325.87 231.094C324.618 232.115 324.127 232.131 324.064 232.08C323.943 231.98 323.764 231.998 323.664 232.12C323.565 232.242 323.583 232.421 323.705 232.52C323.821 232.615 323.964 232.663 324.135 232.663Z" fill="#FFC07B"/>
<path d="M310.442 221.308C309.804 220.787 311.35 217.838 313.894 214.722C316.438 211.606 319.017 209.502 319.655 210.023C320.292 210.544 318.746 213.493 316.202 216.609C313.658 219.725 311.079 221.829 310.442 221.308Z" fill="#FFC07B"/>
<path d="M286.718 229.31C286.718 229.31 291.021 226.868 293.577 226.678C296.134 226.489 301.437 222.603 302.952 217.012C303.615 216.633 310.811 214.17 311.853 213.601C311.853 213.601 316.493 217.107 317.44 217.771C318.386 218.434 320.28 218.813 320.943 217.96C320.943 217.96 321.795 220.613 324.352 220.329C324.352 220.329 325.962 221.087 327.193 220.613C327.666 220.329 325.299 213.696 324.825 212.559C324.352 211.422 318.197 206.399 317.629 205.831C317.061 205.262 305.414 204.504 304.088 204.788C302.762 205.073 301.721 206.399 301.342 206.589C300.963 206.778 298.88 207.631 298.122 208.579C297.365 209.526 290.75 213.687 284.108 216.423C274.166 220.519 278.153 232.89 286.718 229.31Z" fill="#F6AF9A"/>
<path d="M320.943 217.96C320.728 216.185 319.656 214.788 318.306 213.701C316.839 212.416 315.343 211.17 313.758 210.029C313.625 209.934 313.456 209.891 313.299 209.862C311.123 209.526 308.925 209.569 306.734 209.627C305.887 209.684 304.966 209.652 304.157 209.813C305.403 210.003 306.728 210.007 308.002 210.097C309.665 210.202 311.411 210.194 313.062 210.332C313.21 210.355 313.371 210.357 313.5 210.437C315.445 211.748 317.315 213.2 319.084 214.743C320.172 215.51 320.553 216.943 320.943 217.96Z" fill="#E08C79"/>
<path d="M324.352 220.329C325.362 218.565 322.488 214.057 321.722 212.183C321.585 211.936 321.471 211.65 321.271 211.438C320.421 210.594 319.486 209.855 318.58 209.078C317.421 208.135 316.263 207.145 315.01 206.341C313.72 206.215 312.311 206.086 311.018 206.034C311.438 206.307 312.378 206.319 312.974 206.491C313.466 206.584 314.451 206.754 314.945 206.836L314.825 206.786C316.843 208.548 319.132 210.015 321.076 211.852C321.913 213.272 322.637 214.766 323.375 216.245C323.989 217.498 324.799 219.04 324.352 220.329Z" fill="#E08C79"/>
<path d="M311.645 62.4399C311.645 62.4399 314.586 64.1647 316.917 68.3243C319.249 72.484 319.756 76.1364 318.235 78.7742C316.715 81.412 316.106 82.9338 317.526 85.9775C318.945 89.0213 321.378 92.7751 320.364 97.442C319.35 102.109 314.89 104.24 313.572 106.573C312.254 108.907 312.963 112.153 313.065 115.4C313.166 118.646 311.24 120.777 309.314 123.313C307.387 125.85 305.765 127.27 306.576 131.328C307.387 135.386 308.705 138.024 306.678 140.764C304.65 143.503 301 142.793 297.959 141.575C294.918 140.358 292.586 139.851 291.167 140.459C289.747 141.068 285.895 141.981 284.678 138.126L311.645 62.4399Z" fill="white"/>
<path d="M291.103 54.6358C314.113 62.1202 318.173 81.5588 309.592 104.389C308.57 107.107 307.544 109.681 306.517 112.109C305.796 114.802 304.527 119.24 303.173 122.557C300.883 128.165 296.973 132.32 293.643 134.615C290.495 138.112 287.447 139.926 284.587 139.905C279.433 139.566 274.59 137.733 270.282 134.765C266.207 132.455 253.5 124.069 253.403 109.313C250.696 99.3033 250.693 87.9184 254.478 76.889C265.008 46.2079 291.103 54.6358 291.103 54.6358Z" fill="#F6AF9A"/>
<path d="M308.138 91.2789C301.526 87.7598 293.967 85.6254 286.445 85.881C293.865 86.8204 301.07 88.8583 308.138 91.2789ZM308.468 95.5205C300.828 93.9808 293.403 91.613 285.944 89.3917C292.981 92.7284 300.653 95.1519 308.468 95.5205ZM305.728 92.8228C300.417 90.8095 294.9 89.3462 289.287 88.4763C294.597 90.494 300.116 91.9484 305.728 92.8228ZM288.854 110.633C288.854 110.633 288.25 107.881 282.115 106.725C277.127 105.786 273.233 105.752 272.628 108.858C271.454 112.808 290.172 117.376 288.854 110.633ZM306.238 113.138C305.682 115.157 304.912 117.783 304.061 120.202C298.486 118.752 296.649 116.274 297.09 115.02C298.444 110.789 303.979 112.881 306.238 113.138Z" fill="#EA9A88"/>
<path d="M284.688 106.129C283.452 105.805 282.799 104.206 283.23 102.556C283.662 100.907 285.014 99.8327 286.25 100.157C287.487 100.481 288.14 102.08 287.708 103.729C287.277 105.379 285.925 106.453 284.688 106.129Z" fill="#121D3F"/>
<path d="M289.393 99.5218L288.531 102.413C288.531 102.413 284.78 101.348 283.614 101.196L284.526 98.0508L289.393 99.5218Z" fill="#F6AF9A"/>
<path d="M288.82 100.411C287.453 99.6471 284.96 98.4314 283.761 99.7916C284.641 100.131 285.377 100.126 286.271 100.1C287.069 100.043 288.217 100.506 288.82 100.411ZM289.24 103.238C289.488 103.238 289.715 103.076 289.788 102.826C289.875 102.524 289.701 102.207 289.399 102.119C289.364 102.109 285.843 101.091 283.109 100.584C282.8 100.528 282.502 100.732 282.445 101.042C282.387 101.352 282.592 101.649 282.902 101.707C285.579 102.203 289.047 103.205 289.081 103.215C289.134 103.231 289.188 103.238 289.24 103.238ZM283.891 106.025C283.897 106.025 283.903 106.025 283.91 106.026C282.907 105.606 281.933 105.122 281.029 104.51C282.943 104.862 284.863 105.483 286.715 106.08C288.4 107.953 281.74 106.338 281.19 105.815C282.096 105.919 282.985 105.994 283.891 106.025Z" fill="#EA9A88"/>
<path d="M299.995 106.167C299.58 107.755 300.208 109.296 301.399 109.608C302.59 109.92 303.892 108.885 304.308 107.297C304.724 105.709 304.095 104.168 302.904 103.856C301.713 103.544 300.411 104.578 299.995 106.167Z" fill="#121D3F"/>
<path d="M305.613 103.682L304.853 106.218C304.853 106.218 301.254 105.052 299.987 104.849L300.899 102.16L305.613 103.682Z" fill="#F6AF9A"/>
<path d="M301.162 103.127C302.926 103.228 304.315 104.293 306.072 104.387C305.579 102.754 302.355 102.674 301.162 103.127ZM305.462 106.941C305.704 106.941 305.928 106.785 306.005 106.542C306.1 106.241 305.933 105.921 305.633 105.826C305.48 105.778 301.868 104.643 299.128 104.135C298.82 104.077 298.52 104.282 298.463 104.592C298.406 104.902 298.61 105.2 298.92 105.257C301.591 105.752 305.253 106.903 305.29 106.914C305.347 106.932 305.405 106.941 305.462 106.941ZM299.406 109.079C299.446 108.827 299.692 108.663 299.941 108.716C301.71 109.004 303.544 109.286 305.259 109.82C304.293 109.962 303.322 109.969 302.353 109.912C302.78 110.11 303.628 110.45 304.076 110.631C302.762 110.609 299.97 110.367 299.406 109.079Z" fill="#EA9A88"/>
<path d="M290.91 117.852C291.894 118.151 293.191 118.449 294.129 118.313C295.627 118.095 295.604 116.817 295.582 115.581C295.578 115.377 295.574 115.154 295.573 114.912C295.551 106.903 296.268 103.01 296.275 102.971C296.357 102.537 296.075 102.121 295.639 102.037C295.206 101.954 294.788 102.239 294.705 102.673C294.674 102.834 293.952 106.729 293.975 114.917C293.976 115.168 293.98 115.399 293.984 115.61C293.991 116.044 294 116.531 293.952 116.72C293.938 116.724 293.921 116.727 293.899 116.73C292.999 116.861 291.105 116.282 290.123 115.886C289.712 115.721 289.248 115.919 289.083 116.329C288.918 116.738 289.116 117.204 289.525 117.369C289.652 117.42 290.199 117.636 290.91 117.852Z" fill="#E08C79"/>
<path d="M300.389 99.7394C300.389 99.7394 299.235 99.0317 299.688 98.1692C300.19 97.2123 300.357 96.7007 301.018 96.8462C301.679 96.9918 305.175 99.8317 308.014 101.624C310.885 103.436 310.607 103.494 310.598 103.9C310.59 104.307 309.41 105.016 306.417 103.337C302.93 101.38 303.927 102.015 300.389 99.7394ZM292.993 97.64C292.993 97.64 294.329 97.4279 294.241 96.4577C294.143 95.3814 294.184 94.8447 293.518 94.7261C292.851 94.6075 286.836 96.058 283.529 96.627C280.183 97.2026 278.684 97.2607 278.537 97.6394C278.389 98.0182 281.563 99.2306 284.97 98.8248C288.94 98.352 288.854 98.3881 292.993 97.64Z" fill="#E5E3E3"/>
<path d="M290.617 129.284C290.823 129.284 291.022 129.175 291.13 128.983C291.288 128.7 291.188 128.343 290.905 128.185C290.813 128.133 288.616 126.917 286.422 127.289C286.102 127.343 285.887 127.646 285.941 127.966C285.995 128.286 286.298 128.501 286.618 128.447C288.397 128.145 290.312 129.199 290.331 129.209C290.422 129.26 290.52 129.284 290.617 129.284Z" fill="#EA9A88"/>
<path d="M283.965 122.37C283.711 122.385 283.499 122.584 283.476 122.845C283.451 123.132 283.663 123.385 283.95 123.41C283.98 123.413 286.315 123.41 290.009 124.292C291.309 124.602 292.71 125.206 294.331 125.704C294.606 125.788 294.897 125.634 294.982 125.359C295.066 125.083 294.912 124.792 294.637 124.708C293.051 124.221 291.684 123.622 290.406 123.313C286.574 122.386 284.169 122.383 284.041 122.372C284.015 122.369 283.99 122.369 283.965 122.37Z" fill="#E08C79"/>
<path d="M288.43 116.67C286.285 117.81 284.174 118.881 281.865 119.619C284.347 120.091 287.057 118.744 288.43 116.67ZM295.605 119.287C294.924 121.025 295.773 123.227 297.354 124.171C296.771 122.531 296.129 120.948 295.605 119.287Z" fill="#EA9A88"/>
<path d="M230.237 108.163C233.616 104.375 236.049 103.699 238.888 101.805C241.727 99.911 241.186 93.553 241.591 88.4126C241.997 83.2722 246.863 76.3733 249.567 75.6969C252.27 75.0205 252.405 69.0684 252.811 65.1455C253.217 61.2226 272.006 39.1729 297.689 55.2705C297.689 55.2705 309.99 58.517 313.369 64.1986C316.748 69.8801 318.641 74.6147 317.154 77.8612C315.667 81.1078 314.585 84.3544 317.019 87.8715C319.452 91.3886 320.128 96.7997 317.965 100.046C315.802 103.293 312.558 104.645 312.152 107.351C311.747 110.056 312.693 117.496 310.395 119.931C308.097 122.366 304.988 127.777 305.394 131.024C305.799 134.27 307.557 137.246 305.934 139.411C304.312 141.575 302.285 142.387 299.581 140.764C296.878 139.14 293.769 138.599 291.741 139.411C289.985 140.114 287.621 140.207 286.668 139.604C288.909 138.96 291.247 137.276 293.643 134.614C296.973 132.319 300.883 128.164 303.173 122.556C304.446 119.439 305.64 115.34 306.378 112.621C307.606 109.138 308.707 106.625 309.592 104.388C310.936 100.993 312.693 91.4561 312.22 88.9535C311.747 86.451 308.919 83.0852 306.07 81.8178C301.203 79.6535 290.051 81.0061 287.889 75.8996C287.889 75.8996 285.118 82.325 279.575 88.5476C276.396 92.118 272.411 98.0168 269.167 98.1521C265.923 98.2873 262.814 107.215 262.814 111.003C262.814 114.791 264.571 120.472 261.868 123.178C259.164 125.883 259.57 125.748 260.246 129.806C260.922 133.864 254.974 133.594 252.946 131.565C250.919 129.536 249.837 128.048 246.728 128.589C243.619 129.13 237.401 126.695 236.725 123.854C236.05 121.013 238.888 117.496 234.833 116.279C230.778 115.062 226.858 111.95 230.237 108.163Z" fill="#E5E3E3"/>
<path d="M259.975 104.51C256.356 108.389 257.482 112.624 259.444 116.945C259.083 120.118 254.608 120.771 256.596 125.884C255.706 122.672 258.042 120.606 259.987 118.467C261.626 114.958 255.407 111.816 259.975 104.51ZM261.598 85.8424C257.235 86.8901 252.827 90.0283 253.863 95.0682C255.464 100.612 254.531 101.02 249.94 104.045C247.74 105.387 247.699 108.139 248.52 110.318C248.912 112.898 251.492 118.428 248.08 119.661C251.768 118.772 249.556 112.751 249.212 110.148C248.304 107.471 248.885 105.353 251.523 104.046C262.023 98.3864 246.424 92.2006 261.598 85.8424ZM250.108 82.8666C236.674 94.3576 254.167 99.3886 241.097 103.941C239.051 104.376 236.611 105.121 237.266 107.757C237.184 106.402 237.793 105.094 239.271 104.921C245.046 103.837 249.322 101.682 246.075 95.2701C244.224 90.7019 247.102 86.1837 250.108 82.8666ZM284.712 67.1748C281.081 82.1152 274.356 74.8687 272.46 82.0974C271.545 84.1756 272.302 88.3887 269.708 89.0893C272.518 88.8911 272.3 83.9119 273.33 81.8905C274.965 76.4049 282.737 82.1923 284.712 67.1748ZM290.39 69.6097C291.224 78.4589 302.875 74.8727 308.469 77.9685C311.969 80.3651 313.32 85.0029 313.234 89.0892C314.619 67.4229 292.714 81.5559 290.39 69.6097ZM314.586 93.2826C316.964 98.4061 308.169 102.403 309.719 108.027C309.463 102.719 318.304 98.5003 314.586 93.2826ZM305.664 121.69C305.655 124.517 302.814 125.988 302.043 128.504C301.362 130.676 301.677 132.971 302.128 135.141C302.901 137.338 301.772 139.41 299.311 139.276C301.126 139.932 303.237 138.255 303.078 136.332C302.925 134.63 302.516 132.907 302.558 131.199C302.043 127.492 306.233 125.304 305.664 121.69ZM291.741 61.2227C294.966 64.6672 299.775 65.0859 304.074 66.2495C309.631 67.5939 314.435 72.0701 314.045 78.1319C315.107 72.6098 311.3 67.7074 306.184 66.0113C301.395 64.1839 295.896 64.601 291.741 61.2227ZM285.388 58.1113C279.836 60.8146 272.881 58.7165 268.073 63.1915C263.639 67.0851 267.059 71.3175 266.405 75.5667C264.373 78.0446 259.705 78.8661 259.84 82.8666C260.114 78.0006 267.081 78.6544 267.374 74.4743C265.726 66.1306 266.669 62.9333 275.44 60.7364C278.881 60.3685 282.368 59.9506 285.388 58.1113Z" fill="#E0D7D7"/>
<path d="M287.01 54.8645C280.262 53.4767 272.848 52.1282 266.305 55.0179C263.964 55.9716 261.241 57.4233 260.778 60.1802C260.337 63.913 261.51 70.378 257.407 72.3149C261.709 70.7463 261.167 64.4028 261.514 60.638C261.855 58.0311 264.449 56.7594 266.65 55.8631C273.044 53.0059 280.25 54.2276 287.01 54.8645ZM244.798 106.701C240.444 110.186 245.225 113.323 242.305 115.441C244.446 115.213 244.273 112.31 243.732 110.798C243.485 109.358 244.227 108.026 244.798 106.701Z" fill="#E0D7D7"/>
<path d="M270.876 94.8999C270.81 94.3628 270.64 93.8438 270.369 93.3756C269.724 92.2614 268.259 90.4841 265.567 90.7445C262.237 91.0666 259.459 100.176 263.749 106.75C268.141 113.481 271.775 102.235 270.876 94.8999Z" fill="#F6AF9A"/>
<path d="M265.178 93.7042C265.331 93.4291 265.678 93.3296 265.952 93.4822C269.056 95.2045 267.862 103.24 267.716 104.151C267.666 104.461 267.374 104.672 267.064 104.623C267.053 104.621 267.043 104.619 267.032 104.617C266.739 104.553 266.544 104.27 266.592 103.97C266.715 103.202 266.815 102.301 266.869 101.364C266.547 100.516 265.846 99.1505 265.207 98.8252C264.927 98.6823 264.816 98.3393 264.958 98.0589C265.101 97.7789 265.445 97.6671 265.724 97.81C266.167 98.0359 266.563 98.4682 266.895 98.9463C266.805 96.874 266.391 95.0288 265.4 94.4786C265.125 94.3261 265.026 93.9793 265.178 93.7042Z" fill="#EA9A88"/>
<path d="M330.439 63.6143C333.743 59.853 337.294 56.0374 340.779 52.4357C341.472 55.99 342.208 59.7752 342.739 63.3423C351.745 56.1178 360.91 48.9957 370.481 42.5289C360.922 52.2142 350.609 61.1944 340.242 69.9969C339.621 66.5252 338.984 62.8162 338.521 59.3339C333.427 64.0495 328.219 68.6946 322.709 72.9257C325.163 69.713 327.778 66.6471 330.439 63.6143ZM325.131 125.197C330.148 126.71 335.282 128.404 340.237 130.115C337.695 132.605 335.023 135.169 332.373 137.527C339.551 140.441 346.698 143.528 353.5 147.257C344.049 145.181 334.835 142.064 325.74 138.796C328.391 136.296 331.201 133.695 333.958 131.33C326.659 128.371 319.373 125.271 312.35 121.696C316.658 122.706 320.901 123.924 325.131 125.197ZM234.152 60.9558C229.724 57.9824 225.119 54.7597 220.793 51.6261C226.351 50.5265 232.067 49.4266 237.645 48.5078C230.188 41.3556 222.813 34.0359 216.011 26.248C226.237 33.8113 235.844 42.2583 245.288 50.7659C239.904 51.751 234.321 52.759 228.922 53.5882C235.348 58.7092 241.728 63.9575 247.739 69.5656C243.105 66.8649 238.61 63.9291 234.152 60.9558ZM185.236 115.273C195.47 114.611 205.844 114.408 216.099 114.351C213.853 117.161 211.357 120.272 209.03 122.988C217.205 121.372 225.445 119.858 233.719 118.838C222.788 122.593 211.511 125.591 200.296 128.377C202.941 124.974 205.907 121.12 208.661 117.844C197.834 117.598 186.952 117.174 176.178 116.016C179.198 115.692 182.217 115.47 185.236 115.273Z" fill="#E06969"/>
<path d="M463.237 287.323C430.674 328.935 374.424 345.373 374.424 345.373C305.821 363.893 146.561 376.727 88.1964 303.561C84.2809 298.652 80.6207 293.206 77.2516 287.323H463.237V287.323Z" fill="#E5AC85"/>
<path d="M458.08 293.493H80.9971C79.7123 291.495 78.4628 289.438 77.2516 287.323H463.237C461.576 289.445 459.853 291.5 458.08 293.493Z" fill="#BF8673"/>
<path d="M204.044 326.402C192.839 326.402 183.754 324.251 183.754 321.597C183.754 318.943 192.839 316.792 204.044 316.792C215.25 316.792 224.334 318.943 224.334 321.597C224.334 324.251 215.25 326.402 204.044 326.402Z" fill="#E0A67E"/>
<path d="M197.345 277.825H211.168V266.777C211.168 264.933 209.674 263.438 207.832 263.438H200.681C198.838 263.438 197.345 264.933 197.345 266.777V277.825Z" fill="#83839E"/>
<path d="M200.68 263.438H207.832C209.032 263.438 210.083 264.073 210.671 265.024C208.983 265.327 206.73 265.512 204.256 265.512C201.782 265.512 199.529 265.327 197.841 265.024C198.429 264.073 199.48 263.438 200.68 263.438Z" fill="#8B8BA6"/>
<path d="M190.156 317.635C190.156 319.739 191.565 321.58 193.594 322.132C196.079 322.808 199.754 323.532 204.09 323.532C208.507 323.532 212.337 322.78 214.913 322.094C216.946 321.552 218.356 319.701 218.356 317.595V282.889C218.356 278.014 214.407 274.063 209.537 274.063H198.976C194.105 274.063 190.156 278.014 190.156 282.889V317.635V317.635Z" fill="#86C4EB"/>
<path d="M218.356 286.251V313.873C214.333 314.473 209.322 315.01 204.256 315.01C199.19 315.01 194.179 314.474 190.156 313.873V286.233C194.408 286.866 199.628 287.454 204.367 287.454C209.059 287.454 214.177 286.878 218.356 286.251Z" fill="white"/>
<path d="M204.052 309.868C204.538 309.868 204.928 309.695 205.222 309.347C205.517 309.001 205.647 308.567 205.612 308.046L205.144 303.935C205.11 303.831 205.127 303.762 205.196 303.727C205.266 303.693 205.352 303.71 205.456 303.779L208.837 306.225C209.253 306.537 209.687 306.65 210.137 306.563C210.588 306.477 210.952 306.208 211.229 305.756C211.541 305.202 211.602 304.716 211.411 304.299C211.221 303.883 210.9 303.588 210.449 303.415L206.652 301.697C206.548 301.663 206.496 301.611 206.496 301.541C206.496 301.472 206.548 301.42 206.652 301.385L210.449 299.667C210.935 299.459 211.247 299.13 211.385 298.678C211.524 298.228 211.472 297.777 211.229 297.325C210.952 296.875 210.588 296.606 210.137 296.519C209.687 296.432 209.253 296.528 208.837 296.805L205.456 299.303C205.352 299.373 205.266 299.39 205.196 299.355C205.127 299.321 205.11 299.251 205.144 299.147L205.612 295.035C205.647 294.515 205.508 294.082 205.196 293.734C204.884 293.388 204.468 293.214 203.948 293.214C203.463 293.214 203.064 293.388 202.752 293.734C202.44 294.082 202.319 294.515 202.388 295.035L202.856 299.147C202.891 299.251 202.874 299.321 202.804 299.355C202.735 299.39 202.648 299.373 202.544 299.303L199.164 296.857C198.748 296.545 198.306 296.432 197.838 296.519C197.369 296.606 197.014 296.875 196.772 297.325C196.46 297.881 196.399 298.366 196.589 298.783C196.78 299.199 197.102 299.494 197.552 299.667L201.348 301.385C201.452 301.42 201.504 301.472 201.504 301.541C201.504 301.611 201.452 301.663 201.348 301.697L197.552 303.415C197.067 303.623 196.745 303.953 196.589 304.403C196.434 304.855 196.494 305.306 196.772 305.756C197.014 306.208 197.369 306.477 197.838 306.563C198.306 306.65 198.748 306.555 199.164 306.277L202.544 303.779C202.648 303.71 202.735 303.693 202.804 303.727C202.874 303.762 202.891 303.831 202.856 303.935L202.388 308.046C202.319 308.567 202.449 309.001 202.778 309.347C203.108 309.695 203.532 309.868 204.052 309.868Z" fill="#EB7171"/>
<path d="M354.806 326.204C342.157 326.204 331.903 323.965 331.903 321.204C331.903 318.443 342.157 316.205 354.806 316.205C367.454 316.205 377.708 318.443 377.708 321.204C377.708 323.965 367.454 326.204 354.806 326.204Z" fill="#E0A67E"/>
<path d="M338.375 320.926H371.235L374.329 272.31H335.282L338.375 320.926Z" fill="#EBF2F5"/>
<path d="M354.813 273.778C344.035 273.778 335.297 273.121 335.297 272.31C335.297 271.499 344.035 270.842 354.813 270.842C365.591 270.842 374.329 271.499 374.329 272.31C374.329 273.121 365.591 273.778 354.813 273.778Z" fill="#DDEAF0"/>
<path d="M336.683 294.325H372.928L371.236 320.926H338.375L336.683 294.325Z" fill="#B2D8F0"/>
<path d="M354.813 322.394C345.744 322.394 338.391 321.736 338.391 320.926C338.391 320.115 345.744 319.458 354.813 319.458C363.883 319.458 371.236 320.115 371.236 320.926C371.236 321.736 363.883 322.394 354.813 322.394Z" fill="#B2D8F0"/>
<path d="M354.813 295.793C344.786 295.793 336.657 295.135 336.657 294.325C336.657 293.514 344.786 292.857 354.813 292.857C364.841 292.857 372.97 293.514 372.97 294.325C372.97 295.135 364.841 295.793 354.813 295.793Z" fill="#9BCCEB"/>
<path d="M338.215 318.449C341.221 320.971 368.34 320.992 371.412 318.449C370.703 319.174 359.006 319.492 354.813 319.504C350.62 319.494 338.955 319.181 338.215 318.449Z" fill="#EBF9FF"/>
<path d="M255.114 331.775C249.305 331.775 244.595 330.783 244.595 329.558C244.595 328.333 249.305 327.341 255.114 327.341C260.923 327.341 265.632 328.333 265.632 329.558C265.632 330.783 260.923 331.775 255.114 331.775Z" fill="#E0A67E"/>
<path d="M262.585 327.966C262.604 326.319 261.286 324.969 259.641 324.95L250.267 324.842C248.622 324.822 247.273 326.141 247.254 327.788C247.235 329.434 248.553 330.784 250.198 330.803L259.572 330.912C261.217 330.931 262.566 329.612 262.585 327.966Z" fill="white"/>
<path d="M247.253 327.788C247.272 326.141 248.621 324.822 250.266 324.842L254.954 324.896C254.954 324.896 255.483 326.554 255.425 327.782C255.355 329.264 254.885 330.808 254.885 330.808L254.843 330.857L250.197 330.803C248.552 330.784 247.234 329.434 247.253 327.788Z" fill="#EB7171"/>
<path d="M231.529 325.155C225.72 325.155 221.011 324.162 221.011 322.938C221.011 321.713 225.72 320.72 231.529 320.72C237.339 320.72 242.048 321.713 242.048 322.938C242.048 324.162 237.339 325.155 231.529 325.155Z" fill="#E0A67E"/>
<path d="M239.001 321.346C239.02 319.7 237.702 318.35 236.057 318.33L226.682 318.222C225.037 318.203 223.688 319.521 223.669 321.168C223.65 322.814 224.968 324.164 226.613 324.183L235.988 324.292C237.633 324.311 238.982 322.992 239.001 321.346Z" fill="white"/>
<path d="M223.669 321.168C223.688 319.521 225.037 318.203 226.682 318.222L231.369 318.276C231.369 318.276 231.898 319.934 231.84 321.162C231.77 322.644 231.301 324.189 231.301 324.189L231.259 324.237L226.613 324.183C224.968 324.164 223.65 322.814 223.669 321.168Z" fill="#EB7171"/>
<path d="M263.455 323.428C257.646 323.428 252.936 322.436 252.936 321.211C252.936 319.986 257.646 318.994 263.455 318.994C269.264 318.994 273.973 319.986 273.973 321.211C273.973 322.436 269.264 323.428 263.455 323.428Z" fill="#E0A67E"/>
<path d="M270.926 319.619C270.945 317.972 269.627 316.623 267.982 316.603L258.607 316.495C256.962 316.475 255.613 317.794 255.594 319.441C255.575 321.087 256.893 322.437 258.538 322.456L267.913 322.565C269.558 322.584 270.906 321.265 270.926 319.619Z" fill="white"/>
<path d="M255.594 319.441C255.613 317.794 256.962 316.475 258.607 316.495L263.295 316.549C263.295 316.549 263.824 318.207 263.766 319.435C263.696 320.917 263.226 322.461 263.226 322.461L263.184 322.51L258.538 322.456C256.893 322.437 255.575 321.087 255.594 319.441Z" fill="#EB7171"/>
<path d="M299.854 321.353C295.188 321.353 291.405 320.131 291.405 318.624C291.405 317.116 295.188 315.895 299.854 315.895C304.521 315.895 308.303 317.116 308.303 318.624C308.303 320.131 304.521 321.353 299.854 321.353Z" fill="#E0A67E"/>
<path d="M307.276 312.331C306.658 310.805 304.921 310.07 303.397 310.688L294.708 314.211C293.183 314.829 292.448 316.568 293.066 318.093C293.683 319.619 295.42 320.355 296.945 319.737L305.634 316.213C307.158 315.595 307.894 313.857 307.276 312.331Z" fill="white"/>
<path d="M293.066 318.093C292.448 316.568 293.183 314.83 294.708 314.211L299.052 312.45C299.052 312.45 300.18 313.774 300.601 314.929C301.108 316.323 301.271 317.93 301.271 317.93L301.251 317.991L296.945 319.737C295.42 320.355 293.683 319.619 293.066 318.093Z" fill="#EB7171"/>
<path d="M312.199 322.766C307.466 322.766 303.628 321.959 303.628 320.963C303.628 319.967 307.466 319.16 312.199 319.16C316.932 319.16 320.77 319.967 320.77 320.963C320.77 321.959 316.932 322.766 312.199 322.766Z" fill="#E0A67E"/>
<path d="M319.23 317.832C319.196 316.186 317.836 314.879 316.191 314.913L306.818 315.107C305.173 315.141 303.867 316.502 303.901 318.148C303.935 319.794 305.296 321.101 306.94 321.067L316.314 320.874C317.958 320.84 319.264 319.478 319.23 317.832Z" fill="white"/>
<path d="M303.901 318.148C303.867 316.502 305.173 315.14 306.818 315.106L311.505 315.01C311.505 315.01 312.087 316.65 312.068 317.879C312.046 319.362 311.626 320.921 311.626 320.921L311.586 320.971L306.941 321.067C305.296 321.101 303.935 319.794 303.901 318.148Z" fill="#EB7171"/>
<path d="M303.434 328.321C297.625 328.321 292.915 327.329 292.915 326.104C292.915 324.879 297.625 323.887 303.434 323.887C309.243 323.887 313.952 324.879 313.952 326.104C313.952 327.329 309.243 328.321 303.434 328.321Z" fill="#E0A67E"/>
<path d="M310.905 324.512C310.924 322.866 309.606 321.516 307.961 321.497L298.586 321.388C296.941 321.369 295.592 322.688 295.573 324.334C295.554 325.98 296.872 327.33 298.517 327.349L307.892 327.458C309.537 327.477 310.885 326.158 310.905 324.512Z" fill="white"/>
<path d="M295.573 324.334C295.592 322.688 296.941 321.369 298.586 321.388L303.274 321.442C303.274 321.442 303.803 323.1 303.745 324.328C303.675 325.81 303.205 327.354 303.205 327.354L303.163 327.403L298.517 327.349C296.872 327.33 295.554 325.98 295.573 324.334Z" fill="#EB7171"/>
</svg>
