<svg width="538" height="598" viewBox="0 0 538 598" fill="none" xmlns="http://www.w3.org/2000/svg">
<path d="M173.14 157.857L179.935 236.041H356.73L363.525 157.857C364.227 149.773 357.857 142.822 349.746 142.822H186.919C178.807 142.822 172.437 149.773 173.14 157.857Z" fill="#D8D8D8"/>
<path d="M173.14 161.909L179.935 240.093H356.73L363.525 161.909C364.227 153.825 357.857 146.875 349.746 146.875H186.919C178.807 146.875 172.437 153.825 173.14 161.909Z" fill="#CCCBCE"/>
<path d="M415.653 404.418H121.726C118.83 404.418 116.483 402.07 116.483 399.173V392.036C116.483 389.139 118.83 386.791 121.726 386.791H415.653C418.549 386.791 420.897 389.139 420.897 392.036V399.173C420.897 402.07 418.549 404.418 415.653 404.418Z" fill="#BAEAED"/>
<path d="M180.175 237.119C180.175 246.36 175.218 255.363 169.779 262.832L113.563 357.207C107.963 364.896 104.945 374.165 104.945 383.679V383.848C104.945 390.506 110.34 395.902 116.995 395.902H419.669C426.324 395.902 431.719 390.506 431.719 383.848V383.679C431.719 374.165 428.702 364.896 423.101 357.207L366.886 262.832C361.446 255.363 356.49 246.36 356.49 237.119L349.036 161.404H187.628L180.175 237.119Z" fill="#D0F9FC"/>
<path d="M187.628 161.404C189.685 157.158 194.034 154.229 199.067 154.229H337.597C342.63 154.229 346.979 157.158 349.036 161.404H187.628ZM169.779 262.832L113.563 357.207C107.963 364.896 104.945 374.165 104.945 383.679V383.848C104.945 390.506 110.34 395.902 116.995 395.902H419.669C426.324 395.902 431.719 390.506 431.719 383.848V383.679C431.719 374.165 428.702 364.896 423.101 357.207L366.886 262.832C362.148 256.328 357.779 248.66 356.73 240.684H179.935C178.885 248.66 174.516 256.328 169.779 262.832Z" fill="#BAEAED"/>
<path d="M419.669 372.805H116.995C113.219 372.805 109.851 371.066 107.641 368.347C105.87 373.233 104.945 378.418 104.945 383.679V383.848C104.945 390.506 110.34 395.902 116.995 395.902H419.669C426.324 395.902 431.719 390.506 431.719 383.848V383.679C431.719 378.418 430.795 373.233 429.023 368.347C426.814 371.066 423.445 372.805 419.669 372.805Z" fill="#D0F9FC"/>
<path d="M336.248 257.606C340.68 259.621 351.356 258.412 351.155 253.374C350.953 248.336 345.515 243.5 344.91 242.291C344.306 241.082 345.716 238.261 347.126 207.228C348.536 176.195 342.403 163.89 342.403 163.89C342.313 161.056 340.479 159.268 340.479 159.268C341.083 157.655 342.896 154.028 343.903 150.199C344.91 146.371 342.09 144.759 342.09 144.759C342.09 144.759 336.853 142.945 331.011 144.96C325.169 146.975 324.968 147.58 322.752 148.184C322.752 148.184 306.438 143.751 273.201 143.751C239.963 143.751 217.201 148.184 217.201 148.184C214.985 147.58 214.784 146.975 208.942 144.96C203.1 142.945 197.863 144.759 197.863 144.759C197.863 144.759 195.043 146.371 196.05 150.199C197.057 154.028 198.87 157.655 199.474 159.268C199.474 159.268 197.64 161.056 197.55 163.89C197.55 163.89 191.417 176.195 192.827 207.228C194.237 238.261 195.647 241.082 195.043 242.291C194.438 243.5 188.999 248.336 188.798 253.374C188.597 258.412 199.273 259.621 203.704 257.606C203.704 257.606 230.899 263.248 271.388 263.248C311.877 263.248 336.248 257.606 336.248 257.606Z" fill="white"/>
<path d="M351.155 253.374C350.953 248.336 345.515 243.5 344.91 242.291C344.816 242.104 344.771 241.877 344.767 241.513C337.556 240.328 329.289 239.555 328.143 239.555C326.233 239.555 325.278 234.777 327.188 233.582C329.099 232.388 331.487 232.627 329.576 223.787C327.666 214.947 324.083 186.994 316.68 181.021C309.276 175.048 289.215 170.987 289.454 169.315C289.693 167.642 299.007 163.819 298.768 156.413C298.576 150.468 296.386 147.294 296.393 144.543C289.883 144.073 282.157 143.751 273.201 143.751C258.359 143.751 245.608 144.635 236.038 145.614C235.618 147.695 234.867 150.066 233.569 152.591C229.27 160.953 197.029 190.339 202.283 215.186C202.283 215.186 204.432 222.354 208.492 224.026C212.552 225.698 215.418 227.849 219.717 226.893C224.016 225.937 227.359 224.265 228.315 227.371C229.27 230.477 227.837 232.866 225.688 236.449C223.538 240.033 218.284 240.75 212.552 241.705C208.019 242.461 196.019 247.101 190.37 248.537C189.514 250.043 188.865 251.697 188.798 253.374C188.597 258.412 199.273 259.621 203.704 257.606C203.704 257.606 230.899 263.249 271.388 263.249C311.877 263.249 336.248 257.606 336.248 257.606C340.68 259.621 351.356 258.412 351.155 253.374Z" fill="#F0E9E9"/>
<path d="M320.823 212.381C317.755 194.314 314.599 187.002 314.599 187.002C312.914 181.51 307.691 177.626 301.686 177.884C294.555 178.191 289.022 184.223 289.329 191.358C289.357 192.024 289.436 192.677 289.561 193.313C290.528 199.82 296.865 219.343 299.103 224.37C301.34 229.396 306.941 245.71 306.941 245.71C308.427 250.64 311.397 254.618 316.411 254.402C321.426 254.186 325.316 249.945 325.1 244.929C325.084 244.542 325.041 244.164 324.978 243.793C324.978 243.793 323.89 230.449 320.823 212.381Z" fill="#F9C4B9"/>
<path d="M305.195 177.589C305.195 177.589 312.696 178.967 316.828 188.461C320.961 197.955 327.237 229.652 327.237 229.652C327.237 229.652 314.073 236.849 300.909 236.695C300.909 236.695 292.031 208.214 289.582 198.108C287.133 188.002 290.654 175.752 305.195 177.589Z" fill="#7BB1ED"/>
<path d="M308.029 233.476C308.454 231.352 310.683 229.76 311.638 223.92C312.593 218.08 309.091 208.735 308.029 206.506C306.968 204.276 307.605 203.745 308.454 199.073C309.303 194.4 308.56 187.499 308.56 187.499C308.56 187.499 297.725 186.146 288.893 191.175C288.785 193.472 289.033 195.844 289.582 198.108C292.031 208.214 300.909 236.695 300.909 236.695C303.474 236.725 306.039 236.475 308.507 236.055C308.126 235.268 307.855 234.345 308.029 233.476Z" fill="#6BA4E3"/>
<path d="M310.842 183.198C311.635 183.198 312.299 182.654 312.486 181.919C311.702 181.128 310.916 180.476 310.166 179.941C309.565 180.202 309.144 180.801 309.144 181.499C309.144 182.437 309.904 183.198 310.842 183.198Z" fill="#6CA8EB"/>
<path d="M310.842 192.011C311.78 192.011 312.54 191.251 312.54 190.312C312.54 189.374 311.78 188.614 310.842 188.614C309.904 188.614 309.144 189.374 309.144 190.312C309.144 191.251 309.904 192.011 310.842 192.011Z" fill="#6CA8EB"/>
<path d="M310.842 201.833C311.78 201.833 312.54 201.073 312.54 200.134C312.54 199.196 311.78 198.436 310.842 198.436C309.904 198.436 309.144 199.196 309.144 200.134C309.144 201.073 309.904 201.833 310.842 201.833Z" fill="#6CA8EB"/>
<path d="M317.954 206.293C318.892 206.293 319.652 205.532 319.652 204.594C319.652 203.656 318.892 202.895 317.954 202.895C317.016 202.895 316.255 203.656 316.255 204.594C316.255 205.532 317.016 206.293 317.954 206.293Z" fill="#6CA8EB"/>
<path d="M310.842 210.646C311.78 210.646 312.54 209.886 312.54 208.947C312.54 208.009 311.78 207.249 310.842 207.249C309.904 207.249 309.144 208.009 309.144 208.947C309.144 209.886 309.904 210.646 310.842 210.646Z" fill="#6CA8EB"/>
<path d="M317.954 215.106C318.892 215.106 319.652 214.346 319.652 213.407C319.652 212.469 318.892 211.708 317.954 211.708C317.016 211.708 316.255 212.469 316.255 213.407C316.255 214.346 317.016 215.106 317.954 215.106Z" fill="#6CA8EB"/>
<path d="M310.842 220.469C311.78 220.469 312.54 219.708 312.54 218.77C312.54 217.831 311.78 217.071 310.842 217.071C309.904 217.071 309.144 217.831 309.144 218.77C309.144 219.708 309.904 220.469 310.842 220.469Z" fill="#6CA8EB"/>
<path d="M311.333 217.144C311.178 217.097 311.013 217.071 310.842 217.071C309.904 217.071 309.144 217.831 309.144 218.77C309.144 219.708 309.904 220.469 310.842 220.469C311.173 220.469 311.48 220.373 311.741 220.209C311.665 219.207 311.522 218.174 311.333 217.144Z" fill="#649BD9"/>
<path d="M317.954 224.928C318.892 224.928 319.652 224.168 319.652 223.229C319.652 222.291 318.892 221.531 317.954 221.531C317.016 221.531 316.255 222.291 316.255 223.229C316.255 224.168 317.016 224.928 317.954 224.928Z" fill="#6CA8EB"/>
<path d="M310.842 229.282C311.78 229.282 312.54 228.521 312.54 227.583C312.54 226.644 311.78 225.884 310.842 225.884C309.904 225.884 309.144 226.644 309.144 227.583C309.144 228.521 309.904 229.282 310.842 229.282Z" fill="#6CA8EB"/>
<path d="M310.842 225.884C309.904 225.884 309.144 226.644 309.144 227.583C309.144 228.26 309.54 228.842 310.113 229.115C310.507 228.251 310.897 227.22 311.224 225.929C311.101 225.9 310.973 225.884 310.842 225.884Z" fill="#649BD9"/>
<path d="M325.171 229.282C326.109 229.282 326.87 228.521 326.87 227.583C326.87 226.644 326.109 225.884 325.171 225.884C324.233 225.884 323.473 226.644 323.473 227.583C323.473 228.521 324.233 229.282 325.171 229.282Z" fill="#6CA8EB"/>
<path d="M325.172 220.469C325.223 220.469 325.273 220.465 325.323 220.461C325.098 219.417 324.858 218.315 324.606 217.169C323.946 217.403 323.473 218.03 323.473 218.77C323.473 219.708 324.234 220.469 325.172 220.469ZM319.652 232.043C319.652 231.104 318.892 230.344 317.954 230.344C317.016 230.344 316.255 231.104 316.255 232.043C316.255 232.872 316.85 233.561 317.635 233.711C318.189 233.524 318.726 233.334 319.244 233.145C319.498 232.848 319.652 232.464 319.652 232.043ZM317.954 196.471C318.515 196.471 319.011 196.197 319.321 195.777C319.055 194.867 318.792 193.997 318.532 193.176C318.351 193.111 318.157 193.073 317.954 193.073C317.016 193.073 316.255 193.834 316.255 194.772C316.255 195.71 317.016 196.471 317.954 196.471Z" fill="#6CA8EB"/>
<path d="M211.058 194.739C211.058 194.739 207.231 198.873 208.762 208.98C210.293 219.086 213.201 222.761 217.028 222.761C217.028 222.761 217.887 222.502 218.974 221.929C220.061 221.356 224.987 218.32 224.987 218.32L221.314 194.892L211.058 194.739Z" fill="#6BA4E3"/>
<path d="M230.101 184.404C245.424 174.361 253.101 172.995 253.101 172.995C258.27 170.493 264.497 170.385 268.393 174.964C273.021 180.401 272.366 188.562 266.93 193.191C266.422 193.623 265.89 194.01 265.34 194.35C259.915 198.069 241.3 206.705 236.096 208.485C230.891 210.264 215.129 217.256 215.129 217.256C210.506 219.522 205.571 220.051 202.318 216.227C199.064 212.404 199.525 206.666 203.346 203.412C203.64 203.161 203.947 202.935 204.262 202.729C204.262 202.729 214.778 194.447 230.101 184.404Z" fill="#F0B2A5"/>
<path d="M268.918 173.914C268.918 173.914 264.632 167.176 249.172 173.455C233.712 179.733 211.058 194.739 211.058 194.739C211.058 194.739 219.783 197.342 222.079 206.683C224.375 216.023 220.395 221.689 217.028 222.761C217.028 222.761 217.593 222.604 217.807 222.534C218.331 222.362 242.069 213.613 249.019 210.205C256.826 206.376 270.449 196.576 272.285 187.848C274.122 179.12 268.918 173.914 268.918 173.914Z" fill="#7BB1ED"/>
<path d="M268.432 195.182C267.107 191.355 264.793 188.378 262.281 187.074C256.761 184.207 233.834 191.321 233.834 191.321C233.834 191.321 235.532 198.754 234.896 202.152C234.294 205.361 229.623 209.71 229.733 218.056C236.84 215.366 245.048 212.152 249.019 210.205C254.668 207.435 263.362 201.537 268.432 195.182Z" fill="#6BA4E3"/>
<path d="M231.977 196.471C232.915 196.471 233.675 195.71 233.675 194.772C233.675 193.834 232.915 193.073 231.977 193.073C231.039 193.073 230.279 193.834 230.279 194.772C230.279 195.71 231.039 196.471 231.977 196.471Z" fill="#6CA8EB"/>
<path d="M224.759 192.011C225.697 192.011 226.457 191.25 226.457 190.312C226.457 189.374 225.697 188.613 224.759 188.613C223.821 188.613 223.061 189.374 223.061 190.312C223.061 191.25 223.821 192.011 224.759 192.011Z" fill="#6CA8EB"/>
<path d="M231.977 206.293C232.915 206.293 233.675 205.532 233.675 204.594C233.675 203.656 232.915 202.895 231.977 202.895C231.039 202.895 230.279 203.656 230.279 204.594C230.279 205.532 231.039 206.293 231.977 206.293Z" fill="#6CA8EB"/>
<path d="M224.759 201.833C225.697 201.833 226.457 201.073 226.457 200.134C226.457 199.196 225.697 198.435 224.759 198.435C223.821 198.435 223.061 199.196 223.061 200.134C223.061 201.073 223.821 201.833 224.759 201.833Z" fill="#6CA8EB"/>
<path d="M231.977 215.106C232.915 215.106 233.675 214.345 233.675 213.407C233.675 212.469 232.915 211.708 231.977 211.708C231.039 211.708 230.279 212.469 230.279 213.407C230.279 214.345 231.039 215.106 231.977 215.106Z" fill="#649BD9"/>
<path d="M224.759 210.646C225.697 210.646 226.457 209.886 226.457 208.947C226.457 208.009 225.697 207.249 224.759 207.249C223.821 207.249 223.061 208.009 223.061 208.947C223.061 209.886 223.821 210.646 224.759 210.646Z" fill="#6CA8EB"/>
<path d="M224.759 217.23C223.821 217.23 223.061 217.99 223.061 218.929C223.061 219.505 223.35 220.011 223.789 220.318C224.608 220.011 225.486 219.68 226.407 219.332C226.439 219.203 226.457 219.068 226.457 218.929C226.457 217.99 225.697 217.23 224.759 217.23Z" fill="#6CA8EB"/>
<path d="M306.047 178.373C284.39 171.99 279.709 168.87 272.132 168.815C267.176 168.851 262.609 170.347 253.643 172.587C248.904 173.772 241.6 175.831 233.216 178.634C230.634 179.497 232.012 187.765 234.434 193.247C237.017 199.094 240.057 203.046 238.598 208.729C234.005 226.624 238.824 228.207 239.195 240.597C239.263 242.873 239.531 245.849 239.531 248.876C239.531 257.261 250.581 259.887 258.861 252.21C263.437 247.968 265.82 245.114 270.337 244.853C274.854 245.114 277.237 247.968 281.813 252.21C290.093 259.887 300.428 257.261 300.428 248.876C300.428 245.849 300.695 242.874 300.763 240.597C301.134 228.207 306.888 226.575 302.109 208.729C300.935 204.346 303.656 199.094 306.24 193.247C308.663 187.765 308.665 179.119 306.047 178.373Z" fill="#F9C4B9"/>
<path d="M253.434 144.154C253.434 144.154 248.586 146.787 248.032 154.546C247.478 162.306 261.052 171.451 269.778 161.474L253.434 144.154Z" fill="#E5E5E5"/>
<path d="M253.979 163.9C258.567 166.656 264.923 167.026 269.778 161.475L256.282 147.172C254.854 147.179 253.431 147.424 252.049 147.965C252.049 147.965 252.742 149.766 252.88 152.399C253.019 155.032 254.196 157.456 255.789 160.02C256.653 161.41 255.703 163.289 253.979 163.9Z" fill="#D9D9D9"/>
<path d="M256.753 147.671L253.434 144.154C253.434 144.154 248.586 146.787 248.032 154.546C247.913 156.218 248.45 157.953 249.452 159.548L252.94 155.431C252.94 155.431 255.695 151.296 256.753 147.671Z" fill="#D9D9D9"/>
<path d="M289.153 144.154C289.153 144.154 294.001 146.787 294.555 154.546C295.109 162.306 281.535 171.451 272.809 161.474L289.153 144.154Z" fill="#E5E5E5"/>
<path d="M288.608 163.9C284.02 166.656 277.664 167.026 272.809 161.475L286.305 147.172C287.733 147.179 289.156 147.424 290.538 147.965C290.538 147.965 289.845 149.766 289.707 152.399C289.569 155.032 288.391 157.456 286.798 160.02C285.934 161.41 286.884 163.289 288.608 163.9Z" fill="#D9D9D9"/>
<path d="M282.307 169.871L281.145 155.832C280.939 143.695 262.883 143.687 262.677 155.832C262.592 156.743 261.388 171.211 261.372 171.596C261.799 186.588 284.34 184.733 282.307 169.871Z" fill="#F9C4B9"/>
<path d="M271.91 168.583C272.959 168.516 277.272 168.119 281.835 164.18C281.281 156.876 281.884 146.869 271.91 146.595C261.938 146.867 262.537 156.883 261.985 164.18C266.548 168.119 270.862 168.516 271.91 168.583Z" fill="#E8AB9E"/>
<path d="M272.049 105.486C272.049 105.486 247.407 103.848 250.82 134.303C251.28 138.405 251.963 141.981 252.805 145.1C252.807 145.574 252.863 149.071 254.086 153.128C255.105 156.508 260.515 163.474 265.964 164.582C268.912 166.134 271.309 166.349 272.049 166.397C272.695 166.355 274.611 166.185 277.056 165.101C282.504 163.993 288.237 156.918 289.377 153.577C290.37 150.666 290.716 148.088 290.837 146.693C291.889 143.214 292.737 139.121 293.277 134.303C296.69 103.848 272.049 105.486 272.049 105.486Z" fill="#F9C4B9"/>
<path d="M263.342 134.194C264.085 133.132 263.873 131.752 263.873 131.752L262.812 130.584C262.812 130.584 263.13 129.203 263.13 128.566C263.13 127.929 261.963 126.974 261.963 126.974C261.963 126.974 262.281 125.275 261.75 124.744C261.36 124.353 254.769 125.226 250.591 126.011C250.417 128.47 250.475 131.222 250.82 134.302C251.28 138.405 251.963 141.981 252.805 145.1C252.807 145.574 252.864 149.071 254.087 153.128C254.113 153.215 254.144 153.307 254.176 153.399C255.11 151.76 256.32 149.386 256.868 147.255C257.823 143.538 256.656 139.397 256.656 139.397L258.248 136.636C258.248 136.636 262.6 135.256 263.342 134.194Z" fill="#F0B2A5"/>
<path d="M258.14 147.341C258.14 147.341 258.862 145.532 262.758 145.586C265.926 145.631 268.308 146.146 268.28 148.365C268.489 151.243 256.469 151.794 258.14 147.341ZM274.145 147.341C274.145 147.341 274.867 145.532 278.764 145.586C281.931 145.631 284.314 146.146 284.285 148.365C284.495 151.243 272.474 151.794 274.145 147.341Z" fill="#F3B9AA"/>
<path d="M271.596 151.608C270.854 151.608 269.894 151.542 269.275 151.251C268.285 150.787 268.569 149.909 268.843 149.06C268.889 148.92 268.938 148.767 268.989 148.6C270.682 143.072 271.002 140.232 271.005 140.204C271.039 139.887 271.321 139.659 271.64 139.692C271.957 139.726 272.186 140.01 272.152 140.327C272.14 140.445 271.823 143.287 270.093 148.938C270.039 149.111 269.988 149.269 269.942 149.415C269.845 149.713 269.737 150.047 269.731 150.188C269.74 150.194 269.751 150.199 269.765 150.206C270.36 150.485 271.79 150.482 272.552 150.415C272.87 150.387 273.15 150.621 273.178 150.939C273.206 151.256 272.971 151.536 272.654 151.565C272.556 151.573 272.132 151.608 271.596 151.608Z" fill="#E29888"/>
<path d="M267.273 135.518C267.273 135.518 268.201 135.472 268.278 136.137C268.364 136.874 268.467 137.229 268.036 137.403C267.605 137.576 263.356 137.449 261.053 137.533C258.723 137.618 257.707 137.79 257.554 137.556C257.402 137.323 259.365 136.06 261.713 135.853C264.448 135.611 264.385 135.599 267.273 135.518ZM274.903 135.518C274.903 135.518 273.975 135.472 273.898 136.137C273.812 136.874 273.709 137.229 274.14 137.403C274.571 137.576 278.82 137.449 281.123 137.533C283.453 137.618 284.469 137.79 284.622 137.556C284.774 137.323 282.811 136.06 280.463 135.853C277.728 135.611 277.791 135.599 274.903 135.518Z" fill="#E5E3E3"/>
<path d="M270.03 159.805C269.851 159.805 269.685 159.69 269.627 159.511C269.555 159.288 269.677 159.049 269.9 158.977C269.973 158.954 271.701 158.408 273.201 158.985C273.419 159.069 273.528 159.314 273.444 159.533C273.36 159.751 273.115 159.86 272.897 159.776C271.674 159.306 270.175 159.779 270.16 159.784C270.117 159.798 270.073 159.805 270.03 159.805Z" fill="#F3B9AA"/>
<path d="M276.355 157.201C276.348 157.201 276.341 157.201 276.333 157.201C271.717 156.974 266.584 157.199 266.533 157.201C266.301 157.21 266.102 157.03 266.091 156.796C266.08 156.562 266.262 156.364 266.495 156.354C266.547 156.351 271.719 156.125 276.375 156.354C276.609 156.365 276.789 156.564 276.778 156.798C276.766 157.025 276.579 157.201 276.355 157.201Z" fill="#E29888"/>
<path d="M274.58 151.648C275.788 153.236 276.897 154.811 278.32 156.221C276.384 155.536 274.997 153.617 274.58 151.648ZM268.485 151.648C268.069 153.617 266.681 155.536 264.746 156.221C266.168 154.811 267.277 153.236 268.485 151.648Z" fill="#F0B3A3"/>
<path d="M263.471 143.756C264.496 143.756 265.326 142.676 265.326 141.344C265.326 140.012 264.496 138.933 263.471 138.933C262.447 138.933 261.617 140.012 261.617 141.344C261.617 142.676 262.447 143.756 263.471 143.756Z" fill="#121D3F"/>
<path d="M265.117 143.403C263.489 143.398 261.806 143.404 260.183 143.503C261.149 143.76 262.144 143.87 263.139 143.934L261.674 144.327C262.133 144.424 266.48 144.252 265.117 143.403Z" fill="#F0B3A3"/>
<path d="M265.674 138.627V140.488L261.254 140.652V138.627H265.674Z" fill="#F9C4B9"/>
<path d="M260.524 141.475C260.292 141.475 260.096 141.294 260.081 141.059C260.064 140.814 260.25 140.602 260.495 140.585C262.6 140.445 266.271 140.381 266.308 140.38C266.558 140.38 266.756 140.575 266.761 140.818C266.765 141.064 266.569 141.266 266.323 141.271C266.287 141.271 262.638 141.335 260.554 141.474C260.544 141.474 260.534 141.475 260.524 141.475ZM265.717 139.001C264.216 139.004 262.853 139.718 261.356 139.328C261.594 138.573 262.777 138.45 263.495 138.557C264.15 138.657 265.347 138.615 265.717 139.001Z" fill="#F0B3A3"/>
<path d="M279.598 143.756C280.622 143.756 281.453 142.676 281.453 141.344C281.453 140.012 280.622 138.933 279.598 138.933C278.574 138.933 277.744 140.012 277.744 141.344C277.744 142.676 278.574 143.756 279.598 143.756Z" fill="#121D3F"/>
<path d="M281.966 143.735C282.375 143.673 282.784 143.605 283.189 143.503C281.547 143.368 279.902 143.368 278.258 143.403C278.135 143.402 278.02 143.48 277.981 143.604C278.065 144.44 280.977 144.436 281.698 144.327C281.121 144.213 280.561 144.082 279.999 143.926C280.657 143.887 281.313 143.829 281.966 143.735Z" fill="#F0B3A3"/>
<path d="M277.237 138.627V140.495L281.763 140.652V138.627H277.237Z" fill="#F9C4B9"/>
<path d="M277.625 138.913C278.943 138.674 281.232 137.929 281.994 139.329C281.016 139.648 280.223 139.318 279.281 139.19C278.734 139.109 278.188 139.054 277.633 139.001C277.585 138.998 277.578 138.925 277.625 138.913ZM282.493 141.475C282.483 141.475 282.473 141.474 282.463 141.474C280.38 141.335 276.516 141.271 276.477 141.271C276.231 141.267 276.035 141.064 276.039 140.818C276.043 140.572 276.244 140.371 276.491 140.38C276.53 140.381 280.417 140.445 282.522 140.585C282.767 140.602 282.953 140.814 282.937 141.059C282.921 141.294 282.725 141.475 282.493 141.475Z" fill="#F0B3A3"/>
<path d="M262.333 128.255C267.998 126.586 274.297 126.296 279.924 128.255C274.124 127.129 268.156 127.419 262.333 128.255ZM262.333 130.741C268.194 131.2 274.068 131.351 279.924 130.741C274.197 132.188 268.076 132.032 262.333 130.741ZM264.792 129.398C268.986 128.982 273.271 128.979 277.465 129.398C273.271 129.817 268.986 129.813 264.792 129.398Z" fill="#F0B3A3"/>
<path d="M270.436 103.244C270.436 103.244 258.905 102.829 252.465 111.766C246.024 120.703 248.102 133.693 251.01 138.37L252.88 138.335C252.88 138.335 253.714 134.3 255.019 131.779C257.997 126.029 265.858 129.424 277.769 118.27C277.769 118.27 281.198 119.932 284.106 123.674C287.015 127.415 290.52 133.139 290.624 137.711C290.624 137.711 292.978 136.291 293.602 135.668C293.602 135.668 296.135 127.538 294.433 118.936C292.459 108.96 286.122 106.57 282.486 106.57C282.486 106.57 276.773 102.621 270.436 103.244Z" fill="#E5E5E5"/>
<path d="M261.963 126.974C261.963 126.974 262.281 125.275 261.75 124.744C261.272 124.265 251.476 125.685 248.23 126.514C248.285 131.525 249.541 136.008 251.01 138.37L252.88 138.335C252.88 138.335 253.714 134.3 255.019 131.779C256.412 129.091 258.871 128.402 262.311 127.29C262.116 127.1 261.963 126.974 261.963 126.974ZM282.486 106.57C282.486 106.57 283.275 112.762 277.77 118.27C277.77 118.27 282.071 109.272 282.486 106.57ZM281.759 113.741C287.891 116.76 291.371 123.889 291.109 130.576C290.188 124.044 287.168 117.701 281.759 113.741ZM283.525 110.935C289.54 111.72 293.37 118.057 292.875 123.821C292.14 118.257 289.037 112.853 283.525 110.935Z" fill="#D9D9D9"/>
<path d="M277.812 112.389C275.288 113.104 272.898 114.222 270.852 115.859C268.372 117.576 265.653 118.88 262.931 120.109C256.397 122.643 253.555 123.575 252.049 131.095C252.8 123.278 256.006 121.98 262.604 119.368C265.304 118.169 268.006 116.918 270.512 115.357C272.658 113.795 275.202 112.796 277.812 112.389Z" fill="#D9D9D9"/>
<path d="M279.474 109.168C273.985 109.779 268.22 110.506 263.706 113.919C259.103 116.949 254.114 120.028 251.634 125.171C253.002 121.095 256.383 118.08 259.769 115.617C265.893 110.755 271.66 108.921 279.474 109.168Z" fill="#D9D9D9"/>
<path d="M278.227 106.882C268.209 104.787 257.403 108.136 252.464 117.585C256.362 107.397 268.356 103.536 278.227 106.882Z" fill="#D9D9D9"/>
<path d="M289.928 137.537C289.928 137.537 291.932 134.064 294.639 134.932C296.961 135.676 296.095 144.438 292.024 148.454C287.728 152.693 287.933 142.538 289.928 137.537Z" fill="#F9C4B9"/>
<path d="M293.999 138.028C293.932 137.809 293.701 137.684 293.482 137.75C291.006 138.497 290.614 144.402 290.578 145.072C290.565 145.301 290.74 145.497 290.969 145.51C290.977 145.51 290.984 145.51 290.992 145.51C291.211 145.51 291.394 145.339 291.406 145.118C291.437 144.552 291.505 143.895 291.611 143.219C291.971 142.666 292.682 141.802 293.187 141.669C293.408 141.611 293.54 141.384 293.482 141.162C293.424 140.941 293.197 140.808 292.976 140.867C292.625 140.959 292.276 141.205 291.966 141.495C292.35 140.033 292.93 138.784 293.721 138.545C293.941 138.479 294.065 138.248 293.999 138.028Z" fill="#E29888"/>
<path d="M253.799 137.537C253.799 137.537 251.796 134.064 249.089 134.932C246.767 135.676 247.632 144.438 251.703 148.454C256 152.693 255.795 142.538 253.799 137.537Z" fill="#F9C4B9"/>
<path d="M253.799 137.536C253.799 137.536 252.64 135.53 250.895 134.95C251.353 138.782 252.007 142.147 252.805 145.1C252.806 145.42 252.833 147.118 253.226 149.435C255.909 149.999 255.52 141.851 253.799 137.536Z" fill="#F0B2A5"/>
<path d="M253.15 145.072C253.113 144.402 252.722 138.496 250.246 137.75C250.027 137.684 249.795 137.809 249.729 138.028C249.663 138.248 249.787 138.479 250.006 138.545C250.797 138.784 251.377 140.033 251.761 141.495C251.451 141.205 251.102 140.959 250.752 140.867C250.531 140.808 250.303 140.941 250.245 141.162C250.187 141.384 250.319 141.611 250.541 141.669C251.045 141.802 251.756 142.666 252.117 143.219C252.223 143.895 252.29 144.552 252.321 145.118C252.334 145.339 252.516 145.51 252.735 145.51C252.743 145.51 252.751 145.51 252.758 145.51C252.987 145.497 253.162 145.301 253.15 145.072Z" fill="#E29888"/>
<path d="M261.42 170.555C261.437 170.555 261.451 170.567 261.455 170.583C261.552 171.043 262.996 177.079 271.928 177.079C280.821 177.079 282.283 171.267 282.391 170.775C282.395 170.756 282.412 170.746 282.43 170.752C283.002 170.933 290.98 173.452 295.603 174.731C300.399 176.058 307.338 177.691 308.256 179.018C309.175 180.345 309.583 187.083 308.154 193.106C306.726 199.129 304.787 203.314 304.787 204.539C304.787 205.764 313.767 222.2 303.868 232.612C303.868 232.612 305.399 234.654 303.358 236.389C303.358 236.389 303.664 244.76 304.991 248.639C306.317 252.519 310.501 256.091 308.46 260.685L308.983 264.148C309.153 265.275 308.448 266.348 307.346 266.636C302.547 267.891 289.084 270.894 270.193 270.894C250.736 270.894 236.699 265.064 232.168 262.906C231.241 262.464 230.739 261.446 230.948 260.441L231.62 257.214C231.62 257.214 231.416 254.05 232.334 251.804C233.253 249.558 235.498 247.72 235.498 247.72C235.498 247.72 236.008 241.085 237.335 238.329C237.335 238.329 236.671 235.266 237.284 232.612C237.284 232.612 233.661 229.856 233.457 221.485C233.253 213.114 236.926 206.581 237.13 203.825C237.334 201.068 233.559 192.391 231.008 187.185C228.457 181.979 228.355 180.958 229.681 180.039C231.008 179.12 240.09 175.547 243.253 174.833C246.411 174.12 256.411 170.569 261.42 170.555Z" fill="#7BB1ED"/>
<path d="M246.306 177.836C247.244 177.836 248.004 177.075 248.004 176.137C248.004 175.199 247.244 174.438 246.306 174.438C245.368 174.438 244.608 175.199 244.608 176.137C244.608 177.075 245.368 177.836 246.306 177.836Z" fill="#6CA8EB"/>
<path d="M253.524 173.376C254.462 173.376 255.222 172.616 255.222 171.677C255.222 171.619 255.219 171.562 255.214 171.506C254.14 171.76 253.043 172.046 251.962 172.344C252.221 172.951 252.823 173.376 253.524 173.376Z" fill="#6CA8EB"/>
<path d="M260.636 177.836C261.574 177.836 262.334 177.075 262.334 176.137C262.334 175.199 261.574 174.438 260.636 174.438C259.698 174.438 258.938 175.199 258.938 176.137C258.938 177.075 259.698 177.836 260.636 177.836Z" fill="#6CA8EB"/>
<path d="M289.295 177.836C290.233 177.836 290.993 177.075 290.993 176.137C290.993 175.199 290.233 174.438 289.295 174.438C288.357 174.438 287.596 175.199 287.596 176.137C287.596 177.075 288.357 177.836 289.295 177.836Z" fill="#6CA8EB"/>
<path d="M301.957 176.457C302.107 177.242 302.796 177.836 303.624 177.836C304.096 177.836 304.522 177.643 304.83 177.333C303.959 177.042 302.982 176.748 301.957 176.457Z" fill="#6CA8EB"/>
<path d="M239.195 183.198C240.133 183.198 240.893 182.437 240.893 181.499C240.893 180.561 240.133 179.8 239.195 179.8C238.257 179.8 237.496 180.561 237.496 181.499C237.496 182.437 238.257 183.198 239.195 183.198Z" fill="#6CA8EB"/>
<path d="M246.306 187.658C247.244 187.658 248.004 186.897 248.004 185.959C248.004 185.021 247.244 184.26 246.306 184.26C245.368 184.26 244.608 185.021 244.608 185.959C244.608 186.897 245.368 187.658 246.306 187.658Z" fill="#6CA8EB"/>
<path d="M253.524 183.198C254.462 183.198 255.222 182.437 255.222 181.499C255.222 180.561 254.462 179.8 253.524 179.8C252.586 179.8 251.826 180.561 251.826 181.499C251.826 182.437 252.586 183.198 253.524 183.198Z" fill="#6CA8EB"/>
<path d="M260.636 187.658C261.574 187.658 262.334 186.897 262.334 185.959C262.334 185.021 261.574 184.26 260.636 184.26C259.698 184.26 258.938 185.021 258.938 185.959C258.938 186.897 259.698 187.658 260.636 187.658Z" fill="#6CA8EB"/>
<path d="M267.854 183.198C268.791 183.198 269.552 182.437 269.552 181.499C269.552 180.561 268.791 179.8 267.854 179.8C266.916 179.8 266.155 180.561 266.155 181.499C266.155 182.437 266.916 183.198 267.854 183.198Z" fill="#6CA8EB"/>
<path d="M274.965 187.658C275.903 187.658 276.663 186.897 276.663 185.959C276.663 185.021 275.903 184.26 274.965 184.26C274.027 184.26 273.267 185.021 273.267 185.959C273.267 186.897 274.027 187.658 274.965 187.658Z" fill="#6CA8EB"/>
<path d="M282.183 183.198C283.121 183.198 283.881 182.437 283.881 181.499C283.881 180.561 283.121 179.8 282.183 179.8C281.245 179.8 280.485 180.561 280.485 181.499C280.485 182.437 281.245 183.198 282.183 183.198Z" fill="#6CA8EB"/>
<path d="M289.295 187.658C290.233 187.658 290.993 186.897 290.993 185.959C290.993 185.021 290.233 184.26 289.295 184.26C288.357 184.26 287.596 185.021 287.596 185.959C287.596 186.897 288.357 187.658 289.295 187.658Z" fill="#6CA8EB"/>
<path d="M296.513 183.198C297.45 183.198 298.211 182.437 298.211 181.499C298.211 180.561 297.45 179.8 296.513 179.8C295.575 179.8 294.814 180.561 294.814 181.499C294.814 182.437 295.575 183.198 296.513 183.198Z" fill="#6CA8EB"/>
<path d="M303.624 187.658C304.562 187.658 305.322 186.897 305.322 185.959C305.322 185.021 304.562 184.26 303.624 184.26C302.686 184.26 301.926 185.021 301.926 185.959C301.926 186.897 302.686 187.658 303.624 187.658Z" fill="#6CA8EB"/>
<path d="M239.195 192.011C240.133 192.011 240.893 191.251 240.893 190.312C240.893 189.374 240.133 188.614 239.195 188.614C238.257 188.614 237.496 189.374 237.496 190.312C237.496 191.251 238.257 192.011 239.195 192.011Z" fill="#6CA8EB"/>
<path d="M246.306 196.471C247.244 196.471 248.004 195.71 248.004 194.772C248.004 193.834 247.244 193.073 246.306 193.073C245.368 193.073 244.608 193.834 244.608 194.772C244.608 195.71 245.368 196.471 246.306 196.471Z" fill="#6CA8EB"/>
<path d="M253.524 192.011C254.462 192.011 255.222 191.251 255.222 190.312C255.222 189.374 254.462 188.614 253.524 188.614C252.586 188.614 251.826 189.374 251.826 190.312C251.826 191.251 252.586 192.011 253.524 192.011Z" fill="#6CA8EB"/>
<path d="M260.636 196.471C261.574 196.471 262.334 195.71 262.334 194.772C262.334 193.834 261.574 193.073 260.636 193.073C259.698 193.073 258.938 193.834 258.938 194.772C258.938 195.71 259.698 196.471 260.636 196.471Z" fill="#6CA8EB"/>
<path d="M267.854 192.011C268.791 192.011 269.552 191.251 269.552 190.312C269.552 189.374 268.791 188.614 267.854 188.614C266.916 188.614 266.155 189.374 266.155 190.312C266.155 191.251 266.916 192.011 267.854 192.011Z" fill="#6CA8EB"/>
<path d="M274.965 196.471C275.903 196.471 276.663 195.71 276.663 194.772C276.663 193.834 275.903 193.073 274.965 193.073C274.027 193.073 273.267 193.834 273.267 194.772C273.267 195.71 274.027 196.471 274.965 196.471Z" fill="#6CA8EB"/>
<path d="M282.183 192.011C283.121 192.011 283.881 191.251 283.881 190.312C283.881 189.374 283.121 188.614 282.183 188.614C281.245 188.614 280.485 189.374 280.485 190.312C280.485 191.251 281.245 192.011 282.183 192.011Z" fill="#6CA8EB"/>
<path d="M289.295 196.471C290.233 196.471 290.993 195.71 290.993 194.772C290.993 193.834 290.233 193.073 289.295 193.073C288.357 193.073 287.596 193.834 287.596 194.772C287.596 195.71 288.357 196.471 289.295 196.471Z" fill="#6CA8EB"/>
<path d="M296.513 192.011C297.45 192.011 298.211 191.251 298.211 190.312C298.211 189.374 297.45 188.614 296.513 188.614C295.575 188.614 294.814 189.374 294.814 190.312C294.814 191.251 295.575 192.011 296.513 192.011Z" fill="#6CA8EB"/>
<path d="M303.624 196.471C304.562 196.471 305.322 195.71 305.322 194.772C305.322 193.834 304.562 193.073 303.624 193.073C302.686 193.073 301.926 193.834 301.926 194.772C301.926 195.71 302.686 196.471 303.624 196.471Z" fill="#6CA8EB"/>
<path d="M239.195 201.833C240.133 201.833 240.893 201.073 240.893 200.134C240.893 199.196 240.133 198.436 239.195 198.436C238.257 198.436 237.496 199.196 237.496 200.134C237.496 201.073 238.257 201.833 239.195 201.833Z" fill="#6CA8EB"/>
<path d="M246.306 206.293C247.244 206.293 248.004 205.532 248.004 204.594C248.004 203.656 247.244 202.895 246.306 202.895C245.368 202.895 244.608 203.656 244.608 204.594C244.608 205.532 245.368 206.293 246.306 206.293Z" fill="#6CA8EB"/>
<path d="M253.524 201.833C254.462 201.833 255.222 201.073 255.222 200.134C255.222 199.196 254.462 198.436 253.524 198.436C252.586 198.436 251.826 199.196 251.826 200.134C251.826 201.073 252.586 201.833 253.524 201.833Z" fill="#6CA8EB"/>
<path d="M260.636 206.293C261.574 206.293 262.334 205.532 262.334 204.594C262.334 203.656 261.574 202.895 260.636 202.895C259.698 202.895 258.938 203.656 258.938 204.594C258.938 205.532 259.698 206.293 260.636 206.293Z" fill="#6CA8EB"/>
<path d="M267.854 201.833C268.791 201.833 269.552 201.073 269.552 200.134C269.552 199.196 268.791 198.436 267.854 198.436C266.916 198.436 266.155 199.196 266.155 200.134C266.155 201.073 266.916 201.833 267.854 201.833Z" fill="#6CA8EB"/>
<path d="M274.965 206.293C275.903 206.293 276.663 205.532 276.663 204.594C276.663 203.656 275.903 202.895 274.965 202.895C274.027 202.895 273.267 203.656 273.267 204.594C273.267 205.532 274.027 206.293 274.965 206.293Z" fill="#6CA8EB"/>
<path d="M282.183 201.833C283.121 201.833 283.881 201.073 283.881 200.134C283.881 199.196 283.121 198.436 282.183 198.436C281.245 198.436 280.485 199.196 280.485 200.134C280.485 201.073 281.245 201.833 282.183 201.833Z" fill="#6CA8EB"/>
<path d="M289.295 206.293C290.233 206.293 290.993 205.532 290.993 204.594C290.993 203.656 290.233 202.895 289.295 202.895C288.357 202.895 287.596 203.656 287.596 204.594C287.596 205.532 288.357 206.293 289.295 206.293Z" fill="#6CA8EB"/>
<path d="M296.513 201.833C297.45 201.833 298.211 201.073 298.211 200.134C298.211 199.196 297.45 198.436 296.513 198.436C295.575 198.436 294.814 199.196 294.814 200.134C294.814 201.073 295.575 201.833 296.513 201.833Z" fill="#6CA8EB"/>
<path d="M303.624 206.293C304.241 206.293 304.78 205.963 305.077 205.471C304.896 204.994 304.787 204.674 304.787 204.539C304.787 204.312 304.854 203.984 304.971 203.562C304.66 203.157 304.174 202.895 303.624 202.895C302.686 202.895 301.926 203.656 301.926 204.594C301.926 205.532 302.686 206.293 303.624 206.293Z" fill="#6CA8EB"/>
<path d="M239.195 210.647C240.133 210.647 240.893 209.886 240.893 208.948C240.893 208.009 240.133 207.249 239.195 207.249C238.257 207.249 237.496 208.009 237.496 208.948C237.496 209.886 238.257 210.647 239.195 210.647Z" fill="#6CA8EB"/>
<path d="M246.306 215.106C247.244 215.106 248.004 214.346 248.004 213.407C248.004 212.469 247.244 211.708 246.306 211.708C245.368 211.708 244.608 212.469 244.608 213.407C244.608 214.346 245.368 215.106 246.306 215.106Z" fill="#6CA8EB"/>
<path d="M253.524 210.647C254.462 210.647 255.222 209.886 255.222 208.948C255.222 208.009 254.462 207.249 253.524 207.249C252.586 207.249 251.826 208.009 251.826 208.948C251.826 209.886 252.586 210.647 253.524 210.647Z" fill="#6CA8EB"/>
<path d="M260.636 215.106C261.574 215.106 262.334 214.346 262.334 213.407C262.334 212.469 261.574 211.708 260.636 211.708C259.698 211.708 258.938 212.469 258.938 213.407C258.938 214.346 259.698 215.106 260.636 215.106Z" fill="#6CA8EB"/>
<path d="M267.854 210.647C268.791 210.647 269.552 209.886 269.552 208.948C269.552 208.009 268.791 207.249 267.854 207.249C266.916 207.249 266.155 208.009 266.155 208.948C266.155 209.886 266.916 210.647 267.854 210.647Z" fill="#6CA8EB"/>
<path d="M274.965 215.106C275.903 215.106 276.663 214.346 276.663 213.407C276.663 212.469 275.903 211.708 274.965 211.708C274.027 211.708 273.267 212.469 273.267 213.407C273.267 214.346 274.027 215.106 274.965 215.106Z" fill="#6CA8EB"/>
<path d="M282.183 210.647C283.121 210.647 283.881 209.886 283.881 208.948C283.881 208.009 283.121 207.249 282.183 207.249C281.245 207.249 280.485 208.009 280.485 208.948C280.485 209.886 281.245 210.647 282.183 210.647Z" fill="#6CA8EB"/>
<path d="M289.295 215.106C290.233 215.106 290.993 214.346 290.993 213.407C290.993 212.469 290.233 211.708 289.295 211.708C288.357 211.708 287.596 212.469 287.596 213.407C287.596 214.346 288.357 215.106 289.295 215.106Z" fill="#6CA8EB"/>
<path d="M296.513 210.647C297.45 210.647 298.211 209.886 298.211 208.948C298.211 208.009 297.45 207.249 296.513 207.249C295.575 207.249 294.814 208.009 294.814 208.948C294.814 209.886 295.575 210.647 296.513 210.647Z" fill="#6CA8EB"/>
<path d="M303.624 215.106C304.562 215.106 305.322 214.346 305.322 213.407C305.322 212.469 304.562 211.708 303.624 211.708C302.686 211.708 301.926 212.469 301.926 213.407C301.926 214.346 302.686 215.106 303.624 215.106Z" fill="#6CA8EB"/>
<path d="M239.195 220.469C240.133 220.469 240.893 219.708 240.893 218.77C240.893 217.831 240.133 217.071 239.195 217.071C238.257 217.071 237.496 217.831 237.496 218.77C237.496 219.708 238.257 220.469 239.195 220.469Z" fill="#6CA8EB"/>
<path d="M246.306 224.928C247.244 224.928 248.004 224.168 248.004 223.229C248.004 222.291 247.244 221.531 246.306 221.531C245.368 221.531 244.608 222.291 244.608 223.229C244.608 224.168 245.368 224.928 246.306 224.928Z" fill="#6CA8EB"/>
<path d="M253.524 220.469C254.462 220.469 255.222 219.708 255.222 218.77C255.222 217.831 254.462 217.071 253.524 217.071C252.586 217.071 251.826 217.831 251.826 218.77C251.826 219.708 252.586 220.469 253.524 220.469Z" fill="#6CA8EB"/>
<path d="M260.636 224.928C261.574 224.928 262.334 224.168 262.334 223.229C262.334 222.291 261.574 221.531 260.636 221.531C259.698 221.531 258.938 222.291 258.938 223.229C258.938 224.168 259.698 224.928 260.636 224.928Z" fill="#6CA8EB"/>
<path d="M267.854 220.469C268.791 220.469 269.552 219.708 269.552 218.77C269.552 217.831 268.791 217.071 267.854 217.071C266.916 217.071 266.155 217.831 266.155 218.77C266.155 219.708 266.916 220.469 267.854 220.469Z" fill="#6CA8EB"/>
<path d="M274.965 224.928C275.903 224.928 276.663 224.168 276.663 223.229C276.663 222.291 275.903 221.531 274.965 221.531C274.027 221.531 273.267 222.291 273.267 223.229C273.267 224.168 274.027 224.928 274.965 224.928Z" fill="#6CA8EB"/>
<path d="M282.183 220.469C283.121 220.469 283.881 219.708 283.881 218.77C283.881 217.831 283.121 217.071 282.183 217.071C281.245 217.071 280.485 217.831 280.485 218.77C280.485 219.708 281.245 220.469 282.183 220.469Z" fill="#6CA8EB"/>
<path d="M289.295 224.928C290.233 224.928 290.993 224.168 290.993 223.229C290.993 222.291 290.233 221.531 289.295 221.531C288.357 221.531 287.596 222.291 287.596 223.229C287.596 224.168 288.357 224.928 289.295 224.928Z" fill="#6CA8EB"/>
<path d="M296.513 220.469C297.45 220.469 298.211 219.708 298.211 218.77C298.211 217.831 297.45 217.071 296.513 217.071C295.575 217.071 294.814 217.831 294.814 218.77C294.814 219.708 295.575 220.469 296.513 220.469Z" fill="#6CA8EB"/>
<path d="M303.624 224.928C304.562 224.928 305.322 224.168 305.322 223.229C305.322 222.291 304.562 221.531 303.624 221.531C302.686 221.531 301.926 222.291 301.926 223.229C301.926 224.168 302.686 224.928 303.624 224.928Z" fill="#6CA8EB"/>
<path d="M239.195 229.282C240.133 229.282 240.893 228.521 240.893 227.583C240.893 226.645 240.133 225.884 239.195 225.884C238.257 225.884 237.496 226.645 237.496 227.583C237.496 228.521 238.257 229.282 239.195 229.282Z" fill="#6CA8EB"/>
<path d="M246.306 233.742C247.244 233.742 248.004 232.981 248.004 232.043C248.004 231.104 247.244 230.344 246.306 230.344C245.368 230.344 244.608 231.104 244.608 232.043C244.608 232.981 245.368 233.742 246.306 233.742Z" fill="#6CA8EB"/>
<path d="M253.524 229.282C254.462 229.282 255.222 228.521 255.222 227.583C255.222 226.645 254.462 225.884 253.524 225.884C252.586 225.884 251.826 226.645 251.826 227.583C251.826 228.521 252.586 229.282 253.524 229.282Z" fill="#6CA8EB"/>
<path d="M260.636 233.742C261.574 233.742 262.334 232.981 262.334 232.043C262.334 231.104 261.574 230.344 260.636 230.344C259.698 230.344 258.938 231.104 258.938 232.043C258.938 232.981 259.698 233.742 260.636 233.742Z" fill="#6CA8EB"/>
<path d="M267.854 229.282C268.791 229.282 269.552 228.521 269.552 227.583C269.552 226.645 268.791 225.884 267.854 225.884C266.916 225.884 266.155 226.645 266.155 227.583C266.155 228.521 266.916 229.282 267.854 229.282Z" fill="#6CA8EB"/>
<path d="M274.965 233.742C275.903 233.742 276.663 232.981 276.663 232.043C276.663 231.104 275.903 230.344 274.965 230.344C274.027 230.344 273.267 231.104 273.267 232.043C273.267 232.981 274.027 233.742 274.965 233.742Z" fill="#6CA8EB"/>
<path d="M282.183 229.282C283.121 229.282 283.881 228.521 283.881 227.583C283.881 226.645 283.121 225.884 282.183 225.884C281.245 225.884 280.485 226.645 280.485 227.583C280.485 228.521 281.245 229.282 282.183 229.282Z" fill="#6CA8EB"/>
<path d="M289.295 233.742C290.233 233.742 290.993 232.981 290.993 232.043C290.993 231.104 290.233 230.344 289.295 230.344C288.357 230.344 287.596 231.104 287.596 232.043C287.596 232.981 288.357 233.742 289.295 233.742Z" fill="#6CA8EB"/>
<path d="M296.513 229.282C297.45 229.282 298.211 228.521 298.211 227.583C298.211 226.645 297.45 225.884 296.513 225.884C295.575 225.884 294.814 226.645 294.814 227.583C294.814 228.521 295.575 229.282 296.513 229.282Z" fill="#6CA8EB"/>
<path d="M303.624 233.742C303.873 233.742 304.108 233.687 304.321 233.591C304.162 233.004 303.869 232.612 303.869 232.612C304.311 232.146 304.715 231.668 305.085 231.179C304.789 230.68 304.247 230.344 303.624 230.344C302.686 230.344 301.926 231.104 301.926 232.043C301.926 232.981 302.686 233.742 303.624 233.742Z" fill="#6CA8EB"/>
<path d="M239.195 239.104C240.133 239.104 240.893 238.343 240.893 237.405C240.893 236.467 240.133 235.706 239.195 235.706C238.257 235.706 237.496 236.467 237.496 237.405C237.496 238.343 238.257 239.104 239.195 239.104Z" fill="#6CA8EB"/>
<path d="M246.306 243.564C247.244 243.564 248.004 242.803 248.004 241.865C248.004 240.926 247.244 240.166 246.306 240.166C245.368 240.166 244.608 240.926 244.608 241.865C244.608 242.803 245.368 243.564 246.306 243.564Z" fill="#6CA8EB"/>
<path d="M253.524 239.104C254.462 239.104 255.222 238.343 255.222 237.405C255.222 236.467 254.462 235.706 253.524 235.706C252.586 235.706 251.826 236.467 251.826 237.405C251.826 238.343 252.586 239.104 253.524 239.104Z" fill="#6CA8EB"/>
<path d="M260.636 243.564C261.574 243.564 262.334 242.803 262.334 241.865C262.334 240.926 261.574 240.166 260.636 240.166C259.698 240.166 258.938 240.926 258.938 241.865C258.938 242.803 259.698 243.564 260.636 243.564Z" fill="#6CA8EB"/>
<path d="M267.854 239.104C268.791 239.104 269.552 238.343 269.552 237.405C269.552 236.467 268.791 235.706 267.854 235.706C266.916 235.706 266.155 236.467 266.155 237.405C266.155 238.343 266.916 239.104 267.854 239.104Z" fill="#6CA8EB"/>
<path d="M274.965 243.564C275.903 243.564 276.663 242.803 276.663 241.865C276.663 240.926 275.903 240.166 274.965 240.166C274.027 240.166 273.267 240.926 273.267 241.865C273.267 242.803 274.027 243.564 274.965 243.564Z" fill="#6CA8EB"/>
<path d="M282.183 239.104C283.121 239.104 283.881 238.343 283.881 237.405C283.881 236.467 283.121 235.706 282.183 235.706C281.245 235.706 280.485 236.467 280.485 237.405C280.485 238.343 281.245 239.104 282.183 239.104Z" fill="#6CA8EB"/>
<path d="M289.295 243.564C290.233 243.564 290.993 242.803 290.993 241.865C290.993 240.926 290.233 240.166 289.295 240.166C288.357 240.166 287.596 240.926 287.596 241.865C287.596 242.803 288.357 243.564 289.295 243.564Z" fill="#6CA8EB"/>
<path d="M296.513 239.104C297.45 239.104 298.211 238.343 298.211 237.405C298.211 236.467 297.45 235.706 296.513 235.706C295.575 235.706 294.814 236.467 294.814 237.405C294.814 238.343 295.575 239.104 296.513 239.104Z" fill="#6CA8EB"/>
<path d="M239.195 247.917C240.133 247.917 240.893 247.156 240.893 246.218C240.893 245.28 240.133 244.519 239.195 244.519C238.257 244.519 237.496 245.28 237.496 246.218C237.496 247.156 238.257 247.917 239.195 247.917Z" fill="#6CA8EB"/>
<path d="M246.306 252.377C247.244 252.377 248.004 251.616 248.004 250.678C248.004 249.74 247.244 248.979 246.306 248.979C245.368 248.979 244.608 249.74 244.608 250.678C244.608 251.616 245.368 252.377 246.306 252.377Z" fill="#6CA8EB"/>
<path d="M253.524 247.917C254.462 247.917 255.222 247.156 255.222 246.218C255.222 245.28 254.462 244.519 253.524 244.519C252.586 244.519 251.826 245.28 251.826 246.218C251.826 247.156 252.586 247.917 253.524 247.917Z" fill="#6CA8EB"/>
<path d="M260.636 252.377C261.574 252.377 262.334 251.616 262.334 250.678C262.334 249.74 261.574 248.979 260.636 248.979C259.698 248.979 258.938 249.74 258.938 250.678C258.938 251.616 259.698 252.377 260.636 252.377Z" fill="#6CA8EB"/>
<path d="M267.854 247.917C268.791 247.917 269.552 247.156 269.552 246.218C269.552 245.28 268.791 244.519 267.854 244.519C266.916 244.519 266.155 245.28 266.155 246.218C266.155 247.156 266.916 247.917 267.854 247.917Z" fill="#6CA8EB"/>
<path d="M274.965 252.377C275.903 252.377 276.663 251.616 276.663 250.678C276.663 249.74 275.903 248.979 274.965 248.979C274.027 248.979 273.267 249.74 273.267 250.678C273.267 251.616 274.027 252.377 274.965 252.377Z" fill="#6CA8EB"/>
<path d="M282.183 247.917C283.121 247.917 283.881 247.156 283.881 246.218C283.881 245.28 283.121 244.519 282.183 244.519C281.245 244.519 280.485 245.28 280.485 246.218C280.485 247.156 281.245 247.917 282.183 247.917Z" fill="#6CA8EB"/>
<path d="M289.295 252.377C290.233 252.377 290.993 251.616 290.993 250.678C290.993 249.74 290.233 248.979 289.295 248.979C288.357 248.979 287.596 249.74 287.596 250.678C287.596 251.616 288.357 252.377 289.295 252.377Z" fill="#6CA8EB"/>
<path d="M296.513 247.917C297.45 247.917 298.211 247.156 298.211 246.218C298.211 245.28 297.45 244.519 296.513 244.519C295.575 244.519 294.814 245.28 294.814 246.218C294.814 247.156 295.575 247.917 296.513 247.917Z" fill="#6CA8EB"/>
<path d="M303.624 252.377C304.562 252.377 305.322 251.616 305.322 250.678C305.322 249.74 304.562 248.979 303.624 248.979C302.686 248.979 301.926 249.74 301.926 250.678C301.926 251.616 302.686 252.377 303.624 252.377Z" fill="#6CA8EB"/>
<path d="M239.195 257.739C240.133 257.739 240.893 256.978 240.893 256.04C240.893 255.102 240.133 254.341 239.195 254.341C238.257 254.341 237.496 255.102 237.496 256.04C237.496 256.978 238.257 257.739 239.195 257.739Z" fill="#6CA8EB"/>
<path d="M246.306 262.199C247.244 262.199 248.004 261.438 248.004 260.5C248.004 259.562 247.244 258.801 246.306 258.801C245.368 258.801 244.608 259.562 244.608 260.5C244.608 261.438 245.368 262.199 246.306 262.199Z" fill="#6CA8EB"/>
<path d="M253.524 257.739C254.462 257.739 255.222 256.978 255.222 256.04C255.222 255.102 254.462 254.341 253.524 254.341C252.586 254.341 251.826 255.102 251.826 256.04C251.826 256.978 252.586 257.739 253.524 257.739Z" fill="#6CA8EB"/>
<path d="M260.636 262.199C261.574 262.199 262.334 261.438 262.334 260.5C262.334 259.562 261.574 258.801 260.636 258.801C259.698 258.801 258.938 259.562 258.938 260.5C258.938 261.438 259.698 262.199 260.636 262.199Z" fill="#6CA8EB"/>
<path d="M267.854 257.739C268.791 257.739 269.552 256.978 269.552 256.04C269.552 255.102 268.791 254.341 267.854 254.341C266.916 254.341 266.155 255.102 266.155 256.04C266.155 256.978 266.916 257.739 267.854 257.739Z" fill="#6CA8EB"/>
<path d="M274.965 262.199C275.903 262.199 276.663 261.438 276.663 260.5C276.663 259.562 275.903 258.801 274.965 258.801C274.027 258.801 273.267 259.562 273.267 260.5C273.267 261.438 274.027 262.199 274.965 262.199Z" fill="#6CA8EB"/>
<path d="M282.183 257.739C283.121 257.739 283.881 256.978 283.881 256.04C283.881 255.102 283.121 254.341 282.183 254.341C281.245 254.341 280.485 255.102 280.485 256.04C280.485 256.978 281.245 257.739 282.183 257.739Z" fill="#6CA8EB"/>
<path d="M289.295 262.199C290.233 262.199 290.993 261.438 290.993 260.5C290.993 259.562 290.233 258.801 289.295 258.801C288.357 258.801 287.596 259.562 287.596 260.5C287.596 261.438 288.357 262.199 289.295 262.199Z" fill="#6CA8EB"/>
<path d="M296.513 257.739C297.45 257.739 298.211 256.978 298.211 256.04C298.211 255.102 297.45 254.341 296.513 254.341C295.575 254.341 294.814 255.102 294.814 256.04C294.814 256.978 295.575 257.739 296.513 257.739Z" fill="#6CA8EB"/>
<path d="M303.624 262.199C304.562 262.199 305.322 261.438 305.322 260.5C305.322 259.562 304.562 258.801 303.624 258.801C302.686 258.801 301.926 259.562 301.926 260.5C301.926 261.438 302.686 262.199 303.624 262.199Z" fill="#6CA8EB"/>
<path d="M253.524 266.552C254.462 266.552 255.222 265.792 255.222 264.853C255.222 263.915 254.462 263.155 253.524 263.155C252.586 263.155 251.826 263.915 251.826 264.853C251.826 265.792 252.586 266.552 253.524 266.552Z" fill="#6CA8EB"/>
<path d="M267.854 266.552C268.791 266.552 269.552 265.792 269.552 264.853C269.552 263.915 268.791 263.155 267.854 263.155C266.916 263.155 266.155 263.915 266.155 264.853C266.155 265.792 266.916 266.552 267.854 266.552Z" fill="#6CA8EB"/>
<path d="M282.183 266.552C283.121 266.552 283.881 265.792 283.881 264.853C283.881 263.915 283.121 263.155 282.183 263.155C281.245 263.155 280.485 263.915 280.485 264.853C280.485 265.792 281.245 266.552 282.183 266.552Z" fill="#6CA8EB"/>
<path d="M276.641 176.4C275.742 176.694 274.706 176.911 273.512 177.013C273.81 177.505 274.348 177.836 274.965 177.836C275.814 177.836 276.514 177.213 276.641 176.4ZM282.183 173.376C283.121 173.376 283.881 172.616 283.881 171.677C283.881 171.506 283.855 171.341 283.808 171.185C283.058 170.95 282.558 170.792 282.43 170.752C282.412 170.746 282.395 170.756 282.391 170.775C282.349 170.966 282.101 171.968 281.286 173.118C281.547 173.281 281.853 173.376 282.183 173.376ZM303.624 243.564C303.736 243.564 303.845 243.552 303.951 243.531C303.8 242.37 303.685 241.207 303.598 240.167C302.672 240.181 301.926 240.935 301.926 241.865C301.926 242.803 302.686 243.564 303.624 243.564ZM233.675 250.678C233.675 250.385 233.601 250.109 233.47 249.868C233.035 250.445 232.62 251.104 232.334 251.804C232.26 251.987 232.193 252.176 232.132 252.369C232.997 252.29 233.675 251.564 233.675 250.678ZM233.675 185.959C233.675 185.021 232.915 184.26 231.977 184.26C231.124 184.26 230.42 184.89 230.299 185.709C230.511 186.161 230.746 186.65 231.008 187.185C231.047 187.264 231.087 187.347 231.126 187.428C231.377 187.573 231.666 187.658 231.977 187.658C232.915 187.658 233.675 186.897 233.675 185.959Z" fill="#6CA8EB"/>
<path d="M271.622 180.577C262.906 180.577 259.128 175.005 258.971 174.768C258.848 174.581 258.899 174.329 259.086 174.206C259.272 174.083 259.523 174.134 259.647 174.321C259.691 174.387 263.369 179.767 271.622 179.767C279.887 179.767 283.668 174.371 283.706 174.316C283.832 174.132 284.084 174.083 284.268 174.21C284.453 174.336 284.501 174.587 284.376 174.772C284.215 175.009 280.334 180.577 271.622 180.577Z" fill="#99C2F0"/>
<path d="M303.869 232.612C295.883 236.114 285.27 236.567 278.527 230.314C278.478 230.271 278.532 230.182 278.594 230.213C279.609 230.681 280.584 231.174 281.595 231.583C288.854 234.867 296.657 234.878 303.869 232.612ZM237.284 232.612C244.501 235.279 252.566 234.658 259.557 231.583C260.568 231.174 261.544 230.681 262.559 230.213C262.616 230.183 262.679 230.27 262.626 230.314C256.057 236.502 244.635 236.355 237.284 232.612ZM303.399 236.434C302.485 237.48 301.284 238.433 299.965 238.882C298.265 239.054 297.94 238.643 299.574 237.731C300.831 237.303 302.147 237.024 303.317 236.344C303.372 236.307 303.442 236.383 303.399 236.434ZM237.335 238.329C238.774 239.397 240.771 239.732 241.696 241.387C240.617 242.074 239.347 240.732 238.61 239.952C238.377 239.61 237.269 238.685 237.335 238.329ZM235.498 247.72C240.315 251.742 246.057 254.264 251.64 257.004C248.116 257.285 244.286 254.762 241.32 252.717C239.417 251.223 236.693 249.478 235.498 247.72Z" fill="#609FE6"/>
<path d="M231.62 257.214L230.948 260.441C230.739 261.446 231.242 262.465 232.169 262.906C236.7 265.065 250.737 270.893 270.193 270.893C289.081 270.893 302.542 267.891 307.344 266.637C308.446 266.349 309.153 265.275 308.983 264.148L308.46 260.685C262.285 272.731 231.62 257.214 231.62 257.214Z" fill="#99C2F0"/>
<path d="M238.047 153.177C233.849 158.824 222.703 171.202 215.814 180.943C206.981 193.436 201.447 204.566 201.447 204.566C201.447 204.566 197.06 213.417 202.505 217.273C206.601 220.174 212.568 219.461 215.875 215.684C216.173 215.343 216.44 214.986 216.679 214.616C221.61 207.788 230.063 195.951 234.096 186.01C236.964 178.94 247.04 158.746 247.04 158.746C249.061 156.438 248.828 152.928 246.521 150.906C244.213 148.885 240.613 150.13 238.592 152.439C238.387 152.673 238.206 152.92 238.047 153.177Z" fill="#F9C4B9"/>
<path d="M234.988 156.764C234.988 156.764 237.437 153.395 237.845 152.476C238.253 151.558 240.804 137.878 240.906 136.858C241.008 135.837 248.152 129.507 249.376 128.691C250.601 127.874 258.05 126.955 259.785 126.649C261.52 126.343 260.091 128.18 260.091 128.18C260.091 128.18 261.724 128.385 261.928 128.895C262.132 129.405 261.214 130.937 259.683 131.549C259.683 131.549 261.724 131.753 262.336 131.855C262.948 131.958 262.642 133.897 260.805 134.408C258.968 134.918 257.336 135.326 257.336 135.326C257.336 135.326 255.499 137.776 254.683 138.491C254.683 138.491 254.274 144.616 253.56 147.679C252.846 150.741 250.295 153.293 249.478 154.416C248.662 155.539 246.621 159.929 244.886 163.195C243.151 166.462 230.804 163.501 234.988 156.764Z" fill="#F9C4B9"/>
<path d="M260.091 128.18C257.158 129.017 253.842 129.233 251.185 130.736C249.572 132.13 248.073 133.657 246.439 135.04C247.609 133.178 249.496 131.075 251.532 129.873C254.267 129.075 257.432 128.448 260.091 128.18ZM259.683 131.549C252.755 132.967 255.001 132.509 250.07 136.771C251.077 135.104 252.392 133.463 254.095 132.445C255.875 132.057 258.025 131.598 259.683 131.549ZM245.09 136.245C244.966 136.998 244.467 137.452 243.968 137.98C243.635 137.235 244.369 136.395 245.09 136.245ZM248.968 137.368C248.883 138.16 248.425 138.705 247.948 139.308C247.585 138.542 248.23 137.621 248.968 137.368ZM254.683 138.491C254.355 139.205 253.333 139.69 252.642 139.205C253.307 138.832 253.899 138.487 254.683 138.491Z" fill="#E8AB9E"/>
<path d="M129.65 391.519C129.65 391.519 121.422 391.457 119.208 393.68C116.995 395.902 111.287 400.163 107.686 399.443C104.085 398.723 101.925 392.959 102.285 384.315C102.645 375.67 104.445 360.541 108.766 358.02C108.766 358.02 123.529 333.886 131.09 325.242C138.652 316.597 139.732 307.952 143.693 299.667C147.654 291.383 158.455 278.416 158.455 278.416C158.455 278.416 159.176 267.97 162.776 262.567C166.377 257.164 175.739 252.481 181.14 251.761C186.541 251.04 192.662 251.04 192.662 251.04C192.662 251.04 207.065 244.917 214.986 246.718C214.986 246.718 224.442 243.07 234.524 240.909C244.606 238.748 262.515 243.116 262.515 243.116C262.515 243.116 292.761 236.837 299.962 238.998C307.163 241.159 317.954 245.475 317.954 245.475C317.954 245.475 334.528 241.675 343.17 247.078C343.17 247.078 358.653 245.998 367.654 255.363C376.656 264.728 378.096 273.013 377.376 275.894C377.376 275.894 381.697 277.335 383.497 281.658C385.298 285.98 388.538 288.501 390.699 292.103C392.859 295.705 392.139 307.952 392.499 311.914C392.859 315.877 402.941 327.763 412.303 334.967C421.664 342.171 428.145 352.977 429.226 361.622C430.306 370.267 435.347 374.589 435.707 380.713C436.067 386.836 434.267 389.718 433.186 396.562C432.106 403.405 430.666 410.249 425.625 409.169C420.584 408.088 411.222 390.798 405.821 389.718C400.421 388.637 129.65 391.519 129.65 391.519Z" fill="#B56E81"/>
<path d="M257.611 275.206C257.611 275.206 259.681 276.215 261.326 275.1C261.326 275.1 263.343 276.003 265.943 273.985C268.544 271.968 270.985 269.897 271.94 269.632C272.895 269.366 278.999 268.676 280.432 267.721C281.865 266.765 304.686 264.694 311.267 261.562C317.721 258.49 328.564 254.6 329.28 244.183C323.172 244.279 317.954 245.475 317.954 245.475C317.954 245.475 314.562 244.118 310.313 242.545L271.383 259.226L251.561 272.605C251.561 272.605 252.41 273.985 254.002 273.985L253.633 274.934C253.633 274.934 255.329 276.374 257.611 275.206Z" fill="#AD6679"/>
<path d="M158.456 278.416C162.91 276.26 167.29 273.776 172.028 272.31C179.306 271.358 186.702 272.716 193.952 271.511C195.681 271.276 197.34 270.521 198.836 269.736C197.787 271.155 195.862 271.942 194.188 272.48C187.223 274.627 179.585 272.55 172.499 273.137C167.713 274.113 162.744 277.146 158.456 278.416Z" fill="#A85E72"/>
<path d="M187.215 277.389C184.684 275.62 181.575 274.862 179.319 272.72C181.094 271.887 183.292 273.762 184.73 274.886C185.637 275.632 186.509 276.418 187.306 277.28C187.361 277.338 187.284 277.435 187.215 277.389ZM215.034 246.77C213.435 248.555 211.801 250.402 209.839 251.786C205.571 253.845 208.035 251.226 209.979 249.943C211.589 249.029 213.382 247.696 214.938 246.666C215.002 246.619 215.088 246.708 215.034 246.77ZM317.954 245.475C319.787 246.954 322.232 247.345 324.072 248.758C325.952 250.171 323.555 249.712 322.654 249.444C321.253 248.771 318.27 246.715 317.954 245.475ZM343.218 247.026C346.508 249.725 350.512 251.331 353.64 254.217C351.12 254.6 348.507 252.115 346.557 250.505C345.351 249.443 344.191 248.329 343.121 247.13C343.067 247.07 343.152 246.972 343.218 247.026ZM337.041 271.501C342.352 270.92 347.51 269.342 352.837 269.03C357.764 269.136 363.045 269.972 367.106 272.95C368.621 274.412 370.243 275.899 372.363 276.355C374.012 276.838 375.77 276.462 377.376 275.894C376.103 277.171 373.988 277.555 372.186 277.337C369.313 277.122 367.39 274.927 365.174 273.396C354.93 267.339 347.067 271.324 337.041 271.501ZM228.018 257.539C226.511 263.887 221.431 268.276 217.813 273.401C213.129 280.58 214.235 289.752 210.755 297.452C209.876 299.38 208.821 301.484 207.384 302.959C207.693 301.981 208.356 301.015 208.724 300.024C212.628 291.089 211.461 280.271 217.513 272.229C219.903 269.087 223.003 266.499 225.106 263.127C226.243 261.379 227.28 259.513 227.879 257.509C227.893 257.422 228.043 257.446 228.018 257.539ZM309.393 257.509C311.209 263.747 316.475 267.879 320.224 272.886C325.783 280.884 324.734 291.322 328.548 300.024C328.901 301.016 329.617 302.001 329.877 302.967C328.451 301.44 327.391 299.394 326.517 297.453C323.038 289.752 324.143 280.58 319.459 273.401C318.361 271.662 316.915 270.045 315.551 268.507C313.016 265.401 309.822 261.189 309.393 257.509ZM257.127 280.867C262.249 281.834 267.784 283.767 270.9 288.211L270.049 288.114C273.976 284.17 280.074 280.027 285.562 281.007C280.046 282.179 275.058 285.296 270.8 288.909C269.845 289.493 269.527 287.732 268.876 287.285C265.966 283.819 260.84 282.247 257.127 280.867Z" fill="#A85E72"/>
<path d="M270.507 288.501C270.796 290.857 270.904 293.343 271.138 295.705C271.33 296.867 270.608 302.458 269.935 298.587C269.468 296.706 269.881 294.725 269.965 292.824C270.077 291.426 270.205 289.888 270.365 288.501C270.373 288.422 270.5 288.417 270.507 288.501Z" fill="#A85E72"/>
<path d="M269.187 257.254C274.687 254.697 283.257 250.88 293.797 245.293C307.312 238.128 311.735 237.328 311.735 237.328C311.735 237.328 320.655 234.239 323.781 240.134C326.133 244.569 325.465 249.951 321.297 252.748C320.921 253.001 320.146 253.537 319.749 253.726C312.349 257.745 305.893 260.918 295.521 263.647C288.145 265.588 273.557 266.889 273.557 266.889C271.01 268.598 267.56 267.919 265.851 265.371C264.142 262.822 265.837 259.41 268.385 257.7C268.643 257.527 268.912 257.379 269.187 257.254Z" fill="#F9C4B9"/>
<path d="M280.518 253.802C280.518 253.802 274.637 254.522 270.436 254.402C266.236 254.282 263.715 255.002 262.635 256.083C261.555 257.164 255.794 263.887 255.074 264.728C254.353 265.568 251.833 270.971 251.473 272.292C251.113 273.613 253.633 273.012 253.633 273.012C253.633 273.012 253.633 274.573 253.633 274.934C253.633 275.294 256.754 275.174 257.714 274.213C257.714 274.213 258.434 276.014 261.075 274.453C261.075 274.453 264.315 274.213 266.116 272.292C267.916 270.371 270.316 268.81 271.397 268.45C272.477 268.09 279.438 267.129 282.079 264.848C284.719 262.567 287.48 258.965 286.039 255.843C284.599 252.721 280.518 253.802 280.518 253.802Z" fill="#F9C4B9"/>
<path d="M253.634 273.012C255.086 270.364 256.371 267.598 258.141 265.14C259.485 263.653 261.086 261.921 262.657 260.907C261.361 262.617 259.906 264.172 258.403 265.691C256.762 267.716 255.113 271.054 253.634 273.012ZM257.714 274.213C258.725 271.969 259.62 269.51 260.842 267.369C262.301 265.385 264.112 263.249 266.018 261.927C264.313 264.529 261.716 266.454 260.319 269.238C259.736 270.225 258.333 273.409 257.714 274.213ZM261.075 274.453C261.712 272.224 262.703 270.148 264.093 268.296C264.781 267.302 265.319 266.183 266.495 265.698C267.548 265.126 268.629 264.44 269.741 264.058C268.556 265.122 267.161 266.007 265.799 266.854L265.886 266.775C263.924 269.062 262.151 271.819 261.075 274.453Z" fill="#E8AB9E"/>
<path d="M150.172 515.833H136.804V413.108H160.299L150.172 515.833Z" fill="#A49DB3"/>
<path d="M140.302 535.569H146.971C150.441 535.569 153.255 532.754 153.255 529.283V504.972C153.255 501.5 150.441 498.686 146.971 498.686H140.302C136.832 498.686 134.019 501.5 134.019 504.972V529.283C134.018 532.754 136.832 535.569 140.302 535.569Z" fill="#1E2C56"/>
<path d="M386.533 515.833H399.901V413.108H376.406L386.533 515.833Z" fill="#A49DB3"/>
<path d="M389.469 535.569H396.137C399.608 535.569 402.421 532.754 402.421 529.283V504.972C402.421 501.5 399.608 498.686 396.137 498.686H389.469C385.998 498.686 383.185 501.5 383.185 504.972V529.283C383.185 532.754 385.998 535.569 389.469 535.569Z" fill="#1E2C56"/>
<path d="M392.993 423.367H143.712C139.897 423.367 136.804 420.273 136.804 416.456V400.823H399.901V416.456C399.901 420.273 396.808 423.367 392.993 423.367Z" fill="#A49DB3"/>
<path d="M399.631 491.294H137.142C133.612 491.294 130.751 488.432 130.751 484.901V481.119C130.751 477.587 133.612 474.725 137.142 474.725H399.631C403.16 474.725 406.022 477.587 406.022 481.119V484.901C406.022 488.432 403.16 491.294 399.631 491.294ZM402.78 415.945H133.925C129.81 415.945 126.475 412.608 126.475 408.492V391.631H410.23V408.492C410.23 412.608 406.895 415.945 402.78 415.945Z" fill="#BEBBC4"/>
<path d="M390.123 309.033H146.582C135.477 309.033 126.475 318.038 126.475 329.148V402.251H410.23V329.148C410.23 318.038 401.228 309.033 390.123 309.033ZM379.951 337.196C379.951 342.455 375.689 346.719 370.431 346.719H166.273C161.016 346.719 156.754 342.455 156.754 337.196C156.754 331.937 161.016 327.673 166.273 327.673H370.431C375.689 327.673 379.951 331.937 379.951 337.196Z" fill="#D8D8D8"/>
<path d="M390.123 307.142H146.582C135.477 307.142 126.475 316.147 126.475 327.257V329.834H410.23V327.257C410.23 316.147 401.228 307.142 390.123 307.142Z" fill="#D8D8D8"/>
<path d="M390.123 311.194H146.582C135.477 311.194 126.475 320.2 126.475 331.309V404.412H410.23V331.309C410.23 320.2 401.228 311.194 390.123 311.194ZM379.951 341.383C379.951 346.643 375.689 350.906 370.431 350.906H166.273C161.016 350.906 156.754 346.643 156.754 341.383C156.754 336.124 161.016 331.86 166.273 331.86H370.431C375.689 331.86 379.951 336.124 379.951 341.383Z" fill="#CCCBCE"/>
</svg>
