<svg width="123" height="123" viewBox="0 0 123 123" fill="none" xmlns="http://www.w3.org/2000/svg">
<path d="M61.5009 9.83997C52.8909 9.83997 45.7569 17.466 45.7569 26.814C45.7569 35.424 52.1529 48.216 61.5009 48.216C70.8489 48.216 77.2449 35.178 77.2449 26.814C77.2449 24.846 76.9989 22.878 76.2609 21.156C74.2929 14.514 68.3889 9.83997 61.5009 9.83997ZM61.5009 14.76C65.4369 14.76 68.8809 17.22 70.8489 20.664C68.8809 20.664 66.9129 18.942 66.9129 18.942C65.9289 18.204 64.4529 18.204 63.7149 18.942C60.0249 22.14 55.1049 21.894 51.9069 21.648C53.6289 17.466 57.3189 14.76 61.5009 14.76ZM61.5009 43.296C56.0889 43.296 50.6769 33.702 50.6769 26.814C50.6769 26.568 50.6769 26.568 50.6769 26.322C51.9069 26.568 53.1369 26.568 54.8589 26.568C58.0569 26.568 61.9929 26.076 65.1909 23.862C67.1589 25.092 69.6189 25.83 72.0789 25.338C72.0789 25.83 72.0789 26.322 72.0789 26.568C72.3249 33.702 66.9129 43.296 61.5009 43.296ZM118.081 108.24H98.4009C98.6469 107.502 98.8929 106.764 98.8929 105.78V73.308C98.8929 69.126 95.6949 65.928 91.5129 65.928H89.2989C86.3469 56.826 77.7369 50.676 68.3889 50.676H54.8589C48.9549 50.676 43.2969 52.89 39.1149 57.072C36.6549 59.532 34.6869 62.484 33.7029 65.928H31.4889C27.3069 65.928 24.1089 69.126 24.1089 73.308V105.78C24.1089 106.764 24.3549 107.502 24.6009 108.24H4.92094C3.44494 108.24 2.46094 109.224 2.46094 110.7C2.46094 112.176 3.44494 113.16 4.92094 113.16C26.0769 113.16 90.5289 113.16 118.081 113.16C119.557 113.16 120.541 112.176 120.541 110.7C120.541 109.47 119.557 108.24 118.081 108.24ZM42.5589 60.516C45.7569 57.318 50.1849 55.596 54.6129 55.596H68.1429C75.0309 55.596 81.1809 59.778 83.8869 65.928H38.8689C39.8529 63.96 41.0829 61.992 42.5589 60.516ZM31.4889 108.24C30.0129 108.24 29.0289 107.256 29.0289 105.78V73.308C29.0289 71.832 30.0129 70.848 31.4889 70.848H91.5129C92.9889 70.848 93.9729 71.832 93.9729 73.308V105.78C93.9729 107.256 92.9889 108.24 91.5129 108.24H31.4889Z" fill="#FFAF18"/>
</svg>
