<svg width="36" height="36" viewBox="0 0 36 36" fill="none" xmlns="http://www.w3.org/2000/svg">
<path d="M13.3352 23.104C12.5129 23.2047 11.9278 23.9527 12.0283 24.775C12.1289 25.5973 12.877 26.1825 13.6993 26.0818C14.5216 25.9813 15.1067 25.2331 15.0062 24.4108C14.9056 23.5885 14.1575 23.0035 13.3352 23.104Z" fill="#485FE5"/>
<path d="M8.32228 19.1835C8.22171 18.3612 8.8068 17.613 9.6291 17.5125C10.4514 17.4118 11.1995 17.997 11.3001 18.8193C11.4007 19.6416 10.8156 20.3896 9.99327 20.4903C9.17097 20.5908 8.42284 20.0058 8.32228 19.1835Z" fill="#485FE5"/>
<path d="M11.8781 11.1926C11.0558 11.2932 10.4707 12.0413 10.5713 12.8636C10.6719 13.6859 11.42 14.271 12.2423 14.1705C13.0646 14.0699 13.6497 13.3218 13.5491 12.4995C13.4486 11.6772 12.7004 11.0921 11.8781 11.1926Z" fill="#485FE5"/>
<path d="M23.5459 13.9215C23.4454 13.0992 24.0304 12.3511 24.8527 12.2505C25.675 12.1499 26.4232 12.735 26.5237 13.5573C26.6242 14.3796 26.0392 15.1278 25.2169 15.2283C24.3946 15.3289 23.6464 14.7438 23.5459 13.9215Z" fill="#485FE5"/>
<path d="M17.9889 16.3179C17.1666 16.4185 16.5816 17.1666 16.6821 17.9889C16.7826 18.8112 17.5308 19.3963 18.3531 19.2957C19.1754 19.1952 19.7606 18.447 19.6599 17.6247C19.5594 16.8024 18.8112 16.2174 17.9889 16.3179Z" fill="#485FE5"/>
<path d="M17.0899 10.5553C16.9892 9.73299 17.5744 8.98485 18.3967 8.88429C19.219 8.78373 19.967 9.36882 20.0677 10.1911C20.1682 11.0134 19.5832 11.7615 18.7609 11.8621C17.9386 11.9627 17.1904 11.3776 17.0899 10.5553Z" fill="#485FE5"/>
<path fill-rule="evenodd" clip-rule="evenodd" d="M3.37938 17.6454C3.57513 9.57063 10.2797 3.18339 18.3545 3.37914C26.4293 3.57489 32.8166 10.2795 32.6208 18.3543C32.6084 18.8656 32.4365 19.3329 32.1198 19.7175C31.817 20.0854 31.4247 20.3266 31.0379 20.4882C30.2847 20.8026 29.3409 20.9011 28.4069 20.9074C24.3738 20.9347 20.8709 24.4036 20.642 28.4949C20.5884 29.4495 20.4257 30.4203 20.015 31.1832C19.8023 31.5781 19.5035 31.9539 19.085 32.226C18.6566 32.5045 18.1653 32.6331 17.6456 32.6205C9.57087 32.4247 3.18363 25.7202 3.37938 17.6454ZM18.3 5.62847C11.4675 5.46284 5.79435 10.8674 5.62872 17.7C5.46309 24.5325 10.8677 30.2056 17.7002 30.3712C17.8023 30.3736 17.8401 30.3517 17.8586 30.3396C17.8871 30.3211 17.9532 30.2664 18.0339 30.1164C18.2099 29.7895 18.3482 29.2134 18.3954 28.3692C18.687 23.1568 23.1068 18.6933 28.3917 18.6576C29.2347 18.6519 29.8265 18.5557 30.171 18.4119C30.2927 18.361 30.3497 18.3181 30.3714 18.2986C30.5364 11.4666 25.1321 5.79409 18.3 5.62847Z" fill="#485FE5"/>
</svg>
