<svg width="128" height="128" viewBox="0 0 128 128" fill="none" xmlns="http://www.w3.org/2000/svg">
<g clip-path="url(#clip0_165_552)">
<path d="M110.303 -4.25111e-05C106.5 -0.0325855 102.777 1.08685 99.6234 3.21096C98.9287 3.72382 98.4186 4.44774 98.1693 5.27453C97.9201 6.10132 97.9451 6.98657 98.2406 7.79796L99.6343 11.6241C99.8513 12.2198 100.207 12.7554 100.672 13.1868C101.136 13.6181 101.697 13.9328 102.307 14.1049C102.917 14.277 103.56 14.3016 104.181 14.1766C104.803 14.0516 105.386 13.7807 105.882 13.3861C106.874 12.7283 108.037 12.3759 109.226 12.3727C110.774 12.4041 110.774 12.8041 110.774 13.5951C110.774 14.9832 109.938 16.5239 107.581 19.4831C103.319 24.7421 102.797 29.6049 103.124 32.7775L103.236 34.2937C103.31 35.301 103.763 36.243 104.503 36.9304C105.243 37.6179 106.215 38 107.226 38H111.755C112.293 38 112.826 37.8914 113.321 37.6807C113.816 37.47 114.264 37.1615 114.637 36.7737C115.01 36.386 115.301 35.9269 115.493 35.4239C115.684 34.921 115.772 34.3846 115.752 33.8468L115.694 32.3287L115.69 32.2572C115.602 30.6793 115.834 28.8303 118.116 26.0095C121.209 22.2362 124 18.3798 124 12.927C124 6.70089 119.714 -4.25111e-05 110.303 -4.25111e-05ZM115.006 23.4937C112.452 26.6516 111.522 29.3845 111.697 32.4818L111.755 34H107.226L107.109 32.4207C106.761 29.2023 107.806 25.5584 110.709 21.9756C113.322 18.6961 114.774 16.3281 114.774 13.5952C114.774 10.4979 112.916 8.43318 109.258 8.37265C107.154 8.3678 105.101 9.02653 103.393 10.2552L101.999 6.42905C104.465 4.81475 107.355 3.96931 110.303 3.99996C116.98 3.99996 120 8.31148 120 12.927C120 17.0563 117.794 20.0931 115.006 23.4937H115.006ZM110.016 42C108.83 41.9967 107.668 42.3454 106.68 43.002C105.691 43.6586 104.92 44.5936 104.463 45.6888C104.005 46.7839 103.883 47.9901 104.112 49.1546C104.34 50.3192 104.909 51.3899 105.745 52.2313C106.582 53.0728 107.65 53.6471 108.813 53.8817C109.977 54.1164 111.183 54.0008 112.281 53.5495C113.379 53.0983 114.318 52.3317 114.98 51.3467C115.642 50.3616 115.997 49.2025 116 48.0157C116.008 47.2261 115.859 46.4427 115.562 45.7111C115.265 44.9796 114.825 44.3145 114.268 43.7546C113.711 43.1948 113.048 42.7513 112.318 42.45C111.589 42.1488 110.806 41.9958 110.016 42V42ZM109.983 50H109.949C109.689 50.0053 109.43 49.9573 109.189 49.8591C108.947 49.7608 108.729 49.6142 108.546 49.4284C108.364 49.2426 108.221 49.0215 108.127 48.7785C108.033 48.5356 107.99 48.276 107.999 48.0157C107.988 47.7479 108.033 47.4807 108.13 47.231C108.228 46.9813 108.376 46.7546 108.565 46.5651C108.755 46.3756 108.982 46.2276 109.232 46.1303C109.481 46.033 109.748 45.9886 110.016 46C110.279 46.0022 110.539 46.0561 110.78 46.1586C111.022 46.2612 111.241 46.4103 111.426 46.5976C111.61 46.7849 111.755 47.0066 111.854 47.2501C111.952 47.4936 112.002 47.7541 112 48.0167C111.997 48.2794 111.943 48.539 111.841 48.7808C111.738 49.0226 111.589 49.2419 111.402 49.426C111.215 49.6102 110.993 49.7557 110.749 49.8541C110.506 49.9526 110.245 50.0022 109.983 50V50ZM83.9986 5.30263C79.9423 5.30263 76.9983 7.76876 76.9983 11.1666V36.7156C75.4273 36.7095 73.4859 36.7039 71.3623 36.699C73.7889 34.7592 75.5532 32.1137 76.4118 29.1281C77.2703 26.1425 77.1805 22.9639 76.155 20.0315C75.1294 17.099 73.2186 14.5573 70.6864 12.7575C68.1543 10.9577 65.1258 9.98849 62.0192 9.9838C58.9126 9.97911 55.8811 10.9392 53.3436 12.7313C50.806 14.5235 48.8876 17.0594 47.8531 19.9887C46.8187 22.9181 46.7194 26.0964 47.5689 29.0846C48.4184 32.0728 50.1748 34.7235 52.5955 36.6706C49.868 36.668 48.0622 36.6667 48.0001 36.6666C44.2788 36.6945 40.681 38.0053 37.8138 40.3778C34.9467 42.7503 32.9857 46.0392 32.2619 49.6895C32.0902 49.9868 31.9988 50.3237 31.9967 50.667V51.7726C31.9828 51.993 31.9541 52.2095 31.9493 52.4321C31.9467 52.6533 31.9626 52.8744 31.9967 53.093V79.167C32.0589 80.8687 32.7643 82.4835 33.9706 83.6855C35.1769 84.8875 36.7942 85.5872 38.4962 85.6434L38.4614 89.6317C38.4487 90.6173 38.804 91.5722 39.4578 92.3098C40.1117 93.0474 41.017 93.5147 41.9971 93.6204V120C41.9994 122.12 42.8434 124.153 44.3434 125.651C45.8435 127.15 47.8771 127.991 49.9973 127.991C52.1176 127.991 54.1511 127.15 55.6512 125.651C57.1513 124.153 57.9953 122.12 57.9976 120V93.6666H61.9978V120C62.0001 122.12 62.8441 124.153 64.3442 125.651C65.8442 127.15 67.8778 127.991 69.998 127.991C72.1183 127.991 74.1519 127.15 75.6519 125.651C77.152 124.153 77.996 122.12 77.9983 120V93.5252C78.8554 93.3056 79.6152 92.8074 80.1582 92.1089C80.7013 91.4104 80.9968 90.5513 80.9984 89.6666V59.1204C80.9998 58.6602 81.1064 58.2065 81.31 57.7939C81.5136 57.3812 81.8089 57.0206 82.1732 56.7396L86.6914 53.2758C88.0273 52.2453 89.11 50.923 89.8565 49.41C90.6031 47.897 90.9938 46.2333 90.9988 44.5461V11.1666C90.9988 7.76876 88.0548 5.30263 83.9986 5.30263ZM50.9974 25C50.9973 22.8243 51.6424 20.6974 52.8511 18.8884C54.0598 17.0793 55.7778 15.6693 57.7878 14.8366C59.7979 14.004 62.0097 13.7861 64.1436 14.2105C66.2775 14.6349 68.2376 15.6826 69.7761 17.221C71.3145 18.7594 72.3623 20.7195 72.7868 22.8533C73.2112 24.9872 72.9934 27.1991 72.1608 29.2091C71.3283 31.2192 69.9183 32.9373 68.1093 34.146C66.3003 35.3548 64.1735 36 61.9978 36C60.5532 36 59.1228 35.7155 57.7882 35.1627C56.4535 34.6099 55.2409 33.7997 54.2194 32.7782C53.1979 31.7568 52.3876 30.5441 51.8348 29.2095C51.2819 27.8749 50.9974 26.4445 50.9974 25ZM53.9975 120C53.9975 121.061 53.576 122.078 52.8259 122.828C52.0757 123.579 51.0582 124 49.9973 124C48.9364 124 47.919 123.579 47.1688 122.828C46.4186 122.078 45.9972 121.061 45.9972 120V93.6666H53.9975V120ZM73.9982 120C73.9982 121.061 73.5768 122.078 72.8266 122.828C72.0764 123.579 71.059 124 69.9981 124C68.9372 124 67.9197 123.579 67.1695 122.828C66.4194 122.078 65.9979 121.061 65.9979 120V93.6666H73.9982V120ZM86.9987 44.5461C86.9987 45.6203 86.7514 46.6801 86.2761 47.6434C85.8008 48.6068 85.1101 49.4478 84.2576 50.1013L79.7394 53.5651C78.8869 54.2187 78.1962 55.0597 77.7209 56.023C77.2455 56.9864 76.9983 58.0462 76.9983 59.1204V89.6666H42.4614L42.504 84.7835C43.5403 84.2515 44.4127 83.4479 45.0279 82.4587C45.6432 81.4695 45.9782 80.3317 45.9972 79.167V61.667C45.9972 61.1365 45.7865 60.6278 45.4114 60.2527C45.0363 59.8776 44.5276 59.6669 43.9971 59.6669C43.4667 59.6669 42.9579 59.8776 42.5829 60.2527C42.2078 60.6278 41.9971 61.1365 41.9971 61.667V79.167C41.9242 79.8936 41.569 80.5626 41.008 81.0302C40.4469 81.4977 39.7248 81.7263 38.9969 81.667C38.2691 81.7263 37.5469 81.4977 36.9859 81.0302C36.4249 80.5626 36.0697 79.8936 35.9968 79.167V52.8666L36.2858 53.1845L35.9968 52.6667V51.8447C36.2387 48.819 37.6047 45.9935 39.8258 43.9247C42.0468 41.8558 44.962 40.6935 47.9973 40.6666C47.9973 40.6666 69.8305 40.682 77.9908 40.7198L78.005 40.7199C78.3986 40.7197 78.7883 40.642 79.1518 40.4911C79.5154 40.3401 79.8456 40.1191 80.1236 39.8404C80.4016 39.5618 80.622 39.2311 80.7721 38.8672C80.9222 38.5034 80.9991 38.1135 80.9984 37.7199V11.1666C80.9984 9.92398 82.4985 9.30259 83.9986 9.30259C85.4986 9.30259 86.9987 9.92393 86.9987 11.1666V44.5461ZM33.4257 33.1716L31.6658 24.8579L37.511 22.0041C39.3312 21.0867 40.7424 19.5216 41.4671 17.6164C42.1917 15.7112 42.1774 13.6039 41.427 11.7087L38.8147 5.05562C38.2514 3.57313 37.2518 2.29631 35.9478 1.3937C34.6438 0.491096 33.0967 0.00513106 31.5108 -4.25111e-05C30.5749 -8.75197e-05 29.6469 0.170915 28.7725 0.504538L9.13058 7.96996C8.14764 8.34424 7.2494 8.91118 6.48863 9.63746C5.72785 10.3637 5.11989 11.2347 4.70043 12.1993C4.26229 13.1965 4.02491 14.2703 4.00186 15.3594C3.97881 16.4484 4.17054 17.5313 4.56609 18.5462L7.87834 26.9819C8.44195 28.4646 9.44193 29.7415 10.7463 30.6442C12.0506 31.5468 13.5981 32.0327 15.1843 32.0378C16.3579 32.0388 17.516 31.7699 18.5691 31.252L18.9891 31.0469L27.0969 37.1884C27.747 37.6808 28.532 37.9628 29.3468 37.9965C30.1616 38.0302 30.9673 37.8141 31.6558 37.3771C32.3444 36.9401 32.8829 36.3031 33.1992 35.5514C33.5155 34.7998 33.5946 33.9694 33.4257 33.1715L33.4257 33.1716ZM27.106 22.6328L29.5123 34L19.4441 26.3736L16.814 27.6576C16.3069 27.9071 15.7494 28.0371 15.1842 28.0378C14.4029 28.0282 13.6427 27.7826 13.0034 27.3333C12.3641 26.8839 11.8755 26.2519 11.6018 25.52L8.28954 17.0844C7.87892 16.0713 7.88644 14.9369 8.31045 13.9294C8.73446 12.9219 9.54041 12.1235 10.5518 11.709L30.1937 4.24355C30.6142 4.08289 31.0606 4.00034 31.5108 3.99996C32.2918 4.01006 33.0515 4.25583 33.6904 4.70507C34.3293 5.1543 34.8176 5.78605 35.0913 6.51754L37.7036 13.1705C38.0895 14.1295 38.1038 15.198 37.7436 16.167C37.3834 17.1359 36.6746 17.9357 35.7559 18.4097L27.106 22.6328Z" fill="#FFAF18"/>
</g>
<defs>
<clipPath id="clip0_165_552">
<rect width="128" height="128" fill="white"/>
</clipPath>
</defs>
</svg>
