<svg width="131" height="131" viewBox="0 0 131 131" fill="none" xmlns="http://www.w3.org/2000/svg">
<path d="M62.7702 62.7708C62.0464 62.7708 61.3522 63.0583 60.8404 63.5701C60.3285 64.082 60.041 64.7761 60.041 65.5C60.041 66.2238 60.3285 66.918 60.8404 67.4298C61.3522 67.9416 62.0464 68.2291 62.7702 68.2291H95.5202C96.244 68.2291 96.9382 67.9416 97.45 67.4298C97.9618 66.918 98.2493 66.2238 98.2493 65.5C98.2493 64.7761 97.9618 64.082 97.45 63.5701C96.9382 63.0583 96.244 62.7708 95.5202 62.7708H62.7702ZM60.041 54.5833C60.041 53.8595 60.3285 53.1653 60.8404 52.6535C61.3522 52.1417 62.0464 51.8541 62.7702 51.8541H90.0618C90.7857 51.8541 91.4798 52.1417 91.9917 52.6535C92.5035 53.1653 92.791 53.8595 92.791 54.5833C92.791 55.3071 92.5035 56.0013 91.9917 56.5131C91.4798 57.0249 90.7857 57.3125 90.0618 57.3125H62.7702C62.0464 57.3125 61.3522 57.0249 60.8404 56.5131C60.3285 56.0013 60.041 55.3071 60.041 54.5833ZM68.2285 73.6875C67.5047 73.6875 66.8105 73.975 66.2987 74.4868C65.7869 74.9986 65.4993 75.6928 65.4993 76.4166C65.4993 77.1404 65.7869 77.8346 66.2987 78.3464C66.8105 78.8583 67.5047 79.1458 68.2285 79.1458H95.5202C96.244 79.1458 96.9382 78.8583 97.45 78.3464C97.9618 77.8346 98.2493 77.1404 98.2493 76.4166C98.2493 75.6928 97.9618 74.9986 97.45 74.4868C96.9382 73.975 96.244 73.6875 95.5202 73.6875H68.2285Z" fill="#FFAF18"/>
<path fill-rule="evenodd" clip-rule="evenodd" d="M96.7224 27.2916H39.2571C38.1462 27.292 37.0619 27.6314 36.1489 28.2644C35.236 28.8974 34.538 29.7939 34.1481 30.8341L13.6793 85.4174C13.3697 86.2435 13.2649 87.1323 13.3739 88.0077C13.4829 88.8832 13.8024 89.7191 14.3052 90.444C14.808 91.1689 15.4789 91.7612 16.2607 92.17C17.0424 92.5789 17.9116 92.7922 18.7938 92.7916H49.1257L50.7305 99.5163C51.0153 100.71 51.6944 101.774 52.6581 102.534C53.6218 103.295 54.8137 103.709 56.0414 103.708H113.097C113.927 103.71 114.746 103.522 115.493 103.16C116.239 102.797 116.892 102.268 117.403 101.614C117.914 100.96 118.268 100.198 118.44 99.3859C118.611 98.574 118.595 97.7337 118.392 96.929L102.017 31.429C101.791 30.5425 101.351 29.7252 100.734 29.0492C100.223 28.4951 99.6028 28.0529 98.9124 27.7504C98.2219 27.4479 97.4762 27.2917 96.7224 27.2916ZM37.5923 37.1821L48.3506 87.3333H18.7883L37.5923 37.1821V37.1821ZM96.7224 32.75H42.2319L56.2652 98.25H113.097L96.7224 32.75Z" fill="#FFAF18"/>
</svg>
