<svg width="307" height="230" viewBox="0 0 307 230" fill="none" xmlns="http://www.w3.org/2000/svg">
<g clip-path="url(#clip0_167_4481)">
<path d="M273.84 38.8125H51.7047C49.8539 38.8125 48.3535 40.3142 48.3535 42.1667V166.271C48.3535 168.123 49.8539 169.625 51.7047 169.625H273.84C275.69 169.625 277.191 168.123 277.191 166.271V42.1667C277.191 40.3142 275.69 38.8125 273.84 38.8125Z" fill="#FFAF18" stroke="#FFAF18" stroke-width="2"/>
<path d="M270.966 41.6875H54.5758C52.725 41.6875 51.2246 43.1892 51.2246 45.0417V163.396C51.2246 165.248 52.725 166.75 54.5758 166.75H270.966C272.817 166.75 274.317 165.248 274.317 163.396V45.0417C274.317 43.1892 272.817 41.6875 270.966 41.6875Z" fill="white" stroke="#FFAF18" stroke-width="2"/>
<path d="M188.145 206.042H137.399C137.134 206.042 136.92 206.256 136.92 206.521V209.396C136.92 209.661 137.134 209.875 137.399 209.875H188.145C188.409 209.875 188.624 209.661 188.624 209.396V206.521C188.624 206.256 188.409 206.042 188.145 206.042Z" fill="white" stroke="#FFAF18" stroke-width="2"/>
<path d="M186.708 169.625H138.834C138.57 169.625 138.355 169.84 138.355 170.104V205.562C138.355 205.827 138.57 206.042 138.834 206.042H186.708C186.972 206.042 187.187 205.827 187.187 205.562V170.104C187.187 169.84 186.972 169.625 186.708 169.625Z" fill="#FFAF18" stroke="#FFAF18" stroke-width="2"/>
<path d="M65.1094 68.2812L77.796 55.5833M65.3487 74.2708L84.0196 55.5833L65.3487 74.2708Z" stroke="#FFAF18" stroke-width="2" stroke-linecap="round" stroke-linejoin="round"/>
<path d="M137.877 209.875H142.664V210.833H137.877V209.875ZM182.878 209.875H187.666V210.833H182.878V209.875Z" fill="#FFAF18"/>
<path d="M137.877 204.125H187.666" stroke="#FFAF18" stroke-width="2"/>
<path d="M91.9179 141.833H32.5543C30.7035 141.833 29.2031 143.335 29.2031 145.187V214.187C29.2031 216.04 30.7035 217.542 32.5543 217.542H91.9179C93.7687 217.542 95.2691 216.04 95.2691 214.187V145.187C95.2691 143.335 93.7687 141.833 91.9179 141.833Z" fill="#FFAF18" stroke="#FFAF18" stroke-width="2"/>
<path d="M86.1723 147.583H38.2984C36.4476 147.583 34.9473 149.085 34.9473 150.937V204.604C34.9473 206.457 36.4476 207.958 38.2984 207.958H86.1723C88.0231 207.958 89.5235 206.457 89.5235 204.604V150.937C89.5235 149.085 88.0231 147.583 86.1723 147.583Z" fill="white" stroke="#FFAF18" stroke-width="2"/>
<path d="M43.566 161.24L48.114 156.688M40.2148 161L48.3534 152.854L40.2148 161Z" stroke="#FFAF18" stroke-width="2" stroke-linecap="round" stroke-linejoin="round"/>
<path d="M62.2368 145.667C62.7656 145.667 63.1943 145.238 63.1943 144.708C63.1943 144.179 62.7656 143.75 62.2368 143.75C61.708 143.75 61.2793 144.179 61.2793 144.708C61.2793 145.238 61.708 145.667 62.2368 145.667Z" fill="#FFAF18"/>
<path d="M62.2353 214.667C63.2929 214.667 64.1502 213.808 64.1502 212.75C64.1502 211.691 63.2929 210.833 62.2353 210.833C61.1777 210.833 60.3203 211.691 60.3203 212.75C60.3203 213.808 61.1777 214.667 62.2353 214.667Z" fill="white" stroke="#FFAF18" stroke-width="2"/>
<path d="M38.2988 177.771H12.4469C10.5961 177.771 9.0957 179.272 9.0957 181.125V224.25C9.0957 226.102 10.5961 227.604 12.4469 227.604H38.2988C40.1496 227.604 41.6499 226.102 41.6499 224.25V181.125C41.6499 179.272 40.1496 177.771 38.2988 177.771Z" fill="white" stroke="#FFAF18" stroke-width="2"/>
<path d="M9.0957 181.125C9.0957 180.235 9.44877 179.382 10.0772 178.753C10.7057 178.124 11.5581 177.771 12.4469 177.771H38.2988C39.1876 177.771 40.0399 178.124 40.6684 178.753C41.2969 179.382 41.6499 180.235 41.6499 181.125V182.562H9.0957V181.125Z" fill="#FFAF18" stroke="#FFAF18" stroke-width="2"/>
<path d="M25.3735 181.125C25.9023 181.125 26.331 180.696 26.331 180.167C26.331 179.637 25.9023 179.208 25.3735 179.208C24.8447 179.208 24.416 179.637 24.416 180.167C24.416 180.696 24.8447 181.125 25.3735 181.125Z" fill="#FFAF18"/>
<path d="M9.0957 222.812H41.6499V224.25C41.6499 225.14 41.2969 225.993 40.6684 226.622C40.0399 227.251 39.1876 227.604 38.2988 227.604H12.4469C11.5581 227.604 10.7057 227.251 10.0772 226.622C9.44877 225.993 9.0957 225.14 9.0957 224.25V222.812Z" fill="#FFAF18" stroke="#FFAF18" stroke-width="2"/>
<path d="M15.7984 195.26L20.3465 190.708M12.4473 195.021L20.5858 186.875L12.4473 195.021Z" stroke="#FFAF18" stroke-width="2" stroke-linecap="round" stroke-linejoin="round"/>
<path d="M304.478 94.3958H260.434C259.641 94.3958 258.998 95.0393 258.998 95.8333V135.125C258.998 135.919 259.641 136.562 260.434 136.562H304.478C305.271 136.562 305.914 135.919 305.914 135.125V95.8333C305.914 95.0393 305.271 94.3958 304.478 94.3958Z" fill="white" stroke="#FFAF18" stroke-width="2"/>
<path d="M258.52 95.8334C258.52 95.3251 258.721 94.8376 259.08 94.4781C259.44 94.1187 259.927 93.9167 260.434 93.9167H304.478C304.986 93.9167 305.473 94.1187 305.833 94.4781C306.192 94.8376 306.393 95.3251 306.393 95.8334V100.625H258.52V95.8334Z" fill="#FFAF18"/>
<path d="M258.998 95.8333C258.998 95.452 259.149 95.0864 259.419 94.8168C259.688 94.5472 260.053 94.3958 260.434 94.3958H296.34V100.146H258.998V95.8333Z" fill="#FFAF18" stroke="#FFAF18" stroke-width="2"/>
<path d="M261.869 96.7917H272.402C272.529 96.7917 272.65 96.8422 272.74 96.9321C272.83 97.022 272.88 97.1438 272.88 97.2709C272.88 97.398 272.83 97.5199 272.74 97.6097C272.65 97.6996 272.529 97.7501 272.402 97.7501H261.869C261.742 97.7501 261.621 97.6996 261.531 97.6097C261.441 97.5199 261.391 97.398 261.391 97.2709C261.391 97.1438 261.441 97.022 261.531 96.9321C261.621 96.8422 261.742 96.7917 261.869 96.7917ZM287.243 117.396C287.116 117.396 286.994 117.446 286.904 117.536C286.814 117.626 286.764 117.748 286.764 117.875V122.188C286.764 122.315 286.814 122.437 286.904 122.526C286.994 122.616 287.116 122.667 287.243 122.667C287.369 122.667 287.491 122.616 287.581 122.526C287.671 122.437 287.721 122.315 287.721 122.188V118.354H291.551C291.678 118.354 291.8 118.304 291.89 118.214C291.979 118.124 292.03 118.002 292.03 117.875C292.03 117.748 291.979 117.626 291.89 117.536C291.8 117.446 291.678 117.396 291.551 117.396H287.243ZM302.562 133.688C302.689 133.688 302.811 133.637 302.901 133.547C302.99 133.457 303.041 133.335 303.041 133.208V128.896C303.041 128.769 302.99 128.647 302.901 128.557C302.811 128.467 302.689 128.417 302.562 128.417C302.435 128.417 302.313 128.467 302.224 128.557C302.134 128.647 302.083 128.769 302.083 128.896V132.729H298.254C298.127 132.729 298.005 132.78 297.915 132.87C297.825 132.959 297.775 133.081 297.775 133.208C297.775 133.335 297.825 133.457 297.915 133.547C298.005 133.637 298.127 133.688 298.254 133.688H302.562ZM286.904 118.214L302.224 133.547L302.901 132.87L287.581 117.536L286.904 118.214Z" fill="#FFAF18"/>
<path d="M293.467 98.2292C293.996 98.2292 294.425 97.8001 294.425 97.2708C294.425 96.7416 293.996 96.3125 293.467 96.3125C292.938 96.3125 292.51 96.7416 292.51 97.2708C292.51 97.8001 292.938 98.2292 293.467 98.2292Z" fill="#FFAF18"/>
<path d="M289.159 98.2292C289.687 98.2292 290.116 97.8001 290.116 97.2708C290.116 96.7416 289.687 96.3125 289.159 96.3125C288.63 96.3125 288.201 96.7416 288.201 97.2708C288.201 97.8001 288.63 98.2292 289.159 98.2292Z" fill="#FFAF18"/>
<path d="M284.85 98.2292C285.379 98.2292 285.808 97.8001 285.808 97.2708C285.808 96.7416 285.379 96.3125 284.85 96.3125C284.321 96.3125 283.893 96.7416 283.893 97.2708C283.893 97.8001 284.321 98.2292 284.85 98.2292Z" fill="#FFAF18"/>
</g>
<defs>
<clipPath id="clip0_167_4481">
<rect width="306.393" height="230" fill="white"/>
</clipPath>
</defs>
</svg>
