<svg width="493" height="329" viewBox="0 0 493 329" fill="none" xmlns="http://www.w3.org/2000/svg">
<g style="mix-blend-mode:multiply">
<path d="M237.397 298.885C358.247 298.885 456.216 285.831 456.216 269.727C456.216 253.624 358.247 240.57 237.397 240.57C116.546 240.57 18.5769 253.624 18.5769 269.727C18.5769 285.831 116.546 298.885 237.397 298.885Z" fill="#E6E6E6"/>
</g>
<path d="M105.532 270.328C110.775 267.743 109 265.967 109.805 262.899C110.61 259.831 144.491 261.283 181.918 241.905C188.693 243.843 212.247 235.284 212.247 235.284L214.909 205.246L193.372 203.228C192.373 203.446 191.341 203.474 190.332 203.312C188.961 203.083 186.378 202.929 182.345 203.736C175.892 205.028 175.892 209.55 172.342 210.519C168.792 211.488 105.13 255.148 100.609 256.116C96.0881 257.085 72.217 265.164 72.217 265.164L73.5071 269.686L81.8963 270.333L105.532 270.328Z" fill="#F07149"/>
<path d="M133.36 270.731C138.604 268.146 135.781 267.663 136.586 264.595C137.392 261.527 170.465 268.793 207.894 249.415C214.669 251.353 234.996 247.153 234.996 247.153L236.609 240.048L210.152 212.595C210.152 212.595 208.538 210.01 202.086 211.303C195.635 212.596 195.633 217.117 192.083 218.086C188.534 219.055 130.787 254.906 126.263 255.875C121.739 256.844 97.8694 264.922 97.8694 264.922L99.1594 269.444L107.549 270.089L133.36 270.731Z" fill="#FF8863"/>
<path d="M106.63 270.084H59.6849C58.4642 270.084 57.4746 271.075 57.4746 272.297V272.555C57.4746 273.777 58.4642 274.768 59.6849 274.768H106.63C107.851 274.768 108.84 273.777 108.84 272.555V272.297C108.84 271.075 107.851 270.084 106.63 270.084Z" fill="#E64444"/>
<path d="M57.4746 272.427C59.795 259.143 69.5958 255.026 78.3071 255.154V271.866L57.4746 272.427Z" fill="#E64444"/>
<path d="M281.781 198.706C267.261 197.737 194.987 203.55 194.987 203.55C199.505 205.812 196.277 212.598 204.99 214.532C213.703 216.467 216.281 243.924 218.219 257.166C220.156 270.408 226.6 277.513 234.996 275.575C243.391 273.637 275.328 273.315 306.302 275.575C337.275 277.835 360.831 260.395 365.67 232.297C370.51 204.199 368.574 191.277 368.574 191.277C368.574 191.277 303.398 181.266 281.781 198.706Z" fill="#662D2D"/>
<path d="M354.053 201.323L352.604 201.418C353.097 208.852 351.702 216.676 349.201 222.78C345.156 222.484 342.103 220.971 340.358 218.378C338.19 215.156 338.102 210.405 340.1 204.638L338.729 204.161C336.573 210.377 336.721 215.574 339.153 219.189C341.083 222.055 344.332 223.771 348.586 224.188C346.483 228.773 343.733 232.19 340.718 233.401C335.07 235.662 320.764 242.262 309.95 254.672C300.254 265.804 293.889 265.791 276.932 264.116C265.604 262.999 238.79 265.789 221.374 267.885C221.617 268.365 221.867 268.829 222.135 269.27C239.536 267.197 265.864 264.484 276.789 265.564C293.551 267.209 300.768 267.419 311.044 255.628C321.65 243.455 335.706 236.973 341.257 234.751C349.051 231.626 355.031 216.008 354.053 201.323Z" fill="#B34E4E"/>
<path d="M384.909 190.955C390.958 212.392 392.411 241.339 389.264 243.399C386.117 245.459 374.019 241.825 372.204 242.906C370.39 243.986 359.741 256.835 359.863 257.441C361.314 259.135 366.034 256.955 366.034 256.955C366.034 256.955 364.226 259.258 365.187 260.347C366.149 261.436 371.478 258.538 371.841 258.288C371.72 258.781 369.784 261.316 369.784 261.316C371.115 262.285 377.77 258.773 379.948 255.623C382.125 252.473 386.85 252.958 386.24 252.958C385.63 252.958 381.279 256.108 380.796 257.071C380.313 258.033 378.858 261.677 378.858 261.677C379.221 262.402 382.966 261.183 384.424 259.374C385.882 257.564 390.475 256.103 397.735 256.223C404.995 256.344 410.077 255.618 411.408 249.563C412.739 243.508 409.715 240.844 408.867 236.845C408.019 232.846 410.44 233.817 407.416 186.702C404.392 139.588 384.909 190.955 384.909 190.955Z" fill="#FF8863"/>
<path d="M292.227 94.0609C283.717 99.5519 275.972 96.9676 268.234 105.365C260.495 113.763 248.23 154.781 247.585 167.382C246.941 179.982 246.616 195.482 248.553 198.066C250.491 200.65 263.394 200.326 267.59 197.097C271.785 193.868 284.044 186.115 284.044 186.115C284.69 190.96 281.786 198.711 281.786 198.711C290.825 196.451 281.141 195.482 310.502 204.202C339.863 212.922 368.257 201.618 373.097 192.575C368.579 178.041 370.193 173.195 365.997 167.382C366.326 159.308 368.901 152.526 368.901 152.526C368.901 152.526 379.55 189.991 378.904 197.105C392.455 193.875 409.556 191.29 409.556 191.29C409.884 188.708 409.884 173.203 404.394 149.627C398.903 126.051 367.933 98.9185 367.933 98.9185C358.895 88.2606 328.409 85.9592 328.409 85.9592L292.227 94.0609Z" fill="#FF5252"/>
<path d="M277.586 25.267C271.295 19.6148 263.55 24.938 264.196 33.3406C259.84 31.7253 259.518 39.3153 259.518 39.3153C249.192 40.6083 250.644 51.5886 257.421 51.7498C254.193 52.8816 255.646 57.5649 258.711 57.2409C254.678 61.2777 262.745 70.9684 269.843 66.6075C270.488 71.452 276.296 72.4209 276.296 72.4209C276.296 72.4209 306.786 75.4888 307.915 75.8129C312.272 75.8129 312.272 71.9373 312.272 71.9373C320.015 72.2663 318.24 63.862 318.24 63.862C324.533 60.1476 317.757 53.8505 317.757 53.8505C323.402 48.6819 315.337 44.4839 315.82 44.1598C318.084 31.8865 309.046 34.1483 309.046 34.1483C308.563 30.5951 305.659 32.0493 305.659 32.0493C300.496 17.1917 287.747 21.2285 285.977 24.7817C284.041 23.3275 282.427 24.9462 282.427 24.9462C280.651 22.3586 279.361 23.0051 277.586 25.267Z" fill="#DBDBDB"/>
<path d="M266.334 43.6763C264.526 52.76 266.093 61.8437 270.442 67.0517C274.792 72.2598 275.887 75.8936 277.218 80.4963C278.549 85.099 286.292 88.2476 292.337 86.188C294.756 92.365 292.215 94.061 292.215 94.061C292.7 99.9961 299.595 112.108 307.334 113.801C322.452 110.411 328.386 85.9446 328.386 85.9446C311.688 83.885 308.543 66.9283 307.454 60.7514C312.055 60.5096 313.746 52.6366 310.357 48.5192C306.969 44.4017 303.582 47.4285 303.455 49.2462C303.335 53.8522 298.253 52.6366 297.648 48.0355C295.107 51.6677 291.114 46.3395 290.746 43.7964C289.898 45.7342 287.479 44.1583 287.479 44.1583C284.212 50.3352 279.009 45.2489 279.372 45.4907C272.746 52.5181 266.812 47.0666 266.334 43.6763Z" fill="#FF8863"/>
<path d="M287.75 77.4679C287.669 75.5301 288.637 74.1976 289.364 74.3588C289.927 72.8257 293.235 71.8157 296.22 72.421C293.396 74.2782 292.065 78.3562 287.75 77.4679Z" fill="#F05243"/>
<path d="M291.824 58.6505C292.481 59.677 292.611 60.7726 292.106 61.0983C291.602 61.424 290.655 60.8597 289.993 59.8349C289.331 58.8101 289.206 57.7129 289.71 57.3871C290.215 57.0614 291.161 57.6257 291.824 58.6505Z" fill="#2E0B06"/>
<g style="mix-blend-mode:multiply">
<path d="M293.891 60.7957C293.946 60.8163 293.991 60.856 294.019 60.9075C294.046 60.9591 294.055 61.0189 294.042 61.076C294.028 61.133 293.995 61.1834 293.948 61.2177C293.901 61.2521 293.842 61.2681 293.784 61.2628C293.235 61.2217 292.81 61.3796 292.519 61.7333C292.301 61.9899 292.184 62.3176 292.19 62.6545C292.208 62.7162 292.2 62.7823 292.169 62.8386C292.139 62.8949 292.087 62.9369 292.026 62.9555C291.967 62.9748 291.902 62.9699 291.846 62.9419C291.791 62.9139 291.748 62.865 291.728 62.8059C291.645 62.5558 291.728 61.9488 292.108 61.4635C292.379 61.1131 292.897 60.7118 293.812 60.7792C293.839 60.7803 293.866 60.7859 293.891 60.7957V60.7957Z" fill="#EBBEB0"/>
</g>
<path d="M287.947 59.3531C287.882 59.3528 287.816 59.3479 287.752 59.3383C287.72 59.3333 287.69 59.3222 287.663 59.3056C287.636 59.289 287.612 59.2672 287.594 59.2414C287.575 59.2157 287.562 59.1865 287.554 59.1556C287.547 59.1246 287.545 59.0925 287.55 59.0611C287.555 59.0297 287.566 58.9995 287.583 58.9724C287.6 58.9453 287.621 58.9217 287.647 58.9029C287.673 58.8842 287.702 58.8708 287.733 58.8633C287.764 58.8559 287.796 58.8546 287.827 58.8596C287.849 58.8596 288.332 58.9303 288.467 58.6046C288.138 57.1866 288.891 56.6175 289.239 56.4365C290.09 55.9956 291.287 56.2819 291.967 57.0846C291.989 57.1086 292.006 57.1368 292.017 57.1675C292.028 57.1982 292.033 57.2309 292.031 57.2635C292.029 57.296 292.02 57.3279 292.006 57.357C291.991 57.3862 291.971 57.4122 291.946 57.4333C291.921 57.4544 291.892 57.4702 291.861 57.4799C291.83 57.4895 291.797 57.4927 291.765 57.4894C291.732 57.486 291.701 57.4761 291.672 57.4603C291.644 57.4444 291.619 57.423 291.599 57.3972C291.066 56.7704 290.108 56.5319 289.462 56.8675C288.925 57.1455 288.743 57.7443 288.953 58.5536C288.964 58.5941 288.964 58.6366 288.953 58.677C288.808 59.2149 288.307 59.3531 287.947 59.3531ZM279.905 65.4347C280.562 66.4595 280.694 67.5551 280.189 67.8824C279.685 68.2098 278.738 67.6423 278.076 66.6174C277.414 65.5926 277.287 64.4954 277.793 64.1697C278.299 63.8439 279.244 64.4082 279.905 65.4347Z" fill="#2E0B06"/>
<g style="mix-blend-mode:multiply">
<path d="M281.974 67.5781C282.028 67.5987 282.074 67.6385 282.101 67.69C282.129 67.7416 282.137 67.8014 282.124 67.8584C282.111 67.9155 282.078 67.9658 282.03 68.0002C281.983 68.0346 281.925 68.0506 281.867 68.0453C281.318 68.0042 280.891 68.1621 280.601 68.5158C280.383 68.7725 280.266 69.1001 280.273 69.437C280.29 69.4987 280.282 69.5646 280.251 69.6208C280.221 69.6769 280.169 69.719 280.108 69.738C280.049 69.7574 279.984 69.7525 279.928 69.7245C279.872 69.6965 279.83 69.6476 279.809 69.5883C279.727 69.3383 279.809 68.7313 280.189 68.246C280.462 67.8956 280.978 67.4942 281.895 67.5617C281.922 67.564 281.948 67.5695 281.974 67.5781V67.5781Z" fill="#EBBEB0"/>
</g>
<path d="M276.03 66.1353C275.964 66.135 275.899 66.1301 275.834 66.1205C275.803 66.1155 275.773 66.1044 275.746 66.0878C275.718 66.0712 275.695 66.0494 275.676 66.0237C275.657 65.9979 275.644 65.9687 275.637 65.9378C275.629 65.9069 275.628 65.8748 275.633 65.8433C275.638 65.8119 275.649 65.7818 275.666 65.7546C275.682 65.7275 275.704 65.7039 275.73 65.6852C275.755 65.6665 275.784 65.653 275.815 65.6456C275.846 65.6381 275.878 65.6368 275.91 65.6418C275.931 65.6418 276.414 65.7126 276.547 65.3868C276.219 63.9689 276.973 63.3997 277.321 63.2187C278.171 62.7779 279.369 63.0641 280.049 63.8669C280.07 63.8911 280.086 63.9191 280.095 63.9493C280.105 63.9796 280.109 64.0115 280.106 64.0432C280.104 64.0748 280.095 64.1057 280.081 64.1341C280.066 64.1624 280.046 64.1876 280.022 64.2082C279.998 64.2288 279.97 64.2445 279.94 64.2543C279.91 64.2641 279.878 64.2678 279.846 64.2653C279.814 64.2628 279.784 64.2541 279.755 64.2396C279.727 64.2251 279.702 64.2053 279.681 64.1811C279.149 63.5527 278.191 63.3141 277.545 63.6497C277.006 63.9277 276.825 64.5282 277.034 65.3359C277.044 65.3763 277.044 65.4188 277.034 65.4592C276.891 65.9971 276.39 66.1353 276.03 66.1353Z" fill="#2E0B06"/>
<g style="mix-blend-mode:multiply">
<path d="M294.486 57.4432C294.461 57.4434 294.436 57.4395 294.412 57.4317C294.381 57.4227 294.353 57.4076 294.328 57.3873C294.303 57.3671 294.282 57.3421 294.267 57.3138C294.251 57.2855 294.242 57.2545 294.239 57.2225C294.235 57.1905 294.238 57.1582 294.248 57.1274C294.489 56.3624 294.925 55.8114 295.507 55.5465C295.792 55.4224 296.101 55.3598 296.412 55.3629C296.724 55.366 297.031 55.4348 297.314 55.5646C297.373 55.5897 297.42 55.6372 297.444 55.6968C297.468 55.7563 297.467 55.823 297.442 55.8821C297.417 55.9412 297.37 55.988 297.31 56.012C297.251 56.0361 297.184 56.0355 297.125 56.0104C296.904 55.9071 296.664 55.8515 296.42 55.8473C296.176 55.843 295.933 55.8902 295.709 55.9857C295.254 56.1963 294.907 56.6437 294.708 57.2738C294.693 57.3215 294.664 57.3635 294.624 57.3938C294.584 57.4241 294.536 57.4414 294.486 57.4432V57.4432Z" fill="#EBBEB0"/>
</g>
<g style="mix-blend-mode:multiply">
<path d="M294.889 57.7655C294.839 57.7656 294.79 57.7502 294.749 57.7214C294.708 57.6926 294.677 57.6519 294.661 57.6049C294.644 57.5578 294.642 57.5067 294.656 57.4586C294.669 57.4105 294.697 57.3677 294.736 57.3362C295.679 56.5729 297.089 57.073 297.15 57.0944C297.21 57.1162 297.259 57.1611 297.287 57.2192C297.314 57.2774 297.317 57.344 297.295 57.4044C297.273 57.4649 297.229 57.5141 297.171 57.5414C297.112 57.5688 297.046 57.5718 296.986 57.55C296.974 57.55 295.771 57.1207 295.043 57.7145C294.999 57.7485 294.944 57.7665 294.889 57.7655V57.7655Z" fill="#EBBEB0"/>
</g>
<path d="M279.849 50.0901C280.615 55.257 288.116 53.1975 289.407 51.5837C282.588 52.1085 279.849 50.0901 279.849 50.0901Z" fill="#DBDBDB"/>
<g style="mix-blend-mode:multiply">
<path d="M280.09 52.7137C280.046 52.7135 280.003 52.7016 279.965 52.6792C279.42 52.3502 278.61 51.4257 278.605 50.4831C278.605 50.0998 278.739 49.5586 279.4 49.1556C279.455 49.1222 279.521 49.112 279.583 49.1273C279.646 49.1426 279.7 49.182 279.733 49.237C279.766 49.292 279.776 49.358 279.761 49.4204C279.746 49.4829 279.706 49.5367 279.652 49.5701C279.272 49.8021 279.088 50.0998 279.09 50.4798C279.09 51.1954 279.757 51.9883 280.215 52.263C280.26 52.2907 280.295 52.3322 280.314 52.3813C280.333 52.4304 280.336 52.4845 280.322 52.5353C280.308 52.5862 280.278 52.6311 280.236 52.6632C280.194 52.6954 280.143 52.7131 280.09 52.7137V52.7137Z" fill="#EBBEB0"/>
</g>
<path d="M275.851 57.9268C278.391 61.2776 275.246 65.1138 272.623 65.0332C274.965 62.8124 275.933 60.6328 275.851 57.9268Z" fill="#DBDBDB"/>
<path d="M284.93 72.9852C283.287 72.9852 281.837 72.2318 281.28 71.5245C280.969 71.1313 280.942 70.7365 281.206 70.4717C281.932 69.7446 283.609 67.1323 283.083 65.5515C282.833 64.7981 281.826 64.02 280.759 63.1975C279.587 62.2927 278.26 61.2662 277.614 60.016C277.599 59.9878 277.59 59.957 277.587 59.9254C277.585 59.8937 277.588 59.8618 277.598 59.8315C277.607 59.8012 277.623 59.773 277.643 59.7487C277.663 59.7243 277.688 59.7042 277.717 59.6895C277.745 59.6748 277.775 59.6658 277.807 59.663C277.839 59.6603 277.871 59.6637 277.901 59.6733C277.931 59.6828 277.959 59.6983 277.984 59.7187C278.008 59.7391 278.028 59.7641 278.043 59.7923C278.641 60.9438 279.923 61.939 281.055 62.8142C282.187 63.6893 283.246 64.5052 283.543 65.3985C284.151 67.2261 282.393 69.9749 281.548 70.8138C281.441 70.9207 281.591 71.1428 281.66 71.2234C282.401 72.1627 285.091 73.2188 287.382 71.809C287.436 71.7755 287.502 71.765 287.565 71.7799C287.627 71.7949 287.681 71.8341 287.715 71.8888C287.748 71.9436 287.759 72.0094 287.744 72.0719C287.729 72.1344 287.69 72.1883 287.635 72.2219C286.822 72.7246 285.885 72.989 284.93 72.9852V72.9852Z" fill="#2E0B06"/>
<path d="M286.696 71.6939C286.641 71.694 286.587 71.6751 286.544 71.6404C286.501 71.6056 286.472 71.5572 286.46 71.503C286.429 71.3858 286.427 71.2627 286.456 71.1449C286.485 71.027 286.543 70.9183 286.624 70.8286C287.204 70.2084 289.02 70.4552 289.226 70.4864C289.289 70.4958 289.346 70.53 289.384 70.5815C289.423 70.6331 289.439 70.6977 289.429 70.7612C289.42 70.8246 289.386 70.8818 289.334 70.92C289.283 70.9583 289.218 70.9745 289.155 70.9651C288.427 70.8582 287.268 70.8483 286.977 71.1609C286.948 71.1924 286.927 71.2315 286.919 71.2738C286.91 71.3162 286.912 71.3602 286.927 71.4011C286.933 71.4323 286.934 71.4645 286.928 71.496C286.922 71.5274 286.91 71.5573 286.893 71.5841C286.875 71.6109 286.853 71.6339 286.826 71.6519C286.8 71.6699 286.77 71.6825 286.739 71.6889L286.696 71.6939Z" fill="#2E0B06"/>
<g style="mix-blend-mode:multiply">
<path d="M290.251 70.8878C290.213 70.8881 290.176 70.879 290.143 70.8615C290.114 70.8471 290.088 70.8272 290.067 70.8029C290.046 70.7786 290.03 70.7503 290.02 70.7197C290.01 70.689 290.006 70.6567 290.008 70.6246C290.011 70.5925 290.02 70.5612 290.034 70.5325C290.279 70.039 290.32 69.6162 290.158 69.2609C290.062 69.0806 289.93 68.9227 289.769 68.7976C289.608 68.6725 289.422 68.5832 289.224 68.5354C289.193 68.5278 289.164 68.514 289.139 68.495C289.113 68.4761 289.091 68.4522 289.075 68.4248C289.059 68.3975 289.048 68.3671 289.043 68.3356C289.039 68.304 289.04 68.2719 289.048 68.241C289.056 68.21 289.069 68.1808 289.088 68.1551C289.106 68.1293 289.13 68.1076 289.157 68.0912C289.185 68.0748 289.215 68.064 289.246 68.0595C289.278 68.055 289.31 68.0569 289.341 68.065C289.609 68.1288 289.86 68.2501 290.077 68.4205C290.294 68.5909 290.472 68.8063 290.598 69.052C290.825 69.5455 290.78 70.1146 290.466 70.743C290.448 70.7851 290.418 70.8211 290.38 70.8468C290.342 70.8724 290.297 70.8866 290.251 70.8878V70.8878Z" fill="#EBBEB0"/>
</g>
<path d="M287.75 77.9926C287.707 77.993 287.665 77.9816 287.628 77.9597C287.573 77.9277 287.533 77.8751 287.516 77.8135C287.5 77.7519 287.508 77.6861 287.54 77.6307C289.097 74.946 293.092 72.5707 296.834 72.1018C296.898 72.0948 296.962 72.1128 297.012 72.1521C297.063 72.1914 297.096 72.2489 297.105 72.3124C297.113 72.376 297.095 72.44 297.056 72.4905C297.016 72.541 296.959 72.574 296.895 72.5822C293.28 73.0346 289.447 75.3079 287.959 77.8741C287.937 77.9105 287.907 77.9406 287.87 77.9613C287.833 77.9821 287.792 77.9929 287.75 77.9926V77.9926Z" fill="#2E0B06"/>
<g style="mix-blend-mode:multiply">
<path d="M287.831 79.3644H287.804C286.202 79.1851 285.906 78.5568 285.339 75.9445C285.328 75.8828 285.341 75.8191 285.376 75.7669C285.41 75.7146 285.464 75.6779 285.525 75.6644C285.586 75.651 285.65 75.6619 285.704 75.6948C285.757 75.7277 285.795 75.7801 285.811 75.8409C286.376 78.4284 286.588 78.741 287.86 78.8825C287.921 78.8896 287.977 78.9198 288.017 78.9669C288.056 79.014 288.077 79.0744 288.073 79.1358C288.07 79.1973 288.043 79.2551 287.999 79.2976C287.954 79.3401 287.895 79.364 287.834 79.3644H287.831ZM299.365 75.247C299.336 75.2469 299.308 75.2419 299.281 75.2322C299.251 75.2212 299.224 75.2044 299.201 75.1829C299.177 75.1613 299.159 75.1353 299.145 75.1064C299.132 75.0776 299.125 75.0463 299.123 75.0146C299.122 74.9828 299.127 74.9511 299.138 74.9213C299.148 74.895 300.016 72.2284 294.728 69.1638C294.672 69.1317 294.631 69.0789 294.615 69.0169C294.598 68.9549 294.607 68.8888 294.639 68.8332C294.671 68.7775 294.724 68.7369 294.786 68.7203C294.848 68.7036 294.914 68.7123 294.969 68.7443C300.647 72.0343 299.638 74.9707 299.592 75.094C299.574 75.1395 299.543 75.1784 299.502 75.2057C299.462 75.233 299.414 75.2474 299.365 75.247V75.247ZM292.348 80.9798C292.316 80.98 292.283 80.9735 292.253 80.9607C292.223 80.948 292.196 80.9293 292.174 80.9058C291.339 80.0405 291.134 79.0832 291.609 78.2738C292.289 77.1223 294.522 76.2998 297.815 77.1881C297.873 77.2084 297.922 77.25 297.95 77.3044C297.979 77.3588 297.986 77.422 297.97 77.4814C297.954 77.5408 297.916 77.5919 297.864 77.6245C297.812 77.657 297.749 77.6686 297.689 77.6569C294.775 76.8657 292.634 77.4924 292.026 78.5206C291.664 79.1325 291.84 79.858 292.519 80.5653C292.541 80.5878 292.559 80.6144 292.571 80.6438C292.584 80.6731 292.59 80.7046 292.59 80.7364C292.59 80.7682 292.584 80.7996 292.571 80.829C292.559 80.8583 292.541 80.885 292.519 80.9075C292.497 80.9304 292.47 80.9487 292.441 80.9611C292.412 80.9736 292.38 80.9799 292.348 80.9798V80.9798ZM295.406 86.1451C295.005 86.1453 294.605 86.0899 294.218 85.9806C294.185 85.9741 294.154 85.9609 294.126 85.9417C294.099 85.9225 294.076 85.8978 294.058 85.8692C294.04 85.8406 294.029 85.8086 294.024 85.7753C294.02 85.742 294.022 85.7081 294.031 85.6758C294.04 85.6434 294.056 85.6133 294.077 85.5873C294.098 85.5613 294.125 85.54 294.155 85.5248C294.185 85.5096 294.218 85.5007 294.251 85.4987C294.285 85.4968 294.318 85.5018 294.35 85.5135C295.768 85.9148 297.538 85.4542 299.084 84.283C300.451 83.245 301.301 81.8895 301.301 80.7413C301.301 80.6911 301.317 80.6422 301.347 80.6015C301.376 80.5609 301.418 80.5304 301.465 80.5143C303.123 79.9106 305.542 78.1455 306.906 75.1582C307.728 73.3569 308.421 70.4535 307.049 66.8592C307.026 66.7992 307.028 66.7325 307.054 66.6739C307.081 66.6153 307.129 66.5695 307.189 66.5466C307.249 66.5237 307.315 66.5256 307.374 66.5518C307.433 66.578 307.478 66.6264 307.501 66.6864C308.933 70.437 308.208 73.4737 307.347 75.3589C305.961 78.3923 303.523 80.2248 301.786 80.9107C301.71 82.1675 300.8 83.5905 299.38 84.6679C298.113 85.6237 296.698 86.1451 295.406 86.1451ZM307.108 59.6606C307.052 59.6613 306.997 59.6421 306.953 59.6063C306.909 59.5705 306.879 59.5204 306.868 59.4648C306.858 59.4092 306.867 59.3516 306.894 59.302C306.921 59.2524 306.965 59.214 307.018 59.1935C308.085 58.7575 308.702 58.0584 308.757 57.2195C308.769 56.8148 308.67 56.4146 308.471 56.0624C308.271 55.7102 307.979 55.4197 307.626 55.2224C307.307 55.0371 306.941 54.9488 306.573 54.9684C306.204 54.988 305.85 55.1146 305.552 55.3326C305.518 55.3569 305.478 55.3717 305.437 55.3755C305.395 55.3792 305.353 55.3718 305.316 55.354C305.277 55.3371 305.244 55.3104 305.219 55.2766C305.195 55.2429 305.179 55.2032 305.174 55.1616C305.146 54.9214 304.54 49.2675 307.721 48.8382C307.753 48.8339 307.785 48.8358 307.816 48.8439C307.846 48.852 307.875 48.866 307.901 48.8853C307.926 48.9045 307.947 48.9286 307.963 48.956C307.979 48.9835 307.99 49.0139 307.994 49.0455C307.999 49.077 307.997 49.1091 307.989 49.1399C307.98 49.1707 307.966 49.1996 307.947 49.2249C307.928 49.2503 307.904 49.2716 307.876 49.2876C307.849 49.3037 307.819 49.3142 307.787 49.3185C305.495 49.6278 305.549 53.4952 305.626 54.7289C305.975 54.5523 306.363 54.4664 306.755 54.479C307.146 54.4917 307.527 54.6025 307.864 54.8013C308.296 55.044 308.653 55.4009 308.895 55.8329C309.138 56.2649 309.257 56.7554 309.24 57.2507C309.2 57.8462 308.885 58.95 307.2 59.6376C307.172 59.651 307.14 59.6588 307.108 59.6606V59.6606ZM320.405 88.8314C318.701 88.8314 315.68 88.0435 313.338 86.0826C311.164 84.2731 309.94 81.8533 309.7 78.9006C309.697 78.8689 309.701 78.837 309.71 78.8068C309.72 78.7765 309.736 78.7484 309.756 78.7241C309.776 78.6998 309.801 78.6798 309.83 78.6652C309.858 78.6506 309.889 78.6417 309.92 78.639C309.984 78.6357 310.046 78.6568 310.095 78.6981C310.143 78.7394 310.174 78.7977 310.181 78.8611C310.412 81.679 311.577 83.9836 313.647 85.7109C316.112 87.7655 319.318 88.4778 320.806 88.3297C320.869 88.3234 320.933 88.3427 320.983 88.3834C321.032 88.4241 321.064 88.4829 321.07 88.5468C321.077 88.6107 321.057 88.6746 321.017 88.7242C320.976 88.7739 320.917 88.8054 320.853 88.8117C320.714 88.8248 320.562 88.8314 320.405 88.8314ZM315.902 93.495C315.884 93.4967 315.867 93.4967 315.849 93.495C315.787 93.4802 314.287 93.1232 312.398 90.5768C312.36 90.5253 312.344 90.4607 312.353 90.3971C312.362 90.3336 312.396 90.2763 312.448 90.2379C312.499 90.1995 312.564 90.1831 312.627 90.1924C312.691 90.2016 312.748 90.2358 312.786 90.2872C314.551 92.6692 315.94 93.0196 315.953 93.0229C316.01 93.0365 316.061 93.0707 316.094 93.1189C316.128 93.1671 316.144 93.226 316.137 93.2847C316.131 93.3433 316.103 93.3975 316.059 93.4372C316.016 93.4768 315.959 93.4991 315.9 93.4999L315.902 93.495Z" fill="#EBBEB0"/>
</g>
<path d="M288.718 151.552C292.268 150.259 295.978 146.222 296.139 142.185C296.3 138.149 293.88 132.973 300.333 129.751C306.786 126.528 309.69 123.291 310.012 121.998C310.334 120.705 314.208 121.998 311.948 126.036C317.918 122.161 324.676 118.423 325.501 118.93C327.013 119.859 325.562 120.828 320.337 125.229C314.928 129.787 322.112 124.582 327.759 121.192C333.405 117.802 332.598 121.356 330.34 123.452C334.212 122.967 328.888 134.757 325.662 137.663C329.695 134.11 332.437 129.912 333.244 131.365C334.051 132.817 327.276 145.092 321.79 148.482C316.305 151.873 308.4 154.781 304.851 157.694C301.301 160.608 297.914 164.801 297.914 164.801C292.59 160.917 288.718 151.552 288.718 151.552Z" fill="#FF8863"/>
<g style="mix-blend-mode:multiply">
<path d="M301.866 133.222C301.818 133.221 301.772 133.206 301.732 133.179C301.693 133.152 301.662 133.114 301.645 133.069C301.627 133.024 301.623 132.975 301.633 132.929C301.643 132.882 301.667 132.839 301.702 132.806C301.899 132.616 306.551 128.149 310.988 126.614C311.018 126.603 311.05 126.598 311.082 126.6C311.114 126.601 311.146 126.609 311.175 126.623C311.203 126.637 311.229 126.656 311.251 126.68C311.272 126.703 311.289 126.731 311.3 126.761C311.311 126.791 311.315 126.823 311.314 126.855C311.312 126.887 311.304 126.919 311.291 126.947C311.277 126.976 311.258 127.002 311.234 127.024C311.211 127.045 311.183 127.062 311.153 127.073C306.816 128.571 302.093 133.108 302.045 133.159C302.021 133.182 301.993 133.199 301.962 133.209C301.932 133.22 301.899 133.224 301.866 133.222V133.222ZM326.549 129.024C326.502 129.024 326.457 129.011 326.417 128.985C326.378 128.96 326.347 128.924 326.328 128.881C326.309 128.838 326.303 128.791 326.31 128.745C326.317 128.699 326.337 128.656 326.368 128.621C326.388 128.599 328.304 126.43 329.655 124.137C329.687 124.081 329.741 124.041 329.803 124.025C329.865 124.008 329.931 124.018 329.986 124.05C330.041 124.083 330.082 124.136 330.098 124.198C330.114 124.26 330.105 124.326 330.072 124.382C328.705 126.718 326.758 128.92 326.738 128.942C326.715 128.968 326.685 128.99 326.653 129.004C326.62 129.018 326.585 129.025 326.549 129.024V129.024ZM319.935 134.595C319.883 134.596 319.833 134.58 319.791 134.55C319.75 134.519 319.719 134.477 319.703 134.428C319.687 134.379 319.687 134.326 319.704 134.277C319.72 134.228 319.751 134.186 319.793 134.156C320.795 133.405 321.757 132.602 322.676 131.751C322.723 131.708 322.786 131.685 322.851 131.687C322.915 131.69 322.976 131.718 323.019 131.766C323.063 131.814 323.086 131.876 323.083 131.941C323.08 132.005 323.052 132.066 323.004 132.11C322.072 132.973 321.096 133.787 320.079 134.549C320.037 134.58 319.987 134.596 319.935 134.595V134.595ZM313.447 130.672C313.413 130.672 313.379 130.665 313.348 130.651C313.319 130.638 313.293 130.619 313.271 130.596C313.249 130.573 313.232 130.546 313.221 130.517C313.209 130.487 313.204 130.455 313.204 130.424C313.205 130.392 313.212 130.361 313.225 130.332C313.312 130.137 313.49 129.649 313.279 129.307C313.13 129.062 312.803 128.923 312.303 128.895C312.271 128.894 312.24 128.886 312.212 128.872C312.183 128.858 312.157 128.839 312.136 128.815C312.115 128.792 312.098 128.764 312.088 128.734C312.077 128.704 312.073 128.672 312.075 128.641C312.08 128.577 312.109 128.517 312.157 128.475C312.205 128.432 312.267 128.41 312.331 128.412C312.988 128.45 313.455 128.665 313.693 129.053C314.01 129.573 313.813 130.205 313.667 130.534C313.647 130.576 313.616 130.611 313.577 130.635C313.538 130.66 313.493 130.672 313.447 130.672V130.672ZM316.022 134.11C315.988 134.11 315.955 134.103 315.923 134.09C315.893 134.077 315.866 134.058 315.844 134.034C315.821 134.011 315.804 133.983 315.793 133.952C315.781 133.921 315.776 133.888 315.778 133.856C315.779 133.823 315.787 133.791 315.802 133.761C315.887 133.567 316.065 133.079 315.856 132.737C315.706 132.491 315.378 132.353 314.88 132.325C314.848 132.324 314.817 132.316 314.788 132.302C314.759 132.289 314.733 132.269 314.712 132.246C314.691 132.222 314.675 132.194 314.664 132.164C314.654 132.134 314.649 132.102 314.651 132.07C314.656 132.007 314.685 131.947 314.733 131.905C314.78 131.862 314.842 131.839 314.906 131.842C315.573 131.88 316.032 132.095 316.268 132.483C316.586 133.003 316.388 133.635 316.244 133.964C316.225 134.007 316.194 134.044 316.155 134.07C316.115 134.096 316.069 134.11 316.022 134.11V134.11ZM320.439 140.348C320.405 140.348 320.371 140.341 320.341 140.327C320.312 140.314 320.285 140.295 320.263 140.272C320.242 140.249 320.224 140.222 320.213 140.193C320.201 140.163 320.196 140.131 320.197 140.1C320.197 140.068 320.204 140.037 320.217 140.007C320.303 139.813 320.482 139.325 320.272 138.983C320.122 138.738 319.793 138.599 319.295 138.571C319.231 138.568 319.172 138.539 319.129 138.491C319.086 138.443 319.064 138.38 319.067 138.316C319.072 138.253 319.101 138.193 319.148 138.151C319.196 138.108 319.258 138.085 319.322 138.088C319.989 138.124 320.447 138.341 320.686 138.729C321.003 139.247 320.806 139.881 320.659 140.21C320.64 140.251 320.608 140.287 320.569 140.311C320.53 140.336 320.485 140.348 320.439 140.348V140.348ZM323.221 144.465C323.188 144.465 323.154 144.458 323.123 144.446C323.094 144.433 323.067 144.414 323.046 144.391C323.024 144.368 323.007 144.34 322.995 144.311C322.984 144.281 322.979 144.249 322.98 144.217C322.981 144.185 322.988 144.154 323.001 144.125C323.087 143.931 323.264 143.442 323.055 143.1C322.906 142.855 322.577 142.717 322.079 142.689C322.047 142.687 322.016 142.68 321.987 142.666C321.959 142.652 321.933 142.633 321.912 142.609C321.89 142.586 321.874 142.558 321.864 142.528C321.853 142.498 321.849 142.466 321.851 142.434C321.855 142.37 321.884 142.31 321.932 142.268C321.979 142.225 322.042 142.202 322.106 142.205C322.773 142.243 323.231 142.459 323.468 142.847C323.785 143.367 323.588 143.998 323.443 144.327C323.423 144.369 323.392 144.404 323.353 144.429C323.313 144.453 323.268 144.466 323.221 144.465V144.465Z" fill="#EBBEB0"/>
</g>
<path d="M271.295 158.495C271.196 158.496 271.099 158.465 271.017 158.408C270.936 158.351 270.874 158.27 270.84 158.176C270.784 158.027 269.516 154.431 270.659 148.871C271.746 143.588 273.563 134.748 272.587 121.235C272.582 121.171 272.59 121.107 272.61 121.047C272.63 120.987 272.662 120.931 272.703 120.883C272.745 120.835 272.795 120.795 272.852 120.767C272.909 120.738 272.971 120.721 273.034 120.716C273.097 120.712 273.161 120.72 273.221 120.74C273.281 120.76 273.337 120.791 273.385 120.833C273.433 120.874 273.473 120.925 273.501 120.982C273.53 121.039 273.547 121.1 273.552 121.164C274.538 134.817 272.704 143.743 271.608 149.073C270.518 154.368 271.737 157.819 271.749 157.854C271.777 157.927 271.786 158.007 271.777 158.085C271.768 158.163 271.739 158.237 271.695 158.302C271.65 158.367 271.59 158.42 271.521 158.456C271.451 158.493 271.374 158.512 271.295 158.512V158.495Z" fill="#D63C3C"/>
<path d="M285.492 184.656C285.384 184.657 285.28 184.622 285.194 184.556C285.109 184.49 285.048 184.398 285.021 184.294C284.994 184.189 285.003 184.079 285.045 183.98C285.088 183.881 285.163 183.8 285.257 183.748C285.38 183.681 297.22 177.138 304.32 172.529C300.336 169.529 292.215 160.07 287.526 150.878C271.529 157.458 263.534 165.025 255.876 175.1C255.796 175.196 255.682 175.258 255.558 175.272C255.434 175.286 255.309 175.251 255.21 175.176C255.111 175.1 255.044 174.989 255.025 174.865C255.005 174.742 255.034 174.616 255.105 174.513C262.929 164.227 271.085 156.505 287.568 149.807C287.681 149.761 287.807 149.759 287.921 149.803C288.035 149.846 288.128 149.931 288.182 150.04C293.009 159.703 301.764 169.738 305.437 172.136C305.505 172.18 305.56 172.24 305.598 172.311C305.637 172.382 305.657 172.461 305.657 172.541C305.657 172.622 305.637 172.701 305.598 172.772C305.56 172.843 305.505 172.903 305.437 172.947C298.405 177.586 285.849 184.524 285.717 184.594C285.649 184.633 285.571 184.655 285.492 184.656V184.656Z" fill="#D63C3C"/>
<path d="M254.356 169.961C254.256 169.962 254.159 169.931 254.077 169.874C253.995 169.817 253.933 169.736 253.9 169.642C253.866 169.548 253.862 169.446 253.888 169.35C253.914 169.253 253.97 169.168 254.047 169.104C258.76 165.199 264.495 163.889 264.729 163.84C264.791 163.826 264.855 163.825 264.917 163.836C264.98 163.847 265.039 163.87 265.093 163.904C265.146 163.938 265.193 163.982 265.229 164.034C265.266 164.086 265.292 164.145 265.305 164.207C265.319 164.269 265.321 164.333 265.31 164.396C265.299 164.458 265.276 164.518 265.242 164.572C265.208 164.625 265.163 164.672 265.111 164.708C265.06 164.745 265.001 164.771 264.939 164.784C264.881 164.798 259.187 166.1 254.655 169.853C254.571 169.922 254.465 169.961 254.356 169.961V169.961ZM355.991 126.844C355.954 126.844 355.917 126.839 355.881 126.831C355.757 126.8 355.65 126.722 355.583 126.613C355.515 126.504 355.493 126.374 355.52 126.249C355.705 125.452 360.137 106.673 365.983 101.138C366.028 101.09 366.083 101.052 366.143 101.026C366.204 101.001 366.269 100.987 366.334 100.988C366.4 100.988 366.465 101.001 366.525 101.027C366.586 101.053 366.64 101.091 366.685 101.139C366.73 101.187 366.765 101.244 366.788 101.305C366.811 101.367 366.821 101.433 366.817 101.498C366.814 101.564 366.797 101.629 366.768 101.688C366.739 101.747 366.698 101.799 366.648 101.842C361.013 107.17 356.507 126.277 356.459 126.469C356.433 126.574 356.374 126.668 356.289 126.736C356.204 126.804 356.1 126.842 355.991 126.844V126.844ZM366.962 151.389C366.879 151.389 366.798 151.369 366.726 151.329C366.654 151.289 366.593 151.231 366.55 151.16C366.482 151.052 359.779 140.239 355.406 137.425C355.297 137.355 355.22 137.245 355.192 137.119C355.164 136.992 355.188 136.86 355.257 136.751C355.327 136.642 355.437 136.565 355.563 136.537C355.689 136.509 355.821 136.533 355.93 136.602C360.487 139.535 367.093 150.192 367.373 150.644C367.437 150.753 367.456 150.884 367.425 151.007C367.395 151.13 367.317 151.236 367.209 151.302C367.136 151.354 367.051 151.384 366.962 151.389V151.389Z" fill="#D63C3C"/>
<path d="M359.741 141.417C359.642 141.418 359.545 141.387 359.463 141.33C359.444 141.315 357.478 139.938 356.039 139.716C355.976 139.707 355.916 139.685 355.861 139.652C355.807 139.619 355.76 139.575 355.722 139.524C355.684 139.473 355.657 139.415 355.642 139.353C355.627 139.291 355.624 139.227 355.634 139.164C355.643 139.101 355.665 139.041 355.698 138.987C355.731 138.932 355.774 138.885 355.825 138.847C355.876 138.81 355.935 138.782 355.996 138.767C356.058 138.752 356.122 138.749 356.185 138.759C357.851 139.015 359.933 140.476 360.02 140.537C360.105 140.596 360.168 140.681 360.201 140.778C360.234 140.876 360.235 140.982 360.204 141.08C360.173 141.178 360.111 141.264 360.028 141.325C359.945 141.385 359.844 141.418 359.741 141.417V141.417ZM333.837 156.359C330.34 156.359 327.134 155.719 324.896 154.434C324.838 154.404 324.787 154.362 324.746 154.311C324.704 154.261 324.674 154.202 324.655 154.14C324.637 154.077 324.632 154.011 324.639 153.946C324.647 153.881 324.668 153.819 324.701 153.762C324.733 153.705 324.777 153.656 324.829 153.617C324.881 153.577 324.941 153.549 325.004 153.533C325.067 153.517 325.133 153.515 325.198 153.525C325.262 153.535 325.324 153.559 325.379 153.593C329.719 156.087 337.982 155.992 344.606 153.375C348.386 151.878 353.253 148.933 354.931 143.457C354.95 143.396 354.98 143.339 355.02 143.29C355.061 143.241 355.11 143.201 355.166 143.171C355.223 143.141 355.284 143.122 355.347 143.116C355.41 143.11 355.474 143.117 355.535 143.135C355.596 143.154 355.652 143.184 355.701 143.225C355.75 143.265 355.791 143.315 355.821 143.371C355.85 143.427 355.869 143.489 355.875 143.552C355.881 143.615 355.875 143.679 355.856 143.74C354.459 148.306 350.598 152.049 344.961 154.268C341.413 155.643 337.642 156.352 333.837 156.359V156.359ZM334.37 199.175C324.073 199.175 317.657 196.021 311.363 192.924C306.172 190.372 301.268 187.961 294.308 187.234C294.186 187.214 294.075 187.148 294 187.05C293.924 186.951 293.889 186.828 293.902 186.704C293.915 186.58 293.975 186.467 294.069 186.386C294.163 186.305 294.285 186.263 294.409 186.27C301.541 187.015 306.752 189.576 311.79 192.053C322.22 197.183 333.007 202.484 361.963 192.751C362.024 192.727 362.089 192.717 362.154 192.719C362.22 192.722 362.284 192.737 362.343 192.765C362.402 192.793 362.455 192.833 362.499 192.882C362.542 192.931 362.575 192.988 362.596 193.05C362.617 193.112 362.625 193.178 362.62 193.243C362.614 193.308 362.596 193.372 362.565 193.43C362.535 193.488 362.493 193.539 362.442 193.58C362.392 193.622 362.333 193.652 362.27 193.67C350.336 197.688 341.438 199.175 334.37 199.175Z" fill="#D63C3C"/>
<path d="M335.548 193.94C332.391 193.94 329.123 193.588 326.081 192.624C326.02 192.605 325.964 192.574 325.916 192.534C325.867 192.493 325.827 192.443 325.797 192.386C325.768 192.33 325.75 192.268 325.745 192.205C325.739 192.142 325.746 192.078 325.765 192.017C325.784 191.957 325.815 191.901 325.856 191.852C325.897 191.803 325.947 191.763 326.003 191.734C326.059 191.704 326.121 191.686 326.184 191.681C326.247 191.675 326.311 191.682 326.372 191.702C337.218 195.125 351.58 190.418 351.723 190.371C351.784 190.347 351.85 190.336 351.915 190.339C351.98 190.341 352.045 190.357 352.104 190.385C352.163 190.413 352.216 190.453 352.259 190.502C352.303 190.551 352.336 190.608 352.357 190.67C352.377 190.732 352.385 190.798 352.38 190.863C352.375 190.928 352.356 190.992 352.326 191.05C352.296 191.108 352.254 191.159 352.203 191.2C352.152 191.242 352.094 191.272 352.031 191.29C351.595 191.438 343.967 193.94 335.548 193.94ZM357.442 180.055C357.349 180.05 357.259 180.019 357.183 179.966C357.107 179.912 357.048 179.838 357.012 179.752C356.976 179.666 356.966 179.571 356.981 179.479C356.997 179.387 357.038 179.302 357.1 179.232C363.641 172.685 364.331 168.759 364.346 168.721C364.365 168.594 364.434 168.48 364.538 168.404C364.641 168.328 364.77 168.296 364.897 168.315C365.024 168.335 365.138 168.404 365.214 168.507C365.29 168.611 365.322 168.74 365.302 168.867C365.276 169.032 364.594 173.1 357.786 179.917C357.74 179.961 357.687 179.996 357.628 180.02C357.569 180.044 357.506 180.056 357.442 180.055ZM377.77 168.668C377.659 168.668 377.551 168.63 377.465 168.56C377.379 168.49 377.32 168.392 377.297 168.283C377.284 168.227 376.032 162.491 370.38 155.655C370.34 155.606 370.309 155.549 370.291 155.489C370.272 155.428 370.265 155.364 370.271 155.301C370.277 155.238 370.296 155.176 370.325 155.12C370.355 155.064 370.395 155.014 370.444 154.974C370.493 154.933 370.549 154.903 370.61 154.884C370.671 154.865 370.735 154.859 370.798 154.865C370.861 154.871 370.922 154.889 370.978 154.919C371.034 154.948 371.084 154.989 371.125 155.038C376.942 162.073 378.191 167.844 378.244 168.086C378.257 168.148 378.257 168.212 378.245 168.275C378.233 168.337 378.21 168.397 378.175 168.45C378.14 168.503 378.095 168.549 378.043 168.585C377.99 168.62 377.931 168.645 377.869 168.658C377.836 168.665 377.803 168.668 377.77 168.668V168.668Z" fill="#D63C3C"/>
<g style="mix-blend-mode:multiply">
<path d="M372.687 257.166C372.634 257.166 372.583 257.148 372.54 257.116C372.498 257.084 372.468 257.038 372.454 256.987C372.44 256.936 372.444 256.881 372.464 256.832C372.484 256.783 372.52 256.742 372.566 256.715C374.388 255.636 378.253 250.958 378.253 250.3C378.253 249.898 378.621 249.423 379.239 249.026C380.081 248.484 381.39 248.092 382.574 248.6C383.693 248.521 385.326 248.436 385.343 248.436C385.374 248.434 385.406 248.438 385.436 248.449C385.467 248.459 385.494 248.476 385.518 248.497C385.541 248.519 385.56 248.545 385.574 248.574C385.587 248.603 385.595 248.634 385.596 248.666C385.597 248.698 385.592 248.73 385.582 248.76C385.571 248.789 385.554 248.817 385.533 248.841C385.512 248.864 385.486 248.883 385.457 248.897C385.428 248.91 385.397 248.918 385.366 248.919C385.349 248.919 383.661 249.002 382.547 249.084C382.507 249.087 382.467 249.079 382.431 249.063C381.41 248.599 380.214 248.97 379.501 249.429C378.978 249.758 378.74 250.115 378.74 250.296C378.74 251.259 374.529 256.11 372.812 257.125C372.775 257.15 372.732 257.164 372.687 257.166ZM366.962 255.875C366.919 255.874 366.877 255.863 366.84 255.842C366.804 255.82 366.773 255.79 366.752 255.753C366.736 255.725 366.725 255.695 366.721 255.664C366.717 255.632 366.719 255.6 366.728 255.57C366.736 255.539 366.75 255.511 366.769 255.486C366.789 255.46 366.813 255.439 366.84 255.424C369.333 253.986 372.909 249.482 373.172 248.969C373.188 248.233 373.629 246.595 374.659 245.761C374.926 245.537 375.241 245.379 375.58 245.3C375.919 245.22 376.272 245.222 376.61 245.304L377.155 245.421C378.955 245.809 379.497 245.927 380.56 245.784C380.592 245.78 380.624 245.782 380.655 245.79C380.685 245.798 380.714 245.812 380.74 245.832C380.765 245.851 380.786 245.875 380.802 245.903C380.818 245.93 380.828 245.961 380.832 245.992C380.837 246.024 380.835 246.056 380.826 246.087C380.818 246.117 380.804 246.146 380.785 246.171C380.766 246.197 380.741 246.218 380.714 246.234C380.686 246.25 380.656 246.26 380.625 246.264C379.474 246.417 378.866 246.286 377.054 245.894L376.51 245.777C376.242 245.712 375.962 245.711 375.694 245.773C375.425 245.836 375.175 245.961 374.963 246.138C374.051 246.876 373.657 248.398 373.657 249.012C373.657 249.456 369.644 254.366 367.083 255.843C367.046 255.864 367.004 255.875 366.962 255.875V255.875Z" fill="#EBBEB0"/>
</g>
<path d="M390.777 233.8C399.852 236.103 408.805 233.073 408.805 233.073C408.805 233.679 408.775 236.344 409.319 238.008C397.855 241.792 390.504 238.977 390.504 238.977C390.746 235.889 390.777 233.8 390.777 233.8Z" fill="#333333"/>
<path d="M397.622 241.339C395.62 241.339 393.991 239.201 393.991 236.569C393.991 233.937 395.62 231.798 397.622 231.798C399.623 231.798 401.252 233.937 401.252 236.569C401.252 239.201 399.625 241.339 397.622 241.339Z" fill="#575757"/>
<path d="M397.109 241.339C395.107 241.339 393.479 239.201 393.479 236.569C393.479 233.937 395.107 231.798 397.109 231.798C399.11 231.798 400.739 233.937 400.739 236.569C400.739 239.201 399.11 241.339 397.109 241.339Z" fill="#707070"/>
<path d="M397.109 240.856C398.846 240.856 400.254 238.939 400.254 236.575C400.254 234.212 398.846 232.295 397.109 232.295C395.372 232.295 393.964 234.212 393.964 236.575C393.964 238.939 395.372 240.856 397.109 240.856Z" fill="#FAFAFA"/>
<path d="M205.956 212.756C205.839 212.757 205.725 212.714 205.636 212.637C205.548 212.56 205.49 212.453 205.474 212.337C205.459 212.22 205.486 212.102 205.551 212.004C205.616 211.906 205.715 211.835 205.828 211.805C218.783 208.202 254.905 204.073 255.27 204.039C255.333 204.032 255.397 204.037 255.458 204.055C255.519 204.072 255.576 204.102 255.625 204.141C255.675 204.181 255.716 204.23 255.747 204.286C255.778 204.341 255.797 204.403 255.804 204.466C255.812 204.529 255.806 204.593 255.789 204.654C255.771 204.715 255.742 204.772 255.702 204.822C255.662 204.872 255.613 204.913 255.558 204.944C255.502 204.975 255.441 204.994 255.378 205.001C255.015 205.042 218.968 209.157 206.078 212.733C206.039 212.746 205.998 212.754 205.956 212.756V212.756Z" fill="#472020"/>
<path d="M135.184 270.084H88.2393C87.0186 270.084 86.0291 271.075 86.0291 272.297V272.555C86.0291 273.777 87.0186 274.768 88.2393 274.768H135.184C136.405 274.768 137.395 273.777 137.395 272.555V272.297C137.395 271.075 136.405 270.084 135.184 270.084Z" fill="#FF5252"/>
<path d="M86.0291 272.427C88.3511 259.143 98.1503 255.026 106.863 255.154V271.866L86.0291 272.427Z" fill="#FF5252"/>
<g style="mix-blend-mode:multiply">
<path d="M202.698 222.606C199.367 222.606 197.551 221.083 196.075 218.823C196.04 218.769 196.028 218.703 196.041 218.64C196.054 218.577 196.092 218.522 196.146 218.487C196.199 218.452 196.265 218.44 196.328 218.453C196.391 218.466 196.446 218.504 196.481 218.558C198.482 221.624 200.997 223.164 207.343 221.364C207.403 221.352 207.466 221.364 207.518 221.396C207.57 221.428 207.608 221.478 207.624 221.537C207.641 221.596 207.635 221.659 207.607 221.713C207.579 221.768 207.532 221.81 207.475 221.831C205.593 222.364 204.025 222.606 202.698 222.606ZM184.307 213.886C180.974 213.886 179.16 212.363 177.684 210.103C177.667 210.076 177.655 210.046 177.649 210.015C177.643 209.984 177.644 209.952 177.65 209.921C177.657 209.89 177.669 209.86 177.687 209.834C177.705 209.808 177.728 209.785 177.754 209.768C177.781 209.75 177.811 209.738 177.842 209.732C177.873 209.727 177.905 209.727 177.936 209.733C177.967 209.74 177.996 209.752 178.023 209.77C178.049 209.788 178.071 209.811 178.089 209.838C180.092 212.904 182.606 214.444 188.953 212.644C189.014 212.627 189.08 212.635 189.136 212.666C189.191 212.696 189.233 212.748 189.252 212.809C189.269 212.87 189.262 212.935 189.231 212.991C189.2 213.047 189.149 213.088 189.088 213.106C187.201 213.644 185.632 213.886 184.307 213.886ZM129.505 262.769C129.222 262.776 128.941 262.722 128.681 262.61C128.42 262.499 128.187 262.332 127.997 262.122C127.206 261.244 127.311 259.829 128.235 258.967C128.258 258.944 128.285 258.925 128.315 258.913C128.346 258.9 128.378 258.894 128.411 258.894C128.443 258.895 128.476 258.902 128.506 258.915C128.536 258.928 128.563 258.947 128.585 258.971C128.607 258.995 128.624 259.024 128.635 259.054C128.646 259.085 128.651 259.118 128.649 259.151C128.647 259.183 128.638 259.215 128.624 259.245C128.609 259.274 128.589 259.3 128.564 259.321C127.742 260.086 127.817 261.203 128.355 261.798C128.963 262.474 130.271 262.621 132.112 261.02C132.16 260.978 132.223 260.957 132.287 260.961C132.351 260.966 132.41 260.996 132.453 261.044C132.495 261.092 132.516 261.156 132.511 261.22C132.507 261.284 132.477 261.343 132.429 261.385C131.28 262.389 130.291 262.769 129.505 262.769Z" fill="#EBBEB0"/>
</g>
<path d="M331.302 115.003L325.918 91.0225H336.807L331.302 115.003Z" fill="#F01717"/>
<path d="M334.475 115.827L343.651 101.042L349.15 106.456L334.475 115.827Z" fill="#F01717"/>
<path d="M328.339 115.827L319.162 101.042L313.664 106.456L328.339 115.827Z" fill="#F01717"/>
</svg>
