<svg width="129" height="129" viewBox="0 0 129 129" fill="none" xmlns="http://www.w3.org/2000/svg">
<path d="M94.6571 100.378C89.6957 105.062 84.659 108.848 79.5622 111.743L73.0243 100.29C79.2284 98.2699 85.5486 94.7871 91.9561 89.783C93.6416 88.4677 93.9414 86.0366 92.6263 84.3508C91.3087 82.664 88.8748 82.3655 87.1941 83.6831C74.6822 93.4525 62.8756 96.6853 52.1046 93.3013C26.5817 85.2817 13.4247 43.4462 13.2936 43.0254C12.6662 40.9859 10.5122 39.8332 8.45615 40.4655C6.41537 41.093 5.26882 43.2571 5.89627 45.2991C6.42672 47.0264 18.2292 84.5634 42.9853 97.7885L38.8648 115.92C24.4658 110.879 15.1786 100.744 15.0599 100.612C13.634 99.022 11.1951 98.8808 9.60012 100.303C8.00516 101.726 7.86404 104.172 9.28768 105.767C26.5626 125.186 63.7252 140.229 99.9731 106.006C101.525 104.539 101.596 102.09 100.129 100.535C98.6607 98.9781 96.2118 98.9128 94.6571 100.378ZM46.3515 117.91L50.2377 100.809C55.5022 102.392 60.2504 102.655 65.1259 102.066L72.5782 115.121C63.517 118.778 54.9207 119.495 46.3515 117.91Z" fill="#FFAF18"/>
<path d="M121.386 87.333L93.0057 58.953C90.9497 56.897 87.7726 56.4661 85.2455 57.9138L62.5511 70.8819L53.7223 55.8642C65.7247 56.7799 76.7837 52.9571 86.4599 45.369C89.2616 43.1706 89.7531 39.1156 87.5533 36.3125C85.3562 33.5132 81.31 33.0181 78.4981 35.2178C64.0913 46.5187 50.7644 43.3151 43.9513 40.296C38.8873 35.3602 31.1984 35.4657 26.2835 39.5728C20.6772 44.2578 19.9303 52.6008 24.6153 58.2071L46.9524 84.9372C50.14 88.759 55.7154 89.8289 60.1463 87.2241C60.3999 87.075 60.6065 86.881 60.8426 86.7143L87.3666 71.5581L112.265 96.4536C114.784 98.9732 118.866 98.9732 121.385 96.4536C123.905 93.9355 123.905 89.8511 121.386 87.333Z" fill="#FFAF18"/>
<path d="M22.4957 28.4058C29.6202 28.4058 35.3957 22.6303 35.3957 15.5058C35.3957 8.38133 29.6202 2.6058 22.4957 2.6058C15.3712 2.6058 9.5957 8.38133 9.5957 15.5058C9.5957 22.6303 15.3712 28.4058 22.4957 28.4058Z" fill="#FFAF18"/>
</svg>
