<svg width="36" height="36" viewBox="0 0 36 36" fill="none" xmlns="http://www.w3.org/2000/svg">
<path fill-rule="evenodd" clip-rule="evenodd" d="M7.4357 7.78867C6.8183 9.7898 6.8183 11.9604 7.4357 13.9615C14.4622 14.6387 21.5375 14.6387 28.5641 13.9615C29.1815 11.9604 29.1815 9.7898 28.5641 7.78867C21.5375 7.11146 14.4622 7.11146 7.4357 7.78867ZM7.06297 5.56427C14.3369 4.85293 21.6629 4.85293 28.9367 5.56427C29.7386 5.64269 30.4125 6.19213 30.6587 6.95078C31.4832 9.49042 31.4832 12.2597 30.6587 14.7994C30.4125 15.558 29.7386 16.1074 28.9367 16.1859C21.6629 16.8972 14.3369 16.8972 7.06297 16.1859C6.26114 16.1074 5.58724 15.558 5.34097 14.7994C4.51655 12.2597 4.51655 9.49042 5.34097 6.95078C5.58724 6.19213 6.26114 5.64269 7.06297 5.56427Z" fill="#485FE5"/>
<path fill-rule="evenodd" clip-rule="evenodd" d="M7.4357 22.0387C6.8183 24.0399 6.8183 26.2104 7.4357 28.2115C14.4622 28.8886 21.5375 28.8886 28.5641 28.2115C29.1815 26.2104 29.1815 24.0399 28.5641 22.0387C21.5375 21.3615 14.4622 21.3615 7.4357 22.0387ZM7.06297 19.8142C14.3369 19.1029 21.6629 19.1029 28.9367 19.8142C29.7386 19.8927 30.4125 20.4421 30.6587 21.2008C31.4832 23.7405 31.4832 26.5098 30.6587 29.0494C30.4125 29.808 29.7386 30.3574 28.9367 30.4359C21.6629 31.1472 14.3369 31.1472 7.06297 30.4359C6.26114 30.3574 5.58724 29.808 5.34097 29.0494C4.51655 26.5098 4.51655 23.7405 5.34097 21.2008C5.58724 20.4421 6.26114 19.8927 7.06297 19.8142Z" fill="#485FE5"/>
</svg>
