<svg width="38" height="38" viewBox="0 0 38 38" fill="none" xmlns="http://www.w3.org/2000/svg">
<path fill-rule="evenodd" clip-rule="evenodd" d="M20.8279 5.32033C19.7653 4.76574 18.3254 4.75719 17.2545 5.31036C13.1489 7.43066 9.42509 9.86176 6.16188 12.5582C5.65726 12.9752 5.29914 13.5811 5.30525 14.2943C5.31133 15.0046 5.67673 15.6024 6.1783 16.0125C9.4144 18.6586 13.1413 21.0918 17.1717 23.1953C18.2342 23.7499 19.6741 23.7585 20.7453 23.2052C24.8507 21.085 28.5745 18.654 31.8378 15.9575C32.3424 15.5405 32.7005 14.9346 32.6944 14.2214C32.6882 13.5111 32.3229 12.9133 31.8213 12.5032C28.5851 9.85715 24.8583 7.42385 20.8279 5.32033ZM18.3442 7.42054C18.7236 7.22457 19.3469 7.22642 19.729 7.42581C23.5754 9.43335 27.1195 11.743 30.1901 14.2376C27.1013 16.7725 23.5676 19.0745 19.6553 21.0951C19.2758 21.2912 18.6525 21.2893 18.2704 21.0899C14.424 19.0822 10.8798 16.7726 7.80937 14.2781C10.8981 11.7432 14.4318 9.4411 18.3442 7.42054Z" fill="#485FE5"/>
<path d="M33.5618 20.1051C33.9092 20.6615 33.7398 21.3939 33.1834 21.7413L23.5137 27.7784C22.2015 28.5976 20.5736 28.9764 18.9997 28.9765C17.4261 28.9765 15.798 28.5979 14.4856 27.7789L4.92174 21.8102C4.36535 21.463 4.19581 20.7305 4.54305 20.1741C4.89028 19.6177 5.62281 19.4482 6.17917 19.7954L15.743 25.7641C16.6046 26.3018 17.775 26.6015 18.9996 26.6015C20.2243 26.6014 21.3945 26.3016 22.2559 25.7638L31.9257 19.7267C32.482 19.3795 33.2146 19.5489 33.5618 20.1051Z" fill="#485FE5"/>
<path d="M33.5618 26.0502C33.9092 26.6064 33.7398 27.339 33.1835 27.6864L24.8094 32.9158C23.1349 33.9616 21.0402 34.4537 18.9997 34.4537C16.9593 34.4539 14.8644 33.9621 13.1896 32.9166L4.92161 27.7552C4.36527 27.4079 4.19582 26.6754 4.54313 26.119C4.89042 25.5626 5.62296 25.3932 6.1793 25.7406L14.4472 30.902C15.6712 31.6659 17.3082 32.0789 18.9996 32.0787C20.6909 32.0787 22.3277 31.6656 23.5515 30.9015L31.9256 25.6719C32.4818 25.3245 33.2144 25.4938 33.5618 26.0502Z" fill="#485FE5"/>
</svg>
