<svg width="38" height="38" viewBox="0 0 38 38" fill="none" xmlns="http://www.w3.org/2000/svg">
<path fill-rule="evenodd" clip-rule="evenodd" d="M16.6035 6.51422C17.6713 4.67396 20.3287 4.67398 21.3965 6.51422L24.6667 12.1499C24.9682 12.6694 25.4891 13.0238 26.083 13.1135L31.5132 13.9337C33.8803 14.2912 34.7106 17.28 32.8671 18.8071L28.9106 22.0852C28.3553 22.5452 28.0942 23.271 28.2291 23.9795L29.3374 29.7997C29.7716 32.0797 27.378 33.8511 25.3245 32.7697L19.9221 29.9252C19.3449 29.6212 18.6552 29.6212 18.0779 29.9252L12.6755 32.7697C10.6219 33.8511 8.22851 32.0797 8.66266 29.7997L9.77096 23.9795C9.90586 23.271 9.64474 22.5452 9.0894 22.0852L5.13281 18.8071C3.28935 17.28 4.11966 14.2912 6.48673 13.9337L11.917 13.1135C12.5109 13.0238 13.0318 12.6694 13.3333 12.1499L16.6035 6.51422ZM19.3423 7.7062C19.1898 7.44331 18.8102 7.44331 18.6577 7.7062L15.3875 13.3419C14.7243 14.4847 13.5782 15.2646 12.2717 15.4619L6.84142 16.2821C6.50327 16.3331 6.38465 16.7601 6.648 16.9783L10.6046 20.2563C11.8263 21.2685 12.4008 22.8652 12.104 24.4236L10.9957 30.244C10.9337 30.5697 11.2756 30.8228 11.569 30.6683L16.9714 27.8237C18.2411 27.1551 19.7589 27.1551 21.0286 27.8237L26.4311 30.6683C26.7244 30.8228 27.0663 30.5697 27.0042 30.244L25.896 24.4236C25.5992 22.8652 26.1736 21.2685 27.3955 20.2563L31.3521 16.9783C31.6154 16.7601 31.4968 16.3331 31.1586 16.2821L25.7284 15.4619C24.4218 15.2646 23.2756 14.4847 22.6125 13.3419L19.3423 7.7062Z" fill="#485FE5"/>
</svg>
