<svg width="123" height="123" viewBox="0 0 123 123" fill="none" xmlns="http://www.w3.org/2000/svg">
<path d="M90.9824 11.5312H32.0193C29.3041 11.5414 26.7036 12.6272 24.7872 14.5507C22.8709 16.4743 21.7949 19.0788 21.7949 21.7941V101.206C21.7949 103.921 22.8709 106.526 24.7872 108.449C26.7036 110.373 29.3041 111.459 32.0193 111.469H90.9824C93.6976 111.459 96.2981 110.373 98.2145 108.449C100.131 106.526 101.207 103.921 101.207 101.206V21.7941C101.207 19.0788 100.131 16.4743 98.2145 14.5507C96.2981 12.6272 93.6976 11.5414 90.9824 11.5312ZM96.0946 101.206C96.0946 102.565 95.5573 103.87 94.5996 104.834C93.642 105.799 92.3418 106.346 90.9824 106.357H32.0193C30.6599 106.346 29.3597 105.799 28.4021 104.834C27.4444 103.87 26.9071 102.565 26.9071 101.206V21.7941C26.9071 20.4347 27.4444 19.1304 28.4021 18.1655C29.3597 17.2007 30.6599 16.6536 32.0193 16.6434H90.9824C92.3418 16.6536 93.642 17.2007 94.5996 18.1655C95.5573 19.1304 96.0946 20.4347 96.0946 21.7941V101.206Z" fill="#FFAF18"/>
<path d="M85.832 28.1747H60.2327C59.5496 28.1747 58.8946 28.446 58.4116 28.929C57.9287 29.4119 57.6573 30.067 57.6573 30.75C57.6573 31.433 57.9287 32.0881 58.4116 32.571C58.8946 33.054 59.5496 33.3253 60.2327 33.3253H85.832C86.5151 33.3253 87.1701 33.054 87.6531 32.571C88.136 32.0881 88.4074 31.433 88.4074 30.75C88.4074 30.067 88.136 29.4119 87.6531 28.929C87.1701 28.446 86.5151 28.1747 85.832 28.1747V28.1747ZM60.2327 43.5497H66.6133C66.9753 43.5942 67.3426 43.5612 67.6909 43.4531C68.0392 43.345 68.3606 43.1641 68.6337 42.9224C68.9069 42.6808 69.1256 42.3839 69.2754 42.0514C69.4252 41.7188 69.5026 41.3583 69.5026 40.9936C69.5026 40.6289 69.4252 40.2683 69.2754 39.9358C69.1256 39.6033 68.9069 39.3064 68.6337 39.0647C68.3606 38.8231 68.0392 38.6422 67.6909 38.5341C67.3426 38.4259 66.9753 38.393 66.6133 38.4375H60.2327C59.8707 38.393 59.5034 38.4259 59.1551 38.5341C58.8068 38.6422 58.4854 38.8231 58.2122 39.0647C57.9391 39.3064 57.7204 39.6033 57.5706 39.9358C57.4208 40.2683 57.3433 40.6289 57.3433 40.9936C57.3433 41.3583 57.4208 41.7188 57.5706 42.0514C57.7204 42.3839 57.9391 42.6808 58.2122 42.9224C58.4854 43.1641 58.8068 43.345 59.1551 43.4531C59.5034 43.5612 59.8707 43.5942 60.2327 43.5497V43.5497ZM85.832 53.8125H60.2327C59.8707 53.768 59.5034 53.8009 59.1551 53.9091C58.8068 54.0172 58.4854 54.1981 58.2122 54.4397C57.9391 54.6814 57.7204 54.9783 57.5706 55.3108C57.4208 55.6433 57.3433 56.0039 57.3433 56.3686C57.3433 56.7333 57.4208 57.0938 57.5706 57.4264C57.7204 57.7589 57.9391 58.0558 58.2122 58.2974C58.4854 58.5391 58.8068 58.72 59.1551 58.8281C59.5034 58.9362 59.8707 58.9692 60.2327 58.9247H85.832C86.194 58.9692 86.5613 58.9362 86.9096 58.8281C87.2579 58.72 87.5793 58.5391 87.8525 58.2974C88.1256 58.0558 88.3443 57.7589 88.4941 57.4264C88.6439 57.0938 88.7214 56.7333 88.7214 56.3686C88.7214 56.0039 88.6439 55.6433 88.4941 55.3108C88.3443 54.9783 88.1256 54.6814 87.8525 54.4397C87.5793 54.1981 87.2579 54.0172 86.9096 53.9091C86.5613 53.8009 86.194 53.768 85.832 53.8125ZM60.2327 69.1875H66.6133C66.9753 69.232 67.3426 69.1991 67.6909 69.0909C68.0392 68.9828 68.3606 68.8019 68.6337 68.5603C68.9069 68.3186 69.1256 68.0217 69.2754 67.6892C69.4252 67.3567 69.5026 66.9961 69.5026 66.6314C69.5026 66.2667 69.4252 65.9061 69.2754 65.5736C69.1256 65.2411 68.9069 64.9442 68.6337 64.7025C68.3606 64.4609 68.0392 64.28 67.6909 64.1719C67.3426 64.0638 66.9753 64.0308 66.6133 64.0753H60.2327C59.8707 64.0308 59.5034 64.0638 59.1551 64.1719C58.8068 64.28 58.4854 64.4609 58.2122 64.7025C57.9391 64.9442 57.7204 65.2411 57.5706 65.5736C57.4208 65.9061 57.3433 66.2667 57.3433 66.6314C57.3433 66.9961 57.4208 67.3567 57.5706 67.6892C57.7204 68.0217 57.9391 68.3186 58.2122 68.5603C58.4854 68.8019 58.8068 68.9828 59.1551 69.0909C59.5034 69.1991 59.8707 69.232 60.2327 69.1875V69.1875ZM85.832 79.4503H60.2327C59.8707 79.4058 59.5034 79.4388 59.1551 79.5469C58.8068 79.655 58.4854 79.8359 58.2122 80.0775C57.9391 80.3192 57.7204 80.6161 57.5706 80.9486C57.4208 81.2811 57.3433 81.6417 57.3433 82.0064C57.3433 82.3711 57.4208 82.7317 57.5706 83.0642C57.7204 83.3967 57.9391 83.6936 58.2122 83.9353C58.4854 84.1769 58.8068 84.3578 59.1551 84.4659C59.5034 84.5741 59.8707 84.607 60.2327 84.5625H85.832C86.194 84.607 86.5613 84.5741 86.9096 84.4659C87.2579 84.3578 87.5793 84.1769 87.8525 83.9353C88.1256 83.6936 88.3443 83.3967 88.4941 83.0642C88.6439 82.7317 88.7214 82.3711 88.7214 82.0064C88.7214 81.6417 88.6439 81.2811 88.4941 80.9486C88.3443 80.6161 88.1256 80.3192 87.8525 80.0775C87.5793 79.8359 87.2579 79.655 86.9096 79.5469C86.5613 79.4388 86.194 79.4058 85.832 79.4503V79.4503ZM66.6133 89.6747H60.2327C59.5496 89.6747 58.8946 89.946 58.4116 90.429C57.9287 90.9119 57.6573 91.567 57.6573 92.25C57.6573 92.933 57.9287 93.588 58.4116 94.071C58.8946 94.554 59.5496 94.8253 60.2327 94.8253H66.6133C67.2963 94.8253 67.9513 94.554 68.4343 94.071C68.9173 93.588 69.1886 92.933 69.1886 92.25C69.1886 91.567 68.9173 90.9119 68.4343 90.429C67.9513 89.946 67.2963 89.6747 66.6133 89.6747ZM43.5508 79.4503C42.0303 79.4503 40.544 79.9012 39.2798 80.7459C38.0156 81.5906 37.0303 82.7912 36.4485 84.1959C35.8666 85.6006 35.7144 87.1463 36.011 88.6376C36.3076 90.1288 37.0398 91.4986 38.1149 92.5737C39.19 93.6488 40.5598 94.381 42.051 94.6776C43.5423 94.9742 45.088 94.822 46.4927 94.2401C47.8974 93.6583 49.098 92.673 49.9427 91.4088C50.7874 90.1446 51.2383 88.6583 51.2383 87.1378C51.2383 85.099 50.4284 83.1436 48.9867 81.7019C47.545 80.2602 45.5896 79.4503 43.5508 79.4503ZM43.5508 89.6747C43.0398 89.6746 42.5404 89.5226 42.1161 89.2379C41.6918 88.9531 41.3618 88.5486 41.1681 88.0758C40.9743 87.603 40.9256 87.0832 41.0281 86.5826C41.1307 86.0821 41.3798 85.6233 41.7438 85.2647C42.1078 84.9061 42.5703 84.6639 43.0723 84.5689C43.5744 84.474 44.0934 84.5305 44.5632 84.7313C45.0331 84.9321 45.4326 85.2682 45.7109 85.6967C45.9892 86.1253 46.1337 86.6269 46.1261 87.1378C46.116 87.8141 45.8402 88.4593 45.3584 88.934C44.8765 89.4087 44.2272 89.6748 43.5508 89.6747V89.6747ZM51.5073 28.7128C50.9649 28.311 50.2864 28.1382 49.6178 28.2316C48.9493 28.3251 48.3441 28.6773 47.9327 29.2125L42.0133 37.0922L40.2452 35.3625C40.0119 35.1183 39.7315 34.9239 39.421 34.7912C39.1105 34.6584 38.7763 34.5899 38.4386 34.5899C38.1009 34.5899 37.7667 34.6584 37.4562 34.7912C37.1457 34.9239 36.8653 35.1183 36.632 35.3625C36.3926 35.5985 36.2025 35.8798 36.0728 36.1899C35.943 36.5 35.8762 36.8329 35.8762 37.1691C35.8762 37.5052 35.943 37.8381 36.0728 38.1482C36.2025 38.4583 36.3926 38.7396 36.632 38.9756L40.4758 42.8194L41.1292 43.1269C41.3713 43.1638 41.6175 43.1638 41.8595 43.1269H42.5514H42.8973H43.0895L43.397 42.9347V42.7425L51.0845 32.4797C51.372 32.2692 51.6126 32.0014 51.7913 31.6932C51.9699 31.385 52.0827 31.043 52.1224 30.689C52.1622 30.335 52.128 29.9766 52.0222 29.6364C51.9163 29.2962 51.741 28.9817 51.5073 28.7128V28.7128ZM51.5073 54.3122C51.2382 54.1103 50.9317 53.964 50.6055 53.8817C50.2793 53.7994 49.94 53.7828 49.6073 53.8329C49.2747 53.883 48.9553 53.9987 48.6678 54.1734C48.3803 54.348 48.1304 54.5782 47.9327 54.8503L42.0133 62.73L40.2452 60.9619C40.0079 60.7246 39.7263 60.5364 39.4163 60.408C39.1063 60.2797 38.7741 60.2136 38.4386 60.2136C38.1031 60.2136 37.7709 60.2797 37.4609 60.408C37.1509 60.5364 36.8693 60.7246 36.632 60.9619C36.3948 61.1991 36.2066 61.4808 36.0782 61.7907C35.9498 62.1007 35.8837 62.4329 35.8837 62.7684C35.8837 63.1039 35.9498 63.4362 36.0782 63.7461C36.2066 64.0561 36.3948 64.3378 36.632 64.575L40.4758 68.4187C40.672 68.5709 40.8931 68.6879 41.1292 68.7647V68.7647C41.4709 69.0024 41.868 69.148 42.2823 69.1875V69.1875H42.8205H43.1664H43.3586H43.6661L51.3536 58.9631C51.789 58.7581 52.1594 58.437 52.4239 58.0349C52.6884 57.6329 52.8368 57.1656 52.8527 56.6847C52.8686 56.2037 52.7514 55.7277 52.514 55.309C52.2766 54.8904 51.9283 54.5455 51.5073 54.3122V54.3122Z" fill="#FFAF18"/>
</svg>
