<svg width="64" height="64" viewBox="0 0 64 64" fill="none" xmlns="http://www.w3.org/2000/svg">
<path d="M25.0196 49.7272C24.6428 51.9932 24.4379 53.3381 24.39 54.1858C24.366 54.612 24.3788 54.9496 24.4451 55.2329C24.5157 55.5342 24.6416 55.7523 24.8037 55.9434L24.8115 55.9526L24.8116 55.9525C24.9597 56.1188 25.1402 56.2531 25.342 56.3472C25.5438 56.4413 25.7627 56.4932 25.9853 56.4998L25.9927 56.5H26C26.6214 56.5 27.1596 56.181 28.0076 55.3887C28.8664 54.5864 30.1473 53.1927 32.2595 50.8335L32.2686 50.8234L32.2685 50.8232C33.5834 49.2715 34.9801 47.7909 36.4525 46.3878C43.9096 45.9125 50.3716 43.905 54.9959 40.8726C59.6564 37.8166 62.5 33.6795 62.5 29C62.5 24.0535 58.9545 19.6691 53.4498 16.5497C47.9296 13.4217 40.3415 11.5 32 11.5C23.6585 11.5 16.0704 13.4217 10.5502 16.5497C5.04548 19.6691 1.5 24.0535 1.5 29C1.5 33.8933 4.01715 38.0679 8.34057 41.0994C12.5497 44.0507 18.4794 45.9298 25.5355 46.3886C25.4287 47.2273 25.2428 48.3627 25.085 49.3267C25.0625 49.4642 25.0406 49.5981 25.0196 49.7272ZM25.0196 49.7272C25.0196 49.7273 25.0195 49.7274 25.0195 49.7276L25.513 49.808L25.0198 49.726C25.0197 49.7264 25.0196 49.7268 25.0196 49.7272ZM27.0568 43.4634L27.0644 43.4636L27.072 43.4642C27.2891 43.479 27.5012 43.5368 27.6957 43.6343C27.8903 43.7319 28.0635 43.8671 28.2053 44.0323L28.2055 44.0321L28.2137 44.0423C28.37 44.2341 28.4903 44.4515 28.5571 44.7501C28.6199 45.0311 28.6311 45.3658 28.6061 45.7892C28.5565 46.6316 28.3526 47.967 27.9782 50.218C27.9683 50.2785 27.9581 50.3401 27.9478 50.4026C27.9015 50.6825 27.852 50.9821 27.8023 51.2886C28.5565 50.4687 29.3589 49.5746 30.0233 48.8317L30.0234 48.8316C32.0397 46.5779 33.247 45.2601 34.0496 44.5014C34.8461 43.7485 35.3346 43.4535 35.9123 43.4179L35.9147 43.4178C42.8235 43.0263 48.7514 41.2767 52.9355 38.6822C57.1248 36.0845 59.5 32.6891 59.5 29C59.5 25.1384 56.5593 21.5208 51.5535 18.8391C46.5691 16.1689 39.6534 14.5 32 14.5C24.3466 14.5 17.4309 16.1689 12.4465 18.8391C7.44067 21.5208 4.5 25.1384 4.5 29C4.5 33.0071 6.69211 36.4763 10.6238 39.0299C14.5639 41.5889 20.2277 43.2066 27.0568 43.4634Z" fill="#FFAF18" stroke="#FFAF18"/>
<path d="M32 35C31.4067 35 30.8266 34.8241 30.3333 34.4944C29.8399 34.1648 29.4554 33.6962 29.2284 33.148C29.0013 32.5999 28.9419 31.9967 29.0576 31.4147C29.1734 30.8328 29.4591 30.2982 29.8787 29.8787C30.2982 29.4591 30.8328 29.1734 31.4147 29.0576C31.9967 28.9419 32.5999 29.0013 33.1481 29.2284C33.6962 29.4554 34.1648 29.8399 34.4944 30.3333C34.8241 30.8266 35 31.4067 35 32C35 32.7957 34.6839 33.5587 34.1213 34.1213C33.5587 34.6839 32.7956 35 32 35ZM32 31C31.8022 31 31.6089 31.0586 31.4444 31.1685C31.28 31.2784 31.1518 31.4346 31.0761 31.6173C31.0004 31.8 30.9806 32.0011 31.0192 32.1951C31.0578 32.3891 31.153 32.5673 31.2929 32.7071C31.4327 32.847 31.6109 32.9422 31.8049 32.9808C31.9989 33.0194 32.2 32.9996 32.3827 32.9239C32.5654 32.8482 32.7216 32.72 32.8315 32.5556C32.9414 32.3911 33 32.1978 33 32C33 31.7348 32.8946 31.4804 32.7071 31.2929C32.5196 31.1054 32.2652 31 32 31ZM46 35C45.4067 35 44.8266 34.8241 44.3333 34.4944C43.8399 34.1648 43.4554 33.6962 43.2284 33.148C43.0013 32.5999 42.9419 31.9967 43.0576 31.4147C43.1734 30.8328 43.4591 30.2982 43.8787 29.8787C44.2982 29.4591 44.8328 29.1734 45.4147 29.0576C45.9967 28.9419 46.5999 29.0013 47.1481 29.2284C47.6962 29.4554 48.1648 29.8399 48.4944 30.3333C48.8241 30.8266 49 31.4067 49 32C49 32.7957 48.6839 33.5587 48.1213 34.1213C47.5587 34.6839 46.7956 35 46 35ZM46 31C45.8022 31 45.6089 31.0586 45.4444 31.1685C45.28 31.2784 45.1518 31.4346 45.0761 31.6173C45.0004 31.8 44.9806 32.0011 45.0192 32.1951C45.0578 32.3891 45.153 32.5673 45.2929 32.7071C45.4327 32.847 45.6109 32.9422 45.8049 32.9808C45.9989 33.0194 46.2 32.9996 46.3827 32.9239C46.5654 32.8482 46.7216 32.72 46.8315 32.5556C46.9414 32.3911 47 32.1978 47 32C47 31.7348 46.8946 31.4804 46.7071 31.2929C46.5196 31.1054 46.2652 31 46 31ZM18 35C17.4067 35 16.8266 34.8241 16.3333 34.4944C15.8399 34.1648 15.4554 33.6962 15.2284 33.148C15.0013 32.5999 14.9419 31.9967 15.0576 31.4147C15.1734 30.8328 15.4591 30.2982 15.8787 29.8787C16.2982 29.4591 16.8328 29.1734 17.4147 29.0576C17.9967 28.9419 18.5999 29.0013 19.148 29.2284C19.6962 29.4554 20.1648 29.8399 20.4944 30.3333C20.8241 30.8266 21 31.4067 21 32C21 32.7957 20.6839 33.5587 20.1213 34.1213C19.5587 34.6839 18.7956 35 18 35ZM18 31C17.8022 31 17.6089 31.0586 17.4444 31.1685C17.28 31.2784 17.1518 31.4346 17.0761 31.6173C17.0004 31.8 16.9806 32.0011 17.0192 32.1951C17.0578 32.3891 17.153 32.5673 17.2929 32.7071C17.4327 32.847 17.6109 32.9422 17.8049 32.9808C17.9989 33.0194 18.2 32.9996 18.3827 32.9239C18.5654 32.8482 18.7216 32.72 18.8315 32.5556C18.9414 32.3911 19 32.1978 19 32C19 31.7348 18.8946 31.4804 18.7071 31.2929C18.5196 31.1054 18.2652 31 18 31Z" fill="#FFAF18"/>
</svg>
