<svg width="470" height="210" viewBox="0 0 470 210" fill="none" xmlns="http://www.w3.org/2000/svg">
<g clip-path="url(#clip0_170_5076)">
<g opacity="0.62">
<path opacity="0.44" d="M417.062 52.8731C413.292 51.8162 409.444 51.0656 405.553 50.6316C397.023 49.6801 388.231 50.2367 379.568 52.4783C376.6 53.2476 373.683 54.2024 370.834 55.3376C367.985 56.4729 365.211 57.7851 362.527 59.2693C354.696 63.5992 347.931 69.2431 342.393 75.801C339.868 78.7931 337.589 81.9844 335.58 85.3442C324.414 104.015 321.761 127.493 330.437 149.263C345.217 186.357 387.268 204.445 424.358 189.663C461.448 174.881 479.536 132.829 464.754 95.7367C456.08 73.9662 438.009 58.7468 417.062 52.8731V52.8731ZM421.706 183.008C388.291 196.324 350.408 180.029 337.092 146.612C323.776 113.194 340.07 75.3091 373.486 61.9925C406.901 48.676 444.784 64.9711 458.1 98.3885C471.416 131.806 455.122 169.691 421.706 183.008Z" fill="#FFB000"/>
<path d="M373.485 61.9925C340.07 75.3091 323.776 113.194 337.092 146.612C350.407 180.029 388.29 196.324 421.706 183.008C455.121 169.691 471.416 131.806 458.1 98.3884C444.784 64.971 406.901 48.6759 373.485 61.9925V61.9925ZM420.862 180.889C388.616 193.739 352.058 178.014 339.209 145.767C326.359 113.519 342.083 76.96 374.328 64.1098C406.572 51.2596 443.131 66.9845 455.981 99.2309C468.83 131.479 453.106 168.038 420.862 180.889Z" fill="#FFB000"/>
<path d="M373.485 61.9925C340.07 75.3091 323.776 113.194 337.092 146.612C350.407 180.029 388.29 196.324 421.706 183.008C455.121 169.691 471.416 131.806 458.1 98.3884C444.784 64.971 406.901 48.6759 373.485 61.9925V61.9925ZM420.862 180.889C388.616 193.739 352.058 178.014 339.209 145.767C326.359 113.519 342.083 76.96 374.328 64.1098C406.572 51.2596 443.131 66.9845 455.981 99.2309C468.83 131.479 453.106 168.038 420.862 180.889Z" fill="#FFB000"/>
<path d="M451.749 99.1662L446.002 101.457C445.166 101.791 444.759 102.737 445.091 103.573C445.423 104.408 446.371 104.815 447.207 104.483L452.954 102.192C453.79 101.859 454.197 100.912 453.865 100.077C453.531 99.2411 452.585 98.8343 451.749 99.1662ZM416.523 169.997C415.687 170.331 415.281 171.277 415.612 172.113L417.903 177.861C418.237 178.696 419.183 179.103 420.019 178.771C420.854 178.439 421.261 177.491 420.929 176.656L418.638 170.908C418.305 170.072 417.359 169.665 416.523 169.999V169.997ZM350.1 141.427C349.767 140.592 348.821 140.185 347.985 140.517L342.238 142.808C341.402 143.141 340.995 144.088 341.327 144.923C341.661 145.759 342.607 146.166 343.442 145.834L349.19 143.543C350.026 143.209 350.432 142.263 350.099 141.427H350.1ZM378.669 75.0009C379.504 74.6673 379.911 73.721 379.579 72.8853L377.289 67.1359C376.955 66.3002 376.009 65.8934 375.173 66.2253C374.337 66.5589 373.931 67.5053 374.263 68.3409L376.553 74.0904C376.887 74.926 377.833 75.3328 378.669 74.9992V75.0009ZM456.065 130.017L449.942 129.127C449.409 129.048 448.912 129.418 448.834 129.951C448.756 130.487 449.125 130.982 449.659 131.06L455.783 131.95C456.317 132.029 456.812 131.659 456.891 131.125C456.969 130.591 456.6 130.095 456.065 130.017ZM390.141 173.742C389.607 173.663 389.112 174.035 389.034 174.567L388.143 180.691C388.065 181.226 388.434 181.721 388.969 181.799C389.139 181.825 389.311 181.804 389.471 181.74C389.796 181.61 390.027 181.317 390.077 180.972L390.967 174.848C391.045 174.314 390.676 173.818 390.141 173.74V173.742ZM345.529 113.94L339.406 113.05C338.871 112.971 338.376 113.342 338.298 113.875C338.219 114.409 338.589 114.905 339.123 114.983L345.247 115.873C345.781 115.953 346.278 115.586 346.358 115.051C346.438 114.517 346.07 114.02 345.536 113.94H345.529ZM406.22 63.1992C405.685 63.1209 405.19 63.4919 405.112 64.0246L404.221 70.1485C404.143 70.6829 404.512 71.1782 405.047 71.2565C405.217 71.282 405.389 71.2616 405.549 71.1969C405.874 71.0676 406.105 70.7748 406.155 70.4293L407.045 64.3055C407.123 63.771 406.752 63.2757 406.22 63.1974V63.1992ZM439.609 154.419C439.187 154.085 438.575 154.155 438.239 154.577V154.58C437.902 155.003 437.974 155.617 438.398 155.951L443.255 159.785C443.677 160.119 444.291 160.047 444.625 159.625C444.959 159.201 444.887 158.587 444.465 158.253L439.608 154.419H439.609ZM364.141 163.305L360.309 168.163C359.975 168.585 360.046 169.199 360.468 169.533C360.891 169.868 361.505 169.796 361.839 169.374L365.671 164.517C366.005 164.095 365.933 163.48 365.511 163.147C365.089 162.811 364.477 162.881 364.141 163.303V163.307V163.305ZM351.928 85.2096C351.506 84.876 350.893 84.9458 350.558 85.3679V85.3713C350.221 85.7934 350.293 86.4079 350.716 86.7415L355.574 90.5761C355.996 90.9097 356.61 90.8382 356.944 90.4161C357.277 89.9923 357.206 89.3779 356.784 89.0443L351.927 85.2096H351.928ZM430.639 81.9911C430.797 81.9281 430.936 81.8243 431.042 81.6899L434.875 76.8323C435.208 76.4102 435.137 75.7958 434.715 75.4622C434.293 75.1269 433.68 75.1967 433.345 75.6188V75.6222L429.509 80.4797C429.175 80.9018 429.246 81.5163 429.669 81.8499C429.943 82.0677 430.312 82.1205 430.637 81.9911H430.639ZM402.416 123.226C402.215 124.55 401.476 125.76 400.336 126.535L418.586 138.022C419.115 138.355 419.77 138.415 420.352 138.183C420.737 138.03 421.062 137.759 421.282 137.409C421.857 136.497 421.581 135.288 420.669 134.715L402.417 123.226H402.416ZM399.429 117.975L398.409 78.1718C398.382 77.0927 397.485 76.24 396.406 76.2672C395.327 76.2962 394.476 77.1914 394.502 78.2705L395.521 118.077C395.608 118.036 395.691 117.994 395.78 117.958C397 117.471 398.299 117.516 399.427 117.975H399.429Z" fill="#FFB000"/>
<path d="M402.419 123.228C402.545 122.399 402.464 121.526 402.132 120.69C401.619 119.405 400.62 118.46 399.432 117.977C398.304 117.517 397.006 117.475 395.785 117.96C395.697 117.996 395.612 118.038 395.527 118.079C393.198 119.167 392.094 121.89 393.057 124.307C394.056 126.814 396.897 128.036 399.404 127.037C399.734 126.904 400.049 126.737 400.341 126.536C401.482 125.762 402.22 124.55 402.421 123.228H402.419Z" fill="#FFB000"/>
</g>
<path d="M369.673 51.4392C381.44 39.6717 381.44 20.5929 369.673 8.82543C357.906 -2.94205 338.828 -2.94206 327.062 8.82542C315.295 20.5929 315.295 39.6718 327.062 51.4392C338.828 63.2067 357.906 63.2067 369.673 51.4392Z" fill="white"/>
<path d="M17.8359 118.331H2.60205C1.82257 118.331 1.18945 117.698 1.18945 116.918V101.684C1.18945 100.902 1.82257 100.271 2.60205 100.271H17.8359C18.6154 100.271 19.2485 100.904 19.2485 101.684V116.918C19.2485 117.7 18.6154 118.331 17.8359 118.331Z" fill="#E2E2E2"/>
<path d="M358.91 31.6506V193.519C358.91 200.537 353.215 206.232 346.198 206.232H148.479C141.462 206.232 135.768 200.537 135.768 193.519V31.6506C135.768 24.6196 141.462 18.9382 148.479 18.9382H346.198C353.215 18.9382 358.91 24.6196 358.91 31.6506Z" fill="white" stroke="#FFB000" stroke-width="2" stroke-miterlimit="10"/>
<path d="M358.91 31.6506V54.2806H135.768V31.6506C135.768 24.6196 141.462 18.9382 148.479 18.9382H346.198C353.215 18.9382 358.91 24.6196 358.91 31.6506Z" fill="#FFB000"/>
<path d="M169.651 89.732H145.012C144.794 89.732 144.617 89.555 144.617 89.3372V64.6971C144.617 64.4792 144.794 64.3022 145.012 64.3022H169.651C169.869 64.3022 170.046 64.4792 170.046 64.6971V89.3372C170.046 89.555 169.869 89.732 169.651 89.732ZM205.881 89.732H181.243C181.025 89.732 180.848 89.555 180.848 89.3372V64.6971C180.848 64.4792 181.025 64.3022 181.243 64.3022H205.881C206.099 64.3022 206.276 64.4792 206.276 64.6971V89.3372C206.276 89.555 206.099 89.732 205.881 89.732ZM242.112 89.732H217.473C217.255 89.732 217.078 89.555 217.078 89.3372V64.6971C217.078 64.4792 217.255 64.3022 217.473 64.3022H242.112C242.33 64.3022 242.507 64.4792 242.507 64.6971V89.3372C242.507 89.555 242.33 89.732 242.112 89.732ZM278.342 89.732H253.704C253.486 89.732 253.309 89.555 253.309 89.3372V64.6971C253.309 64.4792 253.486 64.3022 253.704 64.3022H278.342C278.56 64.3022 278.737 64.4792 278.737 64.6971V89.3372C278.737 89.555 278.56 89.732 278.342 89.732ZM313.019 90.2784H291.486C290.111 90.2784 288.993 89.1602 288.993 87.7832V66.2476C288.993 64.8724 290.111 63.7524 291.486 63.7524H313.019C314.394 63.7524 315.512 64.8707 315.512 66.2476V87.7832C315.512 89.1585 314.394 90.2784 313.019 90.2784ZM291.486 64.8468C290.714 64.8468 290.084 65.4749 290.084 66.2493V87.7849C290.084 88.5593 290.714 89.1874 291.486 89.1874H313.019C313.792 89.1874 314.421 88.5593 314.421 87.7849V66.2493C314.421 65.4749 313.792 64.8468 313.019 64.8468H291.486ZM350.803 89.732H326.165C325.947 89.732 325.77 89.555 325.77 89.3372V64.6971C325.77 64.4792 325.947 64.3022 326.165 64.3022H350.803C351.021 64.3022 351.198 64.4792 351.198 64.6971V89.3372C351.198 89.555 351.021 89.732 350.803 89.732ZM169.653 123.854H145.014C144.796 123.854 144.619 123.677 144.619 123.459V98.8191C144.619 98.6012 144.796 98.4242 145.014 98.4242H169.653C169.87 98.4242 170.047 98.6012 170.047 98.8191V123.459C170.047 123.677 169.87 123.854 169.653 123.854ZM205.883 123.854H181.244C181.027 123.854 180.85 123.677 180.85 123.459V98.8191C180.85 98.6012 181.027 98.4242 181.244 98.4242H205.883C206.101 98.4242 206.278 98.6012 206.278 98.8191V123.459C206.278 123.677 206.101 123.854 205.883 123.854ZM240.56 124.4H219.027C217.652 124.4 216.532 123.282 216.532 121.905V100.371C216.532 98.9961 217.65 97.8762 219.027 97.8762H240.56C241.935 97.8762 243.055 98.9961 243.055 100.371V121.905C243.055 123.28 241.935 124.4 240.56 124.4ZM219.027 98.9689C218.254 98.9689 217.625 99.5986 217.625 100.371V121.905C217.625 122.68 218.254 123.308 219.027 123.308H240.56C241.332 123.308 241.962 122.68 241.962 121.905V100.371C241.962 99.5969 241.332 98.9689 240.56 98.9689H219.027ZM278.344 123.854H253.705C253.487 123.854 253.31 123.677 253.31 123.459V98.8191C253.31 98.6012 253.487 98.4242 253.705 98.4242H278.344C278.562 98.4242 278.739 98.6012 278.739 98.8191V123.459C278.739 123.677 278.562 123.854 278.344 123.854ZM314.575 123.854H289.936C289.718 123.854 289.541 123.677 289.541 123.459V98.8191C289.541 98.6012 289.718 98.4242 289.936 98.4242H314.575C314.792 98.4242 314.969 98.6012 314.969 98.8191V123.459C314.969 123.677 314.792 123.854 314.575 123.854ZM350.805 123.854H326.166C325.948 123.854 325.771 123.677 325.771 123.459V98.8191C325.771 98.6012 325.948 98.4242 326.166 98.4242H350.805C351.023 98.4242 351.2 98.6012 351.2 98.8191V123.459C351.2 123.677 351.023 123.854 350.805 123.854ZM169.654 157.976H145.016C144.798 157.976 144.621 157.799 144.621 157.581V132.941C144.621 132.723 144.798 132.546 145.016 132.546H169.654C169.872 132.546 170.049 132.723 170.049 132.941V157.581C170.049 157.799 169.872 157.976 169.654 157.976ZM205.885 157.976H181.246C181.028 157.976 180.851 157.799 180.851 157.581V132.941C180.851 132.723 181.028 132.546 181.246 132.546H205.885C206.103 132.546 206.28 132.723 206.28 132.941V157.581C206.28 157.799 206.103 157.976 205.885 157.976ZM242.115 157.976H217.477C217.259 157.976 217.082 157.799 217.082 157.581V132.941C217.082 132.723 217.259 132.546 217.477 132.546H242.115C242.333 132.546 242.51 132.723 242.51 132.941V157.581C242.51 157.799 242.333 157.976 242.115 157.976ZM278.346 157.976H253.707C253.489 157.976 253.312 157.799 253.312 157.581V132.941C253.312 132.723 253.489 132.546 253.707 132.546H278.346C278.564 132.546 278.741 132.723 278.741 132.941V157.581C278.741 157.799 278.564 157.976 278.346 157.976ZM314.576 157.976H289.938C289.72 157.976 289.543 157.799 289.543 157.581V132.941C289.543 132.723 289.72 132.546 289.938 132.546H314.576C314.794 132.546 314.971 132.723 314.971 132.941V157.581C314.971 157.799 314.794 157.976 314.576 157.976ZM350.807 157.976H326.168C325.95 157.976 325.773 157.799 325.773 157.581V132.941C325.773 132.723 325.95 132.546 326.168 132.546H350.807C351.025 132.546 351.202 132.723 351.202 132.941V157.581C351.202 157.799 351.025 157.976 350.807 157.976ZM168.102 192.644H146.569C145.194 192.644 144.076 191.525 144.076 190.149V168.615C144.076 167.24 145.194 166.12 146.569 166.12H168.102C169.477 166.12 170.597 167.238 170.597 168.615V190.149C170.597 191.525 169.479 192.644 168.102 192.644ZM146.569 167.213C145.797 167.213 145.167 167.841 145.167 168.615V190.149C145.167 190.922 145.797 191.552 146.569 191.552H168.102C168.875 191.552 169.505 190.922 169.505 190.149V168.615C169.505 167.843 168.875 167.213 168.102 167.213H146.569V167.213ZM205.886 192.098H181.248C181.03 192.098 180.853 191.921 180.853 191.703V167.063C180.853 166.845 181.03 166.668 181.248 166.668H205.886C206.104 166.668 206.281 166.845 206.281 167.063V191.703C206.281 191.921 206.104 192.098 205.886 192.098ZM242.117 192.098H217.478C217.26 192.098 217.083 191.921 217.083 191.703V167.063C217.083 166.845 217.26 166.668 217.478 166.668H242.117C242.335 166.668 242.512 166.845 242.512 167.063V191.703C242.512 191.921 242.335 192.098 242.117 192.098ZM278.347 192.098H253.709C253.491 192.098 253.314 191.921 253.314 191.703V167.063C253.314 166.845 253.491 166.668 253.709 166.668H278.347C278.565 166.668 278.742 166.845 278.742 167.063V191.703C278.742 191.921 278.565 192.098 278.347 192.098ZM314.578 192.098H289.939C289.721 192.098 289.544 191.921 289.544 191.703V167.063C289.544 166.845 289.721 166.668 289.939 166.668H314.578C314.796 166.668 314.973 166.845 314.973 167.063V191.703C314.973 191.921 314.796 192.098 314.578 192.098ZM350.808 192.098H326.17C325.952 192.098 325.775 191.921 325.775 191.703V167.063C325.775 166.845 325.952 166.668 326.17 166.668H350.808C351.026 166.668 351.203 166.845 351.203 167.063V191.703C351.203 191.921 351.026 192.098 350.808 192.098Z" fill="#E2E2E2"/>
<path d="M153.826 38.651C153.826 41.2057 151.755 43.2754 149.202 43.2754C146.649 43.2754 144.578 41.204 144.578 38.651C144.578 36.098 146.649 34.0266 149.202 34.0266C151.755 34.0266 153.826 36.098 153.826 38.651V38.651Z" fill="#BDE7FF"/>
<path d="M188.583 43.2754C191.137 43.2754 193.207 41.205 193.207 38.651C193.207 36.097 191.137 34.0266 188.583 34.0266C186.029 34.0266 183.959 36.097 183.959 38.651C183.959 41.205 186.029 43.2754 188.583 43.2754Z" fill="#BDE7FF"/>
<path d="M227.964 43.2754C230.518 43.2754 232.588 41.205 232.588 38.651C232.588 36.097 230.518 34.0266 227.964 34.0266C225.41 34.0266 223.34 36.097 223.34 38.651C223.34 41.205 225.41 43.2754 227.964 43.2754Z" fill="#BDE7FF"/>
<path d="M271.969 38.651C271.969 41.2057 269.898 43.2754 267.345 43.2754C264.792 43.2754 262.721 41.204 262.721 38.651C262.721 36.098 264.792 34.0266 267.345 34.0266C269.898 34.0266 271.969 36.098 271.969 38.651V38.651ZM311.35 38.651C311.35 41.2057 309.278 43.2754 306.726 43.2754C304.173 43.2754 302.101 41.204 302.101 38.651C302.101 36.098 304.173 34.0266 306.726 34.0266C309.278 34.0266 311.35 36.098 311.35 38.651V38.651ZM350.73 38.651C350.73 41.2057 348.659 43.2754 346.106 43.2754C343.553 43.2754 341.482 41.204 341.482 38.651C341.482 36.098 343.553 34.0266 346.106 34.0266C348.659 34.0266 350.73 36.098 350.73 38.651V38.651Z" fill="#BDE7FF"/>
<path d="M149.202 40.9199C147.95 40.9199 146.934 39.9038 146.934 38.6511V16.9402C146.934 15.6875 147.95 14.6714 149.202 14.6714C150.455 14.6714 151.471 15.6875 151.471 16.9402V38.6511C151.471 39.9038 150.455 40.9199 149.202 40.9199V40.9199ZM188.583 40.9199C187.33 40.9199 186.314 39.9038 186.314 38.6511V16.9402C186.314 15.6875 187.33 14.6714 188.583 14.6714C189.836 14.6714 190.852 15.6875 190.852 16.9402V38.6511C190.852 39.9038 189.836 40.9199 188.583 40.9199V40.9199ZM227.964 40.9199C226.711 40.9199 225.695 39.9038 225.695 38.6511V16.9402C225.695 15.6875 226.711 14.6714 227.964 14.6714C229.216 14.6714 230.232 15.6875 230.232 16.9402V38.6511C230.232 39.9038 229.216 40.9199 227.964 40.9199V40.9199ZM306.725 40.9199C305.473 40.9199 304.456 39.9038 304.456 38.6511V16.9402C304.456 15.6875 305.473 14.6714 306.725 14.6714C307.978 14.6714 308.994 15.6875 308.994 16.9402V38.6511C308.994 39.9038 307.978 40.9199 306.725 40.9199V40.9199ZM346.106 40.9199C344.853 40.9199 343.837 39.9038 343.837 38.6511V16.9402C343.837 15.6875 344.853 14.6714 346.106 14.6714C347.358 14.6714 348.375 15.6875 348.375 16.9402V38.6511C348.375 39.9038 347.358 40.9199 346.106 40.9199V40.9199Z" fill="#0E1C56"/>
<path d="M237.084 138.432C236.335 138.701 235.588 138.91 234.829 139.091C235.367 140.942 235.656 142.859 235.687 144.787H239.777C239.668 142.343 238.66 140.108 237.084 138.432ZM233.703 136.068C234.033 136.755 234.302 137.474 234.55 138.194C235.149 138.054 235.738 137.894 236.317 137.705C235.539 137.026 234.671 136.468 233.703 136.069V136.068ZM232.445 135.618C231.732 135.423 230.998 135.309 230.26 135.28V138.711C231.376 138.701 232.504 138.582 233.621 138.383C233.301 137.434 232.903 136.517 232.443 135.618H232.445ZM233.902 139.29C232.705 139.509 231.478 139.639 230.261 139.649V144.787H234.751C234.72 142.932 234.441 141.077 233.903 139.291L233.902 139.29ZM229.792 135.27C229.632 135.27 229.482 135.27 229.324 135.28H230.261C230.101 135.27 229.952 135.27 229.793 135.27H229.792ZM227.138 135.618C226.679 136.515 226.281 137.434 225.961 138.372C227.068 138.571 228.195 138.701 229.322 138.711V135.28C228.583 135.31 227.85 135.423 227.137 135.618H227.138ZM223.268 137.683C223.847 137.882 224.436 138.042 225.035 138.182C225.285 137.463 225.564 136.755 225.882 136.066C224.924 136.464 224.048 137.014 223.268 137.683V137.683ZM225.681 139.279C225.152 141.065 224.863 142.92 224.834 144.786H229.324V139.647C228.107 139.637 226.88 139.497 225.683 139.278L225.681 139.279ZM222.509 138.411C220.923 140.098 219.915 142.331 219.805 144.786H223.894C223.925 142.861 224.223 140.936 224.752 139.07C223.985 138.891 223.236 138.68 222.507 138.411H222.509ZM230.26 145.723V150.87C231.476 150.891 232.693 151.01 233.891 151.24C234.429 149.449 234.719 147.592 234.749 145.723H230.26V145.723ZM235.687 145.723C235.658 147.657 235.367 149.577 234.819 151.43C235.581 151.611 236.334 151.83 237.074 152.089C238.66 150.412 239.668 148.178 239.777 145.723H235.687V145.723ZM225.053 152.337C224.454 152.477 223.857 152.637 223.268 152.836C224.046 153.515 224.934 154.063 225.911 154.482C225.591 153.774 225.304 153.066 225.053 152.337V152.337ZM234.53 152.327C234.29 153.056 234 153.764 233.672 154.472C234.639 154.068 235.532 153.508 236.315 152.816C235.726 152.627 235.127 152.467 234.53 152.327ZM230.26 151.808V155.25C230.998 155.21 231.716 155.1 232.414 154.911C232.881 154.021 233.277 153.098 233.602 152.148C232.499 151.941 231.381 151.827 230.26 151.808ZM225.981 152.157C226.315 153.102 226.714 154.021 227.177 154.911C227.856 155.1 228.575 155.21 229.322 155.25V151.808C228.205 151.828 227.087 151.948 225.979 152.157H225.981ZM223.896 145.722H219.806C219.91 148.106 220.87 150.372 222.511 152.106C223.249 151.847 224.007 151.617 224.774 151.437C224.226 149.572 223.927 147.657 223.896 145.722ZM224.834 145.722C224.865 147.587 225.162 149.442 225.692 151.238C226.888 151.018 228.105 150.889 229.322 150.869V145.722H224.832H224.834Z" fill="white"/>
<path d="M229.32 155.246C229.48 155.255 229.63 155.255 229.788 155.255C229.947 155.255 230.098 155.255 230.256 155.246" fill="white"/>
<path d="M156.004 85.5451C155.619 85.5451 155.248 85.4107 154.954 85.1639L148.822 80.0374C148.127 79.457 148.036 78.4256 148.616 77.7312C149.196 77.0384 150.228 76.9448 150.922 77.5252L155.703 81.5232L163.509 70.6729C164.037 69.9393 165.06 69.7708 165.795 70.3001C166.529 70.8278 166.695 71.8507 166.168 72.5843L157.333 84.8643C157.025 85.2915 156.532 85.5451 156.006 85.5451H156.004ZM301.607 85.5451C301.222 85.5451 300.851 85.4107 300.557 85.1639L294.425 80.0374C293.73 79.457 293.638 78.4256 294.219 77.7312C294.799 77.0384 295.832 76.9448 296.525 77.5252L301.305 81.5232L309.112 70.6729C309.638 69.9393 310.659 69.7708 311.393 70.2984H311.396C312.13 70.8295 312.296 71.8507 311.769 72.586L302.934 84.866C302.626 85.2932 302.133 85.5468 301.607 85.5468V85.5451ZM192.209 186.388C191.824 186.388 191.453 186.253 191.159 186.007L185.027 180.88C184.332 180.3 184.241 179.268 184.821 178.574C185.401 177.881 186.433 177.788 187.127 178.368L191.908 182.366L199.714 171.516C200.242 170.782 201.265 170.615 202 171.143C202.734 171.671 202.9 172.694 202.373 173.429L193.538 185.707C193.23 186.134 192.737 186.388 192.211 186.388H192.209Z" fill="#00BDDE"/>
<path d="M267.345 40.9199C266.092 40.9199 265.076 39.9038 265.076 38.6511V16.9402C265.076 15.6875 266.092 14.6714 267.345 14.6714C268.597 14.6714 269.613 15.6875 269.613 16.9402V38.6511C269.613 39.9038 268.597 40.9199 267.345 40.9199V40.9199Z" fill="#0E1C56"/>
<path d="M369.299 125.939C367.239 124.989 364.879 124.938 362.78 125.798L362.695 129.695C364.865 129.527 367.047 129.535 369.215 129.721L369.299 125.941V125.939ZM407.143 154.581C407.073 152.313 406.064 150.179 404.357 148.685L400.937 150.302C401.991 152.208 402.886 154.196 403.618 156.247L407.143 154.581ZM391.749 139.099L393.081 137.045L384.522 131.491L383.19 133.545C384.725 134.287 386.214 135.125 387.644 136.052C389.075 136.98 390.445 137.998 391.749 139.099Z" fill="#FFB000"/>
<path d="M394.628 138.049L398.309 132.376L386.66 124.817L382.979 130.49L384.524 131.493L393.083 137.046L394.628 138.049Z" fill="#FFB000"/>
<path d="M386.658 124.817L398.308 132.376C395.488 128.507 391.338 125.816 386.658 124.817Z" fill="#FFB000"/>
<path d="M403.617 156.247C402.885 154.196 401.989 152.208 400.936 150.302C398.582 146.038 395.468 142.243 391.747 139.101C390.444 138 389.074 136.984 387.642 136.054C386.211 135.125 384.723 134.288 383.188 133.547C378.803 131.43 374.068 130.133 369.216 129.721C367.046 129.536 364.866 129.527 362.696 129.695C350.632 130.627 339.124 136.967 332.03 147.902C319.945 166.531 325.248 191.431 343.876 203.519C362.503 215.605 387.402 210.301 399.489 191.673C406.583 180.739 407.684 167.645 403.618 156.249L403.617 156.247ZM346.044 200.174C329.261 189.285 324.484 166.852 335.373 150.069C346.262 133.285 368.693 128.507 385.476 139.397C402.258 150.287 407.036 172.719 396.147 189.501C385.258 206.285 362.827 211.062 346.044 200.173V200.174Z" fill="#FFB000"/>
<path d="M385.474 139.399C368.692 128.509 346.26 133.287 335.371 150.07C324.483 166.854 329.26 189.286 346.042 200.176C362.825 211.065 385.256 206.288 396.145 189.504C407.034 172.721 402.255 150.288 385.474 139.4V139.399ZM346.733 199.112C330.538 188.604 325.927 166.956 336.435 150.761C346.943 134.567 368.589 129.954 384.783 140.462C400.977 150.971 405.589 172.619 395.082 188.813C384.574 205.01 362.927 209.62 346.733 199.112V199.112Z" fill="#FFB000"/>
<path opacity="0.7" d="M385.474 139.399C368.692 128.509 346.26 133.287 335.371 150.07C324.483 166.854 329.26 189.286 346.042 200.176C362.825 211.065 385.256 206.288 396.145 189.504C407.034 172.721 402.255 150.288 385.474 139.4V139.399ZM346.733 199.112C330.538 188.604 325.927 166.956 336.435 150.761C346.943 134.567 368.589 129.954 384.783 140.462C400.977 150.971 405.589 172.619 395.082 188.813C384.574 205.01 362.927 209.62 346.733 199.112V199.112Z" fill="#ACE2F9"/>
<path d="M384.784 140.461C368.589 129.953 346.944 134.563 336.436 150.76C325.929 166.956 330.539 188.602 346.735 199.111C362.93 209.619 384.575 205.008 395.083 188.812C405.59 172.615 400.98 150.969 384.784 140.461ZM337.767 152.702C337.352 152.421 337.243 151.859 337.524 151.444C337.796 151.041 338.339 150.925 338.753 151.182L341.639 153.054C342.054 153.335 342.163 153.897 341.882 154.312C341.61 154.715 341.067 154.831 340.654 154.574L337.767 152.702ZM336.431 168.799L332.995 168.621C332.695 168.605 332.466 168.35 332.481 168.05C332.496 167.751 332.752 167.521 333.051 167.536L336.487 167.715C336.787 167.731 337.017 167.984 337.001 168.284C336.986 168.585 336.731 168.815 336.431 168.799ZM352.676 144.132C352.409 144.268 352.082 144.163 351.946 143.895L350.382 140.83C350.246 140.563 350.351 140.236 350.618 140.1C350.886 139.964 351.212 140.069 351.349 140.337L352.913 143.404C353.049 143.671 352.943 143.998 352.674 144.134L352.676 144.132ZM382.843 141.792C383.123 141.376 383.685 141.268 384.1 141.548C384.504 141.821 384.619 142.364 384.362 142.777L382.489 145.664C382.221 146.086 381.661 146.212 381.239 145.945C380.817 145.677 380.691 145.118 380.959 144.695C380.962 144.69 380.965 144.683 380.969 144.678L382.841 141.792H382.843ZM339.869 183.6L336.804 185.164C336.537 185.3 336.21 185.195 336.074 184.928C335.938 184.66 336.043 184.334 336.31 184.198L339.376 182.633C339.643 182.497 339.969 182.603 340.106 182.87C340.242 183.137 340.136 183.466 339.869 183.602V183.6ZM367.26 141.026C366.96 141.011 366.73 140.755 366.746 140.456L366.924 137.019C366.94 136.72 367.195 136.49 367.495 136.505C367.794 136.521 368.024 136.776 368.009 137.074L367.83 140.512C367.815 140.811 367.559 141.041 367.26 141.026ZM348.677 197.78C348.396 198.195 347.834 198.304 347.419 198.023C347.015 197.751 346.9 197.208 347.157 196.794L349.029 193.908C349.31 193.492 349.871 193.383 350.287 193.664C350.69 193.936 350.806 194.479 350.549 194.893L348.677 197.78ZM366.605 185.331C366.375 185.345 366.147 185.283 365.954 185.157C365.662 184.969 365.478 184.652 365.459 184.305L364.809 172.329C364.627 172.261 364.45 172.174 364.28 172.064C363.02 171.247 362.663 169.565 363.48 168.306C364.268 167.092 365.859 166.72 367.1 167.426L384.839 154.172C385.321 153.813 386.001 153.912 386.36 154.392C386.72 154.872 386.621 155.554 386.141 155.913L368.402 169.167C368.563 169.861 368.456 170.619 368.038 171.264C367.775 171.667 367.41 171.994 366.979 172.21L367.629 184.187C367.661 184.786 367.202 185.299 366.603 185.331H366.605ZM364.023 203.066C363.723 203.051 363.493 202.795 363.509 202.496L363.687 199.06C363.703 198.76 363.958 198.53 364.258 198.546C364.557 198.561 364.787 198.814 364.772 199.114L364.593 202.552C364.578 202.852 364.322 203.081 364.023 203.066ZM395.209 155.376L392.144 156.94C391.876 157.076 391.55 156.97 391.413 156.703C391.277 156.436 391.383 156.109 391.65 155.973L394.715 154.409C394.982 154.273 395.309 154.378 395.445 154.645C395.581 154.913 395.476 155.241 395.209 155.377V155.376ZM395.088 170.772L398.524 170.951C398.824 170.966 399.053 171.22 399.038 171.519C399.023 171.82 398.767 172.05 398.468 172.035L395.032 171.856C394.732 171.841 394.502 171.586 394.518 171.286C394.533 170.986 394.788 170.757 395.088 170.772ZM380.899 199.475C380.632 199.611 380.305 199.505 380.169 199.238L378.605 196.173C378.469 195.906 378.574 195.579 378.841 195.443C379.109 195.307 379.435 195.412 379.571 195.679L381.136 198.746C381.272 199.014 381.166 199.34 380.899 199.477V199.475ZM392.766 188.39L389.88 186.517C389.465 186.237 389.356 185.675 389.637 185.26C389.909 184.856 390.452 184.74 390.865 184.997L393.752 186.87C394.171 187.142 394.291 187.702 394.019 188.122C393.747 188.543 393.187 188.662 392.766 188.39V188.39Z" fill="white"/>
<path d="M393.753 186.87L390.867 184.997C390.447 184.725 389.887 184.844 389.614 185.265C389.342 185.685 389.461 186.245 389.882 186.517L392.768 188.39C393.188 188.662 393.748 188.543 394.021 188.122C394.293 187.702 394.174 187.142 393.753 186.87ZM350.285 193.64C349.866 193.368 349.304 193.487 349.032 193.908L347.16 196.794C346.888 197.215 347.007 197.775 347.427 198.047C347.848 198.319 348.407 198.2 348.68 197.78L350.552 194.893C350.824 194.473 350.705 193.913 350.285 193.64V193.64ZM341.908 154.308C342.18 153.89 342.061 153.328 341.641 153.056L338.754 151.182C338.334 150.909 337.774 151.029 337.502 151.449C337.229 151.869 337.348 152.429 337.769 152.702L340.655 154.574C341.076 154.846 341.636 154.727 341.908 154.307V154.308ZM381.238 145.931C381.656 146.203 382.218 146.084 382.49 145.664L384.364 142.777C384.636 142.357 384.517 141.797 384.097 141.525C383.676 141.252 383.116 141.371 382.844 141.792L380.97 144.678C380.698 145.099 380.817 145.659 381.238 145.931Z" fill="#192469"/>
<path d="M381.137 198.744L379.573 195.679C379.442 195.409 379.117 195.298 378.847 195.429C378.576 195.56 378.465 195.885 378.596 196.156C378.6 196.161 378.602 196.168 378.605 196.173L380.169 199.238C380.305 199.505 380.632 199.613 380.899 199.476C381.166 199.34 381.274 199.013 381.137 198.746V198.744ZM340.107 182.87C339.971 182.603 339.645 182.495 339.377 182.631L336.312 184.196C336.045 184.332 335.938 184.659 336.076 184.926C336.214 185.193 336.539 185.3 336.806 185.162L339.871 183.598C340.138 183.462 340.245 183.135 340.109 182.868L340.107 182.87ZM352.914 143.4L351.35 140.335C351.219 140.064 350.894 139.953 350.624 140.084C350.353 140.216 350.242 140.541 350.373 140.811C350.377 140.816 350.379 140.823 350.382 140.828L351.946 143.894C352.082 144.161 352.409 144.268 352.676 144.132C352.943 143.996 353.051 143.669 352.914 143.402V143.4ZM395.447 154.644C395.311 154.376 394.984 154.269 394.717 154.405L391.652 155.969C391.381 156.099 391.267 156.424 391.397 156.694C391.526 156.965 391.851 157.079 392.122 156.95C392.13 156.946 392.137 156.941 392.145 156.938L395.211 155.374C395.478 155.238 395.585 154.911 395.449 154.644H395.447ZM364.773 199.114C364.79 198.814 364.561 198.559 364.261 198.544H364.259C363.96 198.528 363.705 198.758 363.689 199.058L363.511 202.496C363.495 202.795 363.725 203.051 364.023 203.066C364.322 203.081 364.578 202.851 364.593 202.552L364.772 199.116L364.773 199.114ZM336.487 167.713L333.051 167.535C332.752 167.519 332.497 167.749 332.481 168.047C332.466 168.346 332.696 168.603 332.993 168.619L336.43 168.797C336.729 168.813 336.984 168.583 337 168.283C337.015 167.984 336.787 167.729 336.487 167.712H336.486L336.487 167.713ZM368.009 137.075C368.024 136.776 367.796 136.52 367.496 136.505H367.495C367.195 136.49 366.94 136.72 366.925 137.017L366.746 140.455C366.731 140.755 366.96 141.01 367.258 141.026C367.558 141.041 367.813 140.811 367.828 140.512L368.007 137.074L368.009 137.075ZM394.763 171.771C394.84 171.82 394.931 171.853 395.03 171.858L398.466 172.036C398.766 172.052 399.021 171.822 399.036 171.524C399.053 171.225 398.824 170.969 398.524 170.952H398.522L395.086 170.774C394.787 170.758 394.531 170.988 394.516 171.288C394.506 171.482 394.6 171.665 394.763 171.771V171.771Z" fill="#101747"/>
<path d="M366.98 172.21C366.315 172.544 365.529 172.598 364.811 172.329L365.461 184.305C365.479 184.652 365.663 184.968 365.956 185.157C366.46 185.484 367.134 185.339 367.459 184.834C367.583 184.642 367.644 184.415 367.631 184.185L366.98 172.208V172.21ZM368.403 169.167L386.142 155.913C386.622 155.554 386.723 154.873 386.364 154.393C386.005 153.912 385.324 153.813 384.844 154.172L367.105 167.426C367.151 167.451 367.197 167.477 367.243 167.506C367.855 167.904 368.254 168.506 368.407 169.167H368.403Z" fill="#00D569"/>
<path d="M366.98 172.21C367.411 171.996 367.777 171.669 368.039 171.264C368.457 170.619 368.565 169.861 368.403 169.167C368.248 168.506 367.852 167.904 367.239 167.506C367.195 167.477 367.147 167.453 367.101 167.426C365.86 166.718 364.267 167.092 363.481 168.306C362.664 169.565 363.023 171.247 364.281 172.064C364.448 172.171 364.625 172.259 364.81 172.329C365.528 172.598 366.315 172.544 366.98 172.21V172.21Z" fill="#192469"/>
<path d="M3.87357 78.8188H0V76.1501H10.9297V78.8188H7.05616V90.2257H3.87357V78.8188V78.8188ZM11.8556 83.1266C11.8556 78.5278 14.451 75.8914 18.248 75.8914C22.045 75.8914 24.6404 78.5465 24.6404 83.1266C24.6404 87.7068 22.0433 90.4845 18.248 90.4845C14.4527 90.4845 11.8556 87.7255 11.8556 83.1266ZM21.3795 83.1266C21.3795 80.3047 20.1678 78.6384 18.248 78.6384C16.3282 78.6384 15.1165 80.3047 15.1165 83.1266C15.1165 85.9486 16.3282 87.7374 18.248 87.7374C20.1678 87.7374 21.3795 85.9486 21.3795 83.1266V83.1266Z" fill="#FFB000"/>
<path d="M31.6074 76.1501H35.5865C39.8856 76.1501 42.6546 78.2895 42.6546 83.1266C42.6546 87.9638 39.8856 90.2257 35.7652 90.2257H31.6091V76.1518L31.6074 76.1501ZM35.3925 87.6625C37.7803 87.6625 39.3937 86.4915 39.3937 83.1266C39.3937 79.7617 37.7803 78.7133 35.3925 78.7133H34.7883V87.6642H35.3925V87.6625ZM44.6526 83.1266C44.6526 78.5278 47.2481 75.8914 51.045 75.8914C54.842 75.8914 57.4375 78.5465 57.4375 83.1266C57.4375 87.7068 54.8403 90.4845 51.045 90.4845C47.2498 90.4845 44.6526 87.7255 44.6526 83.1266ZM54.1766 83.1266C54.1766 80.3047 52.9648 78.6384 51.045 78.6384C49.1253 78.6384 47.9135 80.3047 47.9135 83.1266C47.9135 85.9486 49.1253 87.7374 51.045 87.7374C52.9648 87.7374 54.1766 85.9486 54.1766 83.1266V83.1266Z" fill="#00BDDE"/>
<path d="M64.4062 76.1501H67.5888V87.5553H73.1439V90.224H64.4062V76.1501V76.1501ZM75.5913 76.1501H78.7739V90.224H75.5913V76.1501ZM81.1804 88.4488L83.0082 86.2651C84.009 87.1366 85.3075 87.7357 86.4648 87.7357C87.7923 87.7357 88.4425 87.2132 88.4425 86.3775C88.4425 85.4907 87.6426 85.2065 86.4121 84.701L84.5825 83.9215C83.124 83.3275 81.742 82.1292 81.742 80.0851C81.742 77.7534 83.8252 75.8896 86.7542 75.8896C88.3744 75.8896 90.0695 76.5279 91.2813 77.7346L89.6747 79.7396C88.7471 79.0282 87.8655 78.6367 86.7525 78.6367C85.6394 78.6367 84.9569 79.0928 84.9569 79.8979C84.9569 80.7608 85.8777 81.074 87.1065 81.5642L88.9003 82.2909C90.6192 82.9854 91.6914 84.1308 91.6914 86.1205C91.6914 88.4573 89.7427 90.4827 86.39 90.4827C84.5587 90.4827 82.6117 89.7883 81.177 88.4471L81.1804 88.4488ZM96.4177 78.8188H92.5441V76.1501H103.474V78.8188H99.6002V90.2257H96.4177V78.8188V78.8188Z" fill="#FFB000"/>
<path d="M11.002 114.023C10.6174 114.023 10.2464 113.889 9.95194 113.642L3.81992 108.515C3.12554 107.935 3.03364 106.904 3.61399 106.209C4.19435 105.516 5.22571 105.423 5.92009 106.003L10.7008 110.001L18.5075 99.1509C19.0334 98.4173 20.0545 98.2488 20.7898 98.7765H20.7932C21.5267 99.3075 21.6935 100.329 21.1659 101.064L12.3312 113.344C12.0657 113.713 11.659 113.955 11.208 114.011C11.1399 114.02 11.0718 114.025 11.0037 114.025L11.002 114.023Z" fill="#00BDDE"/>
<path d="M17.8359 143.72H2.60205C1.82257 143.72 1.18945 143.087 1.18945 142.307V127.073C1.18945 126.291 1.82257 125.66 2.60205 125.66H17.8359C18.6154 125.66 19.2485 126.293 19.2485 127.073V142.307C19.2485 143.089 18.6154 143.72 17.8359 143.72Z" fill="#E2E2E2"/>
<path d="M11.002 139.412C10.6174 139.412 10.2464 139.278 9.95194 139.031L3.81992 133.904C3.12554 133.324 3.03364 132.293 3.61399 131.598C4.19435 130.905 5.22571 130.812 5.92009 131.392L10.7008 135.39L18.5075 124.54C19.0351 123.806 20.0579 123.638 20.7932 124.167C21.5267 124.695 21.6935 125.718 21.1659 126.453L12.3312 138.733C12.0232 139.16 11.5296 139.414 11.0037 139.414L11.002 139.412Z" fill="#00BDDE"/>
<path d="M17.8359 169.109H2.60205C1.82257 169.109 1.18945 168.476 1.18945 167.696V152.462C1.18945 151.68 1.82257 151.049 2.60205 151.049H17.8359C18.6154 151.049 19.2485 151.682 19.2485 152.462V167.696C19.2485 168.477 18.6154 169.109 17.8359 169.109Z" fill="#E2E2E2"/>
<path d="M11.002 164.801C10.6174 164.801 10.2464 164.667 9.95194 164.42L3.81992 159.294C3.12554 158.713 3.03364 157.682 3.61399 156.987C4.19435 156.295 5.22571 156.201 5.92009 156.781L10.7008 160.779L18.5075 149.929C19.0351 149.196 20.0579 149.027 20.7932 149.556C21.5267 150.084 21.6935 151.107 21.1659 151.84L12.3312 164.121C12.0232 164.548 11.5296 164.801 11.0037 164.801H11.002Z" fill="#00BDDE"/>
<path d="M102.314 111.087H27.6768C27.1645 111.087 26.7441 110.669 26.7441 110.156V108.293C26.7441 107.78 27.1628 107.362 27.6768 107.362H102.314C102.827 107.362 103.247 107.78 103.247 108.293V110.156C103.247 110.669 102.828 111.087 102.314 111.087V111.087ZM68.4871 118.61H27.6768C27.1645 118.61 26.7441 118.192 26.7441 117.679V115.815C26.7441 115.303 27.1628 114.884 27.6768 114.884H68.4871C68.9994 114.884 69.4198 115.303 69.4198 115.815V117.679C69.4198 118.192 69.0011 118.61 68.4871 118.61ZM102.314 135.048H27.6768C27.1645 135.048 26.7441 134.63 26.7441 134.117V132.254C26.7441 131.741 27.1628 131.323 27.6768 131.323H102.314C102.827 131.323 103.247 131.741 103.247 132.254V134.117C103.247 134.63 102.828 135.048 102.314 135.048V135.048ZM102.314 161.283H27.6768C27.1645 161.283 26.7441 160.864 26.7441 160.352V158.488C26.7441 157.976 27.1628 157.557 27.6768 157.557H102.314C102.827 157.557 103.247 157.976 103.247 158.488V160.352C103.247 160.864 102.828 161.283 102.314 161.283V161.283ZM68.4871 142.571H27.6768C27.1645 142.571 26.7441 142.153 26.7441 141.64V139.776C26.7441 139.264 27.1628 138.845 27.6768 138.845H68.4871C68.9994 138.845 69.4198 139.264 69.4198 139.776V141.64C69.4198 142.153 69.0011 142.571 68.4871 142.571Z" fill="#FFB000"/>
</g>
<defs>
<clipPath id="clip0_170_5076">
<rect width="469.91" height="210" fill="white"/>
</clipPath>
</defs>
</svg>
