<svg width="192" height="182" viewBox="0 0 192 182" fill="none" xmlns="http://www.w3.org/2000/svg">
<path d="M174 122.281H18C13.0365 122.281 9 118.455 9 113.75V36.9687C9 32.2638 13.0365 28.4375 18 28.4375H174C178.964 28.4375 183 32.2638 183 36.9687V113.75C183 118.455 178.964 122.281 174 122.281ZM18 34.125C16.3455 34.125 15 35.4004 15 36.9687V113.75C15 115.318 16.3455 116.594 18 116.594H174C175.654 116.594 177 115.318 177 113.75V36.9687C177 35.4004 175.654 34.125 174 34.125H18ZM117 154.571H75C73.344 154.571 72 153.297 72 151.727C72 150.157 73.344 148.883 75 148.883H117C118.656 148.883 120 150.157 120 151.727C120 153.297 118.656 154.571 117 154.571Z" fill="#2E67BC"/>
<path d="M105 152.141H99V122.281H93V152.141H87V116.594H105V152.141Z" fill="#2E67BC"/>
</svg>
