<svg width="411" height="411" viewBox="0 0 411 411" fill="none" xmlns="http://www.w3.org/2000/svg">
<g clip-path="url(#clip0_151_1982)">
<path d="M205.5 0V205.5H0V205.309C0.0518897 150.841 21.7255 98.621 60.2584 60.1238C98.7913 21.6266 151.031 0.00148269 205.5 7.30747e-05V0Z" fill="url(#paint0_linear_151_1982)"/>
<path d="M205.5 205.5V411C150.999 410.995 98.7326 389.343 60.1949 350.805C21.6573 312.267 0.00483841 260 0 205.5H205.5Z" fill="url(#paint1_linear_151_1982)"/>
<path d="M411 205.5C411.002 232.488 405.688 259.211 395.362 284.144C385.035 309.077 369.898 331.732 350.815 350.815C331.732 369.898 309.077 385.035 284.144 395.362C259.211 405.688 232.487 411.002 205.5 411V205.5H411Z" fill="url(#paint2_linear_151_1982)"/>
<path d="M411 205.501H205.5V0.000488281C260 0.00720577 312.266 21.6602 350.803 60.1975C389.341 98.7347 410.994 151.001 411 205.501V205.501Z" fill="url(#paint3_linear_151_1982)"/>
<path style="mix-blend-mode:multiply" d="M361.779 267.543C380.624 189.891 332.952 111.666 255.301 92.8214C177.65 73.9767 99.4242 121.649 80.5794 199.3C61.7347 276.951 109.407 355.176 187.058 374.021C264.709 392.866 342.934 345.194 361.779 267.543Z" fill="url(#paint4_radial_151_1982)"/>
<path d="M205.505 338.875C279.167 338.875 338.881 279.16 338.881 205.499C338.881 131.837 279.167 72.1226 205.505 72.1226C131.844 72.1226 72.1289 131.837 72.1289 205.499C72.1289 279.16 131.844 338.875 205.505 338.875Z" fill="white"/>
<path style="mix-blend-mode:multiply" d="M294.921 293.531C334.926 253.527 334.926 188.667 294.921 148.663C254.917 108.659 190.057 108.659 150.053 148.663C110.049 188.667 110.049 253.527 150.053 293.531C190.057 333.536 254.917 333.536 294.921 293.531Z" fill="url(#paint5_radial_151_1982)"/>
<path d="M205.5 309.45V411C157.425 411.081 110.857 394.224 73.9744 363.386V309.45H75.6126C86.178 309.45 96.6398 307.369 106.401 303.326C116.162 299.283 125.031 293.357 132.502 285.886L139.727 278.661L146.951 285.886C162.039 300.974 182.503 309.45 203.841 309.45H205.5Z" fill="url(#paint6_linear_151_1982)"/>
<path d="M101.55 205.296H4.92164e-05C-0.0813436 157.22 16.7766 110.652 47.6138 73.7695H101.55V75.4081C101.55 96.7457 110.026 117.209 125.114 132.297L132.339 139.522L125.114 146.747C110.026 161.835 101.55 182.298 101.55 203.636V205.296Z" fill="url(#paint7_linear_151_1982)"/>
<path d="M309.45 205.521H411C411.082 253.597 394.224 300.165 363.387 337.048H309.45V335.409C309.45 314.071 300.974 293.608 285.886 278.52L278.661 271.295L285.886 264.07C300.974 248.982 309.45 228.519 309.45 207.181V205.521Z" fill="url(#paint8_linear_151_1982)"/>
<path d="M205.5 101.55V0.000293646C253.576 -0.0811391 300.143 16.7768 337.026 47.614V101.55H335.388C324.823 101.55 314.361 103.631 304.6 107.674C294.839 111.718 285.969 117.644 278.499 125.115L271.274 132.339L264.049 125.115C248.961 110.027 228.498 101.55 207.16 101.55H205.5Z" fill="url(#paint9_linear_151_1982)"/>
<path d="M206.175 311.994C264.64 311.994 312.035 264.599 312.035 206.134C312.035 147.669 264.64 100.273 206.175 100.273C147.71 100.273 100.314 147.669 100.314 206.134C100.314 264.599 147.71 311.994 206.175 311.994Z" fill="white"/>
<path d="M59.176 119.019H46.1983C45.5185 119.019 44.8667 119.29 44.3859 119.77C43.9052 120.251 43.6347 120.903 43.634 121.583V128.728C42.036 130.551 41.1443 132.887 41.1207 135.311L40.1231 147.218C40.0859 147.674 40.1877 148.131 40.4153 148.528C40.6428 148.926 40.9853 149.245 41.3978 149.444C43.3814 150.404 45.4692 151.133 47.6199 151.615L47.3569 153.941C44.398 154.116 41.5981 155.339 39.4578 157.39L38.2175 158.575C38.136 158.653 38.0706 158.745 38.0251 158.848C37.9795 158.951 37.9546 159.061 37.9519 159.174C37.9492 159.286 37.9686 159.398 38.0092 159.503C38.0498 159.607 38.1106 159.703 38.1882 159.784C38.2659 159.866 38.3588 159.931 38.4616 159.976C38.5645 160.022 38.6752 160.046 38.7876 160.048C38.9 160.051 39.0117 160.031 39.1164 159.99C39.2211 159.949 39.3167 159.888 39.3978 159.81L40.6381 158.626C42.6514 156.698 45.3329 155.623 48.1207 155.628C48.3327 155.627 48.5371 155.549 48.6946 155.407C48.8521 155.265 48.9516 155.07 48.9738 154.859L49.6414 148.961C50.5728 149.475 51.616 149.754 52.6799 149.772C53.7438 149.791 54.7962 149.548 55.7448 149.066L56.4021 154.869C56.4255 155.078 56.5251 155.27 56.6817 155.41C56.8383 155.55 57.041 155.628 57.2511 155.628C60.036 155.623 62.7149 156.695 64.727 158.62L65.9766 159.811C66.1407 159.968 66.3601 160.053 66.5868 160.047C66.8135 160.042 67.0287 159.947 67.1853 159.783C67.3418 159.619 67.4268 159.399 67.4214 159.173C67.4161 158.946 67.321 158.731 67.1569 158.574L65.9073 157.383C63.7688 155.336 60.9723 154.117 58.0174 153.941L57.7688 151.75C60.1252 151.277 62.4111 150.504 64.5709 149.45C64.9911 149.246 65.3391 148.918 65.5685 148.511C65.7979 148.104 65.8977 147.637 65.8547 147.172C65.6352 144.759 65.0776 140.214 64.6702 136.895C64.5508 133.908 63.5293 131.026 61.7403 128.631V121.583C61.7396 120.903 61.4692 120.251 60.9884 119.77C60.5077 119.29 59.8558 119.019 59.176 119.019ZM45.3436 121.583C45.3437 121.356 45.4338 121.139 45.5941 120.979C45.7544 120.818 45.9717 120.728 46.1984 120.728H59.176C59.4027 120.728 59.6201 120.818 59.7804 120.979C59.9407 121.139 60.0308 121.356 60.0309 121.583V128.07H45.3437L45.3436 121.583ZM45.3987 135.971C47.2209 136.393 49.1266 136.276 50.8831 135.633C52.6396 134.99 54.171 133.85 55.2904 132.351C56.4349 133.793 58.106 135.122 59.8472 134.497C59.9617 135.087 60.0226 135.685 60.0291 136.286C60.1875 138.239 59.9118 140.202 59.2219 142.036C58.5319 143.87 57.4447 145.528 56.0383 146.892C56.0147 146.908 55.992 146.924 55.9703 146.942C51.3917 150.337 45.0914 145.65 45.3987 135.971V135.971ZM62.9732 137.104C63.3789 140.411 63.9356 144.94 64.1519 147.324C64.1638 147.445 64.1384 147.566 64.0791 147.671C64.0198 147.777 63.9295 147.862 63.8205 147.914C61.8359 148.882 59.7378 149.598 57.5753 150.044L57.3462 148.024C58.8703 146.492 60.0503 144.653 60.8077 142.629C61.565 140.605 61.8824 138.442 61.7386 136.286C61.7386 134.641 61.5953 132.75 59.9448 132.75C59.4512 132.75 59.2996 132.941 58.9506 132.941C58.282 132.941 57.4037 132.297 56.5416 131.175C56.3932 130.995 56.2077 130.849 55.9978 130.748C55.7879 130.646 55.5585 130.591 55.3254 130.586C55.0922 130.582 54.8608 130.628 54.647 130.721C54.4332 130.814 54.2421 130.952 54.0866 131.126C53.1643 132.432 51.8704 133.432 50.3729 133.994C48.8755 134.557 47.2436 134.656 45.689 134.279C44.7659 134.028 43.6409 134.633 43.6872 136.212C43.479 138.357 43.7634 140.521 44.5185 142.539C45.2736 144.558 46.4796 146.377 48.0446 147.859L47.8131 149.905C45.8496 149.45 43.943 148.777 42.1288 147.899C42.0296 147.849 41.9477 147.771 41.8938 147.674C41.8399 147.577 41.8164 147.466 41.8266 147.355C43.1789 135.131 42.0931 133.086 44.9827 129.779H60.4728C62.0073 131.922 62.8769 134.47 62.9732 137.104V137.104Z" fill="white"/>
<path d="M54.726 123.544H53.5416V122.36C53.5386 122.135 53.4473 121.921 53.2873 121.763C53.1274 121.605 52.9116 121.516 52.6868 121.516C52.462 121.516 52.2462 121.605 52.0862 121.763C51.9262 121.921 51.8349 122.135 51.832 122.36V123.544H50.6482C50.4234 123.546 50.2088 123.638 50.0509 123.798C49.8929 123.958 49.8044 124.174 49.8044 124.398C49.8044 124.623 49.8929 124.839 50.0509 124.999C50.2088 125.159 50.4234 125.25 50.6482 125.253H51.8318V126.438C51.8347 126.662 51.9261 126.877 52.0861 127.035C52.246 127.193 52.4618 127.281 52.6866 127.281C52.9114 127.281 53.1271 127.193 53.2871 127.035C53.4471 126.877 53.5384 126.662 53.5413 126.438V125.253H54.726C54.9508 125.25 55.1654 125.159 55.3233 124.999C55.4813 124.839 55.5698 124.623 55.5698 124.398C55.5698 124.173 55.4813 123.958 55.3233 123.798C55.1654 123.638 54.9508 123.546 54.726 123.543V123.544Z" fill="white"/>
<path d="M282.642 75.1294H274.789V77.0661H282.642V75.1294Z" fill="white"/>
<path d="M299.051 76.0975C299.051 75.8407 298.949 75.5944 298.768 75.4128C298.586 75.2312 298.34 75.1292 298.083 75.1292H288.399V77.0659H298.083C298.34 77.0659 298.586 76.9639 298.768 76.7823C298.949 76.6007 299.051 76.3544 299.051 76.0975V76.0975ZM247.632 82.1928C247.798 82.3216 248.002 82.3917 248.212 82.3919C248.304 82.392 248.396 82.3784 248.485 82.3515C249.191 82.1582 249.908 82.0088 250.633 81.9042V84.3216C250.337 84.4269 250.082 84.6208 249.901 84.8768C249.72 85.1327 249.622 85.4384 249.621 85.7519V89.0972C249.621 89.5018 249.782 89.8896 250.068 90.1757C250.355 90.4617 250.742 90.6226 251.147 90.6231H261.183C261.735 90.6225 262.265 90.4028 262.655 90.0122C263.046 89.6217 263.266 89.0922 263.266 88.5399C263.265 87.3962 262.81 86.2998 262.001 85.4911C261.193 84.6824 260.096 84.2275 258.953 84.2262H257.411V81.8511C258.146 81.9575 258.873 82.106 259.591 82.2959C259.734 82.3341 259.884 82.338 260.029 82.3071C260.174 82.2762 260.31 82.2115 260.425 82.1182C260.543 82.023 260.638 81.9026 260.703 81.7658C260.768 81.629 260.801 81.4794 260.801 81.328V72.1583C260.8 72.0831 260.791 72.0081 260.774 71.9347L261.659 69.3611L261.477 69.3385C260.885 69.3027 260.303 69.1669 259.757 68.9366L259.122 70.783L249.354 67.4249L254.839 51.47C255.056 50.8375 255.396 50.2541 255.839 49.753C256.281 49.2518 256.819 48.8429 257.42 48.5494C258.02 48.2559 258.673 48.0836 259.341 48.0424C260.008 48.0012 260.677 48.0919 261.31 48.3092L261.312 48.3099L261.446 48.3558C262.533 48.7318 263.462 49.4645 264.08 50.4349C264.698 51.4052 264.97 52.5563 264.852 53.7008L265.675 57.6781L266.438 55.4573C267.042 53.6937 266.922 51.7627 266.103 50.0879C265.285 48.4131 263.836 47.1312 262.074 46.5235L261.94 46.4776C261.067 46.1775 260.143 46.0522 259.222 46.109C258.301 46.1658 257.4 46.4035 256.57 46.8086C255.741 47.2136 254.999 47.778 254.388 48.4697C253.776 49.1613 253.307 49.9666 253.007 50.8396L253.007 50.84L247.339 67.3293C247.303 67.437 247.281 67.5487 247.273 67.6619C247.254 67.7391 247.244 67.8182 247.243 67.8977V81.3924C247.243 81.5466 247.277 81.6988 247.345 81.8376C247.412 81.9763 247.51 82.0978 247.632 82.1928V82.1928ZM258.952 86.1629C259.583 86.1636 260.187 86.4143 260.632 86.8599C261.078 87.3055 261.329 87.9097 261.329 88.5399C261.329 88.5788 261.314 88.616 261.286 88.6435C261.259 88.671 261.222 88.6864 261.183 88.6865H251.558V86.1629H258.952ZM252.569 84.2262V81.688C253.536 81.6182 254.507 81.6086 255.475 81.6593V84.2262H252.569ZM249.18 69.4134L258.864 72.7425V80.0766C255.664 79.4566 252.373 79.475 249.18 80.1308V69.4134Z" fill="white"/>
<path d="M278.715 65.4457C280.272 65.4636 281.758 66.0981 282.847 67.21C283.936 68.3219 284.54 69.8204 284.526 71.3769V82.3921H272.905V71.3769C272.907 71.0924 272.93 70.8085 272.972 70.5273C272.655 70.5858 272.333 70.6155 272.011 70.6161L271.854 70.6137C271.766 70.6108 271.677 70.6041 271.589 70.5938L271.016 70.5228C270.985 70.8064 270.969 71.0915 270.969 71.3768V89.6548C270.969 89.9116 271.071 90.1579 271.252 90.3395C271.434 90.5211 271.68 90.6231 271.937 90.6231C272.194 90.6231 272.44 90.5211 272.622 90.3395C272.803 90.1579 272.905 89.9116 272.905 89.6548V84.3287H284.526V89.6548C284.527 89.9108 284.63 90.1559 284.811 90.3364C284.992 90.517 285.238 90.6183 285.494 90.6183C285.75 90.6183 285.996 90.517 286.177 90.3364C286.359 90.1559 286.461 89.9108 286.462 89.6548V71.3768C286.476 69.3069 285.668 67.3161 284.216 65.8411C282.763 64.3661 280.785 63.5273 278.715 63.5088C278.107 63.5111 277.502 63.5864 276.912 63.733C277.144 64.3441 277.253 64.9953 277.232 65.6489C277.715 65.5159 278.214 65.4476 278.715 65.4457Z" fill="white"/>
<path d="M264.446 61.2947L264.44 61.2695V61.2692L263.671 57.5502V57.5506L262.797 53.3294C262.615 52.504 262.118 51.7823 261.412 51.3183C260.705 50.8543 259.846 50.6848 259.016 50.846C258.764 50.8974 258.544 51.0466 258.402 51.2608C258.26 51.475 258.21 51.7367 258.261 51.9882C258.312 52.2398 258.462 52.4607 258.676 52.6022C258.89 52.7438 259.152 52.7945 259.403 52.7431L259.408 52.7421C259.735 52.6831 260.072 52.7518 260.35 52.9341C260.627 53.1165 260.824 53.3984 260.9 53.7218L262.436 61.1417L261.03 65.2313C260.895 65.1406 260.782 65.0212 260.699 64.8817C260.616 64.7422 260.564 64.5861 260.548 64.4244C260.526 64.1693 260.403 63.9335 260.208 63.7686C260.012 63.6036 259.759 63.5229 259.503 63.5442C259.248 63.5654 259.012 63.6869 258.846 63.882C258.68 64.0771 258.598 64.3299 258.618 64.5852C258.668 65.1214 258.858 65.6351 259.169 66.0744C259.481 66.5137 259.903 66.8632 260.392 67.0876L260.391 67.0895L260.412 67.0983C260.484 67.1316 260.556 67.1618 260.631 67.19C260.754 67.238 260.881 67.2786 261.009 67.3115C261.052 67.3219 261.095 67.33 261.138 67.3387C261.296 67.3735 261.456 67.3961 261.617 67.4061L261.684 67.4123L262.302 67.4891L262.303 67.4883L271.467 68.626L271.466 68.627L271.821 68.6709L271.908 68.6776L272.025 68.679L272.07 68.6757C272.191 68.6732 272.312 68.6642 272.432 68.6486C272.489 68.6416 272.545 68.6341 272.6 68.6244C272.697 68.6071 272.791 68.5852 272.885 68.5598C272.978 68.5349 273.068 68.5051 273.157 68.4727C273.205 68.4554 273.252 68.4376 273.298 68.4182C273.494 68.3396 273.682 68.2427 273.859 68.1285L273.877 68.1056C274.357 67.7854 274.744 67.3433 274.997 66.8245L275.004 66.8175C275.079 66.6581 275.14 66.4928 275.186 66.3233L275.201 66.2739C275.218 66.2093 275.23 66.143 275.243 66.077C275.25 66.0417 275.259 66.0075 275.265 65.9719C275.272 65.928 275.274 65.8826 275.279 65.8381C275.286 65.7811 275.294 65.7248 275.298 65.6669C275.303 65.5603 275.303 65.4535 275.298 65.3469L275.296 65.3268C275.257 64.6244 274.974 63.9577 274.495 63.4417C274.21 63.1319 273.865 62.8816 273.482 62.7051C273.099 62.5286 272.685 62.4294 272.264 62.4133L264.446 61.2947ZM273.364 65.5607C273.359 65.6187 273.349 65.6762 273.336 65.7327C273.052 66.0127 272.791 66.3136 272.553 66.6331C272.381 66.7043 272.197 66.7412 272.011 66.7418H272.008L262.946 65.6169L263.791 63.1577L272.04 64.3376C272.076 64.3429 272.112 64.3461 272.149 64.3471C272.322 64.3495 272.492 64.3867 272.651 64.4565C272.809 64.5262 272.952 64.6272 273.07 64.7533C273.171 64.8613 273.249 64.9884 273.299 65.1271C273.35 65.2658 273.372 65.4133 273.364 65.5607V65.5607ZM261.198 40.1098L261.782 40.4967C261.778 40.582 261.769 40.6658 261.769 40.7519C261.765 42.0117 262.17 43.2388 262.922 44.2494C263.674 45.26 264.733 45.9996 265.941 46.3575C267.149 46.7154 268.44 46.6723 269.622 46.2346C270.803 45.7969 271.811 44.9882 272.494 43.9297C273.177 42.8711 273.499 41.6198 273.411 40.3631C273.323 39.1063 272.83 37.9119 272.006 36.9588C271.183 36.0057 270.072 35.3451 268.841 35.0761C267.611 34.8071 266.326 34.9441 265.18 35.4666L264.384 34.9399C263.767 34.5274 263.014 34.3693 262.283 34.4986C261.552 34.628 260.9 35.0347 260.461 35.634C260.204 35.9777 260.02 36.3702 259.919 36.7876C259.819 37.205 259.805 37.6385 259.878 38.0615C259.947 38.4747 260.1 38.8695 260.327 39.2216C260.554 39.5738 260.85 39.876 261.198 40.1098V40.1098ZM267.579 36.8784C268.356 36.8796 269.115 37.1142 269.757 37.5517C270.398 37.9892 270.894 38.6094 271.179 39.332L271.069 39.2719C270.844 39.1488 270.579 39.1204 270.332 39.1928C270.086 39.2652 269.878 39.4325 269.755 39.658C269.632 39.8834 269.603 40.1486 269.676 40.3951C269.748 40.6415 269.916 40.8492 270.141 40.9722L271.348 41.6312C271.182 42.3402 270.82 42.9881 270.303 43.5006C269.786 44.0131 269.135 44.3694 268.424 44.5286C267.714 44.6878 266.973 44.6435 266.286 44.4007C265.6 44.158 264.996 43.7266 264.544 43.1562C264.091 42.5857 263.809 41.8993 263.729 41.1756C263.649 40.452 263.775 39.7204 264.092 39.065C264.409 38.4095 264.904 37.8567 265.521 37.4699C266.137 37.0832 266.851 36.8781 267.579 36.8784H267.579ZM262.007 36.8009C262.15 36.597 262.366 36.457 262.611 36.411C262.855 36.3649 263.108 36.4165 263.315 36.5545L263.465 36.6539C262.944 37.1763 262.528 37.7927 262.237 38.4703C262.117 38.3833 262.016 38.2736 261.939 38.1474C261.862 38.0211 261.81 37.8809 261.787 37.7347C261.758 37.5723 261.763 37.4057 261.801 37.2451C261.839 37.0845 261.909 36.9334 262.007 36.8009V36.8009ZM238.044 77.0658H245.35V75.129H238.044C237.788 75.1303 237.543 75.2329 237.362 75.4143C237.182 75.5958 237.08 75.8414 237.08 76.0974C237.08 76.3534 237.182 76.599 237.362 76.7804C237.543 76.9619 237.788 77.0645 238.044 77.0658V77.0658Z" fill="white"/>
<path d="M269.032 75.1294H262.616V77.0661H269.032V75.1294Z" fill="white"/>
<path d="M354.171 266.444L354.179 266.428L354.184 266.407C354.207 266.335 354.223 266.26 354.244 266.187C354.353 265.815 354.451 265.441 354.533 265.064C354.577 264.867 354.612 264.667 354.648 264.467C354.697 264.191 354.74 263.913 354.775 263.636C354.801 263.431 354.826 263.228 354.845 263.021C354.877 262.657 354.893 262.289 354.901 261.923C354.903 261.82 354.916 261.721 354.916 261.618C354.916 261.514 354.903 261.413 354.9 261.309C354.893 260.945 354.876 260.581 354.845 260.219C354.826 260.009 354.8 259.802 354.774 259.595C354.739 259.323 354.697 259.051 354.649 258.78C354.612 258.575 354.577 258.369 354.532 258.166C354.453 257.806 354.359 257.449 354.255 257.093C354.229 257.004 354.21 256.912 354.182 256.824L354.178 256.81L354.174 256.801C353.149 253.548 351.114 250.706 348.364 248.689C345.613 246.672 342.292 245.584 338.881 245.584C335.47 245.584 332.149 246.672 329.398 248.689C326.648 250.706 324.613 253.548 323.588 256.801L323.584 256.81L323.58 256.824C323.553 256.912 323.534 257.004 323.508 257.093C323.404 257.449 323.31 257.806 323.231 258.166C323.187 258.369 323.151 258.574 323.114 258.778C323.066 259.052 323.023 259.325 322.989 259.6C322.962 259.804 322.936 260.008 322.918 260.214C322.886 260.588 322.867 260.963 322.861 261.339C322.859 261.433 322.847 261.523 322.847 261.618C322.847 261.711 322.859 261.801 322.861 261.893C322.867 262.272 322.885 262.648 322.918 263.025C322.936 263.229 322.962 263.43 322.988 263.632C323.023 263.911 323.066 264.189 323.115 264.467C323.151 264.668 323.186 264.867 323.23 265.065C323.312 265.441 323.409 265.815 323.519 266.186C323.54 266.259 323.555 266.334 323.579 266.407L323.584 266.428L323.592 266.444C324.781 270.169 327.285 273.333 330.637 275.346C329.674 275.974 328.875 276.824 328.308 277.824C327.741 278.824 327.422 279.945 327.377 281.094C327.337 281.532 327.397 281.973 327.553 282.385C327.709 282.796 327.956 283.166 328.277 283.468C329.406 284.411 331.24 284.078 333.56 283.659C337.06 282.837 340.703 282.837 344.203 283.659C345.264 283.887 346.342 284.027 347.426 284.076C348.164 284.126 348.895 283.91 349.486 283.467C349.807 283.166 350.054 282.796 350.21 282.384C350.366 281.973 350.426 281.532 350.386 281.094C350.341 279.945 350.022 278.824 349.455 277.823C348.887 276.823 348.089 275.973 347.126 275.345C350.478 273.332 352.982 270.168 354.171 266.443V266.444ZM352.947 258.438C352.98 258.584 353.015 258.73 353.044 258.875C353.14 259.379 353.209 259.888 353.251 260.399C353.278 260.728 353.296 261.061 353.301 261.396C353.302 261.47 353.308 261.544 353.308 261.618C353.308 261.691 353.302 261.763 353.3 261.836C353.293 262.33 353.261 262.823 353.203 263.314C353.161 263.675 353.108 264.034 353.039 264.386C353.014 264.517 352.982 264.647 352.952 264.778C352.907 264.983 352.85 265.185 352.795 265.387H347.732C348.234 264.194 348.493 262.913 348.493 261.618C348.493 260.324 348.234 259.043 347.732 257.85H352.796C352.849 258.045 352.903 258.24 352.947 258.438ZM338.881 247.187C341.761 247.191 344.574 248.056 346.958 249.67C349.343 251.284 351.191 253.574 352.264 256.246H346.859C345.979 254.938 344.791 253.867 343.4 253.126C342.009 252.386 340.457 251.999 338.881 251.999C337.305 251.999 335.753 252.387 334.362 253.127C332.971 253.868 331.783 254.94 330.904 256.247H325.499C326.572 253.575 328.42 251.285 330.805 249.671C333.189 248.057 336.002 247.192 338.882 247.188L338.881 247.187ZM346.898 261.618C346.898 261.661 346.893 261.703 346.892 261.746C346.887 262.028 346.868 262.309 346.834 262.588C346.822 262.686 346.805 262.783 346.789 262.88C346.749 263.134 346.697 263.385 346.632 263.633C346.615 263.701 346.599 263.77 346.579 263.837C346.486 264.163 346.372 264.484 346.238 264.795L346.235 264.803C346.103 265.101 345.954 265.39 345.788 265.67C345.083 266.876 344.075 267.877 342.863 268.573C341.652 269.269 340.279 269.635 338.882 269.635C337.484 269.635 336.112 269.269 334.9 268.574C333.688 267.878 332.68 266.877 331.975 265.67C331.808 265.39 331.659 265.1 331.527 264.802L331.524 264.796C331.391 264.484 331.277 264.164 331.184 263.837C331.164 263.77 331.148 263.701 331.131 263.633C331.066 263.385 331.014 263.133 330.973 262.88C330.957 262.783 330.941 262.687 330.929 262.588C330.895 262.309 330.875 262.028 330.871 261.746C330.871 261.703 330.864 261.661 330.864 261.618C330.864 261.576 330.87 261.534 330.871 261.491C330.876 261.209 330.895 260.928 330.929 260.648C330.941 260.551 330.958 260.455 330.973 260.359C331.014 260.103 331.066 259.851 331.132 259.6C331.149 259.535 331.164 259.467 331.183 259.402C331.371 258.758 331.638 258.14 331.978 257.562C332.683 256.357 333.692 255.357 334.903 254.662C336.114 253.968 337.486 253.602 338.882 253.603C340.278 253.603 341.65 253.969 342.861 254.664C344.072 255.359 345.08 256.359 345.785 257.564C346.125 258.142 346.392 258.76 346.58 259.403C346.599 259.469 346.614 259.536 346.631 259.603C346.697 259.851 346.749 260.105 346.79 260.359C346.806 260.455 346.822 260.552 346.834 260.65C346.869 260.93 346.888 261.211 346.892 261.492C346.892 261.536 346.899 261.577 346.899 261.621L346.898 261.618ZM324.81 264.777C324.781 264.648 324.75 264.52 324.724 264.39C324.626 263.879 324.555 263.363 324.513 262.845C324.484 262.505 324.465 262.162 324.461 261.815C324.46 261.75 324.454 261.684 324.454 261.618C324.454 261.551 324.46 261.484 324.461 261.417C324.468 260.917 324.501 260.417 324.56 259.921C324.601 259.568 324.653 259.217 324.72 258.872C324.748 258.728 324.783 258.584 324.815 258.439C324.86 258.24 324.914 258.046 324.967 257.85H330.031C329.526 259.042 329.265 260.324 329.265 261.619C329.265 262.914 329.526 264.196 330.031 265.388H324.968C324.912 265.186 324.856 264.984 324.81 264.778V264.777ZM348.782 281.093C348.809 281.296 348.795 281.502 348.739 281.698C348.683 281.895 348.587 282.077 348.457 282.235C347.905 282.697 346.245 282.396 344.489 282.079C340.799 281.225 336.964 281.225 333.274 282.079C331.517 282.396 329.858 282.697 329.305 282.235C329.175 282.077 329.08 281.894 329.024 281.698C328.968 281.502 328.953 281.296 328.981 281.093C329.055 280.064 329.395 279.072 329.968 278.214C330.541 277.356 331.326 276.662 332.248 276.198C334.328 277.156 336.591 277.652 338.881 277.652C341.172 277.652 343.435 277.156 345.515 276.198C346.437 276.662 347.222 277.356 347.795 278.214C348.367 279.072 348.708 280.064 348.782 281.093V281.093ZM338.881 276.05C336.002 276.046 333.19 275.181 330.805 273.567C328.421 271.953 326.573 269.663 325.499 266.992H330.905C331.784 268.3 332.972 269.371 334.363 270.112C335.754 270.852 337.306 271.24 338.881 271.24C340.457 271.24 342.009 270.852 343.4 270.112C344.791 269.371 345.979 268.3 346.858 266.992H352.264C351.19 269.663 349.342 271.953 346.957 273.567C344.573 275.181 341.761 276.045 338.881 276.049L338.881 276.05Z" fill="white"/>
<path d="M338.881 255.205C337.613 255.205 336.373 255.581 335.318 256.286C334.263 256.991 333.441 257.992 332.956 259.164C332.47 260.336 332.343 261.626 332.591 262.87C332.838 264.114 333.449 265.257 334.346 266.154C335.243 267.051 336.386 267.662 337.63 267.909C338.874 268.157 340.164 268.03 341.336 267.544C342.508 267.059 343.51 266.237 344.214 265.182C344.919 264.127 345.295 262.887 345.295 261.619C345.294 259.918 344.617 258.288 343.415 257.086C342.212 255.883 340.582 255.207 338.881 255.205V255.205ZM338.881 266.429C337.93 266.429 337 266.147 336.209 265.618C335.418 265.09 334.802 264.338 334.438 263.459C334.074 262.581 333.978 261.613 334.164 260.68C334.349 259.747 334.808 258.89 335.48 258.218C336.153 257.545 337.01 257.087 337.943 256.901C338.876 256.716 339.843 256.811 340.722 257.175C341.601 257.539 342.352 258.155 342.881 258.946C343.409 259.737 343.692 260.667 343.692 261.619C343.69 262.894 343.183 264.117 342.281 265.018C341.379 265.92 340.157 266.427 338.881 266.429V266.429ZM338.881 250.855C339.094 250.855 339.298 250.771 339.449 250.62C339.599 250.47 339.683 250.266 339.683 250.053V249.132C339.683 248.92 339.599 248.716 339.449 248.565C339.298 248.415 339.094 248.331 338.881 248.331C338.669 248.331 338.465 248.415 338.314 248.565C338.164 248.716 338.08 248.92 338.08 249.132V250.052C338.08 250.264 338.164 250.468 338.314 250.619C338.465 250.769 338.669 250.853 338.881 250.853V250.855Z" fill="white"/>
<path d="M338.881 258.412C338.031 258.413 337.216 258.752 336.615 259.353C336.013 259.954 335.675 260.77 335.674 261.62C335.674 261.833 335.759 262.037 335.909 262.187C336.06 262.337 336.264 262.422 336.476 262.422C336.689 262.422 336.893 262.337 337.043 262.187C337.194 262.037 337.278 261.833 337.278 261.62C337.279 261.195 337.448 260.787 337.748 260.486C338.049 260.186 338.456 260.017 338.881 260.016C339.094 260.016 339.298 259.931 339.448 259.781C339.599 259.631 339.683 259.427 339.683 259.214C339.683 259.001 339.599 258.797 339.448 258.647C339.298 258.497 339.094 258.412 338.881 258.412V258.412Z" fill="white"/>
<path d="M150.37 346.498C150.37 346.343 150.33 346.192 150.254 346.058C150.177 345.923 150.067 345.811 149.934 345.733L138.46 338.936C138.328 338.856 138.176 338.813 138.022 338.812C137.867 338.81 137.715 338.851 137.581 338.928C137.446 339.007 137.335 339.12 137.259 339.256C137.182 339.391 137.143 339.545 137.146 339.701V353.295C137.143 353.451 137.182 353.604 137.258 353.74C137.335 353.876 137.446 353.989 137.581 354.068C137.712 354.144 137.862 354.185 138.014 354.185C138.172 354.185 138.328 354.142 138.464 354.06L149.936 347.264C150.069 347.185 150.179 347.073 150.255 346.938C150.331 346.804 150.371 346.652 150.37 346.498ZM138.926 351.733V341.263L147.764 346.498L138.926 351.733Z" fill="white"/>
<path d="M157.534 353.492C157.368 353.331 157.145 353.241 156.914 353.241C156.683 353.241 156.461 353.331 156.295 353.492L152.9 356.783C152.732 356.946 152.635 357.17 152.631 357.405C152.627 357.64 152.717 357.866 152.88 358.035C153.043 358.204 153.266 358.302 153.501 358.307C153.736 358.311 153.963 358.223 154.133 358.061L156.012 356.233V362.357C156.012 362.593 156.106 362.819 156.273 362.986C156.439 363.153 156.666 363.247 156.902 363.247C157.138 363.247 157.364 363.153 157.531 362.986C157.698 362.819 157.792 362.593 157.792 362.357V356.233L159.683 358.061C159.853 358.224 160.081 358.314 160.317 358.311C160.553 358.307 160.777 358.21 160.942 358.041C161.107 357.872 161.197 357.645 161.195 357.409C161.192 357.173 161.096 356.948 160.927 356.783L157.534 353.492Z" fill="white"/>
<path d="M157.792 348.856V335.083C157.798 334.149 157.433 333.25 156.777 332.585C156.121 331.92 155.228 331.542 154.294 331.536H154.268H131.439C130.974 331.535 130.513 331.626 130.083 331.804C129.653 331.981 129.262 332.242 128.932 332.571C128.603 332.899 128.341 333.289 128.163 333.719C127.984 334.149 127.892 334.61 127.891 335.075V357.912C127.891 358.375 127.982 358.833 128.159 359.261C128.336 359.688 128.596 360.077 128.923 360.404C129.25 360.731 129.638 360.991 130.066 361.168C130.493 361.345 130.951 361.436 131.414 361.436H131.439H148.05C148.624 363.022 149.612 364.425 150.913 365.499C152.214 366.573 153.779 367.277 155.445 367.539C157.111 367.801 158.817 367.611 160.385 366.989C161.952 366.367 163.324 365.335 164.356 364.002C165.389 362.668 166.045 361.082 166.255 359.408C166.465 357.735 166.222 356.036 165.551 354.488C164.881 352.941 163.807 351.602 162.442 350.611C161.077 349.621 159.471 349.015 157.792 348.857L157.792 348.856ZM131.439 359.656C130.977 359.663 130.532 359.487 130.2 359.165C129.869 358.844 129.678 358.404 129.671 357.942C129.671 357.932 129.671 357.922 129.671 357.912V335.083C129.669 334.616 129.854 334.167 130.183 333.836C130.512 333.504 130.96 333.317 131.427 333.315H154.268C154.497 333.315 154.723 333.36 154.935 333.447C155.146 333.534 155.338 333.662 155.5 333.824C155.662 333.985 155.791 334.177 155.879 334.388C155.966 334.599 156.012 334.825 156.012 335.054C156.012 335.064 156.012 335.074 156.012 335.083V348.852C153.68 349.081 151.516 350.166 149.937 351.897C148.359 353.629 147.477 355.883 147.463 358.226C147.468 358.706 147.511 359.184 147.593 359.656H131.439ZM156.914 365.897C154.888 365.894 152.947 365.089 151.514 363.657C150.082 362.225 149.275 360.284 149.272 358.258C149.268 356.233 150.068 354.288 151.495 352.851C152.923 351.415 154.862 350.602 156.887 350.592L156.937 350.595L156.972 350.593C158.998 350.606 160.936 351.423 162.361 352.862C163.786 354.302 164.582 356.248 164.574 358.274C164.566 360.3 163.755 362.24 162.319 363.669C160.883 365.098 158.939 365.899 156.914 365.897H156.914Z" fill="white"/>
</g>
<defs>
<linearGradient id="paint0_linear_151_1982" x1="-20.2888" y1="-20.2887" x2="231.888" y2="231.888" gradientUnits="userSpaceOnUse">
<stop stop-color="#F05773"/>
<stop offset="1" stop-color="#D11F43"/>
</linearGradient>
<linearGradient id="paint1_linear_151_1982" x1="-85.4414" y1="59.8628" x2="226.064" y2="371.368" gradientUnits="userSpaceOnUse">
<stop stop-color="#5C2979"/>
<stop offset="1" stop-color="#D11F43"/>
</linearGradient>
<linearGradient id="paint2_linear_151_1982" x1="357.964" y1="357.964" x2="119.854" y2="119.854" gradientUnits="userSpaceOnUse">
<stop stop-color="#00AABF"/>
<stop offset="1" stop-color="#FEBC11"/>
</linearGradient>
<linearGradient id="paint3_linear_151_1982" x1="454.053" y1="308.75" x2="228.501" y2="83.197" gradientUnits="userSpaceOnUse">
<stop stop-color="#F05773"/>
<stop offset="1" stop-color="#FEBC11"/>
</linearGradient>
<radialGradient id="paint4_radial_151_1982" cx="0" cy="0" r="1" gradientUnits="userSpaceOnUse" gradientTransform="translate(221.179 233.421) scale(144.681 144.681)">
<stop stop-color="#010101"/>
<stop offset="1" stop-color="white"/>
</radialGradient>
<radialGradient id="paint5_radial_151_1982" cx="0" cy="0" r="1" gradientUnits="userSpaceOnUse" gradientTransform="translate(222.487 221.097) scale(102.437 102.437)">
<stop stop-color="#010101"/>
<stop offset="1" stop-color="white"/>
</radialGradient>
<linearGradient id="paint6_linear_151_1982" x1="253.953" y1="450.634" x2="43.0008" y2="239.682" gradientUnits="userSpaceOnUse">
<stop stop-color="#00AABF"/>
<stop offset="1" stop-color="#FEBC11"/>
</linearGradient>
<linearGradient id="paint7_linear_151_1982" x1="-57.1683" y1="31.5894" x2="254.336" y2="343.094" gradientUnits="userSpaceOnUse">
<stop stop-color="#5C2979"/>
<stop offset="1" stop-color="#D11F43"/>
</linearGradient>
<linearGradient id="paint8_linear_151_1982" x1="425.872" y1="336.931" x2="200.318" y2="111.377" gradientUnits="userSpaceOnUse">
<stop stop-color="#F05773"/>
<stop offset="1" stop-color="#FEBC11"/>
</linearGradient>
<linearGradient id="paint9_linear_151_1982" x1="78.0522" y1="-118.629" x2="330.229" y2="133.548" gradientUnits="userSpaceOnUse">
<stop stop-color="#F05773"/>
<stop offset="1" stop-color="#D11F43"/>
</linearGradient>
<clipPath id="clip0_151_1982">
<rect width="411" height="411" fill="white"/>
</clipPath>
</defs>
</svg>
