<svg width="43" height="69" viewBox="0 0 43 69" fill="none" xmlns="http://www.w3.org/2000/svg">
<path d="M17.1512 9.49292H16.9012V9.74292V11.9054V12.1554H17.1512H25.8688H26.1188V11.9054V9.74292V9.49292H25.8688H17.1512ZM8.83906 0.75C4.37599 0.75 0.75 4.37599 0.75 8.83906V60.19C0.75 64.6531 4.37599 68.2791 8.83906 68.2791H34.2484C38.7115 68.2791 42.3375 64.6531 42.3375 60.19V8.83906C42.3375 4.37599 38.7115 0.75 34.2484 0.75H8.83906ZM8.83906 3.4125H34.2484C37.2417 3.4125 39.675 5.84583 39.675 8.83906V52.65H3.4125V8.83906C3.4125 5.84163 5.84571 3.4125 8.83906 3.4125ZM3.4125 55.3125H39.675V60.1984C39.675 63.1917 37.2417 65.625 34.2484 65.625H8.83906C5.84583 65.625 3.4125 63.1917 3.4125 60.1984V55.3125Z" fill="#2E67BC" stroke="#2E67BC" stroke-width="0.5"/>
</svg>
