<svg width="420" height="336" viewBox="0 0 420 336" fill="none" xmlns="http://www.w3.org/2000/svg">
<path d="M256.163 185.048C262.307 159.629 246.683 134.042 221.264 127.897C195.845 121.752 170.257 137.377 164.112 162.796C157.968 188.215 173.592 213.802 199.011 219.947C224.43 226.092 250.018 210.467 256.163 185.048Z" fill="white"/>
<path d="M210.126 221.978C200.619 221.978 191.326 219.16 183.421 213.878C175.515 208.597 169.354 201.091 165.715 192.308C162.075 183.525 161.122 173.86 162.975 164.536C164.827 155.211 169.404 146.645 176.124 139.921C182.845 133.197 191.408 128.617 200.732 126.759C210.056 124.901 219.721 125.849 228.505 129.484C237.29 133.119 244.8 139.277 250.085 147.179C255.37 155.081 258.194 164.373 258.199 173.88C258.192 186.63 253.126 198.856 244.113 207.874C235.1 216.893 222.876 221.965 210.126 221.978ZM210.126 127.277C200.901 127.277 191.883 130.013 184.212 135.139C176.542 140.265 170.565 147.551 167.036 156.074C163.507 164.598 162.586 173.977 164.388 183.024C166.19 192.072 170.635 200.382 177.161 206.903C183.686 213.424 191.999 217.863 201.048 219.658C210.097 221.454 219.475 220.526 227.996 216.991C236.518 213.456 243.799 207.473 248.919 199.799C254.04 192.125 256.769 183.105 256.763 173.88C256.743 161.52 251.822 149.673 243.079 140.937C234.336 132.2 222.486 127.288 210.126 127.277V127.277Z" fill="#FFAF18"/>
<path d="M225.574 71.5428H195.174C194.669 71.5428 194.184 71.342 193.826 70.9844C193.468 70.6268 193.268 70.1418 193.268 69.6361C193.268 69.1303 193.468 68.6453 193.826 68.2877C194.184 67.9301 194.669 67.7292 195.174 67.7292H225.574C226.08 67.7292 226.565 67.9301 226.922 68.2877C227.28 68.6453 227.481 69.1303 227.481 69.6361C227.481 70.1418 227.28 70.6268 226.922 70.9844C226.565 71.342 226.08 71.5428 225.574 71.5428ZM195.174 68.6868C194.923 68.6868 194.681 68.7869 194.503 68.9649C194.325 69.1429 194.225 69.3843 194.225 69.6361C194.225 69.8878 194.325 70.1292 194.503 70.3072C194.681 70.4852 194.923 70.5852 195.174 70.5852H225.574C225.826 70.5852 226.067 70.4852 226.245 70.3072C226.423 70.1292 226.523 69.8878 226.523 69.6361C226.523 69.3843 226.423 69.1429 226.245 68.9649C226.067 68.7869 225.826 68.6868 225.574 68.6868H195.174ZM223.272 155.249C223.222 155.039 223.172 154.82 223.113 154.619C223.054 154.417 222.987 154.199 222.92 153.989C222.852 153.779 222.701 153.384 222.575 153.082C222.322 152.501 222.027 151.94 221.693 151.402C221.609 151.251 221.516 151.105 221.416 150.965C220.929 150.222 220.366 149.532 219.736 148.907C219.361 148.53 218.962 148.176 218.543 147.848L218.148 147.546C217.678 147.208 217.187 146.899 216.678 146.622L216.208 146.378C215.889 146.219 215.561 146.076 215.225 145.942L214.62 145.723L214.091 145.555C212.118 144.98 210.038 144.873 208.016 145.241C205.994 145.609 204.085 146.442 202.44 147.675C200.796 148.908 199.461 150.506 198.541 152.344C197.621 154.182 197.141 156.209 197.14 158.264V174.686C197.095 176.452 197.405 178.209 198.05 179.854C198.695 181.499 199.663 182.997 200.896 184.262C202.129 185.527 203.603 186.532 205.231 187.218C206.859 187.905 208.608 188.258 210.374 188.258C212.141 188.258 213.889 187.905 215.517 187.218C217.145 186.532 218.619 185.527 219.852 184.262C221.086 182.997 222.053 181.499 222.698 179.854C223.343 178.209 223.653 176.452 223.608 174.686V158.239C223.608 157.233 223.496 156.23 223.272 155.249V155.249ZM207.59 171.965H199.92V170.394H207.59V171.965ZM207.59 167.244H199.92V165.673H207.59V167.244ZM207.59 162.532H199.92V160.952H207.59V162.532ZM220.786 171.965H213.108V170.394H220.786V171.965ZM220.786 167.244H213.108V165.673H220.786V167.244ZM220.786 162.532H213.108V160.952H220.786V162.532Z" fill="white"/>
<path d="M223.271 155.249C223.221 155.039 223.171 154.82 223.112 154.619C223.053 154.417 222.986 154.199 222.919 153.989C222.851 153.779 222.7 153.384 222.574 153.082C222.321 152.501 222.026 151.939 221.692 151.402C221.608 151.251 221.515 151.105 221.415 150.965C220.928 150.222 220.365 149.532 219.735 148.907C219.36 148.53 218.961 148.176 218.542 147.848L218.147 147.546C217.677 147.208 217.186 146.899 216.677 146.622L216.207 146.378C215.888 146.219 215.56 146.076 215.224 145.942L214.619 145.723L214.09 145.555C212.117 144.98 210.037 144.873 208.015 145.241C205.993 145.608 204.084 146.442 202.439 147.675C200.795 148.908 199.46 150.506 198.54 152.344C197.62 154.182 197.14 156.209 197.139 158.264V174.686C197.094 176.452 197.404 178.209 198.049 179.854C198.694 181.498 199.662 182.997 200.895 184.262C202.128 185.527 203.602 186.532 205.23 187.218C206.858 187.905 208.607 188.258 210.373 188.258C212.14 188.258 213.888 187.905 215.516 187.218C217.144 186.532 218.618 185.527 219.851 184.262C221.085 182.997 222.052 181.498 222.697 179.854C223.342 178.209 223.652 176.452 223.607 174.686V158.239C223.607 157.233 223.495 156.23 223.271 155.249V155.249ZM207.589 171.965H199.919V170.394H207.589V171.965ZM207.589 167.244H199.919V165.673H207.589V167.244ZM207.589 162.532H199.919V160.952H207.589V162.532ZM220.785 171.965H213.107V170.394H220.785V171.965ZM220.785 167.244H213.107V165.673H220.785V167.244ZM220.785 162.532H213.107V160.952H220.785V162.532Z" fill="#FFAF18"/>
<path d="M197.139 158.239V174.661C197.139 178.171 198.532 181.537 201.013 184.019C203.494 186.502 206.859 187.897 210.369 187.9V145.001C206.859 145.003 203.494 146.399 201.013 148.881C198.532 151.364 197.139 154.73 197.139 158.239ZM207.588 171.965H199.919V170.394H207.588V171.965ZM207.588 167.244H199.919V165.673H207.588V167.244ZM207.588 162.532H199.919V160.952H207.588V162.532Z" fill="#FFAF18"/>
<path d="M210.37 192.36C200.533 192.36 192.52 183.683 192.52 173.04C192.547 172.677 192.711 172.338 192.978 172.09C193.245 171.843 193.596 171.705 193.96 171.705C194.324 171.705 194.675 171.843 194.942 172.09C195.209 172.338 195.373 172.677 195.401 173.04C195.401 182.112 202.121 189.496 210.37 189.496C218.618 189.496 225.347 182.112 225.347 173.04C225.374 172.677 225.538 172.338 225.805 172.09C226.073 171.843 226.423 171.705 226.787 171.705C227.151 171.705 227.502 171.843 227.769 172.09C228.036 172.338 228.2 172.677 228.228 173.04C228.228 183.691 220.214 192.36 210.37 192.36Z" fill="#FFAF18"/>
<path d="M210.37 202.171C209.988 202.169 209.623 202.016 209.354 201.745C209.085 201.474 208.934 201.108 208.934 200.726V190.924C208.961 190.561 209.125 190.221 209.392 189.974C209.659 189.726 210.01 189.589 210.374 189.589C210.738 189.589 211.089 189.726 211.356 189.974C211.623 190.221 211.787 190.561 211.815 190.924V200.76C211.806 201.137 211.65 201.496 211.38 201.76C211.11 202.024 210.747 202.171 210.37 202.171V202.171Z" fill="#FFAF18"/>
<path d="M197.139 203.162C197.141 201.959 197.619 200.806 198.469 199.954C199.319 199.103 200.472 198.622 201.675 198.618H219.063C220.267 198.62 221.422 199.1 222.274 199.951C223.125 200.803 223.605 201.958 223.607 203.162" fill="#FFAF18"/>
<path d="M333.993 180.34C333.615 180.34 333.252 180.191 332.983 179.925C332.714 179.659 332.561 179.298 332.556 178.92V171.528C332.556 171.147 332.708 170.782 332.977 170.512C333.246 170.243 333.612 170.092 333.993 170.092C334.374 170.092 334.739 170.243 335.008 170.512C335.278 170.782 335.429 171.147 335.429 171.528V178.92C335.425 179.298 335.271 179.659 335.002 179.925C334.733 180.191 334.371 180.34 333.993 180.34V180.34ZM325.366 188.009C325.177 188.01 324.99 187.974 324.815 187.902C324.64 187.83 324.481 187.724 324.348 187.591C324.214 187.457 324.108 187.298 324.036 187.124C323.965 186.949 323.928 186.761 323.929 186.573V164.8C323.929 164.419 324.081 164.053 324.35 163.784C324.619 163.515 324.985 163.363 325.366 163.363C325.747 163.363 326.112 163.515 326.382 163.784C326.651 164.053 326.802 164.419 326.802 164.8V186.573C326.802 186.953 326.651 187.319 326.382 187.588C326.112 187.858 325.747 188.009 325.366 188.009V188.009ZM316.731 195.72C316.35 195.72 315.984 195.569 315.715 195.299C315.446 195.03 315.294 194.665 315.294 194.284V156.652C315.279 156.453 315.305 156.254 315.371 156.066C315.436 155.878 315.54 155.706 315.675 155.56C315.81 155.414 315.974 155.297 316.157 155.218C316.339 155.138 316.536 155.097 316.735 155.097C316.934 155.097 317.131 155.138 317.313 155.218C317.495 155.297 317.659 155.414 317.795 155.56C317.93 155.706 318.034 155.878 318.099 156.066C318.165 156.254 318.191 156.453 318.175 156.652V194.242C318.181 194.435 318.148 194.627 318.078 194.806C318.007 194.986 317.902 195.15 317.767 195.288C317.632 195.426 317.471 195.535 317.293 195.609C317.115 195.684 316.924 195.721 316.731 195.72V195.72ZM308.104 202.39C307.723 202.39 307.358 202.238 307.088 201.969C306.819 201.7 306.667 201.334 306.667 200.953V149.461C306.667 149.08 306.819 148.715 307.088 148.446C307.358 148.176 307.723 148.025 308.104 148.025C308.485 148.025 308.85 148.176 309.119 148.446C309.389 148.715 309.54 149.08 309.54 149.461V200.953C309.541 201.142 309.505 201.33 309.433 201.504C309.361 201.679 309.256 201.838 309.122 201.971C308.988 202.105 308.83 202.211 308.655 202.283C308.48 202.354 308.293 202.391 308.104 202.39V202.39ZM299.477 195.72C299.288 195.721 299.101 195.685 298.926 195.613C298.751 195.541 298.592 195.435 298.459 195.302C298.325 195.168 298.219 195.009 298.148 194.835C298.076 194.66 298.039 194.473 298.041 194.284V156.652C298.041 156.271 298.192 155.905 298.461 155.636C298.731 155.367 299.096 155.215 299.477 155.215C299.858 155.215 300.223 155.367 300.493 155.636C300.762 155.905 300.913 156.271 300.913 156.652V194.242C300.919 194.434 300.886 194.625 300.816 194.804C300.747 194.983 300.642 195.147 300.508 195.285C300.374 195.423 300.214 195.532 300.037 195.607C299.859 195.682 299.669 195.72 299.477 195.72V195.72ZM290.842 188.009C290.461 188.009 290.096 187.858 289.826 187.588C289.557 187.319 289.405 186.953 289.405 186.573V164.8C289.433 164.437 289.597 164.097 289.864 163.85C290.131 163.602 290.482 163.465 290.846 163.465C291.21 163.465 291.561 163.602 291.828 163.85C292.095 164.097 292.259 164.437 292.287 164.8V186.573C292.287 186.762 292.249 186.949 292.176 187.124C292.104 187.299 291.997 187.458 291.863 187.591C291.729 187.725 291.569 187.83 291.394 187.902C291.219 187.974 291.031 188.01 290.842 188.009V188.009ZM282.24 180.34C281.86 180.337 281.496 180.185 281.227 179.917C280.958 179.648 280.806 179.284 280.804 178.903V171.511C280.804 171.13 280.955 170.765 281.224 170.496C281.494 170.226 281.859 170.075 282.24 170.075C282.621 170.075 282.987 170.226 283.256 170.496C283.525 170.765 283.677 171.13 283.677 171.511V178.92C283.672 179.298 283.519 179.659 283.25 179.925C282.981 180.191 282.618 180.34 282.24 180.34V180.34ZM385.048 180.34C384.668 180.337 384.303 180.185 384.035 179.917C383.766 179.648 383.614 179.284 383.611 178.903V171.511C383.639 171.148 383.803 170.809 384.07 170.562C384.337 170.314 384.688 170.177 385.052 170.177C385.416 170.177 385.767 170.314 386.034 170.562C386.301 170.809 386.465 171.148 386.493 171.511V178.92C386.486 179.299 386.331 179.66 386.061 179.925C385.79 180.191 385.427 180.34 385.048 180.34ZM376.421 184.657C376.232 184.657 376.044 184.62 375.869 184.547C375.695 184.474 375.536 184.368 375.402 184.234C375.269 184.099 375.163 183.94 375.092 183.765C375.02 183.59 374.984 183.402 374.985 183.213V167.673C374.985 167.292 375.136 166.926 375.405 166.657C375.675 166.387 376.04 166.236 376.421 166.236C376.802 166.236 377.167 166.387 377.437 166.657C377.706 166.926 377.857 167.292 377.857 167.673V183.213C377.859 183.402 377.822 183.59 377.751 183.765C377.679 183.94 377.573 184.099 377.44 184.234C377.306 184.368 377.147 184.474 376.973 184.547C376.798 184.62 376.61 184.657 376.421 184.657V184.657ZM367.794 192.805C367.412 192.805 367.046 192.654 366.776 192.385C366.505 192.116 366.352 191.751 366.349 191.369V160.482C366.377 160.119 366.541 159.78 366.808 159.532C367.075 159.285 367.426 159.147 367.79 159.147C368.154 159.147 368.505 159.285 368.772 159.532C369.039 159.78 369.203 160.119 369.231 160.482V191.369C369.228 191.749 369.076 192.113 368.807 192.382C368.539 192.651 368.174 192.803 367.794 192.805ZM359.159 199.08C358.779 199.078 358.415 198.926 358.146 198.657C357.877 198.388 357.725 198.024 357.723 197.644V153.77C357.75 153.407 357.914 153.068 358.181 152.821C358.448 152.573 358.799 152.436 359.163 152.436C359.527 152.436 359.878 152.573 360.145 152.821C360.412 153.068 360.576 153.407 360.604 153.77V197.602C360.608 197.794 360.574 197.986 360.504 198.165C360.433 198.344 360.327 198.507 360.193 198.645C360.058 198.783 359.897 198.892 359.72 198.967C359.542 199.042 359.352 199.08 359.159 199.08V199.08ZM350.532 192.805C350.152 192.803 349.788 192.651 349.519 192.382C349.25 192.113 349.098 191.749 349.096 191.369V160.482C349.096 160.101 349.247 159.736 349.517 159.466C349.786 159.197 350.151 159.046 350.532 159.046C350.913 159.046 351.279 159.197 351.548 159.466C351.817 159.736 351.969 160.101 351.969 160.482V191.369C351.969 191.75 351.817 192.115 351.548 192.385C351.279 192.654 350.913 192.805 350.532 192.805V192.805ZM341.88 184.657C341.691 184.657 341.503 184.62 341.329 184.547C341.154 184.474 340.995 184.368 340.862 184.234C340.728 184.099 340.622 183.94 340.551 183.765C340.479 183.59 340.443 183.402 340.444 183.213V167.673C340.444 167.292 340.595 166.926 340.864 166.657C341.134 166.387 341.499 166.236 341.88 166.236C342.261 166.236 342.627 166.387 342.896 166.657C343.165 166.926 343.317 167.292 343.317 167.673V183.213C343.317 183.594 343.166 183.96 342.896 184.231C342.627 184.502 342.262 184.655 341.88 184.657V184.657ZM86.0078 180.34C86.3859 180.34 86.7487 180.191 87.0176 179.925C87.2865 179.659 87.4398 179.298 87.4442 178.92V171.528C87.4442 171.147 87.2929 170.782 87.0235 170.512C86.7541 170.243 86.3888 170.092 86.0078 170.092C85.6269 170.092 85.2615 170.243 84.9921 170.512C84.7227 170.782 84.5714 171.147 84.5714 171.528V178.92C84.5758 179.298 84.7291 179.659 84.998 179.925C85.2669 180.191 85.6297 180.34 86.0078 180.34V180.34ZM94.6346 188.009C94.8236 188.01 95.0108 187.974 95.1856 187.902C95.3604 187.83 95.5192 187.724 95.6528 187.591C95.7864 187.457 95.8922 187.298 95.9639 187.124C96.0357 186.949 96.0721 186.761 96.071 186.573V164.8C96.071 164.419 95.9197 164.053 95.6503 163.784C95.3809 163.515 95.0156 163.363 94.6346 163.363C94.2537 163.363 93.8883 163.515 93.6189 163.784C93.3495 164.053 93.1982 164.419 93.1982 164.8V186.573C93.1982 186.953 93.3495 187.319 93.6189 187.588C93.8883 187.858 94.2537 188.009 94.6346 188.009V188.009ZM103.27 195.72C103.651 195.72 104.016 195.569 104.286 195.299C104.555 195.03 104.706 194.665 104.706 194.284V156.652C104.721 156.453 104.695 156.254 104.63 156.066C104.564 155.878 104.461 155.706 104.325 155.56C104.19 155.414 104.026 155.297 103.844 155.218C103.661 155.138 103.465 155.097 103.266 155.097C103.067 155.097 102.87 155.138 102.687 155.218C102.505 155.297 102.341 155.414 102.206 155.56C102.071 155.706 101.967 155.878 101.901 156.066C101.836 156.254 101.81 156.453 101.825 156.652V194.242C101.819 194.435 101.853 194.627 101.923 194.806C101.993 194.986 102.099 195.15 102.234 195.288C102.368 195.426 102.53 195.535 102.708 195.609C102.886 195.684 103.077 195.721 103.27 195.72V195.72ZM111.897 202.39C112.278 202.39 112.643 202.238 112.912 201.969C113.182 201.7 113.333 201.334 113.333 200.953V149.461C113.333 149.08 113.182 148.715 112.912 148.446C112.643 148.176 112.278 148.025 111.897 148.025C111.516 148.025 111.15 148.176 110.881 148.446C110.612 148.715 110.46 149.08 110.46 149.461V200.953C110.459 201.142 110.495 201.33 110.567 201.504C110.639 201.679 110.745 201.838 110.878 201.971C111.012 202.105 111.171 202.211 111.346 202.283C111.52 202.354 111.708 202.391 111.897 202.39V202.39ZM120.523 195.72C120.712 195.721 120.9 195.685 121.074 195.613C121.249 195.541 121.408 195.435 121.542 195.302C121.675 195.168 121.781 195.009 121.853 194.835C121.925 194.66 121.961 194.473 121.96 194.284V156.652C121.96 156.271 121.808 155.905 121.539 155.636C121.27 155.367 120.904 155.215 120.523 155.215C120.142 155.215 119.777 155.367 119.508 155.636C119.238 155.905 119.087 156.271 119.087 156.652V194.242C119.081 194.434 119.114 194.625 119.184 194.804C119.254 194.983 119.359 195.147 119.493 195.285C119.627 195.423 119.787 195.532 119.964 195.607C120.141 195.682 120.331 195.72 120.523 195.72V195.72ZM129.159 188.009C129.347 188.009 129.534 187.972 129.708 187.9C129.883 187.827 130.041 187.722 130.174 187.588C130.308 187.455 130.413 187.296 130.486 187.122C130.558 186.948 130.595 186.761 130.595 186.573V164.8C130.567 164.437 130.403 164.097 130.136 163.85C129.869 163.602 129.519 163.465 129.154 163.465C128.79 163.465 128.44 163.602 128.172 163.85C127.905 164.097 127.742 164.437 127.714 164.8V186.573C127.714 186.762 127.751 186.949 127.824 187.124C127.897 187.299 128.003 187.458 128.137 187.591C128.272 187.725 128.431 187.83 128.606 187.902C128.782 187.974 128.969 188.01 129.159 188.009V188.009ZM137.76 180.34C138.14 180.337 138.505 180.185 138.773 179.917C139.042 179.648 139.194 179.284 139.197 178.903V171.511C139.197 171.323 139.159 171.136 139.087 170.962C139.015 170.787 138.909 170.629 138.776 170.496C138.643 170.362 138.484 170.256 138.31 170.184C138.136 170.112 137.949 170.075 137.76 170.075C137.572 170.075 137.385 170.112 137.211 170.184C137.036 170.256 136.878 170.362 136.745 170.496C136.611 170.629 136.505 170.787 136.433 170.962C136.361 171.136 136.324 171.323 136.324 171.511V178.92C136.328 179.298 136.482 179.659 136.75 179.925C137.019 180.191 137.382 180.34 137.76 180.34V180.34ZM34.9526 180.34C35.33 180.338 35.6916 180.188 35.96 179.923C36.2285 179.657 36.3824 179.297 36.389 178.92V171.528C36.3613 171.165 36.1975 170.826 35.9303 170.578C35.6632 170.331 35.3125 170.193 34.9484 170.193C34.5843 170.193 34.2336 170.331 33.9665 170.578C33.6994 170.826 33.5356 171.165 33.5078 171.528V178.92C33.5144 179.299 33.6696 179.66 33.9398 179.925C34.21 180.191 34.5738 180.34 34.9526 180.34V180.34ZM43.5794 184.657C43.7688 184.657 43.9562 184.62 44.131 184.547C44.3059 184.474 44.4646 184.368 44.5981 184.234C44.7316 184.099 44.8372 183.94 44.9089 183.765C44.9806 183.59 45.0169 183.402 45.0158 183.213V167.673C45.0158 167.292 44.8645 166.926 44.5951 166.657C44.3257 166.387 43.9604 166.236 43.5794 166.236C43.1985 166.236 42.8331 166.387 42.5637 166.657C42.2943 166.926 42.143 167.292 42.143 167.673V183.213C42.1419 183.402 42.1782 183.59 42.2499 183.765C42.3216 183.94 42.4273 184.099 42.5607 184.234C42.6942 184.368 42.853 184.474 43.0278 184.547C43.2026 184.62 43.3901 184.657 43.5794 184.657V184.657ZM52.2062 192.805C52.5879 192.805 52.9542 192.654 53.2249 192.385C53.4956 192.116 53.6488 191.751 53.651 191.369V160.482C53.6233 160.119 53.4595 159.78 53.1923 159.532C52.9252 159.285 52.5745 159.147 52.2104 159.147C51.8463 159.147 51.4956 159.285 51.2285 159.532C50.9614 159.78 50.7976 160.119 50.7698 160.482V191.369C50.772 191.749 50.9241 192.113 51.193 192.382C51.4619 192.651 51.8259 192.803 52.2062 192.805ZM60.8414 199.08C61.2217 199.078 61.5858 198.926 61.8547 198.657C62.1236 198.388 62.2756 198.024 62.2778 197.644V153.77C62.2501 153.407 62.0863 153.068 61.8191 152.821C61.552 152.573 61.2013 152.436 60.8372 152.436C60.4731 152.436 60.1224 152.573 59.8553 152.821C59.5882 153.068 59.4244 153.407 59.3966 153.77V197.602C59.3921 197.794 59.4262 197.986 59.4968 198.165C59.5674 198.344 59.6731 198.507 59.8077 198.645C59.9423 198.783 60.1031 198.892 60.2806 198.967C60.4582 199.042 60.6488 199.08 60.8414 199.08V199.08ZM69.4682 192.805C69.8485 192.803 70.2126 192.651 70.4815 192.382C70.7504 192.113 70.9024 191.749 70.9046 191.369V160.482C70.9046 160.101 70.7533 159.736 70.4839 159.466C70.2145 159.197 69.8492 159.046 69.4682 159.046C69.0873 159.046 68.7219 159.197 68.4525 159.466C68.1831 159.736 68.0318 160.101 68.0318 160.482V191.369C68.0318 191.75 68.1831 192.115 68.4525 192.385C68.7219 192.654 69.0873 192.805 69.4682 192.805V192.805ZM78.1202 184.657C78.3096 184.657 78.497 184.62 78.6718 184.547C78.8467 184.474 79.0054 184.368 79.1389 184.234C79.2724 184.099 79.378 183.94 79.4497 183.765C79.5214 183.59 79.5577 183.402 79.5566 183.213V167.673C79.5566 167.292 79.4053 166.926 79.1359 166.657C78.8665 166.387 78.5012 166.236 78.1202 166.236C77.7393 166.236 77.3739 166.387 77.1045 166.657C76.8351 166.926 76.6838 167.292 76.6838 167.673V183.213C76.6838 183.594 76.8349 183.96 77.104 184.231C77.3731 184.502 77.7385 184.655 78.1202 184.657V184.657Z" fill="#FFAF18"/>
<path d="M310.607 103.908H291.22C290.224 103.91 289.271 104.306 288.567 105.01C287.863 105.714 287.467 106.668 287.465 107.663V127.142L291.858 123.934H310.607C311.602 123.931 312.556 123.535 313.259 122.831C313.963 122.128 314.359 121.174 314.362 120.179V107.663C314.359 106.668 313.963 105.714 313.259 105.01C312.556 104.306 311.602 103.91 310.607 103.908V103.908Z" fill="white"/>
<path d="M286.986 128.083V107.663C286.986 106.549 287.429 105.481 288.216 104.693C289.004 103.905 290.072 103.463 291.186 103.463H310.574C311.687 103.463 312.756 103.905 313.543 104.693C314.331 105.481 314.774 106.549 314.774 107.663V120.179C314.774 121.293 314.331 122.361 313.543 123.149C312.756 123.936 311.687 124.379 310.574 124.379H292.018L286.986 128.083ZM291.186 104.387C290.318 104.389 289.486 104.735 288.872 105.349C288.258 105.963 287.913 106.795 287.91 107.663V126.193L291.674 123.455H310.574C311.442 123.453 312.274 123.107 312.888 122.493C313.501 121.879 313.847 121.047 313.85 120.179V107.663C313.847 106.795 313.501 105.963 312.888 105.349C312.274 104.735 311.442 104.389 310.574 104.387H291.186Z" fill="#494E51"/>
<path d="M310.631 118.196H291.194C291.112 118.194 291.034 118.161 290.976 118.103C290.918 118.045 290.885 117.967 290.883 117.886C290.883 117.803 290.916 117.724 290.974 117.666C291.032 117.607 291.111 117.575 291.194 117.575H310.631C310.714 117.575 310.793 117.607 310.851 117.666C310.909 117.724 310.942 117.803 310.942 117.886C310.94 117.967 310.906 118.045 310.849 118.103C310.791 118.161 310.713 118.194 310.631 118.196V118.196ZM310.631 114.131H291.194C291.119 114.118 291.051 114.08 291.002 114.022C290.953 113.965 290.926 113.891 290.926 113.816C290.926 113.74 290.953 113.667 291.002 113.609C291.051 113.551 291.119 113.513 291.194 113.501H310.631C310.706 113.513 310.774 113.551 310.823 113.609C310.872 113.667 310.899 113.74 310.899 113.816C310.899 113.891 310.872 113.965 310.823 114.022C310.774 114.08 310.706 114.118 310.631 114.131ZM310.631 110.04H291.194C291.119 110.028 291.051 109.989 291.002 109.932C290.953 109.874 290.926 109.801 290.926 109.725C290.926 109.649 290.953 109.576 291.002 109.518C291.051 109.461 291.119 109.422 291.194 109.41H310.631C310.706 109.422 310.774 109.461 310.823 109.518C310.872 109.576 310.899 109.649 310.899 109.725C310.899 109.801 310.872 109.874 310.823 109.932C310.774 109.989 310.706 110.028 310.631 110.04V110.04Z" fill="#FFAF18"/>
</svg>
