<svg width="121" height="121" viewBox="0 0 121 121" fill="none" xmlns="http://www.w3.org/2000/svg">
<path d="M97.3007 52.157C98.9831 52.2521 100.333 53.6828 100.333 55.4483C100.333 76.6996 84.4396 94.1337 64.1636 96.0249L63.71 96.0672V96.5228V107.12C63.71 108.951 62.2611 110.415 60.5019 110.417C59.7183 110.408 58.9642 110.117 58.3792 109.595C57.797 109.076 57.4217 108.364 57.3218 107.591L57.2887 107.103V96.5228V96.0672L56.8351 96.0249C36.5641 94.1337 20.666 76.7046 20.666 55.4483C20.666 53.622 22.1159 52.157 23.8767 52.157C25.6374 52.157 27.0873 53.622 27.0873 55.4483C27.0873 74.3075 42.0325 89.6065 60.4994 89.6065C78.9662 89.6065 93.9114 74.3075 93.9114 55.4483C93.9114 53.622 95.3613 52.157 97.122 52.157H97.3007ZM59.8742 10.5834H61.1245C72.8823 10.5834 82.4348 20.3313 82.4398 32.3927C82.4398 32.3928 82.4398 32.3929 82.4398 32.393V55.413C82.4398 67.4693 72.8875 77.2224 61.1245 77.2224H59.8742C48.1164 77.2224 38.5639 67.4694 38.5639 55.413V32.3927C38.5639 20.3364 48.1164 10.5834 59.8742 10.5834ZM61.1245 17.1711H59.8742C51.6418 17.1711 44.9802 24.0001 44.9802 32.3927V55.413C44.9802 63.8056 51.6418 70.6347 59.8742 70.6347H61.1245C69.362 70.6347 76.0185 63.8055 76.0185 55.413V32.3927C76.0185 24.0001 69.3569 17.1711 61.1245 17.1711Z" fill="#FFAF18" stroke="white"/>
</svg>
