<svg width="76" height="76" viewBox="0 0 76 76" fill="none" xmlns="http://www.w3.org/2000/svg">
<path fill-rule="evenodd" clip-rule="evenodd" d="M60.1666 41.1667C60.0906 41.1667 60.0194 41.1492 59.9434 41.1445C59.0836 47.5997 55.632 53.2301 50.6666 56.9667V68.0833C50.6666 71.5809 47.8309 74.4167 44.3333 74.4167H28.5C25.0024 74.4167 22.1666 71.5809 22.1666 68.0833V56.9667C16.408 52.6332 12.6666 45.7615 12.6666 38C12.6666 30.2369 16.408 23.3652 22.1666 19.0332V7.91667C22.1666 4.41908 25.0024 1.58333 28.5 1.58333H44.3333C47.8309 1.58333 50.6666 4.41908 50.6666 7.91667V19.0332C55.6335 22.7699 59.0836 28.4002 59.9434 34.8555C60.0194 34.8507 60.0906 34.8333 60.1666 34.8333C61.9146 34.8333 63.3333 36.252 63.3333 38C63.3333 39.748 61.9146 41.1667 60.1666 41.1667ZM25.3333 68.0833C25.3333 69.8313 26.752 71.25 28.5 71.25H44.3333C46.0813 71.25 47.5 69.8313 47.5 68.0833V58.9982C44.1892 60.7477 40.4209 61.75 36.4166 61.75C32.4124 61.75 28.644 60.7477 25.3333 58.9982V68.0833ZM47.5 7.91667C47.5 6.16867 46.0813 4.75 44.3333 4.75H28.5C26.752 4.75 25.3333 6.16867 25.3333 7.91667V17.0018C28.644 15.2507 32.4124 14.25 36.4166 14.25C40.4209 14.25 44.1892 15.2507 47.5 17.0018V7.91667ZM36.4166 17.4167C25.0483 17.4167 15.8333 26.6317 15.8333 38C15.8333 49.3683 25.0483 58.5833 36.4166 58.5833C47.785 58.5833 57 49.3683 57 38C57 26.6317 47.785 17.4167 36.4166 17.4167ZM38 42.4587V52.25C38 53.1256 37.2922 53.8333 36.4166 53.8333C35.541 53.8333 34.8333 53.1256 34.8333 52.25V42.4587C32.9935 41.8047 31.6666 40.0647 31.6666 38C31.6666 37.2542 31.8535 36.5592 32.1606 35.929L27.3695 31.1378C26.7662 30.5346 26.7662 29.5545 27.3695 28.9512C27.9743 28.348 28.9528 28.348 29.556 28.9512L34.3472 33.7424C34.9758 33.4368 35.6709 33.25 36.4166 33.25C39.0402 33.25 41.1666 35.378 41.1666 38C41.1666 40.0662 39.8414 41.8047 38 42.4587ZM36.4166 36.4167C35.541 36.4167 34.8333 37.1244 34.8333 38C34.8333 38.8756 35.541 39.5833 36.4166 39.5833C37.2922 39.5833 38 38.8756 38 38C38 37.1244 37.2922 36.4167 36.4166 36.4167Z" fill="#2E67BC"/>
</svg>
